<?xml version="1.0" encoding="UTF-8"?>
<!DOCTYPE svg PUBLIC "-//W3C//DTD SVG 1.1//EN" "http://www.w3.org/Graphics/SVG/1.1/DTD/svg11.dtd">
<!-- Creator: CorelDRAW 2021 (64-Bit) -->
<svg xmlns="http://www.w3.org/2000/svg" xml:space="preserve" width="2in" height="2in" version="1.1" shape-rendering="geometricPrecision" text-rendering="geometricPrecision" image-rendering="optimizeQuality" fill-rule="evenodd" clip-rule="evenodd"
viewBox="0 0 2000 2000"
 xmlns:xlink="http://www.w3.org/1999/xlink"
 xmlns:xodm="http://www.corel.com/coreldraw/odm/2003">
 <g id="Layer_x0020_1">
  <metadata id="CorelCorpID_0Corel-Layer"/>
  <path fill="black" d="M1530.76 393.06c-0.5,49.27 2.9,3.79 -13.28,20.27 -14.2,-31.01 -11.59,-18.1 -0.98,-49.85 13.16,13.97 14.94,-33.73 14.26,29.57zm-19.53 1603l3.04 -122.98c0.46,-34.24 20.27,-179.15 18.78,-186.55 -8.6,-42.6 -26.57,-23.87 -24.01,-64.89 2.01,-32.64 24.83,-32.14 18.63,-85.07 -4.32,-37.15 -24.88,-45.49 -28.09,-76.37 -2.63,-25.08 30.04,-116.31 14.73,-294.63 -13.52,-156.81 46.2,-117.14 -33.8,-158.04 15.16,-104.23 25.81,-164.3 28.5,-274.96 1.2,-48.19 4,-98.51 -5.02,-145.59 -15.62,-81.41 -2.28,-79.1 -5.64,-152.91 -35.59,-5.45 -127.44,4.72 -49.82,-63.09 120.11,-104.96 -36.65,-186.17 -2.49,-298.46 18.15,-59.63 80.61,-71.75 132.48,-47.13l-39.71 11.16c-135.6,38.86 -36.02,149.76 -33.11,156.98 63.98,157.98 41.99,332.43 40.84,517.92 -0.93,148.52 -21.2,792.51 9.07,886.72l48.66 -53.84c-3.67,42.49 -38.57,70.27 -41.36,109.62 -3.76,52.87 11.83,18.61 8.89,59.91 -1.07,15.46 -14.33,36.24 -18.57,56.74 -17.69,85.66 24.39,225.46 -42,225.46z"/>
  <path fill="black" d="M1828.89 1996.06c3.51,-25.28 9.08,-47.61 1.85,-73.33 -14.93,14.43 -23.87,40.55 -29.15,73.33l27.3 0zm-80.96 0c9.24,-113.89 14.35,-218.23 -19.75,-249.59 -27.72,59.54 -39.8,181.57 -40.12,249.59l59.87 0zm194.88 0c-4.28,-14.72 -11.48,-27.42 -22.75,-37.33l-12.17 37.33 34.92 0z"/>
  <path fill="black" d="M1028.89 1996.06c1.53,-249.32 3.32,-474.81 9.2,-577.02 5.41,-93.82 -11.52,-179.45 0.94,-270.14 9.31,-67.92 -13.8,-147.19 3.27,-232.64l4.41 -15.52c69.56,62.61 -5.39,280.41 38.11,374.7 58.15,-45.87 10.17,-69.04 57.33,-117.49 61.57,71.29 -53.99,121.12 -65.6,227.52 -10.83,99.42 -12.88,211.27 -15.31,311.75 -1.27,52.54 11.47,298.82 -32.35,298.82z"/>
  <path fill="black" d="M432.46 1901.83c-11.38,-97.13 31.48,-82.33 -5.48,-206.82 -13.84,-46.57 18.67,-148.03 53.26,-183.74 20.91,333.81 -28.95,236.01 63.41,299.89 -59.36,88.37 -91.8,256.29 -111.19,90.67zm-9.2 36.65l-17.59 0c1.74,-7.93 2.81,42.44 8.79,35.53 2.99,5.81 7.11,-44.28 8.8,-35.53z"/>
  <path fill="black" d="M1969.85 1330.06c-5.78,-60.79 -20.76,-9.44 -8.36,-101.95 11.67,-87 -11.62,-189.34 3.89,-260.82 38.29,-176.44 7.22,-64.06 7.37,-213.18 0.06,-83.89 10.59,-329.87 -27.12,-347.84 -40.52,69.97 -11.65,660.93 -34.04,803.13 -13.38,84.96 -44.32,57.13 -71.98,141.08 -29,88.08 -42.82,29 -30.22,155.53 8.81,88.46 -29.04,326.17 9.19,386.53 24.93,-39.84 15.6,-199.96 20.43,-269.46 3.11,-44.81 12.43,-94.34 3.04,-137.78 -10.28,-47.49 -30.59,-45.13 18.13,-93.37 59.43,69.58 71.52,84.78 21.13,164.41 43.94,56.35 36.22,59.6 37.23,137.24 1.95,151.7 -10.44,90.63 -37.82,105.76 51.81,68.33 23.72,136.19 69.88,153.46 28.01,-58.79 10.13,-279.45 7.49,-356.13 -9.82,-283.36 -125.69,-142.37 -68.24,-291.49 67.49,-1.83 28.26,20.85 80,24.89z"/>
  <path fill="black" d="M1231.71 1996.06c7.93,-23.92 19.04,-41.39 33.63,-86.21 17.7,-54.47 45.28,-318.77 32.55,-368.44 -16.8,-65.24 -12.89,-139.43 -13.87,-206.88 -2.87,-193.97 31.16,-103.13 28.86,-187.99 -0.72,-26.63 -21.53,-158.78 -32.28,-175.7 -52.5,95.05 17.78,850.85 -41.75,941.43 -23.42,-24.26 -46.42,-178.19 -42.54,-216.37 9.06,-89.15 30.78,-156.98 8.81,-254.06 -13.67,-60.47 -37.77,-40.11 -9.83,-107.3 14.08,-33.87 28.77,-50.83 36.34,-90.2 10.13,-52.7 5.34,-173.04 -16.44,-222.19 -36.81,70.11 27.83,176.23 -53.18,289 -42.31,58.87 -46.81,46.58 -50.11,129.05 -1.8,45.7 -3.69,108.98 16.96,144.88 15.7,-68.52 -6.33,-147.63 29.31,-191.1 19.76,52.19 18.87,111.39 17.99,173.37 -1.32,93.44 5.16,113.27 -82.47,77.53 6.33,74.35 65.04,37.81 86.7,170.1 7.63,46.63 5,181.09 51.35,181.09z"/>
  <path fill="black" d="M943.65 1189.94c11.24,-115.37 70.76,-107.53 45.34,-209.87 -32.33,40.75 -42.81,74.58 -67.72,113.6 -26.73,41.94 -66.31,53.12 -94.09,83.06 96.88,145.54 86.19,65.48 89.78,273.98 5.1,298.5 -35.63,174.01 -110.56,244.4 11.75,42.22 31.11,30.6 66.58,68.51 10.1,-41.79 1.04,-51.64 35.38,-70.82 51.6,104.84 -34.65,303.26 68.54,303.26 -9.41,-165.23 -18.84,-310.45 -0.8,-362.48 14.94,-43.09 29.33,-90.69 2.81,-132.96l-17.25 86.91c-26.19,-30.04 -13.66,-161.39 -15.8,-221.82 -5.85,-164.4 -29.54,-125.6 -42.88,-184.35l40.67 8.6z"/>
  <g>
   <path fill="black" d="M226.07 1976.12l24.93 -7.07 2.87 -0.73c-2.77,-248.46 65.47,-207.25 29.08,-348.98 -49.78,40.45 -7.52,67.07 -36.81,110.17 -38.12,-35.57 -23.8,-118.31 19.38,-144.56 45.83,-27.85 125.54,-21.97 79.93,-103.36l-3.96 41.16 -138.94 61.33c-1.79,45.34 2.29,311 -0.04,317.9 -13.37,39.84 -22.42,35.45 -28.76,67.07l52.33 7.22 0 -0.15zm25.34 -220.16c-8.75,48.46 11.08,20.44 -24.29,32.74 4.97,-39.7 -7.93,-16.17 24.29,-32.74z"/>
  </g>
  <path fill="black" d="M1376.05 285.08c-47.13,-56.91 29.55,-250.98 -51.94,-270.25 -28.65,34.61 17.16,3.69 -12.25,58.35 -6.22,11.51 -37.13,-21.23 0.57,46.11 23.93,42.8 42.76,84.24 21.1,133.6 -25.43,-26 -13.99,-55.19 -41.4,-93.17 -21.66,46.24 0.78,117.59 4.09,171.83 5.63,92.06 -41.21,73.71 -25.5,170.94 38.65,-17.26 18.13,-15.61 40.58,-57.3 12.77,107.78 -36.15,69.85 -44.82,159.94 -4.67,48.75 -9.73,153.74 25.65,181.72 43.54,-68.42 -13.83,-166.48 10.66,-221.05 21.63,27.76 12.44,40.95 25.07,78 26.44,-57.97 13.2,-242.35 24.99,-324.1 68.37,61 -38.57,542.24 35.22,629.09 11.42,-28.22 31.81,-690.22 4.09,-771.08l-16.11 107.36z"/>
  <path fill="black" d="M119.9 825.65c19.28,25 25.19,32.3 10.27,62.37 -19.01,-27.76 -12.29,-24.03 -10.27,-62.37zm-33.46 171.38c18.72,8.93 -1.47,2.35 17,2.24 57.57,-0.32 -7.3,40.74 -14.23,82.78 -7.45,45.27 15.33,59.69 20.55,105.03 9.14,79.94 -32.47,125.24 20.41,212.02 70.5,-60.9 -2.45,-90.25 -8.18,-96.26 41.55,-58.02 39.09,-526.34 30.91,-559.68 -15.02,-61.09 -8.83,1.16 -32.36,-52.11 11.89,-63.02 39.85,-38.51 36.39,-137.14 -27.02,-14.3 -9.57,41.23 -30.09,-10.18 -23.62,-59.24 4.68,-19.61 21.89,-45.53 19.07,-28.69 26.82,-464.93 18.21,-496.28 -45.34,22.43 -56.66,151.07 -50.15,205.32l-11.31 536.23c-0.13,84.36 -22.65,173.67 -19.04,253.56z"/>
  <path fill="black" d="M853 1789.58c-20.65,-9.11 -68.37,-36.59 -85.1,-33.18 -12.08,36.42 -15.9,130.22 -16.56,239.66l17.79 -26.98 17.16 26.98c-0.07,-26.96 0.11,-53.91 0.68,-80.88 1.67,-80.48 10.59,-77.08 11.52,-86.2 0.38,-3.67 1.93,-4.68 6.23,-7.36l18.52 72.29 29.77 -104.33z"/>
  <path fill="black" d="M401.43 1100.38l35.2 -30.75 16.68 -111.08 8.31 210.25c-41.15,-20.89 -42.85,-26.62 -60.2,-68.42zm3.98 444.2c26.56,-13.37 33.42,-36.2 69.34,-62.17 0.67,-83.55 14.2,-167.4 16.2,-252.97l2.3 -803.2c-29.68,17.74 -42.85,37.41 -56.49,70.79 21.91,51.94 39.02,95.2 28.29,165.43 -15.46,101.25 -7.66,81.68 -85.14,114.1 57.22,79.59 87.37,54.39 40.15,168.97 -17.06,41.41 -66.34,171.54 -65.85,209.13 91.47,52.1 113.1,46.4 101.81,177.87 -6.08,70.99 -66.29,147.33 -50.62,212.06z"/>
  <path fill="black" d="M588.4 1482.7c30.04,38.96 45.77,28.95 83.99,58.11l-31.24 44.88 -61.06 -36.8c-4.27,51.33 8.91,59.09 53.96,78.4 43.19,18.55 46.42,32.8 83.35,47.59 1.24,-51.97 -32.24,-102.43 -22.3,-329.79l24.24 -675.93 -29.55 -309.58c-53.17,47.5 -15.95,213.33 -16.27,288.48 -0.45,117.61 -7.62,684.92 -21.61,770.52 -9.59,58.54 -18.06,52.89 -42.5,58.67 -21.46,5.09 -1.5,-8.46 -21.02,5.45z"/>
  <path fill="black" d="M15.5 1700.39c11.33,34.81 25.41,106.84 28.54,132.46 10.36,84.7 -44.22,96.5 -18.56,133.11 46.13,-2.69 19.07,-6.25 44.76,-56.57 20.2,25.13 17.74,22.76 44.43,23.83 -6.42,-45.59 -9.78,-58.77 -47.26,-82.08l23.19 -51.89c-58.89,-61.01 -40.5,-43.45 -42.06,-192.55 -21.27,10.54 -26.62,16.83 -33.05,21.93l0 71.76z"/>
  <path fill="black" d="M259.54 901.67c8.49,-105.62 -4.63,-293.5 16.35,-380.21 63.5,-39.09 27.52,-3.42 88.84,-1.31 50.51,-90.19 66.02,-440.2 9.59,-502.02 -98.74,19.47 -1.55,104.04 7.21,198.9 5.67,61.28 -0.7,219.6 -35.92,266.73 -49.26,1.83 -81.68,-32.34 -128.65,-45.43 -13.28,135.39 28.53,242.33 1.26,391.98 -22.03,120.97 -18.63,238.19 -44.19,367.11 80.43,-19.94 51.38,-58.84 58.94,-121.11 7.18,-59.19 21.46,-110.8 26.57,-174.65z"/>
  <path fill="black" d="M1468.15 1368.27c27.36,2.85 -10.6,12.96 17.78,0.36l-1.12 -124.99 -35 50.89c-14.87,-62.92 14.23,-129 5.04,-196.02 -8.12,-59.02 -22.45,-126.87 -29.46,-181.63 -4.48,87.56 -18.9,4.05 -9.52,153.49 8.77,139.97 8.87,603 2.4,908.48l35.43 17.2c6.03,-57.7 17.28,-89.72 9.65,-175.61 -12.5,-140.77 -18.57,-314.19 -15.8,-455.25l20.61 3.07z"/>
  <path fill="black" d="M119.52 1502.68c-71.2,-71.35 -55.83,-194.16 -56.33,-294.86 -0.76,-151.09 16.48,-962.31 -0.63,-985.92 -25.79,35.68 -57.67,1292.37 -28.33,1358.18 30.58,-32.51 12.26,-43.26 26.06,-93 15.87,22.35 14.61,11.98 23.03,41l15.37 61.59c49.28,-30.94 56.52,-85.26 58.47,-142.11 -43.69,32.84 -6.57,13.26 -37.65,55.11z"/>
  <path fill="black" d="M1358.4 1068.23c-17.6,-100.64 20.26,-167.05 -85.02,-205.23 -17.19,61.51 17.48,47.84 35.86,106.52 13.85,44.28 8.06,68.11 30.77,116.7 52.89,113.2 10.2,158.3 -20.64,248.99l18.89 4.68c17.02,8.6 0.87,-16.54 11,9.41 11.16,28.69 -33.81,69.39 -17.9,125.11 24.99,87.52 31.39,334.88 19.16,426.19 -2.02,15.01 -10.39,27.48 -11.59,71.07l43.29 24.39c6.69,-57.42 -0.41,-130.77 0.41,-165.38 2.02,-84.4 5,-168.78 5.82,-253.22 1.61,-167.21 5.88,-363.69 -1.45,-528.65 -23.61,-9.46 1.6,-11.89 -28.61,19.42z"/>
  <path fill="black" d="M1599.07 559.48c32.03,57.07 43.93,-11.13 61.65,81.23 20.74,107.94 14.35,250.29 3.94,355.67 -15.69,159.26 20.4,189.7 15.68,227.53 -5.3,42.62 -22.61,44.84 -24.06,100.52 -2.83,108.01 2.52,37.8 -29.33,93.42l68.09 30.06c10.76,-46.53 2.67,-67.97 5.16,-113.26 1.95,-35.29 12.19,-53.98 15.07,-86.26 1.52,-17.21 -28.57,-564.51 -11.65,-614.2 61.44,-3.44 45.4,69.48 49.29,121.55 103.57,-186.04 -130.8,-205.81 -153.84,-196.24z"/>
  <path fill="black" d="M1156.28 786.2c4.81,-181.85 -9.82,-460.1 12.88,-632.28 18.94,-143.52 70.31,-95.85 36.82,-149.15 -40.32,17.63 -11.33,17.28 -38.15,32.15 -4.88,2.71 -8.51,3.76 -9.97,5.35 -7.28,7.96 -8.16,8.3 -13.69,-5.96 -40.41,217.17 6.79,711.33 -55.25,766.71l-18.95 -195.38 -9 276.44 95.31 -97.88z"/>
  <path fill="black" d="M487.5 312.77c41.54,-4.24 60.36,-17.46 94.43,-9.03 8.75,73.21 8.37,147.53 13.85,221.1 10.48,140.26 -7.11,101.84 -23.18,212.83 75.69,-15.88 58.18,-78.86 59.19,-152.93 0.94,-68.89 0.81,-142.99 -3.33,-211.69 -4.95,-82.67 -12.29,-91.28 2.83,-178.1 10.01,-57.43 19.64,-133.83 1.35,-189.23 -51.09,30.66 -23.31,96.5 -40.82,182.35 -18.77,92.31 -71.45,53.99 -104.31,124.7z"/>
  <path fill="black" d="M345.44 1481.58c-10.92,-49.21 -9.78,-28.07 -59.05,-47.03 -1.09,2.41 -7.74,25.27 -8.21,26.13 -15.8,29.02 10.44,7.62 -20.46,21.22 -64.25,-117.48 59.92,-276.67 64.3,-305.65 -115.62,8.63 -101.89,87.34 -112.72,165.07 -9.85,70.5 -17.69,34.26 -6.85,112.25 7.23,51.77 -8.37,60.97 -11.08,111.53 63.42,-20.37 65.16,-78.56 154.07,-83.53z"/>
  <path fill="black" d="M259.67 416.76c24.98,-58.31 19.92,-137.63 21.15,-201.72 0.88,-46.15 -2.97,-67.92 -7.13,-111.19 -4.41,-45.94 11.52,-43.66 21.25,-91.94 -94.74,22.26 -74.69,95.75 -73.18,182.03l7.24 189.44c10.37,47.75 1.54,24.52 30.66,33.38z"/>
  <path fill="black" d="M362.96 563.57c22.01,25.01 1.17,2.87 24.17,18.27l18 11.35c-41.6,35.49 -41.28,17.57 -49.29,76.55 -10.92,80.31 -18.56,16.75 -35.47,83.93 -19.29,76.58 16.56,127.98 -17.72,189.41 -2.37,14.92 12.34,23.65 14.82,36.19 9.97,50.55 -37.93,60.31 17.88,89.75 14.19,-49.1 7.59,-76.17 10.83,-124.18 5.29,-78.85 25.65,-38.52 43.54,-79.85 -27.84,-24.45 -17.22,-12.37 -55.63,3.49 7.34,-158.3 37.37,-112.67 57.89,-151.42 10.85,-20.43 35.43,-135.22 34.06,-163.3 -40.48,-7.8 -30.13,-12.02 -63.09,9.81z"/>
  <path fill="black" d="M937.04 776.47c113.46,-28.47 65.16,-131.35 68.06,-212.27 1.76,-49.91 13.22,-78.56 9.76,-138.29 -2.07,-36.05 -0.72,-103 -31.78,-125.92 -19.33,68.29 -9.77,168.59 -11.18,242.5 -2.06,109.51 -21.78,140.73 -34.85,233.98z"/>
  <path fill="black" d="M792.35 1335.28c30.49,-13.97 85.96,-24.39 47.78,-69.85 -25.65,7.41 -4.81,-1.87 -27.7,27.18 -35,-28.19 -2.73,-15.95 -49.82,-36.39l-5.22 310.95 66.15 21.2c-48.88,35.13 -75.48,56.42 -98.15,121 56.3,-20.48 119.55,-70.03 117.74,-131.9 -44.57,-49.84 -44.89,7.85 -50.15,-94.46 -2.61,-50.39 -7.77,-97.83 -0.63,-147.72z"/>
  <path fill="black" d="M903.23 845.1c-8.19,-80.13 -22.09,-28.49 4.72,-111.38 17.06,-52.83 19.68,-391.66 0.41,-434.59 -58.26,63.31 -11.11,220.38 -17.02,306.74 -8.35,122.7 -75.67,228.21 11.89,239.24z"/>
  <path fill="black" d="M832.19 500.67l-67.2 -29.35c26.05,-48.39 81.2,-94.33 87.34,-147.28 -34.21,28.96 -7.02,23.67 -46.94,24.18 -43.68,-77.19 47.53,-292.14 30.17,-326.05 -56.73,-17.3 -49.49,16.19 -56.53,140.06 -4.61,81.38 -2.83,141.88 0.74,222.31 -12.97,29.78 -40.67,51.54 -30.58,92.41 10.63,43.02 49.67,45.41 83,23.73z"/>
  <path fill="black" d="M605.02 1989.79c7.87,-53.48 4.47,-125.65 8.94,-180.07 4.04,-49.52 26.2,-95.19 6.48,-128.55 -74.6,18.91 -33.37,150.13 -60.99,233.4l-31.32 -37.43c-2.87,28.83 -26.5,72.04 -21.15,112.06 20.67,0 44.04,-12.85 42.17,-38.89 30.69,18.03 17.09,39.76 55.87,39.48z"/>
  <path fill="black" d="M1837.54 912.66c-41.94,25.07 -23.17,5.91 -31.92,-2.22l24.77 -2.37c1.03,-2.72 4.75,3.09 7.15,4.59zm-10.21 390.05c37.85,-103.33 -29.45,-148.59 6.75,-234.37 21.33,-50.52 38.43,-30.45 26.72,-108.09 -5.33,-35.38 -14.31,-71.02 -36.67,-97.98l-43.51 76.08c79.23,46.78 27.01,90.93 16.62,165.59 -8.18,59 -11.48,157.81 30.09,198.77z"/>
  <path fill="black" d="M1936.69 378.76c52.74,-27.03 32.04,-122.98 31.34,-174.26 -0.72,-52.89 15.19,-157.92 -28.86,-188.86 -51.65,78.31 -5.48,225.79 -4.19,262.52 1.65,47.6 -15.05,51.22 1.71,100.6z"/>
  <path fill="black" d="M792.19 1141.67c40.73,-27.87 89.82,-84.17 97.2,-134.52 -61,29.43 -12.92,47.83 -76.17,73.22 -30.57,-68.93 -19.91,-166.71 -39.95,-207.04 -15.45,67.65 -29.91,322.61 8.78,361.37l10.15 -93.03z"/>
  <path fill="black" d="M1700.04 317.46c121.7,-32.32 3.91,-151.24 70.89,-231.78 24.68,49.41 -16.96,49.35 28.28,114.27 11.07,-45.32 9.07,-137.79 -6.67,-181.43 -62.21,24.47 -91.17,229.01 -92.49,298.94z"/>
  <path fill="black" d="M666.25 1694.59c7.92,75.8 -59.82,379.15 11.42,254.28 23.33,-40.9 14.58,-59.72 23.48,-103.41 14.27,-70.04 35.9,-95.86 -34.9,-150.87z"/>
  <path fill="black" d="M1219.96 528.65c14.88,-20.52 24.35,-435.6 17.88,-447.17 -27.99,26.53 -30.67,59.98 -30.42,102.01 0.45,75.72 24.78,33.99 -10.45,106.72 -25.24,52.1 3.56,46.45 7.69,104.33 3.71,51.52 -2.78,83.2 15.3,134.11z"/>
  <path fill="black" d="M886.42 1851.47c-30.93,33.78 -15.6,79.65 -13.75,127.32 3.27,83.73 14.89,-106.15 13.75,-127.32z"/>
  <path fill="black" d="M1045.86 288.57c55.99,-10.71 47.72,-61.87 52.48,-117.74 4.4,-51.47 16.9,-121.1 -8.75,-165.6 -41.71,28.79 -26.01,219.37 -43.73,283.34z"/>
  <path fill="black" d="M1781.16 343.91c-33.02,-17.78 -76.18,-7.99 -118.98,-9.43 -2.18,-49.65 0.23,-85.38 -48.85,-105.56 -44.47,81 85.02,230.61 167.83,114.98z"/>
  <path fill="black" d="M1866.74 586.08c-66.15,29.04 -86.69,247.42 -27.07,257.93 49.65,8.77 -13.52,-38.44 2.26,-105.18 14.62,-61.82 33.13,-83.03 24.81,-152.76z"/>
  <path fill="black" d="M727.15 297.65c19.14,-49.3 15.56,-233.04 6.37,-290 -5.3,9.43 -29.79,55.96 -30.86,64.09 -4.96,37.94 24.91,-20.3 -2.14,63.99 -14.04,43.75 -7.35,135.68 26.63,161.91z"/>
  <path fill="black" d="M1441.61 858.77c6.81,-2.57 38.44,10.59 24.17,-54.99 -23.73,-109.02 -9.49,-196.75 -30.78,-246.89 -12.81,86.07 -18.31,219.93 6.61,301.88z"/>
  <path fill="black" d="M108.86 1765.63c12.4,-17.34 37.42,-53.34 40,-71.45 0.82,-5.59 -6.28,-93.7 -7.56,-103.7 -57.41,34.56 -74.96,126.98 -32.44,175.15z"/>
  <path fill="black" d="M1726.17 457.51c8.56,105.8 2.83,93.64 34.5,106.19 20.05,-38.68 48.69,-127.12 44.62,-173.01 -65.58,77.07 -5.92,28.94 -79.12,66.82z"/>
  <path fill="black" d="M1569.17 1488.11c25.11,-39.52 20.57,-99.64 26.3,-146.78 7.19,-59.41 42.56,-106.6 12.59,-139.04 -28.02,40.85 -61.59,251.57 -38.89,285.81z"/>
  <path fill="black" d="M1654.58 203.2c38.21,-31.57 35.38,-139.27 26.26,-188.81 -31.85,6.3 -36.34,-25.93 -37.39,84.34 -0.33,36.55 -4.44,74.52 11.13,104.47z"/>
  <path fill="black" d="M623.65 998.26c14.1,-62.58 16.28,-67.59 -3.52,-128.2 -17,-51.91 2.85,-79.59 -10.25,-104.11 -39.24,42.35 -29.46,196.59 13.77,232.3z"/>
  <path fill="black" d="M1201.83 991.96c29.68,-53.37 43.31,-165.26 -26.92,-184.68 12.15,48.48 30.85,47.86 15.99,110.74 -9.98,42.28 -29.71,47.43 -33.05,87.53l43.98 -13.59z"/>
  <path fill="black" d="M932.7 959.87c68.61,-49.65 80.19,-83.71 68.71,-172.51 -45.74,12.5 -32.08,39.29 -41.27,80.57 -10.26,46.09 -30.46,44.17 -27.44,91.94z"/>
  <path fill="black" d="M611.06 1219.33c-10.57,62.7 -29.07,169.98 14.23,214.48 11.94,-62.17 22.28,-163.59 -14.23,-214.48z"/>
  <path fill="black" d="M340.06 1967.27l-51.21 -49.59 4.56 49.59 46.65 0z"/>
  <path fill="black" d="M1146.76 1979.26c0.07,-1.38 0.15,-2.78 0.26,-4.22 3.21,-42.22 3.54,-66.71 -16.02,-98.37 -19.27,19.51 -28.7,69.59 -28.43,119.39l44.19 -16.8z"/>
  <path fill="black" d="M1003.7 257.39c17.81,-37.97 18.74,-95.26 -1.76,-133.72 -30.43,13.61 -28.88,18.85 -29.83,59.31 -1.08,46.94 -3.12,64.13 31.59,74.41z"/>
  <path fill="black" d="M532.35 1434.91c-16.97,38.3 -10.8,168.17 12.24,208.96 4.04,-57.24 29.09,-167.03 -12.24,-208.96z"/>
  <path fill="black" d="M1814.48 572.99c38.91,-25.51 27.15,-37.61 39.26,-77.98 9.91,-33.04 30.94,-46.2 14.67,-87.49 -32.04,23.63 -67.26,129.41 -53.93,165.47z"/>
  <path fill="black" d="M333.6 1701.37c15.39,43.54 20.69,25.52 36.3,51.72 24.73,41.48 -1.04,29.55 16.27,65.24 31.39,-27.08 33.56,-45.04 34.46,-85.63l-87.03 -31.32z"/>
  <path fill="black" d="M982.99 1241.28c-22.65,39.42 -20.82,136.89 0,175.66 22.1,-40.76 24.94,-140.25 0,-175.66z"/>
  <path fill="black" d="M833.23 721.61c26.06,-47.34 21.69,-123.74 9.8,-176.91 -20.74,28.28 -16.77,76.25 -23.65,144.04 -4.9,48.03 -3.34,24.02 13.85,32.87z"/>
  <path fill="black" d="M874.66 1339.73c-21.28,27.91 -16.13,156.46 9.37,193.2 6.61,-52.09 13.6,-146.94 -9.37,-193.2z"/>
  <path fill="black" d="M842.73 1007.2c2.71,-31.17 -0.81,-68.53 2.83,-95.11 6.24,-46.26 26.67,-26.18 9.06,-64.05l-20.74 -0.19c-25.52,34.93 -19.6,120.5 8.84,159.35z"/>
  <path fill="black" d="M1109.03 964.45c52.25,-19.58 50.93,-74.18 47.72,-125.98 -38.89,27.35 -50.68,78.15 -47.72,125.98z"/>
  <path fill="black" d="M1592.8 955.81c13.03,-22.5 4.43,-17.45 16.87,-35.23 7.56,-10.8 13.19,-11.07 27.55,-29.6 -9.08,-34.59 -10.14,-21.99 -18.07,-46.93 -3.91,-12.41 -1.7,-10.6 -6.2,-24.26l-7.96 -14.48c-17.39,57.01 -18.51,90.19 -12.19,150.5z"/>
  <path fill="black" d="M1557.57 225.64c12.6,-39.82 3.6,-125.57 -30.91,-147.47 -26.13,44.72 -7.98,30.56 14.68,110.73l16.23 36.74z"/>
  <path fill="black" d="M352.2 1340.58c3.04,-32.81 -2.77,-31.76 7.53,-62.44 10.87,-32.37 12.36,-19.01 18.28,-61.46 -45.45,23.23 -15.48,13.62 -35.62,43.32 -33.94,50.13 0.5,-10.74 -35.69,32.31 12.96,37.78 7.1,30.06 45.5,48.28z"/>
  <path fill="black" d="M385.56 1421c-9.97,-64.74 -101.53,-76.71 -117.31,-12.26 65.37,-2.42 54.17,-14.72 117.31,12.26z"/>
  <path fill="black" d="M454.39 244.61c47.11,5.85 94.81,-38.87 103.83,-84.02 -39.6,11.11 -86.27,47.16 -103.83,84.02z"/>
  <path fill="black" d="M65.95 148.81c13.41,-40.42 16,-95.34 0.26,-134.54 -23.23,26.82 -27.78,62.26 -18.95,103.88 10.2,48.06 12.28,24.89 18.69,30.66z"/>
  <path fill="black" d="M1763.62 1734.59c-14.72,-49.62 -9.38,-89.09 -45,-106.99 -11.2,17.39 -8.31,-1.63 -8.09,30.11 0.02,1.06 6.39,34.75 6.74,35.8 11.04,34.74 14.58,32.07 46.36,41.08z"/>
  <path fill="black" d="M583.06 970.97c-44.26,32.92 -35.42,87.06 3.4,119.22 10.64,-57.3 6.2,-63.84 -3.4,-119.22z"/>
  <path fill="black" d="M1847.7 362.96c34.65,-19.11 39.24,-63.5 39.35,-103.62 -42.59,19.89 -58.44,62.92 -39.35,103.62z"/>
  <path fill="black" d="M918.91 201.98c17.2,-34.96 25.31,-98.51 -8.94,-121.04 -20.24,28.44 -11.13,12.24 -7.3,54.8 4.04,45.26 -0.24,45.82 16.24,66.24z"/>
  <path fill="black" d="M1228.17 682.06c23.61,-49.44 -5.98,-97.11 -31.33,-141.33 -5.92,10.67 -20.15,-28.3 -6.54,28.35 5.54,23.04 6.98,0.21 17.55,34.95 12.91,42.35 -8.36,39.35 20.31,78.02z"/>
  <path fill="black" d="M1665.23 1748.15c-35,23.02 -32.43,72.36 0,96.27 17.87,-32.84 19.88,-62.46 0,-96.27z"/>
  <path fill="black" d="M364.7 1865.69c-25.97,33.62 -17.28,76.59 8.85,97.83 18.03,-31.88 21.96,-76.28 -8.85,-97.83z"/>
  <path fill="black" d="M1073.65 507.59c6.27,-44.57 12.79,-96.33 -35.53,-110.5 -21.72,32.82 20.63,47.5 35.53,110.5z"/>
  <path fill="black" d="M1121.34 1010.77c-15.84,23.51 -16.93,89.33 18.23,109.27 6.17,-38.61 3.68,-77.59 -18.23,-109.27z"/>
  <path fill="black" d="M332.72 323.31c17.75,-32.73 19.49,-84.75 0,-116.59 -20.61,33.09 -18.42,84.78 0,116.59z"/>
  <path fill="black" d="M762.98 823.78c43.75,-17.87 57.63,-21.96 70.31,-69.18 -36.77,9.8 -68.87,26.65 -70.31,69.18z"/>
  <path fill="black" d="M780.57 674.72c26.15,-30.39 19.24,-73.97 -7.17,-107.56 -5,37.13 -13.64,77.94 7.17,107.56z"/>
  <path fill="black" d="M829.61 269.56c24.59,-10.95 29.5,-4.24 34.08,-45.67 3.78,-34.33 2.78,-39.81 -16.86,-55.38l-17.22 101.05z"/>
  <path fill="black" d="M1588.14 513.18c24.26,-28.31 35.61,-55.96 26.44,-97.05 -37.49,25.19 -29.08,49.46 -26.44,97.05z"/>
  <path fill="black" d="M492.78 153.39l9.52 -118.65c-36.65,37.63 -37.47,77.34 -9.52,118.65z"/>
  <path fill="black" d="M1406.58 108.32c5.16,-54.81 29.6,-36.37 19.29,-108.32 -47.59,28.37 -44.56,62.58 -19.29,108.32z"/>
  <path fill="black" d="M1927.42 1351.35c6.56,32.28 12.72,45.53 36.3,67.59 15.59,-38.09 12.38,-71.14 -36.3,-67.59z"/>
  <path fill="black" d="M963.01 46.08c7.64,10.73 -10.73,14.59 31.88,20.41 19.7,2.71 26.8,-2.13 35.65,-5.36 -17.89,-38.93 -26.64,-40.23 -67.52,-15.04z"/>
  <path fill="black" d="M485.36 366.29c-0.14,-34.18 -11.02,-37.6 -33.84,-58.62 -21.19,34.93 -8.73,60.4 33.84,58.62z"/>
  <path fill="black" d="M1856.48 153.12c17.57,-32.63 25.42,-41.93 -2.59,-69.99 -6.99,10.18 -10.69,5.09 -12.21,27.08 -4.9,70.53 8.31,35.45 14.8,42.91z"/>
  <path fill="black" d="M252.62 1127.24c39.37,-8.92 47.78,-1.66 64.96,-34.96 -37.27,-21.19 -49.22,4.56 -64.96,34.96z"/>
  <path fill="black" d="M403 1324.86l9.92 33.55c0.41,-1.32 3.02,3.92 4.49,5.91 14.3,-33.6 14.67,-65.43 -9.69,-92.85 -2.94,20.07 -6.22,32.31 -4.72,53.39z"/>
  <path fill="black" d="M1585.71 1111.99c0.5,58.46 9.48,25.78 14.93,32.5 15.43,-29.58 16.67,-44.76 2.26,-69.92 -13.65,13.65 -17.5,1.19 -17.19,37.42z"/>
  <path fill="black" d="M620.54 1095.09c-13.82,32.77 -12.75,52.58 9.48,79.08 9.32,-31.94 19.44,-50.97 -9.48,-79.08z"/>
  <path fill="black" d="M1116.49 1835.35c0.46,-1.4 3.19,4.5 4.75,6.8 14.01,-31.06 15.06,-52.02 1.17,-83.7 -30.7,38.46 -6.14,77.54 -5.92,76.9z"/>
  <path fill="black" d="M1857.11 1196.72c27.31,-23.49 25.24,-41.19 28.08,-80.11 -25.63,27.32 -43.63,47.39 -28.08,80.11z"/>
  <path fill="black" d="M896.43 14.39c28.49,19.65 53.38,20.56 87,-0.31 -5.64,-6.57 8.59,-12.41 -49.19,-8.63 -24.27,7.33 -11.35,5.57 -37.81,8.94z"/>
  <path fill="black" d="M1342.78 809.11c-40.99,3.43 -53.33,23.7 -14.99,49.56l14.99 -49.56z"/>
  <path fill="black" d="M1776.91 824.45c-31.04,14.17 -15.12,-16.43 -26.54,23.64 -10.3,36.12 6.51,14.94 11.3,20.84 6.48,-11.3 24.78,7.24 15.25,-44.48z"/>
  <path fill="black" d="M543.91 414.69c28.38,-68.54 3.13,-58.8 1.95,-60.74 -35.14,59.4 -2.52,59.86 -1.95,60.74z"/>
  <path fill="black" d="M1674.76 1598.65c2.1,-43.97 1.11,-5.72 -11.36,-24.87 -27.14,27.07 -24.63,28.15 1.44,48.17 7.11,-11.02 8.85,-1.1 9.92,-23.3z"/>
  <path fill="black" d="M1694.56 1546.9c37.87,-19.78 26.58,-4.24 37.21,-49.28 -37.59,16.91 -29.64,5.37 -37.21,49.28z"/>
  <path fill="black" d="M1627.6 1996.06c-20.16,-25.17 -20.91,-20.07 -37.01,0l37.01 0z"/>
  <path fill="black" d="M1213.78 775.31c25.07,-19.92 30.6,-18.24 14.39,-51.44 -20.9,26.57 -14.38,10.63 -14.39,51.44z"/>
  <path fill="black" d="M120.5 1851.75c13.01,-17.05 11.74,37.86 11.17,-29.59 -0.4,-44.97 -2.58,-9.64 -10.19,-19.3 -12.59,30.65 -13.28,19.26 -0.98,48.89z"/>
  <path fill="black" d="M1665.23 1528.83c14.35,-24.55 26.34,-7.51 0,-45.26 -22.39,28.45 -14.17,19.04 0,45.26z"/>
  <path fill="black" d="M832.19 500.67c22.98,-27.94 31.31,-28.48 -3.74,-54.72l3.74 54.72z"/>
  <path fill="black" d="M545.92 1258.59c-11.65,18.25 -7.22,-15.8 -9.67,22.6 -2.49,39.11 0.15,7.19 10.36,20.77 25.43,-46.76 9.76,-25.91 -0.69,-43.37z"/>
  <path fill="black" d="M555.74 656.24c26.87,-30.61 19.31,-11.96 0.72,-41.71 -13.57,21.2 -13.37,-31.89 -9.86,22.38 1.36,21.15 1.84,10.14 9.14,19.33z"/>
  <path fill="black" d="M1596.92 652.38c25.41,-35.17 15.87,-12.71 4.35,-40.09 -7.82,12.09 -29.22,10.44 -4.35,40.09z"/>
  <path fill="black" d="M1644.51 1689.87c2.58,11.31 12.06,16.44 22.07,22.06l-13.75 -46.41c-6.8,6.57 -18.36,-20.02 -8.32,24.35z"/>
  <path fill="black" d="M535.27 1727.3c13.04,-27.48 18.95,-6.51 -3.15,-39.61 -20.63,21.73 -13.81,15.69 3.15,39.61z"/>
  <path fill="black" d="M545.42 1322.42c-24.78,39.14 -6.67,22.71 2.33,33.75 25.08,-51.84 2.61,-25.77 -2.33,-33.75z"/>
  <path fill="black" d="M322.06 586.7c15.57,-25.16 17.15,-17.74 2.02,-39.54 -19.68,33.59 -16.3,11.68 -2.02,39.54z"/>
  <path fill="black" d="M1761.35 1181.09c12.97,-22.95 6.24,-34.04 -15.43,-55.56l15.43 55.56z"/>
  <path fill="black" d="M332.72 434.97c24.24,-34.07 11.3,-13.61 0,-34.74 -13.44,26.24 -20.67,12.02 0,34.74z"/>
  <path fill="black" d="M1703.37 529.82l-12.39 -32.8c-16.37,34.74 -17.64,27.93 12.39,32.8z"/>
  <path fill="black" d="M855.07 143.79c14.1,-28.94 16.62,-2.15 -0.56,-33.58 -1.82,2.23 -5.61,2.56 -5.67,6.54 -0.07,15.42 -16.19,7.17 6.22,27.04z"/>
  <path fill="black" d="M1805.62 910.44c8.75,8.13 -10.02,27.3 31.92,2.22 -2.4,-1.5 -6.12,-7.31 -7.15,-4.59l-24.77 2.37z"/>
  <path fill="black" d="M1314.76 1796.93c-4.22,43.54 -10.31,-11.46 11.37,13.47l-2.74 -31.46c-9.47,10.69 -6.41,-5.07 -8.62,17.99z"/>
  <path fill="black" d="M1787.98 280.28c24.49,-11.19 14.11,-2.19 22.85,-22.01 -21.4,6.8 -8.04,4.11 -22.85,22.01z"/>
  <path fill="black" d="M1879.33 1671.76c13.09,32.4 -9.47,9.11 27.26,24.13l-27.26 -24.13z"/>
 </g>
</svg>
