<?xml version="1.0" encoding="UTF-8"?>
<!DOCTYPE svg PUBLIC "-//W3C//DTD SVG 1.1//EN" "http://www.w3.org/Graphics/SVG/1.1/DTD/svg11.dtd">
<!-- Creator: CorelDRAW 2021 (64-Bit) -->
<svg xmlns="http://www.w3.org/2000/svg" xml:space="preserve" width="2in" height="2in" version="1.1" shape-rendering="geometricPrecision" text-rendering="geometricPrecision" image-rendering="optimizeQuality" fill-rule="evenodd" clip-rule="evenodd"
viewBox="0 0 2000 2000"
 xmlns:xlink="http://www.w3.org/1999/xlink"
 xmlns:xodm="http://www.corel.com/coreldraw/odm/2003">
 <g id="Layer_x0020_1">
  <metadata id="CorelCorpID_0Corel-Layer"/>
  <g id="_1905623021104">
   <path fill="black" d="M1384.44 887.52c0,0 0.84,-22.08 31.59,-15.93 30.74,6.15 35.78,-9.5 53.11,-14.54 17.33,-5.03 56.19,0.28 80.23,9.5 24.04,9.22 27.64,-13.46 62.02,-4.96 34.39,8.51 36.24,31.8 26.99,34.76 -9.24,2.96 -37.33,15.53 -59.89,-1.48 0,0 -12.58,-3.69 -20.34,4.81 -7.76,8.5 -47.32,10.35 -52.13,-8.5 0,0 -21.07,25.51 -47.7,11.09 -26.62,-14.42 -17.74,-0.74 -33.64,-0.74 -15.9,0 -31.06,3.32 -40.25,-14.01z"/>
   <path fill="black" d="M1320.77 882.85c0,0 1.84,-17.76 21.44,-14.06 19.6,3.7 25.89,20.71 13.31,33.28 -12.57,12.57 -46.22,-7.77 -34.76,-19.23z"/>
   <path fill="black" d="M1239.49 886.23c0,0 -7.39,-8.88 4.81,-13.69 12.2,-4.81 38.84,-17.38 51.41,-7.03 12.57,10.35 7.67,15.48 11.72,27.86 5.17,15.78 -30.19,-8.92 -45.01,1.72 -9.36,6.72 -15.33,13.79 -22.93,-8.87z"/>
   <path fill="black" d="M371 883.74c0,0 -22.57,-2.59 -10.73,-19.98 11.84,-17.39 73.63,11.83 91.02,9.25 17.39,-2.59 27,-15.17 88.42,-14.06 61.42,1.11 69.55,3.7 101.37,5.18 31.82,1.48 62.89,-3.33 88.79,-3.7 25.9,-0.37 136.81,3.8 165.29,0.56 28.47,-3.24 95.13,-6.47 135.89,-1.3 40.77,5.18 87.36,9.7 119.07,9.06 31.71,-0.65 62.77,-12.94 71.83,0 9.06,12.94 12.55,30.76 -6.44,27.87 -18.98,-2.89 -7.07,-11.26 -21.88,-3.54 -14.8,7.72 -36.68,6.44 -100.07,1.29 -63.39,-5.15 -132.56,-3.86 -154.44,0.33 -21.88,4.18 -56.94,2.57 -70.78,0.96 -13.84,-1.61 -98.46,-0.65 -128.7,2.89 -30.24,3.54 -76.58,-1.93 -122.91,-6.43 -46.33,-4.5 -103.6,1.61 -129.98,3.86 -26.39,2.25 -92.99,-4.83 -115.74,-12.24z"/>
   <path fill="black" d="M373.25 927.25c0,0 1.13,-23.65 25.06,-25.06 23.93,-1.41 24.5,16.05 23.37,24.49 -1.13,8.45 2.25,147.5 2.25,171.16 0,23.66 -2.78,43.27 -26.43,44.4 -23.65,1.13 -24.8,-29.19 -24.8,-29.19l0.56 -185.81z"/>
   <path fill="black" d="M479.69 920.66l0 189.81c0,0 -3.24,32.39 22.67,34.33 25.91,1.94 22.67,-29.15 23.32,-45.35 0.65,-16.19 -2.59,-180.74 -2.59,-180.74 0,0 -4.54,-18.79 -23.32,-14.9 -18.79,3.89 -20.08,16.85 -20.08,16.85z"/>
   <path fill="black" d="M572.18 907.48l0 0c5.66,0 10.19,4.63 10.29,10.29l1.93 109.88 -1.93 100.29c-0.1,5.65 -4.63,10.29 -10.29,10.29l-0 0c-5.65,0 -9.89,-4.65 -10.29,-10.29l-2.72 -38.77 0.8 -120.74 1.93 -50.66c0,-5.66 4.63,-10.29 10.29,-10.29z"/>
   <path fill="black" d="M601.09 907.48l0 0c3.39,0 6.1,4.63 6.16,10.29l1.16 109.88 -1.16 100.29c-0.06,5.65 -2.78,10.29 -6.16,10.29l0 0c-3.38,0 -5.93,-4.65 -6.16,-10.29l-1.63 -38.77 0.48 -120.74 1.16 -50.66c0,-5.66 2.77,-10.29 6.16,-10.29z"/>
   <path fill="black" d="M629.84 907.48l0 0c3.39,0 6.1,4.63 6.16,10.29l1.16 109.88 -1.16 100.29c-0.06,5.65 -2.78,10.29 -6.16,10.29l0 0c-3.38,0 -5.93,-4.65 -6.16,-10.29l-1.63 -38.77 0.48 -120.74 1.16 -50.66c0,-5.66 2.77,-10.29 6.16,-10.29z"/>
   <path fill="black" d="M659.72 907.48l0 0c3.39,0 6.1,4.63 6.16,10.29l1.16 109.88 -1.16 100.29c-0.06,5.65 -2.78,10.29 -6.16,10.29l0 0c-3.38,0 -5.93,-4.65 -6.16,-10.29l-1.63 -38.77 0.48 -120.74 1.16 -50.66c0,-5.66 2.77,-10.29 6.16,-10.29z"/>
   <path fill="black" d="M701.44 907.48l0 0c5.66,0 10.19,4.63 10.29,10.29l1.93 109.88 -1.93 100.29c-0.1,5.65 -4.63,10.29 -10.29,10.29l-0 0c-5.65,0 -9.89,-4.65 -10.29,-10.29l-2.73 -38.77 0.8 -120.74 1.93 -50.66c0,-5.66 4.63,-10.29 10.29,-10.29z"/>
   <path fill="black" d="M751.67 907.48l0 0c3.39,0 6.1,4.63 6.16,10.29l1.16 109.88 -1.16 100.29c-0.06,5.65 -2.78,10.29 -6.16,10.29l-0 0c-3.38,0 -5.93,-4.65 -6.16,-10.29l-1.63 -38.77 0.48 -120.74 1.15 -50.66c0,-5.66 2.77,-10.29 6.16,-10.29z"/>
   <path fill="black" d="M782.32 907.48l0 0c3.39,0 6.1,4.63 6.16,10.29l1.15 109.88 -1.15 100.29c-0.06,5.65 -2.78,10.29 -6.16,10.29l-0 0c-3.38,0 -5.93,-4.65 -6.16,-10.29l-1.63 -38.77 0.48 -120.74 1.16 -50.66c0,-5.66 2.77,-10.29 6.16,-10.29z"/>
   <path fill="black" d="M807.28 907.48l0 0c3.39,0 6.1,4.63 6.16,10.29l1.15 109.88 -1.15 100.29c-0.06,5.65 -2.78,10.29 -6.16,10.29l-0 0c-3.38,0 -5.92,-4.65 -6.16,-10.29l-1.63 -38.77 0.48 -120.74 1.16 -50.66c0,-5.66 2.77,-10.29 6.16,-10.29z"/>
   <path fill="black" d="M861.97 907.48l0.01 0c6.75,0 12.15,4.63 12.27,10.29l2.3 109.88 -2.3 100.29c-0.12,5.65 -5.53,10.29 -12.27,10.29l-0.01 0c-6.74,0 -11.8,-4.65 -12.27,-10.29l-3.25 -38.77 0.95 -120.74 2.3 -50.66c0,-5.66 5.52,-10.29 12.27,-10.29z"/>
   <path fill="black" d="M911.71 907.48l0 0c3.39,0 6.1,4.63 6.16,10.29l1.16 109.88 -1.16 100.29c-0.06,5.65 -2.78,10.29 -6.16,10.29l0 0c-3.39,0 -5.93,-4.65 -6.16,-10.29l-1.63 -38.77 0.48 -120.74 1.16 -50.66c0,-5.66 2.77,-10.29 6.16,-10.29z"/>
   <path fill="black" d="M941.2 907.48l0 0c3.39,0 6.1,4.63 6.16,10.29l1.16 109.88 -1.16 100.29c-0.06,5.65 -2.77,10.29 -6.16,10.29l-0 0c-3.38,0 -5.93,-4.65 -6.16,-10.29l-1.63 -38.77 0.48 -120.74 1.15 -50.66c0,-5.66 2.78,-10.29 6.16,-10.29z"/>
   <path fill="black" d="M965.94 904.89l0 0c3.39,0 6.1,4.63 6.16,10.29l1.16 109.88 -1.16 100.29c-0.06,5.65 -2.78,10.28 -6.16,10.28l-0 0c-3.38,0 -5.93,-4.64 -6.16,-10.28l-1.63 -38.77 0.48 -120.74 1.16 -50.66c0,-5.66 2.77,-10.29 6.16,-10.29z"/>
   <path fill="black" d="M1026.54 907.48l0.01 0c8.83,0 15.91,4.63 16.06,10.29l3.02 109.88 -3.02 100.29c-0.16,5.65 -7.23,10.29 -16.06,10.29l-0.01 0c-8.82,0 -15.44,-4.65 -16.06,-10.29l-4.26 -38.77 1.24 -120.74 3.01 -50.66c0,-5.66 7.23,-10.29 16.06,-10.29z"/>
   <path fill="black" d="M1069.63 904.89l0 0c2.48,0 4.47,4.63 4.52,10.29l0.85 109.88 -0.85 100.29c-0.05,5.65 -2.04,10.28 -4.52,10.28l0 0c-2.48,0 -4.34,-4.64 -4.52,-10.28l-1.2 -38.77 0.35 -120.74 0.85 -50.66c0,-5.66 2.03,-10.29 4.52,-10.29z"/>
   <path fill="black" d="M1098.56 904.89l0 0c2.48,0 4.47,4.63 4.52,10.29l0.85 109.88 -0.85 100.29c-0.05,5.65 -2.04,10.28 -4.52,10.28l-0 0c-2.48,0 -4.34,-4.64 -4.51,-10.28l-1.2 -38.77 0.35 -120.74 0.85 -50.66c0,-5.66 2.03,-10.29 4.51,-10.29z"/>
   <path fill="black" d="M1132.41 904.89l0 0c2.48,0 4.47,4.63 4.52,10.29l0.85 109.88 -0.85 100.29c-0.05,5.65 -2.04,10.28 -4.52,10.28l-0 0c-2.48,0 -4.34,-4.64 -4.51,-10.28l-1.2 -38.77 0.35 -120.74 0.85 -50.66c0,-5.66 2.03,-10.29 4.51,-10.29z"/>
   <path fill="black" d="M1161.53 908.86l0 0c2.48,0 4.47,4.63 4.51,10.29l0.85 109.88 -0.85 100.29c-0.04,5.65 -2.03,10.28 -4.51,10.28l-0 0c-2.48,0 -4.34,-4.64 -4.51,-10.28l-1.2 -38.77 0.35 -120.74 0.85 -50.66c0,-5.66 2.03,-10.29 4.51,-10.29z"/>
   <path fill="black" d="M1189.11 904.89l0 0c2.48,0 4.47,4.63 4.52,10.29l0.85 109.88 -0.85 100.29c-0.05,5.65 -2.04,10.28 -4.52,10.28l-0 0c-2.48,0 -4.34,-4.64 -4.51,-10.28l-1.2 -38.77 0.35 -120.74 0.85 -50.66c0,-5.66 2.03,-10.29 4.51,-10.29z"/>
   <path fill="black" d="M1269.45 904.89l0.01 0c9.85,0 17.74,4.63 17.91,10.29l3.36 109.88 -3.36 100.29c-0.18,5.65 -8.07,10.28 -17.91,10.28l-0.01 0c-9.83,0 -17.23,-4.64 -17.91,-10.28l-4.75 -38.77 1.39 -120.74 3.36 -50.66c0,-5.66 8.06,-10.29 17.91,-10.29z"/>
   <path fill="black" d="M1323.53 904.89l0 0c4.5,0 8.11,4.63 8.19,10.29l1.54 109.88 -1.54 100.29c-0.08,5.65 -3.69,10.28 -8.19,10.28l-0 0c-4.5,0 -7.87,-4.64 -8.19,-10.28l-2.17 -38.77 0.63 -120.74 1.54 -50.66c0,-5.66 3.68,-10.29 8.19,-10.29z"/>
   <path fill="black" d="M1390.77 904.89l0 0c4.5,0 8.11,4.63 8.19,10.29l1.54 109.88 -1.54 100.29c-0.08,5.65 -3.69,10.28 -8.19,10.28l-0 0c-4.5,0 -7.87,-4.64 -8.19,-10.28l-2.17 -38.77 0.63 -120.74 1.54 -50.66c0,-5.66 3.69,-10.29 8.19,-10.29z"/>
   <path fill="black" d="M1434.24 904.89l0 0c4.5,0 8.11,4.63 8.19,10.29l1.54 109.88 -1.54 100.29c-0.08,5.65 -3.69,10.28 -8.19,10.28l-0 0c-4.5,0 -7.87,-4.64 -8.19,-10.28l-2.17 -38.77 0.63 -120.74 1.54 -50.66c0,-5.66 3.69,-10.29 8.19,-10.29z"/>
   <path fill="black" d="M1507.55 904.89l0 0c4.5,0 8.11,4.63 8.19,10.29l1.54 109.88 -1.54 100.29c-0.08,5.65 -3.69,10.28 -8.19,10.28l-0 0c-4.5,0 -7.87,-4.64 -8.19,-10.28l-2.17 -38.77 0.63 -120.74 1.54 -50.66c0,-5.66 3.68,-10.29 8.19,-10.29z"/>
   <path fill="black" d="M1569.18 904.89l0 0c4.5,0 8.11,4.63 8.19,10.29l1.54 109.88 -1.54 100.29c-0.08,5.65 -3.69,10.28 -8.19,10.28l-0 0c-4.5,0 -7.87,-4.64 -8.19,-10.28l-2.17 -38.77 0.63 -120.74 1.54 -50.66c0,-5.66 3.69,-10.29 8.19,-10.29z"/>
   <path fill="black" d="M1619.14 904.89l0 0c4.5,0 8.11,4.63 8.19,10.29l1.54 109.88 -1.54 100.29c-0.08,5.65 -3.69,10.28 -8.19,10.28l-0 0c-4.5,0 -7.87,-4.64 -8.19,-10.28l-2.17 -38.77 0.63 -120.74 1.54 -50.66c0,-5.66 3.69,-10.29 8.19,-10.29z"/>
  </g>
 </g>
</svg>
