<?xml version="1.0" encoding="UTF-8"?>
<svg xmlns="http://www.w3.org/2000/svg" viewBox="0 0 26.84 125">
  <defs>
    <style>
      .cls-1 {
        fill: none;
        stroke: #000;
        stroke-linecap: round;
        stroke-linejoin: round;
        stroke-width: .22px;
      }
    </style>
  </defs>
  <g id="Layer_1" data-name="Layer 1" image-rendering="optimizeQuality" shape-rendering="geometricPrecision" text-rendering="geometricPrecision">
    <path class="cls-1" d="M26.6,62.54c-.1-7.76-.95-15.52-2.97-21.98C17.69,21.57,18.59,16.71,14.85.18c0,0-3.95,10.47-4.51,12.89-.56,2.42-1.93,5.64.64,12.32,2.58,6.69,6.2,24.64,6.36,27.54.16,2.9-1.22,5.32-4.83,5.4-3.61.07-12.31-.99-12.35,4.18M26.6,62.46c-.1,7.76-.95,15.52-2.97,21.98-5.94,18.98-5.04,23.85-8.78,40.37,0,0-3.95-10.47-4.51-12.89-.56-2.42-1.93-5.64.64-12.32,2.58-6.69,6.2-24.64,6.36-27.54.16-2.9-1.22-5.32-4.83-5.4-3.61-.07-12.31.99-12.35-4.18"/>
  </g>
</svg>