<?xml version="1.0" encoding="UTF-8"?>
<svg xmlns="http://www.w3.org/2000/svg" viewBox="0 0 51.57 149.17">
  <defs>
    <style>
      .cls-1 {
        fill: none;
        stroke: #000;
        stroke-linecap: round;
        stroke-linejoin: round;
        stroke-width: .22px;
      }
    </style>
  </defs>
  <g id="Layer_1" data-name="Layer 1" image-rendering="optimizeQuality" shape-rendering="geometricPrecision" text-rendering="geometricPrecision">
    <g>
      <path class="cls-1" d="M19.91,45.36c-.07-5.65-.69-11.29-2.16-15.99C13.43,15.56,14.08,12.02,11.37,0c0,0-2.87,7.62-3.28,9.37-.41,1.76-1.41,4.1.47,8.96,1.87,4.86,4.51,17.93,4.63,20.03.12,2.11-.89,3.87-3.51,3.93-2.62.05-8.96-.72-8.99,3.04M19.91,45.31c-.07,5.65-.69,11.29-2.16,15.99-4.32,13.81-3.67,17.35-6.39,29.37,0,0-2.87-7.62-3.28-9.37-.41-1.76-1.41-4.1.47-8.96,1.87-4.86,4.51-17.93,4.63-20.03.12-2.11-.89-3.87-3.51-3.93-2.62-.05-8.96.72-8.99-3.04"/>
      <path class="cls-1" d="M30.59,103.86c-.07-5.65-.69-11.29-2.16-15.99-4.32-13.81-3.67-17.35-6.39-29.37,0,0-2.87,7.62-3.28,9.37-.41,1.76-1.41,4.1.47,8.96,1.87,4.86,4.51,17.93,4.63,20.03.12,2.11-.89,3.87-3.51,3.93-2.62.05-8.96-.72-8.99,3.04M30.59,103.8c-.07,5.65-.69,11.29-2.16,15.99-4.32,13.81-3.67,17.35-6.39,29.37,0,0-2.87-7.62-3.28-9.37-.41-1.76-1.41-4.1.47-8.96,1.87-4.86,4.51-17.93,4.63-20.03.12-2.11-.89-3.87-3.51-3.93-2.62-.05-8.96.72-8.99-3.04"/>
      <path class="cls-1" d="M50.89,103.86c-.07-5.65-.69-11.29-2.16-15.99-4.32-13.81-3.67-17.35-6.39-29.37,0,0-2.87,7.62-3.28,9.37-.41,1.76-1.41,4.1.47,8.96,1.87,4.86,4.51,17.93,4.63,20.03.12,2.11-.89,3.87-3.51,3.93-2.62.05-8.96-.72-8.99,3.04M50.89,103.8c-.07,5.65-.69,11.29-2.16,15.99-4.32,13.81-3.67,17.35-6.39,29.37,0,0-2.87-7.62-3.28-9.37-.41-1.76-1.41-4.1.47-8.96,1.87-4.86,4.51-17.93,4.63-20.03.12-2.11-.89-3.87-3.51-3.93-2.62-.05-8.96.72-8.99-3.04"/>
      <path class="cls-1" d="M41.28,45.36c-.07-5.65-.69-11.29-2.16-15.99-4.32-13.81-3.67-17.35-6.39-29.37,0,0-2.87,7.62-3.28,9.37-.41,1.76-1.41,4.1.47,8.96,1.87,4.86,4.51,17.93,4.63,20.03.12,2.11-.89,3.87-3.51,3.93-2.62.05-8.96-.72-8.99,3.04M41.28,45.31c-.07,5.65-.69,11.29-2.16,15.99-4.32,13.81-3.67,17.35-6.39,29.37,0,0-2.87-7.62-3.28-9.37-.41-1.76-1.41-4.1.47-8.96,1.87-4.86,4.51-17.93,4.63-20.03.12-2.11-.89-3.87-3.51-3.93-2.62-.05-8.96.72-8.99-3.04"/>
    </g>
  </g>
</svg>