<?xml version="1.0" encoding="UTF-8"?>
<!DOCTYPE svg PUBLIC "-//W3C//DTD SVG 1.1//EN" "http://www.w3.org/Graphics/SVG/1.1/DTD/svg11.dtd">
<!-- Creator: CorelDRAW 2021 (64-Bit) -->
<svg xmlns="http://www.w3.org/2000/svg" xml:space="preserve" width="2in" height="2in" version="1.1" shape-rendering="geometricPrecision" text-rendering="geometricPrecision" image-rendering="optimizeQuality" fill-rule="evenodd" clip-rule="evenodd"
viewBox="0 0 2000 2000"
 xmlns:xlink="http://www.w3.org/1999/xlink"
 xmlns:xodm="http://www.corel.com/coreldraw/odm/2003">
 <g id="Layer_x0020_1">
  <metadata id="CorelCorpID_0Corel-Layer"/>
  <g id="_1904615305632">
   <g>
    <path fill="none" stroke="black" stroke-width="3.94" stroke-linecap="round" stroke-linejoin="round" stroke-miterlimit="2.61313" d="M962.46 204.34l0 0c16.52,0 30.03,13.51 30.03,30.02l0 270.26c0,16.52 -13.51,30.03 -30.03,30.03l-0 0c-16.52,0 -30.03,-13.51 -30.03,-30.03l0 -270.26c0,-16.51 13.51,-30.02 30.03,-30.02z"/>
    <path fill="none" stroke="black" stroke-width="3.94" stroke-linecap="round" stroke-linejoin="round" stroke-miterlimit="2.61313" d="M962.46 564.69l0 0c16.52,0 30.03,13.51 30.03,30.03l0 270.26c0,16.52 -13.51,30.03 -30.03,30.03l-0 0c-16.52,0 -30.03,-13.51 -30.03,-30.03l0 -270.26c0,-16.52 13.51,-30.03 30.03,-30.03z"/>
    <path fill="none" stroke="black" stroke-width="3.94" stroke-linecap="round" stroke-linejoin="round" stroke-miterlimit="2.61313" d="M962.46 925.03l0 0c16.52,0 30.03,13.51 30.03,30.03l0 270.26c0,16.51 -13.51,30.02 -30.03,30.02l-0 0c-16.52,0 -30.03,-13.51 -30.03,-30.02l0 -270.26c0,-16.52 13.51,-30.03 30.03,-30.03z"/>
    <path fill="none" stroke="black" stroke-width="3.94" stroke-linecap="round" stroke-linejoin="round" stroke-miterlimit="2.61313" d="M962.46 1285.37l0 0c16.52,0 30.03,13.51 30.03,30.02l0 270.26c0,16.52 -13.51,30.03 -30.03,30.03l-0 0c-16.52,0 -30.03,-13.51 -30.03,-30.03l0 -270.26c0,-16.51 13.51,-30.02 30.03,-30.02z"/>
   </g>
   <g>
    <path fill="none" stroke="black" stroke-width="3.94" stroke-linecap="round" stroke-linejoin="round" stroke-miterlimit="2.61313" d="M1037.53 384.76l0 0c16.52,0 30.03,13.51 30.03,30.03l0 270.26c0,16.52 -13.51,30.03 -30.03,30.03l-0 0c-16.52,0 -30.03,-13.51 -30.03,-30.03l0 -270.26c0,-16.52 13.51,-30.03 30.03,-30.03z"/>
    <path fill="none" stroke="black" stroke-width="3.94" stroke-linecap="round" stroke-linejoin="round" stroke-miterlimit="2.61313" d="M1037.53 744.96l0 0c16.52,0 30.03,13.51 30.03,30.03l0 270.26c0,16.52 -13.51,30.03 -30.03,30.03l-0 0c-16.52,0 -30.03,-13.51 -30.03,-30.03l0 -270.26c0,-16.52 13.51,-30.03 30.03,-30.03z"/>
    <path fill="none" stroke="black" stroke-width="3.94" stroke-linecap="round" stroke-linejoin="round" stroke-miterlimit="2.61313" d="M1037.53 1105.59l0 0c16.52,0 30.03,13.51 30.03,30.02l0 270.26c0,16.52 -13.51,30.03 -30.03,30.03l-0 0c-16.52,0 -30.03,-13.51 -30.03,-30.03l0 -270.26c0,-16.51 13.51,-30.02 30.03,-30.02z"/>
    <path fill="none" stroke="black" stroke-width="3.94" stroke-linecap="round" stroke-linejoin="round" stroke-miterlimit="2.61313" d="M1037.53 1465.34l0 0c16.52,0 30.03,13.51 30.03,30.03l0 270.26c0,16.51 -13.51,30.02 -30.03,30.02l-0 0c-16.52,0 -30.03,-13.51 -30.03,-30.02l0 -270.26c0,-16.52 13.51,-30.03 30.03,-30.03z"/>
   </g>
  </g>
 </g>
</svg>
