<?xml version="1.0" encoding="UTF-8"?>
<!DOCTYPE svg PUBLIC "-//W3C//DTD SVG 1.1//EN" "http://www.w3.org/Graphics/SVG/1.1/DTD/svg11.dtd">
<!-- Creator: CorelDRAW 2021 (64-Bit) -->
<svg xmlns="http://www.w3.org/2000/svg" xml:space="preserve" width="2in" height="2in" version="1.1" shape-rendering="geometricPrecision" text-rendering="geometricPrecision" image-rendering="optimizeQuality" fill-rule="evenodd" clip-rule="evenodd"
viewBox="0 0 2000 2000"
 xmlns:xlink="http://www.w3.org/1999/xlink"
 xmlns:xodm="http://www.corel.com/coreldraw/odm/2003">
 <g id="Layer_x0020_1">
  <metadata id="CorelCorpID_0Corel-Layer"/>
  <g id="_2101635109776">
   <g>
    <g>
     <rect fill="none" stroke="black" stroke-width="3" stroke-linecap="round" stroke-linejoin="round" stroke-miterlimit="2.61313" x="529.09" y="179.04" width="60.06" height="330.32" rx="30.03" ry="111.76"/>
     <rect fill="none" stroke="black" stroke-width="3" stroke-linecap="round" stroke-linejoin="round" stroke-miterlimit="2.61313" x="529.09" y="539.39" width="60.06" height="330.32" rx="30.03" ry="111.76"/>
     <rect fill="none" stroke="black" stroke-width="3" stroke-linecap="round" stroke-linejoin="round" stroke-miterlimit="2.61313" x="529.09" y="899.73" width="60.06" height="330.32" rx="30.03" ry="111.76"/>
     <rect fill="none" stroke="black" stroke-width="3" stroke-linecap="round" stroke-linejoin="round" stroke-miterlimit="2.61313" x="529.09" y="1260.08" width="60.06" height="330.32" rx="30.03" ry="111.76"/>
    </g>
    <g>
     <rect fill="none" stroke="black" stroke-width="3" stroke-linecap="round" stroke-linejoin="round" stroke-miterlimit="2.61313" x="604.16" y="359.46" width="60.06" height="330.32" rx="30.03" ry="111.76"/>
     <rect fill="none" stroke="black" stroke-width="3" stroke-linecap="round" stroke-linejoin="round" stroke-miterlimit="2.61313" x="604.16" y="719.67" width="60.06" height="330.32" rx="30.03" ry="111.76"/>
     <rect fill="none" stroke="black" stroke-width="3" stroke-linecap="round" stroke-linejoin="round" stroke-miterlimit="2.61313" x="604.16" y="1080.29" width="60.06" height="330.32" rx="30.03" ry="111.76"/>
     <rect fill="none" stroke="black" stroke-width="3" stroke-linecap="round" stroke-linejoin="round" stroke-miterlimit="2.61313" x="604.16" y="1440.05" width="60.06" height="330.32" rx="30.03" ry="111.76"/>
    </g>
    <g>
     <rect fill="none" stroke="black" stroke-width="3" stroke-linecap="round" stroke-linejoin="round" stroke-miterlimit="2.61313" x="679.24" y="179.88" width="60.06" height="330.32" rx="30.03" ry="111.76"/>
     <rect fill="none" stroke="black" stroke-width="3" stroke-linecap="round" stroke-linejoin="round" stroke-miterlimit="2.61313" x="679.24" y="540.22" width="60.06" height="330.32" rx="30.03" ry="111.76"/>
     <rect fill="none" stroke="black" stroke-width="3" stroke-linecap="round" stroke-linejoin="round" stroke-miterlimit="2.61313" x="679.24" y="900.57" width="60.06" height="330.32" rx="30.03" ry="111.76"/>
     <rect fill="none" stroke="black" stroke-width="3" stroke-linecap="round" stroke-linejoin="round" stroke-miterlimit="2.61313" x="679.24" y="1260.91" width="60.06" height="330.32" rx="30.03" ry="111.76"/>
    </g>
    <g>
     <rect fill="none" stroke="black" stroke-width="3" stroke-linecap="round" stroke-linejoin="round" stroke-miterlimit="2.61313" x="754.31" y="359.46" width="60.06" height="330.32" rx="30.03" ry="111.76"/>
     <rect fill="none" stroke="black" stroke-width="3" stroke-linecap="round" stroke-linejoin="round" stroke-miterlimit="2.61313" x="754.31" y="719.67" width="60.06" height="330.32" rx="30.03" ry="111.76"/>
     <rect fill="none" stroke="black" stroke-width="3" stroke-linecap="round" stroke-linejoin="round" stroke-miterlimit="2.61313" x="754.31" y="1080.29" width="60.06" height="330.32" rx="30.03" ry="111.76"/>
     <rect fill="none" stroke="black" stroke-width="3" stroke-linecap="round" stroke-linejoin="round" stroke-miterlimit="2.61313" x="754.31" y="1440.05" width="60.06" height="330.32" rx="30.03" ry="111.76"/>
    </g>
    <g>
     <rect fill="none" stroke="black" stroke-width="3" stroke-linecap="round" stroke-linejoin="round" stroke-miterlimit="2.61313" x="829.4" y="179.88" width="60.06" height="330.32" rx="30.03" ry="111.76"/>
     <rect fill="none" stroke="black" stroke-width="3" stroke-linecap="round" stroke-linejoin="round" stroke-miterlimit="2.61313" x="829.4" y="540.22" width="60.06" height="330.32" rx="30.03" ry="111.76"/>
     <rect fill="none" stroke="black" stroke-width="3" stroke-linecap="round" stroke-linejoin="round" stroke-miterlimit="2.61313" x="829.4" y="900.57" width="60.06" height="330.32" rx="30.03" ry="111.76"/>
     <rect fill="none" stroke="black" stroke-width="3" stroke-linecap="round" stroke-linejoin="round" stroke-miterlimit="2.61313" x="829.4" y="1260.91" width="60.06" height="330.32" rx="30.03" ry="111.76"/>
    </g>
    <g>
     <rect fill="none" stroke="black" stroke-width="3" stroke-linecap="round" stroke-linejoin="round" stroke-miterlimit="2.61313" x="904.47" y="359.46" width="60.06" height="330.32" rx="30.03" ry="111.76"/>
     <rect fill="none" stroke="black" stroke-width="3" stroke-linecap="round" stroke-linejoin="round" stroke-miterlimit="2.61313" x="904.47" y="719.67" width="60.06" height="330.32" rx="30.03" ry="111.76"/>
     <rect fill="none" stroke="black" stroke-width="3" stroke-linecap="round" stroke-linejoin="round" stroke-miterlimit="2.61313" x="904.47" y="1080.29" width="60.06" height="330.32" rx="30.03" ry="111.76"/>
     <rect fill="none" stroke="black" stroke-width="3" stroke-linecap="round" stroke-linejoin="round" stroke-miterlimit="2.61313" x="904.47" y="1440.05" width="60.06" height="330.32" rx="30.03" ry="111.76"/>
    </g>
   </g>
   <g>
    <g>
     <rect fill="none" stroke="black" stroke-width="3" stroke-linecap="round" stroke-linejoin="round" stroke-miterlimit="2.61313" x="979.55" y="179.04" width="60.06" height="330.32" rx="30.03" ry="111.76"/>
     <rect fill="none" stroke="black" stroke-width="3" stroke-linecap="round" stroke-linejoin="round" stroke-miterlimit="2.61313" x="979.55" y="539.39" width="60.06" height="330.32" rx="30.03" ry="111.76"/>
     <rect fill="none" stroke="black" stroke-width="3" stroke-linecap="round" stroke-linejoin="round" stroke-miterlimit="2.61313" x="979.55" y="899.73" width="60.06" height="330.32" rx="30.03" ry="111.76"/>
     <rect fill="none" stroke="black" stroke-width="3" stroke-linecap="round" stroke-linejoin="round" stroke-miterlimit="2.61313" x="979.55" y="1260.08" width="60.06" height="330.32" rx="30.03" ry="111.76"/>
    </g>
    <g>
     <rect fill="none" stroke="black" stroke-width="3" stroke-linecap="round" stroke-linejoin="round" stroke-miterlimit="2.61313" x="1054.62" y="359.46" width="60.06" height="330.32" rx="30.03" ry="111.76"/>
     <rect fill="none" stroke="black" stroke-width="3" stroke-linecap="round" stroke-linejoin="round" stroke-miterlimit="2.61313" x="1054.62" y="719.67" width="60.06" height="330.32" rx="30.03" ry="111.76"/>
     <rect fill="none" stroke="black" stroke-width="3" stroke-linecap="round" stroke-linejoin="round" stroke-miterlimit="2.61313" x="1054.62" y="1080.29" width="60.06" height="330.32" rx="30.03" ry="111.76"/>
     <rect fill="none" stroke="black" stroke-width="3" stroke-linecap="round" stroke-linejoin="round" stroke-miterlimit="2.61313" x="1054.62" y="1440.05" width="60.06" height="330.32" rx="30.03" ry="111.76"/>
    </g>
    <g>
     <rect fill="none" stroke="black" stroke-width="3" stroke-linecap="round" stroke-linejoin="round" stroke-miterlimit="2.61313" x="1129.7" y="179.88" width="60.06" height="330.32" rx="30.03" ry="111.76"/>
     <rect fill="none" stroke="black" stroke-width="3" stroke-linecap="round" stroke-linejoin="round" stroke-miterlimit="2.61313" x="1129.7" y="540.22" width="60.06" height="330.32" rx="30.03" ry="111.76"/>
     <rect fill="none" stroke="black" stroke-width="3" stroke-linecap="round" stroke-linejoin="round" stroke-miterlimit="2.61313" x="1129.7" y="900.57" width="60.06" height="330.32" rx="30.03" ry="111.76"/>
     <rect fill="none" stroke="black" stroke-width="3" stroke-linecap="round" stroke-linejoin="round" stroke-miterlimit="2.61313" x="1129.7" y="1260.91" width="60.06" height="330.32" rx="30.03" ry="111.76"/>
    </g>
    <g>
     <rect fill="none" stroke="black" stroke-width="3" stroke-linecap="round" stroke-linejoin="round" stroke-miterlimit="2.61313" x="1204.77" y="359.46" width="60.06" height="330.32" rx="30.03" ry="111.76"/>
     <rect fill="none" stroke="black" stroke-width="3" stroke-linecap="round" stroke-linejoin="round" stroke-miterlimit="2.61313" x="1204.77" y="719.67" width="60.06" height="330.32" rx="30.03" ry="111.76"/>
     <rect fill="none" stroke="black" stroke-width="3" stroke-linecap="round" stroke-linejoin="round" stroke-miterlimit="2.61313" x="1204.77" y="1080.29" width="60.06" height="330.32" rx="30.03" ry="111.76"/>
     <rect fill="none" stroke="black" stroke-width="3" stroke-linecap="round" stroke-linejoin="round" stroke-miterlimit="2.61313" x="1204.77" y="1440.05" width="60.06" height="330.32" rx="30.03" ry="111.76"/>
    </g>
    <g>
     <rect fill="none" stroke="black" stroke-width="3" stroke-linecap="round" stroke-linejoin="round" stroke-miterlimit="2.61313" x="1279.86" y="179.88" width="60.06" height="330.32" rx="30.03" ry="111.76"/>
     <rect fill="none" stroke="black" stroke-width="3" stroke-linecap="round" stroke-linejoin="round" stroke-miterlimit="2.61313" x="1279.86" y="540.22" width="60.06" height="330.32" rx="30.03" ry="111.76"/>
     <rect fill="none" stroke="black" stroke-width="3" stroke-linecap="round" stroke-linejoin="round" stroke-miterlimit="2.61313" x="1279.86" y="900.57" width="60.06" height="330.32" rx="30.03" ry="111.76"/>
     <rect fill="none" stroke="black" stroke-width="3" stroke-linecap="round" stroke-linejoin="round" stroke-miterlimit="2.61313" x="1279.86" y="1260.91" width="60.06" height="330.32" rx="30.03" ry="111.76"/>
    </g>
    <g>
     <rect fill="none" stroke="black" stroke-width="3" stroke-linecap="round" stroke-linejoin="round" stroke-miterlimit="2.61313" x="1354.93" y="359.46" width="60.06" height="330.32" rx="30.03" ry="111.76"/>
     <rect fill="none" stroke="black" stroke-width="3" stroke-linecap="round" stroke-linejoin="round" stroke-miterlimit="2.61313" x="1354.93" y="719.67" width="60.06" height="330.32" rx="30.03" ry="111.76"/>
     <rect fill="none" stroke="black" stroke-width="3" stroke-linecap="round" stroke-linejoin="round" stroke-miterlimit="2.61313" x="1354.93" y="1080.29" width="60.06" height="330.32" rx="30.03" ry="111.76"/>
     <rect fill="none" stroke="black" stroke-width="3" stroke-linecap="round" stroke-linejoin="round" stroke-miterlimit="2.61313" x="1354.93" y="1440.05" width="60.06" height="330.32" rx="30.03" ry="111.76"/>
    </g>
   </g>
  </g>
 </g>
</svg>
