<svg width="866" height="1000" version="1.2" xmlns="http://www.w3.org/2000/svg" viewBox="0 0 866 1000"><style type="text/css">path {stroke-width: 1; vector-effect: non-scaling-stroke; fill:none; stroke: #000; stroke-linecap: round; stroke-linejoin: miter;}</style><path d="M-432.99,0L0.023000000000024556,250L-432.99,500z"></path><path d="M433.01,0L866.023,250L433.01,500z"></path><path d="M0,250L433.013,0L433.013,500z"></path><path d="M0,250L433.013,500L0,750z"></path><path d="M0,750L433.013,500L433.013,1000z"></path><path d="M-432.99,500L0.023000000000024556,750L-432.99,1000z"></path><path d="M433.01,500L866.023,750L433.01,1000z"></path><path d="M-432.99,500L0.023000000000024556,250L0.023000000000024556,750z"></path><path d="M433.01,500L866.023,250L866.023,750z"></path><path d="M-432.99,0L0.023000000000024556,-250L0.023000000000024556,250z"></path><path d="M433.01,0L866.023,-250L866.023,250z"></path><path d="M-432.99,1000L0.023000000000024556,750L0.023000000000024556,1250z"></path><path d="M433.01,1000L866.023,750L866.023,1250z"></path><path d="M0.029999999999972715,-250L433.0429999999999,0L0.029999999999972715,250z"></path><path d="M0.029999999999972715,750L433.0429999999999,1000L0.029999999999972715,1250z"></path></svg>