<svg width="296" height="742" version="1.2" xmlns="http://www.w3.org/2000/svg" viewBox="0 0 296 742"><style type="text/css">path {stroke-width: 1; vector-effect: non-scaling-stroke; fill:none; stroke: #000; stroke-linecap: round; stroke-linejoin: miter;}</style><path d="M88.2,87.87L123.16,87.87L148.195,62L172.195,87.872L208.195,87.872L208.195,122.832L234.065,147.867L208.193,171.867L208.193,207.867L173.233,207.867L148.198,233.737L124.198,207.865L88.198,207.865L88.198,172.905L62.328,147.87L88.2,123.87L88.2,88z"></path><path d="M-61.75999999999999,518.74L0.20400000000000773,458.902L0.3690000000000282,458.742L62.37099999999998,518.742L0.40699999999998226,578.58L0.24200000000001864,578.74L0.20600000000001728,578.705z"></path><path d="M234.24,518.74L296.204,458.902L296.369,458.742L358.371,518.742L296.407,578.58L296.242,578.74L296.206,578.705z"></path><path d="M0.2,88L0.327,87.873L0.464,88.005z"></path><path d="M88.2,0L148.2,62.002L123.165,87.872L88.205,87.872z"></path><path d="M88.2,207.87L124.2,207.87L148.2,233.742L88.2,295.744z"></path><path d="M208.2,0L208.2,19.87L208.2,55.87L208.2,87.87L172.2,87.87L148.2,61.998z"></path><path d="M0.33,87.87L88.2,87.87L88.2,88L0.46,88z"></path><path d="M-87.80000000000001,295.74L0.19999999999998863,295.74L0.19999999999998863,458.9L-61.76400000000001,518.738L-147.795,483.734L-87.79499999999999,421.732z"></path><path d="M208.2,295.74L296.2,295.74L296.2,458.9L234.236,518.738L148.205,483.734L208.205,421.732z"></path><path d="M-87.80000000000001,171.87L-61.928,147.87L0.07400000000001228,207.87L-87.79599999999999,207.87z"></path><path d="M208.2,171.87L234.072,147.87L296.074,207.87L208.204,207.87z"></path><path d="M0.2,207.87L88.2,207.87L88.2,295.74L88.2,295.87L0.2,295.87z"></path><path d="M0.06999999999999318,207.87L0.19999999999998863,207.87L0.19999999999998863,208z"></path><path d="M-87.80000000000001,207.87L0.06999999999999318,207.87L0.19900000000001228,207.995L0.19900000000001228,295.735L-87.80099999999999,295.735z"></path><path d="M208.2,207.87L296.07,207.87L296.199,207.995L296.199,295.735L208.199,295.735z"></path><path d="M173.24,207.87L208.2,207.87L208.2,295.74L148.2,233.738z"></path><path d="M-87.80000000000001,87.87L0.19999999999998863,87.87L-61.929,147.868L-87.799,122.833z"></path><path d="M208.2,87.87L296.2,87.87L234.071,147.868L208.201,122.833z"></path><path d="M62.17,518.74L148.202,483.736L234.233,518.74L148.202,553.744z"></path><path d="M148.2,233.74L208.2,295.742L208.2,421.742L148.2,483.744L88.2,421.742L88.2,295.872L88.2,295.742z"></path><path d="M0.2,207.87L62.329,147.872L88.199,172.907L88.199,207.867z"></path><path d="M148.2,-188.26L208.2,-126.25800000000004L208.2,-0.38800000000003365L208.2,-0.2580000000000382L148.2,61.74400000000003L88.2,-0.2580000000000382L88.2,-126.25800000000004z"></path><path d="M148.2,553.74L208.2,615.742L208.2,741.612L208.2,741.742L148.2,803.744L88.2,741.742L88.2,615.742z"></path><path d="M-87.80000000000001,-0.38999999999998636L0.19999999999998863,-0.38999999999998636L0.19999999999998863,87.61000000000001L-87.80000000000001,87.61000000000001L-87.80000000000001,-0.2599999999999909z"></path><path d="M208.2,-0.38999999999998636L296.2,-0.38999999999998636L296.2,87.61000000000001L208.2,87.61000000000001L208.2,-0.2599999999999909z"></path><path d="M-87.80000000000001,741.61L0.19999999999998863,741.61L0.19999999999998863,829.61L-87.80000000000001,829.61L-87.80000000000001,741.74z"></path><path d="M208.2,741.61L296.2,741.61L296.2,829.61L208.2,829.61L208.2,741.74z"></path><path d="M-61.93000000000001,147.87L0.19900000000001228,87.872L62.20100000000002,147.872L0.07200000000000273,207.87z"></path><path d="M234.07,147.87L296.199,87.872L358.201,147.872L296.072,207.87z"></path><path d="M-147.8,553.74L-61.768,518.736L0.19700000000000273,578.702L0.19700000000000273,741.612L-87.803,741.612L-87.803,615.742z"></path><path d="M148.2,553.74L234.232,518.736L296.197,578.702L296.197,741.612L208.197,741.612L208.197,615.742z"></path><path d="M0.2,87.48000000000002L0.329,87.60500000000002L0.199,87.60500000000002z"></path><path d="M0.2,578.58L62.164,518.742L148.195,553.746L88.195,615.748L88.195,741.748L0.195,741.748z"></path><path d="M0.47,88L88.21,88L88.21,123.87L62.338,147.87z"></path><path d="M0.2,295.87L88.2,295.87L88.2,421.74L148.2,483.742L62.169,518.746L0.203,458.78z"></path><path d="M0.2,-0.2599999999999909L88.2,-0.2599999999999909L88.2,87.61000000000001L0.33,87.61000000000001L0.201,87.48500000000001z"></path><path d="M0.2,741.74L88.2,741.74L88.2,829.61L0.33,829.61L0.201,829.485z"></path></svg>