<svg width="58" height="127" version="1.2" xmlns="http://www.w3.org/2000/svg" viewBox="0 0 58 127"><style type="text/css">path {stroke-width: 1; vector-effect: non-scaling-stroke; fill:none; stroke: #000; stroke-linecap: round; stroke-linejoin: miter;}</style><path d="M-47.78,8.72L-45.71,6.439L-43.355000000000004,4.454L-40.756,2.802L-37.96,1.51L-35.016,0.604L-31.978,0.098L-28.9,0.002L-25.820999999999998,0.098L-22.783,0.604L-19.839,1.51L-17.043,2.802L-14.444000000000003,4.454L-12.088999999999999,6.439L-10.018999999999998,8.72L-8.271999999999998,11.257L-6.880000000000003,14.004L-5.866,16.912L-5.249000000000002,19.93L-5.040999999999997,23.003L0.19899999999999807,23.003L0.19899999999999807,63.233L-0.6629999999999967,63.346L-6.612000000000002,64.13L-12.155000000000001,66.426L-16.915,70.078L-20.567999999999998,74.838L-22.863999999999997,80.382L-23.647,86.33L-34.126999999999995,86.33L-34.91,80.382L-37.206,74.838L-40.859,70.078L-45.619,66.426L-51.162,64.13L-57.111,63.346L-57.974,63.233L-57.974,23.003L-52.734,23.003L-52.525,19.93L-51.909,16.912L-50.894999999999996,14.004L-49.502,11.257z"></path><path d="M10.22,8.72L12.29,6.439L14.645,4.454L17.244,2.802L20.04,1.51L22.984,0.604L26.022,0.098L29.1,0.002L32.179,0.098L35.217,0.604L38.161,1.51L40.957,2.802L43.556,4.454L45.911,6.439L47.981,8.72L49.728,11.257L51.12,14.004L52.134,16.912L52.751,19.93L52.959,23.003L58.199,23.003L58.199,63.233L57.337,63.346L51.388,64.13L45.845,66.426L41.085,70.078L37.432,74.838L35.136,80.382L34.353,86.33L23.873,86.33L23.09,80.382L20.794,74.838L17.141,70.078L12.381,66.426L6.838,64.13L0.889,63.346L0.026,63.233L0.026,23.003L5.266,23.003L5.475,19.93L6.091,16.912L7.105,14.004L8.498,11.257z"></path><path d="M-18.68,-54.94L-16.61,-57.221000000000004L-14.255000000000003,-59.206L-11.655999999999999,-60.858000000000004L-8.86,-62.150000000000006L-5.915999999999997,-63.056L-2.878,-63.562L0.20000000000000284,-63.658L3.2790000000000035,-63.562L6.316999999999993,-63.056L9.260999999999996,-62.150000000000006L12.057000000000002,-60.858000000000004L14.656000000000006,-59.206L17.010999999999996,-57.221000000000004L19.081000000000003,-54.94L20.828000000000003,-52.403000000000006L22.22,-49.656000000000006L23.233999999999995,-46.748000000000005L23.851,-43.730000000000004L24.058999999999997,-40.657L29.299000000000007,-40.657L29.299000000000007,-0.4270000000000067L28.436999999999998,-0.31399999999999295L22.488,0.46999999999999886L16.944999999999993,2.765999999999991L12.185000000000002,6.418000000000006L8.531999999999996,11.177999999999997L6.236000000000004,16.72200000000001L5.453000000000003,22.669999999999987L-5.027000000000001,22.669999999999987L-5.810000000000002,16.72200000000001L-8.106000000000002,11.177999999999997L-11.759,6.418000000000006L-16.519,2.765999999999991L-22.061999999999998,0.46999999999999886L-28.011,-0.31399999999999295L-28.874,-0.4270000000000067L-28.874,-40.657L-23.634,-40.657L-23.424999999999997,-43.730000000000004L-22.808999999999997,-46.748000000000005L-21.795,-49.656000000000006L-20.402,-52.403000000000006z"></path><path d="M39.32,-54.94L41.39,-57.221000000000004L43.745,-59.206L46.344,-60.858000000000004L49.14,-62.150000000000006L52.084,-63.056L55.122,-63.562L58.2,-63.658L61.279,-63.562L64.317,-63.056L67.261,-62.150000000000006L70.057,-60.858000000000004L72.656,-59.206L75.011,-57.221000000000004L77.081,-54.94L78.828,-52.403000000000006L80.22,-49.656000000000006L81.234,-46.748000000000005L81.851,-43.730000000000004L82.059,-40.657L87.299,-40.657L87.299,-0.4270000000000067L86.437,-0.31399999999999295L80.488,0.46999999999999886L74.945,2.765999999999991L70.185,6.418000000000006L66.532,11.177999999999997L64.236,16.72200000000001L63.453,22.669999999999987L52.973,22.669999999999987L52.19,16.72200000000001L49.894,11.177999999999997L46.241,6.418000000000006L41.481,2.765999999999991L35.938,0.46999999999999886L29.989,-0.31399999999999295L29.126,-0.4270000000000067L29.126,-40.657L34.366,-40.657L34.575,-43.730000000000004L35.191,-46.748000000000005L36.205,-49.656000000000006L37.598,-52.403000000000006z"></path><path d="M-18.68,72.06L-16.61,69.779L-14.255000000000003,67.794L-11.655999999999999,66.142L-8.86,64.85L-5.915999999999997,63.944L-2.878,63.438L0.20000000000000284,63.342L3.2790000000000035,63.438L6.316999999999993,63.944L9.260999999999996,64.85L12.057000000000002,66.142L14.656000000000006,67.794L17.010999999999996,69.779L19.081000000000003,72.06L20.828000000000003,74.597L22.22,77.344L23.233999999999995,80.252L23.851,83.27L24.058999999999997,86.343L29.299000000000007,86.343L29.299000000000007,126.573L28.436999999999998,126.686L22.488,127.47L16.944999999999993,129.766L12.185000000000002,133.418L8.531999999999996,138.178L6.236000000000004,143.722L5.453000000000003,149.67L-5.027000000000001,149.67L-5.810000000000002,143.722L-8.106000000000002,138.178L-11.759,133.418L-16.519,129.766L-22.061999999999998,127.47L-28.011,126.686L-28.874,126.573L-28.874,86.343L-23.634,86.343L-23.424999999999997,83.27L-22.808999999999997,80.252L-21.795,77.344L-20.402,74.597z"></path><path d="M39.32,72.06L41.39,69.779L43.745,67.794L46.344,66.142L49.14,64.85L52.084,63.944L55.122,63.438L58.2,63.342L61.279,63.438L64.317,63.944L67.261,64.85L70.057,66.142L72.656,67.794L75.011,69.779L77.081,72.06L78.828,74.597L80.22,77.344L81.234,80.252L81.851,83.27L82.059,86.343L87.299,86.343L87.299,126.573L86.437,126.686L80.488,127.47L74.945,129.766L70.185,133.418L66.532,138.178L64.236,143.722L63.453,149.67L52.973,149.67L52.19,143.722L49.894,138.178L46.241,133.418L41.481,129.766L35.938,127.47L29.989,126.686L29.126,126.573L29.126,86.343L34.366,86.343L34.575,83.27L35.191,80.252L36.205,77.344L37.598,74.597z"></path></svg>