<svg width="540" height="540" version="1.2" xmlns="http://www.w3.org/2000/svg" viewBox="0 0 540 540"><style type="text/css">path {stroke-width: 1; vector-effect: non-scaling-stroke; fill:none; stroke: #000; stroke-linecap: round; stroke-linejoin: miter;}</style><path d="M-270,140L-200.00400000000002,70.004L-130.007,140L-0.006999999999948159,140L69.98900000000003,70.004L139.986,140L139.986,270L69.98900000000003,339.996L-0.006999999999948159,270L-130.007,270L-200.00400000000002,339.996L-270,270z"></path><path d="M270,140L339.996,70.004L409.993,140L539.993,140L609.989,70.004L679.986,140L679.986,270L609.989,339.996L539.993,270L409.993,270L339.996,339.996L270,270z"></path><path d="M-200,-200L-130.00400000000002,-269.996L-0.004000000000019099,-269.996L69.99300000000005,-200L-0.004000000000019099,-130.00400000000002L-0.004000000000019099,-0.004000000000019099L69.99300000000005,69.99300000000005L-0.004000000000019099,139.98900000000003L-130.00400000000002,139.98900000000003L-200,69.99300000000005L-130.00400000000002,-0.004000000000019099L-130.00400000000002,-130.00400000000002z"></path><path d="M340,-200L409.996,-269.996L539.996,-269.996L609.993,-200L539.996,-130.00400000000002L539.996,-0.004000000000019099L609.993,69.99300000000005L539.996,139.98900000000003L409.996,139.98900000000003L340,69.99300000000005L409.996,-0.004000000000019099L409.996,-130.00400000000002z"></path><path d="M-200,340L-130.00400000000002,270.004L-0.004000000000019099,270.004L69.99300000000005,340L-0.004000000000019099,409.996L-0.004000000000019099,539.996L69.99300000000005,609.993L-0.004000000000019099,679.989L-130.00400000000002,679.989L-200,609.993L-130.00400000000002,539.996L-130.00400000000002,409.996z"></path><path d="M340,340L409.996,270.004L539.996,270.004L609.993,340L539.996,409.996L539.996,539.996L609.993,609.993L539.996,679.989L409.996,679.989L340,609.993L409.996,539.996L409.996,409.996z"></path><path d="M70,70L139.996,0.004L269.996,0.004L339.993,70L269.996,139.996L269.996,269.996L339.993,339.993L269.996,409.989L139.996,409.989L70,339.993L139.996,269.996L139.996,139.996z"></path><path d="M0,-130L69.996,-199.99599999999998L139.993,-130L269.993,-130L339.989,-199.99599999999998L409.986,-130L409.986,0L339.989,69.99599999999998L269.993,0L139.993,0L69.996,69.99599999999998L0,0z"></path><path d="M0,410L69.996,340.004L139.993,410L269.993,410L339.989,340.004L409.986,410L409.986,540L339.989,609.996L269.993,540L139.993,540L69.996,609.996L0,540z"></path></svg>