<svg width="441" height="659" version="1.2" xmlns="http://www.w3.org/2000/svg" viewBox="0 0 441 659"><style type="text/css">path {stroke-width: 1; vector-effect: non-scaling-stroke; fill:none; stroke: #000; stroke-linecap: round; stroke-linejoin: miter;}</style><path d="M220,0L220,220L220,439.31L0,439.31L0,220z"></path><path d="M-221,0L214.89999999999998,0L218.32000000000005,0L-1.6820000000000164,220.002L-220.992,220.002z"></path><path d="M220,0L655.9,0L659.32,0L439.318,220.002L220.008,220.002z"></path><path d="M0,-219.69L220,-219.69L439.31,0.30999999999994543L0,0.30999999999994543z"></path><path d="M0,439.31L220,439.31L439.31,659.31L0,659.31z"></path><path d="M220,-439L439.31,-439L439.31,0.30999999999994543L220,-219.69z"></path><path d="M220,220L439.31,220L439.31,659.31L220,439.31z"></path></svg>