<svg width="580" height="580" version="1.2" xmlns="http://www.w3.org/2000/svg" viewBox="0 0 580 580"><style type="text/css">path {stroke-width: 1; vector-effect: non-scaling-stroke; fill:none; stroke: #000; stroke-linecap: round; stroke-linejoin: miter;}</style><path d="M157.06,-245L171.36,-263.636L189.996,-277.936L211.698,-286.925L234.987,-289.991L258.276,-286.925L279.978,-277.936L298.613,-263.636L312.913,-245L321.903,-223.298L324.969,-200.00900000000001L379.969,-200.00900000000001L379.969,-145.00900000000001L356.68,-141.94299999999998L334.978,-132.954L316.342,-118.654L302.042,-100.01799999999997L293.053,-78.31599999999997L289.987,-55.027000000000044L293.053,-31.738000000000056L302.042,-10.035999999999945L316.342,8.600000000000023L334.978,22.899999999999977L356.68,31.88900000000001L379.969,34.95500000000004L379.969,89.95500000000004L324.969,89.95500000000004L321.903,113.24400000000003L312.913,134.94600000000003L298.613,153.582L279.978,167.88099999999997L258.276,176.87099999999998L234.987,179.937L211.698,176.87099999999998L189.996,167.88099999999997L171.36,153.582L157.06,134.94600000000003L148.071,113.24400000000003L145.005,89.95500000000004L90.005,89.95500000000004L90.005,34.95500000000004L113.294,31.88900000000001L134.996,22.899999999999977L153.632,8.600000000000023L167.931,-10.035999999999945L176.921,-31.738000000000056L179.987,-55.027000000000044L176.921,-78.31599999999997L167.931,-100.01799999999997L153.632,-118.654L134.996,-132.954L113.294,-141.94299999999998L90.005,-145.00900000000001L90.005,-200.00900000000001L145.005,-200.00900000000001L148.071,-223.298z"></path><path d="M157.06,335L171.36,316.364L189.996,302.064L211.698,293.075L234.987,290.009L258.276,293.075L279.978,302.064L298.613,316.364L312.913,335L321.903,356.702L324.969,379.991L379.969,379.991L379.969,434.991L356.68,438.057L334.978,447.046L316.342,461.346L302.042,479.982L293.053,501.684L289.987,524.973L293.053,548.262L302.042,569.964L316.342,588.6L334.978,602.9L356.68,611.889L379.969,614.955L379.969,669.955L324.969,669.955L321.903,693.244L312.913,714.946L298.613,733.582L279.978,747.881L258.276,756.871L234.987,759.937L211.698,756.871L189.996,747.881L171.36,733.582L157.06,714.946L148.071,693.244L145.005,669.955L90.005,669.955L90.005,614.955L113.294,611.889L134.996,602.9L153.632,588.6L167.931,569.964L176.921,548.262L179.987,524.973L176.921,501.684L167.931,479.982L153.632,461.346L134.996,447.046L113.294,438.057L90.005,434.991L90.005,379.991L145.005,379.991L148.071,356.702z"></path><path d="M-245,-132.94L-223.298,-141.92899999999997L-200.00900000000001,-144.995L-200.00900000000001,-199.995L-145.00900000000001,-199.995L-141.94299999999998,-176.70600000000002L-132.954,-155.00400000000002L-118.654,-136.368L-100.01799999999997,-122.06900000000002L-78.31599999999997,-113.07900000000001L-55.027000000000044,-110.01299999999998L-31.738000000000056,-113.07900000000001L-10.035999999999945,-122.06900000000002L8.600000000000023,-136.368L22.899999999999977,-155.00400000000002L31.88900000000001,-176.70600000000002L34.95500000000004,-199.995L89.95500000000004,-199.995L89.95500000000004,-144.995L113.24400000000003,-141.92899999999997L134.94600000000003,-132.94L153.582,-118.63999999999999L167.88099999999997,-100.00400000000002L176.87099999999998,-78.30200000000002L179.937,-55.013000000000034L176.87099999999998,-31.724000000000046L167.88099999999997,-10.022000000000048L153.582,8.613000000000056L134.94600000000003,22.91300000000001L113.24400000000003,31.90300000000002L89.95500000000004,34.96900000000005L89.95500000000004,89.96900000000005L34.95500000000004,89.96900000000005L31.88900000000001,66.67999999999995L22.899999999999977,44.97799999999995L8.600000000000023,26.341999999999985L-10.035999999999945,12.04200000000003L-31.738000000000056,3.0529999999999973L-55.027000000000044,-0.013000000000033651L-78.31599999999997,3.0529999999999973L-100.01799999999997,12.04200000000003L-118.654,26.341999999999985L-132.954,44.97799999999995L-141.94299999999998,66.67999999999995L-145.00900000000001,89.96900000000005L-200.00900000000001,89.96900000000005L-200.00900000000001,34.96900000000005L-223.298,31.90300000000002L-245,22.91300000000001L-263.636,8.613000000000056L-277.936,-10.022000000000048L-286.925,-31.724000000000046L-289.991,-55.013000000000034L-286.925,-78.30200000000002L-277.936,-100.00400000000002L-263.636,-118.63999999999999z"></path><path d="M335,-132.94L356.702,-141.92899999999997L379.991,-144.995L379.991,-199.995L434.991,-199.995L438.057,-176.70600000000002L447.046,-155.00400000000002L461.346,-136.368L479.982,-122.06900000000002L501.684,-113.07900000000001L524.973,-110.01299999999998L548.262,-113.07900000000001L569.964,-122.06900000000002L588.6,-136.368L602.9,-155.00400000000002L611.889,-176.70600000000002L614.955,-199.995L669.955,-199.995L669.955,-144.995L693.244,-141.92899999999997L714.946,-132.94L733.582,-118.63999999999999L747.881,-100.00400000000002L756.871,-78.30200000000002L759.937,-55.013000000000034L756.871,-31.724000000000046L747.881,-10.022000000000048L733.582,8.613000000000056L714.946,22.91300000000001L693.244,31.90300000000002L669.955,34.96900000000005L669.955,89.96900000000005L614.955,89.96900000000005L611.889,66.67999999999995L602.9,44.97799999999995L588.6,26.341999999999985L569.964,12.04200000000003L548.262,3.0529999999999973L524.973,-0.013000000000033651L501.684,3.0529999999999973L479.982,12.04200000000003L461.346,26.341999999999985L447.046,44.97799999999995L438.057,66.67999999999995L434.991,89.96900000000005L379.991,89.96900000000005L379.991,34.96900000000005L356.702,31.90300000000002L335,22.91300000000001L316.364,8.613000000000056L302.064,-10.022000000000048L293.075,-31.724000000000046L290.009,-55.013000000000034L293.075,-78.30200000000002L302.064,-100.00400000000002L316.364,-118.63999999999999z"></path><path d="M-245,447.06L-223.298,438.071L-200.00900000000001,435.005L-200.00900000000001,380.005L-145.00900000000001,380.005L-141.94299999999998,403.294L-132.954,424.996L-118.654,443.632L-100.01799999999997,457.931L-78.31599999999997,466.921L-55.027000000000044,469.987L-31.738000000000056,466.921L-10.035999999999945,457.931L8.600000000000023,443.632L22.899999999999977,424.996L31.88900000000001,403.294L34.95500000000004,380.005L89.95500000000004,380.005L89.95500000000004,435.005L113.24400000000003,438.071L134.94600000000003,447.06L153.582,461.36L167.88099999999997,479.996L176.87099999999998,501.698L179.937,524.987L176.87099999999998,548.276L167.88099999999997,569.978L153.582,588.613L134.94600000000003,602.913L113.24400000000003,611.903L89.95500000000004,614.969L89.95500000000004,669.969L34.95500000000004,669.969L31.88900000000001,646.68L22.899999999999977,624.978L8.600000000000023,606.342L-10.035999999999945,592.042L-31.738000000000056,583.053L-55.027000000000044,579.987L-78.31599999999997,583.053L-100.01799999999997,592.042L-118.654,606.342L-132.954,624.978L-141.94299999999998,646.68L-145.00900000000001,669.969L-200.00900000000001,669.969L-200.00900000000001,614.969L-223.298,611.903L-245,602.913L-263.636,588.613L-277.936,569.978L-286.925,548.276L-289.991,524.987L-286.925,501.698L-277.936,479.996L-263.636,461.36z"></path><path d="M335,447.06L356.702,438.071L379.991,435.005L379.991,380.005L434.991,380.005L438.057,403.294L447.046,424.996L461.346,443.632L479.982,457.931L501.684,466.921L524.973,469.987L548.262,466.921L569.964,457.931L588.6,443.632L602.9,424.996L611.889,403.294L614.955,380.005L669.955,380.005L669.955,435.005L693.244,438.071L714.946,447.06L733.582,461.36L747.881,479.996L756.871,501.698L759.937,524.987L756.871,548.276L747.881,569.978L733.582,588.613L714.946,602.913L693.244,611.903L669.955,614.969L669.955,669.969L614.955,669.969L611.889,646.68L602.9,624.978L588.6,606.342L569.964,592.042L548.262,583.053L524.973,579.987L501.684,583.053L479.982,592.042L461.346,606.342L447.046,624.978L438.057,646.68L434.991,669.969L379.991,669.969L379.991,614.969L356.702,611.903L335,602.913L316.364,588.613L302.064,569.978L293.075,548.276L290.009,524.987L293.075,501.698L302.064,479.996L316.364,461.36z"></path><path d="M45,157.06L66.702,148.071L89.991,145.005L89.991,90.005L144.991,90.005L148.057,113.294L157.046,134.996L171.346,153.632L189.982,167.931L211.684,176.921L234.973,179.987L258.262,176.921L279.964,167.931L298.6,153.632L312.9,134.996L321.889,113.294L324.955,90.005L379.955,90.005L379.955,145.005L403.244,148.071L424.946,157.06L443.582,171.36L457.881,189.996L466.871,211.698L469.937,234.987L466.871,258.276L457.881,279.978L443.582,298.613L424.946,312.913L403.244,321.903L379.955,324.969L379.955,379.969L324.955,379.969L321.889,356.68L312.9,334.978L298.6,316.342L279.964,302.042L258.262,293.053L234.973,289.987L211.684,293.053L189.982,302.042L171.346,316.342L157.046,334.978L148.057,356.68L144.991,379.969L89.991,379.969L89.991,324.969L66.702,321.903L45,312.913L26.364,298.613L12.064,279.978L3.075,258.276L0.009,234.987L3.075,211.698L12.064,189.996L26.364,171.36z"></path><path d="M-132.94,45L-118.63999999999999,26.364L-100.00400000000002,12.064L-78.30200000000002,3.075L-55.013000000000034,0.009L-31.724000000000046,3.075L-10.022000000000048,12.064L8.613000000000056,26.364L22.91300000000001,45L31.90300000000002,66.702L34.96900000000005,89.991L89.96900000000005,89.991L89.96900000000005,144.991L66.67999999999995,148.057L44.97799999999995,157.046L26.341999999999985,171.346L12.04200000000003,189.982L3.0529999999999973,211.684L-0.013000000000033651,234.973L3.0529999999999973,258.262L12.04200000000003,279.964L26.341999999999985,298.6L44.97799999999995,312.9L66.67999999999995,321.889L89.96900000000005,324.955L89.96900000000005,379.955L34.96900000000005,379.955L31.90300000000002,403.244L22.91300000000001,424.946L8.613000000000056,443.582L-10.022000000000048,457.881L-31.724000000000046,466.871L-55.013000000000034,469.937L-78.30200000000002,466.871L-100.00400000000002,457.881L-118.63999999999999,443.582L-132.94,424.946L-141.92899999999997,403.244L-144.995,379.955L-199.995,379.955L-199.995,324.955L-176.70600000000002,321.889L-155.00400000000002,312.9L-136.368,298.6L-122.06900000000002,279.964L-113.07900000000001,258.262L-110.01299999999998,234.973L-113.07900000000001,211.684L-122.06900000000002,189.982L-136.368,171.346L-155.00400000000002,157.046L-176.70600000000002,148.057L-199.995,144.991L-199.995,89.991L-144.995,89.991L-141.92899999999997,66.702z"></path><path d="M447.06,45L461.36,26.364L479.996,12.064L501.698,3.075L524.987,0.009L548.276,3.075L569.978,12.064L588.613,26.364L602.913,45L611.903,66.702L614.969,89.991L669.969,89.991L669.969,144.991L646.68,148.057L624.978,157.046L606.342,171.346L592.042,189.982L583.053,211.684L579.987,234.973L583.053,258.262L592.042,279.964L606.342,298.6L624.978,312.9L646.68,321.889L669.969,324.955L669.969,379.955L614.969,379.955L611.903,403.244L602.913,424.946L588.613,443.582L569.978,457.881L548.276,466.871L524.987,469.937L501.698,466.871L479.996,457.881L461.36,443.582L447.06,424.946L438.071,403.244L435.005,379.955L380.005,379.955L380.005,324.955L403.294,321.889L424.996,312.9L443.632,298.6L457.931,279.964L466.921,258.262L469.987,234.973L466.921,211.684L457.931,189.982L443.632,171.346L424.996,157.046L403.294,148.057L380.005,144.991L380.005,89.991L435.005,89.991L438.071,66.702z"></path></svg>