<svg width="450" height="450" version="1.2" xmlns="http://www.w3.org/2000/svg" viewBox="0 0 450 450"><style type="text/css">path {stroke-width: 1; vector-effect: non-scaling-stroke; fill:none; stroke: #000; stroke-linecap: round; stroke-linejoin: miter;}</style><path d="M0,0L450,0L390.766,59.234L375.16,47.26L356.988,39.733L337.486,37.165L317.984,39.733L299.812,47.26L284.206,59.234L272.232,74.84L264.705,93.012L262.137,112.514L264.705,132.016L272.232,150.188L284.206,165.794L224.972,225.028L165.738,165.794L177.712,150.188L185.239,132.016L187.807,112.514L185.239,93.012L177.712,74.84L165.738,59.234L150.132,47.26L131.96,39.733L112.458,37.165L92.956,39.733L74.783,47.26L59.178,59.234z"></path><path d="M0,-450L59.234,-390.766L47.26,-375.15999999999997L39.733,-356.988L37.165,-337.486L39.733,-317.98400000000004L47.26,-299.812L59.234,-284.206L74.84,-272.23199999999997L93.012,-264.70500000000004L112.514,-262.137L132.016,-264.70500000000004L150.188,-272.23199999999997L165.794,-284.206L225.028,-224.972L165.794,-165.738L150.188,-177.712L132.016,-185.23899999999998L112.514,-187.80700000000002L93.012,-185.23899999999998L74.84,-177.712L59.234,-165.738L47.26,-150.132L39.733,-131.95999999999998L37.165,-112.45800000000003L39.733,-92.95600000000002L47.26,-74.78300000000002L59.234,-59.178L0,0.055999999999983174z"></path><path d="M0,0L59.234,59.234L47.26,74.84L39.733,93.012L37.165,112.514L39.733,132.016L47.26,150.188L59.234,165.794L74.84,177.768L93.012,185.295L112.514,187.863L132.016,185.295L150.188,177.768L165.794,165.794L225.028,225.028L165.794,284.262L150.188,272.288L132.016,264.761L112.514,262.193L93.012,264.761L74.84,272.288L59.234,284.262L47.26,299.868L39.733,318.04L37.165,337.542L39.733,357.044L47.26,375.217L59.234,390.822L0,450.056z"></path><path d="M-390.77,-59.23000000000002L-375.165,-47.25599999999997L-356.992,-39.72800000000001L-337.49,-37.161L-317.98900000000003,-39.72800000000001L-299.81600000000003,-47.25599999999997L-284.211,-59.23000000000002L-272.236,-74.83499999999998L-264.709,-93.00799999999998L-262.14099999999996,-112.50999999999999L-264.709,-132.01100000000002L-272.236,-150.18400000000003L-284.211,-165.789L-224.976,-225.024L-165.74200000000002,-165.789L-177.716,-150.18400000000003L-185.24400000000003,-132.01100000000002L-187.81099999999998,-112.50999999999999L-185.24400000000003,-93.00799999999998L-177.716,-74.83499999999998L-165.74200000000002,-59.23000000000002L-150.137,-47.25599999999997L-131.964,-39.72800000000001L-112.46199999999999,-37.161L-92.96100000000001,-39.72800000000001L-74.78800000000001,-47.25599999999997L-59.18299999999999,-59.23000000000002L0.05200000000002092,0.004000000000019099L-449.948,0.004000000000019099z"></path><path d="M59.23,-59.23000000000002L74.835,-47.25599999999997L93.008,-39.72800000000001L112.51,-37.161L132.011,-39.72800000000001L150.184,-47.25599999999997L165.789,-59.23000000000002L177.764,-74.83499999999998L185.291,-93.00799999999998L187.859,-112.50999999999999L185.291,-132.01100000000002L177.764,-150.18400000000003L165.789,-165.789L225.024,-225.024L284.258,-165.789L272.284,-150.18400000000003L264.756,-132.01100000000002L262.189,-112.50999999999999L264.756,-93.00799999999998L272.284,-74.83499999999998L284.258,-59.23000000000002L299.863,-47.25599999999997L318.036,-39.72800000000001L337.538,-37.161L357.039,-39.72800000000001L375.212,-47.25599999999997L390.817,-59.23000000000002L450.052,0.004000000000019099L0.052,0.004000000000019099z"></path><path d="M-390.77,390.77L-375.165,402.744L-356.992,410.272L-337.49,412.839L-317.98900000000003,410.272L-299.81600000000003,402.744L-284.211,390.77L-272.236,375.165L-264.709,356.992L-262.14099999999996,337.49L-264.709,317.989L-272.236,299.816L-284.211,284.211L-224.976,224.976L-165.74200000000002,284.211L-177.716,299.816L-185.24400000000003,317.989L-187.81099999999998,337.49L-185.24400000000003,356.992L-177.716,375.165L-165.74200000000002,390.77L-150.137,402.744L-131.964,410.272L-112.46199999999999,412.839L-92.96100000000001,410.272L-74.78800000000001,402.744L-59.18299999999999,390.77L0.05200000000002092,450.004L-449.948,450.004z"></path><path d="M59.23,390.77L74.835,402.744L93.008,410.272L112.51,412.839L132.011,410.272L150.184,402.744L165.789,390.77L177.764,375.165L185.291,356.992L187.859,337.49L185.291,317.989L177.764,299.816L165.789,284.211L225.024,224.976L284.258,284.211L272.284,299.816L264.756,317.989L262.189,337.49L264.756,356.992L272.284,375.165L284.258,390.77L299.863,402.744L318.036,410.272L337.538,412.839L357.039,410.272L375.212,402.744L390.817,390.77L450.052,450.004L0.052,450.004z"></path><path d="M-165.76999999999998,165.77L-150.16500000000002,177.744L-131.99200000000002,185.272L-112.49000000000001,187.839L-92.98899999999998,185.272L-74.81599999999997,177.744L-59.21100000000001,165.77L-47.23599999999999,150.165L-39.709,131.992L-37.14100000000002,112.49L-39.709,92.989L-47.23599999999999,74.816L-59.21100000000001,59.211L0.02400000000000091,-0.024L0.02400000000000091,449.976L-59.21100000000001,390.742L-47.23599999999999,375.137L-39.709,356.964L-37.14100000000002,337.462L-39.709,317.961L-47.23599999999999,299.788L-59.21100000000001,284.183L-74.81599999999997,272.208L-92.98899999999998,264.681L-112.49000000000001,262.113L-131.99200000000002,264.681L-150.16500000000002,272.208L-165.76999999999998,284.183L-225.004,224.948z"></path><path d="M284.23,165.77L299.835,177.744L318.008,185.272L337.51,187.839L357.011,185.272L375.184,177.744L390.789,165.77L402.764,150.165L410.291,131.992L412.859,112.49L410.291,92.989L402.764,74.816L390.789,59.211L450.024,-0.024L450.024,449.976L390.789,390.742L402.764,375.137L410.291,356.964L412.859,337.462L410.291,317.961L402.764,299.788L390.789,284.183L375.184,272.208L357.011,264.681L337.51,262.113L318.008,264.681L299.835,272.208L284.23,284.183L224.996,224.948z"></path><path d="M-165.76999999999998,615.77L-150.16500000000002,627.744L-131.99200000000002,635.2719999999999L-112.49000000000001,637.8389999999999L-92.98899999999998,635.2719999999999L-74.81599999999997,627.744L-59.21100000000001,615.77L-47.23599999999999,600.165L-39.709,581.992L-37.14100000000002,562.49L-39.709,542.989L-47.23599999999999,524.816L-59.21100000000001,509.211L0.02400000000000091,449.976L0.02400000000000091,899.976L-59.21100000000001,840.742L-47.23599999999999,825.137L-39.709,806.9639999999999L-37.14100000000002,787.462L-39.709,767.961L-47.23599999999999,749.788L-59.21100000000001,734.183L-74.81599999999997,722.2080000000001L-92.98899999999998,714.681L-112.49000000000001,712.113L-131.99200000000002,714.681L-150.16500000000002,722.2080000000001L-165.76999999999998,734.183L-225.004,674.948z"></path><path d="M284.23,615.77L299.835,627.744L318.008,635.2719999999999L337.51,637.8389999999999L357.011,635.2719999999999L375.184,627.744L390.789,615.77L402.764,600.165L410.291,581.992L412.859,562.49L410.291,542.989L402.764,524.816L390.789,509.211L450.024,449.976L450.024,899.976L390.789,840.742L402.764,825.137L410.291,806.9639999999999L412.859,787.462L410.291,767.961L402.764,749.788L390.789,734.183L375.184,722.2080000000001L357.011,714.681L337.51,712.113L318.008,714.681L299.835,722.2080000000001L284.23,734.183L224.996,674.948z"></path><path d="M299.83,272.26L318.003,264.733L337.504,262.165L357.006,264.733L375.179,272.26L390.784,284.234L402.758,299.84L410.286,318.012L412.853,337.514L410.286,357.016L402.758,375.188L390.784,390.794L284.244,284.254z"></path><path d="M272.26,299.83L284.234,284.225L390.774,390.765L375.169,402.739L356.996,410.266L337.494,412.834L317.993,410.266L299.82,402.739L284.215,390.765L272.24,375.159L264.713,356.987L262.146,337.485L264.713,317.983z"></path><path d="M284.23,165.77L390.77,59.23L402.744,74.835L410.272,93.008L412.839,112.51L410.272,132.012L402.744,150.184L390.77,165.79L375.165,177.764L356.992,185.291L337.49,187.859L317.988,185.291L299.816,177.764z"></path><path d="M284.23,59.23L299.835,47.256L318.008,39.728L337.51,37.161L357.011,39.728L375.184,47.256L390.789,59.23L284.25,165.77L272.275,150.165L264.748,131.992L262.18,112.49L264.748,92.988L272.275,74.816z"></path><path d="M59.23,284.23L74.835,272.256L93.008,264.728L112.51,262.161L132.011,264.728L150.184,272.256L165.789,284.23L59.25,390.77L47.275,375.165L39.748,356.992L37.18,337.49L39.748,317.988L47.275,299.816z"></path><path d="M59.23,390.77L165.77,284.23L177.744,299.835L185.271,318.008L187.839,337.51L185.271,357.012L177.744,375.184L165.77,390.79L150.165,402.764L131.992,410.291L112.49,412.859L92.988,410.291L74.816,402.764z"></path><path d="M74.83,47.26L93.003,39.733L112.504,37.165L132.006,39.733L150.179,47.26L165.784,59.234L177.758,74.84L185.286,93.012L187.853,112.514L185.286,132.016L177.758,150.188L165.784,165.794L59.244,59.254z"></path><path d="M47.26,74.83L59.234,59.225L165.774,165.765L150.169,177.739L131.996,185.266L112.494,187.834L92.993,185.266L74.82,177.739L59.215,165.765L47.24,150.159L39.713,131.987L37.146,112.485L39.713,92.983z"></path></svg>