<svg width="312.5" height="400" version="1.2" xmlns="http://www.w3.org/2000/svg" viewBox="0 0 312.5 400"><style type="text/css">path {stroke-width: 1; vector-effect: non-scaling-stroke; fill:none; stroke: #000; stroke-linecap: round; stroke-linejoin: miter;}</style><path d="M93.75,50L125,50L125,0L187.5,0L187.5,50L218.75,50L218.75,150L250,150L250,250L281.25,250L281.25,400L0,400L0,350L31.25,350L31.25,250L62.5,250L62.5,150L93.75,150z"></path><path d="M0,0L125,0L125,50L93.75,50L93.75,150L62.5,150L62.5,250L31.25,250L31.25,350L0,350z"></path><path d="M187.5,0L312.5,0L312.5,400L281.25,400L281.25,250L250,250L250,150L218.75,150L218.75,50L187.5,50z"></path></svg>