<svg width="5000" height="1000" version="1.2" xmlns="http://www.w3.org/2000/svg" viewBox="0 0 5000 1000"><style type="text/css">path {stroke-width: 1; vector-effect: non-scaling-stroke; fill:none; stroke: #000; stroke-linecap: round; stroke-linejoin: miter;}</style><path d="M1500,500L1573.39,500L2000,500L2067,500L2500,500L2500,1000L2073.39,1000L1500,1000z"></path><path d="M2000,0L4000,0L4000,500L3573.39,500L3500,500L3000,500L2573.39,500L2500,500L2067,500L2000,500z"></path><path d="M2500,500L2573.39,500L3000,500L3500,500L3573.39,500L4000,500L4500,500L4500,1000L4073.39,1000L4000,1000L3500,1000L3073.39,1000L3000,1000L2567,1000L2500,1000z"></path><path d="M-500,500L-426.6099999999997,500L0,500L500,500L573.3900000000003,500L1000,500L1500,500L1500,1000L1073.3900000000003,1000L1000,1000L500,1000L73.39000000000033,1000L0,1000L-433,1000L-500,1000z"></path><path d="M4500,500L4573.39,500L5000,500L5500,500L5573.39,500L6000,500L6500,500L6500,1000L6073.39,1000L6000,1000L5500,1000L5073.39,1000L5000,1000L4567,1000L4500,1000z"></path><path d="M0,0L2000,0L2000,500L1573.39,500L1500,500L1000,500L573.39,500L500,500L67,500L0,500z"></path><path d="M4000,0L4073.39,0L4500,0L5000,0L5000,500L4573.39,500L4500,500L4000,500z"></path></svg>