<svg width="280" height="280" version="1.2" xmlns="http://www.w3.org/2000/svg" viewBox="0 0 280 280"><style type="text/css">path {stroke-width: 1; vector-effect: non-scaling-stroke; fill:none; stroke: #000; stroke-linecap: round; stroke-linejoin: miter;}</style><path d="M0,151.36L70,151.36L70,221.36L0,221.36z"></path><path d="M0,-58.639999999999986L70,-58.639999999999986L70,0L70,151.36L0,151.36z"></path><path d="M0,221.36L70,221.36L70,280L70,431.36L0,431.36z"></path><path d="M70,70L140,70L140,280L70,280L70,221.36L70,151.36z"></path><path d="M140,70L210,70L210,280L140,280z"></path><path d="M210,70L280,70L280,280L210,280z"></path><path d="M70,0L280,0L280,70L210,70L140,70L70,70z"></path></svg>