<svg width="200" height="200" version="1.2" xmlns="http://www.w3.org/2000/svg" viewBox="0 0 200 200"><style type="text/css">path {stroke-width: 1; vector-effect: non-scaling-stroke; fill:none; stroke: #000; stroke-linecap: round; stroke-linejoin: miter;}</style><path d="M0,-100L21.64,-100L22.007,-87.405L27.922,-67.65199999999999L38.748,-50.10300000000001L53.748,-35.953L71.898,-26.168000000000006L91.962,-21.413999999999987L112.574,-22.014999999999986L132.327,-27.930000000000007L149.876,-38.756L164.026,-53.754999999999995L173.811,-71.905L178.565,-91.97L178.331,-99.996L199.971,-99.996L199.971,0.003999999999990678L-0.029,0.003999999999990678z"></path><path d="M200,-100L221.64,-100L222.007,-87.405L227.922,-67.65199999999999L238.748,-50.10300000000001L253.748,-35.953L271.898,-26.168000000000006L291.962,-21.413999999999987L312.574,-22.014999999999986L332.327,-27.930000000000007L349.876,-38.756L364.026,-53.754999999999995L373.81100000000004,-71.905L378.565,-91.97L378.331,-99.996L399.971,-99.996L399.971,0.003999999999990678L199.971,0.003999999999990678z"></path><path d="M0,100L21.64,100L22.007,112.595L27.922,132.348L38.748,149.897L53.748,164.047L71.898,173.832L91.962,178.586L112.574,177.985L132.327,172.07L149.876,161.244L164.026,146.245L173.811,128.095L178.565,108.03L178.331,100.004L199.971,100.004L199.971,200.004L-0.029,200.004z"></path><path d="M200,100L221.64,100L222.007,112.595L227.922,132.348L238.748,149.897L253.748,164.047L271.898,173.832L291.962,178.586L312.574,177.985L332.327,172.07L349.876,161.244L364.026,146.245L373.81100000000004,128.095L378.565,108.03L378.331,100.004L399.971,100.004L399.971,200.004L199.971,200.004z"></path><path d="M0,0L200,0L200,100L178.36,100L177.993,87.405L172.078,67.652L161.252,50.103L146.252,35.953L128.102,26.168L108.038,21.414L87.426,22.015L67.673,27.93L50.124,38.756L35.974,53.755L26.189,71.905L21.435,91.97L21.669,99.996L0.029,99.996z"></path><path d="M21.64,100L178.35,100L178.584,108.027L173.83,128.091L164.045,146.241L149.895,161.241L132.346,172.067L112.592,177.982L91.981,178.583L71.917,173.829L53.766,164.043L38.767,149.894L27.941,132.344L22.026,112.591z"></path><path d="M50.1,38.75L67.649,27.924L87.403,22.009L108.014,21.408L128.079,26.162L146.229,35.947L161.228,50.097L172.054,67.646L177.969,87.4L178.336,99.994L21.626,99.994L21.392,91.968L26.146,71.903L35.932,53.753z"></path></svg>