<svg width="350" height="350" version="1.2" xmlns="http://www.w3.org/2000/svg" viewBox="0 0 350 350"><style type="text/css">path {stroke-width: 1; vector-effect: non-scaling-stroke; fill:none; stroke: #000; stroke-linecap: round; stroke-linejoin: miter;}</style><path d="M0,0L250,0L250,75L250,175L250,250L175,250L75,250L0,250z"></path><path d="M250,75L350,75L350,175L250,175z"></path><path d="M75,250L175,250L175,350L75,350z"></path><path d="M-100,-175L0,-175L0,-100L75,-100L75,0L0,0L0,75L-100,75L-100,0L-175,0L-175,-100L-100,-100z"></path><path d="M250,-175L350,-175L350,-100L425,-100L425,0L350,0L350,75L250,75L250,0L175,0L175,-100L250,-100z"></path><path d="M-100,175L0,175L0,250L75,250L75,350L0,350L0,425L-100,425L-100,350L-175,350L-175,250L-100,250z"></path><path d="M250,175L350,175L350,250L425,250L425,350L350,350L350,425L250,425L250,350L175,350L175,250L250,250z"></path></svg>