<svg width="800" height="800" version="1.2" xmlns="http://www.w3.org/2000/svg" viewBox="0 0 800 800"><style type="text/css">path {stroke-width: 1; vector-effect: non-scaling-stroke; fill:none; stroke: #000; stroke-linecap: round; stroke-linejoin: miter;}</style><path d="M400,600L600,600L600,800L400,800z"></path><path d="M0,400L400,400L600,400L600,600L400,600L200,600L0,600z"></path><path d="M400,200L600,200L600,400L400,400z"></path><path d="M200,-200L400,-200L400,0L400,200L400,400L200,400z"></path><path d="M200,600L400,600L400,800L400,1000L400,1200L200,1200z"></path><path d="M0,600L200,600L200,800L0,800z"></path><path d="M600,200L800,200L800,400L800,600L800,800L600,800L600,600L600,400z"></path><path d="M0,200L200,200L200,400L0,400z"></path><path d="M-400,0L0,0L200,0L200,200L0,200L-200,200L-400,200z"></path><path d="M400,0L800,0L1000,0L1000,200L800,200L600,200L400,200z"></path></svg>