<svg width="600" height="600" version="1.2" xmlns="http://www.w3.org/2000/svg" viewBox="0 0 600 600"><style type="text/css">path {stroke-width: 1; vector-effect: non-scaling-stroke; fill:none; stroke: #000; stroke-linecap: round; stroke-linejoin: miter;}</style><path d="M0,200L100,200L100,300L0,300z"></path><path d="M0,500L100,500L100,600L0,600z"></path><path d="M300,500L400,500L400,600L300,600z"></path><path d="M300,200L400,200L400,300L300,300z"></path><path d="M0,100L400,100L400,200L300,200L200,200L100,200L0,200z"></path><path d="M0,0L400,0L400,100L0,100z"></path><path d="M400,-100L500,-100L500,300L400,300L400,0z"></path><path d="M400,500L500,500L500,900L400,900L400,600z"></path><path d="M100,200L200,200L200,600L100,600L100,500L100,300z"></path><path d="M200,200L300,200L300,300L300,400L300,500L300,600L200,600z"></path><path d="M500,-100L600,-100L600,0L600,100L600,200L600,300L500,300z"></path><path d="M500,500L600,500L600,600L600,700L600,800L600,900L500,900z"></path><path d="M-300,400L100,400L100,500L0,500L-100,500L-200,500L-300,500z"></path><path d="M300,400L700,400L700,500L600,500L500,500L400,500L300,500z"></path><path d="M-300,300L-200,300L100,300L100,400L-300,400z"></path><path d="M300,300L400,300L700,300L700,400L300,400z"></path></svg>