<svg width="1200" height="1200" version="1.2" xmlns="http://www.w3.org/2000/svg" viewBox="0 0 1200 1200"><style type="text/css">path {stroke-width: 1; vector-effect: non-scaling-stroke; fill:none; stroke: #000; stroke-linecap: round; stroke-linejoin: miter;}</style><path d="M785,642.74L1078.42,642.74L1102.009,862.739L969.179,862.739L785.009,862.739L785.009,737.739z"></path><path d="M-230.83000000000004,862.74L-98,862.74L22,862.74L22,988.49L-219.86,988.49z"></path><path d="M969.17,862.74L1102,862.74L1222,862.74L1222,988.49L980.14,988.49z"></path><path d="M-209.90999999999997,198.33L79.59999999999991,198.33L209.6400000000001,198.33L209.6400000000001,452.74L0.009999999999990905,452.74L-209.89999999999998,452.74z"></path><path d="M990.09,198.33L1279.6,198.33L1409.64,198.33L1409.64,452.74L1200.01,452.74L990.1,452.74z"></path><path d="M443.63,0L800.9,0L800.9,198.33L638.82,198.33L443.635,146.03z"></path><path d="M161.02,988.49L544.75,988.49L544.75,1200L161.02,1200z"></path><path d="M-121.57999999999993,642.74L0,642.74L22.000999999999976,737.735L22.000999999999976,862.735L-97.99900000000002,862.735z"></path><path d="M1078.42,642.74L1200,642.74L1222.001,737.735L1222.001,862.735L1102.001,862.735z"></path><path d="M-219.86,988.49L22,988.49L161.01999999999998,988.49L161.01999999999998,1200L-201.40999999999997,1200z"></path><path d="M980.14,988.49L1222,988.49L1361.02,988.49L1361.02,1200L998.59,1200z"></path><path d="M209.63,198.33L443.63,198.33L443.63,304.92L209.63,304.92z"></path><path d="M347.98,452.74L611.64,452.74L785.01,452.74L785.01,642.74L785.01,737.74L578.42,737.74L420.22,737.74z"></path><path d="M22,737.74L420.2,737.74L578.4,737.74L561.633,862.74L544.764,988.494L161.034,988.494L22.014,988.494z"></path><path d="M638.82,198.33L800.9,198.33L990.09,198.33L990.09,452.74L785,452.74L611.63,452.74L611.63,304.91z"></path><path d="M785,452.74L990.09,452.74L1200,452.74L1200,642.74L1078.42,642.74L785,642.74z"></path><path d="M0,452.74L209.63,452.74L347.97,452.74L420.192,737.741L21.992,737.741L-0.009,642.746z"></path><path d="M1200,452.74L1409.63,452.74L1547.97,452.74L1620.192,737.741L1221.992,737.741L1199.991,642.746z"></path><path d="M-399.1,0L79.58999999999992,0L79.58999999999992,198.33L-209.91999999999996,198.33L-399.11,198.33z"></path><path d="M800.9,0L1279.59,0L1279.59,198.33L990.08,198.33L800.89,198.33z"></path><path d="M79.6,0L443.64,0L443.64,146.04L443.64,198.32L209.64,198.32L79.6,198.32z"></path><path d="M578.41,737.74L785,737.74L785,862.74L561.63,862.74z"></path><path d="M209.63,304.91L443.63,304.91L611.63,304.91L611.63,452.74L347.97,452.74L209.63,452.74z"></path><path d="M443.63,146.04L638.815,198.34L611.626,304.927L443.626,304.927L443.626,198.337z"></path><path d="M561.63,-337.26L785,-337.26L969.17,-337.26L980.128,-211.50699999999995L998.558,0.0019999999999527063L544.718,0.0019999999999527063L544.718,-211.50800000000004z"></path><path d="M561.63,862.74L785,862.74L969.17,862.74L980.128,988.493L998.558,1200.002L544.718,1200.002L544.718,988.492z"></path></svg>