<svg width="400" height="800" version="1.2" xmlns="http://www.w3.org/2000/svg" viewBox="0 0 400 800"><style type="text/css">path {stroke-width: 1; vector-effect: non-scaling-stroke; fill:none; stroke: #000; stroke-linecap: round; stroke-linejoin: miter;}</style><path d="M0,0L200,0L200,200L0,200z"></path><path d="M0,200L200,200L200,400L100,400L0,400z"></path><path d="M300,0L400,0L400,400L300,400z"></path><path d="M200,0L300,0L300,400L200,400L200,200z"></path><path d="M200,400L300,400L400,400L400,600L200,600z"></path><path d="M0,400L100,400L100,800L0,800z"></path><path d="M200,600L400,600L400,800L200,800z"></path><path d="M100,400L200,400L200,600L200,800L100,800z"></path></svg>