<svg width="360" height="145" version="1.2" xmlns="http://www.w3.org/2000/svg" viewBox="0 0 360 145"><style type="text/css">path {stroke-width: 1; vector-effect: non-scaling-stroke; fill:none; stroke: #000; stroke-linecap: round; stroke-linejoin: miter;}</style><path d="M0,0L30,0L30,42.5L90,42.5L90,0L120,0L120,115L90,115L90,72.5L30,72.5L30,115L0,115z"></path><path d="M240,0L270,0L270,42.5L330,42.5L330,0L360,0L360,115L330,115L330,72.5L270,72.5L270,115L240,115z"></path><path d="M-60,-72.5L-30,-72.5L-30,-30L30,-30L30,-72.5L60,-72.5L60,42.5L30,42.5L30,0L-30,0L-30,42.5L-60,42.5z"></path><path d="M300,-72.5L330,-72.5L330,-30L390,-30L390,-72.5L420,-72.5L420,42.5L390,42.5L390,0L330,0L330,42.5L300,42.5z"></path><path d="M-60,72.5L-30,72.5L-30,115L30,115L30,72.5L60,72.5L60,187.5L30,187.5L30,145L-30,145L-30,187.5L-60,187.5z"></path><path d="M300,72.5L330,72.5L330,115L390,115L390,72.5L420,72.5L420,187.5L390,187.5L390,145L330,145L330,187.5L300,187.5z"></path><path d="M180,-72.5L210,-72.5L210,-30L270,-30L270,-72.5L300,-72.5L300,42.5L270,42.5L270,0L210,0L210,42.5L180,42.5z"></path><path d="M180,72.5L210,72.5L210,115L270,115L270,72.5L300,72.5L300,187.5L270,187.5L270,145L210,145L210,187.5L180,187.5z"></path><path d="M120,0L150,0L150,42.5L210,42.5L210,0L240,0L240,115L210,115L210,72.5L150,72.5L150,115L120,115z"></path><path d="M60,-72.5L90,-72.5L90,-30L150,-30L150,-72.5L180,-72.5L180,42.5L150,42.5L150,0L90,0L90,42.5L60,42.5z"></path><path d="M60,72.5L90,72.5L90,115L150,115L150,72.5L180,72.5L180,187.5L150,187.5L150,145L90,145L90,187.5L60,187.5z"></path></svg>