<svg width="500" height="500" version="1.2" xmlns="http://www.w3.org/2000/svg" viewBox="0 0 500 500"><style type="text/css">path {stroke-width: 1; vector-effect: non-scaling-stroke; fill:none; stroke: #000; stroke-linecap: round; stroke-linejoin: miter;}</style><path d="M500,375L500,500L375,500z"></path><path d="M500,-125L374.998,0.0020000000000095497L249.998,0.0020000000000095497L499.995,-249.995z"></path><path d="M500,375L374.998,500.002L249.998,500.002L499.995,250.005z"></path><path d="M250,250L375,250L249.998,375.002z"></path><path d="M250,125L375.002,250.002L250.002,250.002z"></path><path d="M-250,0L-125,0L0.0020000000000095497,125.002L0.0020000000000095497,250.002z"></path><path d="M250,0L375,0L500.002,125.002L500.002,250.002z"></path><path d="M250,0L499.998,249.998L374.998,249.998L249.995,124.995z"></path><path d="M375,0L500,0L500,125z"></path><path d="M375,250L500,250L250.002,499.998L250.002,374.998z"></path><path d="M125,0L250,0L0.002,249.998L0.002,124.998z"></path><path d="M0,250L249.998,499.998L124.998,499.998L-0.005,374.995z"></path><path d="M500,250L749.998,499.998L624.998,499.998L499.995,374.995z"></path><path d="M0,-125L125.002,0.0020000000000095497L0.002,0.0020000000000095497z"></path><path d="M0,375L125.002,500.002L0.002,500.002z"></path><path d="M250,0L250,125L124.998,250.002L-0.002,250.002z"></path><path d="M750,0L750,125L624.998,250.002L499.998,250.002z"></path><path d="M125,250L250,250L250,375z"></path><path d="M0,-250L125,-250L250.002,-124.99799999999999L250.002,0.0020000000000095497z"></path><path d="M0,250L125,250L250.002,375.002L250.002,500.002z"></path><path d="M0,0L125,0L-0.002,125.002z"></path><path d="M500,0L625,0L499.998,125.002z"></path><path d="M250,125L250,250L125,250z"></path></svg>