<svg width="200" height="400" version="1.2" xmlns="http://www.w3.org/2000/svg" viewBox="0 0 200 400"><style type="text/css">path {stroke-width: 1; vector-effect: non-scaling-stroke; fill:none; stroke: #000; stroke-linecap: round; stroke-linejoin: miter;}</style><path d="M100,200L200,200L200,300L174.113,296.592L149.991,286.6L129.276,270.705L113.382,249.991L103.39,225.868z"></path><path d="M0,200L100,200L96.592,225.887L86.6,250.009L70.705,270.724L49.991,286.618L25.868,296.61L-0.018,300.018z"></path><path d="M200,200L300,200L296.592,225.887L286.6,250.009L270.705,270.724L249.99099999999999,286.618L225.868,296.61L199.982,300.018z"></path><path d="M0,100L25.887,103.408L50.009,113.4L70.724,129.295L86.618,150.009L96.61,174.132L100.018,200.018L0.018,200.018z"></path><path d="M0,-100L3.408,-74.113L13.4,-49.990999999999985L29.295,-29.27600000000001L50.009,-13.382000000000005L74.132,-3.3899999999999864L100.018,0.01799999999997226L0.018,0.01799999999997226z"></path><path d="M0,300L3.408,325.887L13.4,350.009L29.295,370.724L50.009,386.618L74.132,396.61L100.018,400.018L0.018,400.018z"></path><path d="M-70.71000000000001,129.29L-49.99600000000001,113.395L-25.87299999999999,103.403L0.014000000000010004,99.995L0.014000000000010004,199.995L-99.986,199.995L-96.578,174.109L-86.587,149.986z"></path><path d="M129.29,129.29L150.004,113.395L174.127,103.403L200.014,99.995L200.014,199.995L100.014,199.995L103.422,174.109L113.413,149.986z"></path><path d="M100,0L200,0L200,100L196.592,74.113L186.6,49.991L170.705,29.276L149.991,13.382L125.868,3.39z"></path><path d="M-170.71,29.29L-149.996,13.395L-125.873,3.403L-99.986,-0.005L-74.1,3.403L-49.977000000000004,13.395L-29.263000000000005,29.29L-13.367999999999995,50.004L-3.3760000000000048,74.127L0.03200000000001069,100.014L-25.85499999999999,103.422L-49.977000000000004,113.413L-70.69200000000001,129.308L-86.587,150.023L-96.578,174.145L-99.986,200.032L-103.394,174.145L-113.386,150.023L-129.281,129.308L-149.996,113.413L-174.118,103.422L-200.005,100.014L-196.597,74.127L-186.605,50.004z"></path><path d="M29.29,29.29L50.004,13.395L74.127,3.403L100.014,-0.005L125.9,3.403L150.023,13.395L170.737,29.29L186.632,50.004L196.624,74.127L200.032,100.014L174.145,103.422L150.023,113.413L129.308,129.308L113.413,150.023L103.422,174.145L100.014,200.032L96.606,174.145L86.614,150.023L70.719,129.308L50.004,113.413L25.882,103.422L-0.005,100.014L3.403,74.127L13.395,50.004z"></path><path d="M229.29,29.29L250.004,13.395L274.127,3.403L300.014,-0.005L325.9,3.403L350.023,13.395L370.73699999999997,29.29L386.632,50.004L396.624,74.127L400.03200000000004,100.014L374.145,103.422L350.023,113.413L329.308,129.308L313.413,150.023L303.422,174.145L300.014,200.032L296.606,174.145L286.61400000000003,150.023L270.719,129.308L250.004,113.413L225.882,103.422L199.995,100.014L203.403,74.127L213.395,50.004z"></path><path d="M-170.71,429.29L-149.996,413.395L-125.873,403.403L-99.986,399.995L-74.1,403.403L-49.977000000000004,413.395L-29.263000000000005,429.29L-13.367999999999995,450.004L-3.3760000000000048,474.127L0.03200000000001069,500.014L-25.85499999999999,503.422L-49.977000000000004,513.413L-70.69200000000001,529.308L-86.587,550.023L-96.578,574.145L-99.986,600.032L-103.394,574.145L-113.386,550.023L-129.281,529.308L-149.996,513.413L-174.118,503.422L-200.005,500.014L-196.597,474.127L-186.605,450.004z"></path><path d="M29.29,429.29L50.004,413.395L74.127,403.403L100.014,399.995L125.9,403.403L150.023,413.395L170.737,429.29L186.632,450.004L196.624,474.127L200.032,500.014L174.145,503.422L150.023,513.413L129.308,529.308L113.413,550.023L103.422,574.145L100.014,600.032L96.606,574.145L86.614,550.023L70.719,529.308L50.004,513.413L25.882,503.422L-0.005,500.014L3.403,474.127L13.395,450.004z"></path><path d="M229.29,429.29L250.004,413.395L274.127,403.403L300.014,399.995L325.9,403.403L350.023,413.395L370.73699999999997,429.29L386.632,450.004L396.624,474.127L400.03200000000004,500.014L374.145,503.422L350.023,513.413L329.308,529.308L313.413,550.023L303.422,574.145L300.014,600.032L296.606,574.145L286.61400000000003,550.023L270.719,529.308L250.004,513.413L225.882,503.422L199.995,500.014L203.403,474.127L213.395,450.004z"></path><path d="M-200,-100L-174.113,-103.40800000000002L-149.99099999999999,-113.39999999999998L-129.276,-129.29500000000002L-113.382,-150.009L-103.39,-174.132L-99.982,-200.018L-96.574,-174.132L-86.582,-150.009L-70.68700000000001,-129.29500000000002L-49.97300000000001,-113.39999999999998L-25.849999999999994,-103.40800000000002L0.036000000000001364,-100L-3.372000000000014,-74.113L-13.363,-49.990999999999985L-29.25800000000001,-29.27600000000001L-49.97300000000001,-13.382000000000005L-74.095,-3.3899999999999864L-99.982,0.01799999999997226L-125.868,-3.3899999999999864L-149.99099999999999,-13.382000000000005L-170.70499999999998,-29.27600000000001L-186.6,-49.990999999999985L-196.592,-74.113z"></path><path d="M0,-100L25.887,-103.40800000000002L50.009,-113.39999999999998L70.724,-129.29500000000002L86.618,-150.009L96.61,-174.132L100.018,-200.018L103.426,-174.132L113.418,-150.009L129.313,-129.29500000000002L150.027,-113.39999999999998L174.15,-103.40800000000002L200.036,-100L196.628,-74.113L186.637,-49.990999999999985L170.742,-29.27600000000001L150.027,-13.382000000000005L125.905,-3.3899999999999864L100.018,0.01799999999997226L74.132,-3.3899999999999864L50.009,-13.382000000000005L29.295,-29.27600000000001L13.4,-49.990999999999985L3.408,-74.113z"></path><path d="M-200,300L-174.113,296.592L-149.99099999999999,286.6L-129.276,270.705L-113.382,249.991L-103.39,225.868L-99.982,199.982L-96.574,225.868L-86.582,249.991L-70.68700000000001,270.705L-49.97300000000001,286.6L-25.849999999999994,296.592L0.036000000000001364,300L-3.372000000000014,325.887L-13.363,350.009L-29.25800000000001,370.724L-49.97300000000001,386.618L-74.095,396.61L-99.982,400.018L-125.868,396.61L-149.99099999999999,386.618L-170.70499999999998,370.724L-186.6,350.009L-196.592,325.887z"></path><path d="M0,300L25.887,296.592L50.009,286.6L70.724,270.705L86.618,249.991L96.61,225.868L100.018,199.982L103.426,225.868L113.418,249.991L129.313,270.705L150.027,286.6L174.15,296.592L200.036,300L196.628,325.887L186.637,350.009L170.742,370.724L150.027,386.618L125.905,396.61L100.018,400.018L74.132,396.61L50.009,386.618L29.295,370.724L13.4,350.009L3.408,325.887z"></path><path d="M200,300L200,400L100,400L125.887,396.592L150.009,386.6L170.724,370.705L186.618,349.991L196.61,325.868z"></path><path d="M0,0L100,0L74.113,3.408L49.991,13.4L29.276,29.295L13.382,50.009L3.39,74.132L-0.018,100.018z"></path><path d="M200,0L300,0L274.113,3.408L249.99099999999999,13.4L229.276,29.295L213.382,50.009L203.39,74.132L199.982,100.018z"></path></svg>