<svg width="400" height="400" version="1.2" xmlns="http://www.w3.org/2000/svg" viewBox="0 0 400 400"><style type="text/css">path {stroke-width: 1; vector-effect: non-scaling-stroke; fill:none; stroke: #000; stroke-linecap: round; stroke-linejoin: miter;}</style><path d="M240,320L280,320L280,360L240,360z"></path><path d="M200,240L240,240L240,280L200,280z"></path><path d="M280,320L320,320L320,360L280,360z"></path><path d="M200,320L240,320L240,360L200,360z"></path><path d="M240,360L280,360L280,400L240,400z"></path><path d="M200,280L240,280L240,320L200,320z"></path><path d="M240,240L280,240L280,280L240,280z"></path><path d="M320,240L360,240L360,280L320,280z"></path><path d="M200,360L240,360L240,400L200,400z"></path><path d="M320,320L360,320L360,360L320,360z"></path><path d="M280,240L320,240L320,280L280,280z"></path><path d="M360,200L400,200L400,240L360,240z"></path><path d="M360,280L400,280L400,320L360,320z"></path><path d="M360,240L400,240L400,280L360,280z"></path><path d="M360,320L400,320L400,360L360,360z"></path><path d="M280,360L320,360L320,400L280,400z"></path><path d="M280,280L320,280L320,320L280,320z"></path><path d="M320,280L360,280L360,320L320,320z"></path><path d="M320,360L360,360L360,400L320,400z"></path><path d="M200,200L240,200L240,240L200,240z"></path><path d="M240,280L280,280L280,320L240,320z"></path><path d="M360,360L400,360L400,400L360,400z"></path><path d="M320,200L360,200L360,240L320,240z"></path><path d="M240,200L280,200L280,240L240,240z"></path><path d="M280,200L320,200L320,240L280,240z"></path><path d="M0,200L200,200L200,400L0,400L0,360L0,320L0,280L0,240z"></path><path d="M160,0L200,0L200,40L160,40z"></path><path d="M40,0L80,0L80,40L40,40z"></path><path d="M160,40L200,40L200,80L160,80z"></path><path d="M200,0L400,0L400,200L360,200L320,200L280,200L240,200L200,200L200,160L200,120L200,80L200,40z"></path><path d="M0,160L40,160L40,200L0,200z"></path><path d="M40,120L80,120L80,160L40,160z"></path><path d="M80,40L120,40L120,80L80,80z"></path><path d="M80,80L120,80L120,120L80,120z"></path><path d="M40,40L80,40L80,80L40,80z"></path><path d="M120,120L160,120L160,160L120,160z"></path><path d="M0,40L40,40L40,80L0,80z"></path><path d="M0,120L40,120L40,160L0,160z"></path><path d="M120,160L160,160L160,200L120,200z"></path><path d="M120,80L160,80L160,120L120,120z"></path><path d="M160,160L200,160L200,200L160,200z"></path><path d="M40,80L80,80L80,120L40,120z"></path><path d="M120,0L160,0L160,40L120,40z"></path><path d="M160,80L200,80L200,120L160,120z"></path><path d="M0,0L40,0L40,40L0,40z"></path><path d="M80,0L120,0L120,40L80,40z"></path><path d="M0,80L40,80L40,120L0,120z"></path><path d="M80,160L120,160L120,200L80,200z"></path><path d="M120,40L160,40L160,80L120,80z"></path><path d="M160,120L200,120L200,160L160,160z"></path><path d="M40,160L80,160L80,200L40,200z"></path><path d="M80,120L120,120L120,160L80,160z"></path></svg>