<svg width="339.43" height="720" version="1.2" xmlns="http://www.w3.org/2000/svg" viewBox="0 0 339.43 720"><style type="text/css">path {stroke-width: 1; vector-effect: non-scaling-stroke; fill:none; stroke: #000; stroke-linecap: round; stroke-linejoin: miter;}</style><path d="M0,360L4.86,360L84.86,360L84.86,455.5L79.923,455.14L58.128,459.309L38.155,468.978L21.365,483.486L8.902,501.845L1.616,522.805L0.002,544.936L0.002,510.066L0.002,472.996z"></path><path d="M254.57,0L335.38,0L339.43,0L339.43,113.93L339.43,131.21L339.43,142.65L339.43,170.84L335.967,153.187L326.151,133.152L311.485,116.34L292.968,103.896L271.861,96.67L254.571,95.491z"></path><path d="M169.71,360L174.57,360L254.57,360L254.57,455.5L254.57,720L169.71,720L169.71,530.85L169.71,502.66L169.71,491.22L169.71,473.94L169.71,473z"></path><path d="M0,0L4.86,0L84.86,0L84.86,95.5L84.86,360L4.86,360L0,360L0,113z"></path><path d="M191.07,123.49L207.86,108.982L227.833,99.314L249.628,95.144L254.565,95.504L271.855,96.683L292.962,103.909L311.479,116.353L326.145,133.165L335.961,153.2L339.424,170.853L339.424,360.003L335.374,360.003L254.564,360.003L174.564,360.003L169.704,360.003L169.704,184.943L171.318,162.812L178.604,141.852z"></path><path d="M254.57,360L335.38,360L339.43,360L339.43,473.93L339.43,491.21L339.43,720L335.38,720L254.57,720L254.57,455.5z"></path><path d="M169.71,0L174.57,0L254.57,0L254.57,95.5L249.633,95.14L227.838,99.309L207.865,108.978L191.075,123.486L178.612,141.845L171.326,162.805L169.712,184.936L169.712,150.066L169.712,131.206L169.712,113.926L169.712,112.986z"></path><path d="M84.86,0L165.67,0L169.72,0L169.72,113L169.72,113.94L169.72,131.22L169.72,150.08L169.72,184.95L169.72,360.01L165.67,360.01L84.86,360.01L84.86,95.51z"></path><path d="M21.36,-236.51L38.15,-251.01799999999997L58.123,-260.686L79.918,-264.856L84.855,-264.496L102.145,-263.317L123.252,-256.091L141.769,-243.647L156.435,-226.83499999999998L166.251,-206.79999999999995L169.714,-189.14700000000005L169.714,0.0030000000000427463L165.664,0.0030000000000427463L84.854,0.0030000000000427463L-0.006,0.0030000000000427463L-0.006,-175.05700000000002L1.608,-197.188L8.894,-218.14800000000002z"></path><path d="M360.79,-236.51L377.58,-251.01799999999997L397.553,-260.686L419.348,-264.856L424.285,-264.496L441.575,-263.317L462.682,-256.091L481.199,-243.647L495.865,-226.83499999999998L505.68100000000004,-206.79999999999995L509.144,-189.14700000000005L509.144,0.0030000000000427463L505.094,0.0030000000000427463L424.284,0.0030000000000427463L339.42400000000004,0.0030000000000427463L339.42400000000004,-175.05700000000002L341.038,-197.188L348.324,-218.14800000000002z"></path><path d="M21.36,483.49L38.15,468.982L58.123,459.314L79.918,455.144L84.855,455.504L102.145,456.683L123.252,463.909L141.769,476.353L156.435,493.165L166.251,513.2L169.714,530.853L169.714,720.003L165.664,720.003L84.854,720.003L-0.006,720.003L-0.006,544.943L1.608,522.812L8.894,501.852z"></path><path d="M360.79,483.49L377.58,468.982L397.553,459.314L419.348,455.144L424.285,455.504L441.575,456.683L462.682,463.909L481.199,476.353L495.865,493.165L505.68100000000004,513.2L509.144,530.853L509.144,720.003L505.094,720.003L424.284,720.003L339.42400000000004,720.003L339.42400000000004,544.943L341.038,522.812L348.324,501.852z"></path><path d="M84.86,360L165.67,360L169.72,360L169.72,473L169.72,473.94L169.72,491.22L169.72,502.66L169.72,530.85L166.257,513.197L156.441,493.162L141.775,476.35L123.258,463.906L102.151,456.68L84.861,455.501z"></path></svg>