<svg width="680" height="660" version="1.2" xmlns="http://www.w3.org/2000/svg" viewBox="0 0 680 660"><style type="text/css">path {stroke-width: 1; vector-effect: non-scaling-stroke; fill:none; stroke: #000; stroke-linecap: round; stroke-linejoin: miter;}</style><path d="M320,330L360,330L360,660L320,660z"></path><path d="M360,330L400,330L400,660L360,660z"></path><path d="M240,330L280,330L280,660L240,660z"></path><path d="M280,0L320,0L320,330L280,330z"></path><path d="M80,0L120,0L120,330L80,330z"></path><path d="M560,330L600,330L600,660L560,660z"></path><path d="M0,330L40,330L40,660L0,660L0,495z"></path><path d="M400,0L440,0L440,330L400,330L400,165z"></path><path d="M440,0L480,0L480,330L440,330z"></path><path d="M160,0L200,0L200,330L160,330z"></path><path d="M280,330L320,330L320,660L280,660z"></path><path d="M520,165L560,165L560,330L520,330z"></path><path d="M40,0L80,0L80,330L40,330z"></path><path d="M400,330L440,330L440,660L400,660z"></path><path d="M160,330L200,330L200,660L160,660z"></path><path d="M120,0L160,0L160,330L120,330z"></path><path d="M240,0L280,0L280,330L240,330z"></path><path d="M360,165L400,165L400,330L360,330z"></path><path d="M560,0L600,0L600,330L560,330L560,165z"></path><path d="M480,0L520,0L520,165L520,330L480,330z"></path><path d="M0,0L40,0L40,330L0,330z"></path><path d="M440,330L480,330L480,495L480,660L440,660z"></path><path d="M480,495L520,495L520,660L480,660z"></path><path d="M480,330L520,330L520,495L480,495z"></path><path d="M600,0L640,0L640,330L600,330z"></path><path d="M640,330L680,330L680,495L640,495z"></path><path d="M320,0L360,0L360,165L360,330L320,330z"></path><path d="M40,330L80,330L80,660L40,660z"></path><path d="M80,330L120,330L120,660L80,660z"></path><path d="M360,0L400,0L400,165L360,165z"></path><path d="M200,330L240,330L240,660L200,660z"></path><path d="M640,0L680,0L680,330L640,330z"></path><path d="M200,0L240,0L240,330L200,330z"></path><path d="M120,330L160,330L160,660L120,660z"></path><path d="M600,330L640,330L640,495L640,660L600,660z"></path><path d="M520,0L560,0L560,165L520,165z"></path><path d="M520,330L560,330L560,660L520,660L520,495z"></path><path d="M640,495L680,495L680,660L640,660z"></path></svg>