<svg width="467" height="518" version="1.2" xmlns="http://www.w3.org/2000/svg" viewBox="0 0 467 518"><style type="text/css">path {stroke-width: 1; vector-effect: non-scaling-stroke; fill:none; stroke: #000; stroke-linecap: round; stroke-linejoin: miter;}</style><path d="M395.09,310.08L398.592,308.886L395.996,309.961z"></path><path d="M362.56,314.33L363.139,314.291L362.564,314.367z"></path><path d="M-285.38,-185.01L-284.38800000000003,-185.77100000000002L-280.841,-187.24L-253.743,-198.46499999999997L-253.235,-198.675L-251.56,-198.89600000000002L-227.563,-203.63400000000001L-104.993,-203.63400000000001L-104.43299999999999,-203.63400000000001L-103.858,-203.70999999999998L-71.91399999999999,-207.91500000000002L-71.00099999999998,-208.03500000000003L-68.40499999999997,-209.111L-41.30799999999999,-220.33499999999998L-36,-223.892L-14.786000000000001,-240.171L-13.096000000000004,-241.46699999999998L-9.108000000000004,-246.664L1.2200000000000273,-258.475L142.76300000000003,-149.865L130.49199999999996,-131.55700000000002L119.53800000000001,-99.43299999999999L117.82799999999997,-73.89100000000002L118.957,-57.02800000000002L122.23000000000002,-40.44799999999998L123.846,-32.26600000000002L127.68700000000001,-24.449000000000012L135.14099999999996,-9.281999999999982L138.81899999999996,-1.7970000000000255L142.44600000000003,2.350999999999999L72.70299999999997,55.86699999999996L0.4359999999999786,111.31899999999996L-13.084000000000003,93.69899999999996L-39.83600000000001,73.17200000000003L-70.98899999999998,60.26700000000005L-104.42099999999999,55.865999999999985L-210.911,55.865999999999985L-219.232,55.30899999999997L-244.775,53.599000000000046L-276.899,42.644000000000005L-305.092,23.749000000000024L-327.435,-1.7999999999999545L-342.404,-32.25999999999999L-348.979,-65.55700000000002L-348.422,-73.87900000000002L-346.712,-99.42200000000003L-335.757,-131.54500000000002L-324.884,-147.769L-316.86699999999996,-159.731L-312.283,-163.74L-306.6,-168.70999999999998z"></path><path d="M181.62,-185.01L182.612,-185.77100000000002L186.159,-187.24L213.257,-198.46499999999997L213.765,-198.675L215.44,-198.89600000000002L239.437,-203.63400000000001L362.007,-203.63400000000001L362.567,-203.63400000000001L363.142,-203.70999999999998L395.086,-207.91500000000002L395.999,-208.03500000000003L398.595,-209.111L425.692,-220.33499999999998L431,-223.892L452.214,-240.171L453.904,-241.46699999999998L457.892,-246.664L468.22,-258.475L609.763,-149.865L597.492,-131.55700000000002L586.538,-99.43299999999999L584.828,-73.89100000000002L585.957,-57.02800000000002L589.23,-40.44799999999998L590.846,-32.26600000000002L594.687,-24.449000000000012L602.141,-9.281999999999982L605.819,-1.7970000000000255L609.446,2.350999999999999L539.703,55.86699999999996L467.436,111.31899999999996L453.916,93.69899999999996L427.164,73.17200000000003L396.011,60.26700000000005L362.579,55.865999999999985L256.089,55.865999999999985L247.768,55.30899999999997L222.225,53.599000000000046L190.101,42.644000000000005L161.908,23.749000000000024L139.565,-1.7999999999999545L124.596,-32.25999999999999L118.021,-65.55700000000002L118.578,-73.87900000000002L120.288,-99.42200000000003L131.243,-131.54500000000002L142.116,-147.769L150.133,-159.731L154.717,-163.74L160.4,-168.70999999999998z"></path><path d="M-285.38,332.99L-284.38800000000003,332.229L-280.841,330.76L-253.743,319.535L-253.235,319.325L-251.56,319.104L-227.563,314.366L-104.993,314.366L-104.43299999999999,314.366L-103.858,314.29L-71.91399999999999,310.085L-71.00099999999998,309.965L-68.40499999999997,308.889L-41.30799999999999,297.665L-36,294.108L-14.786000000000001,277.829L-13.096000000000004,276.533L-9.108000000000004,271.336L1.2200000000000273,259.525L142.76300000000003,368.135L130.49199999999996,386.443L119.53800000000001,418.567L117.82799999999997,444.109L118.957,460.972L122.23000000000002,477.552L123.846,485.734L127.68700000000001,493.551L135.14099999999996,508.718L138.81899999999996,516.203L142.44600000000003,520.351L72.70299999999997,573.867L0.4359999999999786,629.319L-13.084000000000003,611.699L-39.83600000000001,591.172L-70.98899999999998,578.267L-104.42099999999999,573.866L-210.911,573.866L-219.232,573.309L-244.775,571.599L-276.899,560.644L-305.092,541.749L-327.435,516.2L-342.404,485.74L-348.979,452.443L-348.422,444.121L-346.712,418.578L-335.757,386.455L-324.884,370.231L-316.86699999999996,358.269L-312.283,354.26L-306.6,349.29z"></path><path d="M181.62,332.99L182.612,332.229L186.159,330.76L213.257,319.535L213.765,319.325L215.44,319.104L239.437,314.366L362.007,314.366L362.567,314.366L363.142,314.29L395.086,310.085L395.999,309.965L398.595,308.889L425.692,297.665L431,294.108L452.214,277.829L453.904,276.533L457.892,271.336L468.22,259.525L609.763,368.135L597.492,386.443L586.538,418.567L584.828,444.109L585.957,460.972L589.23,477.552L590.846,485.734L594.687,493.551L602.141,508.718L605.819,516.203L609.446,520.351L539.703,573.867L467.436,629.319L453.916,611.699L427.164,591.172L396.011,578.267L362.579,573.866L256.089,573.866L247.768,573.309L222.225,571.599L190.101,560.644L161.908,541.749L139.565,516.2L124.596,485.74L118.021,452.443L118.578,444.121L120.288,418.578L131.243,386.455L142.116,370.231L150.133,358.269L154.717,354.26L160.4,349.29z"></path><path d="M-467,109.22L-324.664,0.002L-311.144,17.622L-284.392,38.15L-253.239,51.054L-219.807,55.455L-96.68700000000001,55.455L-72.69099999999997,60.194L-70.51299999999998,60.624L-43.41500000000002,71.848L-38.874000000000024,74.08L-17.660000000000025,90.358L-11.975999999999999,95.328L3.011000000000024,114.86L8.317000000000007,122.777L17.168000000000006,144.146L20.673999999999978,154.425L23.591000000000008,176.584L24.166999999999973,185.194L24.355000000000018,187.998L21.437999999999988,210.157L20.32299999999998,218.624L19.259000000000015,221.192L10.408000000000015,242.562L5.869000000000028,251.797L3.184000000000026,257.263L1.2019999999999982,259.528L-9.12700000000001,271.339L-13.113999999999976,276.536L-14.803999999999974,277.832L-36.01799999999997,294.111L-41.32600000000002,297.668L-68.42399999999998,308.892L-71.92599999999999,310.086L-103.87,314.292L-104.44900000000001,314.331L-105.007,314.368L-227.577,314.368L-251.574,319.106L-253.25,319.327L-253.758,319.538L-280.855,330.762L-284.403,332.231L-285.394,332.992L-306.60900000000004,349.27L-312.29200000000003,354.241L-316.876,358.25L-324.89300000000003,370.212L-396.946,314.924L-466.689,261.408L-463.062,257.26L-459.384,249.775L-451.93,234.607L-448.089,226.79L-446.473,218.608L-443.199,202.028L-442.071,185.166L-443.781,159.623L-454.735,127.5z"></path><path d="M0,109.22L142.336,0.002L155.856,17.622L182.608,38.15L213.761,51.054L247.193,55.455L370.313,55.455L394.309,60.194L396.487,60.624L423.585,71.848L428.126,74.08L449.34,90.358L455.024,95.328L470.011,114.86L475.317,122.777L484.168,144.146L487.674,154.425L490.591,176.584L491.167,185.194L491.355,187.998L488.438,210.157L487.323,218.624L486.259,221.192L477.408,242.562L472.869,251.797L470.184,257.263L468.202,259.528L457.873,271.339L453.886,276.536L452.196,277.832L430.982,294.111L425.674,297.668L398.576,308.892L395.074,310.086L363.13,314.292L362.551,314.331L361.993,314.368L239.423,314.368L215.426,319.106L213.75,319.327L213.242,319.538L186.145,330.762L182.597,332.231L181.606,332.992L160.391,349.27L154.708,354.241L150.124,358.25L142.107,370.212L70.054,314.924L0.311,261.408L3.938,257.26L7.616,249.775L15.07,234.607L18.911,226.79L20.527,218.608L23.801,202.028L24.929,185.166L23.219,159.623L12.265,127.5z"></path></svg>