<svg width="900" height="900" version="1.2" xmlns="http://www.w3.org/2000/svg" viewBox="0 0 900 900"><style type="text/css">path {stroke-width: 1; vector-effect: non-scaling-stroke; fill:none; stroke: #000; stroke-linecap: round; stroke-linejoin: miter;}</style><path d="M0,450L225,450L225,225L336,225L450,449.998L224.959,899.983L-0.041,899.983z"></path><path d="M900,450L1125,450L1125,225L1236,225L1350,449.998L1124.959,899.983L899.959,899.983z"></path><path d="M900,450L900,900L675,900z"></path><path d="M450,450L564,674.998L675,674.998L675,449.998L900,449.998L674.959,899.983L224.959,899.983z"></path><path d="M225,0L675,0L449.959,449.985L335.959,224.987L224.959,224.987L224.959,449.987L-0.041,449.987z"></path><path d="M1125,0L1575,0L1349.959,449.985L1235.959,224.987L1124.959,224.987L1124.959,449.987L899.959,449.987z"></path><path d="M0,0L225,0L-0.041,449.985z"></path><path d="M900,0L1125,0L899.959,449.985z"></path><path d="M675,0L900,0L900,450L675,450L675,675L564,675L450,450.002z"></path></svg>