<svg width="420" height="420" version="1.2" xmlns="http://www.w3.org/2000/svg" viewBox="0 0 420 420"><style type="text/css">path {stroke-width: 1; vector-effect: non-scaling-stroke; fill:none; stroke: #000; stroke-linecap: round; stroke-linejoin: miter;}</style><path d="M0,0L167.57,167.57L125.144,209.997L0,84.853z"></path><path d="M294.85,210L419.994,335.144L419.994,419.994L252.424,252.424z"></path><path d="M420,84.85L420,335.14L360.002,275.142L360.002,144.852z"></path><path d="M360,144.85L360,275.14L294.854,209.994z"></path><path d="M60,144.85L125.146,209.996L60,275.141z"></path><path d="M0,84.85L-335.147,419.997L-419.997,419.997L0.002999999999985903,-0.003z"></path><path d="M420,84.85L84.853,419.997L0.003,419.997L420.003,-0.003z"></path><path d="M0,504.85L-335.147,839.9970000000001L-419.997,839.9970000000001L0.002999999999985903,419.997z"></path><path d="M420,504.85L84.853,839.9970000000001L0.003,839.9970000000001L420.003,419.997z"></path><path d="M144.85,60L275.14,60L209.994,125.146z"></path><path d="M84.85,0L335.14,0L275.142,59.998L144.852,59.998z"></path><path d="M0,0L84.85,0L209.994,125.144L167.567,167.57z"></path><path d="M335.15,0L420,0L0,420L0,335.15z"></path><path d="M0,84.85L59.998,144.848L59.998,275.138L0,335.136z"></path><path d="M144.85,360L275.14,360L335.138,419.998L84.848,419.998z"></path><path d="M144.85,360L209.996,294.854L275.141,360z"></path><path d="M252.43,252.43L420,420L335.15,420L210.006,294.856z"></path></svg>