<svg width="92.82" height="284.29" version="1.2" xmlns="http://www.w3.org/2000/svg" viewBox="0 0 92.82 284.29"><style type="text/css">path {stroke-width: 1; vector-effect: non-scaling-stroke; fill:none; stroke: #000; stroke-linecap: round; stroke-linejoin: miter;}</style><path d="M-46.41,95.27L0.0020000000000095497,142.138L-46.41,189.006L-92.82199999999999,142.138z"></path><path d="M46.41,95.27L92.822,142.138L46.41,189.006L-0.002,142.138z"></path><path d="M139.23,95.27L185.642,142.138L139.23,189.006L92.818,142.138z"></path><path d="M92.82,142.14L92.82,284.28L46.41,284.28L46.41,189.01z"></path><path d="M0,142.14L46.412,189.008L46.412,284.278L0.002,284.278z"></path><path d="M46.41,0L92.82,0L92.82,142.14L46.408,95.272z"></path><path d="M0,0L46.41,0L46.41,95.27L-0.002,142.138z"></path><path d="M92.82,0L139.23,0L139.23,95.27L92.818,142.138z"></path></svg>