<svg width="900" height="900" version="1.2" xmlns="http://www.w3.org/2000/svg" viewBox="0 0 900 900"><style type="text/css">path {stroke-width: 1; vector-effect: non-scaling-stroke; fill:none; stroke: #000; stroke-linecap: round; stroke-linejoin: miter;}</style><path d="M0,0L600,0L450.039,450.011L0.028,599.972z"></path><path d="M0,-300L450.011,-449.961L300.051,0.051000000000044565L0.051,0.051000000000044565z"></path><path d="M0,600L450.011,450.039L300.051,900.051L0.051,900.051z"></path><path d="M-450,-450L0.010999999999967258,-599.961L0.010999999999967258,0.03899999999998727L-599.989,0.03899999999998727z"></path><path d="M450,-450L900.011,-599.961L900.011,0.03899999999998727L300.011,0.03899999999998727z"></path><path d="M-450,450L0.010999999999967258,300.039L0.010999999999967258,900.039L-599.989,900.039z"></path><path d="M450,450L900.011,300.039L900.011,900.039L300.011,900.039z"></path><path d="M600,0L900,0L900,300L449.989,449.961z"></path></svg>