<svg width="400" height="400" version="1.2" xmlns="http://www.w3.org/2000/svg" viewBox="0 0 400 400"><style type="text/css">path {stroke-width: 1; vector-effect: non-scaling-stroke; fill:none; stroke: #000; stroke-linecap: round; stroke-linejoin: miter;}</style><path d="M5.75,93.63L95,5.001L95,193.681z"></path><path d="M95,0L105,0L105,5L105,5.66L105,194.34L105,195L105,200L95,200L95,193.68L95,5z"></path><path d="M105,0L200,0L200,200L105,200L105,195L105,194.34L194.24,94.285L104.99,5.656L104.99,4.996z"></path><path d="M0,0L95,0L95,5L5.75,93.629L94.99,193.684L94.99,200.004L-0.01,200.004z"></path><path d="M400,0L495,0L495,5L405.75,93.629L494.99,193.684L494.99,200.004L399.99,200.004z"></path><path d="M105,205.66L124.591,208.239L147.503,217.73L167.178,232.827L182.276,252.502L191.766,275.414L195.003,300.002L191.766,324.59L182.276,347.502L167.178,367.177L147.503,382.275L124.591,391.765L105,394.344z"></path><path d="M105,5.66L194.25,94.289L105.01,194.344z"></path><path d="M32.82,232.82L52.495,217.723L75.407,208.232L94.998,205.653L94.998,394.333L75.407,391.754L52.495,382.263L32.82,367.166L17.723,347.491L8.232,324.579L4.995,299.991L8.232,275.403L17.723,252.491z"></path><path d="M0,-200L95,-200L95,-195L95,-194.34L75.409,-191.761L52.497,-182.27L32.822,-167.173L17.724,-147.498L8.234,-124.58600000000001L4.997,-99.99799999999999L8.234,-75.41000000000003L17.724,-52.49799999999999L32.822,-32.82299999999998L52.497,-17.725000000000023L75.409,-8.235000000000014L95,-5.656000000000006L95,-4.995999999999981L95,0.004000000000019099L0,0.004000000000019099z"></path><path d="M0,200L95,200L95,205L95,205.66L75.409,208.239L52.497,217.73L32.822,232.827L17.724,252.502L8.234,275.414L4.997,300.002L8.234,324.59L17.724,347.502L32.822,367.177L52.497,382.275L75.409,391.765L95,394.344L95,395.004L95,400.004L0,400.004z"></path><path d="M205.75,293.63L295,205.001L295,393.681z"></path><path d="M200,0L295,0L295,5L295,5.66L275.409,8.239L252.497,17.73L232.822,32.827L217.724,52.502L208.234,75.414L204.997,100.002L208.234,124.59L217.724,147.502L232.822,167.177L252.497,182.275L275.409,191.765L295,194.344L295,195.004L295,200.004L200,200.004z"></path><path d="M295,0L305,0L305,5L305,5.66L305,194.34L305,195L305,200L295,200L295,195L295,194.34L295,5.66L295,5z"></path><path d="M232.82,32.82L252.495,17.723L275.407,8.232L294.998,5.653L294.998,194.333L275.407,191.754L252.495,182.263L232.82,167.166L217.723,147.491L208.232,124.579L204.995,99.991L208.232,75.403L217.723,52.491z"></path><path d="M305,0L400,0L400,200L305,200L305,195L305,194.34L324.591,191.761L347.503,182.27L367.178,167.173L382.276,147.498L391.766,124.586L395.003,99.998L391.766,75.41L382.276,52.498L367.178,32.823L347.503,17.725L324.591,8.235L305,5.656L305,4.996z"></path><path d="M305,205.66L394.25,294.289L305.01,394.344z"></path><path d="M305,5.66L324.591,8.239L347.503,17.73L367.178,32.827L382.276,52.502L391.766,75.414L395.003,100.002L391.766,124.59L382.276,147.502L367.178,167.177L347.503,182.275L324.591,191.765L305,194.344z"></path><path d="M95,200L105,200L105,205L105,205.66L105,394.34L105,395L105,400L95,400L95,395L95,394.34L95,205.66L95,205z"></path><path d="M200,-200L295,-200L295,-195L205.75,-106.37099999999998L294.99,-6.315999999999974L294.99,0.004000000000019099L199.99,0.004000000000019099z"></path><path d="M200,200L295,200L295,205L205.75,293.629L294.99,393.684L294.99,400.004L199.99,400.004z"></path><path d="M305,200L400,200L400,400L305,400L305,395L305,394.34L394.24,294.285L304.99,205.656L304.99,204.996z"></path><path d="M295,200L305,200L305,205L305,205.66L305,394.34L305,395L305,400L295,400L295,393.68L295,205z"></path><path d="M105,200L200,200L200,400L105,400L105,395L105,394.34L124.591,391.761L147.503,382.27L167.178,367.173L182.276,347.498L191.766,324.586L195.003,299.998L191.766,275.41L182.276,252.498L167.178,232.823L147.503,217.725L124.591,208.235L105,205.656L105,204.996z"></path></svg>