<svg width="250" height="250" version="1.2" xmlns="http://www.w3.org/2000/svg" viewBox="0 0 250 250"><style type="text/css">path {stroke-width: 1; vector-effect: non-scaling-stroke; fill:none; stroke: #000; stroke-linecap: round; stroke-linejoin: miter;}</style><path d="M125,-125L125,0L125,125L62.491,0.00899999999998613z"></path><path d="M125,125L125,250L125,375L62.491,250.009z"></path><path d="M250,0L250,250L187.491,125.009z"></path><path d="M-62.5,125L0.00899999999998613,249.991L-124.991,249.991z"></path><path d="M187.5,125L250.009,249.991L125.009,249.991z"></path><path d="M125,0L250,0L187.491,124.991L124.982,249.982L124.982,124.982z"></path><path d="M62.5,0L125.009,124.99099999999999L0.009,124.99099999999999z"></path><path d="M0,-125L125,-125L62.491,-0.00899999999998613L-0.018,124.98200000000003z"></path><path d="M250,-125L375,-125L312.491,-0.00899999999998613L249.982,124.98200000000003z"></path><path d="M0,125L125,125L62.491,249.991L-0.018,374.982z"></path><path d="M250,125L375,125L312.491,249.991L249.982,374.982z"></path></svg>