<svg width="350" height="360" version="1.2" xmlns="http://www.w3.org/2000/svg" viewBox="0 0 350 360"><style type="text/css">path {stroke-width: 1; vector-effect: non-scaling-stroke; fill:none; stroke: #000; stroke-linecap: round; stroke-linejoin: miter;}</style><path d="M0,90L85.79,90L175.79,90L260,90L260,180L0,180z"></path><path d="M0,180L260,180L260,270L0,270z"></path><path d="M260,90L350,90L350,360L261.58,360L260,360L260,270L260,180z"></path><path d="M0,270L260,270L260,360L0,360z"></path><path d="M85.79,0L175.79,0L175.79,90L85.79,90z"></path><path d="M-174.21,0L-88.42000000000002,0L1.579999999999984,0L85.79000000000002,0L85.79000000000002,90L0,90L-90,90L-174.21,90z"></path><path d="M175.79,0L261.58,0L351.58,0L435.79,0L435.79,90L350,90L260,90L175.79,90z"></path></svg>