<svg width="300" height="480" version="1.2" xmlns="http://www.w3.org/2000/svg" viewBox="0 0 300 480"><style type="text/css">path {stroke-width: 1; vector-effect: non-scaling-stroke; fill:none; stroke: #000; stroke-linecap: round; stroke-linejoin: miter;}</style><path d="M75,23.73L112.504,0.002L150.004,0.002L150.004,240.002L37.504,240.002L75.009,216.275z"></path><path d="M37.5,240L150,240L150,480L112.5,480L74.996,456.272L74.996,263.722z"></path><path d="M0,-240L37.5,-240L75.004,-216.272L75.004,-23.72199999999998L112.509,0.0049999999999954525L0.009,0.0049999999999954525z"></path><path d="M0,240L37.5,240L75.004,263.728L75.004,456.278L112.509,480.005L0.009,480.005z"></path><path d="M150,0L187.5,0L225.004,23.728L225.004,216.278L262.509,240.005L150.009,240.005z"></path><path d="M0,0L112.5,0L74.996,23.728L74.996,216.278L37.491,240.005L-0.009,240.005z"></path><path d="M300,0L412.5,0L374.996,23.728L374.996,216.278L337.491,240.005L299.991,240.005z"></path><path d="M187.5,0L300,0L300,240L262.5,240L224.996,216.272L224.996,23.722z"></path><path d="M150,-240L262.5,-240L224.996,-216.272L224.996,-23.72199999999998L187.491,0.0049999999999954525L149.991,0.0049999999999954525z"></path><path d="M150,240L262.5,240L224.996,263.728L224.996,456.278L187.491,480.005L149.991,480.005z"></path><path d="M-75,-216.26999999999998L-37.49599999999998,-239.998L0.004000000000019099,-239.998L0.004000000000019099,0.0020000000000095497L-112.49600000000001,0.0020000000000095497L-74.99100000000001,-23.725000000000023z"></path><path d="M225,-216.26999999999998L262.504,-239.998L300.004,-239.998L300.004,0.0020000000000095497L187.504,0.0020000000000095497L225.009,-23.725000000000023z"></path><path d="M-75,263.73L-37.49599999999998,240.002L0.004000000000019099,240.002L0.004000000000019099,480.002L-112.49600000000001,480.002L-74.99100000000001,456.275z"></path><path d="M225,263.73L262.504,240.002L300.004,240.002L300.004,480.002L187.504,480.002L225.009,456.275z"></path></svg>