<svg width="783.96" height="783.96" version="1.2" xmlns="http://www.w3.org/2000/svg" viewBox="0 0 783.96 783.96"><style type="text/css">path {stroke-width: 1; vector-effect: non-scaling-stroke; fill:none; stroke: #000; stroke-linecap: round; stroke-linejoin: miter;}</style><path d="M0,0L128.847,196.002L0,392.004z"></path><path d="M783.96,0L783.96,391.98L655.113,195.978z"></path><path d="M0,0L263.12,0L391.967,196.002L128.847,196.002z"></path><path d="M520.84,391.98L783.96,391.98L655.113,587.982L391.993,587.982z"></path><path d="M0,391.98L263.12,391.98L391.967,587.982L128.847,587.982z"></path><path d="M128.86,195.99L391.98,195.99L263.133,391.992L0.013,391.992z"></path><path d="M391.98,195.99L655.1,195.99L783.947,391.992L520.827,391.992z"></path><path d="M0,-391.98L128.847,-195.97800000000007L0,0.02400000000000091z"></path><path d="M0,391.98L128.847,587.982L0,783.984z"></path><path d="M391.98,-195.99L655.1,-195.99L783.947,0.011999999999943611L520.827,0.011999999999943611z"></path><path d="M391.98,587.97L655.1,587.97L783.947,783.972L520.827,783.972z"></path><path d="M520.84,0L783.96,0L655.113,196.002L391.993,196.002z"></path><path d="M128.86,-195.99L391.98,-195.99L263.133,0.011999999999943611L0.013,0.011999999999943611z"></path><path d="M128.86,587.97L391.98,587.97L263.133,783.972L0.013,783.972z"></path><path d="M391.98,-587.97L520.827,-391.968L391.98,-195.966L520.827,0.03599999999994452L263.107,0.03599999999994452L391.954,-195.966L263.107,-391.968z"></path><path d="M391.98,195.99L520.827,391.992L391.98,587.994L520.827,783.996L263.107,783.996L391.954,587.994L263.107,391.992z"></path><path d="M263.12,0L520.84,0L391.993,196.002z"></path><path d="M783.96,391.98L783.96,783.96L655.113,587.958z"></path></svg>