<svg width="485" height="560" version="1.2" xmlns="http://www.w3.org/2000/svg" viewBox="0 0 485 560"><style type="text/css">path {stroke-width: 1; vector-effect: non-scaling-stroke; fill:none; stroke: #000; stroke-linecap: round; stroke-linejoin: miter;}</style><path d="M0,344.94L65.004,307.41L112.488,279.995L177.492,317.525L0.009,419.995z"></path><path d="M242.49,484.94L307.494,447.41L307.494,447.47L354.98,419.999L419.984,457.529L242.501,559.999z"></path><path d="M307.49,317.53L372.494,280L419.978,307.415L484.982,344.945L484.982,420.005z"></path><path d="M307.49,317.53L484.973,420L419.969,457.53L354.966,420L307.481,392.585z"></path><path d="M0,140L65.004,177.53L65.004,252.59L65.004,307.42L0,344.95z"></path><path d="M242.49,0L307.494,37.53L307.494,112.59L307.494,167.42L242.49,204.95z"></path><path d="M242.49,280L419.973,177.53L419.973,252.59L372.489,280.005L307.485,317.535z"></path><path d="M242.49,280L307.494,317.53L307.494,392.59L307.494,447.42L242.49,484.95z"></path><path d="M65,177.53L242.483,280L177.479,317.53L112.476,280L64.991,252.585z"></path><path d="M177.49,37.53L242.494,0L242.494,204.94L177.49,167.41L177.49,112.58z"></path><path d="M177.49,317.53L242.494,280L242.494,484.94L177.49,447.41L177.49,392.58z"></path><path d="M65,-102.47000000000003L130.004,-140L177.488,-112.58499999999998L242.492,-75.055L242.492,0.0049999999999954525z"></path><path d="M65,457.53L130.004,420L177.488,447.415L242.492,484.945L242.492,560.005z"></path><path d="M242.49,204.94L307.494,167.41L354.978,139.995L419.982,177.525L242.499,279.995z"></path><path d="M65,177.53L130.004,140L177.488,167.415L242.492,204.945L242.492,280.005z"></path><path d="M0,140L177.483,37.53L177.483,112.59L129.999,140.005L64.995,177.535z"></path><path d="M419.97,177.53L484.974,140L484.974,344.94L419.97,307.41L419.97,252.58z"></path><path d="M0,420L177.483,317.53L177.483,392.59L129.999,420.005L64.995,457.535z"></path><path d="M307.49,37.53L484.973,140L419.969,177.53L354.966,140L307.481,112.585z"></path><path d="M65,252.58L112.484,279.995L65,307.41z"></path><path d="M130,140L177.484,112.585L177.484,167.415z"></path><path d="M307.49,112.58L354.974,139.995L307.49,167.41z"></path><path d="M372.49,280L419.974,252.585L419.974,307.415z"></path><path d="M307.52,447.39L354.97,419.995L307.483,447.466L307.483,447.406z"></path><path d="M307.49,392.58L354.974,419.995L307.525,447.39L307.49,447.41z"></path><path d="M130,420L177.484,392.585L177.484,447.415z"></path><path d="M372.49,0L419.974,-27.414999999999964L419.974,27.414999999999964z"></path><path d="M372.49,560L419.974,532.585L419.974,587.415z"></path><path d="M64.97000000000003,-27.41999999999996L112.45399999999995,-0.0049999999999954525L64.97000000000003,27.409999999999968z"></path><path d="M64.97000000000003,532.58L112.45399999999995,559.995L64.97000000000003,587.41z"></path><path d="M-0.029999999999972715,-140L64.97400000000005,-102.47000000000003L64.97400000000005,-27.409999999999968L64.97400000000005,27.41999999999996L-0.029999999999972715,64.95000000000005z"></path><path d="M484.97,-140L549.974,-102.47000000000003L549.974,-27.409999999999968L549.974,27.41999999999996L484.97,64.95000000000005z"></path><path d="M-0.029999999999972715,420L64.97400000000005,457.53L64.97400000000005,532.59L64.97400000000005,587.42L-0.029999999999972715,624.95z"></path><path d="M484.97,420L549.974,457.53L549.974,532.59L549.974,587.42L484.97,624.95z"></path><path d="M419.97,-102.47000000000003L484.974,-140L484.974,64.94000000000005L419.97,27.409999999999968L419.97,-27.41999999999996z"></path><path d="M419.97,457.53L484.974,420L484.974,624.94L419.97,587.41L419.97,532.58z"></path><path d="M-0.029999999999972715,64.94000000000005L64.97400000000005,27.409999999999968L112.45799999999997,-0.0049999999999954525L177.462,37.52499999999998L-0.021000000000015007,139.995z"></path><path d="M484.97,64.94000000000005L549.974,27.409999999999968L597.458,-0.0049999999999954525L662.462,37.52499999999998L484.979,139.995z"></path><path d="M-0.029999999999972715,624.94L64.97400000000005,587.41L112.45799999999997,559.995L177.462,597.525L-0.021000000000015007,699.995z"></path><path d="M484.97,624.94L549.974,587.41L597.458,559.995L662.462,597.525L484.979,699.995z"></path><path d="M307.49,37.52999999999997L372.494,0L419.978,27.414999999999964L484.982,64.94500000000005L484.982,140.005z"></path><path d="M242.49,0L419.973,-102.47000000000003L419.973,-27.409999999999968L372.489,0.0049999999999954525L307.485,37.53499999999997z"></path><path d="M242.49,560L419.973,457.53L419.973,532.59L372.489,560.005L307.485,597.535z"></path><path d="M64.97000000000003,-102.47000000000003L242.45299999999997,0L177.44899999999996,37.52999999999997L112.44500000000005,0L64.96100000000001,-27.414999999999964z"></path><path d="M64.97000000000003,457.53L242.45299999999997,560L177.44899999999996,597.53L112.44500000000005,560L64.96100000000001,532.585z"></path></svg>