<svg width="391" height="261" version="1.2" xmlns="http://www.w3.org/2000/svg" viewBox="0 0 391 261"><style type="text/css">path {stroke-width: 1; vector-effect: non-scaling-stroke; fill:none; stroke: #000; stroke-linecap: round; stroke-linejoin: miter;}</style><path d="M43.45,0L86.9,0L86.9,43.45L43.45,43.45z"></path><path d="M86.9,0L130.35,0L130.35,43.45L86.9,43.45z"></path><path d="M0,0L43.45,0L43.45,43.45L0,43.45z"></path><path d="M0,173.8L43.45,173.8L86.9,173.8L86.9,260.7L0,260.7z"></path><path d="M86.9,173.8L130.35,173.8L130.35,217.25L130.35,260.7L86.9,260.7z"></path><path d="M0,43.45L43.45,43.45L43.45,130.35L0,130.35z"></path><path d="M43.45,43.45L86.9,43.45L130.35,43.45L130.35,86.9L130.35,130.35L86.9,130.35L43.45,130.35z"></path><path d="M43.45,130.35L86.9,130.35L86.9,173.8L43.45,173.8z"></path><path d="M86.9,130.35L130.35,130.35L130.35,173.8L86.9,173.8z"></path><path d="M0,130.35L43.45,130.35L43.45,173.8L0,173.8z"></path><path d="M130.35,0L173.8,0L173.8,86.9L130.35,86.9L130.35,43.45z"></path><path d="M173.8,0L260.7,0L260.7,86.9L217.25,86.9L173.8,86.9z"></path><path d="M173.8,86.9L217.25,86.9L217.25,130.35L173.8,130.35z"></path><path d="M217.25,86.9L260.7,86.9L260.7,130.35L217.25,130.35z"></path><path d="M130.35,86.9L173.8,86.9L173.8,130.35L130.35,130.35z"></path><path d="M217.25,130.35L260.7,130.35L260.7,217.25L217.25,217.25z"></path><path d="M130.35,130.35L173.8,130.35L217.25,130.35L217.25,217.25L173.8,217.25L130.35,217.25L130.35,173.8z"></path><path d="M173.8,217.25L217.25,217.25L217.25,260.7L173.8,260.7z"></path><path d="M130.35,217.25L173.8,217.25L173.8,260.7L130.35,260.7z"></path><path d="M217.25,217.25L260.7,217.25L260.7,260.7L217.25,260.7z"></path><path d="M-43.39999999999998,130.35L0.05000000000001137,130.35L0.05000000000001137,217.25L-43.39999999999998,217.25z"></path><path d="M347.6,130.35L391.05,130.35L391.05,217.25L347.6,217.25z"></path><path d="M260.7,130.35L304.15,130.35L347.6,130.35L347.6,217.25L304.15,217.25L260.7,217.25z"></path><path d="M304.15,217.25L347.6,217.25L347.6,260.7L304.15,260.7z"></path><path d="M260.7,217.25L304.15,217.25L304.15,260.7L260.7,260.7z"></path><path d="M-43.39999999999998,217.25L0.05000000000001137,217.25L0.05000000000001137,260.7L-43.39999999999998,260.7z"></path><path d="M347.6,217.25L391.05,217.25L391.05,260.7L347.6,260.7z"></path><path d="M260.7,0L304.15,0L304.15,86.9L260.7,86.9z"></path><path d="M-86.85000000000002,0L0.05000000000001137,0L0.05000000000001137,86.9L-43.39999999999998,86.9L-86.85000000000002,86.9z"></path><path d="M304.15,0L391.05,0L391.05,86.9L347.6,86.9L304.15,86.9z"></path><path d="M304.15,86.9L347.6,86.9L347.6,130.35L304.15,130.35z"></path><path d="M-43.39999999999998,86.9L0.05000000000001137,86.9L0.05000000000001137,130.35L-43.39999999999998,130.35z"></path><path d="M347.6,86.9L391.05,86.9L391.05,130.35L347.6,130.35z"></path><path d="M260.7,86.9L304.15,86.9L304.15,130.35L260.7,130.35z"></path></svg>