<svg width="318.08" height="318.08" version="1.2" xmlns="http://www.w3.org/2000/svg" viewBox="0 0 318.08 318.08"><style type="text/css">path {stroke-width: 1; vector-effect: non-scaling-stroke; fill:none; stroke: #000; stroke-linecap: round; stroke-linejoin: miter;}</style><path d="M157.04,-50.079999999999984L266.04,-50.079999999999984L317.995,-0.117999999999995L266.04,49.84500000000003L157.04,49.84500000000003z"></path><path d="M157.04,268L266.04,268L317.995,317.962L266.04,367.925L157.04,367.925z"></path><path d="M157.04,267.96L266.04,267.96L266.04,268L157.04,268z"></path><path d="M48.04,-50.120000000000005L48.04,-50.079999999999984L157.04,-50.079999999999984L157.04,49.84000000000003L48.04,49.84000000000003L-0.002,-0.117999999999995z"></path><path d="M366.12,-50.120000000000005L366.12,-50.079999999999984L475.12,-50.079999999999984L475.12,49.84000000000003L366.12,49.84000000000003L318.078,-0.117999999999995z"></path><path d="M48.04,267.96L48.04,268L157.04,268L157.04,367.92L48.04,367.92L-0.002,317.962z"></path><path d="M366.12,267.96L366.12,268L475.12,268L475.12,367.92L366.12,367.92L318.078,317.962z"></path><path d="M48.04,267.96L157.04,267.96L266.04,267.96L266.04,268L157.04,268L48.04,268z"></path><path d="M48.04,50L157.04,50L266.04,50L266.04,159L266.04,267.96L157.04,267.96L48.04,267.96z"></path><path d="M48.04,267.96L157.04,267.96L157.04,268L48.04,268z"></path><path d="M266.04,267.96L317.999,317.961L266.044,267.999z"></path><path d="M-52.039999999999964,50L-0.08499999999997954,0.038L47.956999999999994,49.996L47.956999999999994,158.996L-52.043000000000006,158.996z"></path><path d="M266.04,50L317.995,0.038L366.037,49.996L366.037,158.996L266.037,158.996z"></path><path d="M-52.07999999999993,159L47.92000000000007,159L47.92000000000007,268L-0.12199999999995725,317.958L-52.08100000000002,267.957z"></path><path d="M266.00000000000006,159L366.00000000000006,159L366.00000000000006,268L317.958,317.958L265.99899999999997,267.957z"></path><path d="M-52.07999999999993,50L-0.125,0.038L47.91700000000003,49.996L47.91700000000003,158.996L-52.08299999999997,158.996z"></path><path d="M266.00000000000006,50L317.955,0.038L365.997,49.996L365.997,158.996L265.997,158.996z"></path><path d="M-52.039999999999964,159L47.960000000000036,159L47.960000000000036,268L-0.08199999999999363,317.958L-52.041,267.957z"></path><path d="M266.04,159L366.04,159L366.04,268L317.998,317.958L266.039,267.957z"></path><path d="M266.00000000000006,267.96L317.959,317.961L266.00399999999996,267.999z"></path><path d="M157,-50.079999999999984L266.00000000000006,-50.079999999999984L317.955,-0.117999999999995L266.00000000000006,49.84500000000003L157,49.84500000000003z"></path><path d="M157,268L266.00000000000006,268L317.955,317.962L266.00000000000006,367.925L157,367.925z"></path><path d="M48,50L157,50L266.00000000000006,50L266.00000000000006,159L266.00000000000006,267.96L157,267.96L48,267.96z"></path><path d="M48,267.96L157,267.96L266.00000000000006,267.96L266.00000000000006,268L157,268L48,268z"></path><path d="M157,267.96L266.00000000000006,267.96L266.00000000000006,268L157,268z"></path><path d="M47.960000000000036,-50.079999999999984L48.00300000000004,-50.12199999999996L48.00300000000004,-50.081999999999994L157.00300000000004,-50.081999999999994L157.00300000000004,49.83800000000002L48.00300000000004,49.83800000000002L-0.03899999999998727,-0.12000000000000455z"></path><path d="M366.04,-50.079999999999984L366.083,-50.12199999999996L366.083,-50.081999999999994L475.083,-50.081999999999994L475.083,49.83800000000002L366.083,49.83800000000002L318.041,-0.12000000000000455z"></path><path d="M47.960000000000036,268L48.00300000000004,267.958L48.00300000000004,267.998L157.00300000000004,267.998L157.00300000000004,367.918L48.00300000000004,367.918L-0.03899999999998727,317.96z"></path><path d="M366.04,268L366.083,267.958L366.083,267.998L475.083,267.998L475.083,367.918L366.083,367.918L318.041,317.96z"></path><path d="M48,267.96L157,267.96L157,268L48,268z"></path></svg>