<svg width="270" height="540" version="1.2" xmlns="http://www.w3.org/2000/svg" viewBox="0 0 270 540"><style type="text/css">path {stroke-width: 1; vector-effect: non-scaling-stroke; fill:none; stroke: #000; stroke-linecap: round; stroke-linejoin: miter;}</style><path d="M135,270L270,270L270,540L135,540L135,405z"></path><path d="M0,270L135,270L135,405z"></path><path d="M0,-270L135.001,-134.99900000000002L135.001,0.0009999999999763531L0.001,0.0009999999999763531z"></path><path d="M0,270L135.001,405.001L135.001,540.001L0.001,540.001z"></path><path d="M0,0L135,0L135,270L0,270L0,135z"></path><path d="M135,0L270,0L270,135z"></path><path d="M-135,0L0.0009999999999763531,135.001L0.0009999999999763531,270.001L-134.999,270.001z"></path><path d="M135,0L270.001,135.001L270.001,270.001L135.001,270.001z"></path></svg>