<svg width="630" height="360" version="1.2" xmlns="http://www.w3.org/2000/svg" viewBox="0 0 630 360"><style type="text/css">path {stroke-width: 1; vector-effect: non-scaling-stroke; fill:none; stroke: #000; stroke-linecap: round; stroke-linejoin: miter;}</style><path d="M0,270L30,270L190,270L190,300L30,300L0,300z"></path><path d="M190,90L220,90L410,90L440,90L440,120L410,120L220,120L190,120z"></path><path d="M30,300L190,300L220,300L220,330L190,330L30,330z"></path><path d="M0,30L30,30L190,30L190,60L30,60L0,60z"></path><path d="M30,180L190,180L220,180L220,210L190,210L30,210z"></path><path d="M0,330L30,330L190,330L190,360L0,360z"></path><path d="M220,180L410,180L410,210L220,210z"></path><path d="M0,150L30,150L190,150L190,180L30,180L0,180z"></path><path d="M-220,0L30,0L30,30L0,30L-190,30L-220,30z"></path><path d="M410,0L660,0L660,30L630,30L440,30L410,30z"></path><path d="M-220,240L-190,240L0,240L30,240L30,270L0,270L-190,270L-220,270z"></path><path d="M410,240L440,240L630,240L660,240L660,270L630,270L440,270L410,270z"></path><path d="M190,210L220,210L410,210L440,210L440,240L410,240L220,240L190,240z"></path><path d="M30,0L220,0L220,30L190,30L30,30z"></path><path d="M440,270L630,270L630,300L440,300z"></path><path d="M440,30L630,30L630,60L440,60z"></path><path d="M190,30L220,30L410,30L440,30L440,60L410,60L220,60L190,60z"></path><path d="M220,120L410,120L410,150L220,150z"></path><path d="M0,210L30,210L190,210L190,240L30,240L0,240z"></path><path d="M-220,300L-190,300L0,300L30,300L30,330L0,330L-190,330L-220,330z"></path><path d="M410,300L440,300L630,300L660,300L660,330L630,330L440,330L410,330z"></path><path d="M-220,180L-190,180L0,180L30,180L30,210L0,210L-190,210L-220,210z"></path><path d="M410,180L440,180L630,180L660,180L660,210L630,210L440,210L410,210z"></path><path d="M190,150L220,150L410,150L440,150L440,180L410,180L220,180L190,180z"></path><path d="M440,210L630,210L630,240L440,240z"></path><path d="M190,270L220,270L410,270L440,270L440,300L410,300L220,300L190,300z"></path><path d="M440,150L630,150L630,180L440,180z"></path><path d="M220,300L410,300L410,330L220,330z"></path><path d="M30,60L190,60L220,60L220,90L190,90L30,90z"></path><path d="M220,0L410,0L410,30L220,30z"></path><path d="M30,120L190,120L220,120L220,150L190,150L30,150z"></path><path d="M190,330L220,330L410,330L440,330L440,360L190,360z"></path><path d="M-220,60L-190,60L0,60L30,60L30,90L0,90L-190,90L-220,90z"></path><path d="M410,60L440,60L630,60L660,60L660,90L630,90L440,90L410,90z"></path><path d="M220,240L410,240L410,270L220,270z"></path><path d="M440,90L630,90L630,120L440,120z"></path><path d="M30,240L190,240L220,240L220,270L190,270L30,270z"></path><path d="M0,90L30,90L190,90L190,120L30,120L0,120z"></path><path d="M220,60L410,60L410,90L220,90z"></path><path d="M440,330L630,330L630,360L440,360z"></path><path d="M-220,120L-190,120L0,120L30,120L30,150L0,150L-190,150L-220,150z"></path><path d="M410,120L440,120L630,120L660,120L660,150L630,150L440,150L410,150z"></path></svg>