<svg width="378" height="378" version="1.2" xmlns="http://www.w3.org/2000/svg" viewBox="0 0 378 378"><style type="text/css">path {stroke-width: 1; vector-effect: non-scaling-stroke; fill:none; stroke: #000; stroke-linecap: round; stroke-linejoin: miter;}</style><path d="M-175.59,149.38L-135.811,136.124L0.30700000000001637,272.242L-12.947999999999979,312.022L-52.72800000000001,325.277L-188.846,189.159z"></path><path d="M202.41,149.38L242.189,136.124L378.307,272.242L365.052,312.022L325.272,325.277L189.154,189.159z"></path><path d="M0.30000000000001137,272.24L136.418,136.122L176.197,149.378L189.45299999999997,189.157L53.33499999999998,325.275L13.555999999999983,312.019z"></path><path d="M-135.82,136.12L0.2980000000000018,0.002L136.41600000000005,136.12L0.2980000000000018,272.238z"></path><path d="M242.18,136.12L378.298,0.002L514.416,136.12L378.298,272.238z"></path><path d="M13.26,-39.47000000000003L53.039,-52.726L189.157,83.392L175.901,123.17099999999999L136.122,136.42700000000002L0.004,0.3090000000000259z"></path><path d="M13.26,338.53L53.039,325.274L189.157,461.392L175.901,501.171L136.122,514.427L0.004,378.309z"></path><path d="M-188.85,83.38999999999999L-52.73200000000003,-52.72800000000001L-12.952999999999975,-39.47199999999998L0.30299999999999727,0.30700000000001637L-135.815,136.42499999999995L-175.594,123.16899999999998z"></path><path d="M189.15,83.38999999999999L325.268,-52.72800000000001L365.047,-39.47199999999998L378.303,0.30700000000001637L242.185,136.42499999999995L202.406,123.16899999999998z"></path><path d="M-188.85,461.39L-52.73200000000003,325.272L-12.952999999999975,338.528L0.30299999999999727,378.307L-135.815,514.425L-175.594,501.169z"></path><path d="M189.15,461.39L325.268,325.272L365.047,338.528L378.303,378.307L242.185,514.425L202.406,501.169z"></path><path d="M-52.73000000000002,-52.73000000000002L-12.951000000000022,-65.98599999999999L0.3050000000000068,-105.76499999999999L13.560999999999979,-65.98599999999999L53.34100000000001,-52.73000000000002L13.560999999999979,-39.47399999999999L0.3050000000000068,0.3050000000000068L-12.951000000000022,-39.47399999999999z"></path><path d="M325.27,-52.73000000000002L365.049,-65.98599999999999L378.305,-105.76499999999999L391.561,-65.98599999999999L431.341,-52.73000000000002L391.561,-39.47399999999999L378.305,0.3050000000000068L365.049,-39.47399999999999z"></path><path d="M-52.73000000000002,325.27L-12.951000000000022,312.014L0.3050000000000068,272.235L13.560999999999979,312.014L53.34100000000001,325.27L13.560999999999979,338.526L0.3050000000000068,378.305L-12.951000000000022,338.526z"></path><path d="M325.27,325.27L365.049,312.014L378.305,272.235L391.561,312.014L431.341,325.27L391.561,338.526L378.305,378.305L365.049,338.526z"></path><path d="M136.12,136.41999999999996L175.899,123.16399999999999L189.155,83.38499999999999L202.411,123.16399999999999L242.191,136.41999999999996L202.411,149.67600000000004L189.155,189.45500000000004L175.899,149.67600000000004z"></path><path d="M53.03,-52.73000000000002L189.148,-188.848L325.266,-52.73000000000002L189.148,83.38799999999998z"></path><path d="M53.03,325.27L189.148,189.152L325.266,325.27L189.148,461.388z"></path></svg>