<svg width="261.31" height="261.31" version="1.2" xmlns="http://www.w3.org/2000/svg" viewBox="0 0 261.31 261.31"><style type="text/css">path {stroke-width: 1; vector-effect: non-scaling-stroke; fill:none; stroke: #000; stroke-linecap: round; stroke-linejoin: miter;}</style><path d="M0,168.92L92.388,130.652L130.656,223.04L38.268,261.308z"></path><path d="M168.92,-130.65L261.308,-92.382L223.04,0.005999999999971806L130.652,-38.262z"></path><path d="M168.92,130.66L261.308,168.928L223.04,261.316L130.652,223.048z"></path><path d="M38.27,0L130.658,38.268L92.39,130.656L0.002,92.388z"></path><path d="M-130.65,38.27L-38.262,0.002L0.005999999999971806,92.39L-92.382,130.658z"></path><path d="M130.66,38.27L223.048,0.002L261.316,92.39L168.928,130.658z"></path><path d="M-92.39000000000001,130.66L-0.0020000000000095497,92.392L92.38600000000002,130.66L-0.0020000000000095497,168.928z"></path><path d="M168.92,130.66L261.308,92.392L353.696,130.66L261.308,168.928z"></path><path d="M130.66,38.27L168.928,130.658L130.66,223.046L92.392,130.658z"></path><path d="M38.27,0L130.658,-38.268L223.046,0L130.658,38.26799999999997z"></path><path d="M38.27,261.31L130.658,223.042L223.046,261.31L130.658,299.578z"></path><path d="M0,-92.39000000000001L38.26799999999997,-0.0020000000000095497L0,92.38600000000002L-38.268,-0.0020000000000095497z"></path><path d="M261.31,-92.39000000000001L299.578,-0.0020000000000095497L261.31,92.38600000000002L223.042,-0.0020000000000095497z"></path><path d="M0,168.92L38.26799999999997,261.308L0,353.696L-38.268,261.308z"></path><path d="M261.31,168.92L299.578,261.308L261.31,353.696L223.042,261.308z"></path></svg>