<svg width="400" height="800" version="1.2" xmlns="http://www.w3.org/2000/svg" viewBox="0 0 400 800"><style type="text/css">path {stroke-width: 1; vector-effect: non-scaling-stroke; fill:none; stroke: #000; stroke-linecap: round; stroke-linejoin: miter;}</style><path d="M0,0L51.763,6.815L99.999,26.795L141.42,58.578L173.203,99.999L193.183,148.235L199.998,199.998L193.183,251.762L173.203,299.997L141.42,341.418L99.999,373.202L51.763,393.182L0,399.996z"></path><path d="M0,400L400,400L348.237,406.815L300.001,426.795L258.58,458.578L226.797,499.999L206.817,548.235L200.002,599.998L206.817,651.762L226.797,699.997L258.58,741.418L300.001,773.202L348.237,793.182L400,799.996L0,799.996z"></path><path d="M258.58,-341.42L300.001,-373.203L348.237,-393.183L400,-399.998L400,0.0019999999999527063L348.237,-6.812999999999988L300.001,-26.793000000000006L258.58,-58.57600000000002L226.797,-99.99699999999996L206.817,-148.23299999999995L200.002,-199.99599999999998L206.817,-251.76L226.797,-299.995z"></path><path d="M258.58,458.58L300.001,426.797L348.237,406.817L400,400.002L400,800.002L348.237,793.187L300.001,773.207L258.58,741.424L226.797,700.003L206.817,651.767L200.002,600.004L206.817,548.24L226.797,500.005z"></path><path d="M0,0L400,0L400,400L0,400L51.763,393.185L99.999,373.205L141.42,341.422L173.203,300.001L193.183,251.765L199.998,200.002L193.183,148.238L173.203,100.003L141.42,58.582L99.999,26.798L51.763,6.818z"></path></svg>