<svg width="100" height="200" version="1.2" xmlns="http://www.w3.org/2000/svg" viewBox="0 0 100 200"><style type="text/css">path {stroke-width: 1; vector-effect: non-scaling-stroke; fill:none; stroke: #000; stroke-linecap: round; stroke-linejoin: miter;}</style><path d="M4.39,4.39L7.5,2.004L11.122,0.504L15.008,-0.008L18.894,0.504L22.516,2.004L25.626,4.39L28.012,7.5L29.512,11.122L30.024,15.008L29.512,18.894L28.012,22.516L25.626,25.626L22.516,28.012L18.894,29.512L15.008,30.024L11.122,29.512L7.5,28.012L4.39,25.626L2.004,22.516L0.504,18.894L-0.008,15.008L0.504,11.122L2.004,7.5z"></path><path d="M104.39,4.39L107.5,2.004L111.122,0.504L115.008,-0.008L118.894,0.504L122.51599999999999,2.004L125.626,4.39L128.012,7.5L129.512,11.122L130.024,15.008L129.512,18.894L128.012,22.516L125.626,25.626L122.51599999999999,28.012L118.894,29.512L115.008,30.024L111.122,29.512L107.5,28.012L104.39,25.626L102.004,22.516L100.504,18.894L99.992,15.008L100.504,11.122L102.004,7.5z"></path><path d="M4.39,204.39L7.5,202.004L11.122,200.504L15.008,199.992L18.894,200.504L22.516,202.004L25.626,204.39L28.012,207.5L29.512,211.122L30.024,215.008L29.512,218.894L28.012,222.516L25.626,225.626L22.516,228.012L18.894,229.512L15.008,230.024L11.122,229.512L7.5,228.012L4.39,225.626L2.004,222.516L0.504,218.894L-0.008,215.008L0.504,211.122L2.004,207.5z"></path><path d="M104.39,204.39L107.5,202.004L111.122,200.504L115.008,199.992L118.894,200.504L122.51599999999999,202.004L125.626,204.39L128.012,207.5L129.512,211.122L130.024,215.008L129.512,218.894L128.012,222.516L125.626,225.626L122.51599999999999,228.012L118.894,229.512L115.008,230.024L111.122,229.512L107.5,228.012L104.39,225.626L102.004,222.516L100.504,218.894L99.992,215.008L100.504,211.122L102.004,207.5z"></path><path d="M-85,-85L15,-85L15,0L11.114000000000004,0.5120000000000005L7.492000000000004,2.0120000000000005L4.382000000000005,4.397999999999996L1.9959999999999951,7.50800000000001L0.4959999999999951,11.129999999999995L-0.016000000000005343,15.015999999999991L-70.01599999999999,15.015999999999991L-70.52799999999999,11.129999999999995L-72.02799999999999,7.50800000000001L-74.414,4.397999999999996L-77.524,2.0120000000000005L-81.146,0.5120000000000005L-85.032,0z"></path><path d="M15,-85L115,-85L115,0L111.114,0.5120000000000005L107.492,2.0120000000000005L104.382,4.397999999999996L101.996,7.50800000000001L100.496,11.129999999999995L99.984,15.015999999999991L29.984,15.015999999999991L29.472,11.129999999999995L27.972,7.50800000000001L25.586,4.397999999999996L22.476,2.0120000000000005L18.854,0.5120000000000005L14.968,0z"></path><path d="M-85,115L15,115L15,200L11.114000000000004,200.512L7.492000000000004,202.012L4.382000000000005,204.398L1.9959999999999951,207.508L0.4959999999999951,211.13L-0.016000000000005343,215.016L-70.01599999999999,215.016L-70.52799999999999,211.13L-72.02799999999999,207.508L-74.414,204.398L-77.524,202.012L-81.146,200.512L-85.032,200z"></path><path d="M15,115L115,115L115,200L111.114,200.512L107.492,202.012L104.382,204.398L101.996,207.508L100.496,211.13L99.984,215.016L29.984,215.016L29.472,211.13L27.972,207.508L25.586,204.398L22.476,202.012L18.854,200.512L14.968,200z"></path><path d="M-74.39,25.61L-72.004,22.5L-70.504,18.878L-69.992,14.992L0.007999999999995566,14.992L0.519999999999996,18.878L2.019999999999996,22.5L4.406000000000006,25.61L7.516000000000005,27.996L11.138000000000005,29.496L15.024000000000001,30.008L15.024000000000001,115.008L-84.976,115.008L-84.976,30.008L-81.089,29.496L-77.468,27.996z"></path><path d="M25.61,25.61L27.996,22.5L29.496,18.878L30.008,14.992L100.008,14.992L100.52,18.878L102.02,22.5L104.406,25.61L107.516,27.996L111.138,29.496L115.024,30.008L115.024,115.008L15.024,115.008L15.024,30.008L18.911,29.496L22.532,27.996z"></path></svg>