<svg width="345.37" height="600" version="1.2" xmlns="http://www.w3.org/2000/svg" viewBox="0 0 345.37 600"><style type="text/css">path {stroke-width: 1; vector-effect: non-scaling-stroke; fill:none; stroke: #000; stroke-linecap: round; stroke-linejoin: miter;}</style><path d="M0,-100.88999999999999L172.686,-199.988L172.686,0.011999999999943611L0.007,100.91700000000003z"></path><path d="M0,499.11L172.686,400.012L172.686,600.012L0.007,700.917z"></path><path d="M-172.68,-200L0.005999999999971806,-100.90199999999999L0.005999999999971806,99.09799999999996L-172.68,0z"></path><path d="M172.69,-200L345.376,-100.90199999999999L345.376,99.09799999999996L172.69,0z"></path><path d="M-172.68,400L0.005999999999971806,499.098L0.005999999999971806,699.098L-172.68,600z"></path><path d="M172.69,400L345.376,499.098L345.376,699.098L172.69,600z"></path><path d="M172.69,200L345.369,99.094L345.369,300.884L172.683,399.983z"></path><path d="M0,100.89L172.686,199.988L172.686,399.988L0,300.89z"></path><path d="M0,300.89L172.686,399.988L0,499.087z"></path><path d="M-172.68,400L0.005999999999971806,300.902L0.005999999999971806,499.112z"></path><path d="M172.69,400L345.376,300.902L345.376,499.112z"></path><path d="M0,100.89L172.679,-0.016L345.365,99.083L172.686,199.988z"></path><path d="M0,700.89L172.679,599.984L345.365,699.083L172.686,799.988z"></path></svg>