<svg width="329" height="721" version="1.2" xmlns="http://www.w3.org/2000/svg" viewBox="0 0 329 721"><style type="text/css">path {stroke-width: 1; vector-effect: non-scaling-stroke; fill:none; stroke: #000; stroke-linecap: round; stroke-linejoin: miter;}</style><path d="M-233.81,36.52L-219.584,20.213L-201.623,8.143L-181.15,1.134L-164.379,-0.01L-147.608,1.134L-127.13399999999999,8.143L-109.173,20.213L-94.947,36.52L-85.42699999999999,55.953L-82.06700000000001,73.077L-82.06700000000001,222.427L-78.708,239.55L-69.18799999999999,258.984L-54.96199999999999,275.291L-37.000999999999976,287.36L-16.526999999999987,294.37L0.2440000000000282,295.513L0.2440000000000282,360.683L-16.526999999999987,361.827L-37.000999999999976,368.836L-54.96199999999999,380.906L-69.18799999999999,397.213L-78.708,416.646L-82.06700000000001,433.77L-82.06700000000001,437.25L-82.06700000000001,513.47L-82.06700000000001,583.12L-85.42699999999999,600.243L-94.947,619.677L-109.173,635.984L-127.13399999999999,648.053L-147.608,655.063L-164.379,656.206L-181.15,655.063L-201.623,648.053L-219.584,635.984L-233.81,619.677L-243.32999999999998,600.243L-246.69,583.12L-246.69,433.77L-250.049,416.646L-259.57,397.213L-273.795,380.906L-291.757,368.836L-312.23,361.827L-329.001,360.683L-329.001,295.513L-312.23,294.37L-291.757,287.36L-273.795,275.291L-259.57,258.984L-250.049,239.55L-246.69,222.427L-246.69,73.077L-243.32999999999998,55.953z"></path><path d="M95.19,36.52L109.416,20.213L127.377,8.143L147.85,1.134L164.621,-0.01L181.392,1.134L201.866,8.143L219.827,20.213L234.053,36.52L243.573,55.953L246.933,73.077L246.933,222.427L250.292,239.55L259.812,258.984L274.038,275.291L291.999,287.36L312.473,294.37L329.244,295.513L329.244,360.683L312.473,361.827L291.999,368.836L274.038,380.906L259.812,397.213L250.292,416.646L246.933,433.77L246.933,437.25L246.933,513.47L246.933,583.12L243.573,600.243L234.053,619.677L219.827,635.984L201.866,648.053L181.392,655.063L164.621,656.206L147.85,655.063L127.377,648.053L109.416,635.984L95.19,619.677L85.67,600.243L82.31,583.12L82.31,433.77L78.951,416.646L69.43,397.213L55.205,380.906L37.243,368.836L16.77,361.827L-0.001,360.683L-0.001,295.513L16.77,294.37L37.243,287.36L55.205,275.291L69.43,258.984L78.951,239.55L82.31,222.427L82.31,73.077L85.67,55.953z"></path><path d="M424.19,36.52L438.416,20.213L456.377,8.143L476.85,1.134L493.621,-0.01L510.392,1.134L530.866,8.143L548.827,20.213L563.053,36.52L572.573,55.953L575.933,73.077L575.933,222.427L579.292,239.55L588.812,258.984L603.038,275.291L620.999,287.36L641.473,294.37L658.244,295.513L658.244,360.683L641.473,361.827L620.999,368.836L603.038,380.906L588.812,397.213L579.292,416.646L575.933,433.77L575.933,437.25L575.933,513.47L575.933,583.12L572.573,600.243L563.053,619.677L548.827,635.984L530.866,648.053L510.392,655.063L493.621,656.206L476.85,655.063L456.377,648.053L438.416,635.984L424.19,619.677L414.67,600.243L411.31,583.12L411.31,433.77L407.951,416.646L398.43,397.213L384.205,380.906L366.243,368.836L345.77,361.827L328.999,360.683L328.999,295.513L345.77,294.37L366.243,287.36L384.205,275.291L398.43,258.984L407.951,239.55L411.31,222.427L411.31,73.077L414.67,55.953z"></path><path d="M-233.81,757.52L-219.584,741.213L-201.623,729.143L-181.15,722.134L-164.379,720.99L-147.608,722.134L-127.13399999999999,729.143L-109.173,741.213L-94.947,757.52L-85.42699999999999,776.953L-82.06700000000001,794.077L-82.06700000000001,943.427L-78.708,960.55L-69.18799999999999,979.9839999999999L-54.96199999999999,996.2909999999999L-37.000999999999976,1008.36L-16.526999999999987,1015.37L0.2440000000000282,1016.5129999999999L0.2440000000000282,1081.683L-16.526999999999987,1082.827L-37.000999999999976,1089.836L-54.96199999999999,1101.906L-69.18799999999999,1118.213L-78.708,1137.646L-82.06700000000001,1154.77L-82.06700000000001,1158.25L-82.06700000000001,1234.47L-82.06700000000001,1304.12L-85.42699999999999,1321.243L-94.947,1340.6770000000001L-109.173,1356.984L-127.13399999999999,1369.0529999999999L-147.608,1376.063L-164.379,1377.2060000000001L-181.15,1376.063L-201.623,1369.0529999999999L-219.584,1356.984L-233.81,1340.6770000000001L-243.32999999999998,1321.243L-246.69,1304.12L-246.69,1154.77L-250.049,1137.646L-259.57,1118.213L-273.795,1101.906L-291.757,1089.836L-312.23,1082.827L-329.001,1081.683L-329.001,1016.5129999999999L-312.23,1015.37L-291.757,1008.36L-273.795,996.2909999999999L-259.57,979.9839999999999L-250.049,960.55L-246.69,943.427L-246.69,794.077L-243.32999999999998,776.953z"></path><path d="M95.19,757.52L109.416,741.213L127.377,729.143L147.85,722.134L164.621,720.99L181.392,722.134L201.866,729.143L219.827,741.213L234.053,757.52L243.573,776.953L246.933,794.077L246.933,943.427L250.292,960.55L259.812,979.9839999999999L274.038,996.2909999999999L291.999,1008.36L312.473,1015.37L329.244,1016.5129999999999L329.244,1081.683L312.473,1082.827L291.999,1089.836L274.038,1101.906L259.812,1118.213L250.292,1137.646L246.933,1154.77L246.933,1158.25L246.933,1234.47L246.933,1304.12L243.573,1321.243L234.053,1340.6770000000001L219.827,1356.984L201.866,1369.0529999999999L181.392,1376.063L164.621,1377.2060000000001L147.85,1376.063L127.377,1369.0529999999999L109.416,1356.984L95.19,1340.6770000000001L85.67,1321.243L82.31,1304.12L82.31,1154.77L78.951,1137.646L69.43,1118.213L55.205,1101.906L37.243,1089.836L16.77,1082.827L-0.001,1081.683L-0.001,1016.5129999999999L16.77,1015.37L37.243,1008.36L55.205,996.2909999999999L69.43,979.9839999999999L78.951,960.55L82.31,943.427L82.31,794.077L85.67,776.953z"></path><path d="M424.19,757.52L438.416,741.213L456.377,729.143L476.85,722.134L493.621,720.99L510.392,722.134L530.866,729.143L548.827,741.213L563.053,757.52L572.573,776.953L575.933,794.077L575.933,943.427L579.292,960.55L588.812,979.9839999999999L603.038,996.2909999999999L620.999,1008.36L641.473,1015.37L658.244,1016.5129999999999L658.244,1081.683L641.473,1082.827L620.999,1089.836L603.038,1101.906L588.812,1118.213L579.292,1137.646L575.933,1154.77L575.933,1158.25L575.933,1234.47L575.933,1304.12L572.573,1321.243L563.053,1340.6770000000001L548.827,1356.984L530.866,1369.0529999999999L510.392,1376.063L493.621,1377.2060000000001L476.85,1376.063L456.377,1369.0529999999999L438.416,1356.984L424.19,1340.6770000000001L414.67,1321.243L411.31,1304.12L411.31,1154.77L407.951,1137.646L398.43,1118.213L384.205,1101.906L366.243,1089.836L345.77,1082.827L328.999,1081.683L328.999,1016.5129999999999L345.77,1015.37L366.243,1008.36L384.205,996.2909999999999L398.43,979.9839999999999L407.951,960.55L411.31,943.427L411.31,794.077L414.67,776.953z"></path><path d="M-69.19,-323.79L-54.964,-340.097L-37.002999999999986,-352.167L-16.529999999999973,-359.176L0.24099999999998545,-360.32L17.012,-359.176L37.48599999999999,-352.167L55.447,-340.097L69.673,-323.79L79.19299999999998,-304.357L82.553,-287.233L82.553,-137.88300000000004L85.91199999999998,-120.75999999999999L95.43200000000002,-101.32600000000002L109.65800000000002,-85.019L127.61900000000003,-72.95000000000005L148.09300000000002,-65.94000000000005L164.86399999999998,-64.79700000000003L164.86399999999998,0.3730000000000473L148.09300000000002,1.5170000000000528L127.61900000000003,8.525999999999954L109.65800000000002,20.596000000000004L95.43200000000002,36.90300000000002L85.91199999999998,56.33600000000001L82.553,73.46000000000004L82.553,76.94000000000005L82.553,153.15999999999997L82.553,222.80999999999995L79.19299999999998,239.933L69.673,259.36699999999996L55.447,275.674L37.48599999999999,287.74300000000005L17.012,294.75300000000004L0.24099999999998545,295.89599999999996L-16.529999999999973,294.75300000000004L-37.002999999999986,287.74300000000005L-54.964,275.674L-69.19,259.36699999999996L-78.71000000000001,239.933L-82.07,222.80999999999995L-82.07,73.46000000000004L-85.429,56.33600000000001L-94.94999999999999,36.90300000000002L-109.17500000000001,20.596000000000004L-127.137,8.525999999999954L-147.61,1.5170000000000528L-164.381,0.3730000000000473L-164.381,-64.79700000000003L-147.61,-65.94000000000005L-127.137,-72.95000000000005L-109.17500000000001,-85.019L-94.94999999999999,-101.32600000000002L-85.429,-120.75999999999999L-82.07,-137.88300000000004L-82.07,-207.53300000000002L-82.07,-283.753L-82.07,-287.233L-78.71000000000001,-304.357z"></path><path d="M259.81,-323.79L274.036,-340.097L291.997,-352.167L312.47,-359.176L329.241,-360.32L346.012,-359.176L366.486,-352.167L384.447,-340.097L398.673,-323.79L408.193,-304.357L411.553,-287.233L411.553,-137.88300000000004L414.912,-120.75999999999999L424.432,-101.32600000000002L438.658,-85.019L456.619,-72.95000000000005L477.093,-65.94000000000005L493.864,-64.79700000000003L493.864,0.3730000000000473L477.093,1.5170000000000528L456.619,8.525999999999954L438.658,20.596000000000004L424.432,36.90300000000002L414.912,56.33600000000001L411.553,73.46000000000004L411.553,76.94000000000005L411.553,153.15999999999997L411.553,222.80999999999995L408.193,239.933L398.673,259.36699999999996L384.447,275.674L366.486,287.74300000000005L346.012,294.75300000000004L329.241,295.89599999999996L312.47,294.75300000000004L291.997,287.74300000000005L274.036,275.674L259.81,259.36699999999996L250.29,239.933L246.93,222.80999999999995L246.93,73.46000000000004L243.571,56.33600000000001L234.05,36.90300000000002L219.825,20.596000000000004L201.863,8.525999999999954L181.39,1.5170000000000528L164.619,0.3730000000000473L164.619,-64.79700000000003L181.39,-65.94000000000005L201.863,-72.95000000000005L219.825,-85.019L234.05,-101.32600000000002L243.571,-120.75999999999999L246.93,-137.88300000000004L246.93,-207.53300000000002L246.93,-283.753L246.93,-287.233L250.29,-304.357z"></path><path d="M-69.19,397.21L-54.964,380.903L-37.002999999999986,368.833L-16.529999999999973,361.824L0.24099999999998545,360.68L17.012,361.824L37.48599999999999,368.833L55.447,380.903L69.673,397.21L79.19299999999998,416.643L82.553,433.767L82.553,583.117L85.91199999999998,600.24L95.43200000000002,619.674L109.65800000000002,635.981L127.61900000000003,648.05L148.09300000000002,655.06L164.86399999999998,656.203L164.86399999999998,721.373L148.09300000000002,722.517L127.61900000000003,729.526L109.65800000000002,741.596L95.43200000000002,757.903L85.91199999999998,777.336L82.553,794.46L82.553,797.94L82.553,874.16L82.553,943.81L79.19299999999998,960.933L69.673,980.367L55.447,996.674L37.48599999999999,1008.743L17.012,1015.753L0.24099999999998545,1016.896L-16.529999999999973,1015.753L-37.002999999999986,1008.743L-54.964,996.674L-69.19,980.367L-78.71000000000001,960.933L-82.07,943.81L-82.07,794.46L-85.429,777.336L-94.94999999999999,757.903L-109.17500000000001,741.596L-127.137,729.526L-147.61,722.517L-164.381,721.373L-164.381,656.203L-147.61,655.06L-127.137,648.05L-109.17500000000001,635.981L-94.94999999999999,619.674L-85.429,600.24L-82.07,583.117L-82.07,513.467L-82.07,437.247L-82.07,433.767L-78.71000000000001,416.643z"></path><path d="M259.81,397.21L274.036,380.903L291.997,368.833L312.47,361.824L329.241,360.68L346.012,361.824L366.486,368.833L384.447,380.903L398.673,397.21L408.193,416.643L411.553,433.767L411.553,583.117L414.912,600.24L424.432,619.674L438.658,635.981L456.619,648.05L477.093,655.06L493.864,656.203L493.864,721.373L477.093,722.517L456.619,729.526L438.658,741.596L424.432,757.903L414.912,777.336L411.553,794.46L411.553,797.94L411.553,874.16L411.553,943.81L408.193,960.933L398.673,980.367L384.447,996.674L366.486,1008.743L346.012,1015.753L329.241,1016.896L312.47,1015.753L291.997,1008.743L274.036,996.674L259.81,980.367L250.29,960.933L246.93,943.81L246.93,794.46L243.571,777.336L234.05,757.903L219.825,741.596L201.863,729.526L181.39,722.517L164.619,721.373L164.619,656.203L181.39,655.06L201.863,648.05L219.825,635.981L234.05,619.674L243.571,600.24L246.93,583.117L246.93,513.467L246.93,437.247L246.93,433.767L250.29,416.643z"></path></svg>