<svg width="262" height="262" version="1.2" xmlns="http://www.w3.org/2000/svg" viewBox="0 0 262 262"><style type="text/css">path {stroke-width: 1; vector-effect: non-scaling-stroke; fill:none; stroke: #000; stroke-linecap: round; stroke-linejoin: miter;}</style><path d="M0,201.75L27.5,201.75L27.5,261.75L0,261.75z"></path><path d="M138.75,90.5L198.75,90.5L198.75,111.25L138.75,111.25z"></path><path d="M-63.25,111.25L28,111.25L28,201.75L0.5,201.75L0.5,138L-63.25,138z"></path><path d="M198.75,111.25L290,111.25L290,201.75L262.5,201.75L262.5,138L198.75,138z"></path><path d="M47.5,-0.25L75,-0.25L75,63.5L138.75,63.5L138.75,90.25L47.5,90.25z"></path><path d="M47.5,261.75L75,261.75L75,325.5L138.75,325.5L138.75,352.25L47.5,352.25z"></path><path d="M-63.25,63.5L0.5,63.5L0.5,-0.25L28,-0.25L28,90.25L-63.25,90.25z"></path><path d="M198.75,63.5L262.5,63.5L262.5,-0.25L290,-0.25L290,90.25L198.75,90.25z"></path><path d="M-63.25,325.5L0.5,325.5L0.5,261.75L28,261.75L28,352.25L-63.25,352.25z"></path><path d="M198.75,325.5L262.5,325.5L262.5,261.75L290,261.75L290,352.25L198.75,352.25z"></path><path d="M47.5,111.25L138.75,111.25L138.75,138L75,138L75,201.75L47.5,201.75z"></path><path d="M-187,-124L-123.25,-124L-63.25,-124L0.5,-124L0.5,-60.25L0.5,-0.25L0.5,63.5L-63.25,63.5L-123.25,63.5L-187,63.5L-187,-0.25L-187,-60.25z"></path><path d="M75,-124L138.75,-124L198.75,-124L262.5,-124L262.5,-60.25L262.5,-0.25L262.5,63.5L198.75,63.5L138.75,63.5L75,63.5L75,-0.25L75,-60.25z"></path><path d="M-187,138L-123.25,138L-63.25,138L0.5,138L0.5,201.75L0.5,261.75L0.5,325.5L-63.25,325.5L-123.25,325.5L-187,325.5L-187,261.75L-187,201.75z"></path><path d="M75,138L138.75,138L198.75,138L262.5,138L262.5,201.75L262.5,261.75L262.5,325.5L198.75,325.5L138.75,325.5L75,325.5L75,261.75L75,201.75z"></path><path d="M-63.25,90.5L28,90.5L28,0L48,0L48,90.5L139.25,90.5L139.25,111.25L48,111.25L48,201.75L28,201.75L28,111.25L-63.25,111.25z"></path><path d="M198.75,90.5L290,90.5L290,0L310,0L310,90.5L401.25,90.5L401.25,111.25L310,111.25L310,201.75L290,201.75L290,111.25L198.75,111.25z"></path><path d="M47.5,201.75L75,201.75L75,261.75L47.5,261.75z"></path><path d="M27.5,201.75L47.5,201.75L47.5,261.75L27.5,261.75z"></path><path d="M138.75,63.75L198.75,63.75L198.75,90.5L138.75,90.5z"></path><path d="M138.75,111.25L198.75,111.25L198.75,138L138.75,138z"></path></svg>