<svg width="260" height="600" version="1.2" xmlns="http://www.w3.org/2000/svg" viewBox="0 0 260 600"><style type="text/css">path {stroke-width: 1; vector-effect: non-scaling-stroke; fill:none; stroke: #000; stroke-linecap: round; stroke-linejoin: miter;}</style><path d="M-47.93000000000001,350.19L-33.522999999999996,351.172L-15.944999999999993,357.191L-0.5240000000000009,367.553L11.689999999999998,381.555L19.86500000000001,398.24L22.75,412.95L22.75,599.8L-118.63,599.8L-118.63,546.86L-114.50999999999999,547.16L-112.939,546.859L-96.35,543.686L-79.707,535.63L-65.71700000000001,523.54L-55.331999999999994,508.242L-49.25999999999999,490.778L-47.916,472.337z"></path><path d="M212.07,350.19L226.477,351.172L244.055,357.191L259.476,367.553L271.69,381.555L279.865,398.24L282.75,412.95L282.75,599.8L141.37,599.8L141.37,546.86L145.49,547.16L147.061,546.859L163.65,543.686L180.293,535.63L194.283,523.54L204.668,508.242L210.74,490.778L212.084,472.337z"></path><path d="M70.69,246.97L76.37,246.97L74.798,247.271z"></path><path d="M141.38,50.29L155.787,51.272L173.365,57.291L188.786,67.653L201,81.655L209.175,98.34L212.06,113.05L212.06,299.9L70.68,299.9L70.68,246.96L74.8,247.26L76.371,246.959L92.96,243.786L109.603,235.73L123.593,223.64L133.978,208.342L140.05,190.878L141.394,172.437z"></path><path d="M-260,0L-0.10000000000002274,0L-0.10000000000002274,184.2L2.7860000000000014,198.91L10.95999999999998,215.595L23.173999999999978,229.596L38.596000000000004,239.959L56.17399999999998,245.977L70.57999999999998,246.96L70.57999999999998,299.9L-47.94,299.9L-47.94,113.05L-50.82499999999999,98.34L-59,81.655L-71.214,67.653L-86.63499999999999,57.291L-104.213,51.272L-118.62,50.29L-122.739,49.99L-124.311,50.29L-140.9,53.464L-157.542,61.52L-171.53300000000002,73.609L-181.918,88.907L-187.989,106.372L-189.334,124.813L-189.334,246.983L-203.74099999999999,246.001L-221.31900000000002,239.982L-236.74,229.62L-248.954,215.618L-257.129,198.933L-260.014,184.223z"></path><path d="M0,0L259.9,0L259.9,184.2L262.786,198.91L270.96,215.595L283.174,229.596L298.596,239.959L316.174,245.977L330.58,246.96L330.58,299.9L212.06,299.9L212.06,113.05L209.175,98.34L201,81.655L188.786,67.653L173.365,57.291L155.787,51.272L141.38,50.29L137.261,49.99L135.689,50.29L119.1,53.464L102.458,61.52L88.467,73.609L78.082,88.907L72.011,106.372L70.666,124.813L70.666,246.983L56.259,246.001L38.681,239.982L23.26,229.62L11.046,215.618L2.871,198.933L-0.014,184.223z"></path><path d="M260,0L519.9,0L519.9,184.2L522.7860000000001,198.91L530.96,215.595L543.174,229.596L558.596,239.959L576.174,245.977L590.5799999999999,246.96L590.5799999999999,299.9L472.06,299.9L472.06,113.05L469.175,98.34L461,81.655L448.786,67.653L433.365,57.291L415.78700000000003,51.272L401.38,50.29L397.26099999999997,49.99L395.68899999999996,50.29L379.1,53.464L362.45799999999997,61.52L348.467,73.609L338.082,88.907L332.01099999999997,106.372L330.666,124.813L330.666,246.983L316.259,246.001L298.681,239.982L283.26,229.62L271.046,215.618L262.871,198.933L259.986,184.223z"></path><path d="M-189.31,299.9L-47.93000000000001,299.9L70.58999999999997,299.9L70.58999999999997,484.1L73.476,498.81L81.64999999999998,515.495L93.86399999999998,529.496L109.286,539.859L126.86399999999998,545.877L141.26999999999998,546.86L141.26999999999998,599.8L22.75,599.8L22.75,412.95L19.86500000000001,398.24L11.689999999999998,381.555L-0.5240000000000009,367.553L-15.944999999999993,357.191L-33.522999999999996,351.172L-47.93000000000001,350.19L-52.04900000000001,349.89L-53.62100000000001,350.19L-70.21000000000001,353.364L-86.852,361.42L-100.84299999999999,373.509L-111.22800000000001,388.807L-117.299,406.272L-118.644,424.713L-118.644,546.883L-133.051,545.901L-150.62900000000002,539.882L-166.05,529.52L-178.264,515.518L-186.439,498.833L-189.324,484.123z"></path><path d="M70.69,299.9L212.07,299.9L330.59,299.9L330.59,484.1L333.476,498.81L341.65,515.495L353.864,529.496L369.286,539.859L386.864,545.877L401.27,546.86L401.27,599.8L282.75,599.8L282.75,412.95L279.865,398.24L271.69,381.555L259.476,367.553L244.055,357.191L226.477,351.172L212.07,350.19L207.951,349.89L206.379,350.19L189.79,353.364L173.148,361.42L159.157,373.509L148.772,388.807L142.701,406.272L141.356,424.713L141.356,546.883L126.949,545.901L109.371,539.882L93.95,529.52L81.736,515.518L73.561,498.833L70.676,484.123z"></path><path d="M141.38,546.87L147.06,546.87L145.489,547.171z"></path><path d="M135.7,50.29L137.271,49.989L141.391,50.29z"></path><path d="M88.49,73.61L102.481,61.521L119.123,53.465L135.712,50.291L141.392,50.291L141.392,172.461L140.048,190.902L133.976,208.367L123.591,223.665L109.601,235.754L92.958,243.81L76.369,246.984L70.689,246.984L70.689,124.814L72.033,106.373L78.105,88.908z"></path><path d="M159.18,373.51L173.171,361.421L189.813,353.365L206.402,350.191L212.082,350.191L212.082,472.361L210.738,490.802L204.666,508.267L194.281,523.565L180.291,535.654L163.648,543.71L147.059,546.884L141.379,546.884L141.379,424.714L142.723,406.273L148.795,388.808z"></path><path d="M206.39,350.19L207.962,349.889L212.081,350.19z"></path></svg>