<svg width="497" height="497" version="1.2" xmlns="http://www.w3.org/2000/svg" viewBox="0 0 497 497"><style type="text/css">path {stroke-width: 1; vector-effect: non-scaling-stroke; fill:none; stroke: #000; stroke-linecap: round; stroke-linejoin: miter;}</style><path d="M41.19,0L93.65,0L133.646,41.186L173.641,0L226.101,0L226.101,312L173.641,312L133.646,270.814L93.65,312L41.19,312z"></path><path d="M-270.88,0L41.120000000000005,0L41.120000000000005,312L-270.88,312z"></path><path d="M226.12,0L538.12,0L538.12,312L226.12,312z"></path><path d="M-270.88,312L41.120000000000005,312L41.120000000000005,364.46L-0.06599999999997408,404.456L41.120000000000005,444.451L41.120000000000005,496.911L-270.88,496.911L-270.88,444.451L-229.69400000000002,404.456L-270.88,364.46z"></path><path d="M226.12,312L538.12,312L538.12,364.46L496.934,404.456L538.12,444.451L538.12,496.911L226.12,496.911L226.12,444.451L267.306,404.456L226.12,364.46z"></path><path d="M41.19,-185L93.65,-185L133.646,-226.18599999999998L173.641,-185L226.101,-185L226.101,-132.54000000000002L267.287,-92.54399999999998L226.101,-52.54899999999998L226.101,-0.08899999999999864L173.641,-0.08899999999999864L133.646,41.09699999999998L93.65,-0.08899999999999864L41.19,-0.08899999999999864L41.19,-52.54899999999998L0.004,-92.54399999999998L41.19,-132.54000000000002z"></path><path d="M41.19,312L93.65,312L133.646,270.814L173.641,312L226.101,312L226.101,364.46L267.287,404.456L226.101,444.451L226.101,496.911L173.641,496.911L133.646,538.097L93.65,496.911L41.19,496.911L41.19,444.451L0.004,404.456L41.19,364.46z"></path></svg>