<svg width="500" height="500" version="1.2" xmlns="http://www.w3.org/2000/svg" viewBox="0 0 500 500"><style type="text/css">path {stroke-width: 1; vector-effect: non-scaling-stroke; fill:none; stroke: #000; stroke-linecap: round; stroke-linejoin: miter;}</style><path d="M0,0L125,0L125,125L0,125z"></path><path d="M125,0L250,0L250,125L125,125z"></path><path d="M125,125L250,125L250,250L125,250z"></path><path d="M0,125L125,125L125,250L0,250z"></path><path d="M250,0L500,0L250.002,249.998L250.002,124.998z"></path><path d="M500,0L500,250L375,250L250,250z"></path><path d="M250,250L250,375L250,500L0,500z"></path><path d="M0,250L125,250L250,250L0.002,499.998z"></path><path d="M375,250L500,250L500,375L375,375z"></path><path d="M250,250L375,250L375,375L250,375z"></path><path d="M375,375L500,375L500,500L375,500z"></path><path d="M250,375L375,375L375,500L250,500z"></path></svg>