<svg width="300" height="500" version="1.2" xmlns="http://www.w3.org/2000/svg" viewBox="0 0 300 500"><style type="text/css">path {stroke-width: 1; vector-effect: non-scaling-stroke; fill:none; stroke: #000; stroke-linecap: round; stroke-linejoin: miter;}</style><path d="M0,0L85.19,0L85.19,90L55.19,90L55.19,160L24.06,160L24.06,250L0,250z"></path><path d="M150,250L275.94,250L275.94,340L244.81,340L244.81,410L214.81,410L214.81,500L150,500z"></path><path d="M0,250L24.06,250L24.06,340L55.19,340L55.19,410L85.19,410L85.19,500L0,500z"></path><path d="M24.06,250L150,250L150,500L85.19,500L85.19,410L55.19,410L55.19,340L24.06,340z"></path><path d="M150,0L214.81,0L214.81,90L244.81,90L244.81,160L275.94,160L275.94,250L150,250z"></path><path d="M214.81,0L300,0L300,250L275.94,250L275.94,160L244.81,160L244.81,90L214.81,90z"></path><path d="M85.19,0L150,0L150,250L24.06,250L24.06,160L55.19,160L55.19,90L85.19,90z"></path><path d="M275.94,250L300,250L300,500L214.81,500L214.81,410L244.81,410L244.81,340L275.94,340z"></path></svg>