<svg width="668" height="668" version="1.2" xmlns="http://www.w3.org/2000/svg" viewBox="0 0 668 668"><style type="text/css">path {stroke-width: 1; vector-effect: non-scaling-stroke; fill:none; stroke: #000; stroke-linecap: round; stroke-linejoin: miter;}</style><path d="M91.92,183.85L183.844,275.774L183.844,425.774L183.844,575.774L91.92,667.698L-0.004,575.774L-0.004,275.774z"></path><path d="M759.92,183.85L851.844,275.774L851.844,425.774L851.844,575.774L759.92,667.698L667.996,575.774L667.996,275.774z"></path><path d="M275.77,183.85L575.77,183.85L667.694,275.774L667.694,575.774L575.77,667.698L275.77,667.698L183.846,575.774L183.846,275.774z"></path><path d="M183.85,91.92L275.774,-0.004L425.774,-0.004L575.774,-0.004L667.698,91.92L575.774,183.844L275.774,183.844z"></path><path d="M183.85,759.92L275.774,667.996L425.774,667.996L575.774,667.996L667.698,759.92L575.774,851.844L275.774,851.844z"></path><path d="M-92.23000000000002,183.85L-0.30600000000004,91.926L91.61800000000005,183.85L-0.30600000000004,275.774z"></path><path d="M575.77,183.85L667.694,91.926L759.618,183.85L667.694,275.774z"></path><path d="M183.85,-92.23000000000002L275.774,-0.30600000000004L183.85,91.61800000000005L91.926,-0.30600000000004z"></path><path d="M183.85,575.77L275.774,667.694L183.85,759.618L91.926,667.694z"></path><path d="M183.85,91.92L275.774,183.844L183.85,275.768L91.926,183.844z"></path><path d="M-92.23000000000002,-0.2999999999999545L-0.30600000000004,-92.22400000000005L91.61800000000005,-0.2999999999999545L-0.30600000000004,91.62400000000002z"></path><path d="M575.77,-0.2999999999999545L667.694,-92.22400000000005L759.618,-0.2999999999999545L667.694,91.62400000000002z"></path><path d="M-92.23000000000002,667.7L-0.30600000000004,575.776L91.61800000000005,667.7L-0.30600000000004,759.624z"></path><path d="M575.77,667.7L667.694,575.776L759.618,667.7L667.694,759.624z"></path><path d="M0,91.92L91.924,-0.004L183.848,91.92L91.924,183.844z"></path><path d="M0,759.92L91.924,667.996L183.848,759.92L91.924,851.844z"></path></svg>