<svg width="252" height="257" version="1.2" xmlns="http://www.w3.org/2000/svg" viewBox="0 0 252 257"><style type="text/css">path {stroke-width: 1; vector-effect: non-scaling-stroke; fill:none; stroke: #000; stroke-linecap: round; stroke-linejoin: miter;}</style><path d="M126,-257L126,-128.36L126,0.2799999999999727L62.996,70.99400000000003L62.996,-186.296z"></path><path d="M126,0L126,128.64L126,257.28L62.996,327.994L62.996,70.704z"></path><path d="M0,-257L63.004,-186.286L63.004,71.00400000000002L0,0.29000000000002046z"></path><path d="M0,0L63.004,70.714L63.004,328.004L0,257.29z"></path><path d="M126,-128.36L189.004,-57.64599999999999L189.004,199.644L126,128.93L126,0.29000000000002046z"></path><path d="M126,128.64L189.004,199.354L189.004,456.644L126,385.93L126,257.29z"></path><path d="M252,-128.36L252,128.93L188.996,199.644L188.996,-57.64599999999999z"></path><path d="M252,128.64L252,385.93L188.996,456.644L188.996,199.354z"></path></svg>