<svg width="450" height="300" version="1.2" xmlns="http://www.w3.org/2000/svg" viewBox="0 0 450 300"><style type="text/css">path {stroke-width: 1; vector-effect: non-scaling-stroke; fill:none; stroke: #000; stroke-linecap: round; stroke-linejoin: miter;}</style><path d="M0,245L150,245L150,300L0,300z"></path><path d="M0,205L150,205L150,245L0,245z"></path><path d="M0,150L150,150L150,205L0,205z"></path><path d="M150,150L205,150L205,300L150,300z"></path><path d="M205,150L245,150L245,300L205,300z"></path><path d="M245,150L300,150L300,300L245,300z"></path><path d="M300,150L355,150L355,300L300,300z"></path><path d="M355,150L395,150L395,300L355,300z"></path><path d="M395,150L450,150L450,300L395,300z"></path><path d="M300,95L450,95L450,150L300,150z"></path><path d="M300,55L450,55L450,95L300,95z"></path><path d="M300,0L450,0L450,55L300,55z"></path><path d="M150,95L300,95L300,150L150,150z"></path><path d="M150,55L300,55L300,95L150,95z"></path><path d="M150,0L300,0L300,55L150,55z"></path><path d="M0,0L55,0L55,150L0,150z"></path><path d="M55,0L95,0L95,150L55,150z"></path><path d="M95,0L150,0L150,150L95,150z"></path></svg>