<svg width="400" height="400" version="1.2" xmlns="http://www.w3.org/2000/svg" viewBox="0 0 400 400"><style type="text/css">path {stroke-width: 1; vector-effect: non-scaling-stroke; fill:none; stroke: #000; stroke-linecap: round; stroke-linejoin: miter;}</style><path d="M29.45,0L101.23,0L101.23,200L66.05,200z"></path><path d="M101.23,0L130.68,0L167.278,199.999L101.228,199.999z"></path><path d="M130.69,0L200,0L200,200L167.28,200z"></path><path d="M0,0L29.45,0L66.048,199.999L-0.002,199.999z"></path><path d="M400,0L429.45,0L466.048,199.999L399.998,199.999z"></path><path d="M200,66.05L399.999,29.452L399.999,101.232L199.999,101.232z"></path><path d="M200,101.23L400,101.23L400,130.68L200.001,167.278z"></path><path d="M200,167.28L399.999,130.682L399.999,199.992L199.999,199.992z"></path><path d="M200,0L400,0L400,29.45L200.001,66.048z"></path><path d="M0,266.05L199.999,229.452L199.999,301.232L-0.001,301.232z"></path><path d="M400,266.05L599.999,229.452L599.999,301.232L399.999,301.232z"></path><path d="M0,301.23L200,301.23L200,330.68L0.001,367.278z"></path><path d="M0,367.28L199.999,330.682L199.999,399.992L-0.001,399.992z"></path><path d="M400,367.28L599.999,330.682L599.999,399.992L399.999,399.992z"></path><path d="M0,200L200,200L200,229.45L0.001,266.048z"></path><path d="M229.45,200L301.23,200L301.23,400L266.05,400z"></path><path d="M301.23,200L330.68,200L367.278,399.999L301.228,399.999z"></path><path d="M330.69,200L400,200L400,400L367.28,400z"></path><path d="M200,200L229.45,200L266.048,399.999L199.998,399.999z"></path></svg>