<svg width="678.62" height="720" version="1.2" xmlns="http://www.w3.org/2000/svg" viewBox="0 0 678.62 720"><style type="text/css">path {stroke-width: 1; vector-effect: non-scaling-stroke; fill:none; stroke: #000; stroke-linecap: round; stroke-linejoin: miter;}</style><path d="M508.62,0L593.62,0L593.62,175.06L593.62,209.93L593.62,360L508.62,360L508.62,209.93L508.62,175.06z"></path><path d="M593.62,0L678.62,0L678.62,360L593.62,360L593.62,209.93L593.62,175.06z"></path><path d="M169.71,360L254.71,360L254.71,535.06L254.71,569.93L254.71,720L169.71,720L169.71,569.93L169.71,535.06z"></path><path d="M254.71,360L339.71,360L339.71,720L254.71,720L254.71,569.93L254.71,535.06z"></path><path d="M169.71,0L254.71,0L254.71,175.06L254.71,209.93L254.71,360L169.71,360L169.71,209.93L169.71,175.06z"></path><path d="M254.71,0L339.71,0L339.71,360L254.71,360L254.71,209.93L254.71,175.06z"></path><path d="M0,0L4.05,0L84.86,0L169.72,0L169.72,175.06L168.106,197.191L160.82,218.151L148.357,236.51L131.567,251.018L111.594,260.687L89.799,264.856L84.862,264.496L67.572,263.317L46.465,256.091L27.947,243.648L13.281,226.836L3.466,206.801L0.003,189.147z"></path><path d="M169.71,175.06L169.71,209.93L169.71,247L169.71,360L164.85,360L84.85,360L84.85,264.5L89.787,264.86L111.582,260.691L131.555,251.022L148.345,236.514L160.808,218.155L168.094,197.195z"></path><path d="M0,189.15L3.463,206.803L13.279,226.838L27.945,243.65L46.462,256.094L67.569,263.32L84.859,264.499L84.859,359.999L4.049,359.999L-0.001,359.999L-0.001,246.069L-0.001,228.789L-0.001,217.349z"></path><path d="M678.62,189.15L682.083,206.803L691.899,226.838L706.565,243.65L725.082,256.094L746.189,263.32L763.479,264.499L763.479,359.999L682.669,359.999L678.619,359.999L678.619,246.069L678.619,228.789L678.619,217.349z"></path><path d="M21.36,-236.51L38.15,-251.01799999999997L58.123,-260.686L79.918,-264.856L84.855,-264.496L102.145,-263.317L123.252,-256.091L141.769,-243.647L156.435,-226.83499999999998L166.251,-206.79999999999995L169.714,-189.14700000000005L169.714,0.0030000000000427463L165.664,0.0030000000000427463L84.854,0.0030000000000427463L-0.006,0.0030000000000427463L-0.006,-175.05700000000002L1.608,-197.188L8.894,-218.14800000000002z"></path><path d="M699.98,-236.51L716.77,-251.01799999999997L736.743,-260.686L758.538,-264.856L763.475,-264.496L780.765,-263.317L801.872,-256.091L820.389,-243.647L835.0550000000001,-226.83499999999998L844.871,-206.79999999999995L848.3340000000001,-189.14700000000005L848.3340000000001,0.0030000000000427463L844.284,0.0030000000000427463L763.474,0.0030000000000427463L678.614,0.0030000000000427463L678.614,-175.05700000000002L680.228,-197.188L687.514,-218.14800000000002z"></path><path d="M21.36,483.49L38.15,468.982L58.123,459.314L79.918,455.144L84.855,455.504L102.145,456.683L123.252,463.909L141.769,476.353L156.435,493.165L166.251,513.2L169.714,530.853L169.714,720.003L165.664,720.003L84.854,720.003L-0.006,720.003L-0.006,544.943L1.608,522.812L8.894,501.852z"></path><path d="M699.98,483.49L716.77,468.982L736.743,459.314L758.538,455.144L763.475,455.504L780.765,456.683L801.872,463.909L820.389,476.353L835.0550000000001,493.165L844.871,513.2L848.3340000000001,530.853L848.3340000000001,720.003L844.284,720.003L763.474,720.003L678.614,720.003L678.614,544.943L680.228,522.812L687.514,501.852z"></path><path d="M0,360L4.86,360L84.86,360L84.86,455.5L79.923,455.14L58.128,459.309L38.155,468.978L21.365,483.486L8.902,501.845L1.616,522.805L0.002,544.936L0.002,510.066L0.002,472.996z"></path><path d="M84.86,360L165.67,360L169.72,360L169.72,473.93L169.72,491.21L169.72,502.65L169.72,530.84L166.257,513.187L156.441,493.152L141.775,476.34L123.258,463.896L102.151,456.67L84.861,455.491z"></path><path d="M508.62,360L593.62,360L593.62,535.06L593.62,569.93L593.62,720L508.62,720L508.62,569.93L508.62,535.06z"></path><path d="M593.62,360L678.62,360L678.62,720L593.62,720L593.62,569.93L593.62,535.06z"></path><path d="M360.27,123.49L377.06,108.982L397.033,99.314L418.828,95.144L423.765,95.504L441.055,96.683L462.162,103.909L480.679,116.353L495.345,133.165L505.16,153.2L508.624,170.853L508.624,360.003L504.574,360.003L423.764,360.003L338.904,360.003L338.904,184.943L340.518,162.812L347.804,141.852z"></path><path d="M338.91,0L343.77,0L423.77,0L423.77,95.5L418.833,95.14L397.038,99.309L377.065,108.978L360.275,123.486L347.812,141.845L340.526,162.805L338.912,184.936L338.912,150.066L338.912,112.996z"></path><path d="M423.76,0L504.57,0L508.62,0L508.62,113.93L508.62,131.21L508.62,142.65L508.62,170.84L505.157,153.187L495.341,133.152L480.675,116.34L462.158,103.896L441.051,96.67L423.761,95.491z"></path><path d="M338.91,360L342.96,360L423.77,360L508.63,360L508.63,535.06L507.016,557.191L499.73,578.151L487.267,596.51L470.477,611.018L450.504,620.687L428.709,624.856L423.772,624.496L406.482,623.317L385.375,616.091L366.857,603.648L352.191,586.836L342.376,566.801L338.913,549.147z"></path><path d="M508.62,535.06L508.62,569.93L508.62,607L508.62,720L503.76,720L423.76,720L423.76,624.5L428.697,624.86L450.492,620.691L470.465,611.022L487.255,596.514L499.718,578.155L507.004,557.195z"></path><path d="M338.91,549.15L342.373,566.803L352.189,586.838L366.855,603.65L385.372,616.094L406.479,623.32L423.769,624.499L423.769,719.999L342.959,719.999L338.909,719.999L338.909,606.069L338.909,588.789L338.909,577.349z"></path></svg>