<svg width="450" height="450" version="1.2" xmlns="http://www.w3.org/2000/svg" viewBox="0 0 450 450"><style type="text/css">path {stroke-width: 1; vector-effect: non-scaling-stroke; fill:none; stroke: #000; stroke-linecap: round; stroke-linejoin: miter;}</style><path d="M0,0L225,0L225,30L83.68,30L76.675,30.459L69.79,31.829L63.142,34.085L56.846,37.19L51.009,41.09L45.732,45.719L41.103,50.997L37.203,56.834L34.098,63.13L31.841,69.777L30.472,76.662L30.013,83.667L30.013,366.307L30.472,373.312L31.841,380.197L34.098,386.845L37.203,393.141L41.103,398.978L45.732,404.256L51.009,408.884L56.846,412.784L63.142,415.889L69.79,418.146L76.675,419.515L83.68,419.974L225,419.974L225,449.974L0,449.974z"></path><path d="M225,0L450,0L450,450L225,450L225,420L366.32,420L373.325,419.541L380.21,418.171L386.858,415.915L393.154,412.81L398.991,408.91L404.268,404.281L408.897,399.003L412.797,393.166L415.902,386.87L418.159,380.223L419.528,373.338L419.987,366.333L419.987,83.693L419.528,76.688L418.159,69.803L415.902,63.155L412.797,56.859L408.897,51.022L404.268,45.744L398.991,41.116L393.154,37.216L386.858,34.111L380.21,31.854L373.325,30.485L366.32,30.026L225,30.026z"></path><path d="M45.72,45.72L50.998,41.091L56.835,37.191L63.131,34.086L69.778,31.83L76.663,30.46L83.668,30.001L224.988,30.001L224.988,420.001L83.668,420.001L76.663,419.542L69.778,418.173L63.131,415.916L56.835,412.811L50.998,408.911L45.72,404.283L41.091,399.005L37.191,393.168L34.086,386.872L31.83,380.224L30.46,373.339L30.001,366.334L30.001,83.694L30.46,76.689L31.83,69.804L34.086,63.157L37.191,56.861L41.091,51.024z"></path><path d="M225,30L366.32,30L373.325,30.459L380.21,31.829L386.858,34.085L393.154,37.19L398.991,41.09L404.268,45.719L408.897,50.997L412.797,56.834L415.902,63.13L418.159,69.777L419.528,76.662L419.987,83.667L419.987,366.307L419.528,373.312L418.159,380.197L415.902,386.845L412.797,393.141L408.897,398.978L404.268,404.256L398.991,408.884L393.154,412.784L386.858,415.889L380.21,418.146L373.325,419.515L366.32,419.974L225,419.974z"></path></svg>