<svg width="400" height="247" version="1.2" xmlns="http://www.w3.org/2000/svg" viewBox="0 0 400 247"><style type="text/css">path {stroke-width: 1; vector-effect: non-scaling-stroke; fill:none; stroke: #000; stroke-linecap: round; stroke-linejoin: miter;}</style><path d="M75,-123.5L150.00099999999998,0L75,123.5L-0.0009999999999763531,0z"></path><path d="M475,-123.5L550.001,0L475,123.5L399.999,0z"></path><path d="M75,123.5L150.00099999999998,247L75,370.5L-0.0009999999999763531,247z"></path><path d="M475,123.5L550.001,247L475,370.5L399.999,247z"></path><path d="M-250,0L0,0L75.00099999999998,123.5L0,247L-250,247L-325.001,123.5z"></path><path d="M150,0L400,0L475.001,123.5L400,247L150,247L74.999,123.5z"></path><path d="M75,-123.5L150.001,0L75,123.5L-0.001,0z"></path><path d="M475,-123.5L550.001,0L475,123.5L399.999,0z"></path><path d="M75,123.5L150.001,247L75,370.5L-0.001,247z"></path><path d="M475,123.5L550.001,247L475,370.5L399.999,247z"></path></svg>