<svg width="810" height="810" version="1.2" xmlns="http://www.w3.org/2000/svg" viewBox="0 0 810 810"><style type="text/css">path {stroke-width: 1; vector-effect: non-scaling-stroke; fill:none; stroke: #000; stroke-linecap: round; stroke-linejoin: miter;}</style><path d="M405.07,405.07L457.53,405.07L497.526,363.884L537.521,405.07L589.981,405.07L589.981,457.53L631.167,497.526L589.981,537.521L589.981,589.981L537.521,589.981L497.526,631.167L457.53,589.981L405.07,589.981L405.07,537.521L363.884,497.526L405.07,457.53z"></path><path d="M0,185L52.46,185L92.456,226.186L132.27,185.187L146.97,185.187L294.98,185.187L294.98,184.997L457.52,184.997L497.515,226.182L537.511,184.997L589.971,184.997L589.971,404.997L537.511,404.997L497.515,363.811L457.701,404.81L443.001,404.81L294.991,404.81L294.991,405L132.451,405L92.456,363.814L52.46,405L0,405z"></path><path d="M185.07,-404.93L405.07,-404.93L405.07,-352.47L363.884,-312.474L404.883,-272.65999999999997L404.883,-257.96000000000004L404.883,-109.95000000000005L405.073,-109.95000000000005L405.073,52.59000000000003L363.888,92.58500000000004L405.073,132.58100000000002L405.073,185.04100000000005L185.073,185.04100000000005L185.073,132.58100000000002L226.259,92.58500000000004L185.26,52.77099999999996L185.26,38.071000000000026L185.26,-109.93899999999996L185.07,-109.93899999999996L185.07,-272.47900000000004L226.256,-312.474L185.07,-352.47z"></path><path d="M185.07,405.07L405.07,405.07L405.07,457.53L363.884,497.526L404.883,537.34L404.883,552.04L404.883,700.05L405.073,700.05L405.073,862.59L363.888,902.585L405.073,942.581L405.073,995.041L185.073,995.041L185.073,942.581L226.259,902.585L185.26,862.771L185.26,848.071L185.26,700.061L185.07,700.061L185.07,537.521L226.256,497.526L185.07,457.53z"></path><path d="M405.07,0.07000000000005002L457.53,0.07000000000005002L497.526,-41.115999999999985L537.521,0.07000000000005002L589.981,0.07000000000005002L589.981,52.52999999999997L631.167,92.52599999999995L589.981,132.52099999999996L589.981,184.981L537.521,184.981L497.526,226.16699999999992L457.53,184.981L405.07,184.981L405.07,132.52099999999996L363.884,92.52599999999995L405.07,52.52999999999997z"></path><path d="M405.07,810.07L457.53,810.07L497.526,768.884L537.521,810.07L589.981,810.07L589.981,862.53L631.167,902.526L589.981,942.521L589.981,994.981L537.521,994.981L497.526,1036.167L457.53,994.981L405.07,994.981L405.07,942.521L363.884,902.526L405.07,862.53z"></path><path d="M0,0.07000000000005002L52.460000000000036,0.07000000000005002L92.45600000000002,-41.115999999999985L132.45100000000002,0.07000000000005002L184.91099999999994,0.07000000000005002L184.91099999999994,52.52999999999997L226.09699999999998,92.52599999999995L184.91099999999994,132.52099999999996L184.91099999999994,184.981L132.45100000000002,184.981L92.45600000000002,226.16699999999992L52.460000000000036,184.981L0,184.981L0,132.52099999999996L-41.186000000000035,92.52599999999995L0,52.52999999999997z"></path><path d="M810,0.07000000000005002L862.46,0.07000000000005002L902.456,-41.115999999999985L942.451,0.07000000000005002L994.911,0.07000000000005002L994.911,52.52999999999997L1036.097,92.52599999999995L994.911,132.52099999999996L994.911,184.981L942.451,184.981L902.456,226.16699999999992L862.46,184.981L810,184.981L810,132.52099999999996L768.814,92.52599999999995L810,52.52999999999997z"></path><path d="M0,810.07L52.460000000000036,810.07L92.45600000000002,768.884L132.45100000000002,810.07L184.91099999999994,810.07L184.91099999999994,862.53L226.09699999999998,902.526L184.91099999999994,942.521L184.91099999999994,994.981L132.45100000000002,994.981L92.45600000000002,1036.167L52.460000000000036,994.981L0,994.981L0,942.521L-41.186000000000035,902.526L0,862.53z"></path><path d="M810,810.07L862.46,810.07L902.456,768.884L942.451,810.07L994.911,810.07L994.911,862.53L1036.097,902.526L994.911,942.521L994.911,994.981L942.451,994.981L902.456,1036.167L862.46,994.981L810,994.981L810,942.521L768.814,902.526L810,862.53z"></path><path d="M-405.07,-219.92999999999995L-352.61,-219.92999999999995L-312.615,-178.74400000000003L-272.79999999999995,-219.74300000000005L-258.1,-219.74300000000005L-110.09000000000003,-219.74300000000005L-110.09000000000003,-219.933L52.450000000000045,-219.933L92.44500000000005,-178.74800000000005L132.44100000000003,-219.933L184.90099999999995,-219.933L184.90099999999995,0.06700000000000728L132.44100000000003,0.06700000000000728L92.44500000000005,-41.11900000000003L52.63099999999997,-0.12000000000000455L37.93100000000004,-0.12000000000000455L-110.07899999999995,-0.12000000000000455L-110.07899999999995,0.07000000000005002L-272.619,0.07000000000005002L-312.615,-41.115999999999985L-352.61,0.07000000000005002L-405.07,0.07000000000005002z"></path><path d="M404.93,-219.92999999999995L457.39,-219.92999999999995L497.385,-178.74400000000003L537.2,-219.74300000000005L551.9,-219.74300000000005L699.91,-219.74300000000005L699.91,-219.933L862.45,-219.933L902.445,-178.74800000000005L942.441,-219.933L994.901,-219.933L994.901,0.06700000000000728L942.441,0.06700000000000728L902.445,-41.11900000000003L862.631,-0.12000000000000455L847.931,-0.12000000000000455L699.921,-0.12000000000000455L699.921,0.07000000000005002L537.381,0.07000000000005002L497.385,-41.115999999999985L457.39,0.07000000000005002L404.93,0.07000000000005002z"></path><path d="M-405.07,590.07L-352.61,590.07L-312.615,631.256L-272.79999999999995,590.257L-258.1,590.257L-110.09000000000003,590.257L-110.09000000000003,590.067L52.450000000000045,590.067L92.44500000000005,631.252L132.44100000000003,590.067L184.90099999999995,590.067L184.90099999999995,810.067L132.44100000000003,810.067L92.44500000000005,768.881L52.63099999999997,809.88L37.93100000000004,809.88L-110.07899999999995,809.88L-110.07899999999995,810.07L-272.619,810.07L-312.615,768.884L-352.61,810.07L-405.07,810.07z"></path><path d="M404.93,590.07L457.39,590.07L497.385,631.256L537.2,590.257L551.9,590.257L699.91,590.257L699.91,590.067L862.45,590.067L902.445,631.252L942.441,590.067L994.901,590.067L994.901,810.067L942.441,810.067L902.445,768.881L862.631,809.88L847.931,809.88L699.921,809.88L699.921,810.07L537.381,810.07L497.385,768.884L457.39,810.07L404.93,810.07z"></path><path d="M0,405.07L52.460000000000036,405.07L92.45600000000002,363.884L132.45100000000002,405.07L184.91099999999994,405.07L184.91099999999994,457.53L226.09699999999998,497.526L184.91099999999994,537.521L184.91099999999994,589.981L132.45100000000002,589.981L92.45600000000002,631.167L52.460000000000036,589.981L0,589.981L0,537.521L-41.186000000000035,497.526L0,457.53z"></path><path d="M810,405.07L862.46,405.07L902.456,363.884L942.451,405.07L994.911,405.07L994.911,457.53L1036.097,497.526L994.911,537.521L994.911,589.981L942.451,589.981L902.456,631.167L862.46,589.981L810,589.981L810,537.521L768.814,497.526L810,457.53z"></path><path d="M-220,0L0,0L0,52.46L-41.186000000000035,92.456L-0.18700000000001182,132.27L-0.18700000000001182,146.97L-0.18700000000001182,294.98L0.0030000000000427463,294.98L0.0030000000000427463,457.52L-41.182000000000016,497.515L0.0030000000000427463,537.511L0.0030000000000427463,589.971L-219.99699999999996,589.971L-219.99699999999996,537.511L-178.81100000000004,497.515L-219.80999999999995,457.701L-219.80999999999995,443.001L-219.80999999999995,294.991L-220,294.991L-220,132.451L-178.81399999999996,92.456L-220,52.46z"></path><path d="M590,0L810,0L810,52.46L768.814,92.456L809.813,132.27L809.813,146.97L809.813,294.98L810.003,294.98L810.003,457.52L768.818,497.515L810.003,537.511L810.003,589.971L590.003,589.971L590.003,537.511L631.189,497.515L590.19,457.701L590.19,443.001L590.19,294.991L590,294.991L590,132.451L631.186,92.456L590,52.46z"></path></svg>