<svg width="228" height="155" version="1.2" xmlns="http://www.w3.org/2000/svg" viewBox="0 0 228 155"><style type="text/css">path {stroke-width: 1; vector-effect: non-scaling-stroke; fill:none; stroke: #000; stroke-linecap: round; stroke-linejoin: miter;}</style><path d="M0,-131.04L19.128,-110.592L66.596,-154.997L114.065,-110.592L133.193,-131.04L133.193,-33.040000000000006L114.065,-53.488L114.065,44.512L66.596,0.10800000000000409L19.128,44.512L19.128,-53.488L0,-33.040000000000006z"></path><path d="M0,23.96L19.128,44.408L66.596,0.003L114.065,44.408L133.193,23.96L133.193,121.96L114.065,101.512L114.065,199.512L66.596,155.108L19.128,199.512L19.128,101.512L0,121.96z"></path><path d="M-113.94,-53.489999999999995L-94.81200000000001,-33.042L-47.343999999999994,-77.447L0.125,-33.042L19.252999999999986,-53.489999999999995L19.252999999999986,44.50999999999999L0.125,24.062000000000012L0.125,122.06200000000001L-47.343999999999994,77.65799999999999L-94.81200000000001,122.06200000000001L-94.81200000000001,24.062000000000012L-113.94,44.50999999999999z"></path><path d="M114.06,-53.489999999999995L133.188,-33.042L180.656,-77.447L228.125,-33.042L247.253,-53.489999999999995L247.253,44.50999999999999L228.125,24.062000000000012L228.125,122.06200000000001L180.656,77.65799999999999L133.188,122.06200000000001L133.188,24.062000000000012L114.06,44.50999999999999z"></path><path d="M-113.94,101.51L-94.81200000000001,121.958L-47.343999999999994,77.553L0.125,121.958L19.252999999999986,101.51L19.252999999999986,199.51L0.125,179.062L0.125,277.062L-47.343999999999994,232.658L-94.81200000000001,277.062L-94.81200000000001,179.062L-113.94,199.51z"></path><path d="M114.06,101.51L133.188,121.958L180.656,77.553L228.125,121.958L247.253,101.51L247.253,199.51L228.125,179.062L228.125,277.062L180.656,232.658L133.188,277.062L133.188,179.062L114.06,199.51z"></path></svg>