<svg width="319" height="552" version="1.2" xmlns="http://www.w3.org/2000/svg" viewBox="0 0 319 552"><style type="text/css">path {stroke-width: 1; vector-effect: non-scaling-stroke; fill:none; stroke: #000; stroke-linecap: round; stroke-linejoin: miter;}</style><path d="M30,32L60.003,104.042L30.003,156.004L0.003,104.042z"></path><path d="M81.96,246L141.96,246L189.349,308.004L111.957,297.967z"></path><path d="M189.35,308L219.353,380.042L189.353,432.004L159.353,380.042z"></path><path d="M-47.69,410.04L29.701999999999998,400.002L-17.687000000000012,462.007L-77.68700000000001,462.007z"></path><path d="M271.31,410.04L348.702,400.002L301.313,462.007L241.313,462.007z"></path><path d="M-22.25999999999999,246L29.701999999999998,276L-0.2980000000000018,327.962L-52.25999999999999,297.962z"></path><path d="M296.74,246L348.702,276L318.702,327.962L266.74,297.962z"></path><path d="M236.74,246L296.74,246L266.74,297.962L189.348,307.999z"></path><path d="M219.04999999999995,380.04L271.01199999999994,410.04L241.01199999999994,462.002L189.05,432.002z"></path><path d="M189.05,0L241.01199999999994,-30L271.01199999999994,21.96199999999999L219.04999999999995,51.96199999999999z"></path><path d="M189.05,552L241.01199999999994,522L271.01199999999994,573.962L219.04999999999995,603.962z"></path><path d="M241.01,462L301.01,462L301.01,522L241.01,522z"></path><path d="M77.07999999999998,462L137.07999999999998,462L137.07999999999998,522L77.07999999999998,522z"></path><path d="M29.69999999999999,400L107.09199999999998,410.038L137.09199999999998,461.999L77.09199999999998,461.999z"></path><path d="M137.07999999999998,-30L189.04199999999997,0L159.04199999999997,51.96199999999999L107.07999999999998,21.96199999999999z"></path><path d="M137.07999999999998,522L189.04199999999997,552L159.04199999999997,603.962L107.07999999999998,573.962z"></path><path d="M137.07999999999998,462L189.04199999999997,432L241.00300000000004,462L241.00300000000004,522L189.04199999999997,552L137.07999999999998,522z"></path><path d="M107.07999999999998,410.04L159.04199999999997,380.04L189.04199999999997,432.002L137.07999999999998,462.002z"></path><path d="M29.69999999999999,276L59.69999999999999,327.962L29.697000000000003,400.004L-0.3059999999999832,327.962z"></path><path d="M348.7,276L378.7,327.962L348.697,400.004L318.694,327.962z"></path><path d="M-129.65,308L-52.25799999999998,297.962L-0.29700000000002547,327.962L29.706000000000017,400.004L-47.685,410.042L-99.64699999999999,380.042z"></path><path d="M189.35,308L266.742,297.962L318.703,327.962L348.706,400.004L271.315,410.042L219.353,380.042z"></path><path d="M29.69999999999999,-152L77.089,-89.99599999999998L77.089,-29.99599999999998L29.69999999999999,32.009000000000015L-17.68900000000002,-29.99599999999998L-17.68900000000002,-89.99599999999998z"></path><path d="M348.7,-152L396.089,-89.99599999999998L396.089,-29.99599999999998L348.7,32.009000000000015L301.311,-29.99599999999998L301.311,-89.99599999999998z"></path><path d="M29.69999999999999,400L77.089,462.004L77.089,522.004L29.69999999999999,584.009L-17.68900000000002,522.004L-17.68900000000002,462.004z"></path><path d="M348.7,400L396.089,462.004L396.089,522.004L348.7,584.009L301.311,522.004L301.311,462.004z"></path><path d="M77.07999999999998,-30L137.07999999999998,-30L107.07999999999998,21.96199999999999L29.687999999999988,31.999000000000024z"></path><path d="M77.07999999999998,522L137.07999999999998,522L107.07999999999998,573.962L29.687999999999988,583.999z"></path><path d="M-77.69,-30L-17.689999999999998,-30L29.699000000000012,32.00400000000002L-47.692999999999984,21.966999999999985z"></path><path d="M241.31,-30L301.31,-30L348.699,32.00400000000002L271.307,21.966999999999985z"></path><path d="M-77.69,522L-17.689999999999998,522L29.699000000000012,584.004L-47.692999999999984,573.967z"></path><path d="M241.31,522L301.31,522L348.699,584.004L271.307,573.967z"></path><path d="M59.69999999999999,327.96L111.66199999999998,297.96L189.053,307.998L159.05,380.04L107.089,410.04L29.697000000000003,400.002z"></path><path d="M29.69999999999999,276L81.66199999999998,246L111.66199999999998,297.962L59.69999999999999,327.962z"></path><path d="M59.69999999999999,104.04L111.66199999999998,134.04L81.66199999999998,186.002L29.69999999999999,156.002z"></path><path d="M81.66000000000003,186L141.66000000000003,186L141.66000000000003,246L81.66000000000003,246z"></path><path d="M236.74,186L296.74,186L296.74,246L236.74,246z"></path><path d="M-22.25999999999999,186L29.701999999999998,156L81.66300000000001,186L81.66300000000001,246L29.701999999999998,276L-22.25999999999999,246z"></path><path d="M296.74,186L348.702,156L400.663,186L400.663,246L348.702,276L296.74,246z"></path><path d="M-52.25999999999999,134.04L-0.2980000000000018,104.04L29.701999999999998,156.002L-22.25999999999999,186.002z"></path><path d="M266.74,134.04L318.702,104.04L348.702,156.002L296.74,186.002z"></path><path d="M189.35,124L236.739,186.004L236.739,246.004L189.35,308.009L141.961,246.004L141.961,186.004z"></path><path d="M111.96,134.04L189.352,124.002L141.963,186.007L81.963,186.007z"></path><path d="M189.35,124L266.742,134.038L296.742,185.999L236.742,185.999z"></path><path d="M30,32L107.392,21.962L159.353,51.962L189.356,124.004L111.965,134.042L60.003,104.042z"></path><path d="M-99.65,51.96L-47.68799999999999,21.96L29.702999999999975,31.998L-0.30000000000001137,104.04L-52.261000000000024,134.04L-129.653,124.002z"></path><path d="M219.35,51.96L271.312,21.96L348.703,31.998L318.7,104.04L266.739,134.04L189.347,124.002z"></path><path d="M189.35,0L219.35,51.962L189.347,124.004L159.344,51.962z"></path></svg>