<svg width="140" height="520" version="1.2" xmlns="http://www.w3.org/2000/svg" viewBox="0 0 140 520"><style type="text/css">path {stroke-width: 1; vector-effect: non-scaling-stroke; fill:none; stroke: #000; stroke-linecap: round; stroke-linejoin: miter;}</style><path d="M10,40L60,40L60,80L70,80L70,260L60,260L60,300L10,300z"></path><path d="M-10,0L10,0L10,40L10,300L10,340L0,340L-10,340L-10,300L-10,40z"></path><path d="M130,0L150,0L150,40L150,300L150,340L140,340L130,340L130,300L130,40z"></path><path d="M10,-220L60,-220L60,40L10,40L10,0L0,0L0,-180L10,-180z"></path><path d="M10,300L60,300L60,560L10,560L10,520L0,520L0,340L10,340z"></path><path d="M80,40L130,40L130,300L80,300L80,260L70,260L70,80L80,80z"></path><path d="M60,-260L70,-260L80,-260L80,-220L80,40L80,80L60,80L60,40L60,-220z"></path><path d="M60,260L70,260L80,260L80,300L80,560L80,600L60,600L60,560L60,300z"></path><path d="M80,-220L130,-220L130,-180L140,-180L140,0L130,0L130,40L80,40z"></path><path d="M80,300L130,300L130,340L140,340L140,520L130,520L130,560L80,560z"></path></svg>