<svg width="961" height="240" version="1.2" xmlns="http://www.w3.org/2000/svg" viewBox="0 0 961 240"><style type="text/css">path {stroke-width: 1; vector-effect: non-scaling-stroke; fill:none; stroke: #000; stroke-linecap: round; stroke-linejoin: miter;}</style><path d="M773.71,-96.80000000000001L814.172,-95.58500000000001L854.634,-94.37L854.634,3.1999999999999886L773.71,5.6299999999999955z"></path><path d="M773.71,143.2L814.172,144.415L854.634,145.63L854.634,243.2L773.71,245.63z"></path><path d="M0,-120L39.422,-118.816L78.844,-117.632L78.844,26.44799999999998L-0.01,28.814999999999998z"></path><path d="M961,-120L1000.422,-118.816L1039.844,-117.632L1039.844,26.44799999999998L960.99,28.814999999999998z"></path><path d="M0,120L39.422,121.184L78.844,122.368L78.844,266.448L-0.01,268.815z"></path><path d="M961,120L1000.422,121.184L1039.844,122.368L1039.844,266.448L960.99,268.815z"></path><path d="M116.68,25.31L188.837,23.143L188.837,125.653L154.513,124.622L116.68,123.486z"></path><path d="M78.85,-117.64L116.683,-116.504L154.516,-115.368L154.516,24.182000000000016L78.85,26.454000000000008z"></path><path d="M78.85,122.36L116.683,123.496L154.516,124.632L154.516,264.182L78.85,266.454z"></path><path d="M299.39,-111.02000000000001L334.834,-109.95599999999999L370.278,-108.89099999999999L370.278,17.718999999999994L299.39,19.84699999999998z"></path><path d="M299.39,128.98L334.834,130.044L370.278,131.109L370.278,257.719L299.39,259.847z"></path><path d="M516.17,-104.52000000000001L557.501,-103.279L598.833,-102.03800000000001L598.833,10.861999999999995L516.18,13.343999999999994z"></path><path d="M516.17,135.48L557.501,136.721L598.833,137.962L598.833,250.862L516.18,253.344z"></path><path d="M408.46,16.57L481.407,14.379L481.407,134.429L446.643,133.386L408.46,132.239z"></path><path d="M370.28,-108.9L408.463,-107.75299999999999L446.646,-106.607L446.646,15.423000000000002L370.28,17.716000000000008z"></path><path d="M370.28,131.1L408.463,132.247L446.646,133.393L446.646,255.423L370.28,257.716z"></path><path d="M641.51,9.58L728.951,6.954L728.951,141.854L684.201,140.51L641.52,139.229z"></path><path d="M223.16,-113.31L261.273,-112.166L299.386,-111.02099999999999L299.386,19.839L223.15,22.127999999999986z"></path><path d="M223.16,126.69L261.273,127.834L299.386,128.979L299.386,259.839L223.15,262.128z"></path><path d="M728.95,6.96L814.162,4.401L814.162,144.411L773.7,143.196L728.95,141.852z"></path><path d="M188.84,23.15L261.277,20.975L261.277,127.825L223.165,126.68L188.84,125.65z"></path><path d="M907.81,1.59L960.996,-0.007L960.996,148.803L907.81,147.206z"></path><path d="M907.81,241.59L960.996,239.993L960.996,388.803L907.81,387.206z"></path><path d="M481.41,14.38L557.506,12.095L557.506,136.715L516.174,135.474L481.41,134.43z"></path><path d="M814.17,4.4L907.818,1.588L907.818,147.208L854.632,145.611L814.17,144.396z"></path><path d="M557.5,12.1L641.512,9.577L641.512,139.227L598.831,137.946L557.5,136.704z"></path><path d="M261.27,20.98L334.827,18.771L334.827,130.041L299.383,128.977L261.27,127.832z"></path><path d="M446.64,-106.61000000000001L481.404,-105.566L516.169,-104.52199999999999L516.169,13.337999999999994L446.64,15.425999999999988z"></path><path d="M446.64,133.39L481.404,134.434L516.169,135.478L516.169,253.338L446.64,255.426z"></path><path d="M334.83,18.77L408.457,16.559L408.457,132.239L370.274,131.093L334.83,130.028z"></path><path d="M684.2,-99.49000000000001L728.95,-98.14599999999999L773.7,-96.80199999999999L773.7,5.617999999999995L684.19,8.305000000000007z"></path><path d="M684.2,140.51L728.95,141.854L773.7,143.198L773.7,245.618L684.19,248.305z"></path><path d="M39.43,27.63L116.685,25.31L116.685,123.5L78.852,122.364L39.43,121.18z"></path><path d="M-106.37,-94.38L-53.18399999999997,-92.78299999999999L0.0019999999999527063,-91.186L0.0019999999999527063,0.003999999999990678L-106.37,3.1980000000000075z"></path><path d="M854.63,-94.38L907.816,-92.78299999999999L961.002,-91.186L961.002,0.003999999999990678L854.63,3.1980000000000075z"></path><path d="M-106.37,145.62L-53.18399999999997,147.217L0.0019999999999527063,148.814L0.0019999999999527063,240.004L-106.37,243.198z"></path><path d="M854.63,145.62L907.816,147.217L961.002,148.814L961.002,240.004L854.63,243.198z"></path><path d="M598.83,-102.05000000000001L641.511,-100.768L684.192,-99.487L684.192,8.302999999999997L598.82,10.86699999999999z"></path><path d="M598.83,137.95L641.511,139.232L684.192,140.513L684.192,248.303L598.82,250.867z"></path><path d="M154.51,-115.37L188.835,-114.339L223.159,-113.309L223.159,22.12099999999998L154.52,24.182999999999993z"></path><path d="M154.51,124.63L188.835,125.661L223.159,126.691L223.159,262.121L154.52,264.183z"></path><path d="M0,28.81L39.422,27.626L39.422,121.176L0,119.992z"></path></svg>