<svg width="679.43" height="1080" version="1.2" xmlns="http://www.w3.org/2000/svg" viewBox="0 0 679.43 1080"><style type="text/css">path {stroke-width: 1; vector-effect: non-scaling-stroke; fill:none; stroke: #000; stroke-linecap: round; stroke-linejoin: miter;}</style><path d="M361.07,483.49L377.86,468.982L397.833,459.314L419.628,455.144L424.565,455.504L441.855,456.683L462.962,463.909L481.479,476.353L496.145,493.165L505.961,513.2L509.424,530.853L509.424,720.003L505.374,720.003L424.564,720.003L339.704,720.003L339.704,544.943L341.318,522.812L348.604,501.852z"></path><path d="M339.71,360L344.57,360L424.57,360L424.57,455.5L419.633,455.14L397.838,459.309L377.865,468.978L361.075,483.486L348.612,501.845L341.326,522.805L339.712,544.936L339.712,510.066L339.712,472.996z"></path><path d="M424.57,360L505.38,360L509.43,360L509.43,473.93L509.43,491.21L509.43,502.65L509.43,530.84L505.967,513.187L496.151,493.152L481.485,476.34L462.968,463.896L441.861,456.67L424.571,455.491z"></path><path d="M339.71,184.94L340.516,189.154L343.879,206.735L353.548,226.708L368.056,243.498L386.415,255.961L407.375,263.248L424.569,264.501L424.569,360.001L339.709,360.001z"></path><path d="M361.07,123.49L377.86,108.982L397.833,99.314L419.628,95.144L424.565,95.504L441.759,96.758L462.719,104.044L481.078,116.507L495.586,133.297L505.255,153.27L509.424,175.065L507.81,197.196L500.524,218.156L488.061,236.515L471.271,251.024L451.298,260.692L429.503,264.861L424.566,264.501L407.372,263.248L386.412,255.961L368.053,243.498L353.544,226.708L343.876,206.735L340.513,189.154L340.513,173.874L341.319,162.813L348.606,141.854z"></path><path d="M424.57,0L504.57,0L509.43,0L509.43,175.06L505.261,153.265L495.592,133.292L481.084,116.502L462.725,104.039L441.765,96.752L424.571,95.499z"></path><path d="M509.43,175.06L509.43,209.93L509.43,360L504.57,360L424.57,360L424.57,264.5L429.507,264.86L451.302,260.691L471.275,251.022L488.065,236.514L500.528,218.155L507.814,197.195z"></path><path d="M339.71,0L340.52,0L344.57,0L424.57,0L424.57,95.5L419.633,95.14L397.838,99.309L377.865,108.978L361.075,123.486L348.612,141.845L341.326,162.805L340.519,173.866L339.713,184.926z"></path><path d="M340.52,173.87L340.52,189.15L339.714,184.936z"></path><path d="M509.43,720L594.43,720L594.43,895.06L594.43,929.93L594.43,1080L509.43,1080L509.43,929.93L509.43,895.06z"></path><path d="M594.43,720L679.43,720L679.43,1080L594.43,1080L594.43,929.93L594.43,895.06z"></path><path d="M509.43,360L594.43,360L594.43,535.06L594.43,569.93L594.43,720L509.43,720L509.43,569.93L509.43,535.06z"></path><path d="M594.43,360L679.43,360L679.43,720L594.43,720L594.43,569.93L594.43,535.06z"></path><path d="M509.43,0L594.43,0L594.43,175.06L594.43,209.93L594.43,360L509.43,360L509.43,209.93L509.43,175.06z"></path><path d="M594.43,0L679.43,0L679.43,360L594.43,360L594.43,209.93L594.43,175.06z"></path><path d="M0,-175.05999999999995L0.806,-170.846L4.169,-153.265L13.838,-133.29200000000003L28.346,-116.50199999999995L46.705,-104.03899999999999L67.665,-96.75199999999995L84.859,-95.49900000000002L84.859,0.0009999999999763531L-0.001,0.0009999999999763531z"></path><path d="M679.43,-175.05999999999995L680.236,-170.846L683.5989999999999,-153.265L693.2679999999999,-133.29200000000003L707.776,-116.50199999999995L726.135,-104.03899999999999L747.0949999999999,-96.75199999999995L764.289,-95.49900000000002L764.289,0.0009999999999763531L679.429,0.0009999999999763531z"></path><path d="M0,904.94L0.806,909.154L4.169,926.735L13.838,946.708L28.346,963.498L46.705,975.961L67.665,983.248L84.859,984.501L84.859,1080.001L-0.001,1080.001z"></path><path d="M679.43,904.94L680.236,909.154L683.5989999999999,926.735L693.2679999999999,946.708L707.776,963.498L726.135,975.961L747.0949999999999,983.248L764.289,984.501L764.289,1080.001L679.429,1080.001z"></path><path d="M21.36,843.49L38.15,828.982L58.123,819.314L79.918,815.144L84.855,815.504L102.049,816.758L123.009,824.044L141.368,836.507L155.876,853.297L165.545,873.27L169.714,895.065L168.1,917.196L160.814,938.156L148.351,956.515L131.561,971.024L111.588,980.692L89.793,984.861L84.856,984.501L67.662,983.248L46.702,975.961L28.343,963.498L13.834,946.708L4.166,926.735L0.803,909.154L0.803,893.874L1.609,882.813L8.896,861.854z"></path><path d="M84.86,720L164.86,720L169.72,720L169.72,895.06L165.551,873.265L155.882,853.292L141.374,836.502L123.015,824.039L102.055,816.752L84.861,815.499z"></path><path d="M169.71,895.06L169.71,929.93L169.71,1080L164.85,1080L84.85,1080L84.85,984.5L89.787,984.86L111.582,980.691L131.555,971.022L148.345,956.514L160.808,938.155L168.094,917.195z"></path><path d="M0,720L0.81,720L4.86,720L84.86,720L84.86,815.5L79.923,815.14L58.128,819.309L38.155,828.978L21.365,843.486L8.902,861.845L1.616,882.805L0.809,893.866L0.003,904.926z"></path><path d="M0.81,893.87L0.81,909.15L0.004,904.936z"></path><path d="M339.71,720L343.76,720L424.57,720L509.43,720L509.43,895.06L507.816,917.191L500.53,938.151L488.067,956.51L471.277,971.018L451.304,980.687L429.509,984.856L424.572,984.496L407.282,983.317L386.175,976.091L367.657,963.648L352.991,946.836L343.176,926.801L339.713,909.147z"></path><path d="M509.43,895.06L509.43,929.93L509.43,967L509.43,1080L504.57,1080L424.57,1080L424.57,984.5L429.507,984.86L451.302,980.691L471.275,971.022L488.065,956.514L500.528,938.155L507.814,917.195z"></path><path d="M339.71,909.15L343.173,926.803L352.989,946.838L367.655,963.65L386.172,976.094L407.279,983.32L424.569,984.499L424.569,1079.999L343.759,1079.999L339.709,1079.999L339.709,966.069L339.709,948.789L339.709,937.349z"></path><path d="M0,360L4.05,360L84.86,360L169.72,360L169.72,535.06L168.106,557.191L160.82,578.151L148.357,596.51L131.567,611.018L111.594,620.687L89.799,624.856L84.862,624.496L67.572,623.317L46.465,616.091L27.947,603.648L13.281,586.836L3.466,566.801L0.003,549.147z"></path><path d="M169.71,535.06L169.71,569.93L169.71,607L169.71,720L164.85,720L84.85,720L84.85,624.5L89.787,624.86L111.582,620.691L131.555,611.022L148.345,596.514L160.808,578.155L168.094,557.195z"></path><path d="M0,549.15L3.463,566.803L13.279,586.838L27.945,603.65L46.462,616.094L67.569,623.32L84.859,624.499L84.859,719.999L4.049,719.999L-0.001,719.999L-0.001,606.069L-0.001,588.789L-0.001,577.349z"></path><path d="M679.43,549.15L682.8929999999999,566.803L692.709,586.838L707.375,603.65L725.8919999999999,616.094L746.9989999999999,623.32L764.289,624.499L764.289,719.999L683.4789999999999,719.999L679.429,719.999L679.429,606.069L679.429,588.789L679.429,577.349z"></path><path d="M169.71,720L254.71,720L254.71,895.06L254.71,929.93L254.71,1080L169.71,1080L169.71,929.93L169.71,895.06z"></path><path d="M254.71,720L339.71,720L339.71,1080L254.71,1080L254.71,929.93L254.71,895.06z"></path><path d="M21.36,123.49L38.15,108.982L58.123,99.314L79.918,95.144L84.855,95.504L102.145,96.683L123.252,103.909L141.769,116.353L156.435,133.165L166.251,153.2L169.714,170.853L169.714,360.003L165.664,360.003L84.854,360.003L-0.006,360.003L-0.006,184.943L1.608,162.812L8.894,141.852z"></path><path d="M700.79,123.49L717.5799999999999,108.982L737.553,99.314L759.348,95.144L764.285,95.504L781.5749999999999,96.683L802.6819999999999,103.909L821.199,116.353L835.865,133.165L845.6809999999999,153.2L849.144,170.853L849.144,360.003L845.0939999999999,360.003L764.284,360.003L679.424,360.003L679.424,184.943L681.0379999999999,162.812L688.324,141.852z"></path><path d="M0,0L4.86,0L84.86,0L84.86,95.5L79.923,95.14L58.128,99.309L38.155,108.978L21.365,123.486L8.902,141.845L1.616,162.805L0.002,184.936L0.002,150.066L0.002,112.996z"></path><path d="M84.86,0L165.67,0L169.72,0L169.72,113.93L169.72,131.21L169.72,142.65L169.72,170.84L166.257,153.187L156.441,133.152L141.775,116.34L123.258,103.896L102.151,96.67L84.861,95.491z"></path><path d="M169.71,0L254.71,0L254.71,175.06L254.71,209.93L254.71,360L169.71,360L169.71,209.93L169.71,175.06z"></path><path d="M254.71,0L339.71,0L339.71,360L254.71,360L254.71,209.93L254.71,175.06z"></path><path d="M169.71,360L254.71,360L254.71,535.06L254.71,569.93L254.71,720L169.71,720L169.71,569.93L169.71,535.06z"></path><path d="M254.71,360L339.71,360L339.71,720L254.71,720L254.71,569.93L254.71,535.06z"></path></svg>