<svg width="448" height="448" version="1.2" xmlns="http://www.w3.org/2000/svg" viewBox="0 0 448 448"><style type="text/css">path {stroke-width: 1; vector-effect: non-scaling-stroke; fill:none; stroke: #000; stroke-linecap: round; stroke-linejoin: miter;}</style><path d="M-56.06999999999999,55.80000000000001L-0.1379999999999768,-0.132000000000005L55.79399999999998,55.80000000000001L-0.1379999999999768,111.73199999999997z"></path><path d="M391.93,55.80000000000001L447.862,-0.132000000000005L503.794,55.80000000000001L447.862,111.73199999999997z"></path><path d="M-56.06999999999999,503.8L-0.1379999999999768,447.868L55.79399999999998,503.8L-0.1379999999999768,559.732z"></path><path d="M391.93,503.8L447.862,447.868L503.794,503.8L447.862,559.732z"></path><path d="M167.93,-56.19999999999999L223.933,-112.20299999999997L279.936,-56.19999999999999L279.936,-0.19999999999998863L335.936,-0.19999999999998863L391.939,55.803L335.936,111.80600000000004L279.936,111.80600000000004L279.936,167.80600000000004L223.933,223.80899999999997L167.93,167.80600000000004L167.93,111.80600000000004L111.93,111.80600000000004L55.927,55.803L111.93,-0.19999999999998863L167.93,-0.19999999999998863z"></path><path d="M167.93,391.8L223.933,335.797L279.936,391.8L279.936,447.8L335.936,447.8L391.939,503.803L335.936,559.806L279.936,559.806L279.936,615.806L223.933,671.809L167.93,615.806L167.93,559.806L111.93,559.806L55.927,503.803L111.93,447.8L167.93,447.8z"></path><path d="M56,-112.13999999999999L112,-112.13999999999999L168.003,-168.14299999999997L223.935,-112.21100000000001L167.932,-56.20800000000003L167.932,-0.20800000000002683L111.932,-0.20800000000002683L55.929,55.795000000000016L-0.003,-0.13700000000000045L56,-56.139999999999986z"></path><path d="M504,-112.13999999999999L560,-112.13999999999999L616.0029999999999,-168.14299999999997L671.935,-112.21100000000001L615.932,-56.20800000000003L615.932,-0.20800000000002683L559.932,-0.20800000000002683L503.929,55.795000000000016L447.997,-0.13700000000000045L504,-56.139999999999986z"></path><path d="M56,335.86L112,335.86L168.003,279.857L223.935,335.789L167.932,391.792L167.932,447.792L111.932,447.792L55.929,503.795L-0.003,447.863L56,391.86z"></path><path d="M504,335.86L560,335.86L616.0029999999999,279.857L671.935,335.789L615.932,391.792L615.932,447.792L559.932,447.792L503.929,503.795L447.997,447.863L504,391.86z"></path><path d="M223.93,223.93L279.862,279.862L223.93,335.794L167.998,279.862z"></path><path d="M223.93,-112.19999999999999L279.862,-168.132L335.865,-112.12900000000002L391.865,-112.12900000000002L391.865,-56.12900000000002L447.868,-0.12599999999997635L391.936,55.80599999999998L335.933,-0.19700000000000273L279.933,-0.19700000000000273L279.933,-56.197z"></path><path d="M223.93,335.8L279.862,279.868L335.865,335.871L391.865,335.871L391.865,391.871L447.868,447.874L391.936,503.806L335.933,447.803L279.933,447.803L279.933,391.803z"></path><path d="M167.86,279.86L223.79200000000003,223.928L279.72400000000005,279.86L223.79200000000003,335.792z"></path><path d="M-0.13999999999998636,0L55.79199999999997,55.932L-0.13999999999998636,111.864L-56.072,55.932z"></path><path d="M447.86,0L503.792,55.932L447.86,111.864L391.928,55.932z"></path><path d="M-0.13999999999998636,111.86L55.79199999999997,55.928L111.79499999999996,111.931L167.79499999999996,111.931L167.79499999999996,167.931L223.798,223.934L167.86599999999999,279.866L111.86300000000006,223.863L55.863,223.863L55.863,167.863z"></path><path d="M447.86,111.86L503.792,55.928L559.795,111.931L615.795,111.931L615.795,167.931L671.798,223.934L615.866,279.866L559.863,223.863L503.863,223.863L503.863,167.863z"></path><path d="M279.93,111.93L335.93,111.93L391.933,55.927L447.865,111.859L391.862,167.862L391.862,223.862L335.862,223.862L279.859,279.865L223.927,223.933L279.93,167.93z"></path><path d="M-56.139999999999986,167.86L-0.13700000000000045,111.857L55.865999999999985,167.86L55.865999999999985,223.86L111.86599999999999,223.86L167.86900000000003,279.863L111.86599999999999,335.866L55.865999999999985,335.866L55.865999999999985,391.866L-0.13700000000000045,447.869L-56.139999999999986,391.866L-56.139999999999986,335.866L-112.13999999999999,335.866L-168.14299999999997,279.863L-112.13999999999999,223.86L-56.139999999999986,223.86z"></path><path d="M391.86,167.86L447.863,111.857L503.866,167.86L503.866,223.86L559.866,223.86L615.869,279.863L559.866,335.866L503.866,335.866L503.866,391.866L447.863,447.869L391.86,391.866L391.86,335.866L335.86,335.866L279.857,279.863L335.86,223.86L391.86,223.86z"></path></svg>