<svg width="150" height="300" version="1.2" xmlns="http://www.w3.org/2000/svg" viewBox="0 0 150 300"><style type="text/css">path {stroke-width: 1; vector-effect: non-scaling-stroke; fill:none; stroke: #000; stroke-linecap: round; stroke-linejoin: miter;}</style><path d="M129,175L150,175L150,300L90,300L90,280L102,280L102,245L117,245L117,210L129,210z"></path><path d="M0,175L21,175L21,210L33,210L33,245L48,245L48,280L60,280L60,300L0,300z"></path><path d="M0,150L150,150L150,175L129,175L129,210L117,210L117,245L102,245L102,280L90,280L90,300L60,300L60,280L48,280L48,245L33,245L33,210L21,210L21,175L0,175z"></path><path d="M90,0L150,0L150,125L129,125L129,90L117,90L117,55L102,55L102,20L90,20z"></path><path d="M0,0L60,0L60,20L48,20L48,55L33,55L33,90L21,90L21,125L0,125z"></path><path d="M48,20L60,20L60,0L90,0L90,20L102,20L102,55L117,55L117,90L129,90L129,125L150,125L150,150L0,150L0,125L21,125L21,90L33,90L33,55L48,55z"></path></svg>