<svg width="300" height="300" version="1.2" xmlns="http://www.w3.org/2000/svg" viewBox="0 0 300 300"><style type="text/css">path {stroke-width: 1; vector-effect: non-scaling-stroke; fill:none; stroke: #000; stroke-linecap: round; stroke-linejoin: miter;}</style><path d="M100,100L150,100L200,100L200,150L200,200L150,200L100,200L100,150z"></path><path d="M100,50L150,100L100,100z"></path><path d="M150,200L200,200L200,250z"></path><path d="M50,300L100,250L100,300z"></path><path d="M0,50L50,100L0,100z"></path><path d="M0,100L50,100L100,150L50,199.999L0,199.999z"></path><path d="M200,0L250,0L200,50z"></path><path d="M200,150L250,200L200,200z"></path><path d="M200,200L250,200L300,250L300,300L250,300L200,250z"></path><path d="M150,200L200,250L200,300L100,300L100,250z"></path><path d="M100,200L150,200L100,250z"></path><path d="M0,200L50,200L0,250z"></path><path d="M50,200L100,200L100,250L50,300L0,300L0,250z"></path><path d="M100,150L100,200L50,200z"></path><path d="M200,250L250,300L200,300z"></path><path d="M250,200L300,200L300,250z"></path><path d="M200,100L250,100L200,150z"></path><path d="M250,100L300,100L300,200L250,200L200,150z"></path><path d="M300,50L300,100L250,100z"></path><path d="M200,50L200,100L150,100z"></path><path d="M200,50L250,0L300,0L300,50L250,100L200,100z"></path><path d="M100,0L200,0L200,50L150,100L100.001,50z"></path><path d="M50,0L100,0L100,50z"></path><path d="M50,100L100,100L100,150z"></path><path d="M0,0L50,0L100,50L100,100L50,100L0,50z"></path></svg>