<?xml version="1.0" encoding="UTF-8"?>
<!DOCTYPE svg PUBLIC "-//W3C//DTD SVG 1.1//EN" "http://www.w3.org/Graphics/SVG/1.1/DTD/svg11.dtd">
<!-- Creator: CorelDRAW 2021 (64-Bit) -->
<svg xmlns="http://www.w3.org/2000/svg" xml:space="preserve" width="36in" height="36in" version="1.1" shape-rendering="geometricPrecision" text-rendering="geometricPrecision" image-rendering="optimizeQuality" fill-rule="evenodd" clip-rule="evenodd"
viewBox="0 0 36000 36000"
 xmlns:xlink="http://www.w3.org/1999/xlink"
 xmlns:xodm="http://www.corel.com/coreldraw/odm/2003">
 <g id="Layer_x0020_1">
  <metadata id="CorelCorpID_0Corel-Layer"/>
  <g id="_2617478136656">
   <path fill="none" stroke="black" stroke-width="6.94" stroke-linecap="round" stroke-linejoin="round" stroke-miterlimit="2.61313" d="M24091.81 13017.1c0,0 -179.51,-413.13 222.57,-944.52 402.08,-531.39 413.13,-449.45 524.26,-576.74 111.13,-127.29 191.95,-198.01 559.68,-274.79 367.73,-76.78 355.61,-119.21 527.35,-165.68 171.74,-46.47 415.89,35.34 773.5,95.84 851.2,144 1129.29,384.47 1069.43,1049.12 -20.36,226.04 -426.26,412.76 -454.93,687.35 -9.18,87.9 176.13,512.54 331.57,590.95 199.52,100.65 33.54,1070 109.15,1421.9 58.43,271.95 82.19,669.85 -1149.11,564.19 0,0 -239.67,-16.26 -768,170.69 0,0 -300.74,109.72 -768.1,-24.39 -467.37,-134.11 -528.32,-65.02 -646.18,-113.79 -117.86,-48.77 -491.75,-16.55 -467.37,-487.98 24.39,-471.43 199.14,-1011.94 199.14,-1011.94 0,0 142.06,-473.17 32.52,-747.78l-95.47 -232.42z"/>
   <path fill="none" stroke="black" stroke-width="6.94" stroke-linecap="round" stroke-linejoin="round" stroke-miterlimit="2.61313" d="M23998.73 17014.95c0,0 -116.95,-1173.02 378.93,-1229.92 495.87,-56.9 552.78,-28.45 711.3,40.65 158.52,69.1 512.13,138.19 865.74,4.06 353.61,-134.13 471.48,-186.97 800.71,-154.45 329.23,32.52 330.66,54.14 526.37,70.35 195.7,16.2 89.51,475.94 94.67,763.22 2.24,124.76 206.35,179.28 277.77,251.65 122.5,124.13 406.01,-20.59 460.91,98.13 228.98,495.15 285.81,1385.87 15.7,1500.19 -151.41,64.08 -294.74,594.94 -54.85,771.03 175.16,128.56 640.19,-64.83 764.11,-2.05 50.56,25.62 1.74,95.79 -8.09,171.34 -25.34,194.66 -31.89,440.82 -9.81,631.33 23.5,202.8 -463.31,34.22 -652.7,283.33 -115.9,152.45 83.74,644.85 -77.32,741.87 -446.84,269.15 -900.95,367.54 -1515.59,340.87 0,0 -20.32,-31.69 -495.87,117.87 -475.55,149.56 -1068.97,-451.17 -1089.3,-784.46 -20.32,-333.29 126,-1162.46 0,-1617.69 -126,-455.22 -642.19,-825.09 -751.94,-1182.78 -109.74,-357.68 -240.73,-814.54 -240.73,-814.54z"/>
   <path fill="none" stroke="black" stroke-width="6.94" stroke-linecap="round" stroke-linejoin="round" stroke-miterlimit="2.61313" d="M25238.36 23244.11c0,0 -335.78,392.33 -356.98,512.5 -21.2,120.17 -3.54,236.8 219.13,272.15 222.67,35.35 395.86,-17.67 784.65,116.64 0,0 229.73,35.35 452.41,-155.52 222.67,-190.86 406.46,-141.38 657.41,-45.95 250.94,95.43 799.52,127.24 803.05,-67.15 3.53,-194.39 64.02,-531.21 64.02,-906.18 0,-374.97 376.78,-884.06 342.77,-1125.16 -34.02,-241.1 -109.48,-420.38 -189.85,-488.38 -80.37,-68 -83.76,-84.97 -199.9,-36.07 -116.14,48.9 -657.57,276.95 -1141.98,188.31 0,0 -227.52,-9.97 -458.04,54.58 -230.52,64.55 -368.83,67.62 -436.46,64.55 -67.62,-3.07 -104.5,36.88 -61.47,218.23 43.03,181.35 104.5,580.97 -478.76,1397.46z"/>
   <path fill="none" stroke="black" stroke-width="6.94" stroke-linecap="round" stroke-linejoin="round" stroke-miterlimit="2.61313" d="M7169.71 9925.39c0,0 -194.11,-652.75 368.39,-751.11 562.49,-98.36 390.37,-46.11 857.57,-58.4 275.89,-7.26 1066.79,128.64 1768.23,203.53 280.29,29.93 405.62,26.66 618.79,39.61 156.73,9.52 392.54,-408.41 476.79,-375.36 260.54,102.23 679.15,-81.98 717.56,114.33 33.17,169.54 116.29,483.37 102.04,622.99 -30.73,301.22 109.04,901.19 -18.56,1152.39 -127.6,251.19 165.57,198.56 -946.22,233.19 -438.59,13.66 -942.3,199.63 -1376,-102.79 -372.11,-259.48 -1270.58,-144.05 -1475.07,-4.7 -130.43,88.88 -396.51,221.31 -636.26,89.14 -239.75,-132.17 -282.52,-406.27 -254.85,-520 27.67,-113.73 -156.76,-126.02 -202.4,-642.81z"/>
   <path fill="none" stroke="black" stroke-width="6.94" stroke-linecap="round" stroke-linejoin="round" stroke-miterlimit="2.61313" d="M24857.36 8934.8c0,0 -317.19,107.53 -430.09,-139.78 -112.9,-247.3 -68.5,-392.46 -9.37,-806.41 59.13,-413.95 170.24,-50.78 551.94,-179.8 381.7,-129.03 93.6,-322.98 1093.55,-253.09 999.95,69.89 1248.72,-734.22 1621.22,-626.71 205.12,59.2 -314.92,532.07 -230.68,708.78 68.74,144.17 487.42,536.24 545.67,698.04 138.05,383.39 232.67,353.93 227.29,531.34 -5.37,177.41 -532.23,267.81 -731.14,192.54 -198.91,-75.26 -444.96,4.12 -858.92,-119.53 -413.96,-123.65 -677.38,-80.64 -913.93,-69.89 -236.55,10.75 -354.82,-48.39 -865.55,64.51z"/>
   <path fill="none" stroke="black" stroke-width="6.94" stroke-linecap="round" stroke-linejoin="round" stroke-miterlimit="2.61313" d="M26813.42 24151.78c0,0 -446.6,-226.45 -722.42,334.54 -275.82,561 -219.72,1457.64 -219.72,1770.86 0,313.22 -130.9,392.69 65.45,560.99 196.35,168.3 715.27,60.78 1121.99,509.57 406.72,448.79 936.57,229.07 880.47,-107.53 -56.1,-336.59 -105.64,-956.19 -87.3,-1706.35 18.34,-750.17 42.24,-1113.35 -5.41,-1232.33 -47.64,-118.98 -189.37,-51.33 -1033.06,-129.76z"/>
   <path fill="none" stroke="black" stroke-width="6.94" stroke-linecap="round" stroke-linejoin="round" stroke-miterlimit="2.61313" d="M17203.37 13403.6c0,0 1096.75,-630.05 1507.45,-452.7 410.7,177.35 947.41,350.02 1101.42,443.37 154.01,93.34 322.02,261.35 354.69,494.7 32.67,233.35 60.67,438.7 56,527.37 -4.67,88.67 -18.67,1050.08 -14,1269.43 4.67,219.35 -32.67,658.05 -462.04,826.06 -429.37,168.01 -1012.74,527.38 -1120.09,546.04 -107.34,18.67 -191.35,70 -508.71,-74.67 -317.36,-144.68 -924.07,-392.03 -1026.74,-555.38 -102.68,-163.35 -387.37,-284.69 -354.7,-970.74 32.67,-686.05 74.67,-933.41 74.67,-933.41 0,0 -62.77,-933.41 392.03,-1120.09z"/>
   <path fill="none" stroke="black" stroke-width="6.94" stroke-linecap="round" stroke-linejoin="round" stroke-miterlimit="2.61313" d="M20278.96 14008.42c0,0 199.67,-917.66 1119.12,-1099.68 919.45,-182.02 798.1,-238.04 1143.48,-102.68 345.38,135.35 858.78,340.71 942.79,387.39 84.01,46.67 242.7,144.68 252.03,513.4 9.33,368.72 -9.33,578.74 -84.01,723.43 -74.68,144.69 -224.03,368.71 -238.03,494.73 -14,126.02 0,294.04 65.34,396.72 65.34,102.68 144.69,326.71 149.35,588.07 4.67,261.37 4.67,905.45 -429.39,1045.47 -434.06,140.02 -606.75,205.35 -812.11,303.37 -205.36,98.02 -289.37,126.02 -462.06,37.34 -172.69,-88.68 -480.73,-233.36 -634.75,-280.04 -154.02,-46.67 -718.76,-401.38 -863.44,-578.74 -144.69,-177.36 -176.33,-619.72 -172.18,-797.59 4.15,-177.87 -14.26,-1051.33 23.85,-1631.19z"/>
   <path fill="none" stroke="black" stroke-width="6.94" stroke-linecap="round" stroke-linejoin="round" stroke-miterlimit="2.61313" d="M13711.69 13734.06c0,0 154.24,-860.5 1002.56,-937.62 0,0 280.07,-69.01 673.79,69 393.72,138.01 552.02,133.94 738.73,194.83 186.71,60.89 515.49,166.42 568.26,478.96 52.76,312.54 -13.17,1426.55 -328,1753.72 -314.83,327.18 -444.47,234.58 -567.93,246.93 -123.46,12.35 -617.32,-6.17 -1074.14,222.24 -456.82,228.41 -858.07,185.2 -1024.75,-37.04 -166.68,-222.24 -61.73,-1333.41 11.48,-1991.02z"/>
   <path fill="none" stroke="black" stroke-width="6.94" stroke-linecap="round" stroke-linejoin="round" stroke-miterlimit="2.61313" d="M14023.98 17074.99c0,0 -295.25,-450.92 53.68,-799.84 348.93,-348.92 1572.85,-526.07 1664.1,-526.07 91.26,0 509.96,-91.25 730.06,166.41 220.09,257.67 381.13,531.44 762.26,789.1 381.13,257.67 558.28,284.5 644.17,434.81 85.89,150.31 209.35,322.09 144.94,708.59 -64.42,386.5 -150.3,327.45 -220.09,622.69 -69.79,295.24 -123.47,585.11 -182.52,864.26 -59.05,279.14 -246.93,338.19 -467.02,354.3 -220.09,16.1 -864.26,-96.63 -1186.34,-75.15 -322.08,21.47 -424.08,-316.72 -413.34,-402.61 10.74,-85.89 -53.68,-590.49 -295.24,-671.01 -241.56,-80.52 -397.24,-295.24 -467.02,-542.17 -69.78,-246.93 -295.24,-633.43 -767.63,-923.3z"/>
   <path fill="none" stroke="black" stroke-width="6.94" stroke-linecap="round" stroke-linejoin="round" stroke-miterlimit="2.61313" d="M15017.12 11174.35c0,0 89.3,-564.22 531.74,-742.81 442.44,-178.6 836.17,-434.32 1242.08,-97.42 405.91,336.91 389.67,438.38 499.27,564.21 109.59,125.83 454.62,560.15 568.27,665.69 113.65,105.54 332.84,556.1 170.48,957.94 -162.36,401.85 -374.15,659.61 -1120.31,604.8 -746.16,-54.81 -836.17,-162.37 -1526.21,-336.91 -690.04,-174.54 -552.04,-596.69 -531.74,-698.16 20.3,-101.48 125.83,-649.45 166.42,-917.35z"/>
   <path fill="none" stroke="black" stroke-width="6.94" stroke-linecap="round" stroke-linejoin="round" stroke-miterlimit="2.61313" d="M17253.42 10696.62c0,0 -77.4,-424.36 272.23,-645.89 349.63,-221.52 541.8,-200.17 774,-250.88 232.2,-50.71 419.03,-149.46 715.28,-69.39 296.25,80.07 814.7,331.81 1216.16,1050.7 0,0 66.59,132.2 88.79,295.67 22.2,163.47 50.46,191.72 60.55,254.29 10.09,62.57 -28.26,108.98 -28.26,300.71 0,191.73 26.43,423.5 -128.38,757.13 -154.81,333.63 -125.45,325.62 -194.84,456.41 -69.39,130.78 -210.85,381.67 -483.09,317.61 -272.24,-64.06 -515.12,-226.87 -846.08,-285.59 -330.96,-58.72 -551.22,-280.57 -541.13,-522.76 10.09,-242.19 27.06,-547.9 -159.67,-750.87 -186.73,-202.97 -673.86,-705.42 -745.55,-907.13z"/>
   <path fill="none" stroke="black" stroke-width="6.94" stroke-linecap="round" stroke-linejoin="round" stroke-miterlimit="2.61313" d="M20704.52 11187.04c0,0 -236.93,26.33 -261.5,189.54 -24.57,163.22 10.53,152.69 -3.51,242.19 -14.04,89.51 -15.8,168.48 -10.53,263.26 5.27,94.77 -48.48,253.81 -76.33,386.11 -27.85,132.3 -141.58,385.3 -81.24,631.32 60.35,246.03 150.87,322.62 329.59,292.45 178.72,-30.17 241.39,-218.18 761.3,-401.54 519.91,-183.36 489.74,-90.52 629,-241.39 139.26,-150.87 141.94,-517.26 95.26,-727.35 -46.69,-210.08 -149.39,-522.87 -639.58,-634.91 -490.19,-112.04 -742.46,0.31 -742.46,0.31z"/>
   <path fill="none" stroke="black" stroke-width="6.94" stroke-linecap="round" stroke-linejoin="round" stroke-miterlimit="2.61313" d="M15651.13 20080.15c0,0 46.42,-397.61 322.94,-399.63 276.52,-2.02 250.27,-26.24 540.92,32.3 290.65,58.53 694.31,52.48 795.23,52.48 100.92,0 260.37,28.26 314.86,119.08 54.5,90.83 142.44,478.78 41,719.02 -101.43,240.24 -141.47,264.26 -277.61,360.35 -136.13,96.09 -258.92,181.51 -411.07,221.55 -152.15,40.04 -381.71,186.85 -635.29,37.37 -253.58,-149.48 -656.64,-533.86 -690.98,-1142.51z"/>
   <path fill="none" stroke="black" stroke-width="6.94" stroke-linecap="round" stroke-linejoin="round" stroke-miterlimit="2.61313" d="M18488.33 17193.66c0,0 160.16,-53.39 424.43,-184.19 264.27,-130.8 544.55,-290.96 688.69,-309.65 144.15,-18.69 298.97,-40.04 328.33,64.07 29.36,104.1 -32.04,186.85 13.35,395.06 45.38,208.21 176.18,648.65 192.19,864.87 16.02,216.22 45.38,296.3 -16.02,632.64 -61.39,336.34 -48.05,160.16 -85.42,416.42 -37.37,256.26 -74.74,475.14 -141.48,699.37 -66.73,224.23 -107.89,316.8 -132.25,540.09 -24.36,223.29 -44.66,430.33 4.06,507.47 48.72,77.14 -4.57,83.35 -113.57,51.06 -108.99,-32.3 -266.43,28.26 -512.68,171.57 -246.25,143.31 -343.14,222.02 -565.17,258.36 -222.03,36.33 -381.48,157.44 -653.97,-232.12 -272.49,-389.56 -113.03,-619.66 -147.35,-902.24 -34.31,-282.58 -50.46,-304.78 -102.94,-375.43 -52.48,-70.65 -60.56,-179.65 48.44,-456.17 109,-276.52 98.51,-592.32 172.22,-801.19 73.72,-208.87 235.2,-475.67 229.93,-747.72 -5.26,-272.06 210.87,-552.72 369.19,-592.26z"/>
   <path fill="none" stroke="black" stroke-width="6.94" stroke-linecap="round" stroke-linejoin="round" stroke-miterlimit="2.61313" d="M18207.48 21963.89c0,0 95.3,-418.28 485.06,-615.83 389.76,-197.55 339.04,-160.18 459.17,-224.25 120.13,-64.07 355.06,-224.25 520.57,-197.55 165.52,26.7 365.73,146.83 485.87,315.02 120.13,168.19 136.15,261.62 133.48,368.41 -2.67,106.78 -19.79,263.93 -23.85,503.48 -4.06,239.55 -20.3,905.42 -28.42,1116.54 -8.12,211.13 -16.24,418.19 -406.02,604.96 -389.78,186.77 -357.3,251.73 -491.28,324.81 -133.98,73.08 -203.01,89.32 -349.17,0 -146.17,-89.32 -406.02,-276.09 -637.44,-401.96 -231.43,-125.87 -198.95,-377.59 -182.71,-568.42 16.24,-190.83 34.74,-775.49 34.74,-1225.2z"/>
   <path fill="none" stroke="black" stroke-width="6.94" stroke-linecap="round" stroke-linejoin="round" stroke-miterlimit="2.61313" d="M20376.87 21539.25c0,0 91.8,-317.76 564.9,-430.74 473.1,-112.98 497.81,-116.51 773.2,-120.04 275.39,-3.53 730.84,-120.05 907.37,222.43 176.53,342.47 -14.13,857.94 -52.96,995.64 -38.83,137.69 -190.65,264.8 -264.8,363.65 -74.14,98.85 -324.82,409.55 -444.86,741.43 -120.04,331.88 -324.81,737.9 -734.37,624.92 -409.55,-112.98 -794.39,-391.89 -808.51,-575.49 -14.12,-183.59 -3.53,-1048.59 10.59,-1288.68 14.12,-240.08 22.79,-404.1 49.43,-533.12z"/>
   <path fill="none" stroke="black" stroke-width="6.94" stroke-linecap="round" stroke-linejoin="round" stroke-miterlimit="2.61313" d="M19996.43 16865.57c0,0 -16.25,-120.71 58.04,-171.79 74.29,-51.07 297.15,-146.26 478.23,-16.25 181.07,130 359.83,264.65 566.44,359.83 206.61,95.18 571.09,329.31 720.59,716.41 149.5,387.11 117.47,416.47 176.2,632.72 58.73,216.25 175.97,398.95 215.44,508.07 39.47,109.11 295.9,1146.44 -47.76,1796.19 0,0 -160.52,268.16 -544.97,228.11 -384.45,-40.05 -806.27,61.4 -1051.89,245.62 0,0 -212.34,204.17 -465.73,-81.28 0,0 -145.99,-113.41 -233.55,-160.28 0,0 -22.9,-12.21 -29,-38.16 -6.11,-25.95 -15.26,-44.27 -35.11,-85.48 -19.85,-41.21 -24.65,-397.1 100.71,-794.09 125.36,-396.99 181.08,-780.05 188.05,-852.02 6.96,-71.97 137.56,-603.03 133.5,-996.89 -4.06,-393.87 -170.54,-710.58 -186.78,-925.79 -16.24,-215.21 -42.4,-364.92 -42.4,-364.92z"/>
   <path fill="none" stroke="black" stroke-width="6.94" stroke-linecap="round" stroke-linejoin="round" stroke-miterlimit="2.61313" d="M22171.35 18125.16c0,0 -312.67,-466.97 129.94,-763.39 442.61,-296.43 1287.21,-320.79 1417.15,-150.24 129.94,170.55 138.06,426.37 211.15,592.85 73.09,166.48 276.12,446.67 308.61,621.27 32.48,174.61 97.45,580.67 207.09,873.03 109.64,292.36 138.06,349.21 166.48,454.79 28.43,105.57 166.49,759.33 -418.24,1092.3 -584.73,332.97 -633.46,349.21 -690.3,381.7 -56.85,32.48 -775.58,268 -917.7,-345.15 -142.12,-613.15 273.33,-1301.33 322.74,-1610.11 49.41,-308.78 18.53,-382.89 -166.74,-524.93 -185.27,-142.04 -366.94,-365.77 -570.18,-622.11z"/>
   <path fill="none" stroke="black" stroke-width="6.94" stroke-linecap="round" stroke-linejoin="round" stroke-miterlimit="2.61313" d="M22136.93 22965.35c0,0 159.66,-379.36 496.73,-298.6 337.07,80.76 417.83,424.85 735.59,828.63 317.76,403.78 275.63,359.89 314.25,426.61 38.62,66.71 175.81,271.6 160.46,713.76 -15.35,442.16 -155.08,1449.07 -176.56,1803.52 -21.48,354.45 -79.25,630.26 -343.94,674.38 -264.69,44.12 -343.63,-4.65 -740.66,127.7 -397.03,132.35 -587.43,16.26 -687.26,-308.8 -99.83,-325.06 -55.72,-332.02 -23.22,-561.88 32.5,-229.86 91.12,-1375 -112.69,-1788.8 -203.81,-413.8 65.67,-1061.46 377.31,-1616.51z"/>
   <path fill="none" stroke="black" stroke-width="6.94" stroke-linecap="round" stroke-linejoin="round" stroke-miterlimit="2.61313" d="M22911.34 22497.93c0,0 -165.78,-475.07 156.48,-806.67 0,0 168.13,-172.8 457.7,-298.91 289.57,-126.1 387.65,-378.3 695.9,-462.37 308.25,-84.07 481.06,60.72 574.46,158.8 93.41,98.08 579.13,420.34 625.84,565.12 46.7,144.78 186.81,700.57 -210.17,1326.41 -396.98,625.84 -439.02,625.83 -495.06,700.56 -56.05,74.73 -406.33,569.79 -990.13,126.1 0,0 -130.78,-93.41 -266.22,-322.26 -135.44,-228.85 -350.29,-579.13 -411,-681.88 -60.71,-102.75 -137.8,-304.89 -137.8,-304.89z"/>
   <path fill="none" stroke="black" stroke-width="6.94" stroke-linecap="round" stroke-linejoin="round" stroke-miterlimit="2.61313" d="M19200.83 24600.22c0,0 121.84,-422.38 446.74,-560.46 324.91,-138.08 385.82,-280.23 564.52,-316.78 178.7,-36.55 312.72,-12.19 548.28,138.08 235.56,150.27 495.47,235.56 645.74,410.19 150.27,174.64 215.25,227.44 231.5,629.5 16.24,402.07 40.61,450.8 44.67,670.11 4.06,219.31 -20.31,450.8 -64.98,775.71 -44.67,324.91 12.19,430.5 -251.8,674.18 -263.98,243.68 -1259.01,661.99 -1872.26,162.45 -613.26,-499.54 -345.21,-1250.89 -300.54,-1502.69 44.67,-251.8 20.3,-519.85 -4.06,-649.81 -24.37,-129.96 -7.01,-322.43 12.19,-430.5z"/>
   <path fill="none" stroke="black" stroke-width="6.94" stroke-linecap="round" stroke-linejoin="round" stroke-miterlimit="2.61313" d="M16854.78 24872.17c0,0 39.87,-760.07 316.26,-818.42 276.4,-58.35 347.03,-39.93 466.8,-58.35 119.77,-18.43 340.89,-171.98 457.59,-168.91 116.7,3.07 230.33,-21.5 362.39,67.56 132.06,89.06 472.94,264.11 543.57,334.74 70.63,70.63 128.98,150.48 119.77,319.39 -9.21,168.91 -33.78,362.38 -15.35,476.01 18.43,113.63 70.63,380.81 -15.36,666.42 -85.99,285.61 9.22,522.08 -168.91,838.4 -178.12,316.32 -135.13,291.75 -1050.3,402.31 0,0 -227.26,58.35 -393.09,104.41 -165.84,46.07 -810.76,-184.26 -767.76,-666.42 43,-482.15 122.04,-1089.69 144.39,-1497.15z"/>
   <path fill="none" stroke="black" stroke-width="6.94" stroke-linecap="round" stroke-linejoin="round" stroke-miterlimit="2.61313" d="M16192.51 21926c0,0 15.35,-350.11 288.69,-476.02 273.33,-125.92 540.52,-144.35 700.22,-242.62 159.7,-98.28 211.91,-150.49 368.54,-132.06 156.63,18.43 307.11,187.34 383.89,334.76 76.78,147.41 218.63,271.36 207.94,663.93 -10.69,392.57 -2.67,964.07 -37.39,1164.37 -34.72,200.3 -114.46,519.49 -349.85,643.61 -235.39,124.12 -822.53,144.21 -1233.8,-157.56 -411.27,-301.78 -643.61,-437.97 -563.49,-785.15 80.12,-347.18 210.98,-691.68 235.26,-1013.25z"/>
   <path fill="none" stroke="black" stroke-width="6.94" stroke-linecap="round" stroke-linejoin="round" stroke-miterlimit="2.61313" d="M14079.41 22259.19c0,0 -64.15,-541.38 307.07,-629.51 371.22,-88.13 520.78,0 902.69,-45.4 381.91,-45.4 782.51,-48.07 806.55,229.68 24.04,277.75 26.7,184.27 -40.06,451.34 -66.77,267.07 -168.25,389.92 -176.26,550.16 -8.01,160.24 -66.77,309.8 32.05,475.38 98.81,165.58 -288.43,13.35 -464.7,112.17 -176.26,98.81 -771.76,338.11 -1135.56,90.87 0,0 -144.81,-77.7 -151.87,-342.6 -7.06,-264.9 -45.92,-741.72 -79.9,-892.09z"/>
   <path fill="none" stroke="black" stroke-width="6.94" stroke-linecap="round" stroke-linejoin="round" stroke-miterlimit="2.61313" d="M14305.17 24500.97c0,0 -74.74,-635.29 406.4,-728.71 481.14,-93.43 322.31,-51.38 593.25,-158.82 270.93,-107.44 602.59,-149.48 836.15,14.01 233.56,163.5 425.09,116.79 579.24,509.17 154.15,392.38 28.03,648.97 0,735.56 -28.03,86.58 -4.67,301.46 -65.4,306.13 -60.72,4.67 -60.72,-168.17 -864.18,-144.81 -803.46,23.36 -1513.49,-70.07 -1485.46,-532.52z"/>
   <path fill="none" stroke="black" stroke-width="6.94" stroke-linecap="round" stroke-linejoin="round" stroke-miterlimit="2.61313" d="M14204.49 25410.75c0,0 2.91,-435.41 300.69,-375.85 297.78,59.56 1034.25,89.2 1357.43,81.19 323.18,-8.01 587.6,-13.35 670.4,80.13 82.8,93.48 146.9,34.72 114.85,288.46 -32.05,253.74 -33,441.75 -86.72,704.98 -53.72,263.24 0,295.47 -134.3,402.91 -134.3,107.44 -236.37,333.07 -945.5,75.21 -709.13,-257.86 -972.37,214.89 -1015.35,257.87 -42.98,42.98 -150.42,85.95 -198.77,-48.35 -48.35,-134.3 -42.98,-306.21 -53.72,-655.41 -10.74,-349.19 -10.74,-515.73 -9,-811.14z"/>
   <path fill="none" stroke="black" stroke-width="6.94" stroke-linecap="round" stroke-linejoin="round" stroke-miterlimit="2.61313" d="M14420.03 27571.7c0,0 64.81,-586.93 344.05,-678.25 279.24,-91.33 296.8,-219.53 616.43,-115.91 319.63,103.62 288.02,154.55 532.14,166.84 244.11,12.29 402.17,-91.32 586.57,-112.4 184.41,-21.07 458.37,91.32 504.04,205.48 45.66,114.15 117.67,121.18 101.86,344.22 -15.81,223.04 -10.09,358 -63.82,927.48 -53.72,569.48 -53.73,585.59 -241.76,687.67 -188.03,102.08 -177.29,-150.43 -478.14,-295.48 -300.85,-145.06 -478.15,-102.08 -795.11,-145.06 -316.97,-42.98 -435.16,-177.29 -795.11,-139.68 -359.95,37.61 -311.15,-844.9 -311.15,-844.9z"/>
   <path fill="none" stroke="black" stroke-width="6.94" stroke-linecap="round" stroke-linejoin="round" stroke-miterlimit="2.61313" d="M22116.84 9250.98c0,0 -86.2,-439.21 325.41,-393.13 411.61,46.08 580.57,258.03 976.81,276.46 396.25,18.43 423.43,-127.34 478.72,38.54 55.29,165.87 12.28,359.4 70.65,488.41 58.37,129.01 202.74,589.77 267.24,700.35 64.5,110.58 270.72,830.09 66.83,1213.15 -203.89,383.06 -210.06,352.17 -370.7,574.59 -160.64,222.43 -158.99,403.3 -204.4,488.78 -45.41,85.48 -2.67,574.29 -675.79,264.44 -673.12,-309.85 -738.56,-226.64 -841.4,-454.09 0,0 -38.41,-70.07 -26.8,-225.7 11.61,-155.63 117.53,-767.92 -298.26,-981.62 0,0 -65.76,-32.53 15.08,-69.49 80.84,-36.96 88.74,-183.61 121.06,-310.87 32.32,-127.26 243.47,-459.08 95.53,-1609.82z"/>
   <path fill="none" stroke="black" stroke-width="6.94" stroke-linecap="round" stroke-linejoin="round" stroke-miterlimit="2.61313" d="M23943.02 24623.28c0,0 143.21,-512.64 806.7,-456.57 663.49,56.07 835.91,30.43 906.17,163.93 70.26,133.5 68.51,70.26 84.32,316.19 15.81,245.93 -54.1,683.59 -61.17,874.38 -7.07,190.79 -95.39,816.17 -120.13,1024.63 -24.73,208.46 -130.73,370.98 -219.06,427.52 -88.33,56.53 -590.04,586.5 -1003.43,505.24 -413.39,-81.26 -646.57,-582.97 -614.78,-925.69 31.8,-342.72 161.25,-1387.49 221.36,-1929.62z"/>
   <path fill="none" stroke="black" stroke-width="6.94" stroke-linecap="round" stroke-linejoin="round" stroke-miterlimit="2.61313" d="M13211.92 18644.13c0,0 148.11,-331.83 639.7,-286.41 491.59,45.42 539.68,37.4 662.58,8.01 122.9,-29.39 352.67,13.36 448.85,96.18 96.18,82.82 315.26,136.26 366.02,283.2 50.76,146.94 146.94,390.06 82.82,502.28 -64.12,112.21 -8.02,328.62 -203.05,325.95 -195.04,-2.67 -611.82,-29.39 -836.24,-80.15 -224.42,-50.76 -675.94,-109.54 -828.23,-144.27 -152.28,-34.73 -459.53,-331.29 -332.45,-704.78z"/>
   <path fill="none" stroke="black" stroke-width="6.94" stroke-linecap="round" stroke-linejoin="round" stroke-miterlimit="2.61313" d="M13255.83 19960.73c0,0 -108.2,-316.59 112.21,-486.25 220.41,-169.65 651.89,109.54 1242.34,141.6 590.44,32.06 398.08,10.69 590.44,32.06 192.36,21.37 173.66,291.21 170.99,619.83 -2.67,328.62 56.11,189.69 21.37,379.38 -34.73,189.69 -101.52,211.07 -216.41,221.75 -114.89,10.69 -328.62,-42.75 -470.22,-125.57 -141.6,-82.82 -550.37,-277.85 -753.42,-309.91 -203.05,-32.06 -590.44,-53.43 -697.31,-472.89z"/>
   <path fill="none" stroke="black" stroke-width="6.94" stroke-linecap="round" stroke-linejoin="round" stroke-miterlimit="2.61313" d="M13486.84 20963.45c0,0 -142.39,-296.1 52.83,-456.66 0,0 50.83,-45.05 125.91,-43.89 75.08,1.16 85.48,-3.46 207.92,25.41 122.44,28.88 322.28,58.91 545.22,199.83 222.94,140.93 305.86,249.96 652.4,244.94 346.54,-5.02 265.18,168.75 271.2,231.03 6.03,62.28 -13.06,199.89 -9.04,252.12 4.02,52.23 -41.18,132.59 -157.7,123.55 -116.52,-9.04 -321.43,-8.04 -560.49,7.03 -239.06,15.07 -232.03,65.29 -434.93,16.07 -202.9,-49.22 -467.65,-142.74 -693.32,-599.43z"/>
   <path fill="none" stroke="black" stroke-width="6.94" stroke-linecap="round" stroke-linejoin="round" stroke-miterlimit="2.61313" d="M12809.25 27014.56c0,0 -251.06,629.41 -314.7,884 -63.65,254.59 -49.5,254.59 56.57,434.93 106.08,180.33 28.29,176.8 113.15,261.67 0,0 35.36,166.19 102.54,183.87 67.19,17.68 180.34,-300.56 381.89,-392.5 201.55,-91.94 431.39,-215.69 813.28,-183.87 381.89,31.82 342.99,-251.06 318.24,-682.45 -24.75,-431.39 53.04,-388.96 17.68,-487.97 -35.36,-99.01 -137.91,-300.56 -236.91,-300.56 -99.01,0 -201.56,53.04 -480.9,42.43 -279.34,-10.61 -693.06,-109.61 -770.85,240.45z"/>
   <path fill="none" stroke="black" stroke-width="6.94" stroke-linecap="round" stroke-linejoin="round" stroke-miterlimit="2.61313" d="M12385.15 25295.22c0,0 -77.36,-376.23 193.39,-379.75 270.75,-3.52 1077.71,82.63 1199.02,103.73 121.31,21.1 218,-12.3 274.26,202.18 56.26,214.48 80.87,342.83 91.42,511.6 10.55,168.78 7.03,270.74 12.31,377.99 5.28,107.24 3.52,272.51 0,351.62 -3.52,79.11 -61.54,210.97 -182.84,239.1 -121.31,28.13 -497.53,29.89 -603.02,-1.76 -105.49,-31.65 -295.36,-19.34 -379.75,-26.37 -84.39,-7.03 -490.51,-165.26 -564.35,-485.23 0,0 24.61,-130.1 12.31,-335.8 -12.31,-205.69 -28.13,-298.87 -52.74,-557.31z"/>
   <path fill="none" stroke="black" stroke-width="6.94" stroke-linecap="round" stroke-linejoin="round" stroke-miterlimit="2.61313" d="M12223.59 24200.24c0,0 -39.98,-381.31 282.91,-476.64 322.89,-95.33 424.36,-3.07 578.12,-9.22 153.76,-6.15 166.06,-33.83 479.72,-6.15 313.66,27.68 538.15,-27.68 608.87,129.15 70.72,156.83 46.12,304.44 -12.3,510.47 -58.43,206.03 -95.33,433.59 -126.08,513.54 -30.75,79.95 -126.08,129.15 -246.01,110.7 -119.93,-18.45 -405.91,-61.5 -651.92,-86.1 -246.01,-24.6 -510.47,-6.15 -581.2,-15.37 -70.72,-9.23 -267.53,-73.81 -301.36,-335.19 -33.83,-261.38 -30.75,-335.19 -30.75,-335.19z"/>
   <path fill="none" stroke="black" stroke-width="6.94" stroke-linecap="round" stroke-linejoin="round" stroke-miterlimit="2.61313" d="M12175.98 22246.62c0,0 28.36,-306.76 323.74,-350.72 295.39,-43.96 850.99,-237.36 984.61,-203.96 133.63,33.41 210.99,58.02 265.49,160 54.5,101.98 135.38,107.25 210.99,342.85 75.61,235.6 96.7,546.81 100.22,657.58 3.52,110.77 15.82,316.48 38.68,400.88 22.86,84.39 42.2,362.2 -33.41,386.81 -75.61,24.61 -45.72,58.02 -269.01,17.58 -223.3,-40.44 -538.02,-22.85 -629.45,-12.31 -91.43,10.55 -237.36,-26.37 -267.25,-26.37 -29.89,0 -298.9,-47.47 -443.07,54.5 -144.18,101.98 -189.89,145.93 -202.2,188.13 -12.31,42.2 -52.74,19.34 -50.99,-82.64 1.76,-101.98 -54.54,-499.55 6.26,-817.58 60.8,-318.04 -87.1,-257.23 -34.63,-714.76z"/>
   <path fill="none" stroke="black" stroke-width="6.94" stroke-linecap="round" stroke-linejoin="round" stroke-miterlimit="2.61313" d="M17622.21 8350.56c0,0 -228.52,538.18 -92.44,896.94 136.08,358.76 195.06,488.65 482.47,488.65 287.41,0 952.56,-197.93 1057.72,-334.02 105.15,-136.08 129.89,-74.23 352.57,-451.54 222.68,-377.31 470.09,-538.13 668.03,-705.14 197.94,-167.01 544.32,-581.44 488.65,-841.23 -55.67,-259.79 -204.12,-654.39 -358.76,-660.58 -154.64,-6.19 -641.94,-116.1 -951.22,1.42 -309.28,117.52 -649.47,-92.79 -989.68,92.78 -340.2,185.57 -168.35,331.33 -657.35,1512.72z"/>
   <path fill="none" stroke="black" stroke-width="6.94" stroke-linecap="round" stroke-linejoin="round" stroke-miterlimit="2.61313" d="M19410.58 9214.27c0,0 271.28,-584.65 636.1,-762.38 364.82,-177.74 589.33,-612.72 645.46,-767.06 56.13,-154.35 -58.65,-572.78 2.15,-675.67 60.8,-102.9 -14.03,-219.84 219.83,-238.54 155.08,-12.4 506.16,206.16 790.1,-164.4 282.13,-368.18 461.17,-6.92 989.37,-258.18 303.18,-144.22 724.98,89.34 1115.89,74.9 294.49,-10.88 559.85,1579.24 409.28,1881.74 -70.76,142.17 0.46,360.41 73.72,611.85 31.44,107.9 -1004.2,41.53 -1543.19,-185.63 -585.45,-246.74 -799.24,-76.14 -775.61,286.93 19.2,294.96 42.09,1202.04 -4.68,1426.55 -46.77,224.51 14.83,411.12 -116.13,551.44 -130.96,140.32 -51.78,159.03 -220.16,102.9 -168.38,-56.13 -598.68,-154.35 -1080.43,-32.74 0,0 -126.29,42.09 -135.64,-154.35 -9.35,-196.44 -476.34,-1052.35 -1107.77,-1220.74 0,0 -209.23,30.57 -211.91,-76.39 -2.67,-106.96 37.76,-149.09 152.75,-181.18 114.99,-32.09 123.65,-75.55 160.86,-219.06z"/>
   <path fill="none" stroke="black" stroke-width="6.94" stroke-linecap="round" stroke-linejoin="round" stroke-miterlimit="2.61313" d="M15109.44 8943.24c0,0 -14.36,-363.77 300.77,-334.52 315.13,29.26 527.88,71.8 845.67,71.8 317.79,0 913.49,-38.56 1002.57,35.9 89.09,74.46 127.65,-16.43 128.98,152.44 1.33,168.87 -6.07,383.71 -21.9,526.15 -15.83,142.44 1.76,411.49 -163.54,587.34 -165.3,175.85 -195.2,175.85 -334.12,172.33 -138.92,-3.52 -362.25,-79.14 -568,-72.1 -205.74,7.04 -283.12,65.07 -432.59,112.55 -149.47,47.48 -434.35,100.24 -601.41,-31.65 -167.06,-131.89 -202.23,-233.88 -207.5,-446.66 -5.28,-212.78 58.41,-588.18 51.07,-773.59z"/>
   <path fill="none" stroke="black" stroke-width="6.94" stroke-linecap="round" stroke-linejoin="round" stroke-miterlimit="2.61313" d="M14836.78 7222.87c0,0 -111.8,993.22 111.04,1127.69 222.84,134.47 328.96,102.64 445.69,113.25 116.73,10.61 530.58,56.59 686.22,77.81 155.64,21.22 838.32,7.07 993.96,-35.37 155.63,-42.44 311.27,56.59 382.02,-130.88 70.74,-187.47 229.92,-686.22 382.02,-965.66 152.1,-279.44 115.26,-466.83 53.19,-553.67 -62.07,-86.83 -614.48,-160.35 -823.17,-124.98 -208.69,35.37 -178,148.06 -443.29,148.06 -265.29,0 -1809.07,-209.93 -1787.67,343.73z"/>
   <path fill="none" stroke="black" stroke-width="6.94" stroke-linecap="round" stroke-linejoin="round" stroke-miterlimit="2.61313" d="M12178 18078.21c0,0 -34.87,-147.7 168.41,-286.8 203.28,-139.09 484.14,-187.24 687.42,-302.25 203.28,-115.02 313.17,-222.18 561.92,-224.85 248.76,-2.67 545.66,-2.68 679.4,101.64 133.74,104.32 382.5,299.57 369.12,518.91 -13.37,219.33 -61.52,347.72 -331.68,369.12 -270.15,21.4 -668.36,-130.34 -890.37,16.77 -222.01,147.11 -374.47,235.39 -505.54,224.69 -131.06,-10.7 -260,-40.68 -535.51,-32.65 -275.5,8.02 -166.95,-304.92 -203.18,-384.57z"/>
   <path fill="none" stroke="black" stroke-width="6.94" stroke-linecap="round" stroke-linejoin="round" stroke-miterlimit="2.61313" d="M12158.44 12251.81c0,0 -69.97,-81.49 -52.45,-541.56 17.52,-460.07 40.13,-475.59 288.89,-510.36 248.76,-34.77 243.41,-53.49 524.27,21.4 280.86,74.89 1356.16,42.8 1455.13,21.4 98.96,-21.4 382.5,-16.05 433.33,104.32 50.82,120.37 48.15,82.38 0,202.75 -48.15,120.37 -72.22,470.78 -77.57,569.75 -5.35,98.97 37.45,532.3 -500.2,636.62 -537.65,104.32 -1003.07,-58.85 -1171.59,-112.35 -168.52,-53.5 -799.79,-152.46 -899.8,-391.96z"/>
   <path fill="none" stroke="black" stroke-width="6.94" stroke-linecap="round" stroke-linejoin="round" stroke-miterlimit="2.61313" d="M12262.29 10528.17c0,0 -80.04,-288.02 56.08,-346.14 136.12,-58.12 368.12,165.27 736.7,-24.38 368.59,-189.65 190.38,-179.81 497.59,-291.52 307.21,-111.71 351.33,-131.66 637.44,-178.18 286.11,-46.52 446.6,-134.91 569.89,-93.04 123.28,41.87 188.41,-6.98 225.63,230.28 37.22,237.26 72.11,318.87 55.83,463.09 -16.28,144.22 6.98,858.32 -430.32,816.45 0,0 -441.96,60.48 -783.89,34.89 -341.93,-25.59 -507.09,34.89 -642,0 -134.91,-34.89 -430.33,-32.57 -590.82,-120.96 -160.5,-88.39 -336.88,-217.06 -332.13,-490.49z"/>
   <path fill="none" stroke="black" stroke-width="6.94" stroke-linecap="round" stroke-linejoin="round" stroke-miterlimit="2.61313" d="M12157.73 9768.22c0,0 -139.15,-511.79 74.85,-806.04 214,-294.26 492.21,-101.65 917.54,-267.5 425.33,-165.85 856.01,-297.9 1005.81,-321.01 149.8,-23.11 288.91,-153.22 489.54,-23.11 200.63,130.11 355.78,571.49 280.88,820.27 -74.9,248.78 -165.04,291.35 -209.24,289.02 -44.2,-2.32 -223.31,2.33 -390.79,55.83 -167.48,53.5 -411.72,67.46 -602.47,153.52 -190.74,86.07 -241.92,79.09 -325.66,116.31 -83.74,37.22 -237.26,193.07 -425.68,244.24 -188.42,51.17 -237.26,165.15 -502.44,51.17 -265.18,-113.98 -312.34,-312.71 -312.34,-312.71z"/>
   <path fill="none" stroke="black" stroke-width="6.94" stroke-linecap="round" stroke-linejoin="round" stroke-miterlimit="2.61313" d="M10600.06 5406.59c-141.6,399.81 -15.32,1652.93 -69.13,1841.24 -53.81,188.32 -322.02,308.07 -192.88,485.63 129.13,177.56 561.81,513.48 588.72,658.76 26.91,145.28 234.22,477.57 715.48,477.57 481.26,0 364.87,-111.8 657.98,-176.93 293.1,-65.13 386.16,34.9 555.97,-4.65 169.81,-39.55 737.41,-209.36 835.11,-309.39 97.7,-100.03 642.04,-246.58 779.29,-200.06 137.25,46.52 302.41,-69.79 267.52,-216.34 -34.89,-146.55 -83.74,-469.9 -51.18,-604.82 32.57,-134.92 141.9,-388.48 93.05,-425.7 -48.85,-37.22 -18.61,-205.8 -355.91,-90.72 -36.8,12.56 -234.96,-145.73 -441.32,-125.57 -727.46,71.06 -1958.8,232.66 -1899.71,-463.49 28.6,-336.95 352.83,-462.26 244.57,-587.54 -115.19,-133.3 -51.94,-374.96 -189.3,-442.32 -318.03,-155.96 -411.09,-55.56 -655.26,2.76 -541.11,129.26 -648.81,-80.2 -883,181.55z"/>
   <path fill="none" stroke="black" stroke-width="6.94" stroke-linecap="round" stroke-linejoin="round" stroke-miterlimit="2.61313" d="M10816.19 26777.87c0,0 147.35,-266.46 318.24,-335.63 170.89,-69.17 967.86,-122.06 1081.78,-93.58 113.93,28.48 297.02,105.79 398.74,199.37 101.72,93.58 223.78,280.74 40.69,610.31 -183.09,329.57 -219.71,614.37 -240.06,736.44 -20.35,122.06 -69.17,248.19 -150.54,248.19 -81.37,0 -374.32,32.56 -488.25,56.96 -113.93,24.41 -134.27,89.51 -394.67,85.44 -260.4,-4.07 -338.63,-56 -303.07,-374.32 35.55,-318.32 -133.08,-226.56 -190.04,-539.85 -56.96,-313.29 -72.82,-399.99 -72.82,-593.33z"/>
   <path fill="none" stroke="black" stroke-width="6.94" stroke-linecap="round" stroke-linejoin="round" stroke-miterlimit="2.61313" d="M11027.06 24869.43c339.35,18.65 1062,-58.45 1129.69,-3.07 67.69,55.38 138.44,107.68 144.6,166.13 6.15,58.46 21.54,181.52 15.39,393.8 -6.15,212.28 12.3,310.74 39.99,436.87 27.69,126.14 135.37,443.03 -169.21,409.19 -304.58,-33.84 -563.59,55.38 -828.18,9.23 -264.59,-46.15 -360.17,178.44 -467.64,132.29 -107.47,-46.15 -166.5,-190.63 -123.43,-307.54 135.14,-366.78 -259.59,-1265.39 258.8,-1236.9z"/>
   <path fill="none" stroke="black" stroke-width="6.94" stroke-linecap="round" stroke-linejoin="round" stroke-miterlimit="2.61313" d="M10994.97 20421.89c0,0 155.4,-241.96 582.4,-227.73 427,14.23 619.14,-28.47 832.64,-42.7 213.5,-14.23 619.15,-21.35 754.36,177.92 135.22,199.26 281.98,697.42 322.46,875.34 40.48,177.92 47.59,277.55 -52.04,341.6 -99.63,64.05 -861.11,249.08 -1017.67,277.55 -156.57,28.46 -192.15,106.75 -519.51,149.45 -327.36,42.7 -848.96,76.19 -827.61,-279.63 32.3,-538.46 -75.03,-912.79 -75.03,-1271.78z"/>
   <path fill="none" stroke="black" stroke-width="6.94" stroke-linecap="round" stroke-linejoin="round" stroke-miterlimit="2.61313" d="M11245.9 22134.38c517.94,-10.39 533.45,-98.27 636.4,-46.8 102.95,51.47 179.94,42.12 210.57,360.31 30.63,318.2 65.95,276.09 30.63,496.02 -35.31,219.93 62.2,1588.45 0,1686.72 -62.2,98.27 -203.77,112.3 -278.64,98.27 -74.87,-14.04 -653.28,46.8 -774.94,14.04 -121.67,-32.76 -392.72,-22.27 -359.97,-106.49 112.6,-289.57 18,-2491.68 535.95,-2502.07z"/>
   <path fill="none" stroke="black" stroke-width="6.94" stroke-linecap="round" stroke-linejoin="round" stroke-miterlimit="2.61313" d="M10831.21 18731.28c0,0 83.98,-111.61 279.3,-131.96 195.31,-20.35 797.74,-4.63 1022.26,-8.87 224.52,-4.24 321.27,-11.47 459.62,21.08 138.35,32.55 292.98,8.14 333.67,219.73 40.69,211.59 53.95,1111.83 -19.3,1140.32 -73.25,28.48 -227.88,52.9 -386.57,32.55 -158.69,-20.35 -660.93,20.33 -803.35,-24.41 -70.39,-22.12 22.17,-517.07 -11.3,-749.83 -43.92,-305.43 -557.48,-28.69 -774.39,-116.93 -100.56,-40.91 -95.87,-100.91 -99.94,-381.68z"/>
   <path fill="none" stroke="black" stroke-width="6.94" stroke-linecap="round" stroke-linejoin="round" stroke-miterlimit="2.61313" d="M12156.91 17771.71c140.22,-176.43 551.13,-286.82 650.21,-375.28 99.07,-88.46 445.84,-187.54 580.3,-226.46 134.46,-38.92 384.39,-169.75 288.85,-265.29 -95.54,-95.54 -173.38,-49.54 -414,-123.85 -240.61,-74.31 -1432.76,-219.41 -1744.14,-84.95 -311.38,134.46 -429.18,55.32 -439.8,232.24 -10.62,176.92 110.85,423.2 160.39,851.35 49.54,428.15 -184.43,614.89 -71.2,657.35 113.23,42.46 785.78,55.5 856.3,31.85 132.9,-44.57 -90.98,-97.11 -20.17,-242.95 18.43,-37.94 -17.68,-238.93 153.25,-454.01z"/>
   <path fill="none" stroke="black" stroke-width="6.94" stroke-linecap="round" stroke-linejoin="round" stroke-miterlimit="2.61313" d="M10334.74 15743.03c0,0 127.39,-207.96 386.93,-221.34 259.54,-13.38 1357.99,-0.87 1494.45,44.61 136.46,45.48 987.33,165.89 1083.66,200.68 96.33,34.78 246.17,37.46 275.6,278.27 29.43,240.81 56.19,497.68 24.08,572.6 -32.11,74.92 34.78,123.08 -123.08,128.43 -157.87,5.35 -757.22,-160.54 -1091.68,-165.89 -334.46,-5.35 -1320.53,32.99 -1459.67,70.44 -139.14,37.46 -240.81,192.65 -337.14,109.7 -96.33,-82.94 -306.76,-69.57 -266.62,-216.73 40.14,-147.16 13.47,-800.78 13.47,-800.78z"/>
   <path fill="none" stroke="black" stroke-width="6.94" stroke-linecap="round" stroke-linejoin="round" stroke-miterlimit="2.61313" d="M10741.94 15310.03c155.1,25.02 1216.83,37.13 1361.45,-24.41 144.63,-61.54 587.73,206.98 800.06,256.22 212.33,49.24 341.57,67.7 418.5,-49.23 76.93,-116.93 221.55,-1768.91 123.08,-1944.3 -98.47,-175.39 -153.85,-153.86 -344.64,-175.4 -190.78,-21.54 -218.48,73.85 -615.43,95.39 -396.95,21.54 -655.43,0 -913.91,15.39 -258.48,15.39 -859.67,-32.57 -890.44,78.21 -30.77,110.78 -52.93,331.06 -25.24,432.6 33.7,123.6 -68.52,1290.53 86.57,1315.54z"/>
   <path fill="none" stroke="black" stroke-width="6.94" stroke-linecap="round" stroke-linejoin="round" stroke-miterlimit="2.61313" d="M11499.43 12390.28c277.96,-15.9 479.43,-85.41 624.07,0 144.64,85.41 527.61,236.27 756.77,270.48 229.15,34.2 484.01,128.11 540.95,249.12 56.94,121 14.24,391.48 -92.53,391.48 -106.77,0 -327.42,-14.23 -462.65,21.35 -135.24,35.59 -495.7,106.76 -742.53,56.94 -246.83,-49.82 -545.74,51.16 -723.72,56.94 -1725.03,56 -1405.26,-960.2 99.65,-1046.31z"/>
   <path fill="none" stroke="black" stroke-width="6.94" stroke-linecap="round" stroke-linejoin="round" stroke-miterlimit="2.61313" d="M11318 11206.49c215.87,0 422.72,-24.77 500.58,28.31 77.85,53.08 162.79,63.7 159.25,201.72 -3.54,138.02 -24.78,307.89 -17.7,470.68 7.08,162.79 88.48,231.68 -21.23,281.22 -109.71,49.54 -47.59,35.39 -206.85,46 -159.25,10.62 -420.28,-6.86 -502.53,22.7 -324.6,116.65 -658.78,288.32 -585.93,-178.18 28.53,-182.65 14.16,-325.59 0,-396.36 -90.29,-451.35 284.72,-476.09 674.4,-476.09z"/>
   <path fill="none" stroke="black" stroke-width="6.94" stroke-linecap="round" stroke-linejoin="round" stroke-miterlimit="2.61313" d="M22175.93 29009.78c0,0 48.86,-574.46 41.89,-902.2 -6.97,-327.74 -146.44,-581.1 134.81,-639.21 281.25,-58.11 397.48,-53.46 504.4,-88.33 106.92,-34.87 209.19,-95.3 413.74,-104.6 204.55,-9.3 258.01,-44.16 413.74,-6.97 155.74,37.19 397.47,120.87 434.66,483.48 37.19,362.61 11.62,439.31 46.49,620.61 34.87,181.3 32.54,276.6 13.95,543.91 -18.59,267.31 41.83,325.42 67.41,436.99 25.57,111.57 9.1,32.33 -53.66,116.01 -62.76,83.68 -641.93,-142.63 -820.91,-119.39 -178.98,23.24 -246.4,83.68 -595.07,37.19 -348.67,-46.49 -474.19,92.39 -604.36,115.64 -130.17,23.25 -157.62,122.25 2.91,-493.13z"/>
   <path fill="none" stroke="black" stroke-width="6.94" stroke-linecap="round" stroke-linejoin="round" stroke-miterlimit="2.61313" d="M19960.31 28836.44c0,0 -4.07,-552.92 44.72,-837.51 48.79,-284.59 308.98,-378.09 512.26,-418.75 203.28,-40.66 865.97,-215.48 1040.79,-353.71 174.82,-138.23 447.21,-24.39 475.67,365.9 28.46,390.3 12.2,730.33 -12.19,963.54 -24.39,233.22 -4.07,439.08 -73.18,634.23 -69.11,195.15 -56.06,289.51 -60.13,411.48 -4.07,121.97 65.05,191.08 -158.56,178.89 -223.61,-12.2 -1049.77,56.06 -1623.02,7.27 -573.25,-48.78 -89.44,-471.61 -146.36,-951.34z"/>
   <path fill="none" stroke="black" stroke-width="6.94" stroke-linecap="round" stroke-linejoin="round" stroke-miterlimit="2.61313" d="M17174.85 29265.75c0,0 -148.4,-890.41 61.83,-1397.44 210.23,-507.03 123.67,-630.7 315.35,-673.98 191.68,-43.28 389.55,-136.03 568.87,-105.11 179.31,30.92 636.88,-105.11 729.63,-111.3 92.75,-6.19 272.06,30.92 371,142.22 98.94,111.3 395.74,296.8 519.4,469.93 123.67,173.13 179.31,568.87 123.67,803.83 -55.65,234.96 24.74,414.28 -18.55,544.13 -43.28,129.85 -126.86,553.17 -142.22,749.5 -15.36,196.33 -466.35,189.91 -624,148.2 -349.95,-92.57 -1821.2,265.65 -1904.99,-569.98z"/>
   <path fill="none" stroke="black" stroke-width="6.94" stroke-linecap="round" stroke-linejoin="round" stroke-miterlimit="2.61313" d="M14361.45 29401.12c0,0 -40.91,-579.73 68.08,-769.8 108.99,-190.07 311.02,-123.61 360.19,-107.66 49.18,15.95 204.69,-7.98 348.23,69.11 143.55,77.09 398.74,125.29 645.96,160.83 247.22,35.54 513.68,102.23 680.11,269.81 166.43,167.59 247.34,165.27 293.57,125.98 46.23,-39.3 260.05,-123.67 299.34,13.87 39.3,137.54 36.32,312.57 135.37,409.59 99.05,97.03 107.14,216.3 26.28,228.43 -80.86,12.13 -64.69,50.54 -321.42,0 -256.73,-50.54 -327.48,-28.3 -477.07,20.22 -149.59,48.52 -659,-10.11 -897.54,-26.28 -238.54,-16.17 -573.08,109.41 -931.75,4.29 -358.67,-105.13 -229.36,-398.39 -229.36,-398.39z"/>
   <path fill="none" stroke="black" stroke-width="6.94" stroke-linecap="round" stroke-linejoin="round" stroke-miterlimit="2.61313" d="M12674.19 29671c0,0 30.92,103.58 247.36,148.41 216.44,44.83 806.09,19.02 948.32,25.21 142.23,6.19 363.26,44.08 420.5,-105.13 57.24,-149.2 -74.01,-171.08 -45.88,-320.5 28.13,-149.42 58.01,-458.11 50.98,-629.85 -7.03,-171.74 -14.52,-400.5 -263.68,-426.49 -249.16,-25.99 -249.16,-18.34 -376.04,6.11 -126.88,24.46 -495.27,175.8 -666.48,420.37 -171.2,244.57 -299.94,271.97 -330.69,407.25 -30.75,135.28 -79.94,282.86 15.6,474.61z"/>
   <path fill="none" stroke="black" stroke-width="6.94" stroke-linecap="round" stroke-linejoin="round" stroke-miterlimit="2.61313" d="M24758.18 30784.39c0,0 -645.81,-1888.28 -322.51,-2696.06 323.3,-807.78 234.63,-469.27 412.39,-547.48 177.75,-78.21 526.15,-369.72 661.24,-426.6 135.09,-56.88 334.17,-156.42 675.46,-14.22 341.28,142.2 634.5,215.52 961.56,528.37 327.06,312.84 999.44,-54.48 1042.1,-4.71 42.66,49.77 -25.93,392.98 2.4,612.24 10.42,80.67 -246.51,213.43 -226.58,362.48 34.24,256.08 -14.98,491.02 -75.82,655.24 -96.26,259.83 184.05,504.78 -2.12,647.98 -362.44,278.77 -311.42,248.03 -813.7,527.06 -340.13,188.94 -640.76,194.88 -955.35,126.82 -464.62,-100.51 -679.5,153.55 -693.36,164.85 -193.58,157.89 -562.15,187.83 -665.7,64.03z"/>
  </g>
 </g>
</svg>
