<?xml version="1.0" encoding="UTF-8"?>
<svg xmlns="http://www.w3.org/2000/svg" viewBox="0 0 1277.81 1078.38">
  <defs>
    <style>
      .cls-1 {
        fill: none;
        stroke: #000;
        stroke-linecap: round;
        stroke-linejoin: round;
        stroke-width: .22px;
      }
    </style>
  </defs>
  <g id="Layer_1" data-name="Layer 1" image-rendering="optimizeQuality" shape-rendering="geometricPrecision" text-rendering="geometricPrecision">
    <g id="Layer_1-2" data-name="Layer_1">
      <g id="_2617483670736" data-name=" 2617483670736">
        <path class="cls-1" d="M16.85,112.79h116.83c7.5,0,13.59,4.84,13.59,10.8v50.4c0,5.96-6.08,10.8-13.59,10.8H16.85c-7.5,0-13.59-4.84-13.59-10.8v-50.4c0-5.96,6.08-10.8,13.59-10.8Z"/>
        <path class="cls-1" d="M177.84,112.79h116.83c7.5,0,13.59,4.84,13.59,10.8v50.4c0,5.96-6.08,10.8-13.59,10.8h-116.83c-7.5,0-13.59-4.84-13.59-10.8v-50.4c0-5.96,6.08-10.8,13.59-10.8Z"/>
        <path class="cls-1" d="M338.82,112.79h116.83c7.5,0,13.59,4.84,13.59,10.8v50.4c0,5.96-6.08,10.8-13.59,10.8h-116.83c-7.5,0-13.59-4.84-13.59-10.8v-50.4c0-5.96,6.08-10.8,13.59-10.8Z"/>
        <path class="cls-1" d="M499.81,112.79h116.83c7.5,0,13.59,4.84,13.59,10.8v50.4c0,5.96-6.08,10.8-13.59,10.8h-116.83c-7.5,0-13.59-4.84-13.59-10.8v-50.4c0-5.96,6.08-10.8,13.59-10.8Z"/>
        <path class="cls-1" d="M16.85,220.36h116.83c7.5,0,13.59,7.25,13.59,16.2v75.6c0,8.95-6.08,16.2-13.59,16.2H16.85c-7.5,0-13.59-7.25-13.59-16.2v-75.6c0-8.95,6.08-16.2,13.59-16.2Z"/>
        <path class="cls-1" d="M177.84,220.24h116.83c7.5,0,13.59,7.25,13.59,16.2v75.6c0,8.95-6.08,16.2-13.59,16.2h-116.83c-7.5,0-13.59-7.25-13.59-16.2v-75.6c0-8.95,6.08-16.2,13.59-16.2Z"/>
        <path class="cls-1" d="M338.77,220.24h116.83c7.5,0,13.59,7.25,13.59,16.2v75.6c0,8.95-6.08,16.2-13.59,16.2h-116.83c-7.5,0-13.59-7.25-13.59-16.2v-75.6c0-8.95,6.08-16.2,13.59-16.2Z"/>
        <path class="cls-1" d="M499.82,220.32h116.83c7.5,0,13.59,7.25,13.59,16.2v75.6c0,8.95-6.08,16.2-13.59,16.2h-116.83c-7.5,0-13.59-7.25-13.59-16.2v-75.6c0-8.95,6.08-16.2,13.59-16.2Z"/>
        <path class="cls-1" d="M16.74,364.24h116.83c7.5,0,13.59,4.84,13.59,10.8v50.4c0,5.96-6.08,10.8-13.59,10.8H16.74c-7.5,0-13.59-4.84-13.59-10.8v-50.4c0-5.96,6.08-10.8,13.59-10.8Z"/>
        <path class="cls-1" d="M177.73,364.24h116.83c7.5,0,13.59,4.84,13.59,10.8v50.4c0,5.96-6.08,10.8-13.59,10.8h-116.83c-7.5,0-13.59-4.84-13.59-10.8v-50.4c0-5.96,6.08-10.8,13.59-10.8Z"/>
        <path class="cls-1" d="M338.72,364.24h116.83c7.5,0,13.59,4.84,13.59,10.8v50.4c0,5.96-6.08,10.8-13.59,10.8h-116.83c-7.5,0-13.59-4.84-13.59-10.8v-50.4c0-5.96,6.08-10.8,13.59-10.8Z"/>
        <path class="cls-1" d="M499.71,364.24h116.83c7.5,0,13.59,4.84,13.59,10.8v50.4c0,5.96-6.08,10.8-13.59,10.8h-116.83c-7.5,0-13.59-4.84-13.59-10.8v-50.4c0-5.96,6.08-10.8,13.59-10.8Z"/>
        <path class="cls-1" d="M16.85,472.24h116.83c7.5,0,13.59,10.63,13.59,23.73v110.76c0,13.11-6.08,23.73-13.59,23.73H16.85c-7.5,0-13.59-10.63-13.59-23.73v-110.76c0-13.11,6.08-23.73,13.59-23.73Z"/>
        <path class="cls-1" d="M177.84,472.06h116.83c7.5,0,13.59,10.63,13.59,23.73v110.76c0,13.11-6.08,23.73-13.59,23.73h-116.83c-7.5,0-13.59-10.63-13.59-23.73v-110.76c0-13.11,6.08-23.73,13.59-23.73Z"/>
        <path class="cls-1" d="M338.77,472.06h116.83c7.5,0,13.59,10.63,13.59,23.73v110.76c0,13.11-6.08,23.73-13.59,23.73h-116.83c-7.5,0-13.59-10.63-13.59-23.73v-110.76c0-13.11,6.08-23.73,13.59-23.73Z"/>
        <path class="cls-1" d="M499.82,472.18h116.83c7.5,0,13.59,10.63,13.59,23.73v110.76c0,13.11-6.08,23.73-13.59,23.73h-116.83c-7.5,0-13.59-10.63-13.59-23.73v-110.76c0-13.11,6.08-23.73,13.59-23.73Z"/>
        <path class="cls-1" d="M16.85,666.46h116.83c7.5,0,13.59,10.63,13.59,23.73v110.76c0,13.11-6.08,23.73-13.59,23.73H16.85c-7.5,0-13.59-10.63-13.59-23.73v-110.76c0-13.11,6.08-23.73,13.59-23.73Z"/>
        <path class="cls-1" d="M177.84,666.28h116.83c7.5,0,13.59,10.63,13.59,23.73v110.76c0,13.11-6.08,23.73-13.59,23.73h-116.83c-7.5,0-13.59-10.63-13.59-23.73v-110.76c0-13.11,6.08-23.73,13.59-23.73Z"/>
        <path class="cls-1" d="M338.77,666.28h116.83c7.5,0,13.59,10.63,13.59,23.73v110.76c0,13.11-6.08,23.73-13.59,23.73h-116.83c-7.5,0-13.59-10.63-13.59-23.73v-110.76c0-13.11,6.08-23.73,13.59-23.73Z"/>
        <path class="cls-1" d="M499.82,666.4h116.83c7.5,0,13.59,10.63,13.59,23.73v110.76c0,13.11-6.08,23.73-13.59,23.73h-116.83c-7.5,0-13.59-10.63-13.59-23.73v-110.76c0-13.11,6.08-23.73,13.59-23.73Z"/>
        <path class="cls-1" d="M16.85,860.68h116.83c7.5,0,13.59,14.49,13.59,32.36v151.03c0,17.87-6.08,32.36-13.59,32.36H16.85c-7.5,0-13.59-14.49-13.59-32.36v-151.03c0-17.87,6.08-32.36,13.59-32.36Z"/>
        <path class="cls-1" d="M177.84,860.44h116.83c7.5,0,13.59,14.49,13.59,32.36v151.03c0,17.87-6.08,32.36-13.59,32.36h-116.83c-7.5,0-13.59-14.49-13.59-32.36v-151.03c0-17.87,6.08-32.36,13.59-32.36Z"/>
        <path class="cls-1" d="M338.77,860.44h116.83c7.5,0,13.59,14.49,13.59,32.36v151.03c0,17.87-6.08,32.36-13.59,32.36h-116.83c-7.5,0-13.59-14.49-13.59-32.36v-151.03c0-17.87,6.08-32.36,13.59-32.36Z"/>
        <path class="cls-1" d="M499.82,860.61h116.83c7.5,0,13.59,14.49,13.59,32.36v151.03c0,17.87-6.08,32.36-13.59,32.36h-116.83c-7.5,0-13.59-14.49-13.59-32.36v-151.03c0-17.87,6.08-32.36,13.59-32.36Z"/>
        <path class="cls-1" d="M697.81,112.79h116.83c7.5,0,13.59,4.84,13.59,10.8v50.4c0,5.96-6.08,10.8-13.59,10.8h-116.83c-7.5,0-13.59-4.84-13.59-10.8v-50.4c0-5.96,6.08-10.8,13.59-10.8Z"/>
        <path class="cls-1" d="M858.8,112.79h116.83c7.5,0,13.59,4.84,13.59,10.8v50.4c0,5.96-6.08,10.8-13.59,10.8h-116.83c-7.5,0-13.59-4.84-13.59-10.8v-50.4c0-5.96,6.08-10.8,13.59-10.8Z"/>
        <path class="cls-1" d="M697.76,220.24h116.83c7.5,0,13.59,7.25,13.59,16.2v75.6c0,8.95-6.08,16.2-13.59,16.2h-116.83c-7.5,0-13.59-7.25-13.59-16.2v-75.6c0-8.95,6.08-16.2,13.59-16.2Z"/>
        <path class="cls-1" d="M858.81,220.32h116.83c7.5,0,13.59,7.25,13.59,16.2v75.6c0,8.95-6.08,16.2-13.59,16.2h-116.83c-7.5,0-13.59-7.25-13.59-16.2v-75.6c0-8.95,6.08-16.2,13.59-16.2Z"/>
        <path class="cls-1" d="M697.71,364.24h116.83c7.5,0,13.59,4.84,13.59,10.8v50.4c0,5.96-6.08,10.8-13.59,10.8h-116.83c-7.5,0-13.59-4.84-13.59-10.8v-50.4c0-5.96,6.08-10.8,13.59-10.8Z"/>
        <path class="cls-1" d="M858.7,364.24h116.83c7.5,0,13.59,4.84,13.59,10.8v50.4c0,5.96-6.08,10.8-13.59,10.8h-116.83c-7.5,0-13.59-4.84-13.59-10.8v-50.4c0-5.96,6.08-10.8,13.59-10.8Z"/>
        <path class="cls-1" d="M697.76,472.06h116.83c7.5,0,13.59,10.63,13.59,23.73v110.76c0,13.11-6.08,23.73-13.59,23.73h-116.83c-7.5,0-13.59-10.63-13.59-23.73v-110.76c0-13.11,6.08-23.73,13.59-23.73Z"/>
        <path class="cls-1" d="M858.81,472.18h116.83c7.5,0,13.59,10.63,13.59,23.73v110.76c0,13.11-6.08,23.73-13.59,23.73h-116.83c-7.5,0-13.59-10.63-13.59-23.73v-110.76c0-13.11,6.08-23.73,13.59-23.73Z"/>
        <path class="cls-1" d="M697.76,666.28h116.83c7.5,0,13.59,10.63,13.59,23.73v110.76c0,13.11-6.08,23.73-13.59,23.73h-116.83c-7.5,0-13.59-10.63-13.59-23.73v-110.76c0-13.11,6.08-23.73,13.59-23.73Z"/>
        <path class="cls-1" d="M858.81,666.4h116.83c7.5,0,13.59,10.63,13.59,23.73v110.76c0,13.11-6.08,23.73-13.59,23.73h-116.83c-7.5,0-13.59-10.63-13.59-23.73v-110.76c0-13.11,6.08-23.73,13.59-23.73Z"/>
        <path class="cls-1" d="M697.76,860.44h116.83c7.5,0,13.59,14.49,13.59,32.36v151.03c0,17.87-6.08,32.36-13.59,32.36h-116.83c-7.5,0-13.59-14.49-13.59-32.36v-151.03c0-17.87,6.08-32.36,13.59-32.36Z"/>
        <path class="cls-1" d="M858.81,860.61h116.83c7.5,0,13.59,14.49,13.59,32.36v151.03c0,17.87-6.08,32.36-13.59,32.36h-116.83c-7.5,0-13.59-14.49-13.59-32.36v-151.03c0-17.87,6.08-32.36,13.59-32.36Z"/>
        <path class="cls-1" d="M1050,112.79h58.37c3.75,0,6.79,4.84,6.79,10.8v50.4c0,5.96-3.04,10.8-6.79,10.8h-58.37c-3.75,0-6.79-4.84-6.79-10.8v-50.4c0-5.96,3.04-10.8,6.79-10.8Z"/>
        <path class="cls-1" d="M1049.98,220.24h58.37c3.75,0,6.79,7.25,6.79,16.2v75.6c0,8.95-3.04,16.2-6.79,16.2h-58.37c-3.75,0-6.79-7.25-6.79-16.2v-75.6c0-8.95,3.04-16.2,6.79-16.2Z"/>
        <path class="cls-1" d="M1049.95,364.24h58.37c3.75,0,6.79,4.84,6.79,10.8v50.4c0,5.96-3.04,10.8-6.79,10.8h-58.37c-3.75,0-6.79-4.84-6.79-10.8v-50.4c0-5.96,3.04-10.8,6.79-10.8Z"/>
        <path class="cls-1" d="M1049.98,472.06h58.37c3.75,0,6.79,10.63,6.79,23.73v110.76c0,13.11-3.04,23.73-6.79,23.73h-58.37c-3.75,0-6.79-10.63-6.79-23.73v-110.76c0-13.11,3.04-23.73,6.79-23.73Z"/>
        <path class="cls-1" d="M1049.98,666.28h58.37c3.75,0,6.79,10.63,6.79,23.73v110.76c0,13.11-3.04,23.73-6.79,23.73h-58.37c-3.75,0-6.79-10.63-6.79-23.73v-110.76c0-13.11,3.04-23.73,6.79-23.73Z"/>
        <path class="cls-1" d="M1049.98,860.44h58.37c3.75,0,6.79,14.49,6.79,32.36v151.03c0,17.87-3.04,32.36-6.79,32.36h-58.37c-3.75,0-6.79-14.49-6.79-32.36v-151.03c0-17.87,3.04-32.36,6.79-32.36Z"/>
        <path class="cls-1" d="M1145.74,112.79h116.83c7.5,0,13.59,4.84,13.59,10.8v50.4c0,5.96-6.08,10.8-13.59,10.8h-116.83c-7.5,0-13.59-4.84-13.59-10.8v-50.4c0-5.96,6.08-10.8,13.59-10.8Z"/>
        <path class="cls-1" d="M1145.75,220.32h116.83c7.5,0,13.59,7.25,13.59,16.2v75.6c0,8.95-6.08,16.2-13.59,16.2h-116.83c-7.5,0-13.59-7.25-13.59-16.2v-75.6c0-8.95,6.08-16.2,13.59-16.2Z"/>
        <path class="cls-1" d="M1145.64,364.24h116.83c7.5,0,13.59,4.84,13.59,10.8v50.4c0,5.96-6.08,10.8-13.59,10.8h-116.83c-7.5,0-13.59-4.84-13.59-10.8v-50.4c0-5.96,6.08-10.8,13.59-10.8Z"/>
        <path class="cls-1" d="M1145.75,472.18h116.83c7.5,0,13.59,10.63,13.59,23.73v110.76c0,13.11-6.08,23.73-13.59,23.73h-116.83c-7.5,0-13.59-10.63-13.59-23.73v-110.76c0-13.11,6.08-23.73,13.59-23.73Z"/>
        <path class="cls-1" d="M1145.75,666.4h116.83c7.5,0,13.59,10.63,13.59,23.73v110.76c0,13.11-6.08,23.73-13.59,23.73h-116.83c-7.5,0-13.59-10.63-13.59-23.73v-110.76c0-13.11,6.08-23.73,13.59-23.73Z"/>
        <path class="cls-1" d="M1145.75,860.61h116.83c7.5,0,13.59,14.49,13.59,32.36v151.03c0,17.87-6.08,32.36-13.59,32.36h-116.83c-7.5,0-13.59-14.49-13.59-32.36v-151.03c0-17.87,6.08-32.36,13.59-32.36Z"/>
        <path class="cls-1" d="M16.85,4.79h116.83c7.5,0,13.59,4.84,13.59,10.8v50.4c0,5.96-6.08,10.8-13.59,10.8H16.85c-7.5,0-13.59-4.84-13.59-10.8V15.59c0-5.96,6.08-10.8,13.59-10.8Z"/>
        <path class="cls-1" d="M177.84,4.79h116.83c7.5,0,13.59,4.84,13.59,10.8v50.4c0,5.96-6.08,10.8-13.59,10.8h-116.83c-7.5,0-13.59-4.84-13.59-10.8V15.59c0-5.96,6.08-10.8,13.59-10.8Z"/>
        <path class="cls-1" d="M338.82,4.79h116.83c7.5,0,13.59,4.84,13.59,10.8v50.4c0,5.96-6.08,10.8-13.59,10.8h-116.83c-7.5,0-13.59-4.84-13.59-10.8V15.59c0-5.96,6.08-10.8,13.59-10.8Z"/>
        <path class="cls-1" d="M499.81,4.79h116.83c7.5,0,13.59,4.84,13.59,10.8v50.4c0,5.96-6.08,10.8-13.59,10.8h-116.83c-7.5,0-13.59-4.84-13.59-10.8V15.59c0-5.96,6.08-10.8,13.59-10.8Z"/>
        <path class="cls-1" d="M697.81,4.79h116.83c7.5,0,13.59,4.84,13.59,10.8v50.4c0,5.96-6.08,10.8-13.59,10.8h-116.83c-7.5,0-13.59-4.84-13.59-10.8V15.59c0-5.96,6.08-10.8,13.59-10.8Z"/>
        <path class="cls-1" d="M858.8,4.79h116.83c7.5,0,13.59,4.84,13.59,10.8v50.4c0,5.96-6.08,10.8-13.59,10.8h-116.83c-7.5,0-13.59-4.84-13.59-10.8V15.59c0-5.96,6.08-10.8,13.59-10.8Z"/>
        <path class="cls-1" d="M1050,4.79h58.37c3.75,0,6.79,4.84,6.79,10.8v50.4c0,5.96-3.04,10.8-6.79,10.8h-58.37c-3.75,0-6.79-4.84-6.79-10.8V15.59c0-5.96,3.04-10.8,6.79-10.8Z"/>
        <path class="cls-1" d="M1145.74,4.79h116.83c7.5,0,13.59,4.84,13.59,10.8v50.4c0,5.96-6.08,10.8-13.59,10.8h-116.83c-7.5,0-13.59-4.84-13.59-10.8V15.59c0-5.96,6.08-10.8,13.59-10.8Z"/>
      </g>
    </g>
  </g>
</svg>