<?xml version="1.0" encoding="UTF-8"?>
<!DOCTYPE svg PUBLIC "-//W3C//DTD SVG 1.1//EN" "http://www.w3.org/Graphics/SVG/1.1/DTD/svg11.dtd">
<!-- Creator: CorelDRAW 2021 (64-Bit) -->
<svg xmlns="http://www.w3.org/2000/svg" xml:space="preserve" width="24in" height="24in" version="1.1" shape-rendering="geometricPrecision" text-rendering="geometricPrecision" image-rendering="optimizeQuality" fill-rule="evenodd" clip-rule="evenodd"
viewBox="0 0 24000 24000"
 xmlns:xlink="http://www.w3.org/1999/xlink"
 xmlns:xodm="http://www.corel.com/coreldraw/odm/2003">
 <g id="Layer_x0020_1">
  <metadata id="CorelCorpID_0Corel-Layer"/>
  <g id="_2617483670736">
   <rect fill="none" stroke="black" stroke-width="3" stroke-linecap="round" stroke-linejoin="round" stroke-miterlimit="2.61313" x="2411.09" y="5054.12" width="2000" height="1000" rx="188.71" ry="150"/>
   <rect fill="none" stroke="black" stroke-width="3" stroke-linecap="round" stroke-linejoin="round" stroke-miterlimit="2.61313" x="4647.06" y="5054.12" width="2000" height="1000" rx="188.71" ry="150"/>
   <rect fill="none" stroke="black" stroke-width="3" stroke-linecap="round" stroke-linejoin="round" stroke-miterlimit="2.61313" x="6883.02" y="5054.12" width="2000" height="1000" rx="188.71" ry="150"/>
   <rect fill="none" stroke="black" stroke-width="3" stroke-linecap="round" stroke-linejoin="round" stroke-miterlimit="2.61313" x="9118.99" y="5054.12" width="2000" height="1000" rx="188.71" ry="150"/>
   <rect fill="none" stroke="black" stroke-width="3" stroke-linecap="round" stroke-linejoin="round" stroke-miterlimit="2.61313" x="2411.09" y="6548.1" width="2000" height="1500" rx="188.71" ry="225"/>
   <rect fill="none" stroke="black" stroke-width="3" stroke-linecap="round" stroke-linejoin="round" stroke-miterlimit="2.61313" x="4647.13" y="6546.42" width="2000" height="1500" rx="188.71" ry="225"/>
   <rect fill="none" stroke="black" stroke-width="3" stroke-linecap="round" stroke-linejoin="round" stroke-miterlimit="2.61313" x="6882.22" y="6546.42" width="2000" height="1500" rx="188.71" ry="225"/>
   <rect fill="none" stroke="black" stroke-width="3" stroke-linecap="round" stroke-linejoin="round" stroke-miterlimit="2.61313" x="9119.08" y="6547.57" width="2000" height="1500" rx="188.71" ry="225"/>
   <rect fill="none" stroke="black" stroke-width="3" stroke-linecap="round" stroke-linejoin="round" stroke-miterlimit="2.61313" x="2409.69" y="8546.42" width="2000" height="1000" rx="188.71" ry="150"/>
   <rect fill="none" stroke="black" stroke-width="3" stroke-linecap="round" stroke-linejoin="round" stroke-miterlimit="2.61313" x="4645.66" y="8546.42" width="2000" height="1000" rx="188.71" ry="150"/>
   <rect fill="none" stroke="black" stroke-width="3" stroke-linecap="round" stroke-linejoin="round" stroke-miterlimit="2.61313" x="6881.62" y="8546.42" width="2000" height="1000" rx="188.71" ry="150"/>
   <rect fill="none" stroke="black" stroke-width="3" stroke-linecap="round" stroke-linejoin="round" stroke-miterlimit="2.61313" x="9117.59" y="8546.42" width="2000" height="1000" rx="188.71" ry="150"/>
   <rect fill="none" stroke="black" stroke-width="3" stroke-linecap="round" stroke-linejoin="round" stroke-miterlimit="2.61313" x="2411.09" y="10046.42" width="2000" height="2197.55" rx="188.71" ry="329.63"/>
   <rect fill="none" stroke="black" stroke-width="3" stroke-linecap="round" stroke-linejoin="round" stroke-miterlimit="2.61313" x="4647.13" y="10043.97" width="2000" height="2197.55" rx="188.71" ry="329.63"/>
   <rect fill="none" stroke="black" stroke-width="3" stroke-linecap="round" stroke-linejoin="round" stroke-miterlimit="2.61313" x="6882.22" y="10043.97" width="2000" height="2197.55" rx="188.71" ry="329.63"/>
   <rect fill="none" stroke="black" stroke-width="3" stroke-linecap="round" stroke-linejoin="round" stroke-miterlimit="2.61313" x="9119.08" y="10045.65" width="2000" height="2197.55" rx="188.71" ry="329.63"/>
   <rect fill="none" stroke="black" stroke-width="3" stroke-linecap="round" stroke-linejoin="round" stroke-miterlimit="2.61313" x="2411.09" y="12743.97" width="2000" height="2197.55" rx="188.71" ry="329.63"/>
   <rect fill="none" stroke="black" stroke-width="3" stroke-linecap="round" stroke-linejoin="round" stroke-miterlimit="2.61313" x="4647.13" y="12741.52" width="2000" height="2197.55" rx="188.71" ry="329.63"/>
   <rect fill="none" stroke="black" stroke-width="3" stroke-linecap="round" stroke-linejoin="round" stroke-miterlimit="2.61313" x="6882.22" y="12741.52" width="2000" height="2197.55" rx="188.71" ry="329.63"/>
   <rect fill="none" stroke="black" stroke-width="3" stroke-linecap="round" stroke-linejoin="round" stroke-miterlimit="2.61313" x="9119.08" y="12743.19" width="2000" height="2197.55" rx="188.71" ry="329.63"/>
   <rect fill="none" stroke="black" stroke-width="3" stroke-linecap="round" stroke-linejoin="round" stroke-miterlimit="2.61313" x="2411.09" y="15441.52" width="2000" height="2996.66" rx="188.71" ry="449.5"/>
   <rect fill="none" stroke="black" stroke-width="3" stroke-linecap="round" stroke-linejoin="round" stroke-miterlimit="2.61313" x="4647.13" y="15438.17" width="2000" height="2996.66" rx="188.71" ry="449.5"/>
   <rect fill="none" stroke="black" stroke-width="3" stroke-linecap="round" stroke-linejoin="round" stroke-miterlimit="2.61313" x="6882.22" y="15438.17" width="2000" height="2996.66" rx="188.71" ry="449.5"/>
   <rect fill="none" stroke="black" stroke-width="3" stroke-linecap="round" stroke-linejoin="round" stroke-miterlimit="2.61313" x="9119.08" y="15440.46" width="2000" height="2996.66" rx="188.71" ry="449.5"/>
   <rect fill="none" stroke="black" stroke-width="3" stroke-linecap="round" stroke-linejoin="round" stroke-miterlimit="2.61313" x="11868.98" y="5054.12" width="2000" height="1000" rx="188.71" ry="150"/>
   <rect fill="none" stroke="black" stroke-width="3" stroke-linecap="round" stroke-linejoin="round" stroke-miterlimit="2.61313" x="14104.95" y="5054.12" width="2000" height="1000" rx="188.71" ry="150"/>
   <rect fill="none" stroke="black" stroke-width="3" stroke-linecap="round" stroke-linejoin="round" stroke-miterlimit="2.61313" x="11868.18" y="6546.42" width="2000" height="1500" rx="188.71" ry="225"/>
   <rect fill="none" stroke="black" stroke-width="3" stroke-linecap="round" stroke-linejoin="round" stroke-miterlimit="2.61313" x="14105.04" y="6547.57" width="2000" height="1500" rx="188.71" ry="225"/>
   <rect fill="none" stroke="black" stroke-width="3" stroke-linecap="round" stroke-linejoin="round" stroke-miterlimit="2.61313" x="11867.58" y="8546.42" width="2000" height="1000" rx="188.71" ry="150"/>
   <rect fill="none" stroke="black" stroke-width="3" stroke-linecap="round" stroke-linejoin="round" stroke-miterlimit="2.61313" x="14103.55" y="8546.42" width="2000" height="1000" rx="188.71" ry="150"/>
   <rect fill="none" stroke="black" stroke-width="3" stroke-linecap="round" stroke-linejoin="round" stroke-miterlimit="2.61313" x="11868.18" y="10043.97" width="2000" height="2197.55" rx="188.71" ry="329.63"/>
   <rect fill="none" stroke="black" stroke-width="3" stroke-linecap="round" stroke-linejoin="round" stroke-miterlimit="2.61313" x="14105.04" y="10045.65" width="2000" height="2197.55" rx="188.71" ry="329.63"/>
   <rect fill="none" stroke="black" stroke-width="3" stroke-linecap="round" stroke-linejoin="round" stroke-miterlimit="2.61313" x="11868.18" y="12741.52" width="2000" height="2197.55" rx="188.71" ry="329.63"/>
   <rect fill="none" stroke="black" stroke-width="3" stroke-linecap="round" stroke-linejoin="round" stroke-miterlimit="2.61313" x="14105.04" y="12743.19" width="2000" height="2197.55" rx="188.71" ry="329.63"/>
   <rect fill="none" stroke="black" stroke-width="3" stroke-linecap="round" stroke-linejoin="round" stroke-miterlimit="2.61313" x="11868.18" y="15438.17" width="2000" height="2996.66" rx="188.71" ry="449.5"/>
   <rect fill="none" stroke="black" stroke-width="3" stroke-linecap="round" stroke-linejoin="round" stroke-miterlimit="2.61313" x="14105.04" y="15440.46" width="2000" height="2996.66" rx="188.71" ry="449.5"/>
   <rect fill="none" stroke="black" stroke-width="3" stroke-linecap="round" stroke-linejoin="round" stroke-miterlimit="2.61313" x="16854.95" y="5054.12" width="999.3" height="1000" rx="94.29" ry="150"/>
   <rect fill="none" stroke="black" stroke-width="3" stroke-linecap="round" stroke-linejoin="round" stroke-miterlimit="2.61313" x="16854.55" y="6546.42" width="999.3" height="1500" rx="94.29" ry="225"/>
   <rect fill="none" stroke="black" stroke-width="3" stroke-linecap="round" stroke-linejoin="round" stroke-miterlimit="2.61313" x="16854.25" y="8546.42" width="999.3" height="1000" rx="94.29" ry="150"/>
   <rect fill="none" stroke="black" stroke-width="3" stroke-linecap="round" stroke-linejoin="round" stroke-miterlimit="2.61313" x="16854.55" y="10043.97" width="999.3" height="2197.55" rx="94.29" ry="329.63"/>
   <rect fill="none" stroke="black" stroke-width="3" stroke-linecap="round" stroke-linejoin="round" stroke-miterlimit="2.61313" x="16854.55" y="12741.52" width="999.3" height="2197.55" rx="94.29" ry="329.63"/>
   <rect fill="none" stroke="black" stroke-width="3" stroke-linecap="round" stroke-linejoin="round" stroke-miterlimit="2.61313" x="16854.55" y="15438.17" width="999.3" height="2996.66" rx="94.29" ry="449.5"/>
   <rect fill="none" stroke="black" stroke-width="3" stroke-linecap="round" stroke-linejoin="round" stroke-miterlimit="2.61313" x="18090.21" y="5054.12" width="2000" height="1000" rx="188.71" ry="150"/>
   <rect fill="none" stroke="black" stroke-width="3" stroke-linecap="round" stroke-linejoin="round" stroke-miterlimit="2.61313" x="18090.31" y="6547.57" width="2000" height="1500" rx="188.71" ry="225"/>
   <rect fill="none" stroke="black" stroke-width="3" stroke-linecap="round" stroke-linejoin="round" stroke-miterlimit="2.61313" x="18088.81" y="8546.42" width="2000" height="1000" rx="188.71" ry="150"/>
   <rect fill="none" stroke="black" stroke-width="3" stroke-linecap="round" stroke-linejoin="round" stroke-miterlimit="2.61313" x="18090.31" y="10045.65" width="2000" height="2197.55" rx="188.71" ry="329.63"/>
   <rect fill="none" stroke="black" stroke-width="3" stroke-linecap="round" stroke-linejoin="round" stroke-miterlimit="2.61313" x="18090.31" y="12743.19" width="2000" height="2197.55" rx="188.71" ry="329.63"/>
   <rect fill="none" stroke="black" stroke-width="3" stroke-linecap="round" stroke-linejoin="round" stroke-miterlimit="2.61313" x="18090.31" y="15440.46" width="2000" height="2996.66" rx="188.71" ry="449.5"/>
   <rect fill="none" stroke="black" stroke-width="3" stroke-linecap="round" stroke-linejoin="round" stroke-miterlimit="2.61313" x="2411.09" y="3554.12" width="2000" height="1000" rx="188.71" ry="150"/>
   <rect fill="none" stroke="black" stroke-width="3" stroke-linecap="round" stroke-linejoin="round" stroke-miterlimit="2.61313" x="4647.06" y="3554.12" width="2000" height="1000" rx="188.71" ry="150"/>
   <rect fill="none" stroke="black" stroke-width="3" stroke-linecap="round" stroke-linejoin="round" stroke-miterlimit="2.61313" x="6883.02" y="3554.12" width="2000" height="1000" rx="188.71" ry="150"/>
   <rect fill="none" stroke="black" stroke-width="3" stroke-linecap="round" stroke-linejoin="round" stroke-miterlimit="2.61313" x="9118.99" y="3554.12" width="2000" height="1000" rx="188.71" ry="150"/>
   <rect fill="none" stroke="black" stroke-width="3" stroke-linecap="round" stroke-linejoin="round" stroke-miterlimit="2.61313" x="11868.98" y="3554.12" width="2000" height="1000" rx="188.71" ry="150"/>
   <rect fill="none" stroke="black" stroke-width="3" stroke-linecap="round" stroke-linejoin="round" stroke-miterlimit="2.61313" x="14104.95" y="3554.12" width="2000" height="1000" rx="188.71" ry="150"/>
   <rect fill="none" stroke="black" stroke-width="3" stroke-linecap="round" stroke-linejoin="round" stroke-miterlimit="2.61313" x="16854.95" y="3554.12" width="999.3" height="1000" rx="94.29" ry="150"/>
   <rect fill="none" stroke="black" stroke-width="3" stroke-linecap="round" stroke-linejoin="round" stroke-miterlimit="2.61313" x="18090.21" y="3554.12" width="2000" height="1000" rx="188.71" ry="150"/>
  </g>
 </g>
</svg>
