<?xml version="1.0" encoding="UTF-8"?>
<svg id="Layer_1" data-name="Layer 1" xmlns="http://www.w3.org/2000/svg" viewBox="0 0 1566.17 1855.53">
  <defs>
    <style>
      .cls-1 {
        fill: none;
        stroke: #000;
        stroke-linecap: round;
        stroke-linejoin: round;
        stroke-width: .5px;
      }
    </style>
  </defs>
  <g id="Layer_1-2" data-name="Layer 1" image-rendering="optimizeQuality" shape-rendering="geometricPrecision" text-rendering="geometricPrecision">
    <g id="uuid-9ca4c27e-89ed-4f3f-b3d2-7d063ee8a5da" data-name="Layer 1-2">
      <g id="_2617478136656" data-name=" 2617478136656">
        <path class="cls-1" d="M1222.16,568.64s-12.92-29.75,16.03-68.01,29.75-32.36,37.75-41.53c8-9.16,13.82-14.26,40.3-19.78s25.6-8.58,37.97-11.93,29.94,2.54,55.69,6.9c61.29,10.37,81.31,27.68,77,75.54-1.47,16.27-30.69,29.72-32.75,49.49-.66,6.33,12.68,36.9,23.87,42.55,14.37,7.25,2.41,77.04,7.86,102.38,4.21,19.58,5.92,48.23-82.74,40.62,0,0-17.26-1.17-55.3,12.29,0,0-21.65,7.9-55.3-1.76-33.65-9.66-38.04-4.68-46.52-8.19-8.49-3.51-35.41-1.19-33.65-35.13s14.34-72.86,14.34-72.86c0,0,10.23-34.07,2.34-53.84l-6.87-16.73h-.02Z"/>
        <path class="cls-1" d="M1215.46,856.48s-8.42-84.46,27.28-88.55c35.7-4.1,39.8-2.05,51.21,2.93,11.41,4.98,36.87,9.95,62.33.29,25.46-9.66,33.95-13.46,57.65-11.12s23.81,3.9,37.9,5.07,6.44,34.27,6.82,54.95c.16,8.98,14.86,12.91,20,18.12,8.82,8.94,29.23-1.48,33.19,7.07,16.49,35.65,20.58,99.78,1.13,108.01-10.9,4.61-21.22,42.84-3.95,55.51,12.61,9.26,46.09-4.67,55.02-.15,3.64,1.84.13,6.9-.58,12.34-1.82,14.02-2.3,31.74-.71,45.46,1.69,14.6-33.36,2.46-46.99,20.4-8.34,10.98,6.03,46.43-5.57,53.41-32.17,19.38-64.87,26.46-109.12,24.54,0,0-1.46-2.28-35.7,8.49s-76.97-32.48-78.43-56.48c-1.46-24,9.07-83.7,0-116.47-9.07-32.78-46.24-59.41-54.14-85.16-7.9-25.75-17.33-58.65-17.33-58.65h-.01Z"/>
        <path class="cls-1" d="M1304.71,1304.98s-24.18,28.25-25.7,36.9c-1.53,8.65-.25,17.05,15.78,19.59s28.5-1.27,56.49,8.4c0,0,16.54,2.55,32.57-11.2,16.03-13.74,29.27-10.18,47.33-3.31,18.07,6.87,57.57,9.16,57.82-4.83.25-14,4.61-38.25,4.61-65.24s27.13-63.65,24.68-81.01-7.88-30.27-13.67-35.16-6.03-6.12-14.39-2.6-47.35,19.94-82.22,13.56c0,0-16.38-.72-32.98,3.93s-26.56,4.87-31.43,4.65-7.52,2.66-4.43,15.71,7.52,41.83-34.47,100.62h.01Z"/>
        <path class="cls-1" d="M3.77,346.03s-13.98-47,26.52-54.08c40.5-7.08,28.11-3.32,61.75-4.2,19.86-.52,76.81,9.26,127.31,14.65,20.18,2.15,29.2,1.92,44.55,2.85,11.28.69,28.26-29.41,34.33-27.03,18.76,7.36,48.9-5.9,51.66,8.23,2.39,12.21,8.37,34.8,7.35,44.86-2.21,21.69,7.85,64.89-1.34,82.97-9.19,18.09,11.92,14.3-68.13,16.79-31.58.98-67.85,14.37-99.07-7.4-26.79-18.68-91.48-10.37-106.21-.34-9.39,6.4-28.55,15.93-45.81,6.42s-20.34-29.25-18.35-37.44-11.29-9.07-14.57-46.28h.01Z"/>
        <path class="cls-1" d="M1277.28,274.71s-22.84,7.74-30.97-10.06c-8.13-17.81-4.93-28.26-.67-58.06s12.26-3.66,39.74-12.95,6.74-23.25,78.74-18.22,89.91-52.86,116.73-45.12c14.77,4.26-22.67,38.31-16.61,51.03,4.95,10.38,35.09,38.61,39.29,50.26,9.94,27.6,16.75,25.48,16.36,38.26-.39,12.77-38.32,19.28-52.64,13.86-14.32-5.42-32.04.3-61.84-8.61-29.81-8.9-48.77-5.81-65.8-5.03-17.03.77-25.55-3.48-62.32,4.64h-.01Z"/>
        <path class="cls-1" d="M1418.11,1370.33s-32.16-16.3-52.01,24.09c-19.86,40.39-15.82,104.95-15.82,127.5s-9.42,28.27,4.71,40.39,51.5,4.38,80.78,36.69c29.28,32.31,67.43,16.49,63.39-7.74s-7.61-68.85-6.29-122.86,3.04-80.16-.39-88.73-13.63-3.7-74.38-9.34h.01Z"/>
        <path class="cls-1" d="M726.19,596.47s78.97-45.36,108.54-32.59,68.21,25.2,79.3,31.92c11.09,6.72,23.19,18.82,25.54,35.62s4.37,31.59,4.03,37.97-1.34,75.61-1.01,91.4-2.35,47.38-33.27,59.48c-30.91,12.1-72.92,37.97-80.65,39.31-7.73,1.34-13.78,5.04-36.63-5.38s-66.53-28.23-73.93-39.99c-7.39-11.76-27.89-20.5-25.54-69.89s5.38-67.21,5.38-67.21c0,0-4.52-67.21,28.23-80.65h.01Z"/>
        <path class="cls-1" d="M947.63,640.01s14.38-66.07,80.58-79.18,57.46-17.14,82.33-7.39,61.83,24.53,67.88,27.89,17.47,10.42,18.15,36.96c.67,26.55-.67,41.67-6.05,52.09-5.38,10.42-16.13,26.55-17.14,35.62s0,21.17,4.7,28.56,10.42,23.52,10.75,42.34c.34,18.82.34,65.19-30.92,75.27-31.25,10.08-43.69,14.79-58.47,21.84s-20.83,9.07-33.27,2.69c-12.43-6.38-34.61-16.8-45.7-20.16-11.09-3.36-51.75-28.9-62.17-41.67-10.42-12.77-12.7-44.62-12.4-57.43s-1.03-75.7,1.72-117.45h0v.02Z"/>
        <path class="cls-1" d="M474.79,620.26s11.11-61.96,72.18-67.51c0,0,20.17-4.97,48.51,4.97s39.75,9.64,53.19,14.03c13.44,4.38,37.12,11.98,40.91,34.49,3.8,22.5-.95,102.71-23.62,126.27s-32,16.89-40.89,17.78-44.45-.44-77.34,16c-32.89,16.45-61.78,13.33-73.78-2.67s-4.44-96.01.83-143.35h.01Z"/>
        <path class="cls-1" d="M497.27,860.81s-21.26-32.47,3.86-57.59,113.25-37.88,119.82-37.88,36.72-6.57,52.56,11.98c15.85,18.55,27.44,38.26,54.88,56.82,27.44,18.55,40.2,20.48,46.38,31.31s15.07,23.19,10.44,51.02c-4.64,27.83-10.82,23.58-15.85,44.83s-8.89,42.13-13.14,62.23c-4.25,20.1-17.78,24.35-33.63,25.51s-62.23-6.96-85.42-5.41c-23.19,1.55-30.53-22.8-29.76-28.99.77-6.18-3.86-42.52-21.26-48.31-17.39-5.8-28.6-21.26-33.63-39.04-5.02-17.78-21.26-45.61-55.27-66.48h.02Z"/>
        <path class="cls-1" d="M568.78,435.96s6.43-40.62,38.29-53.48c31.86-12.86,60.2-31.27,89.43-7.01,29.23,24.26,28.06,31.56,35.95,40.62s32.73,40.33,40.92,47.93,23.96,40.04,12.27,68.97c-11.69,28.93-26.94,47.49-80.66,43.55-53.72-3.95-60.2-11.69-109.89-24.26s-39.75-42.96-38.29-50.27,9.06-46.76,11.98-66.05h0Z"/>
        <path class="cls-1" d="M729.79,401.56s-5.57-30.55,19.6-46.5,39.01-14.41,55.73-18.06,30.17-10.76,51.5-5,58.66,23.89,87.56,75.65c0,0,4.79,9.52,6.39,21.29s3.63,13.8,4.36,18.31-2.03,7.85-2.03,21.65,1.9,30.49-9.24,54.51-9.03,23.44-14.03,32.86-15.18,27.48-34.78,22.87-37.09-16.33-60.92-20.56-39.69-20.2-38.96-37.64,1.95-39.45-11.5-54.06c-13.44-14.61-48.52-50.79-53.68-65.31h0Z"/>
        <path class="cls-1" d="M978.27,436.87s-17.06,1.9-18.83,13.65.76,10.99-.25,17.44c-1.01,6.44-1.14,12.13-.76,18.95s-3.49,18.27-5.5,27.8-10.19,27.74-5.85,45.46c4.35,17.71,10.86,23.23,23.73,21.06s17.38-15.71,54.81-28.91c37.43-13.2,35.26-6.52,45.29-17.38s10.22-37.24,6.86-52.37-10.76-37.65-46.05-45.71-53.46.02-53.46.02h.01Z"/>
        <path class="cls-1" d="M614.43,1077.18s3.34-28.63,23.25-28.77c19.91-.15,18.02-1.89,38.95,2.33,20.93,4.21,49.99,3.78,57.26,3.78s18.75,2.03,22.67,8.57c3.92,6.54,10.26,34.47,2.95,51.77-7.3,17.3-10.19,19.03-19.99,25.95-9.8,6.92-18.64,13.07-29.6,15.95-10.95,2.88-27.48,13.45-45.74,2.69s-47.28-38.44-49.75-82.26h0Z"/>
        <path class="cls-1" d="M818.71,869.35s11.53-3.84,30.56-13.26c19.03-9.42,39.21-20.95,49.59-22.29,10.38-1.35,21.53-2.88,23.64,4.61,2.11,7.5-2.31,13.45.96,28.44s12.68,46.7,13.84,62.27c1.15,15.57,3.27,21.33-1.15,45.55-4.42,24.22-3.46,11.53-6.15,29.98-2.69,18.45-5.38,34.21-10.19,50.35-4.8,16.14-7.77,22.81-9.52,38.89s-3.22,30.98.29,36.54-.33,6-8.18,3.68c-7.85-2.33-19.18,2.03-36.91,12.35s-24.71,15.99-40.69,18.6c-15.99,2.62-27.47,11.34-47.09-16.71-19.62-28.05-8.14-44.62-10.61-64.96-2.47-20.35-3.63-21.94-7.41-27.03-3.78-5.09-4.36-12.93,3.49-32.84s7.09-42.65,12.4-57.69,16.93-34.25,16.55-53.84,15.18-39.8,26.58-42.64h0Z"/>
        <path class="cls-1" d="M798.49,1212.81s6.86-30.12,34.92-44.34,24.41-11.53,33.06-16.15,25.56-16.15,37.48-14.22c11.92,1.92,26.33,10.57,34.98,22.68,8.65,12.11,9.8,18.84,9.61,26.53-.19,7.69-1.42,19-1.72,36.25s-1.46,65.19-2.05,80.39c-.58,15.2-1.17,30.11-29.23,43.56-28.06,13.45-25.73,18.12-35.37,23.39-9.65,5.26-14.62,6.43-25.14,0s-29.23-19.88-45.9-28.94c-16.66-9.06-14.32-27.19-13.16-40.93,1.17-13.74,2.5-55.84,2.5-88.21h.02Z"/>
        <path class="cls-1" d="M954.68,1182.23s6.61-22.88,40.67-31.01c34.06-8.13,35.84-8.39,55.67-8.64,19.83-.25,52.62-8.64,65.33,16.01,12.71,24.66-1.02,61.77-3.81,71.69-2.8,9.91-13.73,19.07-19.07,26.18-5.34,7.12-23.39,29.49-32.03,53.38-8.64,23.9-23.39,53.13-52.87,44.99-29.49-8.13-57.2-28.22-58.21-41.44-1.02-13.22-.25-75.5.76-92.78,1.02-17.29,1.64-29.1,3.56-38.38h0Z"/>
        <path class="cls-1" d="M927.29,845.73s-1.17-8.69,4.18-12.37,21.39-10.53,34.43-1.17c13.04,9.36,25.91,19.05,40.78,25.91,14.87,6.86,41.12,23.71,51.88,51.58s8.46,29.99,12.69,45.56,12.67,28.72,15.51,36.58c2.84,7.86,21.3,82.54-3.44,129.33,0,0-11.56,19.31-39.24,16.42-27.68-2.88-58.05,4.42-75.74,17.68,0,0-15.29,14.7-33.53-5.85,0,0-10.51-8.17-16.82-11.54,0,0-1.65-.88-2.09-2.75s-1.1-3.19-2.53-6.15-1.77-28.59,7.25-57.17c9.03-28.58,13.04-56.16,13.54-61.35.5-5.18,9.9-43.42,9.61-71.78-.29-28.36-12.28-51.16-13.45-66.66-1.17-15.5-3.05-26.27-3.05-26.27h.02Z"/>
        <path class="cls-1" d="M1083.88,936.42s-22.51-33.62,9.36-54.96,92.68-23.1,102.03-10.82c9.36,12.28,9.94,30.7,15.2,42.69s19.88,32.16,22.22,44.73,7.02,41.81,14.91,62.86c7.89,21.05,9.94,25.14,11.99,32.74s11.99,54.67-30.11,78.65-45.61,25.14-49.7,27.48-55.84,19.3-66.07-24.85,19.68-93.7,23.24-115.93,1.33-27.57-12.01-37.79-26.42-26.34-41.05-44.79h-.01Z"/>
        <path class="cls-1" d="M1081.41,1284.91s11.5-27.31,35.76-21.5,30.08,30.59,52.96,59.66c22.88,29.07,19.85,25.91,22.63,30.72,2.78,4.8,12.66,19.56,11.55,51.39s-11.17,104.33-12.71,129.85-5.71,45.38-24.76,48.56c-19.06,3.18-24.74-.33-53.33,9.19s-42.29,1.17-49.48-22.23-4.01-23.91-1.67-40.46c2.34-16.55,6.56-99-8.11-128.79s4.73-76.43,27.17-116.39h-.01Z"/>
        <path class="cls-1" d="M1137.16,1251.26s-11.94-34.21,11.27-58.08c0,0,12.11-12.44,32.95-21.52,20.85-9.08,27.91-27.24,50.1-33.29s34.64,4.37,41.36,11.43c6.73,7.06,41.7,30.26,45.06,40.69,3.36,10.42,13.45,50.44-15.13,95.5s-31.61,45.06-35.64,50.44c-4.04,5.38-29.26,41.02-71.29,9.08,0,0-9.42-6.73-19.17-23.2-9.75-16.48-25.22-41.7-29.59-49.1s-9.92-21.95-9.92-21.95h0Z"/>
        <path class="cls-1" d="M870.01,1402.62s8.77-30.41,32.17-40.35c23.39-9.94,27.78-20.18,40.65-22.81s22.52-.88,39.48,9.94c16.96,10.82,35.67,16.96,46.49,29.53,10.82,12.57,15.5,16.38,16.67,45.32,1.17,28.95,2.92,32.46,3.22,48.25.29,15.79-1.46,32.46-4.68,55.85s.88,31-18.13,48.54-90.65,47.66-134.8,11.7c-44.15-35.97-24.86-90.06-21.64-108.19,3.22-18.13,1.46-37.43-.29-46.79s-.5-23.21.88-31h-.02Z"/>
        <path class="cls-1" d="M701.09,1422.2s2.87-54.73,22.77-58.93c19.9-4.2,24.99-2.87,33.61-4.2s24.54-12.38,32.95-12.16,16.58-1.55,26.09,4.86,34.05,19.02,39.14,24.1,9.29,10.83,8.62,23-2.43,26.09-1.11,34.27c1.33,8.18,5.09,27.42-1.11,47.98s.66,37.59-12.16,60.36c-12.82,22.78-9.73,21.01-75.62,28.97,0,0-16.36,4.2-28.3,7.52-11.94,3.32-58.37-13.27-55.28-47.98,3.1-34.71,8.79-78.46,10.4-107.79h0Z"/>
        <path class="cls-1" d="M653.41,1210.08s1.11-25.21,20.79-34.27c19.68-9.07,38.92-10.39,50.42-17.47s15.26-10.84,26.53-9.51c11.28,1.33,22.11,13.49,27.64,24.1s15.74,19.54,14.97,47.8c-.77,28.27-.19,69.41-2.69,83.83-2.5,14.42-8.24,37.4-25.19,46.34s-59.22,10.38-88.83-11.34c-29.61-21.73-46.34-31.53-40.57-56.53s15.19-49.8,16.94-72.95h0Z"/>
        <path class="cls-1" d="M501.27,1234.07s-4.62-38.98,22.11-45.32c26.73-6.35,37.5,0,64.99-3.27s56.34-3.46,58.07,16.54,1.92,13.27-2.88,32.5c-4.81,19.23-12.11,28.07-12.69,39.61s-4.81,22.31,2.31,34.23c7.11,11.92-20.77.96-33.46,8.08-12.69,7.11-55.57,24.34-81.76,6.54,0,0-10.43-5.59-10.93-24.67-.51-19.07-3.31-53.4-5.75-64.23h0Z"/>
        <path class="cls-1" d="M517.52,1395.48s-5.38-45.74,29.26-52.47,23.21-3.7,42.71-11.44c19.51-7.74,43.39-10.76,60.2,1.01,16.82,11.77,30.61,8.41,41.71,36.66s2.02,46.73,0,52.96-.34,21.71-4.71,22.04c-4.37.34-4.37-12.11-62.22-10.43-57.85,1.68-108.97-5.05-106.95-38.34h0Z"/>
        <path class="cls-1" d="M510.27,1460.98s.21-31.35,21.65-27.06,74.47,6.42,97.73,5.85,42.31-.96,48.27,5.77,10.58,2.5,8.27,20.77-2.38,31.81-6.24,50.76c-3.87,18.95,0,21.27-9.67,29.01s-17.02,23.98-68.08,5.42-70.01,15.47-73.11,18.57c-3.09,3.09-10.83,6.19-14.31-3.48-3.48-9.67-3.09-22.05-3.87-47.19-.77-25.14-.77-37.13-.65-58.4h0v-.02Z"/>
        <path class="cls-1" d="M525.79,1616.57s4.67-42.26,24.77-48.83c20.11-6.58,21.37-15.81,44.38-8.35s20.74,11.13,38.31,12.01c17.58.88,28.96-6.58,42.23-8.09,13.28-1.52,33,6.58,36.29,14.79,3.29,8.22,8.47,8.72,7.33,24.78-1.14,16.06-.73,25.78-4.6,66.78s-3.87,42.16-17.41,49.51-12.76-10.83-34.43-21.27c-21.66-10.44-34.43-7.35-57.25-10.44s-31.33-12.76-57.25-10.06-22.4-60.83-22.4-60.83h.03Z"/>
        <path class="cls-1" d="M1079.96,297.48s-6.21-31.62,23.43-28.31,41.8,18.58,70.33,19.91c28.53,1.33,30.49-9.17,34.47,2.77s.88,25.88,5.09,35.17c4.2,9.29,14.6,42.46,19.24,50.43,4.64,7.96,19.49,59.77,4.81,87.35-14.68,27.58-15.12,25.36-26.69,41.37s-11.45,29.04-14.72,35.19-.19,41.35-48.66,19.04-53.18-16.32-60.58-32.69c0,0-2.77-5.05-1.93-16.25s8.46-55.29-21.47-70.68c0,0-4.73-2.34,1.09-5s6.39-13.22,8.72-22.38,17.53-33.05,6.88-115.91h-.01Z"/>
        <path class="cls-1" d="M1211.44,1404.28s10.31-36.91,58.08-32.87c47.77,4.04,60.19,2.19,65.24,11.8s4.93,5.06,6.07,22.77-3.9,49.22-4.4,62.96c-.51,13.74-6.87,58.76-8.65,73.77s-9.41,26.71-15.77,30.78c-6.36,4.07-42.48,42.23-72.25,36.38s-46.55-41.97-44.26-66.65,11.61-99.9,15.94-138.93h0Z"/>
        <path class="cls-1" d="M438.81,973.78s10.66-23.89,46.06-20.62c35.4,3.27,38.86,2.69,47.71.58s25.39.96,32.32,6.92,22.7,9.81,26.35,20.39,10.58,28.08,5.96,36.16-.58,23.66-14.62,23.47c-14.04-.19-44.05-2.12-60.21-5.77s-48.67-7.89-59.63-10.39c-10.96-2.5-33.09-23.85-23.94-50.74h0Z"/>
        <path class="cls-1" d="M441.97,1068.58s-7.79-22.79,8.08-35.01c15.87-12.21,46.94,7.89,89.45,10.2,42.51,2.31,28.66.77,42.51,2.31,13.85,1.54,12.5,20.97,12.31,44.63s4.04,13.66,1.54,27.32c-2.5,13.66-7.31,15.2-15.58,15.97s-23.66-3.08-33.86-9.04-39.63-20.01-54.25-22.31-42.51-3.85-50.21-34.05h0v-.02Z"/>
        <path class="cls-1" d="M458.6,1140.77s-10.25-21.32,3.8-32.88c0,0,3.66-3.24,9.07-3.16s6.15-.25,14.97,1.83,23.2,4.24,39.26,14.39c16.05,10.15,22.02,18,46.97,17.64s19.09,12.15,19.53,16.63c.43,4.48-.94,14.39-.65,18.15s-2.96,9.55-11.35,8.9c-8.39-.65-23.14-.58-40.36.51-17.21,1.09-16.71,4.7-31.31,1.16-14.61-3.54-33.67-10.28-49.92-43.16h-.01Z"/>
        <path class="cls-1" d="M409.81,1576.45s-18.08,45.32-22.66,63.65c-4.58,18.33-3.56,18.33,4.07,31.31,7.64,12.98,2.04,12.73,8.15,18.84,0,0,2.55,11.97,7.38,13.24,4.84,1.27,12.98-21.64,27.5-28.26s31.06-15.53,58.56-13.24,24.7-18.08,22.91-49.14c-1.78-31.06,3.82-28.01,1.27-35.13s-9.93-21.64-17.06-21.64-14.51,3.82-34.62,3.05c-20.11-.76-49.9-7.89-55.5,17.31h0Z"/>
        <path class="cls-1" d="M379.28,1452.66s-5.57-27.09,13.92-27.34,77.6,5.95,86.33,7.47,15.7-.89,19.75,14.56,5.82,24.68,6.58,36.84c.76,12.15.51,19.49.89,27.22.38,7.72.25,19.62,0,25.32s-4.43,15.19-13.16,17.22-35.82,2.15-43.42-.13-21.27-1.39-27.34-1.9-35.32-11.9-40.63-34.94c0,0,1.77-9.37.89-24.18-.89-14.81-2.03-21.52-3.8-40.13h-.01Z"/>
        <path class="cls-1" d="M367.65,1373.82s-2.88-27.45,20.37-34.32c23.25-6.86,30.55-.22,41.62-.66s11.96-2.44,34.54-.44,38.75-1.99,43.84,9.3c5.09,11.29,3.32,21.92-.89,36.75-4.21,14.83-6.86,31.22-9.08,36.97s-9.08,9.3-17.71,7.97c-8.63-1.33-29.23-4.43-46.94-6.2s-36.75-.44-41.85-1.11c-5.09-.66-19.26-5.31-21.7-24.13s-2.21-24.13-2.21-24.13h.01Z"/>
        <path class="cls-1" d="M364.22,1233.16s2.04-22.09,23.31-25.25c21.27-3.17,61.27-17.09,70.89-14.69,9.62,2.41,15.19,4.18,19.12,11.52s9.75,7.72,15.19,24.69,6.96,39.37,7.22,47.35,1.14,22.79,2.78,28.86c1.65,6.08,3.04,26.08-2.41,27.85-5.44,1.77-3.29,4.18-19.37,1.27s-38.74-1.65-45.32-.89c-6.58.76-17.09-1.9-19.24-1.9s-21.52-3.42-31.9,3.92c-10.38,7.34-13.67,10.51-14.56,13.55-.89,3.04-3.8,1.39-3.67-5.95.13-7.34-3.93-35.97.45-58.87s-6.27-18.52-2.49-51.46h0Z"/>
        <path class="cls-1" d="M756.35,232.65s-16.45,38.75-6.66,64.58c9.8,25.83,14.04,35.18,34.74,35.18s68.58-14.25,76.16-24.05c7.57-9.8,9.35-5.34,25.39-32.51s33.85-38.75,48.1-50.77,39.19-41.86,35.18-60.57-14.7-47.12-25.83-47.56-46.22-8.36-68.49.1-46.76-6.68-71.26,6.68c-24.49,13.36-12.12,23.86-47.33,108.92h0Z"/>
        <path class="cls-1" d="M885.11,294.83s19.53-42.09,45.8-54.89c26.27-12.8,42.43-44.12,46.47-55.23,4.04-11.11-4.22-41.24.15-48.65,4.38-7.41-1.01-15.83,15.83-17.17,11.17-.89,36.44,14.84,56.89-11.84,20.31-26.51,33.2-.5,71.23-18.59,21.83-10.38,52.2,6.43,80.34,5.39,21.2-.78,40.31,113.71,29.47,135.49-5.09,10.24.03,25.95,5.31,44.05,2.26,7.77-72.3,2.99-111.11-13.37-42.15-17.77-57.55-5.48-55.84,20.66,1.38,21.24,3.03,86.55-.34,102.71s1.07,29.6-8.36,39.7-3.73,11.45-15.85,7.41-43.1-11.11-77.79-2.36c0,0-9.09,3.03-9.77-11.11-.67-14.14-34.3-75.77-79.76-87.89,0,0-15.06,2.2-15.26-5.5-.19-7.7,2.72-10.73,11-13.04s8.9-5.44,11.58-15.77h0Z"/>
        <path class="cls-1" d="M575.43,275.32s-1.03-26.19,21.66-24.09c22.69,2.11,38.01,5.17,60.89,5.17s65.77-2.78,72.18,2.58,9.19-1.18,9.29,10.98-.44,27.63-1.58,37.88.13,29.63-11.77,42.29-14.05,12.66-24.06,12.41-26.08-5.7-40.9-5.19c-14.81.51-20.38,4.69-31.15,8.1-10.76,3.42-31.27,7.22-43.3-2.28-12.03-9.5-14.56-16.84-14.94-32.16s4.21-42.35,3.68-55.7h0Z"/>
        <path class="cls-1" d="M555.8,151.45s-8.05,71.51,7.99,81.19,23.69,7.39,32.09,8.15,38.2,4.07,49.41,5.6,60.36.51,71.57-2.55,22.41,4.07,27.51-9.42c5.09-13.5,16.55-49.41,27.51-69.53,10.95-20.12,8.3-33.61,3.83-39.86s-44.24-11.55-59.27-9-12.82,10.66-31.92,10.66-130.25-15.11-128.71,24.75h-.01Z"/>
        <path class="cls-1" d="M364.36,933.04s-2.51-10.63,12.13-20.65c14.64-10.01,34.86-13.48,49.49-21.76,14.64-8.28,22.55-16,40.46-16.19s39.29-.19,48.92,7.32c9.63,7.51,27.54,21.57,26.58,37.36-.96,15.79-4.43,25.04-23.88,26.58-19.45,1.54-48.12-9.38-64.11,1.21s-26.96,16.95-36.4,16.18-18.72-2.93-38.56-2.35-12.02-21.95-14.63-27.69h0Z"/>
        <path class="cls-1" d="M362.96,513.54s-5.04-5.87-3.78-38.99c1.26-33.13,2.89-34.24,20.8-36.75,17.91-2.5,17.53-3.85,37.75,1.54s97.64,3.08,104.77,1.54c7.13-1.54,27.54-1.16,31.2,7.51,3.66,8.67,3.47,5.93,0,14.6s-5.2,33.9-5.59,41.02c-.39,7.13,2.7,38.33-36.01,45.84s-72.22-4.24-84.35-8.09-57.58-10.98-64.79-28.22h0Z"/>
        <path class="cls-1" d="M370.43,389.43s-5.76-20.74,4.04-24.92,26.5,11.9,53.04-1.76c26.54-13.65,13.71-12.95,35.83-20.99s25.3-9.48,45.9-12.83,32.16-9.71,41.03-6.7c8.88,3.01,13.57-.5,16.25,16.58s5.19,22.96,4.02,33.34.5,61.8-30.98,58.78c0,0-31.82,4.35-56.44,2.51s-36.51,2.51-46.22,0-30.98-2.35-42.54-8.71-24.26-15.63-23.91-35.32h0l-.02.02Z"/>
        <path class="cls-1" d="M362.9,334.72s-10.02-36.85,5.39-58.03c15.41-21.19,35.44-7.32,66.06-19.26s61.63-21.45,72.42-23.11,20.8-11.03,35.25-1.66,25.62,41.15,20.22,59.06-11.88,20.98-15.07,20.81c-3.18-.17-16.08.17-28.14,4.02s-29.64,4.86-43.38,11.05c-13.73,6.2-17.42,5.69-23.45,8.37s-17.08,13.9-30.65,17.59-17.08,11.89-36.18,3.68c-19.09-8.21-22.49-22.52-22.49-22.52h.02Z"/>
        <path class="cls-1" d="M250.75,20.68c-10.2,28.79-1.1,119.01-4.98,132.57-3.87,13.56-23.19,22.18-13.89,34.97,9.3,12.78,40.45,36.97,42.39,47.43s16.86,34.39,51.51,34.39,26.27-8.05,47.37-12.74,27.8,2.51,40.03-.33c12.23-2.85,53.09-15.07,60.13-22.28,7.03-7.2,46.23-17.75,56.11-14.4s21.77-5.02,19.26-15.58c-2.51-10.55-6.03-33.83-3.68-43.55,2.35-9.71,10.22-27.97,6.7-30.65-3.52-2.68-1.34-14.82-25.63-6.53-2.65.9-16.92-10.49-31.78-9.04-52.38,5.12-141.03,16.75-136.78-33.37,2.06-24.26,25.4-33.28,17.61-42.3-8.29-9.6-3.74-27-13.63-31.85-22.9-11.23-29.6-4-47.18.2-38.96,9.31-46.71-5.77-63.58,13.07h.02Z"/>
        <path class="cls-1" d="M266.31,1559.41s10.61-19.19,22.91-24.17c12.3-4.98,69.69-8.79,77.89-6.74,8.2,2.05,21.39,7.62,28.71,14.35,7.32,6.74,16.11,20.21,2.93,43.94s-15.82,44.23-17.28,53.02c-1.47,8.79-4.98,17.87-10.84,17.87s-26.95,2.34-35.15,4.1c-8.2,1.76-9.67,6.44-28.42,6.15s-24.38-4.03-21.82-26.95c2.56-22.92-9.58-16.31-13.68-38.87s-5.24-28.8-5.24-42.72h0v.02Z"/>
        <path class="cls-1" d="M281.5,1422.01c24.43,1.34,76.46-4.21,81.34-.22,4.87,3.99,9.97,7.75,10.41,11.96s1.55,13.07,1.11,28.35.89,22.37,2.88,31.45,9.75,31.9-12.18,29.46-40.58,3.99-59.63.66-25.93,12.85-33.67,9.52-11.99-13.73-8.89-22.14c9.73-26.41-18.69-91.11,18.63-89.06h0v.02Z"/>
        <path class="cls-1" d="M279.19,1101.78s11.19-17.42,41.93-16.4,44.58-2.05,59.95-3.07c15.37-1.02,44.58-1.54,54.31,12.81,9.74,14.35,20.3,50.21,23.22,63.02,2.91,12.81,3.43,19.98-3.75,24.6-7.17,4.61-62,17.93-73.27,19.98-11.27,2.05-13.83,7.69-37.4,10.76-23.57,3.07-61.13,5.49-59.59-20.13,2.33-38.77-5.4-65.72-5.4-91.57h0Z"/>
        <path class="cls-1" d="M297.25,1225.08c37.29-.75,38.41-7.08,45.82-3.37s12.96,3.03,15.16,25.94c2.21,22.91,4.75,19.88,2.21,35.71s4.48,114.37,0,121.44c-4.48,7.08-14.67,8.09-20.06,7.08-5.39-1.01-47.04,3.37-55.8,1.01-8.76-2.36-28.28-1.6-25.92-7.67,8.11-20.85,1.3-179.4,38.59-180.15h0Z"/>
        <path class="cls-1" d="M267.39,980.06s6.05-8.04,20.11-9.5c14.06-1.47,57.44-.33,73.6-.64,16.17-.31,23.13-.83,33.09,1.52,9.96,2.34,21.09.59,24.02,15.82s3.88,80.05-1.39,82.1c-5.27,2.05-16.41,3.81-27.83,2.34s-47.59,1.46-57.84-1.76c-5.07-1.59,1.6-37.23-.81-53.99-3.16-21.99-40.14-2.07-55.76-8.42-7.24-2.95-6.9-7.27-7.2-27.48h.01Z"/>
        <path class="cls-1" d="M362.85,910.97c10.1-12.7,39.68-20.65,46.82-27.02,7.13-6.37,32.1-13.5,41.78-16.31,9.68-2.8,27.68-12.22,20.8-19.1s-12.48-3.57-29.81-8.92c-17.32-5.35-103.16-15.8-125.58-6.12s-30.9,3.98-31.67,16.72,7.98,30.47,11.55,61.3-13.28,44.27-5.13,47.33,56.58,4,61.65,2.29c9.57-3.21-6.55-6.99-1.45-17.49,1.33-2.73-1.27-17.2,11.03-32.69h.01Z"/>
        <path class="cls-1" d="M231.65,764.9s9.17-14.97,27.86-15.94,97.78-.06,107.6,3.21,71.09,11.94,78.02,14.45c6.94,2.5,17.72,2.7,19.84,20.04s4.05,35.83,1.73,41.23,2.5,8.86-8.86,9.25c-11.37.39-54.52-11.56-78.6-11.94-24.08-.39-95.08,2.38-105.1,5.07-10.02,2.7-17.34,13.87-24.27,7.9-6.94-5.97-22.09-5.01-19.2-15.6s.97-57.66.97-57.66h0Z"/>
        <path class="cls-1" d="M260.97,733.73c11.17,1.8,87.61,2.67,98.02-1.76,10.41-4.43,42.32,14.9,57.6,18.45,15.29,3.55,24.59,4.87,30.13-3.54,5.54-8.42,15.95-127.36,8.86-139.99s-11.08-11.08-24.81-12.63c-13.74-1.55-15.73,5.32-44.31,6.87s-47.19,0-65.8,1.11-61.9-2.35-64.11,5.63c-2.22,7.98-3.81,23.84-1.82,31.15,2.43,8.9-4.93,92.92,6.23,94.72h.01Z"/>
        <path class="cls-1" d="M315.51,523.51c20.01-1.14,34.52-6.15,44.93,0s37.99,17.01,54.49,19.47c16.5,2.46,34.85,9.22,38.95,17.94,4.1,8.71,1.03,28.19-6.66,28.19s-23.57-1.02-33.31,1.54-35.69,7.69-53.46,4.1-39.29,3.68-52.11,4.1c-124.2,4.03-101.18-69.13,7.17-75.33h0Z"/>
        <path class="cls-1" d="M302.44,438.27c15.54,0,30.44-1.78,36.04,2.04,5.61,3.82,11.72,4.59,11.47,14.52s-1.78,22.17-1.27,33.89,6.37,16.68-1.53,20.25-3.43,2.55-14.89,3.31c-11.47.76-30.26-.49-36.18,1.63-23.37,8.4-47.43,20.76-42.19-12.83,2.05-13.15,1.02-23.44,0-28.54-6.5-32.5,20.5-34.28,48.56-34.28h-.01Z"/>
        <path class="cls-1" d="M1084.21,1720.11s3.52-41.36,3.02-64.96-10.54-41.84,9.71-46.02,28.62-3.85,36.32-6.36,15.06-6.86,29.79-7.53,18.58-3.18,29.79-.5c11.21,2.68,28.62,8.7,31.3,34.81,2.68,26.11.84,31.63,3.35,44.68s2.34,19.92,1,39.16,3.01,23.43,4.85,31.46c1.84,8.03.66,2.33-3.86,8.35s-46.22-10.27-59.11-8.6-17.74,6.02-42.85,2.68-34.14,6.65-43.51,8.33-11.35,8.8.21-35.51h-.01Z"/>
        <path class="cls-1" d="M924.69,1707.63s-.29-39.81,3.22-60.3c3.51-20.49,22.25-27.22,36.88-30.15s62.35-15.51,74.94-25.47,32.2-1.76,34.25,26.34.88,52.58-.88,69.37-.29,31.61-5.27,45.66-4.04,20.84-4.33,29.63,4.68,13.76-11.42,12.88c-16.1-.88-75.58,4.04-116.86.52-41.27-3.51-6.44-33.96-10.54-68.5h0v.02Z"/>
        <path class="cls-1" d="M724.14,1738.54s-10.68-64.11,4.45-100.62,8.9-45.41,22.71-48.53c13.8-3.12,28.05-9.79,40.96-7.57,12.91,2.23,45.86-7.57,52.53-8.01,6.68-.45,19.59,2.23,26.71,10.24s28.49,21.37,37.4,33.83c8.9,12.47,12.91,40.96,8.9,57.88-4.01,16.92,1.78,29.83-1.34,39.18-3.12,9.35-9.13,39.83-10.24,53.96-1.11,14.14-33.58,13.67-44.93,10.67-25.2-6.67-131.13,19.13-137.16-41.04h0Z"/>
        <path class="cls-1" d="M521.57,1748.29s-2.95-41.74,4.9-55.43,22.39-8.9,25.93-7.75,14.74-.57,25.07,4.98c10.34,5.55,28.71,9.02,46.51,11.58,17.8,2.56,36.98,7.36,48.97,19.43,11.98,12.07,17.81,11.9,21.14,9.07,3.33-2.83,18.72-8.9,21.55,1s2.62,22.51,9.75,29.49c7.13,6.99,7.71,15.57,1.89,16.45-5.82.87-4.66,3.64-23.14,0s-23.58-2.04-34.35,1.46c-10.77,3.49-47.45-.73-64.62-1.89s-41.26,7.88-67.09.31c-25.82-7.57-16.51-28.68-16.51-28.68h0v-.02Z"/>
        <path class="cls-1" d="M400.09,1767.72s2.23,7.46,17.81,10.69,58.04,1.37,68.28,1.82,26.15,3.17,30.28-7.57c4.12-10.74-5.33-12.32-3.3-23.08s4.18-32.98,3.67-45.35-1.05-28.84-18.98-30.71-17.94-1.32-27.07.44c-9.14,1.76-35.66,12.66-47.99,30.27s-21.6,19.58-23.81,29.32-5.76,20.37,1.12,34.17h-.01Z"/>
        <path class="cls-1" d="M1270.14,1847.88s-46.5-135.96-23.22-194.12,16.89-33.79,29.69-39.42c12.8-5.63,37.88-26.62,47.61-30.72s24.06-11.26,48.63-1.02,45.68,15.52,69.23,38.04c23.55,22.52,71.96-3.92,75.03-.34s-1.87,28.29.17,44.08c.75,5.81-17.75,15.37-16.31,26.1,2.47,18.44-1.08,35.35-5.46,47.18-6.93,18.71,13.25,36.34-.15,46.65-26.1,20.07-22.42,17.86-58.59,37.95-24.49,13.6-46.13,14.03-68.79,9.13-33.45-7.24-48.92,11.06-49.92,11.87-13.94,11.37-40.47,13.52-47.93,4.61h.01Z"/>
      </g>
    </g>
  </g>
</svg>