<svg width="600" height="600" version="1.2" xmlns="http://www.w3.org/2000/svg" viewBox="0 0 600 600"><style type="text/css">path {stroke-width: 1; vector-effect: non-scaling-stroke; fill:none; stroke: #000; stroke-linecap: round; stroke-linejoin: miter;}</style><path d="M0,100L37.5,100L37.5,200L0,200z"></path><path d="M0,200L37.5,200L75,200L112.5,200L150,200L187.5,200L225,200L262.5,200L300,200L300,300L0,300z"></path><path d="M0,0L300,0L300,100L262.5,100L225,100L187.5,100L150,100L112.5,100L75,100L37.5,100L0,100z"></path><path d="M112.5,100L150,100L150,200L112.5,200z"></path><path d="M150,100L187.5,100L187.5,200L150,200z"></path><path d="M75,100L112.5,100L112.5,200L75,200z"></path><path d="M37.5,100L75,100L75,200L37.5,200z"></path><path d="M187.5,100L225,100L225,200L187.5,200z"></path><path d="M0,300L300,300L300,400L300,500L300,600L0,600z"></path><path d="M337.5,400L375,400L375,500L337.5,500z"></path><path d="M300,300L600,300L600,400L562.5,400L525,400L487.5,400L450,400L412.5,400L375,400L337.5,400L300,400z"></path><path d="M525,400L562.5,400L562.5,500L525,500z"></path><path d="M412.5,400L450,400L450,500L412.5,500z"></path><path d="M375,400L412.5,400L412.5,500L375,500z"></path><path d="M300,400L337.5,400L337.5,500L300,500z"></path><path d="M487.5,400L525,400L525,500L487.5,500z"></path><path d="M562.5,400L600,400L600,500L562.5,500z"></path><path d="M450,400L487.5,400L487.5,500L450,500z"></path><path d="M300,500L337.5,500L375,500L412.5,500L450,500L487.5,500L525,500L562.5,500L600,500L600,600L300,600z"></path><path d="M300,0L600,0L600,100L600,200L600,300L300,300L300,200L300,100z"></path><path d="M262.5,100L300,100L300,200L262.5,200z"></path><path d="M225,100L262.5,100L262.5,200L225,200z"></path></svg>