<svg width="300" height="300" version="1.2" xmlns="http://www.w3.org/2000/svg" viewBox="0 0 300 300"><style type="text/css">path {stroke-width: 1; vector-effect: non-scaling-stroke; fill:none; stroke: #000; stroke-linecap: round; stroke-linejoin: miter;}</style><path d="M50,250L125,250L250,250L250,300L175,300L50,300z"></path><path d="M250,250L300,250L300,300L250,300z"></path><path d="M0,125L125,125L125,250L50,250L0,250z"></path><path d="M0,0L125,0L125,125L0,125z"></path><path d="M250,200L300,200L300,250L250,250z"></path><path d="M125,0L250,0L250,125L125,125z"></path><path d="M250,0L300,0L300,200L250,200L250,125z"></path><path d="M125,125L250,125L250,200L250,250L125,250z"></path><path d="M0,250L50,250L50,300L0,300z"></path></svg>