<svg width="900" height="1500" version="1.2" xmlns="http://www.w3.org/2000/svg" viewBox="0 0 900 1500"><style type="text/css">path {stroke-width: 1; vector-effect: non-scaling-stroke; fill:none; stroke: #000; stroke-linecap: round; stroke-linejoin: miter;}</style><path d="M160,451.89L300,451.89L300,460L300,515.95L280,515.95L160.002,471.894z"></path><path d="M384.05,300L440,300L448.11,300L448.11,440L428.11,440L384.054,320.002z"></path><path d="M300,148.11L440,148.11L460,148.11L600,148.11L600,160L600,168.11L563.9,168.11L562.521,175.594L559.163,193.817L546.882,219.635L528.337,241.394L504.792,257.613L477.852,267.184L461.484,268.49L459.999,270.003L459.999,300.003L448.109,300.003L439.999,300.003L439.999,270.003L438.514,268.49L422.146,267.184L395.206,257.613L371.661,241.394L353.117,219.635L340.835,193.817L337.477,175.594L336.099,168.11L299.999,168.11L299.999,160z"></path><path d="M300,168.11L336.1,168.11L337.479,175.594L340.837,193.817L353.118,219.635L371.663,241.394L395.208,257.613L422.148,267.184L438.516,268.49L440.001,270.003L440.001,300.003L384.051,300.003L364.051,300.003L300.001,300.003z"></path><path d="M300,460L320,460L364.056,579.998L364.056,599.998L300.006,599.998L300.006,535.948L300.006,515.948z"></path><path d="M300,64.05L320,64.05L439.998,19.994L439.998,-0.006L459.998,-0.006L459.998,19.994L579.997,64.05L599.997,64.05L599.997,84.05L579.997,84.05L459.998,128.106L459.998,148.106L439.998,148.106L439.998,128.106L320,84.05L300,84.05z"></path><path d="M300,1564.05L320,1564.05L439.998,1519.994L439.998,1499.994L459.998,1499.994L459.998,1519.994L579.997,1564.05L599.997,1564.05L599.997,1584.05L579.997,1584.05L459.998,1628.106L459.998,1648.106L439.998,1648.106L439.998,1628.106L320,1584.05L300,1584.05z"></path><path d="M300,300L364.05,300L364.05,320L319.994,439.998L299.994,439.998L299.994,431.888z"></path><path d="M300,84.05L320,84.05L439.998,128.106L439.998,148.106L299.998,148.106L299.998,139.996z"></path><path d="M448.11,300L460,300L468.11,300L468.11,336.1L475.594,337.479L493.817,340.837L519.635,353.118L541.394,371.663L557.613,395.208L567.184,422.148L568.49,438.516L570.003,440.001L600.003,440.001L600.003,451.891L600.003,460.001L570.003,460.001L568.49,461.486L567.184,477.854L557.613,504.794L541.394,528.339L519.635,546.883L493.817,559.165L475.594,562.523L468.11,563.901L468.11,600.001L448.11,600.001L448.11,460.001L448.11,440.001z"></path><path d="M468.11,300L600,300L600,431.89L600,440L570,440L568.487,438.515L567.181,422.147L557.61,395.207L541.391,371.662L519.632,353.117L493.814,340.836L475.591,337.478L468.107,336.099z"></path><path d="M428.11,460L448.11,460L448.11,600L384.06,600L384.06,580z"></path><path d="M557.61,504.79L567.182,477.85L568.487,461.482L570,459.997L600,459.997L600,515.947L600,535.947L600,599.997L468.11,599.997L468.11,563.897L475.594,562.518L493.818,559.16L519.635,546.879L541.395,528.334z"></path><path d="M0,451.89L140,451.89L140,471.89L20.002,515.946L0.002,515.946z"></path><path d="M364.05,300L384.05,300L384.05,320L428.106,439.998L448.106,439.998L448.106,459.998L428.106,459.998L384.05,579.997L384.05,599.997L364.05,599.997L364.05,579.997L319.994,459.998L299.994,459.998L299.994,451.888L299.994,439.998L319.994,439.998L364.05,320z"></path><path d="M760,900L815.95,900L835.95,900L900,900L900,1031.89L863.9,1031.89L862.521,1024.406L859.163,1006.183L846.882,980.365L828.337,958.606L804.792,942.387L777.852,932.816L761.484,931.51L759.999,929.997z"></path><path d="M671.66,958.61L695.205,942.392L722.145,932.82L738.513,931.515L739.998,930.001L739.998,900.001L751.888,900.001L759.998,900.001L759.998,930.001L761.483,931.515L777.851,932.82L804.791,942.392L828.336,958.61L846.881,980.369L859.162,1006.187L862.52,1024.41L863.899,1031.894L899.999,1031.894L899.999,1051.894L759.999,1051.894L739.999,1051.894L599.999,1051.894L599.999,1031.894L636.099,1031.894L637.478,1024.41L640.835,1006.187L653.117,980.369z"></path><path d="M600,1115.95L620,1115.95L739.998,1071.894L739.998,1051.894L759.998,1051.894L759.998,1071.894L879.997,1115.95L899.997,1115.95L899.997,1135.95L879.997,1135.95L759.998,1180.006L759.998,1200.006L751.888,1200.006L739.998,1200.006L739.998,1180.006L620,1135.95L600,1135.95z"></path><path d="M760,1051.89L900,1051.89L900,1115.94L880,1115.94L760.002,1071.884z"></path><path d="M600,900L731.89,900L740,900L740,930L738.515,931.513L722.147,932.819L695.207,942.39L671.662,958.609L653.117,980.368L640.836,1006.186L637.478,1024.409L636.099,1031.893L599.999,1031.893z"></path><path d="M760,1180L879.998,1135.944L899.998,1135.944L899.998,1199.994L835.948,1199.994L815.948,1199.994L759.998,1199.994z"></path><path d="M600,1135.95L620,1135.95L739.998,1180.006L739.998,1200.006L731.888,1200.006L599.998,1200.006z"></path><path d="M600,1051.89L740,1051.89L740,1071.89L620.002,1115.946L600.002,1115.946z"></path><path d="M0,535.95L20,535.95L139.998,580.006L139.998,600.006L84.048,600.006L64.048,600.006L-0.002,600.006z"></path><path d="M900,535.95L920,535.95L1039.998,580.006L1039.998,600.006L984.048,600.006L964.048,600.006L899.998,600.006z"></path><path d="M160,580L279.998,535.944L299.998,535.944L299.998,599.994L168.108,599.994L159.998,599.994z"></path><path d="M0,300L64.05,300L84.05,300L140,300L140,330L138.515,331.513L122.147,332.819L95.207,342.39L71.662,358.609L53.117,380.368L40.836,406.186L37.478,424.409L36.099,431.893L-0.001,431.893z"></path><path d="M900,300L964.05,300L984.05,300L1040,300L1040,330L1038.5149999999999,331.513L1022.147,332.819L995.207,342.39L971.662,358.609L953.117,380.368L940.836,406.186L937.478,424.409L936.099,431.893L899.999,431.893z"></path><path d="M460,900L468.11,900L600,900L600,1031.89L563.9,1031.89L562.521,1024.406L559.163,1006.183L546.882,980.365L528.337,958.606L504.792,942.387L477.852,932.816L461.484,931.51L459.999,929.997z"></path><path d="M371.66,958.61L395.205,942.392L422.145,932.82L438.513,931.515L439.998,930.001L439.998,900.001L448.108,900.001L459.998,900.001L459.998,930.001L461.483,931.515L477.851,932.82L504.791,942.392L528.336,958.61L546.881,980.369L559.162,1006.187L562.52,1024.41L563.899,1031.894L599.999,1031.894L599.999,1051.894L459.999,1051.894L439.999,1051.894L299.999,1051.894L299.999,1040.004L299.999,1031.894L336.099,1031.894L337.478,1024.41L340.835,1006.187L353.117,980.369z"></path><path d="M600,451.89L740,451.89L740,471.89L620.002,515.946L600.002,515.946L600.002,459.996z"></path><path d="M760,580L879.998,535.944L899.998,535.944L899.998,599.994L835.948,599.994L815.948,599.994L759.998,599.994z"></path><path d="M600,535.95L620,535.95L739.998,580.006L739.998,600.006L731.888,600.006L599.998,600.006z"></path><path d="M600,515.95L620,515.95L739.998,471.894L739.998,451.894L759.998,451.894L759.998,471.894L879.997,515.95L899.997,515.95L899.997,535.95L879.997,535.95L759.998,580.006L759.998,600.006L751.888,600.006L739.998,600.006L739.998,580.006L620,535.95L600,535.95z"></path><path d="M760,451.89L900,451.89L900,515.94L880,515.94L760.002,471.884z"></path><path d="M600,300L664.05,300L684.05,300L740,300L740,330L738.515,331.513L722.147,332.819L695.207,342.39L671.662,358.609L653.117,380.368L640.836,406.186L637.478,424.409L636.099,431.893L599.999,431.893z"></path><path d="M671.66,358.61L695.205,342.392L722.145,332.82L738.513,331.515L739.998,330.001L739.998,300.001L748.108,300.001L759.998,300.001L759.998,330.001L761.483,331.515L777.851,332.82L804.791,342.392L828.336,358.61L846.881,380.369L859.162,406.187L862.52,424.41L863.899,431.894L899.999,431.894L899.999,451.894L759.999,451.894L739.999,451.894L599.999,451.894L599.999,440.004L599.999,431.894L636.099,431.894L637.478,424.41L640.835,406.187L653.117,380.369z"></path><path d="M160,300L168.11,300L300,300L300,431.89L263.9,431.89L262.521,424.406L259.163,406.183L246.882,380.365L228.337,358.606L204.792,342.387L177.852,332.816L161.484,331.51L159.999,329.997z"></path><path d="M0,515.95L20,515.95L139.998,471.894L139.998,451.894L159.998,451.894L159.998,471.894L279.997,515.95L299.997,515.95L299.997,535.95L279.997,535.95L159.998,580.006L159.998,600.006L148.108,600.006L139.998,600.006L139.998,580.006L20,535.95L0,535.95z"></path><path d="M71.66,358.61L95.205,342.392L122.145,332.82L138.513,331.515L139.998,330.001L139.998,300.001L148.108,300.001L159.998,300.001L159.998,330.001L161.483,331.515L177.851,332.82L204.791,342.392L228.336,358.61L246.881,380.369L259.162,406.187L262.52,424.41L263.899,431.894L299.999,431.894L299.999,440.004L299.999,451.894L159.999,451.894L139.999,451.894L-0.001,451.894L-0.001,431.894L36.099,431.894L37.478,424.41L40.835,406.187L53.117,380.369z"></path><path d="M971.66,358.61L995.205,342.392L1022.145,332.82L1038.513,331.515L1039.998,330.001L1039.998,300.001L1048.108,300.001L1059.998,300.001L1059.998,330.001L1061.483,331.515L1077.851,332.82L1104.791,342.392L1128.336,358.61L1146.881,380.369L1159.162,406.187L1162.52,424.41L1163.899,431.894L1199.999,431.894L1199.999,440.004L1199.999,451.894L1059.999,451.894L1039.999,451.894L899.999,451.894L899.999,431.894L936.099,431.894L937.478,424.41L940.835,406.187L953.117,380.369z"></path><path d="M-84.04999999999995,1200L-64.04999999999995,1200L-64.04999999999995,1220L-19.994000000000028,1339.998L0.005999999999971806,1339.998L0.005999999999971806,1359.998L-19.994000000000028,1359.998L-64.04999999999995,1479.997L-64.04999999999995,1499.997L-84.04999999999995,1499.997L-84.04999999999995,1479.997L-128.106,1359.998L-148.106,1359.998L-148.106,1339.998L-128.106,1339.998L-84.04999999999995,1220z"></path><path d="M815.95,1200L835.95,1200L835.95,1220L880.006,1339.998L900.006,1339.998L900.006,1359.998L880.006,1359.998L835.95,1479.997L835.95,1499.997L815.95,1499.997L815.95,1479.997L771.894,1359.998L751.894,1359.998L751.894,1339.998L771.894,1339.998L815.95,1220z"></path><path d="M751.89,1200L760,1200L815.95,1200L815.95,1220L771.894,1339.998L751.894,1339.998z"></path><path d="M835.95,1200L900,1200L900,1340L880,1340L835.944,1220.002z"></path><path d="M600,-140L630,-140L631.513,-138.5150000000001L632.819,-122.14699999999993L642.39,-95.20700000000011L658.609,-71.66200000000003L680.368,-53.11699999999996L706.186,-40.83600000000001L724.409,-37.478000000000065L731.893,-36.09899999999993L731.893,0.0009999999999763531L600.003,0.0009999999999763531L600.003,-64.04899999999998L600.003,-84.04899999999998z"></path><path d="M600,1360L630,1360L631.513,1361.485L632.819,1377.853L642.39,1404.793L658.609,1428.338L680.368,1446.883L706.186,1459.164L724.409,1462.522L731.893,1463.901L731.893,1500.001L600.003,1500.001L600.003,1435.951L600.003,1415.951z"></path><path d="M751.89,1360L771.89,1360L815.946,1479.998L815.946,1499.998L751.896,1499.998z"></path><path d="M880,1360L900,1360L900,1500L835.95,1500L835.95,1480z"></path><path d="M760,300L768.11,300L900,300L900,431.89L863.9,431.89L862.521,424.406L859.163,406.183L846.882,380.365L828.337,358.606L804.792,342.387L777.852,332.816L761.484,331.51L759.999,329.997z"></path><path d="M658.61,1271.66L680.369,1253.115L706.187,1240.834L724.41,1237.476L731.894,1236.097L731.894,1199.997L740.004,1199.997L751.894,1199.997L751.894,1339.997L751.894,1359.997L751.894,1499.997L731.894,1499.997L731.894,1463.897L724.41,1462.518L706.187,1459.16L680.369,1446.879L658.61,1428.334L642.392,1404.789L632.82,1377.849L631.515,1361.481L630.001,1359.996L600.001,1359.996L600.001,1351.886L600.001,1339.996L630.001,1339.996L631.515,1338.511L632.82,1322.143L642.392,1295.203z"></path><path d="M600,1200L731.89,1200L731.89,1236.1L724.406,1237.479L706.183,1240.837L680.365,1253.118L658.606,1271.663L642.387,1295.208L632.816,1322.148L631.51,1338.516L629.997,1340.001L599.997,1340.001L599.997,1331.891z"></path><path d="M600,760L630,760L631.513,761.485L632.819,777.853L642.39,804.793L658.609,828.338L680.368,846.883L706.186,859.164L724.409,862.522L731.893,863.901L731.893,900.001L600.003,900.001z"></path><path d="M300,760L320,760L364.056,879.998L364.056,899.998L300.006,899.998z"></path><path d="M751.89,760L771.89,760L815.946,879.998L815.946,899.998L759.996,899.998L751.886,899.998z"></path><path d="M751.89,600L760,600L815.95,600L815.95,620L771.894,739.998L751.894,739.998z"></path><path d="M658.61,671.66L680.369,653.115L706.187,640.834L724.41,637.476L731.894,636.097L731.894,599.997L740.004,599.997L751.894,599.997L751.894,739.997L751.894,759.997L751.894,899.997L740.004,899.997L731.894,899.997L731.894,863.897L724.41,862.518L706.187,859.16L680.369,846.879L658.61,828.334L642.392,804.789L632.82,777.849L631.515,761.481L630.001,759.996L600.001,759.996L600.001,739.996L630.001,739.996L631.515,738.511L632.82,722.143L642.392,695.203z"></path><path d="M600,600L731.89,600L731.89,636.1L724.406,637.479L706.183,640.837L680.365,653.118L658.606,671.663L642.387,695.208L632.816,722.148L631.51,738.516L629.997,740.001L599.997,740.001z"></path><path d="M-84.04999999999995,600L-64.04999999999995,600L-64.04999999999995,620L-19.994000000000028,739.998L0.005999999999971806,739.998L0.005999999999971806,759.998L-19.994000000000028,759.998L-64.04999999999995,879.997L-64.04999999999995,899.997L-84.04999999999995,899.997L-84.04999999999995,879.997L-128.106,759.998L-148.106,759.998L-148.106,739.998L-128.106,739.998L-84.04999999999995,620z"></path><path d="M815.95,600L835.95,600L835.95,620L880.006,739.998L900.006,739.998L900.006,759.998L880.006,759.998L835.95,879.997L835.95,899.997L815.95,899.997L815.95,879.997L771.894,759.998L751.894,759.998L751.894,739.998L771.894,739.998L815.95,620z"></path><path d="M468.11,600L600,600L600,740L570,740L568.487,738.515L567.181,722.147L557.61,695.207L541.391,671.662L519.632,653.117L493.814,640.836L475.591,637.478L468.107,636.099z"></path><path d="M428.11,760L448.11,760L448.11,900L440,900L384.05,900L384.05,880z"></path><path d="M835.95,600L900,600L900,740L880,740L835.944,620.002z"></path><path d="M384.05,600L448.1,600L448.1,740L428.1,740L384.044,620.002z"></path><path d="M880,760L900,760L900,900L835.95,900L835.95,880z"></path><path d="M300,600L364.05,600L364.05,620L319.994,739.998L299.994,739.998z"></path><path d="M64.05,900L84.05,900L84.05,920L128.106,1039.998L148.106,1039.998L148.106,1059.998L128.106,1059.998L84.05,1179.997L84.05,1199.997L64.05,1199.997L64.05,1179.997L19.994,1059.998L-0.006,1059.998L-0.006,1039.998L19.994,1039.998L64.05,920z"></path><path d="M964.05,900L984.05,900L984.05,920L1028.106,1039.998L1048.106,1039.998L1048.106,1059.998L1028.106,1059.998L984.05,1179.997L984.05,1199.997L964.05,1199.997L964.05,1179.997L919.994,1059.998L899.994,1059.998L899.994,1039.998L919.994,1039.998L964.05,920z"></path><path d="M160,1480L279.998,1435.944L299.998,1435.944L299.998,1499.994L159.998,1499.994z"></path><path d="M364.05,600L384.05,600L384.05,620L428.106,739.998L448.106,739.998L448.106,759.998L428.106,759.998L384.05,879.997L384.05,899.997L364.05,899.997L364.05,879.997L319.994,759.998L299.994,759.998L299.994,739.998L319.994,739.998L364.05,620z"></path><path d="M84.05,900L148.1,900L148.1,1040L128.1,1040L84.044,920.002z"></path><path d="M257.61,1104.79L267.182,1077.85L268.487,1061.482L270,1059.997L300,1059.997L300,1115.947L300,1135.947L300,1199.997L168.11,1199.997L168.11,1163.897L175.594,1162.518L193.818,1159.16L219.635,1146.879L241.395,1128.334z"></path><path d="M148.11,900L168.11,900L168.11,936.1L175.594,937.479L193.817,940.837L219.635,953.118L241.394,971.663L257.613,995.208L267.184,1022.148L268.49,1038.516L270.003,1040.001L300.003,1040.001L300.003,1051.891L300.003,1060.001L270.003,1060.001L268.49,1061.486L267.184,1077.854L257.613,1104.794L241.394,1128.339L219.635,1146.883L193.817,1159.165L175.594,1162.523L168.11,1163.901L168.11,1200.001L160,1200.001L148.11,1200.001L148.11,1060.001L148.11,1040.001z"></path><path d="M64.05,600L84.05,600L84.05,620L128.106,739.998L148.106,739.998L148.106,759.998L128.106,759.998L84.05,879.997L84.05,899.997L64.05,899.997L64.05,879.997L19.994,759.998L-0.006,759.998L-0.006,739.998L19.994,739.998L64.05,620z"></path><path d="M964.05,600L984.05,600L984.05,620L1028.106,739.998L1048.106,739.998L1048.106,759.998L1028.106,759.998L984.05,879.997L984.05,899.997L964.05,899.997L964.05,879.997L919.994,759.998L899.994,759.998L899.994,739.998L919.994,739.998L964.05,620z"></path><path d="M128.11,1060L148.11,1060L148.11,1200L140,1200L84.05,1200L84.05,1180z"></path><path d="M448.11,600L468.11,600L468.11,636.1L475.594,637.479L493.817,640.837L519.635,653.118L541.394,671.663L557.613,695.208L567.184,722.148L568.49,738.516L570.003,740.001L600.003,740.001L600.003,760.001L570.003,760.001L568.49,761.486L567.184,777.854L557.613,804.794L541.394,828.339L519.635,846.883L493.817,859.165L475.594,862.523L468.11,863.901L468.11,900.001L460,900.001L448.11,900.001L448.11,760.001L448.11,740.001z"></path><path d="M0,1200L64.05,1200L84.05,1200L140,1200L140,1230L138.515,1231.513L122.147,1232.819L95.207,1242.39L71.662,1258.609L53.117,1280.368L40.836,1306.186L37.478,1324.409L36.099,1331.893L-0.001,1331.893z"></path><path d="M900,1200L964.05,1200L984.05,1200L1040,1200L1040,1230L1038.5149999999999,1231.513L1022.147,1232.819L995.207,1242.39L971.662,1258.609L953.117,1280.368L940.836,1306.186L937.478,1324.409L936.099,1331.893L899.999,1331.893z"></path><path d="M300,1200L440,1200L440,1230L438.515,1231.513L422.147,1232.819L395.207,1242.39L371.662,1258.609L353.117,1280.368L340.836,1306.186L337.478,1324.409L336.099,1331.893L299.999,1331.893z"></path><path d="M71.66,1258.61L95.205,1242.392L122.145,1232.82L138.513,1231.515L139.998,1230.001L139.998,1200.001L148.108,1200.001L159.998,1200.001L159.998,1230.001L161.483,1231.515L177.851,1232.82L204.791,1242.392L228.336,1258.61L246.881,1280.369L259.162,1306.187L262.52,1324.41L263.899,1331.894L299.999,1331.894L299.999,1351.894L159.999,1351.894L139.999,1351.894L-0.001,1351.894L-0.001,1331.894L36.099,1331.894L37.478,1324.41L40.835,1306.187L53.117,1280.369z"></path><path d="M971.66,1258.61L995.205,1242.392L1022.145,1232.82L1038.513,1231.515L1039.998,1230.001L1039.998,1200.001L1048.108,1200.001L1059.998,1200.001L1059.998,1230.001L1061.483,1231.515L1077.851,1232.82L1104.791,1242.392L1128.336,1258.61L1146.881,1280.369L1159.162,1306.187L1162.52,1324.41L1163.899,1331.894L1199.999,1331.894L1199.999,1351.894L1059.999,1351.894L1039.999,1351.894L899.999,1351.894L899.999,1331.894L936.099,1331.894L937.478,1324.41L940.835,1306.187L953.117,1280.369z"></path><path d="M168.11,600L300,600L300,740L270,740L268.487,738.515L267.181,722.147L257.61,695.207L241.391,671.662L219.632,653.117L193.814,640.836L175.591,637.478L168.107,636.099z"></path><path d="M460,1200L600,1200L600,1331.89L563.9,1331.89L562.521,1324.406L559.163,1306.183L546.882,1280.365L528.337,1258.606L504.792,1242.387L477.852,1232.816L461.484,1231.51L459.999,1229.997z"></path><path d="M168.11,900L300,900L300,1031.89L300,1040L270,1040L268.487,1038.515L267.181,1022.147L257.61,995.207L241.391,971.662L219.632,953.117L193.814,940.836L175.591,937.478L168.107,936.099z"></path><path d="M0,1351.89L140,1351.89L140,1371.89L20.002,1415.946L0.002,1415.946z"></path><path d="M460,1051.89L600,1051.89L600,1115.94L580,1115.94L460.002,1071.884z"></path><path d="M460,1180L579.998,1135.944L599.998,1135.944L599.998,1199.994L459.998,1199.994z"></path><path d="M84.05,600L140,600L148.11,600L148.11,740L128.11,740L84.054,620.002z"></path><path d="M300,-84.04999999999995L320,-84.04999999999995L439.998,-128.106L439.998,-148.106L459.998,-148.106L459.998,-128.106L579.997,-84.04999999999995L599.997,-84.04999999999995L599.997,-64.04999999999995L579.997,-64.04999999999995L459.998,-19.993999999999915L459.998,0.0060000000000854925L439.998,0.0060000000000854925L439.998,-19.993999999999915L320,-64.04999999999995L300,-64.04999999999995z"></path><path d="M300,1415.95L320,1415.95L439.998,1371.894L439.998,1351.894L459.998,1351.894L459.998,1371.894L579.997,1415.95L599.997,1415.95L599.997,1435.95L579.997,1435.95L459.998,1480.006L459.998,1500.006L439.998,1500.006L439.998,1480.006L320,1435.95L300,1435.95z"></path><path d="M128.11,760L148.11,760L148.11,900L84.06,900L84.06,880z"></path><path d="M0,-84.04999999999995L20,-84.04999999999995L139.998,-128.106L139.998,-148.106L159.998,-148.106L159.998,-128.106L279.997,-84.04999999999995L299.997,-84.04999999999995L299.997,-64.04999999999995L279.997,-64.04999999999995L159.998,-19.993999999999915L159.998,0.0060000000000854925L139.998,0.0060000000000854925L139.998,-19.993999999999915L20,-64.04999999999995L0,-64.04999999999995z"></path><path d="M0,1415.95L20,1415.95L139.998,1371.894L139.998,1351.894L159.998,1351.894L159.998,1371.894L279.997,1415.95L299.997,1415.95L299.997,1435.95L279.997,1435.95L159.998,1480.006L159.998,1500.006L139.998,1500.006L139.998,1480.006L20,1435.95L0,1435.95z"></path><path d="M0,900L64.05,900L64.05,920L19.994,1039.998L-0.006,1039.998z"></path><path d="M900,900L964.05,900L964.05,920L919.994,1039.998L899.994,1039.998z"></path><path d="M557.61,804.79L567.182,777.85L568.487,761.482L570,759.997L600,759.997L600,899.997L468.11,899.997L468.11,863.897L475.594,862.518L493.818,859.16L519.635,846.879L541.395,828.334z"></path><path d="M300,1135.95L320,1135.95L439.998,1180.006L439.998,1200.006L299.998,1200.006z"></path><path d="M300,900L364.05,900L384.05,900L440,900L440,930L438.515,931.513L422.147,932.819L395.207,942.39L371.662,958.609L353.117,980.368L340.836,1006.186L337.478,1024.409L336.099,1031.893L299.999,1031.893z"></path><path d="M0,-64.04999999999995L20,-64.04999999999995L139.998,-19.993999999999915L139.998,0.0060000000000854925L-0.002,0.0060000000000854925z"></path><path d="M900,-64.04999999999995L920,-64.04999999999995L1039.998,-19.993999999999915L1039.998,0.0060000000000854925L899.998,0.0060000000000854925z"></path><path d="M0,1435.95L20,1435.95L139.998,1480.006L139.998,1500.006L-0.002,1500.006z"></path><path d="M900,1435.95L920,1435.95L1039.998,1480.006L1039.998,1500.006L899.998,1500.006z"></path><path d="M460,1480L579.998,1435.944L599.998,1435.944L599.998,1499.994L459.998,1499.994z"></path><path d="M300,1115.95L320,1115.95L439.998,1071.894L439.998,1051.894L459.998,1051.894L459.998,1071.894L579.997,1115.95L599.997,1115.95L599.997,1135.95L579.997,1135.95L459.998,1180.006L459.998,1200.006L439.998,1200.006L439.998,1180.006L320,1135.95L300,1135.95z"></path><path d="M460,1351.89L600,1351.89L600,1360L600,1415.95L580,1415.95L460.002,1371.894z"></path><path d="M371.66,1258.61L395.205,1242.392L422.145,1232.82L438.513,1231.515L439.998,1230.001L439.998,1200.001L459.998,1200.001L459.998,1230.001L461.483,1231.515L477.851,1232.82L504.791,1242.392L528.336,1258.61L546.881,1280.369L559.162,1306.187L562.52,1324.41L563.899,1331.894L599.999,1331.894L599.999,1340.004L599.999,1351.894L459.999,1351.894L439.999,1351.894L299.999,1351.894L299.999,1331.894L336.099,1331.894L337.478,1324.41L340.835,1306.187L353.117,1280.369z"></path><path d="M300,-64.04999999999995L320,-64.04999999999995L439.998,-19.993999999999915L439.998,0.0060000000000854925L299.998,0.0060000000000854925z"></path><path d="M300,1435.95L320,1435.95L439.998,1480.006L439.998,1500.006L299.998,1500.006z"></path><path d="M148.11,600L160,600L168.11,600L168.11,636.1L175.594,637.479L193.817,640.837L219.635,653.118L241.394,671.663L257.613,695.208L267.184,722.148L268.49,738.516L270.003,740.001L300.003,740.001L300.003,760.001L270.003,760.001L268.49,761.486L267.184,777.854L257.613,804.794L241.394,828.339L219.635,846.883L193.817,859.165L175.594,862.523L168.11,863.901L168.11,900.001L148.11,900.001L148.11,760.001L148.11,740.001z"></path><path d="M300,1351.89L440,1351.89L440,1371.89L320.002,1415.946L300.002,1415.946z"></path><path d="M257.61,804.79L267.182,777.85L268.487,761.482L270,759.997L300,759.997L300,899.997L168.11,899.997L168.11,863.897L175.594,862.518L193.818,859.16L219.635,846.879L241.395,828.334z"></path><path d="M0,600L64.05,600L64.05,620L19.994,739.998L-0.006,739.998z"></path><path d="M900,600L964.05,600L964.05,620L919.994,739.998L899.994,739.998z"></path><path d="M160,1351.89L300,1351.89L300,1415.94L280,1415.94L160.002,1371.884z"></path><path d="M300,1051.89L440,1051.89L440,1071.89L320.002,1115.946L300.002,1115.946L300.002,1059.996z"></path><path d="M0,760L20,760L64.056,879.998L64.056,899.998L0.006,899.998z"></path><path d="M160,1200L168.11,1200L300,1200L300,1331.89L263.9,1331.89L262.521,1324.406L259.163,1306.183L246.882,1280.365L228.337,1258.606L204.792,1242.387L177.852,1232.816L161.484,1231.51L159.999,1229.997z"></path><path d="M0,1060L20,1060L64.056,1179.998L64.056,1199.998L0.006,1199.998z"></path><path d="M128.11,160L148.11,160L148.11,300L140,300L84.05,300L84.05,280z"></path><path d="M84.05,0L148.1,0L148.1,140L128.1,140L84.044,20.002z"></path><path d="M257.61,204.79L267.182,177.85L268.487,161.482L270,159.997L300,159.997L300,168.107L300,299.997L168.11,299.997L168.11,263.897L175.594,262.518L193.818,259.16L219.635,246.879L241.395,228.334z"></path><path d="M0,160L20,160L64.056,279.998L64.056,299.998L0.006,299.998z"></path><path d="M168.11,0L300,0L300,64.05L300,84.05L300,140L270,140L268.487,138.515L267.181,122.147L257.61,95.207L241.391,71.662L219.632,53.117L193.814,40.836L175.591,37.478L168.107,36.099z"></path><path d="M0,0L64.05,0L64.05,20L19.994,139.998L-0.006,139.998z"></path><path d="M900,0L964.05,0L964.05,20L919.994,139.998L899.994,139.998z"></path><path d="M64.05,0L84.05,0L84.05,20L128.106,139.998L148.106,139.998L148.106,159.998L128.106,159.998L84.05,279.997L84.05,299.997L64.05,299.997L64.05,279.997L19.994,159.998L-0.006,159.998L-0.006,139.998L19.994,139.998L64.05,20z"></path><path d="M964.05,0L984.05,0L984.05,20L1028.106,139.998L1048.106,139.998L1048.106,159.998L1028.106,159.998L984.05,279.997L984.05,299.997L964.05,299.997L964.05,279.997L919.994,159.998L899.994,159.998L899.994,139.998L919.994,139.998L964.05,20z"></path><path d="M148.11,0L168.11,0L168.11,36.1L175.594,37.479L193.817,40.837L219.635,53.118L241.394,71.663L257.613,95.208L267.184,122.148L268.49,138.516L270.003,140.001L300.003,140.001L300.003,148.111L300.003,160.001L270.003,160.001L268.49,161.486L267.184,177.854L257.613,204.794L241.394,228.339L219.635,246.883L193.817,259.165L175.594,262.523L168.11,263.901L168.11,300.001L160,300.001L148.11,300.001L148.11,160.001L148.11,140.001z"></path><path d="M300,0L440,0L440,20L320.002,64.056L300.002,64.056z"></path><path d="M504.79,257.61L528.335,241.392L546.88,219.632L559.161,193.815L562.519,175.591L563.898,168.107L599.998,168.107L599.998,299.997L468.108,299.997L459.998,299.997L459.998,269.997L461.483,268.484L477.851,267.179z"></path><path d="M664.05,0L684.05,0L684.05,20L728.106,139.998L748.106,139.998L748.106,159.998L728.106,159.998L684.05,279.997L684.05,299.997L664.05,299.997L664.05,279.997L619.994,159.998L599.994,159.998L599.994,148.108L599.994,139.998L619.994,139.998L664.05,20z"></path><path d="M460,0L600,0L600,64.05L580,64.05L460.002,19.994z"></path><path d="M768.11,0L900,0L900,140L870,140L868.487,138.515L867.181,122.147L857.61,95.207L841.391,71.662L819.632,53.117L793.814,40.836L775.591,37.478L768.107,36.099z"></path><path d="M857.61,204.79L867.182,177.85L868.487,161.482L870,159.997L900,159.997L900,299.997L768.11,299.997L768.11,263.897L775.594,262.518L793.818,259.16L819.635,246.879L841.395,228.334z"></path><path d="M600,0L664.05,0L664.05,20L619.994,139.998L599.994,139.998L599.994,84.048L599.994,64.048z"></path><path d="M684.05,0L748.1,0L748.1,140L728.1,140L684.044,20.002z"></path><path d="M728.11,160L748.11,160L748.11,300L740,300L684.05,300L684.05,280z"></path><path d="M600,160L620,160L664.056,279.998L664.056,299.998L600.006,299.998L600.006,168.108z"></path><path d="M460,128.11L579.998,84.054L599.998,84.054L599.998,140.004L599.998,148.114L459.998,148.114z"></path><path d="M-151.89,0L-131.89,0L-131.89,36.1L-124.40599999999995,37.479L-106.18299999999999,40.837L-80.36500000000001,53.118L-58.605999999999995,71.663L-42.386999999999944,95.208L-32.81600000000003,122.148L-31.50999999999999,138.516L-29.996999999999957,140.001L0.0030000000000427463,140.001L0.0030000000000427463,160.001L-29.996999999999957,160.001L-31.50999999999999,161.486L-32.81600000000003,177.854L-42.386999999999944,204.794L-58.605999999999995,228.339L-80.36500000000001,246.883L-106.18299999999999,259.165L-124.40599999999995,262.523L-131.89,263.901L-131.89,300.001L-140,300.001L-151.89,300.001L-151.89,160.001L-151.89,140.001z"></path><path d="M748.11,0L768.11,0L768.11,36.1L775.594,37.479L793.817,40.837L819.635,53.118L841.394,71.663L857.613,95.208L867.184,122.148L868.49,138.516L870.003,140.001L900.003,140.001L900.003,160.001L870.003,160.001L868.49,161.486L867.184,177.854L857.613,204.794L841.394,228.339L819.635,246.883L793.817,259.165L775.594,262.523L768.11,263.901L768.11,300.001L760,300.001L748.11,300.001L748.11,160.001L748.11,140.001z"></path></svg>