<svg width="105" height="220" version="1.2" xmlns="http://www.w3.org/2000/svg" viewBox="0 0 105 220"><style type="text/css">path {stroke-width: 1; vector-effect: non-scaling-stroke; fill:none; stroke: #000; stroke-linecap: round; stroke-linejoin: miter;}</style><path d="M-52.5,162.43L0.0040000000000048885,109.999L0.0040000000000048885,219.999L-52.496,219.999z"></path><path d="M52.5,162.43L105.004,109.999L105.004,219.999L52.504,219.999z"></path><path d="M0,-110L52.504,-57.56899999999999L52.504,0.0010000000000047748L0.004,0.0010000000000047748z"></path><path d="M0,110L52.504,162.431L52.504,220.001L0.004,220.001z"></path><path d="M0,110L52.504,57.569L52.504,109.999z"></path><path d="M52.5,0L105,0L105,110L52.496,57.569z"></path><path d="M-52.5,57.57L0.0040000000000048885,110.001L-52.496,110.001z"></path><path d="M52.5,57.57L105.004,110.001L52.504,110.001z"></path><path d="M52.5,110L105,110L52.496,162.431z"></path><path d="M0,110L52.5,110L52.5,162.43z"></path><path d="M0,0L52.5,0L52.5,57.57L-0.004,110.001z"></path><path d="M105,0L157.5,0L157.5,57.57L104.996,110.001z"></path></svg>