<svg width="240" height="250" version="1.2" xmlns="http://www.w3.org/2000/svg" viewBox="0 0 240 250"><style type="text/css">path {stroke-width: 1; vector-effect: non-scaling-stroke; fill:none; stroke: #000; stroke-linecap: round; stroke-linejoin: miter;}</style><path d="M175,0L215,0L215,250L175,250z"></path><path d="M0,-250L75.004,0.0010000000000047748L0.004,0.0010000000000047748z"></path><path d="M0,0L75.004,250.001L0.004,250.001z"></path><path d="M75,-250L150,-250L74.996,0.0010000000000047748z"></path><path d="M75,0L150,0L74.996,250.001z"></path><path d="M0,0L75,0L75,250z"></path><path d="M150,0L175,0L175,250L150,250z"></path><path d="M150,0L150,250L75,250z"></path><path d="M215,0L240,0L240,250L215,250z"></path></svg>