<svg width="400" height="400" version="1.2" xmlns="http://www.w3.org/2000/svg" viewBox="0 0 400 400"><style type="text/css">path {stroke-width: 1; vector-effect: non-scaling-stroke; fill:none; stroke: #000; stroke-linecap: round; stroke-linejoin: miter;}</style><path d="M200,325.92L262.96,325.92L325.92,325.92L399.997,399.997L199.997,399.997z"></path><path d="M262.96,262.96L325.92,262.96L325.92,325.92L262.96,325.92z"></path><path d="M200,200L262.961,262.961L262.961,325.921L200.001,325.921z"></path><path d="M200,200L325.92,200L325.92,262.96L262.96,262.96z"></path><path d="M325.92,200L400,200L400,400L325.924,325.923L325.924,262.963z"></path><path d="M0,200L74.08,200L200,200L125.923,274.077L62.963,274.077L0.003,274.077z"></path><path d="M62.96,274.08L125.92,274.08L125.92,337.04L62.96,337.04z"></path><path d="M125.92,-125.92000000000002L199.997,-199.997L199.997,-74.077L199.997,0.002999999999985903L125.917,0.002999999999985903L125.917,-62.956999999999994z"></path><path d="M125.92,274.08L199.997,200.003L199.997,325.923L199.997,400.003L125.917,400.003L125.917,337.043z"></path><path d="M0,-125.92000000000002L62.96,-125.92000000000002L62.96,-62.95999999999998L-0.001,0.0009999999999763531z"></path><path d="M400,-125.92000000000002L462.96,-125.92000000000002L462.96,-62.95999999999998L399.999,0.0009999999999763531z"></path><path d="M0,274.08L62.96,274.08L62.96,337.04L-0.001,400.001z"></path><path d="M400,274.08L462.96,274.08L462.96,337.04L399.999,400.001z"></path><path d="M62.96,337.04L125.92,337.04L125.92,400L0,400z"></path><path d="M74.08,137.04L137.04,137.04L200.001,200.001L74.081,200.001z"></path><path d="M0,0L200,0L200,74.08L137.04,74.08L74.08,74.08z"></path><path d="M137.04,74.08L200,74.08L200,200L137.039,137.039z"></path><path d="M274.08,62.96L337.04,62.96L337.04,125.92L274.08,125.92z"></path><path d="M200,0L274.08,0L274.08,62.96L274.08,125.92L200.003,199.997L200.003,74.077z"></path><path d="M0,0L74.077,74.077L74.077,137.037L74.077,199.997L-0.003,199.997z"></path><path d="M400,0L474.077,74.077L474.077,137.037L474.077,199.997L399.997,199.997z"></path><path d="M400,0L400,125.92L337.04,125.92L337.04,62.96z"></path><path d="M274.08,0L400,0L337.039,62.961L274.079,62.961z"></path><path d="M200,200L274.077,125.923L337.037,125.923L399.997,125.923L399.997,200.003L325.917,200.003z"></path><path d="M74.08,74.08L137.04,74.08L137.04,137.04L74.08,137.04z"></path></svg>