<svg width="165" height="453" version="1.2" xmlns="http://www.w3.org/2000/svg" viewBox="0 0 165 453"><style type="text/css">path {stroke-width: 1; vector-effect: non-scaling-stroke; fill:none; stroke: #000; stroke-linecap: round; stroke-linejoin: miter;}</style><path d="M20.37,-432.82L24.146,-437.444L28.187,-441.839L32.476,-445.991L36.33,-448.093L40.359,-449.838L44.529,-451.21L48.806,-452.198L53.155,-452.794L57.541,-452.993L61.926,-452.794L66.276,-452.198L70.553,-451.21L74.723,-449.838L78.752,-448.093L82.606,-445.991L87.004,-441.793L91.235,-437.207L95.169,-432.363L98.788,-427.28L102.078,-421.978L105.027,-416.479L107.622,-410.804L109.852,-404.976L111.708,-399.01800000000003L113.185,-392.956L114.275,-386.812L114.974,-380.611L114.974,-219.721L110.468,-215.419L106.242,-210.841L102.314,-206.006L98.699,-200.932L95.411,-195.64L92.464,-190.151L90.625,-186.08800000000002L89.87,-184.48700000000002L88.763,-181.60199999999998L88.338,-180.577L88.022,-179.67000000000002L87.639,-178.671L87.325,-177.66899999999998L86.371,-174.93L84.74,-169.188L83.446,-163.36L82.494,-157.466L82.494,-154.356L82.494,6.533999999999992L78.866,4.540999999999997L74.826,2.7959999999999923L70.646,1.4239999999999782L66.358,0.4359999999999786L61.999,-0.16100000000000136L57.603,-0.36000000000001364L53.208,-0.16100000000000136L48.848,0.4359999999999786L44.561,1.4239999999999782L40.38,2.7959999999999923L36.341,4.540999999999997L32.476,6.6440000000000055L32.476,-154.356L31.77,-160.546L30.674,-166.67899999999997L29.193,-172.73000000000002L27.333,-178.676L25.102,-184.493L22.507,-190.15699999999998L19.56,-195.64600000000002L16.273,-200.938L12.658,-206.012L8.729,-210.847L4.504,-215.425L-0.003,-219.727L-0.003,-380.617L-0.003,-383.727L0.949,-389.621L2.243,-395.449L3.874,-401.19100000000003L5.838,-406.829L8.126,-412.343L10.732,-417.714L13.646,-422.925L16.859,-427.956z"></path><path d="M185.37,-432.82L189.14600000000002,-437.444L193.187,-441.839L197.476,-445.991L201.32999999999998,-448.093L205.359,-449.838L209.529,-451.21L213.80599999999998,-452.198L218.155,-452.794L222.541,-452.993L226.926,-452.794L231.276,-452.198L235.553,-451.21L239.723,-449.838L243.752,-448.093L247.606,-445.991L252.00400000000002,-441.793L256.235,-437.207L260.169,-432.363L263.788,-427.28L267.078,-421.978L270.027,-416.479L272.622,-410.804L274.852,-404.976L276.70799999999997,-399.01800000000003L278.185,-392.956L279.275,-386.812L279.974,-380.611L279.974,-219.721L275.468,-215.419L271.242,-210.841L267.31399999999996,-206.006L263.699,-200.932L260.411,-195.64L257.464,-190.151L255.625,-186.08800000000002L254.87,-184.48700000000002L253.763,-181.60199999999998L253.338,-180.577L253.022,-179.67000000000002L252.639,-178.671L252.325,-177.66899999999998L251.37099999999998,-174.93L249.74,-169.188L248.446,-163.36L247.494,-157.466L247.494,-154.356L247.494,6.533999999999992L243.86599999999999,4.540999999999997L239.826,2.7959999999999923L235.64600000000002,1.4239999999999782L231.358,0.4359999999999786L226.999,-0.16100000000000136L222.603,-0.36000000000001364L218.208,-0.16100000000000136L213.848,0.4359999999999786L209.561,1.4239999999999782L205.38,2.7959999999999923L201.341,4.540999999999997L197.476,6.6440000000000055L197.476,-154.356L196.77,-160.546L195.674,-166.67899999999997L194.193,-172.73000000000002L192.333,-178.676L190.102,-184.493L187.507,-190.15699999999998L184.56,-195.64600000000002L181.273,-200.938L177.658,-206.012L173.72899999999998,-210.847L169.504,-215.425L164.997,-219.727L164.997,-380.617L164.997,-383.727L165.949,-389.621L167.243,-395.449L168.874,-401.19100000000003L170.838,-406.829L173.126,-412.343L175.732,-417.714L178.64600000000002,-422.925L181.859,-427.956z"></path><path d="M20.37,20.18L24.146,15.556L28.187,11.161L32.476,7.009L36.33,4.907L40.359,3.162L44.529,1.79L48.806,0.802L53.155,0.206L57.541,0.007L61.926,0.206L66.276,0.802L70.553,1.79L74.723,3.162L78.752,4.907L82.606,7.009L87.004,11.207L91.235,15.793L95.169,20.637L98.788,25.72L102.078,31.022L105.027,36.521L107.622,42.196L109.852,48.024L111.708,53.982L113.185,60.044L114.275,66.188L114.974,72.389L114.974,233.279L110.468,237.581L106.242,242.159L102.314,246.994L98.699,252.068L95.411,257.36L92.464,262.849L90.625,266.912L89.87,268.513L88.763,271.398L88.338,272.423L88.022,273.33L87.639,274.329L87.325,275.331L86.371,278.07L84.74,283.812L83.446,289.64L82.494,295.534L82.494,298.644L82.494,459.534L78.866,457.541L74.826,455.796L70.646,454.424L66.358,453.436L61.999,452.839L57.603,452.64L53.208,452.839L48.848,453.436L44.561,454.424L40.38,455.796L36.341,457.541L32.476,459.644L32.476,298.644L31.77,292.454L30.674,286.321L29.193,280.27L27.333,274.324L25.102,268.507L22.507,262.843L19.56,257.354L16.273,252.062L12.658,246.988L8.729,242.153L4.504,237.575L-0.003,233.273L-0.003,72.383L-0.003,69.273L0.949,63.379L2.243,57.551L3.874,51.809L5.838,46.171L8.126,40.657L10.732,35.286L13.646,30.075L16.859,25.044z"></path><path d="M185.37,20.18L189.14600000000002,15.556L193.187,11.161L197.476,7.009L201.32999999999998,4.907L205.359,3.162L209.529,1.79L213.80599999999998,0.802L218.155,0.206L222.541,0.007L226.926,0.206L231.276,0.802L235.553,1.79L239.723,3.162L243.752,4.907L247.606,7.009L252.00400000000002,11.207L256.235,15.793L260.169,20.637L263.788,25.72L267.078,31.022L270.027,36.521L272.622,42.196L274.852,48.024L276.70799999999997,53.982L278.185,60.044L279.275,66.188L279.974,72.389L279.974,233.279L275.468,237.581L271.242,242.159L267.31399999999996,246.994L263.699,252.068L260.411,257.36L257.464,262.849L255.625,266.912L254.87,268.513L253.763,271.398L253.338,272.423L253.022,273.33L252.639,274.329L252.325,275.331L251.37099999999998,278.07L249.74,283.812L248.446,289.64L247.494,295.534L247.494,298.644L247.494,459.534L243.86599999999999,457.541L239.826,455.796L235.64600000000002,454.424L231.358,453.436L226.999,452.839L222.603,452.64L218.208,452.839L213.848,453.436L209.561,454.424L205.38,455.796L201.341,457.541L197.476,459.644L197.476,298.644L196.77,292.454L195.674,286.321L194.193,280.27L192.333,274.324L190.102,268.507L187.507,262.843L184.56,257.354L181.273,252.062L177.658,246.988L173.72899999999998,242.153L169.504,237.575L164.997,233.273L164.997,72.383L164.997,69.273L165.949,63.379L167.243,57.551L168.874,51.809L170.838,46.171L173.126,40.657L175.732,35.286L178.64600000000002,30.075L181.859,25.044z"></path><path d="M106.22,242.13L110.446,237.552L114.952,233.25L110.663,237.403L106.623,241.798L102.846,246.422L99.345,251.258L96.132,256.289L93.218,261.5L90.612,266.871L92.452,262.808L95.399,257.319L98.686,252.027L102.301,246.953z"></path><path d="M86.1,279.17L85.6,280.91L85.762,280.249z"></path><path d="M86.68,277.3L86.098,279.161L86.415,278.056z"></path><path d="M86.68,277.3L86.098,279.161L85.598,280.901L84.768,283.794L83.453,289.617L82.475,295.507L83.426,289.613L84.721,283.785L86.352,278.042L87.306,275.304z"></path><path d="M4.159999999999997,50.56L3.578000000000003,52.42099999999999L3.8950000000000102,51.315999999999974z"></path><path d="M3.5800000000000125,52.420000000000016L3.0800000000000125,54.160000000000025L3.2419999999999902,53.499000000000024z"></path><path d="M19.77000000000001,20.220000000000027L23.698000000000008,15.384999999999991L27.924000000000007,10.807000000000016L32.43000000000001,6.5049999999999955L28.159999999999997,10.677000000000021L24.135999999999996,15.086999999999989L20.372000000000014,19.721000000000004L16.881,24.56400000000002L13.674000000000007,29.59899999999999L10.762,34.81099999999998L8.153999999999996,40.18099999999998L5.859000000000009,45.69200000000001L4.151999999999987,50.56200000000001L5.092999999999989,47.55500000000001L7.324000000000012,41.738999999999976L9.919000000000011,36.07499999999999L12.866000000000014,30.586000000000013L16.15299999999999,25.293999999999983z"></path><path d="M90.61,266.88L88.747,271.369L89.854,268.484z"></path><path d="M-62.099999999999994,-206.53L-58.336,-211.164L-54.312,-215.574L-50.042,-219.746L-46.188,-221.848L-42.159000000000006,-223.592L-37.989000000000004,-224.964L-33.71199999999999,-225.953L-29.361999999999995,-226.548L-24.977000000000004,-226.747L-20.592000000000013,-226.548L-16.24199999999999,-225.953L-11.965000000000003,-224.964L-7.7949999999999875,-223.592L-3.765999999999991,-221.848L0.08799999999999386,-219.746L4.48599999999999,-215.548L8.717000000000013,-210.962L12.65100000000001,-206.118L16.27000000000001,-201.035L19.560000000000002,-195.733L22.508999999999986,-190.233L25.104000000000013,-184.558L27.334000000000003,-178.73000000000002L29.191000000000003,-172.77300000000002L30.667,-166.70999999999998L31.757000000000005,-160.56599999999997L32.45599999999999,-154.365L32.45599999999999,6.524999999999977L27.94999999999999,10.826000000000022L23.72399999999999,15.403999999999996L19.795999999999992,20.24000000000001L16.18100000000001,25.312999999999988L12.893,30.605000000000018L9.945999999999998,36.093999999999994L7.352000000000004,41.75799999999998L5.1200000000000045,47.57499999999999L4.180000000000007,50.58100000000002L3.914999999999992,51.33600000000001L3.598000000000013,52.44200000000001L3.2609999999999957,53.51999999999998L3.0989999999999895,54.18099999999998L2.2680000000000007,57.07400000000001L0.9540000000000077,62.89700000000005L-0.02400000000000091,68.78700000000003L-0.02400000000000091,232.78700000000003L-3.6529999999999916,230.793L-7.692000000000007,229.04899999999998L-11.87299999999999,227.67700000000002L-16.161,226.688L-20.52000000000001,226.09199999999998L-24.914999999999992,225.89200000000005L-29.311000000000007,226.09199999999998L-33.66999999999999,226.688L-37.958,227.67700000000002L-42.138000000000005,229.04899999999998L-46.178,230.793L-50.043000000000006,232.89599999999996L-50.043000000000006,71.89599999999996L-50.748999999999995,65.70600000000002L-51.845,59.573999999999955L-53.32599999999999,53.52199999999999L-55.185,47.57600000000002L-57.417,41.75999999999999L-60.012,36.096000000000004L-62.958,30.607000000000028L-66.246,25.314999999999998L-69.861,20.240999999999985L-73.789,15.404999999999973L-78.015,10.827999999999975L-82.521,6.5260000000000105L-82.521,-154.36399999999998L-82.521,-157.474L-81.543,-163.36399999999998L-80.229,-169.187L-79.398,-172.07999999999998L-78.899,-173.82L-78.316,-175.68099999999998L-76.61,-180.551L-74.315,-186.062L-71.707,-191.43200000000002L-68.795,-196.644L-65.588,-201.679z"></path><path d="M102.9,-206.53L106.664,-211.164L110.688,-215.574L114.958,-219.746L118.812,-221.848L122.841,-223.592L127.011,-224.964L131.288,-225.953L135.638,-226.548L140.023,-226.747L144.408,-226.548L148.758,-225.953L153.035,-224.964L157.205,-223.592L161.234,-221.848L165.088,-219.746L169.486,-215.548L173.717,-210.962L177.651,-206.118L181.27,-201.035L184.56,-195.733L187.509,-190.233L190.104,-184.558L192.334,-178.73000000000002L194.191,-172.77300000000002L195.667,-166.70999999999998L196.757,-160.56599999999997L197.456,-154.365L197.456,6.524999999999977L192.95,10.826000000000022L188.724,15.403999999999996L184.796,20.24000000000001L181.181,25.312999999999988L177.893,30.605000000000018L174.946,36.093999999999994L172.352,41.75799999999998L170.12,47.57499999999999L169.18,50.58100000000002L168.915,51.33600000000001L168.598,52.44200000000001L168.261,53.51999999999998L168.099,54.18099999999998L167.268,57.07400000000001L165.954,62.89700000000005L164.976,68.78700000000003L164.976,232.78700000000003L161.347,230.793L157.308,229.04899999999998L153.127,227.67700000000002L148.839,226.688L144.48,226.09199999999998L140.085,225.89200000000005L135.689,226.09199999999998L131.33,226.688L127.042,227.67700000000002L122.862,229.04899999999998L118.822,230.793L114.957,232.89599999999996L114.957,71.89599999999996L114.251,65.70600000000002L113.155,59.573999999999955L111.674,53.52199999999999L109.815,47.57600000000002L107.583,41.75999999999999L104.988,36.096000000000004L102.042,30.607000000000028L98.754,25.314999999999998L95.139,20.240999999999985L91.211,15.404999999999973L86.985,10.827999999999975L82.479,6.5260000000000105L82.479,-154.36399999999998L82.479,-157.474L83.457,-163.36399999999998L84.771,-169.187L85.602,-172.07999999999998L86.101,-173.82L86.684,-175.68099999999998L88.39,-180.551L90.685,-186.062L93.293,-191.43200000000002L96.205,-196.644L99.412,-201.679z"></path><path d="M-62.099999999999994,246.47L-58.336,241.836L-54.312,237.426L-50.042,233.254L-46.188,231.152L-42.159000000000006,229.408L-37.989000000000004,228.036L-33.71199999999999,227.047L-29.361999999999995,226.452L-24.977000000000004,226.253L-20.592000000000013,226.452L-16.24199999999999,227.047L-11.965000000000003,228.036L-7.7949999999999875,229.408L-3.765999999999991,231.152L0.08799999999999386,233.254L4.48599999999999,237.452L8.717000000000013,242.038L12.65100000000001,246.882L16.27000000000001,251.965L19.560000000000002,257.267L22.508999999999986,262.767L25.104000000000013,268.442L27.334000000000003,274.27L29.191000000000003,280.227L30.667,286.29L31.757000000000005,292.434L32.45599999999999,298.635L32.45599999999999,459.525L27.94999999999999,463.826L23.72399999999999,468.404L19.795999999999992,473.24L16.18100000000001,478.313L12.893,483.605L9.945999999999998,489.094L7.352000000000004,494.758L5.1200000000000045,500.575L4.180000000000007,503.581L3.914999999999992,504.336L3.598000000000013,505.442L3.2609999999999957,506.52L3.0989999999999895,507.181L2.2680000000000007,510.074L0.9540000000000077,515.897L-0.02400000000000091,521.787L-0.02400000000000091,685.787L-3.6529999999999916,683.793L-7.692000000000007,682.049L-11.87299999999999,680.677L-16.161,679.688L-20.52000000000001,679.092L-24.914999999999992,678.892L-29.311000000000007,679.092L-33.66999999999999,679.688L-37.958,680.677L-42.138000000000005,682.049L-46.178,683.793L-50.043000000000006,685.896L-50.043000000000006,524.896L-50.748999999999995,518.706L-51.845,512.574L-53.32599999999999,506.522L-55.185,500.576L-57.417,494.76L-60.012,489.096L-62.958,483.607L-66.246,478.315L-69.861,473.241L-73.789,468.405L-78.015,463.828L-82.521,459.526L-82.521,298.636L-82.521,295.526L-81.543,289.636L-80.229,283.813L-79.398,280.92L-78.899,279.18L-78.316,277.319L-76.61,272.449L-74.315,266.938L-71.707,261.568L-68.795,256.356L-65.588,251.321z"></path><path d="M102.9,246.47L106.664,241.836L110.688,237.426L114.958,233.254L118.812,231.152L122.841,229.408L127.011,228.036L131.288,227.047L135.638,226.452L140.023,226.253L144.408,226.452L148.758,227.047L153.035,228.036L157.205,229.408L161.234,231.152L165.088,233.254L169.486,237.452L173.717,242.038L177.651,246.882L181.27,251.965L184.56,257.267L187.509,262.767L190.104,268.442L192.334,274.27L194.191,280.227L195.667,286.29L196.757,292.434L197.456,298.635L197.456,459.525L192.95,463.826L188.724,468.404L184.796,473.24L181.181,478.313L177.893,483.605L174.946,489.094L172.352,494.758L170.12,500.575L169.18,503.581L168.915,504.336L168.598,505.442L168.261,506.52L168.099,507.181L167.268,510.074L165.954,515.897L164.976,521.787L164.976,685.787L161.347,683.793L157.308,682.049L153.127,680.677L148.839,679.688L144.48,679.092L140.085,678.892L135.689,679.092L131.33,679.688L127.042,680.677L122.862,682.049L118.822,683.793L114.957,685.896L114.957,524.896L114.251,518.706L113.155,512.574L111.674,506.522L109.815,500.576L107.583,494.76L104.988,489.096L102.042,483.607L98.754,478.315L95.139,473.241L91.211,468.405L86.985,463.828L82.479,459.526L82.479,298.636L82.479,295.526L83.457,289.636L84.771,283.813L85.602,280.92L86.101,279.18L86.684,277.319L88.39,272.449L90.685,266.938L93.293,261.568L96.205,256.356L99.412,251.321z"></path><path d="M86.68,277.3L86.415,278.055L86.098,279.16L85.761,280.239L85.599,280.899L84.768,283.792L83.454,289.616L82.476,295.505L83.427,289.612L84.721,283.783L86.353,278.041L87.307,275.302z"></path><path d="M88,273.31L87.306,275.303L87.62,274.301z"></path><path d="M102.85,246.43L106.626,241.806L110.667,237.411L114.956,233.259L110.686,237.43L106.661,241.84L102.898,246.475L99.407,251.317L96.2,256.353L93.287,261.564L90.68,266.935L88.384,272.446L86.678,277.316L87.305,275.311L87.999,273.319L88.74,271.386L90.603,266.897L93.209,261.526L96.124,256.316L99.336,251.284z"></path><path d="M88.75,271.37L88.009,273.303L88.324,272.396z"></path></svg>