<svg width="480" height="480" version="1.2" xmlns="http://www.w3.org/2000/svg" viewBox="0 0 480 480"><style type="text/css">path {stroke-width: 1; vector-effect: non-scaling-stroke; fill:none; stroke: #000; stroke-linecap: round; stroke-linejoin: miter;}</style><path d="M80,200L120,200L120,240L80,240z"></path><path d="M120,0L160,0L160,40L120,40z"></path><path d="M120,240L151.062,235.911L180.007,223.921L204.863,204.849L223.935,179.993L235.925,151.048L240.014,119.986L240.014,239.986z"></path><path d="M0,0L120,0L88.938,4.089L59.993,16.079L35.137,35.151L16.065,60.007L4.075,88.952L-0.014,120.014z"></path><path d="M480,0L600,0L568.938,4.089L539.993,16.079L515.137,35.151L496.065,60.007L484.075,88.952L479.986,120.014z"></path><path d="M80,120L120,120L120,160L109.649,158.637L100.004,154.642L91.721,148.287L85.366,140.004L81.371,130.359z"></path><path d="M91.72,91.72L100.003,85.365L109.648,81.369L119.999,80.007L119.999,120.007L79.999,120.007L81.361,109.656L85.357,100.011z"></path><path d="M120,120L160,120L158.637,130.351L154.642,139.996L148.287,148.279L140.004,154.634L130.359,158.629L120.008,159.992z"></path><path d="M120,80L130.351,81.363L139.996,85.358L148.279,91.713L154.634,99.996L158.629,109.641L159.992,119.992L119.992,119.992z"></path><path d="M120,200L140.701,197.275L159.992,189.284L176.557,176.573L189.268,160.008L197.259,140.717L199.984,120.016L239.984,120.016L235.895,151.078L223.905,180.023L204.833,204.879L179.977,223.951L151.032,235.941L119.97,240.03z"></path><path d="M35.15,35.15L60.006,16.078L88.951,4.088L120.013,-0.001L120.013,39.999L99.312,42.724L80.021,50.714L63.456,63.425L50.745,79.991L42.754,99.281L40.029,119.983L0.029,119.983L4.118,88.921L16.108,59.975z"></path><path d="M35.15,515.15L60.006,496.078L88.951,484.088L120.013,479.999L120.013,519.999L99.312,522.724L80.021,530.7139999999999L63.456,543.425L50.745,559.991L42.754,579.281L40.029,599.983L0.029,599.983L4.118,568.921L16.108,539.975z"></path><path d="M160,0L200,0L200,40L160,40z"></path><path d="M200,0L240,0L240,40L200,40z"></path><path d="M40,200L80,200L80,240L40,240z"></path><path d="M0,200L40,200L40,240L0,240z"></path><path d="M80,120L81.363,130.351L85.358,139.996L91.713,148.279L99.996,154.634L109.641,158.629L119.992,159.992L79.992,159.992z"></path><path d="M40,120L80,120L80,160L40,160z"></path><path d="M0,120L40,120L40,160L0,160z"></path><path d="M80,160L120,160L120,200L80,200z"></path><path d="M40,160L80,160L80,200L40,200z"></path><path d="M0,160L40,160L40,200L0,200z"></path><path d="M120,80L160,80L160,120L158.637,109.649L154.642,100.004L148.287,91.721L140.004,85.366L130.359,81.371z"></path><path d="M160,80L200,80L200,120L160,120z"></path><path d="M200,80L240,80L240,120L200,120z"></path><path d="M120,40L160,40L160,80L120,80z"></path><path d="M160,40L200,40L200,80L160,80z"></path><path d="M200,40L240,40L240,80L200,80z"></path><path d="M120,160L130.351,158.637L139.996,154.642L148.279,148.287L154.634,140.004L158.629,130.359L159.992,120.008L199.992,120.008L197.267,140.709L189.276,160L176.565,176.565L160,189.276L140.709,197.267L120.008,199.992z"></path><path d="M63.43,63.43L79.995,50.719L99.286,42.729L119.987,40.003L119.987,80.003L109.637,81.366L99.991,85.361L91.709,91.717L85.353,99.999L81.358,109.645L79.995,119.995L39.995,119.995L42.721,99.294L50.711,80.003z"></path><path d="M0,320L40,320L40,360L0,360z"></path><path d="M200,360L240,360L240,400L200,400z"></path><path d="M0,-120L4.089,-88.93799999999999L16.079,-59.992999999999995L35.151,-35.137L60.007,-16.064999999999998L88.952,-4.074999999999989L120.014,0.014000000000010004L0.014,0.014000000000010004z"></path><path d="M0,360L4.089,391.062L16.079,420.007L35.151,444.863L60.007,463.935L88.952,475.925L120.014,480.014L0.014,480.014z"></path><path d="M120,240L240,240L240,360L235.911,328.938L223.921,299.993L204.849,275.137L179.993,256.065L151.048,244.075z"></path><path d="M91.72,331.72L100.003,325.365L109.648,321.369L119.999,320.007L119.999,360.007L79.999,360.007L81.361,349.656L85.357,340.011z"></path><path d="M120,320L130.351,321.363L139.996,325.358L148.279,331.713L154.634,339.996L158.629,349.641L159.992,359.992L119.992,359.992z"></path><path d="M80,360L120,360L120,400L109.649,398.637L100.004,394.642L91.721,388.287L85.366,380.004L81.371,370.359z"></path><path d="M120,360L160,360L158.637,370.351L154.642,379.996L148.287,388.279L140.004,394.634L130.359,398.629L120.008,399.992z"></path><path d="M0,360L40,360L42.725,380.701L50.716,399.992L63.427,416.557L79.992,429.268L99.283,437.259L119.984,439.984L119.984,479.984L88.922,475.895L59.977,463.905L35.121,444.833L16.049,419.977L4.059,391.032z"></path><path d="M120,240L151.062,244.089L180.007,256.079L204.863,275.151L223.935,300.007L235.925,328.952L240.014,360.014L200.014,360.014L197.289,339.313L189.298,320.022L176.587,303.457L160.022,290.746L140.732,282.756L120.03,280.03z"></path><path d="M200,400L240,400L240,440L200,440z"></path><path d="M200,440L240,440L240,480L200,480z"></path><path d="M0,280L40,280L40,320L0,320z"></path><path d="M0,240L40,240L40,280L0,280z"></path><path d="M80,320L120,320L109.649,321.363L100.004,325.358L91.721,331.713L85.366,339.996L81.371,349.641L80.008,359.992z"></path><path d="M80,280L120,280L120,320L80,320z"></path><path d="M80,240L120,240L120,280L80,280z"></path><path d="M40,320L80,320L80,360L40,360z"></path><path d="M40,280L80,280L80,320L40,320z"></path><path d="M40,240L80,240L80,280L40,280z"></path><path d="M160,360L160,400L120,400L130.351,398.637L139.996,394.642L148.279,388.287L154.634,380.004L158.629,370.359z"></path><path d="M120,400L160,400L160,440L120,440z"></path><path d="M120,440L160,440L160,480L120,480z"></path><path d="M160,360L200,360L200,400L160,400z"></path><path d="M160,400L200,400L200,440L160,440z"></path><path d="M160,440L200,440L200,480L160,480z"></path><path d="M40,360L80,360L81.363,370.351L85.358,379.996L91.713,388.279L99.996,394.634L109.641,398.629L119.992,399.992L119.992,439.992L99.291,437.267L80,429.276L63.435,416.565L50.724,400L42.733,380.709z"></path><path d="M120,280L140.701,282.725L159.992,290.716L176.557,303.427L189.268,319.992L197.259,339.283L199.984,359.984L159.984,359.984L158.621,349.633L154.626,339.988L148.271,331.705L139.988,325.35L130.343,321.355L119.992,319.992z"></path><path d="M360,240L400,240L400,280L360,280z"></path><path d="M320,440L360,440L360,480L320,480z"></path><path d="M240,240L360,240L328.938,244.089L299.993,256.079L275.137,275.151L256.065,300.007L244.075,328.952L239.986,360.014z"></path><path d="M-88.94,475.91L-59.995000000000005,463.921L-35.13900000000001,444.848L-16.067000000000007,419.992L-4.076999999999998,391.047L0.012000000000000455,359.985L0.012000000000000455,479.985L-119.988,479.985z"></path><path d="M391.06,475.91L420.005,463.921L444.861,444.848L463.933,419.992L475.923,391.047L480.012,359.985L480.012,479.985L360.012,479.985z"></path><path d="M360,320L370.351,321.363L379.996,325.358L388.279,331.713L394.634,339.996L398.629,349.641L399.992,359.992L359.992,359.992z"></path><path d="M360,360L400,360L398.637,370.351L394.642,379.996L388.287,388.279L380.004,394.634L370.359,398.629L360.008,399.992z"></path><path d="M331.72,331.72L340.003,325.365L349.648,321.369L359.999,320.007L359.999,360.007L319.999,360.007L321.361,349.656L325.357,340.011z"></path><path d="M320,360L360,360L360,400L349.649,398.637L340.004,394.642L331.721,388.287L325.366,380.004L321.371,370.359z"></path><path d="M275.15,275.15L300.006,256.077L328.951,244.088L360.013,239.999L360.013,279.999L339.311,282.724L320.021,290.714L303.456,303.425L290.745,319.991L282.754,339.281L280.029,359.983L240.029,359.983L244.118,328.921L256.108,299.975z"></path><path d="M360,-40L380.701,-42.72500000000002L399.992,-50.71600000000001L416.557,-63.42700000000002L429.268,-79.99200000000002L437.259,-99.28300000000002L439.984,-119.98399999999998L479.984,-119.98399999999998L475.895,-88.92200000000003L463.905,-59.976999999999975L444.833,-35.12099999999998L419.977,-16.048999999999978L391.032,-4.059000000000026L359.97,0.029999999999972715z"></path><path d="M360,440L380.701,437.275L399.992,429.284L416.557,416.573L429.268,400.008L437.259,380.717L439.984,360.016L479.984,360.016L475.895,391.078L463.905,420.023L444.833,444.879L419.977,463.951L391.032,475.941L359.97,480.03z"></path><path d="M280,440L320,440L320,480L280,480z"></path><path d="M240,440L280,440L280,480L240,480z"></path><path d="M400,240L440,240L440,280L400,280z"></path><path d="M440,240L480,240L480,280L440,280z"></path><path d="M360,320L400,320L400,360L398.637,349.649L394.642,340.004L388.287,331.721L380.004,325.366L370.359,321.371z"></path><path d="M400,320L440,320L440,360L400,360z"></path><path d="M440,320L480,320L480,360L440,360z"></path><path d="M360,280L400,280L400,320L360,320z"></path><path d="M400,280L440,280L440,320L400,320z"></path><path d="M440,280L480,280L480,320L440,320z"></path><path d="M320,360L321.363,370.351L325.358,379.996L331.713,388.279L339.996,394.634L349.641,398.629L359.992,399.992L319.992,399.992z"></path><path d="M280,360L320,360L320,400L280,400z"></path><path d="M240,360L280,360L280,400L240,400z"></path><path d="M320,400L360,400L360,440L320,440z"></path><path d="M280,400L320,400L320,440L280,440z"></path><path d="M240,400L280,400L280,440L240,440z"></path><path d="M303.43,303.43L319.995,290.719L339.286,282.729L359.987,280.003L359.987,320.003L349.636,321.366L339.991,325.361L331.709,331.717L325.353,339.999L321.358,349.645L319.995,359.995L279.995,359.995L282.721,339.294L290.711,320.003z"></path><path d="M360,400L370.351,398.637L379.996,394.642L388.279,388.287L394.634,380.004L398.629,370.359L399.992,360.008L439.992,360.008L437.267,380.709L429.276,400L416.565,416.565L400,429.276L380.709,437.267L360.008,439.992z"></path><path d="M440,120L480,120L480,160L440,160z"></path><path d="M240,80L280,80L280,120L240,120z"></path><path d="M360,0L480,0L480,120L475.911,88.938L463.921,59.993L444.849,35.137L419.993,16.065L391.048,4.075z"></path><path d="M240,120L244.089,151.062L256.079,180.007L275.151,204.863L300.007,223.935L328.952,235.925L360.014,240.014L240.014,240.014z"></path><path d="M360,120L400,120L398.637,130.351L394.642,139.996L388.287,148.279L380.004,154.634L370.359,158.629L360.008,159.992z"></path><path d="M320,120L360,120L360,160L349.649,158.637L340.004,154.642L331.721,148.287L325.366,140.004L321.371,130.359z"></path><path d="M360,80L370.351,81.363L379.996,85.358L388.279,91.713L394.634,99.996L398.629,109.641L399.992,119.992L359.992,119.992z"></path><path d="M331.72,91.72L340.003,85.365L349.648,81.369L359.999,80.007L359.999,120.007L319.999,120.007L321.361,109.656L325.357,100.011z"></path><path d="M-120,0L-88.93799999999999,4.089L-59.992999999999995,16.079L-35.137,35.151L-16.064999999999998,60.007L-4.074999999999989,88.952L0.014000000000010004,120.014L-39.98599999999999,120.014L-42.71100000000001,99.313L-50.702,80.022L-63.41300000000001,63.457L-79.97800000000001,50.746L-99.26799999999997,42.756L-119.97000000000003,40.03z"></path><path d="M360,0L391.062,4.089L420.007,16.079L444.863,35.151L463.935,60.007L475.925,88.952L480.014,120.014L440.014,120.014L437.289,99.313L429.298,80.022L416.587,63.457L400.022,50.746L380.732,42.756L360.03,40.03z"></path><path d="M400,200L440,200L440,240L400,240z"></path><path d="M280,40L320,40L320,80L280,80z"></path><path d="M320,0L360,0L360,40L320,40z"></path><path d="M280,80L320,80L320,120L280,120z"></path><path d="M400,160L440,160L440,200L400,200z"></path><path d="M400,120L400,160L360,160L370.351,158.637L379.996,154.642L388.279,148.287L394.634,140.004L398.629,130.359z"></path><path d="M360,160L400,160L400,200L360,200z"></path><path d="M440,160L480,160L480,200L440,200z"></path><path d="M360,200L400,200L400,240L360,240z"></path><path d="M240,120L280,120L282.725,140.701L290.716,159.992L303.427,176.557L319.992,189.268L339.283,197.259L359.984,199.984L359.984,239.984L328.922,235.895L299.977,223.905L275.121,204.833L256.049,179.977L244.059,151.032z"></path><path d="M280,0L320,0L320,40L280,40z"></path><path d="M240,0L280,0L280,40L240,40z"></path><path d="M320,40L360,40L360,80L320,80z"></path><path d="M360,40L380.701,42.725L399.992,50.716L416.557,63.427L429.268,79.992L437.259,99.283L439.984,119.984L399.984,119.984L398.621,109.633L394.626,99.988L388.271,91.705L379.988,85.35L370.343,81.355L359.992,79.992z"></path><path d="M240,40L280,40L280,80L240,80z"></path><path d="M280,120L320,120L321.363,130.351L325.358,139.996L331.713,148.279L339.996,154.634L349.641,158.629L359.992,159.992L359.992,199.992L339.291,197.267L320,189.276L303.435,176.565L290.724,160L282.733,140.709z"></path><path d="M440,200L480,200L480,240L440,240z"></path><path d="M320,80L360,80L349.649,81.363L340.004,85.358L331.721,91.713L325.366,99.996L321.371,109.641L320.008,119.992z"></path><path d="M400,120L440,120L440,160L400,160z"></path></svg>