<svg width="300" height="300" version="1.2" xmlns="http://www.w3.org/2000/svg" viewBox="0 0 300 300"><style type="text/css">path {stroke-width: 1; vector-effect: non-scaling-stroke; fill:none; stroke: #000; stroke-linecap: round; stroke-linejoin: miter;}</style><path d="M43.93,43.93L74.998,20.091L111.177,5.105L150.002,-0.006L150.002,299.994L144.89,261.169L129.905,224.99L106.065,193.922L74.998,170.083L38.819,155.097L-0.006,149.985L5.105,111.16L20.091,74.981z"></path><path d="M343.93,43.93L374.998,20.091L411.177,5.105L450.002,-0.006L450.002,299.994L444.89,261.169L429.905,224.99L406.065,193.922L374.998,170.083L338.819,155.097L299.994,149.985L305.105,111.16L320.091,74.981z"></path><path d="M43.93,343.93L74.998,320.091L111.177,305.105L150.002,299.994L150.002,599.994L144.89,561.169L129.905,524.99L106.065,493.922L74.998,470.08299999999997L38.819,455.097L-0.006,449.985L5.105,411.15999999999997L20.091,374.981z"></path><path d="M343.93,343.93L374.998,320.091L411.177,305.105L450.002,299.994L450.002,599.994L444.89,561.169L429.905,524.99L406.065,493.922L374.998,470.08299999999997L338.819,455.097L299.994,449.985L305.105,411.15999999999997L320.091,374.981z"></path><path d="M-150,-300L-111.17500000000001,-294.889L-74.99600000000001,-279.903L-43.928,-256.064L-20.089,-224.99599999999998L-5.103000000000009,-188.817L0.007999999999981355,-149.992L-38.81700000000001,-144.88L-74.99600000000001,-129.895L-106.064,-106.055L-129.903,-74.988L-144.889,-38.809000000000026L-150,0.016000000000019554z"></path><path d="M150,-300L188.825,-294.889L225.004,-279.903L256.072,-256.064L279.911,-224.99599999999998L294.897,-188.817L300.008,-149.992L261.183,-144.88L225.004,-129.895L193.936,-106.055L170.097,-74.988L155.111,-38.809000000000026L150,0.016000000000019554z"></path><path d="M-150,0L-111.17500000000001,5.111L-74.99600000000001,20.097L-43.928,43.936L-20.089,75.004L-5.103000000000009,111.183L0.007999999999981355,150.008L-38.81700000000001,155.12L-74.99600000000001,170.105L-106.064,193.945L-129.903,225.012L-144.889,261.191L-150,300.016z"></path><path d="M150,0L188.825,5.111L225.004,20.097L256.072,43.936L279.911,75.004L294.897,111.183L300.008,150.008L261.183,155.12L225.004,170.105L193.936,193.945L170.097,225.012L155.111,261.191L150,300.016z"></path><path d="M-106.07,-106.07L-75.00200000000001,-129.909L-38.82299999999998,-144.895L0.0020000000000095497,-150.006L0.0020000000000095497,149.99400000000003L-5.110000000000014,111.16899999999998L-20.095000000000027,74.99000000000001L-43.935,43.922000000000025L-75.00200000000001,20.083000000000027L-111.18100000000001,5.09699999999998L-150.006,-0.014999999999986358L-144.895,-38.839999999999975L-129.909,-75.019z"></path><path d="M193.93,-106.07L224.998,-129.909L261.177,-144.895L300.002,-150.006L300.002,149.99400000000003L294.89,111.16899999999998L279.905,74.99000000000001L256.065,43.922000000000025L224.998,20.083000000000027L188.819,5.09699999999998L149.994,-0.014999999999986358L155.105,-38.839999999999975L170.091,-75.019z"></path><path d="M-106.07,193.93L-75.00200000000001,170.091L-38.82299999999998,155.105L0.0020000000000095497,149.994L0.0020000000000095497,449.994L-5.110000000000014,411.169L-20.095000000000027,374.99L-43.935,343.922L-75.00200000000001,320.083L-111.18100000000001,305.097L-150.006,299.985L-144.895,261.16L-129.909,224.981z"></path><path d="M193.93,193.93L224.998,170.091L261.177,155.105L300.002,149.994L300.002,449.994L294.89,411.169L279.905,374.99L256.065,343.922L224.998,320.083L188.819,305.097L149.994,299.985L155.105,261.16L170.091,224.981z"></path><path d="M0,-150L38.82499999999999,-144.889L75.00400000000002,-129.903L106.072,-106.064L129.911,-74.99600000000001L144.897,-38.81700000000001L150.00799999999998,0.007999999999981355L111.18299999999999,5.1200000000000045L75.00400000000002,20.105000000000018L43.93599999999998,43.94499999999999L20.09699999999998,75.012L5.11099999999999,111.19099999999997L0,150.01600000000002z"></path><path d="M0,150L38.82499999999999,155.111L75.00400000000002,170.097L106.072,193.936L129.911,225.004L144.897,261.183L150.00799999999998,300.008L111.18299999999999,305.12L75.00400000000002,320.105L43.93599999999998,343.945L20.09699999999998,375.012L5.11099999999999,411.191L0,450.016z"></path></svg>