<svg width="430" height="430" version="1.2" xmlns="http://www.w3.org/2000/svg" viewBox="0 0 430 430"><style type="text/css">path {stroke-width: 1; vector-effect: non-scaling-stroke; fill:none; stroke: #000; stroke-linecap: round; stroke-linejoin: miter;}</style><path d="M0,-215L107.501,-107.49900000000002L0,0.002999999999985903z"></path><path d="M0,215L107.501,322.501L0,430.003z"></path><path d="M215,0L430,0L322.499,107.501z"></path><path d="M0,430L107.501,322.499L215.003,430z"></path><path d="M0,215L215,215L107.499,322.501z"></path><path d="M430,0L430,215L322.499,107.499z"></path><path d="M215,215L215,430L107.499,322.499z"></path><path d="M0,0L215,0L215,215L0,215z"></path><path d="M215,0L322.501,107.501L215,215.003z"></path><path d="M215,215L430,215L430,430L215,430z"></path><path d="M-215,215L-107.49900000000002,107.499L0.002999999999985903,215z"></path><path d="M215,215L322.501,107.499L430.003,215z"></path></svg>