<svg width="80" height="700" version="1.2" xmlns="http://www.w3.org/2000/svg" viewBox="0 0 80 700"><style type="text/css">path {stroke-width: 1; vector-effect: non-scaling-stroke; fill:none; stroke: #000; stroke-linecap: round; stroke-linejoin: miter;}</style><path d="M0,400L40,400L40,500L40,600L40,700L0,700z"></path><path d="M40,500L80,500L80,600L40,600z"></path><path d="M0,300L40,300L40,400L0,400z"></path><path d="M0,0L40,0L40,200L40,300L0,300L0,100z"></path><path d="M40,200L80,200L80,500L40,500L40,400L40,300z"></path><path d="M40,-100L80,-100L80,200L40,200L40,100L40,0z"></path><path d="M40,600L80,600L80,900L40,900L40,800L40,700z"></path></svg>