<svg width="280" height="420" version="1.2" xmlns="http://www.w3.org/2000/svg" viewBox="0 0 280 420"><style type="text/css">path {stroke-width: 1; vector-effect: non-scaling-stroke; fill:none; stroke: #000; stroke-linecap: round; stroke-linejoin: miter;}</style><path d="M70,210L140,210L210,210L280,210L280,280L70,280z"></path><path d="M70,280L280,280L280,350L70,350z"></path><path d="M0,210L70,210L70,280L70,350L70,420L0,420z"></path><path d="M70,350L280,350L280,420L70,420z"></path><path d="M140,0L210,0L210,70L210,140L210,210L140,210z"></path><path d="M-70,140L140,140L140,210L0,210L-70,210z"></path><path d="M210,140L420,140L420,210L280,210L210,210z"></path><path d="M-70,0L140,0L140,70L-70,70z"></path><path d="M210,0L420,0L420,70L210,70z"></path><path d="M-70,70L140,70L140,140L-70,140z"></path><path d="M210,70L420,70L420,140L210,140z"></path></svg>