<svg width="207.16" height="199.49" version="1.2" xmlns="http://www.w3.org/2000/svg" viewBox="0 0 207.16 199.49"><style type="text/css">path {stroke-width: 1; vector-effect: non-scaling-stroke; fill:none; stroke: #000; stroke-linecap: round; stroke-linejoin: miter;}</style><path d="M86.32,162.8L172.641,121.83L172.641,199.49L86.321,199.49z"></path><path d="M-34.52000000000001,0L0.009999999999990905,0L0.009999999999990905,199.49L-34.52000000000001,199.49L-34.52000000000001,121.83z"></path><path d="M172.64,0L207.17,0L207.17,199.49L172.64,199.49L172.64,121.83z"></path><path d="M0,0L86.32,0L86.32,40.98L-0.001,81.95z"></path><path d="M207.16,0L293.48,0L293.48,40.98L207.159,81.95z"></path><path d="M86.32,0L172.64,0L172.64,121.83L86.319,162.8L86.319,40.98z"></path><path d="M0,81.95L86.321,40.98L86.321,162.8L86.321,199.49L0.001,199.49z"></path></svg>