<svg width="824" height="1428" version="1.2" xmlns="http://www.w3.org/2000/svg" viewBox="0 0 824 1428"><style type="text/css">path {stroke-width: 1; vector-effect: non-scaling-stroke; fill:none; stroke: #000; stroke-linecap: round; stroke-linejoin: miter;}</style><path d="M-411.77,-476L-362.018,-478.60699999999997L-312.812,-486.40099999999995L-264.68899999999996,-499.29499999999996L-218.178,-517.149L-195.98299999999995,-528.458L-173.788,-539.767L-169.226,-542.73L-152.89700000000005,-553.334L-132.00599999999997,-566.901L-93.28800000000001,-598.254L-58.059999999999945,-633.482L-26.70799999999997,-672.199L0.42600000000004457,-713.982L27.559999999999945,-672.199L58.91300000000001,-633.482L94.14099999999996,-598.254L132.85900000000004,-566.901L174.64099999999996,-539.767L219.03099999999995,-517.149L265.5419999999999,-499.29499999999996L313.664,-486.40099999999995L362.8710000000001,-478.60699999999997L412.62300000000005,-476L390.0050000000001,-431.61L372.15100000000007,-385.09899999999993L359.25700000000006,-336.9770000000001L351.46299999999997,-287.77L348.856,-238.01800000000003L351.46299999999997,-188.26700000000005L359.25700000000006,-139.05999999999995L372.15100000000007,-90.9380000000001L379.00700000000006,-73.07799999999997L390.0050000000001,-44.42699999999991L412.62300000000005,-0.03700000000003456L362.8710000000001,2.5709999999999127L313.664,10.364000000000033L265.5419999999999,23.259000000000015L219.03099999999995,41.113000000000056L174.64099999999996,63.73000000000002L132.85900000000004,90.86400000000003L94.14099999999996,122.2170000000001L58.91300000000001,157.44499999999994L27.559999999999945,196.163L0.42600000000004457,237.94499999999994L-26.70799999999997,196.163L-58.059999999999945,157.44499999999994L-93.28800000000001,122.2170000000001L-132.00599999999997,90.86400000000003L-173.788,63.73000000000002L-177.985,61.5920000000001L-218.178,41.113000000000056L-264.68899999999996,23.259000000000015L-312.812,10.364000000000033L-355.865,3.5450000000000728L-362.028,2.56899999999996L-411.78,-0.038000000000010914L-389.162,-44.42800000000011L-386.102,-52.40100000000007L-371.308,-90.93900000000008L-358.414,-139.0619999999999L-350.62,-188.26800000000003L-349.317,-213.144L-348.013,-238.01999999999998L-350.62,-287.77199999999993L-358.414,-336.97800000000007L-366.913,-368.69900000000007L-371.308,-385.1010000000001L-389.162,-431.61199999999997z"></path><path d="M412.23,-476L461.982,-478.60699999999997L511.188,-486.40099999999995L559.311,-499.29499999999996L605.822,-517.149L628.017,-528.458L650.212,-539.767L654.774,-542.73L671.103,-553.334L691.994,-566.901L730.712,-598.254L765.94,-633.482L797.292,-672.199L824.426,-713.982L851.56,-672.199L882.913,-633.482L918.141,-598.254L956.859,-566.901L998.641,-539.767L1043.031,-517.149L1089.542,-499.29499999999996L1137.664,-486.40099999999995L1186.871,-478.60699999999997L1236.623,-476L1214.005,-431.61L1196.151,-385.09899999999993L1183.257,-336.9770000000001L1175.463,-287.77L1172.856,-238.01800000000003L1175.463,-188.26700000000005L1183.257,-139.05999999999995L1196.151,-90.9380000000001L1203.007,-73.07799999999997L1214.005,-44.42699999999991L1236.623,-0.03700000000003456L1186.871,2.5709999999999127L1137.664,10.364000000000033L1089.542,23.259000000000015L1043.031,41.113000000000056L998.641,63.73000000000002L956.859,90.86400000000003L918.141,122.2170000000001L882.913,157.44499999999994L851.56,196.163L824.426,237.94499999999994L797.292,196.163L765.94,157.44499999999994L730.712,122.2170000000001L691.994,90.86400000000003L650.212,63.73000000000002L646.015,61.5920000000001L605.822,41.113000000000056L559.311,23.259000000000015L511.188,10.364000000000033L468.135,3.5450000000000728L461.972,2.56899999999996L412.22,-0.038000000000010914L434.838,-44.42800000000011L437.898,-52.40100000000007L452.692,-90.93900000000008L465.586,-139.0619999999999L473.38,-188.26800000000003L474.683,-213.144L475.987,-238.01999999999998L473.38,-287.77199999999993L465.586,-336.97800000000007L457.087,-368.69900000000007L452.692,-385.1010000000001L434.838,-431.61199999999997z"></path><path d="M-411.77,952L-362.018,949.393L-312.812,941.599L-264.68899999999996,928.705L-218.178,910.851L-195.98299999999995,899.542L-173.788,888.233L-169.226,885.27L-152.89700000000005,874.666L-132.00599999999997,861.099L-93.28800000000001,829.746L-58.059999999999945,794.518L-26.70799999999997,755.801L0.42600000000004457,714.018L27.559999999999945,755.801L58.91300000000001,794.518L94.14099999999996,829.746L132.85900000000004,861.099L174.64099999999996,888.233L219.03099999999995,910.851L265.5419999999999,928.705L313.664,941.599L362.8710000000001,949.393L412.62300000000005,952L390.0050000000001,996.39L372.15100000000007,1042.901L359.25700000000006,1091.023L351.46299999999997,1140.23L348.856,1189.982L351.46299999999997,1239.733L359.25700000000006,1288.94L372.15100000000007,1337.062L379.00700000000006,1354.922L390.0050000000001,1383.573L412.62300000000005,1427.963L362.8710000000001,1430.571L313.664,1438.364L265.5419999999999,1451.259L219.03099999999995,1469.113L174.64099999999996,1491.73L132.85900000000004,1518.864L94.14099999999996,1550.217L58.91300000000001,1585.445L27.559999999999945,1624.163L0.42600000000004457,1665.945L-26.70799999999997,1624.163L-58.059999999999945,1585.445L-93.28800000000001,1550.217L-132.00599999999997,1518.864L-173.788,1491.73L-177.985,1489.592L-218.178,1469.113L-264.68899999999996,1451.259L-312.812,1438.364L-355.865,1431.545L-362.028,1430.569L-411.78,1427.962L-389.162,1383.572L-386.102,1375.599L-371.308,1337.061L-358.414,1288.938L-350.62,1239.732L-349.317,1214.856L-348.013,1189.98L-350.62,1140.228L-358.414,1091.022L-366.913,1059.301L-371.308,1042.899L-389.162,996.388z"></path><path d="M412.23,952L461.982,949.393L511.188,941.599L559.311,928.705L605.822,910.851L628.017,899.542L650.212,888.233L654.774,885.27L671.103,874.666L691.994,861.099L730.712,829.746L765.94,794.518L797.292,755.801L824.426,714.018L851.56,755.801L882.913,794.518L918.141,829.746L956.859,861.099L998.641,888.233L1043.031,910.851L1089.542,928.705L1137.664,941.599L1186.871,949.393L1236.623,952L1214.005,996.39L1196.151,1042.901L1183.257,1091.023L1175.463,1140.23L1172.856,1189.982L1175.463,1239.733L1183.257,1288.94L1196.151,1337.062L1203.007,1354.922L1214.005,1383.573L1236.623,1427.963L1186.871,1430.571L1137.664,1438.364L1089.542,1451.259L1043.031,1469.113L998.641,1491.73L956.859,1518.864L918.141,1550.217L882.913,1585.445L851.56,1624.163L824.426,1665.945L797.292,1624.163L765.94,1585.445L730.712,1550.217L691.994,1518.864L650.212,1491.73L646.015,1489.592L605.822,1469.113L559.311,1451.259L511.188,1438.364L468.135,1431.545L461.972,1430.569L412.22,1427.962L434.838,1383.572L437.898,1375.599L452.692,1337.061L465.586,1288.938L473.38,1239.732L474.683,1214.856L475.987,1189.98L473.38,1140.228L465.586,1091.022L457.087,1059.301L452.692,1042.899L434.838,996.388z"></path><path d="M390.05999999999995,996.39L412.6780000000001,952L435.29600000000005,996.39L453.1500000000001,1042.901L466.0440000000001,1091.023L473.837,1140.23L476.44499999999994,1189.982L473.837,1239.733L466.0440000000001,1288.94L453.1500000000001,1337.063L435.29600000000005,1383.574L412.6780000000001,1427.963L390.05999999999995,1383.574L379.0619999999999,1354.922L372.2059999999999,1337.063L359.3119999999999,1288.94L351.51800000000003,1239.733L348.91100000000006,1189.982L351.51800000000003,1140.23L359.3119999999999,1091.023L372.2059999999999,1042.901z"></path><path d="M-318.05,836.26L-279.33299999999997,804.907L-237.54999999999995,777.773L-193.15999999999997,755.156L-146.649,737.302L-98.52700000000004,724.407L-49.32000000000005,716.614L0.43200000000001637,714.006L-26.701999999999998,755.789L-58.05499999999995,794.506L-93.28300000000002,829.734L-132,861.087L-152.89200000000005,874.654L-169.221,885.258L-173.78300000000002,888.221L-195.97799999999995,899.53L-218.173,910.839L-264.68399999999997,928.693L-312.806,941.587L-362.013,949.381L-411.765,951.988L-384.631,910.205L-353.278,871.488z"></path><path d="M505.95,836.26L544.667,804.907L586.45,777.773L630.84,755.156L677.351,737.302L725.473,724.407L774.68,716.614L824.432,714.006L797.298,755.789L765.945,794.506L730.717,829.734L692,861.087L671.108,874.654L654.779,885.258L650.217,888.221L628.022,899.53L605.827,910.839L559.316,928.693L511.194,941.587L461.987,949.381L412.235,951.988L439.369,910.205L470.722,871.488z"></path><path d="M-22.159999999999968,282.39L0.45799999999997,238L23.076000000000022,282.39L40.92999999999995,328.901L53.823999999999955,377.023L61.61699999999996,426.23L64.22500000000002,475.982L61.61699999999996,525.733L53.823999999999955,574.94L40.92999999999995,623.063L23.076000000000022,669.574L0.45799999999997,713.963L-22.159999999999968,669.574L-33.158000000000015,640.922L-40.01400000000001,623.063L-52.908000000000015,574.94L-60.702,525.733L-63.30899999999997,475.982L-60.702,426.23L-52.908000000000015,377.023L-40.01400000000001,328.901z"></path><path d="M801.84,282.39L824.458,238L847.076,282.39L864.93,328.901L877.824,377.023L885.617,426.23L888.225,475.982L885.617,525.733L877.824,574.94L864.93,623.063L847.076,669.574L824.458,713.963L801.84,669.574L790.842,640.922L783.986,623.063L771.092,574.94L763.298,525.733L760.691,475.982L763.298,426.23L771.092,377.023L783.986,328.901z"></path><path d="M93.72,122.26L132.437,90.907L174.22,63.773L218.61,41.156L265.121,23.302L313.243,10.407L362.45,2.614L412.202,0.006L385.068,41.789L353.715,80.506L318.487,115.734L279.77,147.087L242.549,171.258L237.987,174.221L215.792,185.53L193.597,196.839L147.086,214.693L98.964,227.587L49.757,235.381L0.005,237.988L27.139,196.205L58.492,157.488z"></path><path d="M-411.77,0L-362.018,2.607L-312.812,10.401L-264.68899999999996,23.295L-218.178,41.149L-173.788,63.767L-132.00599999999997,90.901L-93.28800000000001,122.254L-58.059999999999945,157.482L-26.70799999999997,196.199L0.42600000000004457,237.982L-49.325000000000045,235.374L-98.53200000000004,227.581L-146.654,214.686L-193.16499999999996,196.833L-237.55499999999995,174.215L-279.33799999999997,147.081L-318.055,115.728L-353.283,80.5L-384.636,41.783z"></path><path d="M412.23,0L461.982,2.607L511.188,10.401L559.311,23.295L605.822,41.149L650.212,63.767L691.994,90.901L730.712,122.254L765.94,157.482L797.292,196.199L824.426,237.982L774.675,235.374L725.468,227.581L677.346,214.686L630.835,196.833L586.445,174.215L544.662,147.081L505.945,115.728L470.717,80.5L439.364,41.783z"></path><path d="M-824,238L-774.248,235.393L-725.042,227.599L-676.919,214.705L-630.408,196.851L-608.213,185.542L-586.018,174.233L-581.456,171.27L-544.236,147.099L-505.518,115.746L-470.29,80.518L-438.938,41.801L-411.804,0.018L-384.67,41.801L-353.317,80.518L-318.089,115.746L-279.371,147.099L-237.58900000000006,174.233L-193.19899999999996,196.851L-146.688,214.705L-98.56600000000003,227.599L-49.35900000000004,235.393L0.3930000000000291,238L-22.225000000000023,282.39L-40.07899999999995,328.901L-52.972999999999956,377.023L-60.76700000000005,426.23L-63.374000000000024,475.982L-60.76700000000005,525.733L-52.972999999999956,574.94L-40.07899999999995,623.062L-33.222999999999956,640.922L-22.225000000000023,669.573L0.3930000000000291,713.963L-49.35900000000004,716.571L-98.56600000000003,724.364L-146.688,737.259L-193.19899999999996,755.113L-237.58900000000006,777.73L-279.371,804.864L-318.089,836.217L-353.317,871.445L-384.67,910.163L-411.804,951.945L-438.938,910.163L-470.29,871.445L-505.518,836.217L-544.236,804.864L-586.018,777.73L-590.215,775.592L-630.408,755.113L-676.919,737.259L-725.042,724.364L-768.095,717.545L-774.258,716.569L-824.01,713.962L-801.392,669.572L-798.332,661.599L-783.538,623.061L-770.644,574.938L-762.85,525.732L-761.547,500.856L-760.243,475.98L-762.85,426.228L-770.644,377.022L-779.143,345.301L-783.538,328.899L-801.392,282.388z"></path><path d="M0,238L49.752,235.393L98.958,227.599L147.081,214.705L193.592,196.851L215.787,185.542L237.982,174.233L242.544,171.27L279.764,147.099L318.482,115.746L353.71,80.518L385.062,41.801L412.196,0.018L439.33,41.801L470.683,80.518L505.911,115.746L544.629,147.099L586.411,174.233L630.801,196.851L677.312,214.705L725.434,227.599L774.641,235.393L824.393,238L801.775,282.39L783.921,328.901L771.027,377.023L763.233,426.23L760.626,475.982L763.233,525.733L771.027,574.94L783.921,623.062L790.777,640.922L801.775,669.573L824.393,713.963L774.641,716.571L725.434,724.364L677.312,737.259L630.801,755.113L586.411,777.73L544.629,804.864L505.911,836.217L470.683,871.445L439.33,910.163L412.196,951.945L385.062,910.163L353.71,871.445L318.482,836.217L279.764,804.864L237.982,777.73L233.785,775.592L193.592,755.113L147.081,737.259L98.958,724.364L55.905,717.545L49.742,716.569L-0.01,713.962L22.608,669.572L25.668,661.599L40.462,623.061L53.356,574.938L61.15,525.732L62.453,500.856L63.757,475.98L61.15,426.228L53.356,377.022L44.857,345.301L40.462,328.899L22.608,282.388z"></path><path d="M824,238L873.752,235.393L922.958,227.599L971.081,214.705L1017.592,196.851L1039.787,185.542L1061.982,174.233L1066.544,171.27L1103.7640000000001,147.099L1142.482,115.746L1177.71,80.518L1209.062,41.801L1236.196,0.018L1263.33,41.801L1294.683,80.518L1329.911,115.746L1368.629,147.099L1410.411,174.233L1454.801,196.851L1501.312,214.705L1549.434,227.599L1598.641,235.393L1648.393,238L1625.775,282.39L1607.921,328.901L1595.027,377.023L1587.233,426.23L1584.626,475.982L1587.233,525.733L1595.027,574.94L1607.921,623.062L1614.777,640.922L1625.775,669.573L1648.393,713.963L1598.641,716.571L1549.434,724.364L1501.312,737.259L1454.801,755.113L1410.411,777.73L1368.629,804.864L1329.911,836.217L1294.683,871.445L1263.33,910.163L1236.196,951.945L1209.062,910.163L1177.71,871.445L1142.482,836.217L1103.7640000000001,804.864L1061.982,777.73L1057.785,775.592L1017.592,755.113L971.081,737.259L922.958,724.364L879.905,717.545L873.742,716.569L823.99,713.962L846.608,669.572L849.668,661.599L864.462,623.061L877.356,574.938L885.15,525.732L886.453,500.856L887.757,475.98L885.15,426.228L877.356,377.022L868.857,345.301L864.462,328.899L846.608,282.388z"></path><path d="M0.4600000000000364,714L50.21199999999999,716.607L99.418,724.401L147.54100000000005,737.295L194.05200000000002,755.149L238.442,777.767L280.22399999999993,804.901L318.942,836.254L354.1700000000001,871.482L385.5229999999999,910.199L412.65599999999995,951.982L362.905,949.374L313.6980000000001,941.581L265.576,928.686L219.06500000000005,910.833L174.67499999999995,888.215L132.89200000000005,861.081L94.17499999999995,829.728L58.947,794.5L27.59400000000005,755.783z"></path></svg>