<svg width="290" height="290" version="1.2" xmlns="http://www.w3.org/2000/svg" viewBox="0 0 290 290"><style type="text/css">path {stroke-width: 1; vector-effect: non-scaling-stroke; fill:none; stroke: #000; stroke-linecap: round; stroke-linejoin: miter;}</style><path d="M31.03,132.54L51.417,117.575L74.903,108.195L99.991,105L125.078,108.195L148.564,117.575L168.951,132.54L184.939,152.136L195.507,175.112L199.981,200.003L-0.019,200.003L4.455,175.112L15.023,152.136z"></path><path d="M321.03,132.54L341.41700000000003,117.575L364.903,108.195L389.991,105L415.078,108.195L438.56399999999996,117.575L458.951,132.54L474.93899999999996,152.136L485.507,175.112L489.981,200.003L289.981,200.003L294.455,175.112L305.023,152.136z"></path><path d="M0,0L4.474,24.891L15.042,47.867L31.029,67.463L51.417,82.428L74.903,91.807L99.99,95.003L125.077,91.807L148.564,82.428L168.951,67.463L184.938,47.867L195.506,24.891L199.98,0L199.98,200L195.506,175.109L184.938,152.133L168.951,132.537L148.564,117.572L125.077,108.193L99.99,104.997L74.903,108.193L51.417,117.572L31.029,132.537L15.042,152.133L4.474,175.109L0,200z"></path><path d="M0,0L200,0L195.526,24.891L184.958,47.867L168.971,67.463L148.583,82.428L125.097,91.807L100.01,95.003L74.923,91.807L51.436,82.428L31.049,67.463L15.062,47.867L4.494,24.891z"></path><path d="M0,200L200,200L200,290L0,290z"></path><path d="M200,0L290,0L290,290L200,290L200,200z"></path></svg>