<svg width="2000" height="2000" version="1.2" xmlns="http://www.w3.org/2000/svg" viewBox="0 0 2000 2000"><style type="text/css">path {stroke-width: 1; vector-effect: non-scaling-stroke; fill:none; stroke: #000; stroke-linecap: round; stroke-linejoin: miter;}</style><path d="M-403.0999999999999,0L265.6999999999998,0L265.6999999999998,226.44L-403.0999999999999,226.44z"></path><path d="M1596.9,0L2265.7,0L2265.7,226.44L1596.9,226.44z"></path><path d="M970.9,1730.9L1331.19,1730.9L1331.19,1831L970.9,1831z"></path><path d="M436.95,1831L703.93,1831L703.93,2000L436.95,2000z"></path><path d="M1198.37,745.86L1596.91,745.86L1596.91,898.31L1198.37,898.31z"></path><path d="M862.9,620.72L1128.9,620.72L1128.9,745.86L862.9,745.86z"></path><path d="M-871.0999999999999,361.86L370.25,361.86L370.25,745.86L-871.0999999999999,745.86z"></path><path d="M1128.9,361.86L2370.25,361.86L2370.25,745.86L1128.9,745.86z"></path><path d="M370.26,620.72L862.91,620.72L862.91,898.31L370.26,898.31z"></path><path d="M436.95,1429.89L970.9,1429.89L970.9,1556.9L436.95,1556.9z"></path><path d="M560.59,898.31L862.91,898.31L862.91,1234.31L560.59,1234.31z"></path><path d="M1331.2,0L1596.91,0L1596.91,226.44000000000005L1331.2,226.44000000000005z"></path><path d="M-403.0999999999999,1008.77L16.920000000000073,1008.77L16.920000000000073,1429.89L-403.0999999999999,1429.89z"></path><path d="M1596.9,1008.77L2016.92,1008.77L2016.92,1429.89L1596.9,1429.89z"></path><path d="M0,1730.9L436.95,1730.9L436.95,2000L0,2000z"></path><path d="M1596.9,745.86L1806.91,745.86L1806.91,898.31L1596.9,898.31z"></path><path d="M16.93,1234.31L970.91,1234.31L970.91,1429.89L16.93,1429.89z"></path><path d="M862.9,745.86L1198.36,745.86L1198.36,1068.08L862.9,1068.08z"></path><path d="M1198.37,898.31L1806.92,898.31L1806.92,1008.77L1198.37,1008.77z"></path><path d="M265.71,91.02L703.93,91.02L703.93,361.86L265.71,361.86z"></path><path d="M1128.9,226.44L1456.3,226.44L1456.3,361.86L1128.9,361.86z"></path><path d="M16.93,745.86L370.26,745.86L370.26,898.31L16.93,898.31z"></path><path d="M436.95,1556.9L970.9,1556.9L970.9,1831L436.95,1831z"></path><path d="M970.9,1234.31L1596.9,1234.31L1596.9,1730.9L970.9,1730.9z"></path><path d="M-403.0999999999999,1429.89L436.9499999999998,1429.89L436.9499999999998,1730.9L-403.0999999999999,1730.9z"></path><path d="M1596.9,1429.89L2436.95,1429.89L2436.95,1730.9L1596.9,1730.9z"></path><path d="M-543.7,226.44L265.71000000000004,226.44L265.71000000000004,361.86L-543.7,361.86z"></path><path d="M1456.3,226.44L2265.71,226.44L2265.71,361.86L1456.3,361.86z"></path><path d="M1198.37,1008.77L1596.91,1008.77L1596.91,1234.31L1198.37,1234.31z"></path><path d="M703.93,-169L1331.2,-169L1331.2,226.44000000000005L703.93,226.44000000000005z"></path><path d="M703.93,1831L1331.2,1831L1331.2,2226.44L703.93,2226.44z"></path><path d="M370.26,361.86L703.93,361.86L703.93,620.72L370.26,620.72z"></path><path d="M1331.2,1730.9L2000,1730.9L2000,2000L1331.2,2000z"></path><path d="M265.71,0L703.93,0L703.93,91.02L265.71,91.02z"></path><path d="M16.93,898.31L560.59,898.31L560.59,1234.31L16.93,1234.31z"></path><path d="M-193.07999999999993,745.86L16.930000000000064,745.86L16.930000000000064,1008.77L-193.07999999999993,1008.77z"></path><path d="M1806.92,745.86L2016.93,745.86L2016.93,1008.77L1806.92,1008.77z"></path><path d="M703.93,226.44L1128.91,226.44L1128.91,620.72L703.93,620.72z"></path><path d="M862.9,1068.08L1198.36,1068.08L1198.36,1234.31L862.9,1234.31z"></path></svg>