<svg width="2000" height="1800" version="1.2" xmlns="http://www.w3.org/2000/svg" viewBox="0 0 2000 1800"><style type="text/css">path {stroke-width: 1; vector-effect: non-scaling-stroke; fill:none; stroke: #000; stroke-linecap: round; stroke-linejoin: miter;}</style><path d="M1135.63,1200L1885.63,1200L1885.63,1500L1135.63,1500z"></path><path d="M254.22,900L754.22,900L754.22,1025L254.22,1025z"></path><path d="M-508.9100000000001,0L241.09000000000015,0L241.09000000000015,300L-508.9100000000001,300z"></path><path d="M1491.09,0L2241.09,0L2241.09,300L1491.09,300z"></path><path d="M-384.95000000000005,300L115.05000000000018,300L115.05000000000018,475L-384.95000000000005,475z"></path><path d="M1615.05,300L2115.05,300L2115.05,475L1615.05,475z"></path><path d="M615.05,300L1115.05,300L1115.05,475L615.05,475z"></path><path d="M241.09,0L741.09,0L741.09,175L241.09,175z"></path><path d="M95.2,1675L595.2,1675L595.2,1800L95.2,1800z"></path><path d="M370.48,600L1120.48,600L1120.48,900L370.48,900z"></path><path d="M-216.9000000000001,475L283.0999999999999,475L283.0999999999999,600L-216.9000000000001,600z"></path><path d="M1783.1,475L2283.1,475L2283.1,600L1783.1,600z"></path><path d="M-114.36999999999989,1200L385.6300000000001,1200L385.6300000000001,1375L-114.36999999999989,1375z"></path><path d="M1885.63,1200L2385.63,1200L2385.63,1375L1885.63,1375z"></path><path d="M741.09,0L1491.09,0L1491.09,300L741.09,300z"></path><path d="M-448.4000000000001,1025L51.59999999999991,1025L51.59999999999991,1200L-448.4000000000001,1200z"></path><path d="M1551.6,1025L2051.6,1025L2051.6,1200L1551.6,1200z"></path><path d="M0,1500L500,1500L500,1675L0,1675z"></path><path d="M1500,1500L2000,1500L2000,1675L1500,1675z"></path><path d="M1120.48,725L1620.48,725L1620.48,900L1120.48,900z"></path><path d="M385.63,1200L1135.63,1200L1135.63,1500L385.63,1500z"></path><path d="M1000,1500L1500,1500L1500,1675L1000,1675z"></path><path d="M1115.05,300L1615.05,300L1615.05,475L1115.05,475z"></path><path d="M1283.1,475L1783.1,475L1783.1,600L1283.1,600z"></path><path d="M500,1500L1000,1500L1000,1675L500,1675z"></path><path d="M1095.2,1675L1595.2,1675L1595.2,1800L1095.2,1800z"></path><path d="M51.6,1025L551.6,1025L551.6,1200L51.6,1200z"></path><path d="M-245.77999999999997,900L254.2199999999998,900L254.2199999999998,1025L-245.77999999999997,1025z"></path><path d="M1754.22,900L2254.22,900L2254.22,1025L1754.22,1025z"></path><path d="M1120.48,600L1620.48,600L1620.48,725L1120.48,725z"></path><path d="M783.1,475L1283.1,475L1283.1,600L783.1,600z"></path><path d="M1254.22,900L1754.22,900L1754.22,1025L1254.22,1025z"></path><path d="M1051.6,1025L1551.6,1025L1551.6,1200L1051.6,1200z"></path><path d="M595.2,1675L1095.2,1675L1095.2,1800L595.2,1800z"></path><path d="M-379.52,600L370.48,600L370.48,900L-379.52,900z"></path><path d="M1620.48,600L2370.48,600L2370.48,900L1620.48,900z"></path><path d="M-404.79999999999995,1675L95.19999999999982,1675L95.19999999999982,1800L-404.79999999999995,1800z"></path><path d="M1595.2,1675L2095.2,1675L2095.2,1800L1595.2,1800z"></path><path d="M754.22,900L1254.22,900L1254.22,1025L754.22,1025z"></path><path d="M283.1,475L783.1,475L783.1,600L283.1,600z"></path><path d="M115.05,300L615.05,300L615.05,475L115.05,475z"></path><path d="M551.6,1025L1051.6,1025L1051.6,1200L551.6,1200z"></path><path d="M241.09,175L741.09,175L741.09,300L241.09,300z"></path><path d="M-114.36999999999989,1375L385.6300000000001,1375L385.6300000000001,1500L-114.36999999999989,1500z"></path><path d="M1885.63,1375L2385.63,1375L2385.63,1500L1885.63,1500z"></path></svg>