<svg width="336" height="406" version="1.2" xmlns="http://www.w3.org/2000/svg" viewBox="0 0 336 406"><style type="text/css">path {stroke-width: 1; vector-effect: non-scaling-stroke; fill:none; stroke: #000; stroke-linecap: round; stroke-linejoin: miter;}</style><path d="M-254.01999999999998,56.03L-244.83100000000002,44.124L-234.368,33.319L-222.763,23.753L-210.161,15.544L-196.72,8.795L-182.608,3.592L-168.004,0L-153.347,3.502L-139.179,8.639L-125.68299999999999,15.345L-113.031,23.532L-101.386,33.098L-90.89699999999999,43.918L-81.696,55.853L-73.90300000000002,68.752L-71.48899999999998,73.142L-66.168,85.907L-62.204999999999984,99.157L-59.88099999999997,111.49L-59.875,111.52L-59.64499999999998,112.748L-58.51400000000001,126.532L0.02600000000001046,126.532L0.02600000000001046,203.032L-14.689000000000021,206.418L-28.920000000000016,211.466L-42.478999999999985,218.112L-55.18799999999999,226.267L-66.87900000000002,235.823L-77.399,246.656L-86.608,258.623L-94.38499999999999,271.566L-100.63,285.314L-105.25899999999999,299.687L-108.21000000000001,314.496L-109.447,329.545L-226.527,329.545L-227.764,314.496L-230.715,299.687L-235.344,285.314L-241.589,271.566L-249.36599999999999,258.623L-258.575,246.656L-269.095,235.823L-280.786,226.267L-293.494,218.112L-307.054,211.466L-321.285,206.418L-336,203.032L-336,126.532L-277.46,126.532L-276.003,111.563L-272.881,96.85L-268.134,82.579L-261.82,68.928z"></path><path d="M81.98,56.03L91.169,44.124L101.632,33.319L113.237,23.753L125.839,15.544L139.28,8.795L153.392,3.592L167.996,0L182.653,3.502L196.821,8.639L210.317,15.345L222.969,23.532L234.614,33.098L245.103,43.918L254.304,55.853L262.097,68.752L264.511,73.142L269.832,85.907L273.795,99.157L276.119,111.49L276.125,111.52L276.355,112.748L277.486,126.532L336.026,126.532L336.026,203.032L321.311,206.418L307.08,211.466L293.521,218.112L280.812,226.267L269.121,235.823L258.601,246.656L249.392,258.623L241.615,271.566L235.37,285.314L230.741,299.687L227.79,314.496L226.553,329.545L109.473,329.545L108.236,314.496L105.285,299.687L100.656,285.314L94.411,271.566L86.634,258.623L77.425,246.656L66.905,235.823L55.214,226.267L42.506,218.112L28.946,211.466L14.715,206.418L0,203.032L0,126.532L58.54,126.532L59.997,111.563L63.119,96.85L67.866,82.579L74.18,68.928z"></path><path d="M-86.02000000000001,-146.97000000000003L-76.83100000000002,-158.876L-66.368,-169.681L-54.76299999999998,-179.247L-42.161,-187.456L-28.720000000000027,-194.205L-14.608000000000004,-199.408L-0.004000000000019099,-203L14.65300000000002,-199.498L28.821000000000026,-194.361L42.31700000000001,-187.655L54.968999999999994,-179.468L66.61399999999998,-169.902L77.10300000000001,-159.082L86.30399999999997,-147.147L94.09699999999998,-134.248L96.51100000000002,-129.858L101.832,-117.09300000000002L105.79500000000002,-103.84300000000002L108.11900000000003,-91.50999999999999L108.125,-91.48000000000002L108.35500000000002,-90.25200000000001L109.48599999999999,-76.46800000000002L168.026,-76.46800000000002L168.026,0.031999999999982265L153.31099999999998,3.4180000000000064L139.07999999999998,8.466000000000008L125.52100000000002,15.112000000000023L112.81200000000001,23.266999999999996L101.12099999999998,32.82299999999998L90.601,43.656000000000006L81.392,55.62299999999999L73.61500000000001,68.56599999999997L67.37,82.31400000000002L62.740999999999985,96.68700000000001L59.79000000000002,111.49599999999998L58.553,126.54499999999996L-58.52699999999999,126.54499999999996L-59.76400000000001,111.49599999999998L-62.714999999999975,96.68700000000001L-67.344,82.31400000000002L-73.589,68.56599999999997L-81.36600000000001,55.62299999999999L-90.57499999999999,43.656000000000006L-101.095,32.82299999999998L-112.786,23.266999999999996L-125.494,15.112000000000023L-139.054,8.466000000000008L-153.285,3.4180000000000064L-168,0.031999999999982265L-168,-76.46800000000002L-109.46000000000001,-76.46800000000002L-108.00299999999999,-91.43700000000001L-104.881,-106.14999999999998L-100.13399999999999,-120.42099999999999L-93.82,-134.072z"></path><path d="M249.98,-146.97000000000003L259.169,-158.876L269.632,-169.681L281.237,-179.247L293.839,-187.456L307.28,-194.205L321.392,-199.408L335.996,-203L350.653,-199.498L364.821,-194.361L378.317,-187.655L390.969,-179.468L402.614,-169.902L413.103,-159.082L422.304,-147.147L430.097,-134.248L432.511,-129.858L437.832,-117.09300000000002L441.795,-103.84300000000002L444.119,-91.50999999999999L444.125,-91.48000000000002L444.355,-90.25200000000001L445.486,-76.46800000000002L504.026,-76.46800000000002L504.026,0.031999999999982265L489.311,3.4180000000000064L475.08,8.466000000000008L461.521,15.112000000000023L448.812,23.266999999999996L437.121,32.82299999999998L426.601,43.656000000000006L417.392,55.62299999999999L409.615,68.56599999999997L403.37,82.31400000000002L398.741,96.68700000000001L395.79,111.49599999999998L394.553,126.54499999999996L277.473,126.54499999999996L276.236,111.49599999999998L273.285,96.68700000000001L268.656,82.31400000000002L262.411,68.56599999999997L254.634,55.62299999999999L245.425,43.656000000000006L234.905,32.82299999999998L223.214,23.266999999999996L210.506,15.112000000000023L196.946,8.466000000000008L182.715,3.4180000000000064L168,0.031999999999982265L168,-76.46800000000002L226.54,-76.46800000000002L227.997,-91.43700000000001L231.119,-106.14999999999998L235.866,-120.42099999999999L242.18,-134.072z"></path><path d="M-86.02000000000001,259.03L-76.83100000000002,247.124L-66.368,236.319L-54.76299999999998,226.753L-42.161,218.544L-28.720000000000027,211.795L-14.608000000000004,206.592L-0.004000000000019099,203L14.65300000000002,206.502L28.821000000000026,211.639L42.31700000000001,218.345L54.968999999999994,226.532L66.61399999999998,236.098L77.10300000000001,246.918L86.30399999999997,258.853L94.09699999999998,271.752L96.51100000000002,276.142L101.832,288.907L105.79500000000002,302.157L108.11900000000003,314.49L108.125,314.52L108.35500000000002,315.748L109.48599999999999,329.532L168.026,329.532L168.026,406.032L153.31099999999998,409.418L139.07999999999998,414.466L125.52100000000002,421.112L112.81200000000001,429.267L101.12099999999998,438.823L90.601,449.656L81.392,461.623L73.61500000000001,474.566L67.37,488.314L62.740999999999985,502.687L59.79000000000002,517.496L58.553,532.545L-58.52699999999999,532.545L-59.76400000000001,517.496L-62.714999999999975,502.687L-67.344,488.314L-73.589,474.566L-81.36600000000001,461.623L-90.57499999999999,449.656L-101.095,438.823L-112.786,429.267L-125.494,421.112L-139.054,414.466L-153.285,409.418L-168,406.032L-168,329.532L-109.46000000000001,329.532L-108.00299999999999,314.563L-104.881,299.85L-100.13399999999999,285.579L-93.82,271.928z"></path><path d="M249.98,259.03L259.169,247.124L269.632,236.319L281.237,226.753L293.839,218.544L307.28,211.795L321.392,206.592L335.996,203L350.653,206.502L364.821,211.639L378.317,218.345L390.969,226.532L402.614,236.098L413.103,246.918L422.304,258.853L430.097,271.752L432.511,276.142L437.832,288.907L441.795,302.157L444.119,314.49L444.125,314.52L444.355,315.748L445.486,329.532L504.026,329.532L504.026,406.032L489.311,409.418L475.08,414.466L461.521,421.112L448.812,429.267L437.121,438.823L426.601,449.656L417.392,461.623L409.615,474.566L403.37,488.314L398.741,502.687L395.79,517.496L394.553,532.545L277.473,532.545L276.236,517.496L273.285,502.687L268.656,488.314L262.411,474.566L254.634,461.623L245.425,449.656L234.905,438.823L223.214,429.267L210.506,421.112L196.946,414.466L182.715,409.418L168,406.032L168,329.532L226.54,329.532L227.997,314.563L231.119,299.85L235.866,285.579L242.18,271.928z"></path></svg>