<svg width="200" height="200" version="1.2" xmlns="http://www.w3.org/2000/svg" viewBox="0 0 200 200"><style type="text/css">path {stroke-width: 1; vector-effect: non-scaling-stroke; fill:none; stroke: #000; stroke-linecap: round; stroke-linejoin: miter;}</style><path d="M55,40L100,40L145,40L159.998,54.998L159.998,99.998L159.998,144.998L145,159.995L100,159.995L55,159.995L40.002,144.998L40.002,99.998L40.002,54.998z"></path><path d="M0,-25L25.002999999999986,0.002999999999985903L0,25.007000000000005L-25.002999999999986,0.002999999999985903z"></path><path d="M200,-25L225.003,0.002999999999985903L200,25.007000000000005L174.997,0.002999999999985903z"></path><path d="M0,175L25.002999999999986,200.003L0,225.007L-25.002999999999986,200.003z"></path><path d="M200,175L225.003,200.003L200,225.007L174.997,200.003z"></path><path d="M25,0L100,0L100,40L55,40L40.002,54.998L40.002,99.998L0.002,99.998L0.002,24.998z"></path><path d="M0,100L40,100L40,145L54.998,159.998L99.998,159.998L99.998,199.998L24.998,199.998L-0.006,174.994z"></path><path d="M200,100L240,100L240,145L254.998,159.998L299.998,159.998L299.998,199.998L224.998,199.998L199.994,174.994z"></path><path d="M-100,0L-25,0L0.002999999999985903,25.003L0.002999999999985903,100.003L-39.997000000000014,100.003L-39.997000000000014,55.003L-54.994,40.006L-99.994,40.006z"></path><path d="M100,0L175,0L200.003,25.003L200.003,100.003L160.003,100.003L160.003,55.003L145.006,40.006L100.006,40.006z"></path><path d="M100,-40L145,-40L159.998,-54.99799999999999L159.998,-99.998L199.998,-99.998L199.998,-24.99799999999999L174.994,0.006000000000000227L99.994,0.006000000000000227z"></path><path d="M100,160L145,160L159.998,145.002L159.998,100.002L199.998,100.002L199.998,175.002L174.994,200.006L99.994,200.006z"></path></svg>