<svg width="244.26" height="847" version="1.2" xmlns="http://www.w3.org/2000/svg" viewBox="0 0 244.26 847"><style type="text/css">path {stroke-width: 1; vector-effect: non-scaling-stroke; fill:none; stroke: #000; stroke-linecap: round; stroke-linejoin: miter;}</style><path d="M0,-437.7L50,-437.7L50,-380.76L52.944,-365.756L61.285,-348.729L73.749,-334.442L89.486,-323.86699999999996L107.424,-317.726L122.119,-316.72400000000005L126.318,-316.418L144.842,-319.961L161.818,-328.179L176.089,-340.51L186.681,-356.114L192.874,-373.928L194.246,-392.738L194.246,-437.698L244.246,-437.698L244.246,109.30200000000002L194.246,109.30200000000002L194.246,64.34199999999998L191.302,49.337999999999965L182.961,32.311000000000035L170.497,18.024L154.76,7.448999999999955L136.822,1.3070000000000164L122.126,0.30600000000004L117.928,-0.0009999999999763531L99.403,3.5430000000000064L82.428,11.759999999999991L68.157,24.091000000000008L57.565,39.696000000000026L51.371,57.50999999999999L50,76.32000000000005L50,109.29999999999995L0,109.29999999999995z"></path><path d="M0,409.3L50,409.3L50,466.24L52.944,481.244L61.285,498.271L73.749,512.558L89.486,523.133L107.424,529.274L122.119,530.276L126.318,530.582L144.842,527.039L161.818,518.821L176.089,506.49L186.681,490.886L192.874,473.072L194.246,454.262L194.246,409.302L244.246,409.302L244.246,956.302L194.246,956.302L194.246,911.342L191.302,896.338L182.961,879.311L170.497,865.024L154.76,854.449L136.822,848.307L122.126,847.306L117.928,846.999L99.403,850.543L82.428,858.76L68.157,871.091L57.565,886.696L51.371,904.51L50,923.32L50,956.3L0,956.3z"></path><path d="M68.16,24.09L82.43,11.759L99.406,3.542L117.93,-0.002L122.129,0.304L136.825,1.306L154.763,7.447L170.5,18.022L182.964,32.31L191.305,49.336L194.249,64.34L194.249,109.3L194.249,409.3L194.249,454.26L192.877,473.07L186.684,490.885L176.091,506.489L161.821,518.82L144.845,527.037L126.321,530.581L122.122,530.275L107.426,529.273L89.489,523.132L73.751,512.557L61.288,498.269L52.946,481.243L50.003,466.239L50.003,409.299L50.003,109.299L50.003,76.319L51.374,57.508L57.567,39.694z"></path><path d="M68.16,871.09L82.43,858.759L99.406,850.542L117.93,846.998L122.129,847.304L136.825,848.306L154.763,854.447L170.5,865.022L182.964,879.31L191.305,896.336L194.249,911.34L194.249,956.3L194.249,1256.3L194.249,1301.26L192.877,1320.07L186.684,1337.885L176.091,1353.489L161.821,1365.8200000000002L144.845,1374.037L126.321,1377.5810000000001L122.122,1377.275L107.426,1376.2730000000001L89.489,1370.132L73.751,1359.557L61.288,1345.269L52.946,1328.243L50.003,1313.239L50.003,1256.299L50.003,956.299L50.003,923.319L51.374,904.508L57.567,886.694z"></path><path d="M0,109.3L50,109.3L50,409.3L0,409.3z"></path><path d="M194.26,109.3L244.26,109.3L244.26,409.3L194.26,409.3z"></path></svg>