<svg width="400" height="400" version="1.2" xmlns="http://www.w3.org/2000/svg" viewBox="0 0 400 400"><style type="text/css">path {stroke-width: 1; vector-effect: non-scaling-stroke; fill:none; stroke: #000; stroke-linecap: round; stroke-linejoin: miter;}</style><path d="M0,200L55,200L100.555,226.931L75.504,272.498L127.504,272.498L127.504,324.498L171.402,305.082L199.998,344.996L226.928,299.44L272.496,324.492L272.496,272.492L324.496,272.492L305.08,228.594L344.993,199.998L399.993,199.998L399.993,399.998L-0.007,399.998z"></path><path d="M400,200L455,200L500.555,226.931L475.504,272.498L527.504,272.498L527.504,324.498L571.402,305.082L599.998,344.996L626.928,299.44L672.496,324.492L672.496,272.492L724.496,272.492L705.0799999999999,228.594L744.9929999999999,199.998L799.9929999999999,199.998L799.9929999999999,399.998L399.993,399.998z"></path><path d="M0,0L400,0L400,200L345,200L299.445,173.069L324.496,127.502L272.496,127.502L272.496,75.502L228.598,94.918L200.002,55.004L173.072,100.56L127.504,75.508L127.504,127.508L75.504,127.508L94.92,171.406L55.007,200.002L0.007,200.002z"></path><path d="M55,200L345,200L305.087,228.596L324.503,272.494L272.503,272.494L272.503,324.494L226.935,299.443L200.004,344.998L171.408,305.085L127.51,324.501L127.51,272.501L75.51,272.501L100.562,226.933z"></path><path d="M127.5,75.5L173.068,100.551L199.998,54.996L228.595,94.909L272.492,75.493L272.492,127.493L324.492,127.493L299.441,173.061L344.996,199.992L54.996,199.992L94.91,171.395L75.493,127.498L127.493,127.498z"></path></svg>