<svg width="2131" height="2131" version="1.2" xmlns="http://www.w3.org/2000/svg" viewBox="0 0 2131 2131"><style type="text/css">path {stroke-width: 1; vector-effect: non-scaling-stroke; fill:none; stroke: #000; stroke-linecap: round; stroke-linejoin: miter;}</style><path d="M51.14,-1014.3599999999999L225.807,-963.2180000000001L409.228,-1065.476L583.894,-1014.3340000000001L532.752,-839.6669999999999L635.01,-656.2460000000001L583.868,-481.5799999999999L532.726,-306.913L634.984,-123.49199999999996L583.842,51.17500000000018L409.175,0.032000000000152795L225.754,102.29100000000017L51.088,51.14899999999989L102.23,-123.51800000000003L-0.028,-306.9390000000001L51.114,-481.606L102.256,-656.2719999999999L-0.002,-839.693z"></path><path d="M2182.14,-1014.3599999999999L2356.807,-963.2180000000001L2540.228,-1065.476L2714.8940000000002,-1014.3340000000001L2663.752,-839.6669999999999L2766.01,-656.2460000000001L2714.868,-481.5799999999999L2663.726,-306.913L2765.984,-123.49199999999996L2714.842,51.17500000000018L2540.175,0.032000000000152795L2356.754,102.29100000000017L2182.088,51.14899999999989L2233.23,-123.51800000000003L2130.972,-306.9390000000001L2182.114,-481.606L2233.256,-656.2719999999999L2130.998,-839.693z"></path><path d="M51.14,1116.64L225.807,1167.782L409.228,1065.524L583.894,1116.666L532.752,1291.333L635.01,1474.754L583.868,1649.42L532.726,1824.087L634.984,2007.508L583.842,2182.175L409.175,2131.032L225.754,2233.291L51.088,2182.149L102.23,2007.482L-0.028,1824.061L51.114,1649.394L102.256,1474.728L-0.002,1291.307z"></path><path d="M2182.14,1116.64L2356.807,1167.782L2540.228,1065.524L2714.8940000000002,1116.666L2663.752,1291.333L2766.01,1474.754L2714.868,1649.42L2663.726,1824.087L2765.984,2007.508L2714.842,2182.175L2540.175,2131.032L2356.754,2233.291L2182.088,2182.149L2233.23,2007.482L2130.972,1824.061L2182.114,1649.394L2233.256,1474.728L2130.998,1291.307z"></path><path d="M583.89,-1014.3599999999999L758.557,-963.2180000000001L941.978,-1065.476L1116.644,-1014.3340000000001L1065.502,-839.6669999999999L1167.76,-656.2460000000001L1116.618,-481.5799999999999L1065.476,-306.913L1167.734,-123.49199999999996L1116.592,51.17500000000018L941.925,0.032000000000152795L758.504,102.29100000000017L583.838,51.14899999999989L634.98,-123.51800000000003L532.722,-306.9390000000001L583.864,-481.606L635.006,-656.2719999999999L532.748,-839.693z"></path><path d="M583.89,1116.64L758.557,1167.782L941.978,1065.524L1116.644,1116.666L1065.502,1291.333L1167.76,1474.754L1116.618,1649.42L1065.476,1824.087L1167.734,2007.508L1116.592,2182.175L941.925,2131.032L758.504,2233.291L583.838,2182.149L634.98,2007.482L532.722,1824.061L583.864,1649.394L635.006,1474.728L532.748,1291.307z"></path><path d="M1116.64,51.14L1291.307,102.282L1474.728,0.024L1649.394,51.166L1598.252,225.833L1700.51,409.254L1649.368,583.92L1598.226,758.587L1700.484,942.008L1649.342,1116.675L1474.675,1065.532L1291.254,1167.791L1116.588,1116.649L1167.73,941.982L1065.472,758.561L1116.614,583.894L1167.756,409.228L1065.498,225.807z"></path><path d="M-481.6099999999999,51.14L-306.943,102.282L-123.52199999999993,0.024L51.14399999999978,51.166L0.0019999999999527063,225.833L102.26000000000022,409.254L-0.023999999999887223,758.587L102.23399999999992,942.008L51.0920000000001,1116.675L-123.57500000000005,1065.532L-306.9960000000001,1167.791L-481.66200000000003,1116.649L-430.52,941.982L-532.778,758.561L-481.63599999999997,583.894L-430.4939999999999,409.228L-532.752,225.807z"></path><path d="M1649.39,51.14L1824.057,102.282L2007.478,0.024L2182.144,51.166L2131.002,225.833L2233.26,409.254L2130.976,758.587L2233.234,942.008L2182.092,1116.675L2007.425,1065.532L1824.004,1167.791L1649.338,1116.649L1700.48,941.982L1598.222,758.561L1649.364,583.894L1700.506,409.228L1598.248,225.807z"></path><path d="M51.14,583.89L225.807,635.032L409.228,532.774L583.894,583.916L758.561,635.058L941.982,532.8L1116.649,583.942L1065.506,758.609L1167.765,942.03L1116.622,1116.697L941.956,1065.554L758.535,1167.813L583.868,1116.67L409.201,1065.528L225.781,1167.787L51.114,1116.644L102.256,941.978L-0.002,758.557z"></path><path d="M2182.14,583.89L2356.807,635.032L2540.228,532.774L2714.8940000000002,583.916L2889.561,635.058L3072.982,532.8L3247.649,583.942L3196.5060000000003,758.609L3298.7650000000003,942.03L3247.6220000000003,1116.697L3072.956,1065.554L2889.535,1167.813L2714.868,1116.67L2540.201,1065.528L2356.781,1167.787L2182.114,1116.644L2233.256,941.978L2130.998,758.557z"></path><path d="M-1014.3599999999999,-481.6099999999999L-839.693,-430.4680000000001L-656.2719999999999,-532.7260000000001L-481.606,-481.58400000000006L-306.9390000000001,-430.442L-123.51800000000003,-532.7L51.14899999999989,-481.558L0.005999999999858119,-306.8910000000001L102.26499999999987,-123.47000000000003L51.121999999999844,51.197000000000116L-123.5440000000001,0.05400000000008731L-306.9649999999999,102.3130000000001L-656.299,0.027999999999792635L-839.719,102.28699999999981L-1014.386,51.14399999999978L-963.2439999999999,-123.52199999999993L-1065.502,-306.943z"></path><path d="M1116.64,-481.6099999999999L1291.307,-430.4680000000001L1474.728,-532.7260000000001L1649.394,-481.58400000000006L1824.061,-430.442L2007.482,-532.7L2182.149,-481.558L2131.006,-306.8910000000001L2233.265,-123.47000000000003L2182.122,51.197000000000116L2007.456,0.05400000000008731L1824.035,102.3130000000001L1474.701,0.027999999999792635L1291.281,102.28699999999981L1116.614,51.14399999999978L1167.756,-123.52199999999993L1065.498,-306.943z"></path><path d="M-1014.3599999999999,1649.39L-839.693,1700.532L-656.2719999999999,1598.274L-481.606,1649.416L-306.9390000000001,1700.558L-123.51800000000003,1598.3L51.14899999999989,1649.442L0.005999999999858119,1824.109L102.26499999999987,2007.53L51.121999999999844,2182.197L-123.5440000000001,2131.054L-306.9649999999999,2233.313L-656.299,2131.028L-839.719,2233.287L-1014.386,2182.144L-963.2439999999999,2007.478L-1065.502,1824.057z"></path><path d="M1116.64,1649.39L1291.307,1700.532L1474.728,1598.274L1649.394,1649.416L1824.061,1700.558L2007.482,1598.3L2182.149,1649.442L2131.006,1824.109L2233.265,2007.53L2182.122,2182.197L2007.456,2131.054L1824.035,2233.313L1474.701,2131.028L1291.281,2233.287L1116.614,2182.144L1167.756,2007.478L1065.498,1824.057z"></path><path d="M-1014.3599999999999,1116.64L-839.693,1167.782L-656.2719999999999,1065.524L-481.606,1116.666L-306.9390000000001,1167.808L-123.51800000000003,1065.55L51.14899999999989,1116.692L0.005999999999858119,1291.359L102.26499999999987,1474.78L51.121999999999844,1649.447L-123.5440000000001,1598.304L-306.9649999999999,1700.563L-481.63200000000006,1649.42L-656.299,1598.278L-839.719,1700.537L-1014.386,1649.394L-963.2439999999999,1474.728L-1065.502,1291.307z"></path><path d="M1116.64,1116.64L1291.307,1167.782L1474.728,1065.524L1649.394,1116.666L1824.061,1167.808L2007.482,1065.55L2182.149,1116.692L2131.006,1291.359L2233.265,1474.78L2182.122,1649.447L2007.456,1598.304L1824.035,1700.563L1649.368,1649.42L1474.701,1598.278L1291.281,1700.537L1116.614,1649.394L1167.756,1474.728L1065.498,1291.307z"></path><path d="M51.14,51.14L225.807,102.282L409.228,0.024L583.894,51.166L758.561,102.308L941.982,0.05L1116.649,51.192L1065.506,225.859L1167.765,409.28L1116.622,583.947L941.956,532.804L758.535,635.063L583.868,583.92L409.201,532.778L225.781,635.037L51.114,583.894L102.256,409.228L-0.002,225.807z"></path><path d="M2182.14,51.14L2356.807,102.282L2540.228,0.024L2714.8940000000002,51.166L2889.561,102.308L3072.982,0.05L3247.649,51.192L3196.5060000000003,225.859L3298.7650000000003,409.28L3247.6220000000003,583.947L3072.956,532.804L2889.535,635.063L2714.868,583.92L2540.201,532.778L2356.781,635.037L2182.114,583.894L2233.256,409.228L2130.998,225.807z"></path></svg>