<svg width="760" height="760" version="1.2" xmlns="http://www.w3.org/2000/svg" viewBox="0 0 760 760"><style type="text/css">path {stroke-width: 1; vector-effect: non-scaling-stroke; fill:none; stroke: #000; stroke-linecap: round; stroke-linejoin: miter;}</style><path d="M380,0L570,0L568.375,24.797L563.527,49.169L555.539,72.701L544.548,94.988L530.742,115.65L514.357,134.333L495.674,150.718L475.012,164.524L452.725,175.515L429.194,183.502L404.821,188.35L380.024,189.976z"></path><path d="M380,570L404.797,571.625L429.169,576.473L452.701,584.461L474.988,595.452L495.65,609.258L514.333,625.643L530.718,644.326L544.524,664.988L555.515,687.275L563.502,710.806L568.35,735.179L569.976,759.976L379.976,759.976z"></path><path d="M568.37,404.8L569.995,380.003L571.621,404.8L576.469,429.173L584.456,452.704L595.447,474.991L609.253,495.653L625.638,514.336L644.321,530.721L664.983,544.527L687.27,555.518L710.802,563.506L735.174,568.354L759.971,569.979L735.174,571.604L710.802,576.452L687.27,584.44L664.983,595.431L644.321,609.237L625.638,625.621L609.253,644.305L595.447,664.967L584.456,687.254L576.469,710.785L571.621,735.158L569.995,759.954L568.37,735.158L563.522,710.785L555.534,687.254L544.543,664.967L530.737,644.305L514.353,625.621L495.669,609.237L475.007,595.431L452.72,584.44L429.189,576.452L404.816,571.604L380.02,569.979L404.816,568.354L429.189,563.506L452.72,555.518L475.007,544.527L495.669,530.721L514.353,514.336L530.737,495.653L544.543,474.991L555.534,452.704L563.522,429.173z"></path><path d="M625.65,245.65L644.333,229.265L664.995,215.459L687.283,204.468L710.814,196.481L735.186,191.633L759.983,190.007L759.983,380.007L569.983,380.007L571.608,355.211L576.456,330.838L584.444,307.307L595.435,285.02L609.241,264.358z"></path><path d="M190,0L380,0L380,190L355.203,188.375L330.831,183.527L307.299,175.539L285.012,164.548L264.35,150.742L245.667,134.357L229.282,115.674L215.476,95.012L204.485,72.725L196.498,49.194L191.65,24.821z"></path><path d="M380,190L404.797,191.625L429.169,196.473L452.701,204.461L474.988,215.452L495.65,229.258L514.333,245.643L530.718,264.326L544.524,284.988L555.515,307.275L563.502,330.806L568.35,355.179L569.976,379.976L379.976,379.976z"></path><path d="M0,0L190,0L188.375,24.797L183.527,49.169L175.539,72.701L164.548,94.988L150.742,115.65L134.357,134.333L115.674,150.718L95.012,164.524L72.725,175.515L49.194,183.502L24.821,188.35L0.024,189.976z"></path><path d="M568.37,24.8L569.995,0.003L571.621,24.8L576.469,49.173L584.456,72.704L595.447,94.991L609.253,115.653L625.638,134.336L644.321,150.721L664.983,164.527L687.27,175.518L710.802,183.506L735.174,188.354L759.971,189.979L735.174,191.604L710.802,196.452L687.27,204.44L664.983,215.431L644.321,229.237L625.638,245.621L609.253,264.305L595.447,284.967L584.456,307.254L576.469,330.785L571.621,355.158L569.995,379.954L568.37,355.158L563.522,330.785L555.534,307.254L544.543,284.967L530.737,264.305L514.353,245.621L495.669,229.237L475.007,215.431L452.72,204.44L429.189,196.452L404.816,191.604L380.02,189.979L404.816,188.354L429.189,183.506L452.72,175.518L475.007,164.527L495.669,150.721L514.353,134.336L530.737,115.653L544.543,94.991L555.534,72.704L563.522,49.173z"></path><path d="M245.65,245.65L264.333,229.265L284.995,215.459L307.283,204.468L330.814,196.481L355.186,191.633L379.983,190.007L379.983,380.007L189.983,380.007L191.608,355.211L196.456,330.838L204.444,307.307L215.435,285.02L229.241,264.358z"></path><path d="M190,380L380,380L380,570L355.203,568.375L330.831,563.527L307.299,555.539L285.012,544.548L264.35,530.742L245.667,514.357L229.282,495.674L215.476,475.012L204.485,452.725L196.498,429.194L191.65,404.821z"></path><path d="M0,190L24.797,191.625L49.169,196.473L72.701,204.461L94.988,215.452L115.65,229.258L134.333,245.643L150.718,264.326L164.524,284.988L175.515,307.275L183.502,330.806L188.35,355.179L189.976,379.976L-0.024,379.976z"></path><path d="M760,190L784.797,191.625L809.169,196.473L832.701,204.461L854.988,215.452L875.65,229.258L894.333,245.643L910.718,264.326L924.524,284.988L935.515,307.275L943.502,330.806L948.35,355.179L949.976,379.976L759.976,379.976z"></path><path d="M0,380L190,380L188.375,404.797L183.527,429.169L175.539,452.701L164.548,474.988L150.742,495.65L134.357,514.333L115.674,530.718L95.012,544.524L72.725,555.515L49.194,563.502L24.821,568.35L0.024,569.976z"></path><path d="M188.37,24.8L189.995,0.003L191.621,24.8L196.469,49.173L204.456,72.704L215.447,94.991L229.253,115.653L245.638,134.336L264.321,150.721L284.983,164.527L307.27,175.518L330.802,183.506L355.174,188.354L379.971,189.979L355.174,191.604L330.802,196.452L307.27,204.44L284.983,215.431L264.321,229.237L245.638,245.621L229.253,264.305L215.447,284.967L204.456,307.254L196.469,330.785L191.621,355.158L189.995,379.954L188.37,355.158L183.522,330.785L175.534,307.254L164.543,284.967L150.737,264.305L134.353,245.621L115.669,229.237L95.007,215.431L72.72,204.44L49.189,196.452L24.816,191.604L0.02,189.979L24.816,188.354L49.189,183.506L72.72,175.518L95.007,164.527L115.669,150.721L134.353,134.336L150.737,115.653L164.543,94.991L175.534,72.704L183.522,49.173z"></path><path d="M245.65,-134.35000000000002L264.333,-150.735L284.995,-164.54100000000005L307.283,-175.53200000000004L330.814,-183.519L355.186,-188.36699999999996L379.983,-189.99300000000005L379.983,0.006999999999948159L189.983,0.006999999999948159L191.608,-24.788999999999987L196.456,-49.162000000000035L204.444,-72.69299999999998L215.435,-94.98000000000002L229.241,-115.64200000000005z"></path><path d="M245.65,625.65L264.333,609.265L284.995,595.459L307.283,584.468L330.814,576.481L355.186,571.633L379.983,570.007L379.983,760.007L189.983,760.007L191.608,735.211L196.456,710.838L204.444,687.307L215.435,665.02L229.241,644.358z"></path><path d="M570,0L760,0L760,190L735.203,188.375L710.831,183.527L687.299,175.539L665.012,164.548L644.35,150.742L625.667,134.357L609.282,115.674L595.476,95.012L584.485,72.725L576.498,49.194L571.65,24.821z"></path><path d="M0,570L24.797,571.625L49.169,576.473L72.701,584.461L94.988,595.452L115.65,609.258L134.333,625.643L150.718,644.326L164.524,664.988L175.515,687.275L183.502,710.806L188.35,735.179L189.976,759.976L-0.024,759.976z"></path><path d="M760,570L784.797,571.625L809.169,576.473L832.701,584.461L854.988,595.452L875.65,609.258L894.333,625.643L910.718,644.326L924.524,664.988L935.515,687.275L943.502,710.806L948.35,735.179L949.976,759.976L759.976,759.976z"></path><path d="M188.37,404.8L189.995,380.003L191.621,404.8L196.469,429.173L204.456,452.704L215.447,474.991L229.253,495.653L245.638,514.336L264.321,530.721L284.983,544.527L307.27,555.518L330.802,563.506L355.174,568.354L379.971,569.979L355.174,571.604L330.802,576.452L307.27,584.44L284.983,595.431L264.321,609.237L245.638,625.621L229.253,644.305L215.447,664.967L204.456,687.254L196.469,710.785L191.621,735.158L189.995,759.954L188.37,735.158L183.522,710.785L175.534,687.254L164.543,664.967L150.737,644.305L134.353,625.621L115.669,609.237L95.007,595.431L72.72,584.44L49.189,576.452L24.816,571.604L0.02,569.979L24.816,568.354L49.189,563.506L72.72,555.518L95.007,544.527L115.669,530.721L134.353,514.336L150.737,495.653L164.543,474.991L175.534,452.704L183.522,429.173z"></path><path d="M570,380L760,380L760,570L735.203,568.375L710.831,563.527L687.299,555.539L665.012,544.548L644.35,530.742L625.667,514.357L609.282,495.674L595.476,475.012L584.485,452.725L576.498,429.194L571.65,404.821z"></path><path d="M380,380L570,380L568.375,404.797L563.527,429.169L555.539,452.701L544.548,474.988L530.742,495.65L514.357,514.333L495.674,530.718L475.012,544.524L452.725,555.515L429.194,563.502L404.821,568.35L380.024,569.976z"></path><path d="M625.65,-134.35000000000002L644.333,-150.735L664.995,-164.54100000000005L687.283,-175.53200000000004L710.814,-183.519L735.186,-188.36699999999996L759.983,-189.99300000000005L759.983,0.006999999999948159L569.983,0.006999999999948159L571.608,-24.788999999999987L576.456,-49.162000000000035L584.444,-72.69299999999998L595.435,-94.98000000000002L609.241,-115.64200000000005z"></path><path d="M625.65,625.65L644.333,609.265L664.995,595.459L687.283,584.468L710.814,576.481L735.186,571.633L759.983,570.007L759.983,760.007L569.983,760.007L571.608,735.211L576.456,710.838L584.444,687.307L595.435,665.02L609.241,644.358z"></path></svg>