<svg width="2000" height="2000" version="1.2" xmlns="http://www.w3.org/2000/svg" viewBox="0 0 2000 2000"><style type="text/css">path {stroke-width: 1; vector-effect: non-scaling-stroke; fill:none; stroke: #000; stroke-linecap: round; stroke-linejoin: miter;}</style><path d="M680.09,927.6L1061.51,927.6L1260.24,927.6L1260.24,1040.6L1111.86,1040.6L680.09,1040.6z"></path><path d="M-272.1500000000001,1148.6L39.84999999999991,1148.6L285.8499999999999,1148.6L285.8499999999999,1314.88L-272.145,1324.62z"></path><path d="M1727.85,1148.6L2039.85,1148.6L2285.85,1148.6L2285.85,1314.88L1727.855,1324.62z"></path><path d="M219.77,491.6L558.49,491.6L1061.51,491.6L1556.77,491.6L1556.77,685.6L1076.77,685.6L1061.51,685.6L269.51,685.6L219.77,685.6z"></path><path d="M1061.51,316.6L1254.67,316.6L1909.49,316.6L1909.49,379.96L1909.49,491.6L1556.77,491.6L1061.51,491.6z"></path><path d="M1254.67,0L1909.49,0L1909.49,187.96L1909.49,316.6L1254.67,316.6L1254.67,215.6z"></path><path d="M1061.51,685.6L1076.77,685.6L1556.77,685.6L1845.46,685.6L1845.46,832.6L1630.51,832.6L1061.51,832.6z"></path><path d="M558.49,316.6L1061.51,316.6L1061.51,491.6L558.49,491.6z"></path><path d="M-739.76,927.6L-369.49,927.6L39.8599999999999,927.6L39.8599999999999,1040.6L-272.1400000000001,1040.6L-739.76,1040.6z"></path><path d="M1260.24,927.6L1630.51,927.6L2039.86,927.6L2039.86,1040.6L1727.86,1040.6L1260.24,1040.6z"></path><path d="M558.49,215.6L1254.67,215.6L1254.67,316.6L1061.51,316.6L558.49,316.6z"></path><path d="M-369.49,832.6L-154.53999999999996,832.6L269.5100000000002,832.6L269.5100000000002,927.6L39.8599999999999,927.6L-369.49,927.6z"></path><path d="M1630.51,832.6L1845.46,832.6L2269.51,832.6L2269.51,927.6L2039.86,927.6L1630.51,927.6z"></path><path d="M285.8499999999999,1148.6L680.0799999999999,1148.6L1111.85,1148.6L1111.85,1324.6L318.116,1314.348L285.8409999999999,1314.911z"></path><path d="M-532.1199999999999,1324.6L-272.1400000000001,1324.6L285.855,1314.86L318.1300000000001,1314.297L200.96099999999979,1605.617L-154.9290000000001,1605.617L-621.039,1605.617L-574.9449999999999,1459.956z"></path><path d="M1467.88,1324.6L1727.86,1324.6L2285.855,1314.86L2318.13,1314.297L2200.961,1605.617L1845.071,1605.617L1378.961,1605.617L1425.055,1459.956z"></path><path d="M0,1792.98L154.95,1792.98L875.95,1792.98L1147,1792.98L1147,1896.49L0,1896.49z"></path><path d="M875.95,1459.98L1425.04,1459.98L1378.946,1605.641L875.946,1605.641z"></path><path d="M318.13,1314.33L1111.864,1324.582L1467.884,1324.582L1425.042,1459.965L875.952,1459.965L259.542,1459.965z"></path><path d="M680.09,1040.6L1111.86,1040.6L1111.86,1148.6L680.09,1148.6z"></path><path d="M1061.51,832.6L1630.51,832.6L1630.51,927.6L1260.24,927.6L1061.51,927.6z"></path><path d="M-154.53999999999996,685.6L219.76999999999998,685.6L269.5100000000002,685.6L269.5100000000002,832.6L-154.53999999999996,832.6z"></path><path d="M1845.46,685.6L2219.77,685.6L2269.51,685.6L2269.51,832.6L1845.46,832.6z"></path><path d="M1111.85,1040.6L1260.23,1040.6L1727.85,1040.6L1727.85,1148.6L1727.85,1324.6L1467.87,1324.6L1111.85,1324.6L1111.85,1148.6z"></path><path d="M-443.23,491.6L-90.50999999999999,491.6L219.76999999999998,491.6L219.76999999999998,685.6L-154.53999999999996,685.6L-443.23,685.6z"></path><path d="M1556.77,491.6L1909.49,491.6L2219.77,491.6L2219.77,685.6L1845.46,685.6L1556.77,685.6z"></path><path d="M-154.95000000000005,1605.64L200.94000000000005,1605.64L154.92500000000018,1792.982L-0.02500000000009095,1792.982L-154.9749999999999,1792.982z"></path><path d="M1845.05,1605.64L2200.94,1605.64L2154.925,1792.982L1999.975,1792.982L1845.025,1792.982z"></path><path d="M-90.50999999999999,379.96L558.4899999999998,379.96L558.4899999999998,491.6L219.76999999999998,491.6L-90.50999999999999,491.6z"></path><path d="M1909.49,379.96L2558.49,379.96L2558.49,491.6L2219.77,491.6L1909.49,491.6z"></path><path d="M39.84999999999991,927.6L269.5,927.6L680.0799999999999,927.6L680.0799999999999,1148.6L285.8499999999999,1148.6L39.84999999999991,1148.6L39.84999999999991,1040.6z"></path><path d="M558.49,0L1254.67,0L1254.67,215.6L558.49,215.6z"></path><path d="M-90.50999999999999,187.96L558.4899999999998,187.96L558.4899999999998,379.96L-90.50999999999999,379.96L-90.50999999999999,316.6z"></path><path d="M1909.49,187.96L2558.49,187.96L2558.49,379.96L1909.49,379.96L1909.49,316.6z"></path><path d="M875.95,1605.64L1378.95,1605.64L1845.06,1605.64L1845.06,1792.98L1147.01,1792.98L875.96,1792.98z"></path><path d="M-272.1500000000001,1040.6L39.84999999999991,1040.6L39.84999999999991,1148.6L-272.1500000000001,1148.6z"></path><path d="M1727.85,1040.6L2039.85,1040.6L2039.85,1148.6L1727.85,1148.6z"></path><path d="M259.54,1459.98L875.95,1459.98L875.95,1605.64L875.95,1792.98L154.95,1792.98L200.965,1605.638z"></path><path d="M1147,1792.98L1845.05,1792.98L2000,1792.98L2000,2000L1147,2000L1147,1896.49z"></path><path d="M0,1896.49L1147,1896.49L1147,2000L0,2000z"></path><path d="M269.51,685.6L1061.51,685.6L1061.51,832.6L1061.51,927.6L680.09,927.6L269.51,927.6z"></path><path d="M-90.50999999999999,0L558.4899999999998,0L558.4899999999998,187.96L-90.50999999999999,187.96z"></path><path d="M1909.49,0L2558.49,0L2558.49,187.96L1909.49,187.96z"></path></svg>