<svg width="374" height="374" version="1.2" xmlns="http://www.w3.org/2000/svg" viewBox="0 0 374 374"><style type="text/css">path {stroke-width: 1; vector-effect: non-scaling-stroke; fill:none; stroke: #000; stroke-linecap: round; stroke-linejoin: miter;}</style><path d="M186.92,186.92L278.844,278.844L186.92,370.768L94.996,278.844z"></path><path d="M0,-95.14999999999998L5,-95.14999999999998L95,-95.14999999999998L186.924,-3.225999999999999L186.924,86.774L186.924,91.774L91.924,91.774L0,-0.14999999999997726z"></path><path d="M0,278.85L5,278.85L95,278.85L186.924,370.774L186.924,460.774L186.924,465.774L91.924,465.774L0,373.85z"></path><path d="M91.92,91.92L186.92,91.92L186.92,186.92L94.996,278.844L4.996,278.844L-0.004,278.844L-0.004,183.844z"></path><path d="M465.92,91.92L560.92,91.92L560.92,186.92L468.996,278.844L378.996,278.844L373.996,278.844L373.996,183.844z"></path><path d="M186.92,-3.230000000000018L278.844,-95.154L368.844,-95.154L373.844,-95.154L373.844,-0.15399999999999636L281.92,91.76999999999998L186.92,91.76999999999998L186.92,86.76999999999998z"></path><path d="M186.92,370.77L278.844,278.846L368.844,278.846L373.844,278.846L373.844,373.846L281.92,465.77L186.92,465.77L186.92,460.77z"></path><path d="M-0.14999999999997726,0L91.774,91.924L-0.14999999999997726,183.848L-92.07400000000001,91.924z"></path><path d="M373.85,0L465.774,91.924L373.85,183.848L281.926,91.924z"></path><path d="M186.92,91.92L281.92,91.92L373.844,183.844L373.844,278.844L368.844,278.844L278.844,278.844L186.92,186.92z"></path></svg>