<svg width="520" height="520" version="1.2" xmlns="http://www.w3.org/2000/svg" viewBox="0 0 520 520"><style type="text/css">path {stroke-width: 1; vector-effect: non-scaling-stroke; fill:none; stroke: #000; stroke-linecap: round; stroke-linejoin: miter;}</style><path d="M-130,390L-37.80000000000001,390L0.0019999999999527063,352.198L0.0019999999999527063,519.998z"></path><path d="M390,390L482.2,390L520.002,352.198L520.002,519.998z"></path><path d="M-130,-130L0.0019999999999527063,0.0019999999999527063L-169.998,0.0019999999999527063L-167.80599999999998,-2.1900000000000546L-130.00400000000002,-39.99200000000002z"></path><path d="M390,-130L520.002,0.0019999999999527063L350.002,0.0019999999999527063L352.194,-2.1900000000000546L389.996,-39.99200000000002z"></path><path d="M-130,390L0.0019999999999527063,520.002L-169.998,520.002L-167.80599999999998,517.81L-130.00400000000002,480.008z"></path><path d="M390,390L520.002,520.002L350.002,520.002L352.194,517.81L389.996,480.008z"></path><path d="M260,260L427.8,260L389.998,297.802L389.998,390.002z"></path><path d="M427.8,260L520,260L520,352.2L482.198,390.002L389.998,390.002L389.998,297.802z"></path><path d="M297.8,390L390,390L390,480L352.198,517.802L350.006,519.994L260.006,519.994L260.006,427.794z"></path><path d="M260,260L390.002,390.002L297.802,390.002L260,427.804z"></path><path d="M260,260L260,427.8L222.198,389.998L129.998,389.998z"></path><path d="M0,520L130.002,389.998L130.002,482.198L167.804,520z"></path><path d="M0,350L2.192,352.192L39.994,389.994L129.994,389.994L-0.008,519.996z"></path><path d="M520,350L522.192,352.192L559.994,389.994L649.994,389.994L519.992,519.996z"></path><path d="M92.2,260L260,260L129.998,390.002L129.998,297.802z"></path><path d="M130,-130L222.2,-130L260.002,-92.19799999999998L260.002,0.0019999999999527063L167.802,0.0019999999999527063L130,-37.80000000000001z"></path><path d="M130,390L222.2,390L260.002,427.802L260.002,520.002L167.802,520.002L130,482.2z"></path><path d="M0,260L92.2,260L130.002,297.802L130.002,390.002L40.002,390.002L2.2,352.2L0.008,350.008z"></path><path d="M130,130L260.002,260.002L92.202,260.002L130.004,222.2z"></path><path d="M0,0L130.002,130.002L37.802,130.002L0,167.804z"></path><path d="M0,0L170,0L167.808,2.192L130.006,39.994L130.006,129.994z"></path><path d="M260,92.2L297.802,130.002L390.002,130.002L260,260.004z"></path><path d="M390,130L390,222.2L427.802,260.002L260.002,260.002z"></path><path d="M260,0L352.2,0L390.002,37.802L390.002,130.002L297.802,130.002L260,92.2z"></path><path d="M390,130L480,130L517.802,167.802L519.994,169.994L519.994,259.994L427.794,259.994L389.992,222.192z"></path><path d="M352.2,0L520,0L389.998,130.002L389.998,37.802z"></path><path d="M-130,130L0.0019999999999527063,-0.002L0.0019999999999527063,169.998L-2.1900000000000546,167.806L-39.99200000000002,130.004z"></path><path d="M390,130L520.002,-0.002L520.002,169.998L517.81,167.806L480.008,130.004z"></path><path d="M-130,650L0.0019999999999527063,519.998L0.0019999999999527063,689.998L-2.1900000000000546,687.806L-39.99200000000002,650.004z"></path><path d="M390,650L520.002,519.998L520.002,689.998L517.81,687.806L480.008,650.004z"></path><path d="M130,130L222.2,130L260.002,92.198L260.002,259.998z"></path><path d="M37.8,130L130,130L130,222.2L92.198,260.002L-0.002,260.002L-0.002,167.802z"></path><path d="M557.8,130L650,130L650,222.2L612.198,260.002L519.998,260.002L519.998,167.802z"></path><path d="M167.8,2.2L169.992,0.008L259.992,0.008L259.992,92.208L222.19,130.01L129.99,130.01L129.99,40.01z"></path></svg>