<svg width="195" height="195" version="1.2" xmlns="http://www.w3.org/2000/svg" viewBox="0 0 195 195"><style type="text/css">path {stroke-width: 1; vector-effect: non-scaling-stroke; fill:none; stroke: #000; stroke-linecap: round; stroke-linejoin: miter;}</style><path d="M25.28,32.8L156.63,32.8L156.031,35.709L156.178,38.195L156.261,39.612L157.497,43.333L157.673,43.6L30.463,43.6L26.733,43.6L24.433,43.6L25.217,42.035L26.007,38.196L25.777,34.283z"></path><path d="M-20.659999999999997,10.04L-18.90299999999999,6.536L-16.299000000000007,3.606L-13.025000000000006,1.45L-9.305000000000007,0.214L-5.391999999999996,-0.016L-1.5519999999999925,0.774L1.9519999999999982,2.531L4.882000000000005,5.135L7.038000000000011,8.409L8.274000000000001,12.129L8.50399999999999,16.042L7.713999999999999,19.882L6.096000000000004,23.109L8.241000000000014,22.397L12.153999999999996,22.166L15.992999999999995,22.957L19.497000000000014,24.714L22.426999999999992,27.318L24.584000000000003,30.591L25.320999999999998,32.812L25.816000000000003,34.302L26.045999999999992,38.215L25.256,42.055L24.47200000000001,43.619L23.50399999999999,45.55L20.899,48.48L17.626000000000005,50.636L13.905000000000001,51.872L9.99199999999999,52.102L6.329000000000008,51.348L7.044000000000011,52.434L8.278999999999996,56.154L8.509999999999991,60.067L7.719999999999999,63.907L5.962999999999994,67.411L3.358000000000004,70.341L0.08500000000000796,72.497L0.027999999999991587,72.516L-3.6260000000000048,73.73L-7.538999999999987,73.96L-10.781000000000006,73.293L-11.37899999999999,73.17L-14.88300000000001,71.413L-17.812999999999988,68.809L-19.968999999999994,65.535L-21.205000000000013,61.815L-21.435000000000002,57.901L-20.64500000000001,54.062L-19.026999999999987,50.835L-21.170999999999992,51.547L-25.085000000000008,51.777L-28.924000000000007,50.987L-32.428,49.23L-35.358000000000004,46.626L-37.339,43.62L-37.514999999999986,43.352L-38.75,39.632L-38.833,38.214L-38.97999999999999,35.729L-38.381,32.82L-38.19200000000001,31.899L-36.434,28.395L-33.83000000000001,25.465L-30.556999999999988,23.309L-26.836000000000013,22.073L-22.923000000000002,21.843L-19.25999999999999,22.597L-19.974999999999994,21.511L-21.210000000000008,17.791L-21.441000000000003,13.878z"></path><path d="M174.34,10.04L176.097,6.536L178.701,3.606L181.975,1.45L185.695,0.214L189.608,-0.016L193.448,0.774L196.952,2.531L199.882,5.135L202.038,8.409L203.274,12.129L203.504,16.042L202.714,19.882L201.096,23.109L203.241,22.397L207.154,22.166L210.993,22.957L214.497,24.714L217.427,27.318L219.584,30.591L220.321,32.812L220.816,34.302L221.046,38.215L220.256,42.055L219.472,43.619L218.504,45.55L215.899,48.48L212.626,50.636L208.905,51.872L204.992,52.102L201.329,51.348L202.044,52.434L203.279,56.154L203.51,60.067L202.72,63.907L200.963,67.411L198.358,70.341L195.085,72.497L195.028,72.516L191.374,73.73L187.461,73.96L184.219,73.293L183.621,73.17L180.117,71.413L177.187,68.809L175.031,65.535L173.795,61.815L173.565,57.901L174.355,54.062L175.973,50.835L173.829,51.547L169.915,51.777L166.076,50.987L162.572,49.23L159.642,46.626L157.661,43.62L157.485,43.352L156.25,39.632L156.167,38.214L156.02,35.729L156.619,32.82L156.808,31.899L158.566,28.395L161.17,25.465L164.443,23.309L168.164,22.073L172.077,21.843L175.74,22.597L175.025,21.511L173.79,17.791L173.559,13.878z"></path><path d="M-20.659999999999997,205.04L-18.90299999999999,201.536L-16.299000000000007,198.606L-13.025000000000006,196.45L-9.305000000000007,195.214L-5.391999999999996,194.984L-1.5519999999999925,195.774L1.9519999999999982,197.531L4.882000000000005,200.135L7.038000000000011,203.409L8.274000000000001,207.129L8.50399999999999,211.042L7.713999999999999,214.882L6.096000000000004,218.109L8.241000000000014,217.397L12.153999999999996,217.166L15.992999999999995,217.957L19.497000000000014,219.714L22.426999999999992,222.318L24.584000000000003,225.591L25.320999999999998,227.812L25.816000000000003,229.302L26.045999999999992,233.215L25.256,237.055L24.47200000000001,238.619L23.50399999999999,240.55L20.899,243.48L17.626000000000005,245.636L13.905000000000001,246.872L9.99199999999999,247.102L6.329000000000008,246.348L7.044000000000011,247.434L8.278999999999996,251.154L8.509999999999991,255.067L7.719999999999999,258.907L5.962999999999994,262.411L3.358000000000004,265.341L0.08500000000000796,267.497L0.027999999999991587,267.516L-3.6260000000000048,268.73L-7.538999999999987,268.96L-10.781000000000006,268.293L-11.37899999999999,268.17L-14.88300000000001,266.413L-17.812999999999988,263.80899999999997L-19.968999999999994,260.53499999999997L-21.205000000000013,256.815L-21.435000000000002,252.901L-20.64500000000001,249.062L-19.026999999999987,245.835L-21.170999999999992,246.547L-25.085000000000008,246.777L-28.924000000000007,245.987L-32.428,244.23L-35.358000000000004,241.626L-37.339,238.62L-37.514999999999986,238.352L-38.75,234.632L-38.833,233.214L-38.97999999999999,230.72899999999998L-38.381,227.82L-38.19200000000001,226.899L-36.434,223.395L-33.83000000000001,220.465L-30.556999999999988,218.309L-26.836000000000013,217.073L-22.923000000000002,216.843L-19.25999999999999,217.597L-19.974999999999994,216.511L-21.210000000000008,212.791L-21.441000000000003,208.878z"></path><path d="M174.34,205.04L176.097,201.536L178.701,198.606L181.975,196.45L185.695,195.214L189.608,194.984L193.448,195.774L196.952,197.531L199.882,200.135L202.038,203.409L203.274,207.129L203.504,211.042L202.714,214.882L201.096,218.109L203.241,217.397L207.154,217.166L210.993,217.957L214.497,219.714L217.427,222.318L219.584,225.591L220.321,227.812L220.816,229.302L221.046,233.215L220.256,237.055L219.472,238.619L218.504,240.55L215.899,243.48L212.626,245.636L208.905,246.872L204.992,247.102L201.329,246.348L202.044,247.434L203.279,251.154L203.51,255.067L202.72,258.907L200.963,262.411L198.358,265.341L195.085,267.497L195.028,267.516L191.374,268.73L187.461,268.96L184.219,268.293L183.621,268.17L180.117,266.413L177.187,263.80899999999997L175.031,260.53499999999997L173.795,256.815L173.565,252.901L174.355,249.062L175.973,245.835L173.829,246.547L169.915,246.777L166.076,245.987L162.572,244.23L159.642,241.626L157.661,238.62L157.485,238.352L156.25,234.632L156.167,233.214L156.02,230.72899999999998L156.619,227.82L156.808,226.899L158.566,223.395L161.17,220.465L164.443,218.309L168.164,217.073L172.077,216.843L175.74,217.597L175.025,216.511L173.79,212.791L173.559,208.878z"></path><path d="M6.3,-143.67000000000002L9.963,-142.916L13.876,-143.14600000000002L17.597,-144.382L20.87,-146.538L23.475,-149.46800000000002L24.443,-151.399L26.743,-151.399L30.473,-151.399L157.683,-151.399L159.663,-148.392L162.593,-145.788L166.097,-144.031L169.937,-143.24099999999999L173.85,-143.471L175.995,-144.184L174.377,-140.957L173.586,-137.117L173.817,-133.204L175.052,-129.48399999999998L177.208,-126.21L180.138,-123.606L183.642,-121.849L184.24,-121.726L184.24,0.7439999999999998L182.019,1.4819999999999993L178.745,3.6380000000000052L176.141,6.568000000000012L174.384,10.072000000000003L173.594,13.912000000000006L173.824,17.82499999999999L175.06,21.544999999999987L175.775,22.631L172.112,21.87700000000001L168.198,22.107L164.478,23.34299999999999L161.204,25.498999999999995L158.6,28.429000000000002L156.843,31.932999999999993L156.654,32.85400000000001L25.304,32.85400000000001L24.566,30.63300000000001L22.41,27.35900000000001L19.48,24.754999999999995L15.976,22.99799999999999L12.136,22.208L8.223,22.437999999999988L6.078,23.150000000000006L7.697,19.923000000000002L8.487,16.084000000000003L8.256,12.170999999999992L7.021,8.449999999999989L4.865,5.1769999999999925L1.935,2.5720000000000027L0.004,1.6040000000000134L0.004,-122.496L0.061,-122.515L3.335,-124.671L5.939,-127.601L7.696,-131.105L8.486,-134.94400000000002L8.256,-138.858L7.02,-142.578z"></path><path d="M6.3,51.33L9.963,52.084L13.876,51.854L17.597,50.618L20.87,48.462L23.475,45.532L24.443,43.601L26.743,43.601L30.473,43.601L157.683,43.601L159.663,46.608L162.593,49.212L166.097,50.969L169.937,51.759L173.85,51.529L175.995,50.816L174.377,54.043L173.586,57.883L173.817,61.796L175.052,65.516L177.208,68.79L180.138,71.394L183.642,73.151L184.24,73.274L184.24,195.744L182.019,196.482L178.745,198.638L176.141,201.568L174.384,205.072L173.594,208.912L173.824,212.825L175.06,216.545L175.775,217.631L172.112,216.877L168.198,217.107L164.478,218.343L161.204,220.499L158.6,223.429L156.843,226.933L156.654,227.854L25.304,227.854L24.566,225.633L22.41,222.359L19.48,219.755L15.976,217.998L12.136,217.208L8.223,217.438L6.078,218.15L7.697,214.923L8.487,211.084L8.256,207.171L7.021,203.45L4.865,200.177L1.935,197.572L0.004,196.604L0.004,72.504L0.061,72.485L3.335,70.329L5.939,67.399L7.696,63.895L8.486,60.056L8.256,56.142L7.02,52.422z"></path><path d="M184.19,-121.75L187.432,-121.083L191.345,-121.313L194.999,-122.527L194.999,1.5730000000000075L193.435,0.7889999999999873L189.595,-0.0010000000000047748L185.682,0.22900000000001342L184.192,0.7239999999999895z"></path><path d="M184.19,73.25L187.432,73.917L191.345,73.687L194.999,72.473L194.999,196.573L193.435,195.789L189.595,194.999L185.682,195.229L184.192,195.724z"></path></svg>