<svg width="300" height="300" version="1.2" xmlns="http://www.w3.org/2000/svg" viewBox="0 0 300 300"><style type="text/css">path {stroke-width: 1; vector-effect: non-scaling-stroke; fill:none; stroke: #000; stroke-linecap: round; stroke-linejoin: miter;}</style><path d="M100,187.5L200,187.5L200,225L100,225z"></path><path d="M0,0L100,0L100,37.5L100,75L100,112.5L100,150L100,187.5L100,225L100,262.5L100,300L0,300z"></path><path d="M200,0L300,0L300,300L200,300L200,262.5L200,225L200,187.5L200,150L200,112.5L200,75L200,37.5z"></path><path d="M100,75L200,75L200,112.5L100,112.5z"></path><path d="M100,0L200,0L200,37.5L100,37.5z"></path><path d="M100,37.5L200,37.5L200,75L100,75z"></path><path d="M100,225L200,225L200,262.5L100,262.5z"></path><path d="M100,150L200,150L200,187.5L100,187.5z"></path><path d="M100,112.5L200,112.5L200,150L100,150z"></path><path d="M100,262.5L200,262.5L200,300L100,300z"></path></svg>