<svg width="606.8" height="606.8" version="1.2" xmlns="http://www.w3.org/2000/svg" viewBox="0 0 606.8 606.8"><style type="text/css">path {stroke-width: 1; vector-effect: non-scaling-stroke; fill:none; stroke: #000; stroke-linecap: round; stroke-linejoin: miter;}</style><path d="M0,0L303.4,0L303.4,151.7z"></path><path d="M0,0L303.386,151.726L303.386,303.426L-0.014,303.426z"></path><path d="M606.8,0L910.1859999999999,151.726L910.1859999999999,303.426L606.786,303.426z"></path><path d="M303.4,0L455.1,0L303.374,303.386z"></path><path d="M455.1,0L606.8,0L606.8,303.4L303.4,303.4z"></path><path d="M303.4,303.4L606.8,303.4L606.8,455.1z"></path><path d="M303.4,-303.4L606.786,-151.67399999999998L606.786,0.026000000000067303L303.386,0.026000000000067303z"></path><path d="M303.4,303.4L606.786,455.126L606.786,606.826L303.386,606.826z"></path><path d="M303.4,303.4L303.4,606.8L151.7,606.8z"></path><path d="M0,303.4L303.4,303.4L151.674,606.786L-0.026,606.786z"></path><path d="M606.8,303.4L910.1999999999999,303.4L758.4739999999999,606.786L606.774,606.786z"></path></svg>