<svg width="488.51" height="848" version="1.2" xmlns="http://www.w3.org/2000/svg" viewBox="0 0 488.51 848"><style type="text/css">path {stroke-width: 1; vector-effect: non-scaling-stroke; fill:none; stroke: #000; stroke-linecap: round; stroke-linejoin: miter;}</style><path d="M0,0L50,0L50,56.94L52.944,71.944L61.285,88.971L73.749,103.258L89.486,113.833L107.424,119.974L122.119,120.976L126.318,121.282L144.842,117.739L161.818,109.521L176.089,97.19L186.681,81.586L192.874,63.772L194.246,44.962L194.246,0.002L244.246,0.002L244.246,547.002L194.246,547.002L194.246,502.042L191.302,487.038L182.961,470.011L170.497,455.724L154.76,445.149L136.822,439.007L122.126,438.006L117.928,437.699L99.403,441.243L82.428,449.46L68.157,461.791L57.565,477.396L51.371,495.21L50,514.02L50,547L0,547z"></path><path d="M68.16,-386.21L82.43,-398.541L99.406,-406.758L117.93,-410.302L122.129,-409.996L136.825,-408.994L154.763,-402.853L170.5,-392.278L182.964,-377.99L191.305,-360.964L194.249,-345.96L194.249,-301L194.249,-1L194.249,43.960000000000036L192.877,62.76999999999998L186.684,80.58500000000004L176.091,96.18899999999996L161.821,108.51999999999998L144.845,116.73699999999997L126.321,120.28099999999995L122.122,119.97500000000002L107.426,118.97299999999996L89.489,112.832L73.751,102.25699999999995L61.288,87.96900000000005L52.946,70.94299999999998L50.003,55.938999999999965L50.003,-1.0009999999999764L50.003,-301.001L50.003,-333.981L51.374,-352.792L57.567,-370.606z"></path><path d="M68.16,461.79L82.43,449.459L99.406,441.242L117.93,437.698L122.129,438.004L136.825,439.006L154.763,445.147L170.5,455.722L182.964,470.01L191.305,487.036L194.249,502.04L194.249,547L194.249,847L194.249,891.96L192.877,910.77L186.684,928.585L176.091,944.189L161.821,956.52L144.845,964.737L126.321,968.281L122.122,967.975L107.426,966.973L89.489,960.832L73.751,950.257L61.288,935.969L52.946,918.943L50.003,903.939L50.003,846.999L50.003,546.999L50.003,514.019L51.374,495.208L57.567,477.394z"></path><path d="M0,547L50,547L50,847L0,847z"></path><path d="M194.26,547L244.26,547L244.26,847L194.26,847z"></path><path d="M312.41,38.29L326.68,25.959L343.656,17.742L362.18,14.198L366.379,14.504L381.075,15.506L399.013,21.647L414.75,32.222L427.214,46.51L435.555,63.536L438.499,78.54L438.499,123.5L438.499,423.5L438.499,468.46L437.127,487.27L430.934,505.085L420.341,520.689L406.071,533.02L389.095,541.237L370.571,544.781L366.372,544.475L351.676,543.473L333.739,537.332L318.001,526.757L305.538,512.469L297.196,495.443L294.253,480.439L294.253,423.499L294.253,123.499L294.253,90.519L295.624,71.708L301.817,53.894z"></path><path d="M244.26,123.5L294.26,123.5L294.26,423.5L244.26,423.5z"></path><path d="M438.51,123.5L488.51,123.5L488.51,423.5L438.51,423.5z"></path><path d="M244.26,-424.5L294.26,-424.5L294.26,-367.56L297.204,-352.556L305.545,-335.529L318.009,-321.24199999999996L333.746,-310.66700000000003L351.684,-304.52599999999995L366.379,-303.524L370.578,-303.21799999999996L389.102,-306.76099999999997L406.078,-314.97900000000004L420.349,-327.30999999999995L430.941,-342.914L437.134,-360.728L438.506,-379.538L438.506,-424.498L488.506,-424.498L488.506,122.50199999999995L438.506,122.50199999999995L438.506,77.54200000000003L435.562,62.53800000000001L427.221,45.51099999999997L414.757,31.224000000000046L399.02,20.649L381.082,14.506999999999948L366.386,13.505999999999972L362.188,13.198999999999955L343.663,16.743000000000052L326.688,24.960000000000036L312.417,37.291000000000054L301.825,52.89599999999996L295.631,70.71000000000004L294.26,89.51999999999998L294.26,122.5L244.26,122.5z"></path><path d="M244.26,423.5L294.26,423.5L294.26,480.44L297.204,495.444L305.545,512.471L318.009,526.758L333.746,537.333L351.684,543.474L366.379,544.476L370.578,544.782L389.102,541.239L406.078,533.021L420.349,520.69L430.941,505.086L437.134,487.272L438.506,468.462L438.506,423.502L488.506,423.502L488.506,970.502L438.506,970.502L438.506,925.542L435.562,910.538L427.221,893.511L414.757,879.224L399.02,868.649L381.082,862.507L366.386,861.506L362.188,861.199L343.663,864.743L326.688,872.96L312.417,885.291L301.825,900.896L295.631,918.71L294.26,937.52L294.26,970.5L244.26,970.5z"></path></svg>