<svg width="630" height="840" version="1.2" xmlns="http://www.w3.org/2000/svg" viewBox="0 0 630 840"><style type="text/css">path {stroke-width: 1; vector-effect: non-scaling-stroke; fill:none; stroke: #000; stroke-linecap: round; stroke-linejoin: miter;}</style><path d="M150,570L210,570L210,630L150,630z"></path><path d="M0,420L150,420L210,420L210,480L210,570L150,570L150,630L0,630z"></path><path d="M0,630L150,630L150,690L210,690L210,840L0,840z"></path><path d="M150,630L210,630L210,690L150,690z"></path><path d="M210,630L420,630L420,780L360,780L360,840L210,840L210,690z"></path><path d="M360,780L420,780L420,840L360,840z"></path><path d="M210,420L270,420L270,480L210,480z"></path><path d="M210,480L270,480L270,420L360,420L420,420L420,570L420,630L210,630L210,570z"></path><path d="M420,630L630,630L630,690L630,840L480,840L480,780L420,780z"></path><path d="M420,780L480,780L480,840L420,840z"></path><path d="M420,420L480,420L570,420L570,480L630,480L630,630L420,630L420,570z"></path><path d="M570,420L630,420L630,480L570,480z"></path><path d="M420,210L630,210L630,270L630,420L570,420L480,420L480,360L420,360z"></path><path d="M420,360L480,360L480,420L420,420z"></path><path d="M360,360L420,360L420,420L360,420z"></path><path d="M210,210L360,210L420,210L420,360L360,360L360,420L270,420L210,420L210,360L210,270z"></path><path d="M150,360L210,360L210,420L150,420z"></path><path d="M0,210L210,210L210,270L210,360L150,360L150,420L0,420z"></path><path d="M0,0L150,0L150,60L210,60L210,210L0,210z"></path><path d="M150,0L210,0L210,60L150,60z"></path><path d="M360,150L420,150L420,210L360,210z"></path><path d="M210,0L420,0L420,60L420,150L360,150L360,210L210,210L210,60z"></path><path d="M480,0L570,0L630,0L630,150L630,210L420,210L420,150L420,60L480,60z"></path><path d="M420,0L480,0L480,60L420,60z"></path></svg>