<svg width="432" height="460" version="1.2" xmlns="http://www.w3.org/2000/svg" viewBox="0 0 432 460"><style type="text/css">path {stroke-width: 1; vector-effect: non-scaling-stroke; fill:none; stroke: #000; stroke-linecap: round; stroke-linejoin: miter;}</style><path d="M231,28.72L238.234,25.724L245.997,24.702L401.997,24.702L409.76,23.68L416.994,20.683L423.206,15.917L427.973,9.705L430.969,2.471L431.991,0.004L431.991,5.484L431.991,224.484L430.969,232.247L427.972,239.481L423.206,245.693L416.994,250.459L409.76,253.456L401.997,254.478L245.997,254.478L238.234,255.5L231,258.496L224.788,263.263L220.021,269.475L216.001,273.697L216.001,235.257L216.001,229.777L216.001,224.477L216.001,54.697L217.023,46.934L220.019,39.7L224.786,33.488z"></path><path d="M231,-201.5L238.234,-204.496L245.997,-205.518L401.997,-205.518L409.76,-206.54L416.994,-209.537L423.206,-214.303L427.973,-220.515L430.969,-227.749L431.991,-230.216L431.991,-224.736L431.991,-5.73599999999999L430.969,2.026999999999987L427.972,9.261000000000024L423.206,15.473000000000013L416.994,20.238999999999976L409.76,23.23599999999999L401.997,24.25799999999998L245.997,24.25799999999998L238.234,25.279999999999973L231,28.27600000000001L224.788,33.043000000000006L220.021,39.254999999999995L216.001,43.476999999999975L216.001,-5.742999999999995L216.001,-175.52300000000002L217.023,-183.286L220.019,-190.51999999999998L224.786,-196.73200000000003z"></path><path d="M231,258.5L238.234,255.504L245.997,254.482L401.997,254.482L409.76,253.46L416.994,250.463L423.206,245.697L427.973,239.485L430.969,232.251L431.991,229.784L431.991,235.264L431.991,454.264L430.969,462.027L427.972,469.261L423.206,475.473L416.994,480.239L409.76,483.236L401.997,484.258L245.997,484.258L238.234,485.28L231,488.276L224.788,493.043L220.021,499.255L216.001,503.477L216.001,454.257L216.001,284.477L217.023,276.714L220.019,269.48L224.786,263.268z"></path><path d="M15,28.72L22.234,25.724L29.997,24.702L185.997,24.702L193.76,23.68L200.994,20.683L207.206,15.917L211.973,9.705L214.969,2.471L215.991,0.004L215.991,5.484L215.991,54.704L215.991,224.484L214.969,232.247L211.972,239.481L207.206,245.693L200.994,250.459L193.76,253.456L185.997,254.478L29.997,254.478L22.234,255.5L15,258.496L8.788,263.263L4.021,269.475L0.001,273.697L0.001,54.697L1.023,46.934L4.019,39.7L8.786,33.488z"></path><path d="M15,-201.5L22.234,-204.496L29.997,-205.518L185.997,-205.518L193.76,-206.54L200.994,-209.537L207.206,-214.303L211.973,-220.515L214.969,-227.749L215.991,-230.216L215.991,-224.736L215.991,-186.296L215.991,-175.51600000000002L215.991,-5.73599999999999L214.969,2.026999999999987L211.972,9.261000000000024L207.206,15.473000000000013L200.994,20.238999999999976L193.76,23.23599999999999L185.997,24.25799999999998L29.997,24.25799999999998L22.234,25.279999999999973L15,28.27600000000001L8.788,33.043000000000006L4.021,39.254999999999995L0.001,43.476999999999975L0.001,-175.52300000000002L1.023,-183.286L4.019,-190.51999999999998L8.786,-196.73200000000003z"></path><path d="M15,258.5L22.234,255.504L29.997,254.482L185.997,254.482L193.76,253.46L200.994,250.463L207.206,245.697L211.973,239.485L214.969,232.251L215.991,229.784L215.991,235.264L215.991,273.704L215.991,284.484L215.991,454.264L214.969,462.027L211.972,469.261L207.206,475.473L200.994,480.239L193.76,483.236L185.997,484.258L29.997,484.258L22.234,485.28L15,488.276L8.788,493.043L4.021,499.255L0.001,503.477L0.001,284.477L1.023,276.714L4.019,269.48L8.786,263.268z"></path></svg>