<svg width="267" height="267" version="1.2" xmlns="http://www.w3.org/2000/svg" viewBox="0 0 267 267"><style type="text/css">path {stroke-width: 1; vector-effect: non-scaling-stroke; fill:none; stroke: #000; stroke-linecap: round; stroke-linejoin: miter;}</style><path d="M-93.35,-174.54000000000002L-40.889999999999986,-174.54000000000002L-40.889999999999986,-227L0.29599999999999227,-266.996L41.48200000000003,-227L41.48200000000003,-174.54000000000002L93.94200000000001,-174.54000000000002L133.937,-133.354L93.94200000000001,-92.168L41.48200000000003,-92.168L41.48200000000003,-39.708L0.29599999999999227,0.2869999999999777L-40.889999999999986,-39.708L-40.889999999999986,-92.168L-93.35,-92.168L-133.346,-133.354z"></path><path d="M173.65,-174.54000000000002L226.11,-174.54000000000002L226.11,-227L267.296,-266.996L308.482,-227L308.482,-174.54000000000002L360.942,-174.54000000000002L400.937,-133.354L360.942,-92.168L308.482,-92.168L308.482,-39.708L267.296,0.2869999999999777L226.11,-39.708L226.11,-92.168L173.65,-92.168L133.654,-133.354z"></path><path d="M-93.35,92.46L-40.889999999999986,92.46L-40.889999999999986,40L0.29599999999999227,0.004L41.48200000000003,40L41.48200000000003,92.46L93.94200000000001,92.46L133.937,133.646L93.94200000000001,174.832L41.48200000000003,174.832L41.48200000000003,227.292L0.29599999999999227,267.287L-40.889999999999986,227.292L-40.889999999999986,174.832L-93.35,174.832L-133.346,133.646z"></path><path d="M173.65,92.46L226.11,92.46L226.11,40L267.296,0.004L308.482,40L308.482,92.46L360.942,92.46L400.937,133.646L360.942,174.832L308.482,174.832L308.482,227.292L267.296,267.287L226.11,227.292L226.11,174.832L173.65,174.832L133.654,133.646z"></path><path d="M-225.81,-92.16L-173.35,-92.16L-133.354,-133.346L-93.35900000000001,-92.16L-40.899,-92.16L-40.899,-39.69999999999999L0.2869999999999777,0.29599999999999227L-40.899,40.291L-40.899,92.75099999999998L-93.35900000000001,92.75099999999998L-133.354,133.937L-173.35,92.75099999999998L-225.81,92.75099999999998L-225.81,40.291L-266.996,0.29599999999999227L-225.81,-39.69999999999999z"></path><path d="M41.19,-92.16L93.65,-92.16L133.646,-133.346L173.641,-92.16L226.101,-92.16L226.101,-39.69999999999999L267.287,0.29599999999999227L226.101,40.291L226.101,92.75099999999998L173.641,92.75099999999998L133.646,133.937L93.65,92.75099999999998L41.19,92.75099999999998L41.19,40.291L0.004,0.29599999999999227L41.19,-39.69999999999999z"></path><path d="M-225.81,174.84L-173.35,174.84L-133.354,133.654L-93.35900000000001,174.84L-40.899,174.84L-40.899,227.3L0.2869999999999777,267.296L-40.899,307.291L-40.899,359.751L-93.35900000000001,359.751L-133.354,400.937L-173.35,359.751L-225.81,359.751L-225.81,307.291L-266.996,267.296L-225.81,227.3z"></path><path d="M41.19,174.84L93.65,174.84L133.646,133.654L173.641,174.84L226.101,174.84L226.101,227.3L267.287,267.296L226.101,307.291L226.101,359.751L173.641,359.751L133.646,400.937L93.65,359.751L41.19,359.751L41.19,307.291L0.004,267.296L41.19,227.3z"></path></svg>