<svg width="260" height="260" version="1.2" xmlns="http://www.w3.org/2000/svg" viewBox="0 0 260 260"><style type="text/css">path {stroke-width: 1; vector-effect: non-scaling-stroke; fill:none; stroke: #000; stroke-linecap: round; stroke-linejoin: miter;}</style><path d="M65,-98L130.001,-129.998L195.002,-98L195.002,-65L162.002,-65L130.003,0.0009999999999763531L98.005,-65L65.005,-65z"></path><path d="M65,162L130.001,130.002L195.002,162L195.002,195L162.002,195L130.003,260.001L98.005,195L65.005,195z"></path><path d="M0,0L65.001,-31.99799999999999L65.001,-64.99799999999999L98.001,-64.99799999999999L129.999,0.0020000000000095497L98.001,65.00299999999999L65.001,65.00299999999999L65.001,32.002999999999986z"></path><path d="M0,260L65.001,228.002L65.001,195.002L98.001,195.002L129.999,260.002L98.001,325.003L65.001,325.003L65.001,292.003z"></path><path d="M-98,-65L-65,-65L-65,-32L0.0009999999999763531,-0.0020000000000095497L-65,31.997000000000014L-65,64.99700000000001L-98,64.99700000000001L-129.998,-0.004000000000019099z"></path><path d="M162,-65L195,-65L195,-32L260.001,-0.0020000000000095497L195,31.997000000000014L195,64.99700000000001L162,64.99700000000001L130.002,-0.004000000000019099z"></path><path d="M-98,195L-65,195L-65,228L0.0009999999999763531,259.998L-65,291.997L-65,324.997L-98,324.997L-129.998,259.996z"></path><path d="M162,195L195,195L195,228L260.001,259.998L195,291.997L195,324.997L162,324.997L130.002,259.996z"></path><path d="M65,65L98,65L129.998,-0.0009999999999763531L161.997,65L194.997,65L194.997,98L129.996,129.998L64.995,98z"></path><path d="M65,325L98,325L129.998,259.999L161.997,325L194.997,325L194.997,358L129.996,389.998L64.995,358z"></path><path d="M-65,32L0.0009999999999763531,0.002L65.00200000000001,32L65.00200000000001,65L32.00200000000001,65L0.002999999999985903,130.001L-31.995000000000005,65L-64.995,65z"></path><path d="M195,32L260.001,0.002L325.002,32L325.002,65L292.002,65L260.003,130.001L228.005,65L195.005,65z"></path><path d="M130,130L195.001,98.002L195.001,65.002L228.001,65.002L259.999,130.002L228.001,195.003L195.001,195.003L195.001,162.003z"></path><path d="M32,65L65,65L65,98L130.00099999999998,129.998L65,161.997L65,194.997L32,194.997L0.0020000000000095497,129.996z"></path><path d="M-65,195L-32,195L-0.0020000000000095497,129.999L31.997000000000014,195L64.99700000000001,195L64.99700000000001,228L-0.004000000000019099,259.998L-65.005,228z"></path><path d="M195,195L228,195L259.998,129.999L291.997,195L324.997,195L324.997,228L259.996,259.998L194.995,228z"></path></svg>