<svg width="339.43" height="627" version="1.2" xmlns="http://www.w3.org/2000/svg" viewBox="0 0 339.43 627"><style type="text/css">path {stroke-width: 1; vector-effect: non-scaling-stroke; fill:none; stroke: #000; stroke-linecap: round; stroke-linejoin: miter;}</style><path d="M339.43,442.06L339.43,476.93L339.43,514L339.43,627L334.57,627L254.57,627L254.57,531.5L259.507,531.86L281.302,527.691L301.275,518.022L318.065,503.514L330.528,485.155L337.814,464.195z"></path><path d="M169.71,313.5L173.76,313.5L254.57,313.5L334.57,313.5L339.43,313.5L339.43,442.06L337.816,464.191L330.53,485.151L318.067,503.51L301.277,518.018L281.304,527.687L259.509,531.856L254.572,531.496L237.282,530.317L216.175,523.091L197.657,510.648L182.991,493.836L173.176,473.801L169.713,456.147L169.713,444.707L169.713,427.427z"></path><path d="M0,0L4.86,0L84.86,0L84.86,95.5L79.923,95.14L58.128,99.309L38.155,108.978L21.365,123.486L8.902,141.845L1.616,162.805L0.002,184.936L0.002,150.066L0.002,112.996z"></path><path d="M84.86,0L165.67,0L169.72,0L169.72,113.93L169.72,131.21L169.72,142.65L169.72,170.84L166.257,153.187L156.441,133.152L141.775,116.34L123.258,103.896L102.151,96.67L84.861,95.491z"></path><path d="M21.36,123.49L38.15,108.982L58.123,99.314L79.918,95.144L84.855,95.504L102.145,96.683L123.252,103.909L141.769,116.353L156.435,133.165L166.251,153.2L169.714,170.853L169.714,182.293L169.714,199.573L169.714,313.503L165.664,313.503L84.854,313.503L4.854,313.503L-0.006,313.503L-0.006,184.943L1.608,162.812L8.894,141.852z"></path><path d="M360.79,123.49L377.58,108.982L397.553,99.314L419.348,95.144L424.285,95.504L441.575,96.683L462.682,103.909L481.199,116.353L495.865,133.165L505.68100000000004,153.2L509.144,170.853L509.144,182.293L509.144,199.573L509.144,313.503L505.094,313.503L424.284,313.503L344.284,313.503L339.42400000000004,313.503L339.42400000000004,184.943L341.038,162.812L348.324,141.852z"></path><path d="M169.71,456.15L173.173,473.803L182.989,493.838L197.655,510.65L216.172,523.094L237.279,530.32L254.569,531.499L254.569,626.999L173.759,626.999L169.709,626.999L169.709,513.069L169.709,495.789L169.709,484.349z"></path><path d="M84.86,313.5L165.67,313.5L169.72,313.5L169.72,427.43L169.72,444.71L169.72,456.15L169.72,484.34L166.257,466.687L156.441,446.652L141.775,429.84L123.258,417.396L102.151,410.17L84.861,408.991z"></path><path d="M0,313.5L4.86,313.5L84.86,313.5L84.86,409L79.923,408.64L58.128,412.809L38.155,422.478L21.365,436.986L8.902,455.345L1.616,476.305L0.002,498.436L0.002,463.566L0.002,426.496z"></path><path d="M21.36,-190.01L38.15,-204.51799999999997L58.123,-214.18599999999998L79.918,-218.356L84.855,-217.99599999999998L102.145,-216.817L123.252,-209.591L141.769,-197.147L156.435,-180.33499999999998L166.251,-160.3L169.714,-142.647L169.714,-131.207L169.714,-113.92700000000002L169.714,0.0030000000000427463L165.664,0.0030000000000427463L84.854,0.0030000000000427463L-0.006,0.0030000000000427463L-0.006,-128.55700000000002L1.608,-150.688L8.894,-171.64800000000002z"></path><path d="M360.79,-190.01L377.58,-204.51799999999997L397.553,-214.18599999999998L419.348,-218.356L424.285,-217.99599999999998L441.575,-216.817L462.682,-209.591L481.199,-197.147L495.865,-180.33499999999998L505.68100000000004,-160.3L509.144,-142.647L509.144,-131.207L509.144,-113.92700000000002L509.144,0.0030000000000427463L505.094,0.0030000000000427463L424.284,0.0030000000000427463L339.42400000000004,0.0030000000000427463L339.42400000000004,-128.55700000000002L341.038,-150.688L348.324,-171.64800000000002z"></path><path d="M21.36,436.99L38.15,422.482L58.123,412.814L79.918,408.644L84.855,409.004L102.145,410.183L123.252,417.409L141.769,429.853L156.435,446.665L166.251,466.7L169.714,484.353L169.714,495.793L169.714,513.073L169.714,627.003L165.664,627.003L84.854,627.003L-0.006,627.003L-0.006,498.443L1.608,476.312L8.894,455.352z"></path><path d="M360.79,436.99L377.58,422.482L397.553,412.814L419.348,408.644L424.285,409.004L441.575,410.183L462.682,417.409L481.199,429.853L495.865,446.665L505.68100000000004,466.7L509.144,484.353L509.144,495.793L509.144,513.073L509.144,627.003L505.094,627.003L424.284,627.003L339.42400000000004,627.003L339.42400000000004,498.443L341.038,476.312L348.324,455.352z"></path><path d="M169.71,142.65L173.173,160.303L182.989,180.338L197.655,197.15L216.172,209.594L237.279,216.82L254.569,217.999L254.569,313.499L173.759,313.499L169.709,313.499L169.709,199.569L169.709,182.289L169.709,170.849z"></path><path d="M169.71,0L173.76,0L254.57,0L339.43,0L339.43,128.56L337.816,150.691L330.53,171.651L318.067,190.01L301.277,204.518L281.304,214.187L259.509,218.356L254.572,217.996L237.282,216.817L216.175,209.591L197.657,197.148L182.991,180.336L173.176,160.301L169.713,142.647L169.713,131.207L169.713,113.927z"></path><path d="M339.43,128.56L339.43,163.43L339.43,200.5L339.43,313.5L334.57,313.5L254.57,313.5L254.57,218L259.507,218.36L281.302,214.191L301.275,204.522L318.065,190.014L330.528,171.655L337.814,150.695z"></path></svg>