<svg width="600" height="400" version="1.2" xmlns="http://www.w3.org/2000/svg" viewBox="0 0 600 400"><style type="text/css">path {stroke-width: 1; vector-effect: non-scaling-stroke; fill:none; stroke: #000; stroke-linecap: round; stroke-linejoin: miter;}</style><path d="M0,0L177.07,0L180.064,0.196L183.006,0.781L185.847,1.746L188.537,3.073L191.032,4.739L193.287,6.717L195.265,8.973L196.932,11.467L198.259,14.158L199.223,16.999L199.808,19.941L200.005,22.935L200.005,177.075L200.005,200.005L177.075,200.005L22.935,200.005L19.941,199.808L16.999,199.223L14.158,198.259L11.467,196.932L8.973,195.265L6.717,193.287L4.739,191.032L3.073,188.537L1.746,185.847L0.781,183.006L0.196,180.064L0,177.07z"></path><path d="M200,0L400,0L400,22.93L400,177.07L400,200L377.07,200L222.93,200L219.936,199.804L216.994,199.219L214.153,198.254L211.463,196.927L208.968,195.261L206.713,193.283L204.735,191.027L203.068,188.533L201.741,185.842L200.777,183.001L200.192,180.059L199.995,177.065L199.995,22.925z"></path><path d="M-193.27999999999997,6.72L-191.024,4.742L-188.52999999999997,3.075L-185.839,1.748L-182.99900000000002,0.784L-180.05599999999998,0.199L-177.063,0.003L-22.923000000000002,0.003L-19.928999999999974,0.199L-16.986999999999966,0.784L-14.145999999999958,1.748L-11.455000000000041,3.075L-8.961000000000013,4.742L-6.705000000000041,6.72L-4.726999999999975,8.976L-3.0610000000000355,11.47L-1.7340000000000373,14.161L-0.7699999999999818,17.001L-0.18399999999996908,19.944L0.011999999999943611,22.937L0.011999999999943611,200.007L-177.058,200.007L-180.05200000000002,199.811L-182.99400000000003,199.226L-185.83499999999998,198.261L-188.52499999999998,196.935L-191.01999999999998,195.268L-193.27499999999998,193.29L-195.253,191.034L-196.92000000000002,188.54L-198.247,185.849L-199.211,183.009L-199.79700000000003,180.066L-199.993,177.073L-199.993,22.933L-199.79700000000003,19.939L-199.211,16.997L-198.247,14.156L-196.92000000000002,11.465L-195.253,8.971z"></path><path d="M406.72,6.72L408.976,4.742L411.47,3.075L414.161,1.748L417.001,0.784L419.944,0.199L422.937,0.003L577.077,0.003L580.071,0.199L583.013,0.784L585.854,1.748L588.545,3.075L591.039,4.742L593.295,6.72L595.273,8.976L596.939,11.47L598.266,14.161L599.23,17.001L599.816,19.944L600.012,22.937L600.012,200.007L422.942,200.007L419.948,199.811L417.006,199.226L414.165,198.261L411.475,196.935L408.98,195.268L406.725,193.29L404.747,191.034L403.08,188.54L401.753,185.849L400.789,183.009L400.203,180.066L400.007,177.073L400.007,22.933L400.203,19.939L400.789,16.997L401.753,14.156L403.08,11.465L404.747,8.971z"></path><path d="M200,-200L222.93,-200L377.07,-200L380.064,-199.804L383.006,-199.219L385.847,-198.254L388.537,-196.927L391.032,-195.261L393.287,-193.283L395.265,-191.027L396.932,-188.533L398.259,-185.842L399.223,-183.001L399.808,-180.059L400.005,-177.065L400.005,-22.92500000000001L400.005,0.0049999999999954525L222.935,0.0049999999999954525L219.941,-0.19200000000000728L216.999,-0.7769999999999868L214.158,-1.7409999999999854L211.467,-3.0679999999999836L208.973,-4.735000000000014L206.717,-6.713000000000022L204.739,-8.968000000000018L203.073,-11.463000000000022L201.746,-14.15300000000002L200.781,-16.994000000000028L200.196,-19.93599999999998L200,-22.930000000000007L200,-177.07z"></path><path d="M200,200L222.93,200L377.07,200L380.064,200.196L383.006,200.781L385.847,201.746L388.537,203.073L391.032,204.739L393.287,206.717L395.265,208.973L396.932,211.467L398.259,214.158L399.223,216.999L399.808,219.941L400.005,222.935L400.005,377.075L400.005,400.005L222.935,400.005L219.941,399.808L216.999,399.223L214.158,398.259L211.467,396.932L208.973,395.265L206.717,393.287L204.739,391.032L203.073,388.537L201.746,385.847L200.781,383.006L200.196,380.064L200,377.07L200,222.93z"></path><path d="M400,200L422.93,200L600,200L600,400L422.93,400L419.936,399.804L416.994,399.219L414.153,398.254L411.463,396.927L408.968,395.261L406.713,393.283L404.735,391.027L403.068,388.533L401.741,385.842L400.777,383.001L400.192,380.059L399.995,377.065L399.995,222.925z"></path><path d="M6.72,-193.28L8.976,-195.258L11.47,-196.925L14.161,-198.252L17.001,-199.216L19.944,-199.801L22.937,-199.997L177.077,-199.997L180.071,-199.801L183.013,-199.216L185.854,-198.252L188.545,-196.925L191.039,-195.258L193.295,-193.28L195.273,-191.024L196.939,-188.53L198.266,-185.839L199.23,-182.999L199.816,-180.056L200.012,-177.063L200.012,-22.923000000000002L200.012,0.007000000000005002L22.942,0.007000000000005002L19.948,-0.18900000000002137L17.006,-0.7740000000000009L14.165,-1.738999999999976L11.475,-3.0649999999999977L8.98,-4.732000000000028L6.725,-6.7099999999999795L4.747,-8.966000000000008L3.08,-11.45999999999998L1.753,-14.15100000000001L0.789,-16.990999999999985L0.203,-19.934000000000026L0.007,-22.92700000000002L0.007,-177.067L0.203,-180.061L0.789,-183.003L1.753,-185.844L3.08,-188.535L4.747,-191.029z"></path><path d="M6.72,206.72L8.976,204.742L11.47,203.075L14.161,201.748L17.001,200.784L19.944,200.199L22.937,200.003L177.077,200.003L180.071,200.199L183.013,200.784L185.854,201.748L188.545,203.075L191.039,204.742L193.295,206.72L195.273,208.976L196.939,211.47L198.266,214.161L199.23,217.001L199.816,219.944L200.012,222.937L200.012,377.077L200.012,400.007L22.942,400.007L19.948,399.811L17.006,399.226L14.165,398.261L11.475,396.935L8.98,395.268L6.725,393.29L4.747,391.034L3.08,388.54L1.753,385.849L0.789,383.009L0.203,380.066L0.007,377.073L0.007,222.933L0.203,219.939L0.789,216.997L1.753,214.156L3.08,211.465L4.747,208.971z"></path></svg>