<svg width="50" height="429" version="1.2" xmlns="http://www.w3.org/2000/svg" viewBox="0 0 50 429"><style type="text/css">path {stroke-width: 1; vector-effect: non-scaling-stroke; fill:none; stroke: #000; stroke-linecap: round; stroke-linejoin: miter;}</style><path d="M-16.28,5.84L-11.387,2.652L-7.747,1.338L-5.893999999999998,0.669L-0.09300000000000352,-0.005L5.707999999999998,0.669L11.201,2.652L16.093999999999994,5.84L20.126999999999995,10.064L23.086,15.099L24.813000000000002,20.677L24.813000000000002,193.917L23.086,199.496L20.126999999999995,204.531L16.093999999999994,208.755L11.201,211.943L7.561,213.257L5.707999999999998,213.926L-0.09300000000000352,214.599L-5.893999999999998,213.926L-11.387,211.943L-16.28,208.755L-20.313,204.531L-23.272,199.496L-24.999,193.917L-24.999,20.677L-23.272,15.099L-20.313,10.064z"></path><path d="M33.72,5.84L38.613,2.652L42.253,1.338L44.106,0.669L49.907,-0.005L55.708,0.669L61.201,2.652L66.094,5.84L70.127,10.064L73.086,15.099L74.813,20.677L74.813,193.917L73.086,199.496L70.127,204.531L66.094,208.755L61.201,211.943L57.561,213.257L55.708,213.926L49.907,214.599L44.106,213.926L38.613,211.943L33.72,208.755L29.687,204.531L26.728,199.496L25.001,193.917L25.001,20.677L26.728,15.099L29.687,10.064z"></path><path d="M-16.28,434.84L-11.387,431.652L-7.747,430.338L-5.893999999999998,429.669L-0.09300000000000352,428.995L5.707999999999998,429.669L11.201,431.652L16.093999999999994,434.84L20.126999999999995,439.064L23.086,444.099L24.813000000000002,449.677L24.813000000000002,622.917L23.086,628.496L20.126999999999995,633.531L16.093999999999994,637.755L11.201,640.943L7.561,642.2570000000001L5.707999999999998,642.9259999999999L-0.09300000000000352,643.5989999999999L-5.893999999999998,642.9259999999999L-11.387,640.943L-16.28,637.755L-20.313,633.531L-23.272,628.496L-24.999,622.917L-24.999,449.677L-23.272,444.099L-20.313,439.064z"></path><path d="M33.72,434.84L38.613,431.652L42.253,430.338L44.106,429.669L49.907,428.995L55.708,429.669L61.201,431.652L66.094,434.84L70.127,439.064L73.086,444.099L74.813,449.677L74.813,622.917L73.086,628.496L70.127,633.531L66.094,637.755L61.201,640.943L57.561,642.2570000000001L55.708,642.9259999999999L49.907,643.5989999999999L44.106,642.9259999999999L38.613,640.943L33.72,637.755L29.687,633.531L26.728,628.496L25.001,622.917L25.001,449.677L26.728,444.099L29.687,439.064z"></path><path d="M8.72,-208.56L13.613,-211.748L17.253,-213.062L19.106,-213.731L24.907,-214.405L30.708,-213.731L36.201,-211.748L41.094,-208.56L45.127,-204.336L48.086,-199.301L49.813,-193.723L49.813,-20.483000000000004L48.086,-14.903999999999996L45.127,-9.869000000000028L41.094,-5.644999999999982L36.201,-2.4569999999999936L32.561,-1.1429999999999723L30.708,-0.47399999999998954L24.907,0.19900000000001228L19.106,-0.47399999999998954L13.613,-2.4569999999999936L8.72,-5.644999999999982L4.687,-9.869000000000028L1.728,-14.903999999999996L0.001,-20.483000000000004L0.001,-193.723L1.728,-199.301L4.687,-204.336z"></path><path d="M8.72,220.44L13.613,217.252L17.253,215.938L19.106,215.269L24.907,214.595L30.708,215.269L36.201,217.252L41.094,220.44L45.127,224.664L48.086,229.699L49.813,235.277L49.813,408.517L48.086,414.096L45.127,419.131L41.094,423.355L36.201,426.543L32.561,427.857L30.708,428.526L24.907,429.199L19.106,428.526L13.613,426.543L8.72,423.355L4.687,419.131L1.728,414.096L0.001,408.517L0.001,235.277L1.728,229.699L4.687,224.664z"></path></svg>