<svg width="800" height="600" version="1.2" xmlns="http://www.w3.org/2000/svg" viewBox="0 0 800 600"><style type="text/css">path {stroke-width: 1; vector-effect: non-scaling-stroke; fill:none; stroke: #000; stroke-linecap: round; stroke-linejoin: miter;}</style><path d="M200,200L400,200L400,400L200,400z"></path><path d="M200,400L400,400L400,600L200,600z"></path><path d="M400,200L450,200L450,400L400,400z"></path><path d="M500,200L550,200L550,400L500,400z"></path><path d="M450,200L500,200L500,400L450,400z"></path><path d="M550,200L600,200L600,400L550,400z"></path><path d="M200,100L400,100L400,150L200,150z"></path><path d="M200,150L400,150L400,200L200,200z"></path><path d="M200,0L400,0L400,50L200,50z"></path><path d="M200,50L400,50L400,100L200,100z"></path><path d="M400,0L600,0L600,50L400,50z"></path><path d="M500,400L550,400L550,600L500,600z"></path><path d="M550,400L600,400L600,600L550,600z"></path><path d="M400,400L450,400L450,600L400,600z"></path><path d="M450,400L500,400L500,600L450,600z"></path><path d="M400,150L600,150L600,200L550,200L500,200L450,200L400,200z"></path><path d="M400,100L600,100L600,150L400,150z"></path><path d="M400,50L600,50L600,100L400,100z"></path><path d="M0,0L200,0L200,50L200,100L200,150L200,200L150,200L100,200L50,200L0,200z"></path><path d="M100,200L150,200L150,400L100,400z"></path><path d="M150,200L200,200L200,400L150,400z"></path><path d="M0,400L50,400L50,600L0,600z"></path><path d="M150,400L200,400L200,600L150,600z"></path><path d="M100,400L150,400L150,600L100,600z"></path><path d="M0,200L50,200L50,400L0,400z"></path><path d="M50,400L100,400L100,600L50,600z"></path><path d="M50,200L100,200L100,400L50,400z"></path><path d="M600,200L800,200L800,400L600,400z"></path><path d="M600,0L800,0L800,200L600,200L600,150L600,100L600,50z"></path><path d="M600,400L800,400L800,600L600,600z"></path></svg>