<svg width="100" height="700" version="1.2" xmlns="http://www.w3.org/2000/svg" viewBox="0 0 100 700"><style type="text/css">path {stroke-width: 1; vector-effect: non-scaling-stroke; fill:none; stroke: #000; stroke-linecap: round; stroke-linejoin: miter;}</style><path d="M14.64,-335.36L24.993,-343.304L37.05,-348.298L49.988,-350.002L62.927,-348.298L74.983,-343.304L85.336,-335.36L93.281,-325.007L98.275,-312.95L99.978,-300.012L99.978,-0.011999999999943611L87.04,1.6920000000000073L74.983,6.6860000000000355L64.63,14.629999999999995L56.686,24.982999999999947L51.692,37.039999999999964L49.988,49.97799999999995L48.285,37.039999999999964L43.291,24.982999999999947L35.347,14.629999999999995L24.993,6.6860000000000355L12.937,1.6920000000000073L-0.002,-0.011999999999943611L-0.002,-300.012L1.702,-312.95L6.696,-325.007z"></path><path d="M114.64,-335.36L124.993,-343.304L137.05,-348.298L149.988,-350.002L162.927,-348.298L174.983,-343.304L185.336,-335.36L193.281,-325.007L198.275,-312.95L199.978,-300.012L199.978,-0.011999999999943611L187.04000000000002,1.6920000000000073L174.983,6.6860000000000355L164.63,14.629999999999995L156.686,24.982999999999947L151.692,37.039999999999964L149.988,49.97799999999995L148.285,37.039999999999964L143.291,24.982999999999947L135.347,14.629999999999995L124.993,6.6860000000000355L112.937,1.6920000000000073L99.998,-0.011999999999943611L99.998,-300.012L101.702,-312.95L106.696,-325.007z"></path><path d="M14.64,364.64L24.993,356.696L37.05,351.702L49.988,349.998L62.927,351.702L74.983,356.696L85.336,364.64L93.281,374.993L98.275,387.05L99.978,399.988L99.978,699.988L87.04,701.692L74.983,706.686L64.63,714.63L56.686,724.983L51.692,737.04L49.988,749.978L48.285,737.04L43.291,724.983L35.347,714.63L24.993,706.686L12.937,701.692L-0.002,699.988L-0.002,399.988L1.702,387.05L6.696,374.993z"></path><path d="M114.64,364.64L124.993,356.696L137.05,351.702L149.988,349.998L162.927,351.702L174.983,356.696L185.336,364.64L193.281,374.993L198.275,387.05L199.978,399.988L199.978,699.988L187.04000000000002,701.692L174.983,706.686L164.63,714.63L156.686,724.983L151.692,737.04L149.988,749.978L148.285,737.04L143.291,724.983L135.347,714.63L124.993,706.686L112.937,701.692L99.998,699.988L99.998,399.988L101.702,387.05L106.696,374.993z"></path><path d="M-35.36,14.64L-25.007000000000005,6.696L-12.950000000000003,1.702L-0.012000000000000455,-0.002L12.927000000000007,1.702L24.983000000000004,6.696L35.33600000000001,14.64L43.281000000000006,24.993L48.275000000000006,37.05L49.97800000000001,49.988L49.97800000000001,349.988L37.03999999999999,351.692L24.983000000000004,356.686L14.629999999999995,364.63L6.686000000000007,374.983L1.691999999999993,387.04L-0.012000000000000455,399.978L-1.7150000000000034,387.04L-6.709000000000003,374.983L-14.653000000000006,364.63L-25.007000000000005,356.686L-37.063,351.692L-50.002,349.988L-50.002,49.988L-48.298,37.05L-43.304,24.993z"></path><path d="M64.64,14.64L74.993,6.696L87.05,1.702L99.988,-0.002L112.927,1.702L124.983,6.696L135.336,14.64L143.281,24.993L148.275,37.05L149.978,49.988L149.978,349.988L137.04,351.692L124.983,356.686L114.63,364.63L106.686,374.983L101.692,387.04L99.988,399.978L98.285,387.04L93.291,374.983L85.347,364.63L74.993,356.686L62.937,351.692L49.998,349.988L49.998,49.988L51.702,37.05L56.696,24.993z"></path><path d="M-35.36,714.64L-25.007000000000005,706.696L-12.950000000000003,701.702L-0.012000000000000455,699.998L12.927000000000007,701.702L24.983000000000004,706.696L35.33600000000001,714.64L43.281000000000006,724.993L48.275000000000006,737.05L49.97800000000001,749.988L49.97800000000001,1049.988L37.03999999999999,1051.692L24.983000000000004,1056.686L14.629999999999995,1064.63L6.686000000000007,1074.983L1.691999999999993,1087.04L-0.012000000000000455,1099.978L-1.7150000000000034,1087.04L-6.709000000000003,1074.983L-14.653000000000006,1064.63L-25.007000000000005,1056.686L-37.063,1051.692L-50.002,1049.988L-50.002,749.988L-48.298,737.05L-43.304,724.993z"></path><path d="M64.64,714.64L74.993,706.696L87.05,701.702L99.988,699.998L112.927,701.702L124.983,706.696L135.336,714.64L143.281,724.993L148.275,737.05L149.978,749.988L149.978,1049.988L137.04,1051.692L124.983,1056.686L114.63,1064.63L106.686,1074.983L101.692,1087.04L99.988,1099.978L98.285,1087.04L93.291,1074.983L85.347,1064.63L74.993,1056.686L62.937,1051.692L49.998,1049.988L49.998,749.988L51.702,737.05L56.696,724.993z"></path></svg>