<svg width="750" height="1082" version="1.2" xmlns="http://www.w3.org/2000/svg" viewBox="0 0 750 1082"><style type="text/css">path {stroke-width: 1; vector-effect: non-scaling-stroke; fill:none; stroke: #000; stroke-linecap: round; stroke-linejoin: miter;}</style><path d="M10.72,12.72L14.321,9.562L18.304,6.901L22.6,4.782L27.136,3.242L31.834,2.308L36.614,1.995L88.394,1.995L93.173,2.308L97.871,3.242L102.407,4.782L106.703,6.901L110.686,9.562L114.287,12.72L117.445,16.321L120.107,20.304L122.225,24.6L123.765,29.136L124.699,33.834L125.013,38.614L125.013,99.394L125.013,172.614L125.013,235.394L125.013,272.004L0.013,272.004L0.013,38.614L0.326,33.834L1.26,29.136L2.8,24.6L4.919,20.304L7.58,16.321z"></path><path d="M0,272L125,272L125,308.61L125,505.39L124.687,510.17L123.752,514.868L122.213,519.404L120.094,523.7L117.433,527.682L114.275,531.284L110.673,534.442L106.69,537.103L102.394,539.222L97.859,540.761L93.161,541.696L88.381,542.009L36.601,542.009L31.821,541.696L27.123,540.761L22.587,539.222L18.291,537.103L14.309,534.442L10.707,531.284L7.549,527.682L4.888,523.7L2.769,519.404L1.23,514.868L0.295,510.17L-0.018,505.39z"></path><path d="M750,272L875,272L875,308.61L875,505.39L874.687,510.17L873.752,514.868L872.213,519.404L870.094,523.7L867.433,527.682L864.275,531.284L860.673,534.442L856.69,537.103L852.394,539.222L847.859,540.761L843.1610000000001,541.696L838.381,542.009L786.601,542.009L781.821,541.696L777.123,540.761L772.587,539.222L768.291,537.103L764.309,534.442L760.707,531.284L757.549,527.682L754.888,523.7L752.769,519.404L751.23,514.868L750.295,510.17L749.982,505.39z"></path><path d="M135.72,146.72L139.321,143.562L143.304,140.901L147.6,138.782L152.136,137.242L156.834,136.308L161.614,135.995L213.394,135.995L218.173,136.308L222.871,137.242L227.407,138.782L231.703,140.901L235.686,143.562L239.287,146.72L242.445,150.321L245.107,154.304L247.225,158.6L248.765,163.136L249.699,167.834L250.013,172.614L250.013,235.394L249.699,240.173L248.765,244.871L247.225,249.407L245.107,253.703L242.445,257.686L239.287,261.287L235.686,264.445L231.703,267.107L227.407,269.225L222.871,270.765L218.173,271.699L213.394,272.013L161.614,272.013L156.834,271.699L152.136,270.765L147.6,269.225L143.304,267.107L139.321,264.445L135.72,261.287L132.562,257.686L129.901,253.703L127.782,249.407L126.242,244.871L125.308,240.173L124.995,235.394L124.995,172.614L125.308,167.834L126.242,163.136L127.782,158.6L129.901,154.304L132.562,150.321z"></path><path d="M260.72,686.72L264.321,683.562L268.304,680.901L272.6,678.782L277.136,677.242L281.834,676.308L286.614,675.995L338.394,675.995L343.173,676.308L347.871,677.242L352.407,678.782L356.703,680.901L360.686,683.562L364.287,686.72L367.445,690.321L370.107,694.304L372.225,698.6L373.765,703.136L374.699,707.834L375.013,712.614L375.013,775.394L374.699,780.173L373.765,784.871L372.225,789.407L370.107,793.703L367.445,797.686L364.287,801.287L360.686,804.445L356.703,807.107L352.407,809.225L347.871,810.765L343.173,811.699L338.394,812.013L286.614,812.013L281.834,811.699L277.136,810.765L272.6,809.225L268.304,807.107L264.321,804.445L260.72,801.287L257.562,797.686L254.901,793.703L252.782,789.407L251.242,784.871L250.308,780.173L249.995,775.394L249.995,712.614L250.308,707.834L251.242,703.136L252.782,698.6L254.901,694.304L257.562,690.321z"></path><path d="M-114.27999999999997,12.72L-110.67899999999997,9.562L-106.69600000000003,6.901L-102.39999999999998,4.782L-97.86400000000003,3.242L-93.16600000000005,2.308L-88.38599999999997,1.995L-36.605999999999995,1.995L-31.826999999999998,2.308L-27.12900000000002,3.242L-22.59299999999996,4.782L-18.297000000000025,6.901L-14.313999999999965,9.562L-10.712999999999965,12.72L-7.55499999999995,16.321L-4.893000000000029,20.304L-2.7749999999999773,24.6L-1.2350000000000136,29.136L-0.30100000000004457,33.834L0.013000000000033651,38.614L0.013000000000033651,99.394L0.013000000000033651,172.614L0.013000000000033651,235.394L0.013000000000033651,272.004L-124.98699999999997,272.004L-124.98699999999997,235.394L-124.98699999999997,172.614L-124.98699999999997,99.394L-124.98699999999997,55.274L-124.98699999999997,38.614L-124.67399999999998,33.834L-123.74000000000001,29.136L-122.20000000000005,24.6L-120.08100000000002,20.304L-117.41999999999996,16.321z"></path><path d="M635.72,12.72L639.321,9.562L643.304,6.901L647.6,4.782L652.136,3.242L656.834,2.308L661.614,1.995L713.394,1.995L718.173,2.308L722.871,3.242L727.407,4.782L731.703,6.901L735.686,9.562L739.287,12.72L742.445,16.321L745.107,20.304L747.225,24.6L748.765,29.136L749.699,33.834L750.013,38.614L750.013,99.394L750.013,172.614L750.013,235.394L750.013,272.004L625.013,272.004L625.013,235.394L625.013,172.614L625.013,99.394L625.013,55.274L625.013,38.614L625.326,33.834L626.26,29.136L627.8,24.6L629.919,20.304L632.58,16.321z"></path><path d="M250,2L375,2L375,36.61L375,38.61L375,99.39L375,172.61L375,235.39L374.687,240.17L373.752,244.868L372.213,249.404L370.094,253.7L367.433,257.682L364.275,261.284L360.673,264.442L356.69,267.103L352.394,269.222L347.859,270.761L343.161,271.696L338.381,272.009L312.491,272.009L286.601,272.009L281.821,271.696L277.123,270.761L272.587,269.222L268.291,267.103L264.309,264.442L260.707,261.284L257.549,257.682L254.888,253.7L252.769,249.404L251.23,244.868L250.295,240.17L249.982,235.39L249.982,172.61L249.982,99.39L249.982,36.61z"></path><path d="M625,272L750,272L750,338L750,369.39L749.687,374.17L748.752,378.868L747.213,383.404L745.094,387.7L742.433,391.682L739.275,395.284L735.673,398.442L731.69,401.103L727.394,403.222L722.859,404.761L718.161,405.696L713.381,406.009L661.601,406.009L656.821,405.696L652.123,404.761L647.587,403.222L643.291,401.103L639.309,398.442L635.707,395.284L632.549,391.682L629.888,387.7L627.769,383.404L626.23,378.868L625.295,374.17L624.982,369.39L624.982,356.23L624.982,338L624.982,321.77L624.982,313.81L624.982,311.81L624.982,308.61L624.982,300.65L624.982,298.65L624.982,295.45L624.982,293.45z"></path><path d="M-114.27999999999997,416.72L-110.67899999999997,413.562L-106.69600000000003,410.901L-102.39999999999998,408.782L-97.86400000000003,407.242L-93.16600000000005,406.308L-88.38599999999997,405.995L-36.605999999999995,405.995L-31.826999999999998,406.308L-27.12900000000002,407.242L-22.59299999999996,408.782L-18.297000000000025,410.901L-14.313999999999965,413.562L-10.712999999999965,416.72L-7.55499999999995,420.321L-4.893000000000029,424.304L-2.7749999999999773,428.6L-1.2350000000000136,433.136L-0.30100000000004457,437.834L0.013000000000033651,442.614L0.013000000000033651,505.394L-0.30100000000004457,510.173L-1.2350000000000136,514.871L-2.7749999999999773,519.407L-4.893000000000029,523.703L-7.55499999999995,527.686L-10.712999999999965,531.287L-14.313999999999965,534.445L-18.297000000000025,537.107L-22.59299999999996,539.225L-27.12900000000002,540.765L-31.826999999999998,541.699L-36.605999999999995,542.013L-88.38599999999997,542.013L-93.16600000000005,541.699L-97.86400000000003,540.765L-102.39999999999998,539.225L-106.69600000000003,537.107L-110.67899999999997,534.445L-114.27999999999997,531.287L-117.43799999999999,527.686L-120.09900000000005,523.703L-122.21799999999996,519.407L-123.75800000000004,514.871L-124.69200000000001,510.173L-125.005,505.394L-125.005,492.234L-125.005,442.604L-124.69200000000001,437.824L-123.75800000000004,433.126L-122.21799999999996,428.59L-120.09900000000005,424.294L-117.43799999999999,420.311z"></path><path d="M635.72,416.72L639.321,413.562L643.304,410.901L647.6,408.782L652.136,407.242L656.834,406.308L661.614,405.995L713.394,405.995L718.173,406.308L722.871,407.242L727.407,408.782L731.703,410.901L735.686,413.562L739.287,416.72L742.445,420.321L745.107,424.304L747.225,428.6L748.765,433.136L749.699,437.834L750.013,442.614L750.013,505.394L749.699,510.173L748.765,514.871L747.225,519.407L745.107,523.703L742.445,527.686L739.287,531.287L735.686,534.445L731.703,537.107L727.407,539.225L722.871,540.765L718.173,541.699L713.394,542.013L661.614,542.013L656.834,541.699L652.136,540.765L647.6,539.225L643.304,537.107L639.321,534.445L635.72,531.287L632.562,527.686L629.901,523.703L627.782,519.407L626.242,514.871L625.308,510.173L624.995,505.394L624.995,492.234L624.995,442.604L625.308,437.824L626.242,433.126L627.782,428.59L629.901,424.294L632.562,420.311z"></path><path d="M500,-270L625,-270L625,-243.35000000000002L625,-241.35000000000002L625,-233.39L625,-36.6099999999999L624.687,-31.829999999999927L623.752,-27.132000000000062L622.213,-22.59699999999998L620.094,-18.299999999999955L617.433,-14.317999999999984L614.275,-10.715999999999894L610.673,-7.557999999999993L606.69,-4.8969999999999345L602.394,-2.77800000000002L597.859,-1.2390000000000327L593.161,-0.3040000000000873L588.381,0.009000000000014552L536.601,0.009000000000014552L531.821,-0.3040000000000873L527.123,-1.2390000000000327L522.587,-2.77800000000002L518.291,-4.8969999999999345L514.309,-7.557999999999993L510.707,-10.715999999999894L507.549,-14.317999999999984L504.888,-18.299999999999955L502.769,-22.59699999999998L501.23,-27.132000000000062L500.295,-31.829999999999927L499.982,-36.6099999999999L499.982,-233.39L499.982,-241.35000000000002z"></path><path d="M500,812L625,812L625,838.65L625,840.65L625,848.61L625,1045.39L624.687,1050.17L623.752,1054.868L622.213,1059.403L620.094,1063.7L617.433,1067.682L614.275,1071.284L610.673,1074.442L606.69,1077.103L602.394,1079.222L597.859,1080.761L593.161,1081.696L588.381,1082.009L536.601,1082.009L531.821,1081.696L527.123,1080.761L522.587,1079.222L518.291,1077.103L514.309,1074.442L510.707,1071.284L507.549,1067.682L504.888,1063.7L502.769,1059.403L501.23,1054.868L500.295,1050.17L499.982,1045.39L499.982,848.61L499.982,840.65z"></path><path d="M135.72,282.72L139.321,279.562L143.304,276.901L147.6,274.782L152.136,273.242L156.834,272.308L161.614,271.995L213.394,271.995L218.173,272.308L222.871,273.242L227.407,274.782L231.703,276.901L235.686,279.562L239.287,282.72L242.445,286.321L245.107,290.304L247.225,294.6L248.765,299.136L249.699,303.834L250.013,308.614L250.013,442.614L250.013,503.394L250.013,505.394L250.013,542.004L213.403,542.004L161.623,542.004L125.013,542.004L125.013,505.394L125.013,308.614L125.326,303.834L126.26,299.136L127.8,294.6L129.919,290.304L132.58,286.321z"></path><path d="M510.72,686.72L514.321,683.562L518.304,680.901L522.6,678.782L527.136,677.242L531.834,676.308L536.614,675.995L588.394,675.995L593.173,676.308L597.871,677.242L602.407,678.782L606.703,680.901L610.686,683.562L614.287,686.72L617.445,690.321L620.107,694.304L622.225,698.6L623.765,703.136L624.699,707.834L625.013,712.614L625.013,777.874L625.013,812.004L500.013,812.004L500.013,775.394L500.013,712.614L500.326,707.834L501.26,703.136L502.8,698.6L504.919,694.304L507.58,690.321z"></path><path d="M260.72,550.72L264.321,547.562L268.304,544.901L272.6,542.782L277.136,541.242L278.381,540.995L281.834,541.681L286.614,541.994L338.394,541.994L343.173,541.681L346.626,540.995L347.871,541.242L352.407,542.782L356.703,544.901L360.686,547.562L364.287,550.72L367.445,554.321L370.107,558.304L372.225,562.6L373.765,567.136L374.699,571.834L375.013,576.614L375.013,639.394L374.699,644.173L373.765,648.871L372.225,653.407L370.107,657.703L367.445,661.686L364.287,665.287L360.686,668.445L356.703,671.107L352.407,673.225L347.871,674.765L343.173,675.699L338.394,676.013L286.614,676.013L281.834,675.699L277.136,674.765L272.6,673.225L268.304,671.107L264.321,668.445L260.72,665.287L257.562,661.686L254.901,657.703L252.782,653.407L251.242,648.871L250.308,644.173L249.995,639.394L249.995,578.614L249.995,576.614L250.308,571.834L251.242,567.136L252.782,562.6L254.901,558.304L257.562,554.321z"></path><path d="M135.72,10.72L139.321,7.562L143.304,4.901L147.6,2.782L152.136,1.242L156.834,0.308L161.614,-0.005L213.394,-0.005L218.173,0.308L222.871,1.242L227.407,2.782L231.703,4.901L235.686,7.562L239.287,10.72L242.445,14.321L245.107,18.304L247.225,22.6L248.765,27.136L249.699,31.834L250.013,36.614L250.013,99.394L249.699,104.173L248.765,108.871L247.225,113.407L245.107,117.703L242.445,121.686L239.287,125.287L235.686,128.445L231.703,131.107L227.407,133.225L222.871,134.765L218.173,135.699L213.394,136.013L161.614,136.013L156.834,135.699L152.136,134.765L147.6,133.225L143.304,131.107L139.321,128.445L135.72,125.287L132.562,121.686L129.901,117.703L127.782,113.407L126.242,108.871L125.308,104.173L124.995,99.394L124.995,38.614L124.995,36.614L125.308,31.834L126.242,27.136L127.782,22.6L129.901,18.304L132.562,14.321z"></path><path d="M135.72,1092.72L139.321,1089.562L143.304,1086.901L147.6,1084.782L152.136,1083.242L156.834,1082.308L161.614,1081.995L213.394,1081.995L218.173,1082.308L222.871,1083.242L227.407,1084.782L231.703,1086.901L235.686,1089.562L239.287,1092.72L242.445,1096.321L245.107,1100.304L247.225,1104.6L248.765,1109.136L249.699,1113.834L250.013,1118.614L250.013,1181.394L249.699,1186.173L248.765,1190.871L247.225,1195.407L245.107,1199.703L242.445,1203.686L239.287,1207.287L235.686,1210.445L231.703,1213.107L227.407,1215.225L222.871,1216.7649999999999L218.173,1217.699L213.394,1218.013L161.614,1218.013L156.834,1217.699L152.136,1216.7649999999999L147.6,1215.225L143.304,1213.107L139.321,1210.445L135.72,1207.287L132.562,1203.686L129.901,1199.703L127.782,1195.407L126.242,1190.871L125.308,1186.173L124.995,1181.394L124.995,1120.614L124.995,1118.614L125.308,1113.834L126.242,1109.136L127.782,1104.6L129.901,1100.304L132.562,1096.321z"></path><path d="M375,542L411.61,542L463.39,542L500,542L500,576.61L500,578.61L500,639.39L500,712.61L500,775.39L499.687,780.17L498.752,784.868L497.213,789.404L495.094,793.7L492.433,797.682L489.275,801.284L485.673,804.442L481.69,807.103L477.394,809.222L472.859,810.761L468.161,811.696L463.381,812.009L437.491,812.009L411.601,812.009L406.821,811.696L402.123,810.761L397.587,809.222L393.291,807.103L389.309,804.442L385.707,801.284L382.549,797.682L379.888,793.7L377.769,789.404L376.23,784.868L375.295,780.17L374.982,775.39L374.982,712.61L374.982,639.39L374.982,576.61z"></path><path d="M500,272L625,272L625,293.45L625,295.45L625,298.65L625,300.65L625,308.61L625,311.81L625,313.81L625,321.77L625,338L625,356.23L625,369.39L625,429.45L625,442.61L625,492.24L625,505.4L624.687,510.18L623.752,514.878L622.213,519.414L620.094,523.71L617.433,527.692L614.275,531.294L610.673,534.452L606.69,537.113L602.394,539.232L597.859,540.771L593.161,541.706L588.381,542.019L562.491,542.019L536.601,542.019L531.821,541.706L527.123,540.771L522.587,539.232L518.291,537.113L514.309,534.452L510.707,531.294L507.549,527.692L504.888,523.71L502.769,519.414L501.23,514.878L500.295,510.18L499.982,505.4L499.982,308.62L499.982,300.66L499.982,298.66z"></path><path d="M500,2L625,2L625,38.61L625,55.27L625,99.39L625,172.61L625,235.39L625,272L500,272L500,237.87L500,172.61L500,99.39z"></path><path d="M375,2L500,2L500,99.39L499.687,104.17L498.752,108.868L497.213,113.404L495.094,117.7L492.433,121.682L489.275,125.284L485.673,128.442L481.69,131.103L477.394,133.222L472.859,134.761L468.161,135.696L463.381,136.009L411.601,136.009L406.821,135.696L402.123,134.761L397.587,133.222L393.291,131.103L389.309,128.442L385.707,125.284L382.549,121.682L379.888,117.7L377.769,113.404L376.23,108.868L375.295,104.17L374.982,99.39L374.982,38.61L374.982,36.61z"></path><path d="M375,272L500,272L500,298.65L500,300.65L500,308.61L500,505.39L499.687,510.17L498.752,514.868L497.213,519.403L495.094,523.7L492.433,527.682L489.275,531.284L485.673,534.442L481.69,537.103L477.394,539.222L472.859,540.761L468.161,541.696L463.381,542.009L411.601,542.009L406.821,541.696L402.123,540.761L397.587,539.222L393.291,537.103L389.309,534.442L385.707,531.284L382.549,527.682L379.888,523.7L377.769,519.403L376.23,514.868L375.295,510.17L374.982,505.39L374.982,308.61L374.982,300.65z"></path><path d="M260.72,282.72L264.321,279.562L268.304,276.901L272.6,274.782L277.136,273.242L281.834,272.308L286.614,271.995L312.504,271.995L338.394,271.995L343.173,272.308L347.871,273.242L352.407,274.782L356.703,276.901L360.686,279.562L364.287,282.72L367.445,286.321L370.107,290.304L372.225,294.6L373.765,299.136L374.699,303.834L375.013,308.614L375.013,505.394L374.699,510.173L373.765,514.871L372.225,519.407L370.107,523.703L367.445,527.686L364.287,531.287L360.686,534.445L356.703,537.107L352.407,539.225L347.871,540.765L346.626,541.013L343.173,540.326L338.394,540.013L286.614,540.013L281.834,540.326L278.381,541.013L277.136,540.765L272.6,539.225L268.304,537.107L264.321,534.445L260.72,531.287L257.562,527.686L254.901,523.703L252.782,519.407L251.242,514.871L250.308,510.173L249.995,505.394L249.995,503.394L249.995,442.614L249.995,308.614L250.308,303.834L251.242,299.136L252.782,294.6L254.901,290.304L257.562,286.321z"></path><path d="M385.72,146.72L389.321,143.562L393.304,140.901L397.6,138.782L402.136,137.242L406.834,136.308L411.614,135.995L463.394,135.995L468.173,136.308L472.871,137.242L477.407,138.782L481.703,140.901L485.686,143.562L489.287,146.72L492.445,150.321L495.107,154.304L497.225,158.6L498.765,163.136L499.699,167.834L500.013,172.614L500.013,237.874L500.013,272.004L375.013,272.004L375.013,235.394L375.013,172.614L375.326,167.834L376.26,163.136L377.8,158.6L379.919,154.304L382.58,150.321z"></path><path d="M260.72,-259.28L264.321,-262.438L268.304,-265.09900000000005L272.6,-267.21799999999996L277.136,-268.75800000000004L281.834,-269.692L286.614,-270.005L338.394,-270.005L343.173,-269.692L347.871,-268.75800000000004L352.407,-267.21799999999996L356.703,-265.09900000000005L360.686,-262.438L364.287,-259.28L367.445,-255.67899999999997L370.107,-251.69600000000003L372.225,-247.39999999999998L373.765,-242.86400000000003L374.699,-238.16600000000005L375.013,-233.38599999999997L375.013,-99.38599999999997L375.013,-38.605999999999995L375.013,-36.605999999999995L375.013,0.0039999999999054126L250.013,0.0039999999999054126L250.013,-36.605999999999995L250.013,-233.38599999999997L250.326,-238.16600000000005L251.26,-242.86400000000003L252.8,-247.39999999999998L254.919,-251.69600000000003L257.58,-255.67899999999997z"></path><path d="M260.72,822.72L264.321,819.562L268.304,816.901L272.6,814.782L277.136,813.242L281.834,812.308L286.614,811.995L338.394,811.995L343.173,812.308L347.871,813.242L352.407,814.782L356.703,816.901L360.686,819.562L364.287,822.72L367.445,826.321L370.107,830.304L372.225,834.6L373.765,839.136L374.699,843.834L375.013,848.614L375.013,982.614L375.013,1043.394L375.013,1045.394L375.013,1082.004L250.013,1082.004L250.013,1045.394L250.013,848.614L250.326,843.834L251.26,839.136L252.8,834.6L254.919,830.304L257.58,826.321z"></path><path d="M385.72,-259.28L389.321,-262.438L393.304,-265.09900000000005L397.6,-267.21799999999996L402.136,-268.75800000000004L406.834,-269.692L411.614,-270.005L437.504,-270.005L463.394,-270.005L468.173,-269.692L472.871,-268.75800000000004L477.407,-267.21799999999996L481.703,-265.09900000000005L485.686,-262.438L489.287,-259.28L492.445,-255.67899999999997L495.107,-251.69600000000003L497.225,-247.39999999999998L498.765,-242.86400000000003L499.699,-238.16600000000005L500.013,-233.38599999999997L500.013,-36.605999999999995L499.699,-31.826999999999998L498.765,-27.128999999999905L497.225,-22.593000000000075L495.107,-18.297000000000025L492.445,-14.314000000000078L489.287,-10.712999999999965L485.686,-7.555000000000064L481.703,-4.893000000000029L477.407,-2.775000000000091L472.871,-1.2349999999999L468.173,-0.3009999999999309L463.394,0.012999999999919964L411.614,0.012999999999919964L406.834,-0.3009999999999309L402.136,-1.2349999999999L397.6,-2.775000000000091L393.304,-4.893000000000029L389.321,-7.555000000000064L385.72,-10.712999999999965L382.562,-14.314000000000078L379.901,-18.297000000000025L377.782,-22.593000000000075L376.242,-27.128999999999905L375.308,-31.826999999999998L374.995,-36.605999999999995L374.995,-38.605999999999995L374.995,-99.38599999999997L374.995,-233.38599999999997L375.308,-238.16600000000005L376.242,-242.86400000000003L377.782,-247.39999999999998L379.901,-251.69600000000003L382.562,-255.67899999999997z"></path><path d="M385.72,822.72L389.321,819.562L393.304,816.901L397.6,814.782L402.136,813.242L406.834,812.308L411.614,811.995L437.504,811.995L463.394,811.995L468.173,812.308L472.871,813.242L477.407,814.782L481.703,816.901L485.686,819.562L489.287,822.72L492.445,826.321L495.107,830.304L497.225,834.6L498.765,839.136L499.699,843.834L500.013,848.614L500.013,1045.394L499.699,1050.173L498.765,1054.871L497.225,1059.407L495.107,1063.703L492.445,1067.686L489.287,1071.287L485.686,1074.445L481.703,1077.107L477.407,1079.225L472.871,1080.765L468.173,1081.699L463.394,1082.013L411.614,1082.013L406.834,1081.699L402.136,1080.765L397.6,1079.225L393.304,1077.107L389.321,1074.445L385.72,1071.287L382.562,1067.686L379.901,1063.703L377.782,1059.407L376.242,1054.871L375.308,1050.173L374.995,1045.394L374.995,1043.394L374.995,982.614L374.995,848.614L375.308,843.834L376.242,839.136L377.782,834.6L379.901,830.304L382.562,826.321z"></path><path d="M625,-270L750,-270L750,-248.54999999999995L750,-246.54999999999995L750,-243.35000000000002L750,-241.35000000000002L750,-233.39L750,-230.19000000000005L750,-228.19000000000005L750,-36.59999999999991L749.687,-31.819999999999936L748.752,-27.12200000000007L747.213,-22.58699999999999L745.094,-18.289999999999964L742.433,-14.307999999999993L739.275,-10.705999999999904L735.673,-7.548000000000002L731.69,-4.886999999999944L727.394,-2.768000000000029L722.859,-1.2290000000000418L718.161,-0.2940000000000964L713.381,0.019000000000005457L687.491,0.019000000000005457L661.601,0.019000000000005457L656.821,-0.2940000000000964L652.123,-1.2290000000000418L647.587,-2.768000000000029L643.291,-4.886999999999944L639.309,-7.548000000000002L635.707,-10.705999999999904L632.549,-14.307999999999993L629.888,-18.289999999999964L627.769,-22.58699999999999L626.23,-27.12200000000007L625.295,-31.819999999999936L624.982,-36.59999999999991L624.982,-233.38L624.982,-241.34000000000003L624.982,-243.34000000000003z"></path><path d="M625,812L750,812L750,833.45L750,835.45L750,838.65L750,840.65L750,848.61L750,851.81L750,853.81L750,1045.4L749.687,1050.18L748.752,1054.878L747.213,1059.413L745.094,1063.71L742.433,1067.692L739.275,1071.294L735.673,1074.452L731.69,1077.113L727.394,1079.232L722.859,1080.771L718.161,1081.706L713.381,1082.019L687.491,1082.019L661.601,1082.019L656.821,1081.706L652.123,1080.771L647.587,1079.232L643.291,1077.113L639.309,1074.452L635.707,1071.294L632.549,1067.692L629.888,1063.71L627.769,1059.413L626.23,1054.878L625.295,1050.18L624.982,1045.4L624.982,848.62L624.982,840.66L624.982,838.66z"></path><path d="M500,542L536.61,542L562.5,542L588.39,542L625,542L625,639.39L624.687,644.17L623.752,648.868L622.213,653.404L620.094,657.7L617.433,661.682L614.275,665.284L610.673,668.442L606.69,671.103L602.394,673.222L597.859,674.761L593.161,675.696L588.381,676.009L536.601,676.009L531.821,675.696L527.123,674.761L522.587,673.222L518.291,671.103L514.309,668.442L510.707,665.284L507.549,661.682L504.888,657.7L502.769,653.404L501.23,648.868L500.295,644.17L499.982,639.39L499.982,578.61L499.982,576.61z"></path><path d="M125,-270L250,-270L250,-233.39L250,-36.6099999999999L249.687,-31.829999999999927L248.752,-27.132000000000062L247.213,-22.596000000000004L245.094,-18.299999999999955L242.433,-14.317999999999984L239.275,-10.715999999999894L235.673,-7.557999999999993L231.69,-4.8969999999999345L227.394,-2.77800000000002L222.859,-1.2390000000000327L218.161,-0.3040000000000873L213.381,0.009000000000014552L161.601,0.009000000000014552L156.821,-0.3040000000000873L152.123,-1.2390000000000327L147.587,-2.77800000000002L143.291,-4.8969999999999345L139.309,-7.557999999999993L135.707,-10.715999999999894L132.549,-14.317999999999984L129.888,-18.299999999999955L127.769,-22.596000000000004L126.23,-27.132000000000062L125.295,-31.829999999999927L124.982,-36.6099999999999L124.982,-99.38999999999999L124.982,-172.61L124.982,-204z"></path><path d="M125,812L250,812L250,848.61L250,1045.39L249.687,1050.17L248.752,1054.868L247.213,1059.404L245.094,1063.7L242.433,1067.682L239.275,1071.284L235.673,1074.442L231.69,1077.103L227.394,1079.222L222.859,1080.761L218.161,1081.696L213.381,1082.009L161.601,1082.009L156.821,1081.696L152.123,1080.761L147.587,1079.222L143.291,1077.103L139.309,1074.442L135.707,1071.284L132.549,1067.682L129.888,1063.7L127.769,1059.404L126.23,1054.868L125.295,1050.17L124.982,1045.39L124.982,982.61L124.982,909.39L124.982,878z"></path><path d="M135.72,552.72L139.321,549.562L143.304,546.901L147.6,544.782L152.136,543.242L156.834,542.308L161.614,541.995L213.394,541.995L218.173,542.308L222.871,543.242L227.407,544.782L231.703,546.901L235.686,549.562L239.287,552.72L242.445,556.321L245.107,560.304L247.225,564.6L248.765,569.136L249.699,573.834L250.013,578.614L250.013,639.394L250.013,712.614L250.013,775.394L250.013,812.004L125.013,812.004L125.013,775.394L125.013,712.614L125.013,639.394L125.013,578.614L125.326,573.834L126.26,569.136L127.8,564.6L129.919,560.304L132.58,556.321z"></path><path d="M625,542L661.61,542L713.39,542L750,542L750,595.27L750,639.39L750,712.61L750,775.39L750,812L625,812L625,777.87L625,712.61L625,639.39z"></path><path d="M278.38,541L281.832,540.313L286.612,540L338.392,540L343.172,540.313L346.624,541L343.172,541.687L338.392,542L286.612,542L281.832,541.687z"></path><path d="M10.72,552.72L14.321,549.562L18.304,546.901L22.6,544.782L27.136,543.242L31.834,542.308L36.614,541.995L88.394,541.995L93.173,542.308L97.871,543.242L102.407,544.782L106.703,546.901L110.686,549.562L114.287,552.72L117.445,556.321L120.107,560.304L122.225,564.6L123.765,569.136L124.699,573.834L125.013,578.614L125.013,639.394L125.013,712.614L125.013,775.394L125.013,812.004L0.013,812.004L0.013,775.394L0.013,712.614L0.013,639.394L0.013,595.274L0.013,578.614L0.326,573.834L1.26,569.136L2.8,564.6L4.919,560.304L7.58,556.321z"></path><path d="M0,812L125,812L125,878L125,909.39L124.687,914.17L123.752,918.868L122.213,923.404L120.094,927.7L117.433,931.682L114.275,935.284L110.673,938.442L106.69,941.103L102.394,943.222L97.859,944.761L93.161,945.696L88.381,946.009L36.601,946.009L31.821,945.696L27.123,944.761L22.587,943.222L18.291,941.103L14.309,938.442L10.707,935.284L7.549,931.682L4.888,927.7L2.769,923.404L1.23,918.868L0.295,914.17L-0.018,909.39L-0.018,896.23L-0.018,878L-0.018,861.77L-0.018,853.81L-0.018,851.81L-0.018,848.61L-0.018,840.65L-0.018,838.65L-0.018,835.45L-0.018,833.45z"></path><path d="M750,812L875,812L875,878L875,909.39L874.687,914.17L873.752,918.868L872.213,923.404L870.094,927.7L867.433,931.682L864.275,935.284L860.673,938.442L856.69,941.103L852.394,943.222L847.859,944.761L843.1610000000001,945.696L838.381,946.009L786.601,946.009L781.821,945.696L777.123,944.761L772.587,943.222L768.291,941.103L764.309,938.442L760.707,935.284L757.549,931.682L754.888,927.7L752.769,923.404L751.23,918.868L750.295,914.17L749.982,909.39L749.982,896.23L749.982,878L749.982,861.77L749.982,853.81L749.982,851.81L749.982,848.61L749.982,840.65L749.982,838.65L749.982,835.45L749.982,833.45z"></path><path d="M10.72,-125.27999999999997L14.321,-128.438L18.304,-131.09900000000005L22.6,-133.21799999999996L27.136,-134.75800000000004L31.834,-135.692L36.614,-136.005L88.394,-136.005L93.173,-135.692L97.871,-134.75800000000004L102.407,-133.21799999999996L106.703,-131.09900000000005L110.686,-128.438L114.287,-125.27999999999997L117.445,-121.67899999999997L120.107,-117.69600000000003L122.225,-113.39999999999998L123.765,-108.86400000000003L124.699,-104.16600000000005L125.013,-99.38599999999997L125.013,-36.605999999999995L124.699,-31.826999999999998L123.765,-27.128999999999905L122.225,-22.593000000000075L120.107,-18.297000000000025L117.445,-14.314000000000078L114.287,-10.712999999999965L110.686,-7.555000000000064L106.703,-4.893000000000029L102.407,-2.775000000000091L97.871,-1.2349999999999L93.173,-0.3009999999999309L88.394,0.012999999999919964L36.614,0.012999999999919964L31.834,-0.3009999999999309L27.136,-1.2349999999999L22.6,-2.775000000000091L18.304,-4.893000000000029L14.321,-7.555000000000064L10.72,-10.712999999999965L7.562,-14.314000000000078L4.901,-18.297000000000025L2.782,-22.593000000000075L1.242,-27.128999999999905L0.308,-31.826999999999998L-0.005,-36.605999999999995L-0.005,-49.766000000000076L-0.005,-99.39599999999996L0.308,-104.17600000000004L1.242,-108.87400000000002L2.782,-113.40999999999997L4.901,-117.70600000000002L7.562,-121.68899999999996z"></path><path d="M760.72,-125.27999999999997L764.321,-128.438L768.304,-131.09900000000005L772.6,-133.21799999999996L777.136,-134.75800000000004L781.834,-135.692L786.614,-136.005L838.394,-136.005L843.173,-135.692L847.871,-134.75800000000004L852.407,-133.21799999999996L856.703,-131.09900000000005L860.686,-128.438L864.287,-125.27999999999997L867.4449999999999,-121.67899999999997L870.107,-117.69600000000003L872.225,-113.39999999999998L873.765,-108.86400000000003L874.699,-104.16600000000005L875.013,-99.38599999999997L875.013,-36.605999999999995L874.699,-31.826999999999998L873.765,-27.128999999999905L872.225,-22.593000000000075L870.107,-18.297000000000025L867.4449999999999,-14.314000000000078L864.287,-10.712999999999965L860.686,-7.555000000000064L856.703,-4.893000000000029L852.407,-2.775000000000091L847.871,-1.2349999999999L843.173,-0.3009999999999309L838.394,0.012999999999919964L786.614,0.012999999999919964L781.834,-0.3009999999999309L777.136,-1.2349999999999L772.6,-2.775000000000091L768.304,-4.893000000000029L764.321,-7.555000000000064L760.72,-10.712999999999965L757.562,-14.314000000000078L754.901,-18.297000000000025L752.782,-22.593000000000075L751.242,-27.128999999999905L750.308,-31.826999999999998L749.995,-36.605999999999995L749.995,-49.766000000000076L749.995,-99.39599999999996L750.308,-104.17600000000004L751.242,-108.87400000000002L752.782,-113.40999999999997L754.901,-117.70600000000002L757.562,-121.68899999999996z"></path><path d="M10.72,956.72L14.321,953.562L18.304,950.901L22.6,948.782L27.136,947.242L31.834,946.308L36.614,945.995L88.394,945.995L93.173,946.308L97.871,947.242L102.407,948.782L106.703,950.901L110.686,953.562L114.287,956.72L117.445,960.321L120.107,964.304L122.225,968.6L123.765,973.136L124.699,977.834L125.013,982.614L125.013,1045.394L124.699,1050.173L123.765,1054.871L122.225,1059.407L120.107,1063.703L117.445,1067.686L114.287,1071.287L110.686,1074.445L106.703,1077.107L102.407,1079.225L97.871,1080.765L93.173,1081.699L88.394,1082.013L36.614,1082.013L31.834,1081.699L27.136,1080.765L22.6,1079.225L18.304,1077.107L14.321,1074.445L10.72,1071.287L7.562,1067.686L4.901,1063.703L2.782,1059.407L1.242,1054.871L0.308,1050.173L-0.005,1045.394L-0.005,1032.234L-0.005,982.604L0.308,977.824L1.242,973.126L2.782,968.59L4.901,964.294L7.562,960.311z"></path><path d="M760.72,956.72L764.321,953.562L768.304,950.901L772.6,948.782L777.136,947.242L781.834,946.308L786.614,945.995L838.394,945.995L843.173,946.308L847.871,947.242L852.407,948.782L856.703,950.901L860.686,953.562L864.287,956.72L867.4449999999999,960.321L870.107,964.304L872.225,968.6L873.765,973.136L874.699,977.834L875.013,982.614L875.013,1045.394L874.699,1050.173L873.765,1054.871L872.225,1059.407L870.107,1063.703L867.4449999999999,1067.686L864.287,1071.287L860.686,1074.445L856.703,1077.107L852.407,1079.225L847.871,1080.765L843.173,1081.699L838.394,1082.013L786.614,1082.013L781.834,1081.699L777.136,1080.765L772.6,1079.225L768.304,1077.107L764.321,1074.445L760.72,1071.287L757.562,1067.686L754.901,1063.703L752.782,1059.407L751.242,1054.871L750.308,1050.173L749.995,1045.394L749.995,1032.234L749.995,982.604L750.308,977.824L751.242,973.126L752.782,968.59L754.901,964.294L757.562,960.311z"></path></svg>