<svg width="539.8" height="539.8" version="1.2" xmlns="http://www.w3.org/2000/svg" viewBox="0 0 539.8 539.8"><style type="text/css">path {stroke-width: 1; vector-effect: non-scaling-stroke; fill:none; stroke: #000; stroke-linecap: round; stroke-linejoin: miter;}</style><path d="M89.95,269.9L179.9,269.9L179.9,539.8L89.95,539.8z"></path><path d="M269.9,359.9L539.8,359.9L539.8,449.85L269.9,449.85L269.9,436.5z"></path><path d="M269.9,449.85L539.8,449.85L539.8,539.8L269.9,539.8z"></path><path d="M269.9,269.9L353.2,269.9L359.85,269.9L436.5,269.9L449.8,269.9L539.8,269.9L539.8,359.9L269.9,359.9L269.9,353.2z"></path><path d="M179.9,269.9L269.9,269.9L269.9,353.2L269.9,359.9L269.9,436.5L269.9,449.85L269.9,539.8L179.9,539.8z"></path><path d="M0,269.9L89.95,269.9L89.95,539.8L0,539.8z"></path><path d="M0,179.95L269.9,179.95L269.9,269.9L179.9,269.9L89.95,269.9L0,269.9z"></path><path d="M269.9,0L359.85,0L359.85,269.9L353.2,269.9L269.9,269.9L269.9,179.95L269.9,90z"></path><path d="M449.8,0L539.8,0L539.8,83.3L539.8,90L539.8,166.6L539.8,179.95L539.8,269.9L449.8,269.9z"></path><path d="M359.85,0L449.8,0L449.8,269.9L436.5,269.9L359.85,269.9z"></path><path d="M0,90L269.9,90L269.9,179.95L0,179.95z"></path><path d="M0,0L83.3,0L166.6,0L269.9,0L269.9,90L0,90z"></path></svg>