<svg width="154" height="532" version="1.2" xmlns="http://www.w3.org/2000/svg" viewBox="0 0 154 532"><style type="text/css">path {stroke-width: 1; vector-effect: non-scaling-stroke; fill:none; stroke: #000; stroke-linecap: round; stroke-linejoin: miter;}</style><path d="M112,490L154,490L154,532L112,532z"></path><path d="M35,224L56,224L77,224L77,266L56,266L35,266z"></path><path d="M-42,0L0,0L34.99799999999999,224.002L34.99799999999999,266.002L0,490.005L-42,490.005L-76.998,266.002L-76.998,224.002z"></path><path d="M112,0L154,0L188.998,224.002L188.998,266.002L154,490.005L112,490.005L77.002,266.002L77.002,224.002z"></path><path d="M35,-266L77,-266L111.998,-41.99799999999999L111.998,0.0019999999999527063L77,224.005L35,224.005L0.002,0.0019999999999527063L0.002,-41.99799999999999z"></path><path d="M35,266L77,266L111.998,490.002L111.998,532.002L77,756.005L35,756.005L0.002,532.002L0.002,490.002z"></path></svg>