<svg width="500" height="500" version="1.2" xmlns="http://www.w3.org/2000/svg" viewBox="0 0 500 500"><style type="text/css">path {stroke-width: 1; vector-effect: non-scaling-stroke; fill:none; stroke: #000; stroke-linecap: round; stroke-linejoin: miter;}</style><path d="M-88.38999999999999,-88.38999999999999L-62.502999999999986,-108.25400000000002L-32.35700000000003,-120.74099999999999L-0.005999999999971806,-125L32.34500000000003,-120.74099999999999L62.490999999999985,-108.25400000000002L88.37800000000004,-88.38999999999999L108.24199999999996,-62.502999999999986L120.72900000000004,-32.35700000000003L124.98800000000006,-0.005999999999971806L120.72900000000004,32.34500000000003L108.24199999999996,62.490999999999985L88.37800000000004,88.37800000000004L62.490999999999985,108.24199999999996L32.34500000000003,120.72900000000004L-0.005999999999971806,124.98800000000006L-32.35700000000003,120.72900000000004L-62.502999999999986,108.24199999999996L-88.38999999999999,88.37800000000004L-108.25400000000002,62.490999999999985L-120.74099999999999,32.34500000000003L-125,-0.005999999999971806L-120.74099999999999,-32.35700000000003L-108.25400000000002,-62.502999999999986z"></path><path d="M411.61,-88.38999999999999L437.497,-108.25400000000002L467.643,-120.74099999999999L499.994,-125L532.345,-120.74099999999999L562.491,-108.25400000000002L588.378,-88.38999999999999L608.242,-62.502999999999986L620.729,-32.35700000000003L624.988,-0.005999999999971806L620.729,32.34500000000003L608.242,62.490999999999985L588.378,88.37800000000004L562.491,108.24199999999996L532.345,120.72900000000004L499.994,124.98800000000006L467.643,120.72900000000004L437.497,108.24199999999996L411.61,88.37800000000004L391.746,62.490999999999985L379.259,32.34500000000003L375,-0.005999999999971806L379.259,-32.35700000000003L391.746,-62.502999999999986z"></path><path d="M-88.38999999999999,411.61L-62.502999999999986,391.746L-32.35700000000003,379.259L-0.005999999999971806,375L32.34500000000003,379.259L62.490999999999985,391.746L88.37800000000004,411.61L108.24199999999996,437.497L120.72900000000004,467.643L124.98800000000006,499.994L120.72900000000004,532.345L108.24199999999996,562.491L88.37800000000004,588.378L62.490999999999985,608.242L32.34500000000003,620.729L-0.005999999999971806,624.988L-32.35700000000003,620.729L-62.502999999999986,608.242L-88.38999999999999,588.378L-108.25400000000002,562.491L-120.74099999999999,532.345L-125,499.994L-120.74099999999999,467.643L-108.25400000000002,437.497z"></path><path d="M411.61,411.61L437.497,391.746L467.643,379.259L499.994,375L532.345,379.259L562.491,391.746L588.378,411.61L608.242,437.497L620.729,467.643L624.988,499.994L620.729,532.345L608.242,562.491L588.378,588.378L562.491,608.242L532.345,620.729L499.994,624.988L467.643,620.729L437.497,608.242L411.61,588.378L391.746,562.491L379.259,532.345L375,499.994L379.259,467.643L391.746,437.497z"></path><path d="M152.9,171.28L176.581,148.831L205.265,133.277L236.997,125.676L249.992,126.023L269.615,126.547L300.897,135.831L328.71,152.895L351.158,176.575L366.713,205.259L374.314,236.992L373.966,249.987L373.442,269.61L364.159,300.892L347.095,328.704L323.414,351.153L294.73,366.708L262.998,374.308L250.002,373.961L230.379,373.437L199.098,364.153L171.285,347.09L148.837,323.409L133.282,294.725L125.681,262.993L126.028,249.997L126.552,230.374L135.836,199.093z"></path><path d="M0,-125L249.998,-126.00400000000002L249.998,0.02600000000001046L124.998,0.02600000000001046L120.739,-32.32400000000001L108.252,-62.471000000000004L88.388,-88.358L62.501,-108.22199999999998L32.355,-120.709z"></path><path d="M0,375L249.998,373.996L249.998,500.026L124.998,500.026L120.739,467.676L108.252,437.529L88.388,411.642L62.501,391.778L32.355,379.291z"></path><path d="M250,0L375,0L379.259,32.351L391.746,62.497L411.61,88.384L437.497,108.248L467.643,120.735L499.994,124.994L249.996,125.998z"></path><path d="M32.35,120.74L62.496,108.253L88.383,88.389L108.247,62.502L120.734,32.356L124.993,0.005L125.997,250.003L-0.033,250.003L-0.033,125.003z"></path><path d="M532.35,120.74L562.496,108.253L588.383,88.389L608.247,62.502L620.734,32.356L624.9929999999999,0.005L625.997,250.003L499.967,250.003L499.967,125.003z"></path><path d="M0,250L126.03,250L125.683,262.995L133.284,294.728L148.838,323.412L171.287,347.092L199.1,364.156L230.381,373.44L250.004,373.964L0.006,374.968z"></path><path d="M373.97,250L374.974,499.998L249.974,499.998L249.974,373.968L262.969,374.315L294.701,366.714L323.385,351.16L347.066,328.711L364.13,300.898L373.414,269.617z"></path><path d="M125,0L250,0L250,126.03L237.005,125.683L205.272,133.284L176.588,148.838L152.908,171.287L135.844,199.1L126.56,230.381L126.036,250.004z"></path><path d="M250,126.03L499.998,125.026L499.998,250.026L373.968,250.026L374.315,237.031L366.714,205.299L351.16,176.615L328.711,152.934L300.898,135.87L269.617,126.586z"></path><path d="M373.97,250L500,250L500,375L467.649,379.259L437.503,391.746L411.616,411.61L391.752,437.497L379.265,467.643L375.006,499.994z"></path></svg>