<svg width="400" height="200" version="1.2" xmlns="http://www.w3.org/2000/svg" viewBox="0 0 400 200"><style type="text/css">path {stroke-width: 1; vector-effect: non-scaling-stroke; fill:none; stroke: #000; stroke-linecap: round; stroke-linejoin: miter;}</style><path d="M200,0L400,0L400,100L325,100L350.004,149.996L250.004,149.996L275.007,100L200.007,100z"></path><path d="M0,0L200,0L200,100L125,100L150.004,50.004L50.004,50.004L75.007,100L0.007,100z"></path><path d="M200,100L275,100L249.996,149.996L349.996,149.996L324.993,100L399.993,100L399.993,200L199.993,200z"></path><path d="M50,50L150,50L124.996,99.996L199.996,99.996L199.996,199.996L-0.004,199.996L-0.004,99.996L74.996,99.996z"></path><path d="M450,50L550,50L524.996,99.996L599.996,99.996L599.996,199.996L399.996,199.996L399.996,99.996L474.996,99.996z"></path></svg>