<svg width="460" height="460" version="1.2" xmlns="http://www.w3.org/2000/svg" viewBox="0 0 460 460"><style type="text/css">path {stroke-width: 1; vector-effect: non-scaling-stroke; fill:none; stroke: #000; stroke-linecap: round; stroke-linejoin: miter;}</style><path d="M-58.43000000000001,346.86L-0.0020000000000095497,288.432L58.426000000000045,346.86L58.426000000000045,460L-58.434000000000026,460z"></path><path d="M401.57,346.86L459.998,288.432L518.426,346.86L518.426,460L401.566,460z"></path><path d="M-58.43000000000001,116.86L58.42999999999995,116.86L58.42999999999995,230L0.0020000000000095497,288.428L-58.42599999999999,230z"></path><path d="M401.57,116.86L518.43,116.86L518.43,230L460.002,288.428L401.574,230z"></path><path d="M58.43,-343.14L171.57,-343.14L229.998,-401.568L288.426,-343.14L401.566,-343.14L401.566,-230L459.995,-171.572L401.566,-113.144L401.566,-0.004000000000019099L288.426,-0.004000000000019099L229.998,58.424999999999955L171.57,-0.004000000000019099L58.43,-0.004000000000019099L58.43,-113.144L0.002,-171.572L58.43,-230z"></path><path d="M58.43,116.86L171.57,116.86L229.998,58.432L288.426,116.86L401.566,116.86L401.566,230L459.995,288.428L401.566,346.856L401.566,459.996L288.426,459.996L229.998,518.425L171.57,459.996L58.43,459.996L58.43,346.856L0.002,288.428L58.43,230z"></path><path d="M58.43,0L171.57,0L229.998,58.428L171.57,116.856L58.43,116.856z"></path><path d="M288.43,0L401.57,0L401.57,116.86L288.43,116.86L230.002,58.432z"></path><path d="M-58.43000000000001,0L58.42999999999995,0L58.42999999999995,116.86L-58.43000000000001,116.86z"></path><path d="M401.57,0L518.43,0L518.43,116.86L401.57,116.86z"></path></svg>