<svg width="260" height="530" version="1.2" xmlns="http://www.w3.org/2000/svg" viewBox="0 0 260 530"><style type="text/css">path {stroke-width: 1; vector-effect: non-scaling-stroke; fill:none; stroke: #000; stroke-linecap: round; stroke-linejoin: miter;}</style><path d="M130,0L260,0L260,530L130,530L130,489.11L148.114,486.725L164.993,479.734L179.488,468.612L190.61,454.117L197.601,437.238L199.986,419.124L199.986,110.894L197.601,92.78L190.61,75.901L179.488,61.406L164.993,50.284L148.114,43.293L130,40.908z"></path><path d="M0,0L130,0L130,40.89L111.886,43.275L95.007,50.266L80.512,61.388L69.39,75.883L62.399,92.762L60.014,110.876L60.014,419.106L62.399,437.22L69.39,454.099L80.512,468.594L95.007,479.716L111.886,486.707L130,489.092L130,529.982L0,529.982z"></path><path d="M80.5,61.39L94.995,50.268L111.874,43.276L129.988,40.892L129.988,489.122L111.874,486.737L94.995,479.745L80.5,468.623L69.378,454.129L62.386,437.249L60.002,419.136L60.002,110.906L62.386,92.792L69.378,75.913z"></path><path d="M130,40.89L148.114,43.275L164.993,50.266L179.488,61.388L190.61,75.883L197.601,92.762L199.986,110.876L199.986,419.106L197.601,437.22L190.61,454.099L179.488,468.594L164.993,479.716L148.114,486.707L130,489.092z"></path></svg>