<svg width="270" height="270" version="1.2" xmlns="http://www.w3.org/2000/svg" viewBox="0 0 270 270"><style type="text/css">path {stroke-width: 1; vector-effect: non-scaling-stroke; fill:none; stroke: #000; stroke-linecap: round; stroke-linejoin: miter;}</style><path d="M90,135L135,90L180,90L180,135L135,180L90,180z"></path><path d="M45,180L90,180L135,180L135,225L135,270L45,270z"></path><path d="M90,0L135,0L180,45L180,90L135,90L90,45z"></path><path d="M0,90L45,90L90,135L90,180L45,180L0,135z"></path><path d="M90,45L135,90L90,135.001L45,90z"></path><path d="M90,45L45,90L0,90L0,45L45,0L90,0z"></path><path d="M-45,135L0,135L45,180L45,225L0,225L-45,180z"></path><path d="M225,135L270,135L315,180L315,225L270,225L225,180z"></path><path d="M-45,0L0,-45L45,-45L45,0L0,45L-45,45z"></path><path d="M225,0L270,-45L315,-45L315,0L270,45L225,45z"></path><path d="M-45,270L0,225L45,225L45,270L0,315L-45,315z"></path><path d="M225,270L270,225L315,225L315,270L270,315L225,315z"></path><path d="M180,45L225,45L270,45L270,135L180,135z"></path><path d="M135,-45L180,-45L225,0L225,45L180,45L135,0z"></path><path d="M135,225L180,225L225,270L225,315L180,315L135,270z"></path><path d="M225,-90L270,-45L225,0.0009999999999763531L180,-45z"></path><path d="M225,180L270,225L225,270.001L180,225z"></path><path d="M225,180L180,225L135,225L135,180L180,135L225,135z"></path></svg>