<svg width="200" height="200" version="1.2" xmlns="http://www.w3.org/2000/svg" viewBox="0 0 200 200"><style type="text/css">path {stroke-width: 1; vector-effect: non-scaling-stroke; fill:none; stroke: #000; stroke-linecap: round; stroke-linejoin: miter;}</style><path d="M80,40L160,40L160,120L108.28,120L79.996,91.716z"></path><path d="M160,40L200,40L200,120L160,120z"></path><path d="M160,120L200,120L200,200L160,200z"></path><path d="M160,0L200,0L200,40L160,40z"></path><path d="M0,0L80,0L80,40L0,40z"></path><path d="M80,0L160,0L160,40L80,40z"></path><path d="M0,40L80,40L80,91.72L51.716,120.004L-0.004,120.004z"></path><path d="M200,40L280,40L280,91.72L251.716,120.004L199.996,120.004z"></path><path d="M80,91.72L108.284,120.004L80,148.289L51.716,120.004z"></path><path d="M0,-80L51.72,-80L80.004,-51.71600000000001L80.004,0.003999999999990678L0.004,0.003999999999990678z"></path><path d="M0,120L51.72,120L80.004,148.284L80.004,200.004L0.004,200.004z"></path><path d="M80,148.28L108.284,119.996L160.004,119.996L160.004,199.996L80.004,199.996z"></path></svg>