<svg width="125" height="105" version="1.2" xmlns="http://www.w3.org/2000/svg" viewBox="0 0 125 105"><style type="text/css">path {stroke-width: 1; vector-effect: non-scaling-stroke; fill:none; stroke: #000; stroke-linecap: round; stroke-linejoin: miter;}</style><path d="M0,-55L15,-55L15,25L0,25z"></path><path d="M0,50L15,50L15,130L0,130z"></path><path d="M0,25L70,25L70,0L125,0L125,75L70,75L70,50L15,50L0,50z"></path><path d="M70,75L125,75L125,105L70,105z"></path><path d="M15,-55L70,-55L70,-30L70,0L70,25L20,25L15,25z"></path><path d="M15,50L70,50L70,75L70,105L70,130L20,130L15,130z"></path></svg>