<svg width="400" height="400" version="1.2" xmlns="http://www.w3.org/2000/svg" viewBox="0 0 400 400"><style type="text/css">path {stroke-width: 1; vector-effect: non-scaling-stroke; fill:none; stroke: #000; stroke-linecap: round; stroke-linejoin: miter;}</style><path d="M250,200L275,200L275,400L250,400z"></path><path d="M200,0L400,0L400,200L375,200L350,200L325,200L300,200L275,200L250,200L225,200L200,200L200,175L200,150L200,125L200,100L200,75L200,50L200,25z"></path><path d="M200,200L225,200L225,400L200,400z"></path><path d="M325,200L350,200L350,400L325,400z"></path><path d="M225,200L250,200L250,400L225,400z"></path><path d="M0,0L200,0L200,25L0,25z"></path><path d="M0,25L200,25L200,50L0,50z"></path><path d="M0,75L200,75L200,100L0,100z"></path><path d="M0,125L200,125L200,150L0,150z"></path><path d="M0,100L200,100L200,125L0,125z"></path><path d="M0,50L200,50L200,75L0,75z"></path><path d="M0,150L200,150L200,175L0,175z"></path><path d="M0,175L200,175L200,200L0,200z"></path><path d="M0,200L200,200L200,400z"></path><path d="M0,200L199.998,399.998L-0.002,399.998z"></path><path d="M400,200L599.998,399.998L399.998,399.998z"></path><path d="M300,200L325,200L325,400L300,400z"></path><path d="M375,200L400,200L400,400L375,400z"></path><path d="M275,200L300,200L300,400L275,400z"></path><path d="M350,200L375,200L375,400L350,400z"></path></svg>