<svg width="166" height="794" version="1.2" xmlns="http://www.w3.org/2000/svg" viewBox="0 0 166 794"><style type="text/css">path {stroke-width: 1; vector-effect: non-scaling-stroke; fill:none; stroke: #000; stroke-linecap: round; stroke-linejoin: miter;}</style><path d="M23,0L107,0L107,70.05L105.569,80.916L101.375,91.042L94.703,99.737L86.008,106.409L75.882,110.603L65.016,112.034L54.15,110.603L44.024,106.409L35.329,99.737L28.657,91.042L24.463,80.916L23.032,70.05z"></path><path d="M-42.959999999999994,-239L-37.63300000000001,-243.433L-31.53800000000001,-246.72900000000004L-24.912000000000006,-248.76L-18.01599999999999,-249.44600000000003L-11.120000000000005,-248.76L-4.494,-246.72900000000004L1.6020000000000039,-243.433L6.927999999999997,-239L11.276999999999987,-233.60400000000004L14.478000000000009,-227.45799999999997L14.929000000000002,-223.05100000000004L15.298000000000002,-218.63599999999997L15.585000000000008,-214.216L15.789999999999992,-209.78999999999996L15.913000000000011,-205.36199999999997L15.954000000000008,-200.93200000000002L15.913000000000011,-196.50300000000004L15.789999999999992,-192.07399999999996L15.585000000000008,-187.649L15.298000000000002,-183.22799999999995L14.929000000000002,-178.81399999999996L14.478000000000009,-174.40700000000004L-5.049000000000007,0.5069999999999482L-31.038999999999987,0.5069999999999482L-50.565,-174.40700000000004L-51.016000000000005,-178.81399999999996L-51.385000000000005,-183.22799999999995L-51.672,-187.649L-51.876999999999995,-192.07399999999996L-52,-196.50300000000004L-52.041,-200.93200000000002L-52,-205.36199999999997L-51.876999999999995,-209.78999999999996L-51.672,-214.216L-51.385000000000005,-218.63599999999997L-51.016000000000005,-223.05100000000004L-50.565,-227.45799999999997L-47.364000000000004,-233.60400000000004z"></path><path d="M123.04,-239L128.367,-243.433L134.462,-246.72900000000004L141.088,-248.76L147.984,-249.44600000000003L154.88,-248.76L161.506,-246.72900000000004L167.602,-243.433L172.928,-239L177.277,-233.60400000000004L180.478,-227.45799999999997L180.929,-223.05100000000004L181.298,-218.63599999999997L181.585,-214.216L181.79,-209.78999999999996L181.913,-205.36199999999997L181.954,-200.93200000000002L181.913,-196.50300000000004L181.79,-192.07399999999996L181.585,-187.649L181.298,-183.22799999999995L180.929,-178.81399999999996L180.478,-174.40700000000004L160.951,0.5069999999999482L134.961,0.5069999999999482L115.435,-174.40700000000004L114.984,-178.81399999999996L114.615,-183.22799999999995L114.328,-187.649L114.123,-192.07399999999996L114,-196.50300000000004L113.959,-200.93200000000002L114,-205.36199999999997L114.123,-209.78999999999996L114.328,-214.216L114.615,-218.63599999999997L114.984,-223.05100000000004L115.435,-227.45799999999997L118.636,-233.60400000000004z"></path><path d="M-42.959999999999994,555L-37.63300000000001,550.567L-31.53800000000001,547.271L-24.912000000000006,545.24L-18.01599999999999,544.554L-11.120000000000005,545.24L-4.494,547.271L1.6020000000000039,550.567L6.927999999999997,555L11.276999999999987,560.396L14.478000000000009,566.542L14.929000000000002,570.949L15.298000000000002,575.364L15.585000000000008,579.784L15.789999999999992,584.21L15.913000000000011,588.638L15.954000000000008,593.068L15.913000000000011,597.497L15.789999999999992,601.926L15.585000000000008,606.351L15.298000000000002,610.772L14.929000000000002,615.186L14.478000000000009,619.593L-5.049000000000007,794.507L-31.038999999999987,794.507L-50.565,619.593L-51.016000000000005,615.186L-51.385000000000005,610.772L-51.672,606.351L-51.876999999999995,601.926L-52,597.497L-52.041,593.068L-52,588.638L-51.876999999999995,584.21L-51.672,579.784L-51.385000000000005,575.364L-51.016000000000005,570.949L-50.565,566.542L-47.364000000000004,560.396z"></path><path d="M123.04,555L128.367,550.567L134.462,547.271L141.088,545.24L147.984,544.554L154.88,545.24L161.506,547.271L167.602,550.567L172.928,555L177.277,560.396L180.478,566.542L180.929,570.949L181.298,575.364L181.585,579.784L181.79,584.21L181.913,588.638L181.954,593.068L181.913,597.497L181.79,601.926L181.585,606.351L181.298,610.772L180.929,615.186L180.478,619.593L160.951,794.507L134.961,794.507L115.435,619.593L114.984,615.186L114.615,610.772L114.328,606.351L114.123,601.926L114,597.497L113.959,593.068L114,588.638L114.123,584.21L114.328,579.784L114.615,575.364L114.984,570.949L115.435,566.542L118.636,560.396z"></path><path d="M52.02,397.23L78.01,397.23L97.537,572.143L97.988,576.55L98.357,580.965L98.644,585.386L98.848,589.811L98.971,594.239L99.012,598.669L98.971,603.099L98.848,607.527L98.644,611.952L98.357,616.373L97.988,620.788L97.537,625.195L94.336,631.341L89.987,636.737L84.66,641.17L78.565,644.466L71.939,646.497L65.043,647.183L58.147,646.497L51.521,644.466L45.425,641.17L40.099,636.737L35.75,631.341L32.549,625.195L32.098,620.788L31.729,616.373L31.442,611.952L31.237,607.527L31.114,603.099L31.073,598.669L31.114,594.239L31.237,589.811L31.442,585.386L31.729,580.965L32.098,576.55L32.549,572.143z"></path><path d="M0,0L23,0L23,70.05L24.431,80.916L28.625,91.042L35.297,99.737L43.992,106.409L54.118,110.603L64.984,112.034L75.85,110.603L85.976,106.409L94.671,99.737L101.343,91.042L105.537,80.916L106.968,70.05L106.968,0L129.968,0L82.953,397.227L77.953,397.227L97.449,222.311L97.9,217.904L98.269,213.489L98.556,209.068L98.761,204.643L98.884,200.215L98.925,195.785L98.884,191.355L98.761,186.927L98.556,182.502L98.269,178.081L97.9,173.666L97.449,169.259L94.248,163.113L89.899,157.717L84.573,153.284L78.477,149.988L71.851,147.957L64.955,147.271L58.059,147.957L51.433,149.988L45.337,153.284L40.011,157.717L35.662,163.113L32.461,169.259L32.01,173.666L31.641,178.081L31.354,182.502L31.15,186.927L31.027,191.355L30.986,195.785L31.027,200.215L31.15,204.643L31.354,209.068L31.641,213.489L32.01,217.904L32.461,222.311L51.988,397.224L46.968,397.224z"></path><path d="M35.3,-99.28999999999996L43.995,-105.96199999999999L54.121,-110.15599999999995L64.987,-111.58699999999999L75.853,-110.15599999999995L85.979,-105.96199999999999L94.674,-99.28999999999996L101.346,-90.59500000000003L105.54,-80.46900000000005L106.971,-69.60299999999995L106.971,0.44700000000000273L22.971,0.44700000000000273L22.971,-69.60299999999995L24.402,-80.46900000000005L28.596,-90.59500000000003z"></path><path d="M35.3,694.71L43.995,688.038L54.121,683.844L64.987,682.413L75.853,683.844L85.979,688.038L94.674,694.71L101.346,703.405L105.54,713.531L106.971,724.397L106.971,794.447L22.971,794.447L22.971,724.397L24.402,713.531L28.596,703.405z"></path><path d="M-82.99,-396.77L-59.989999999999995,-396.77L-59.989999999999995,-326.72L-58.559,-315.854L-54.364999999999995,-305.728L-47.693,-297.033L-38.998000000000005,-290.361L-28.872000000000014,-286.167L-18.006,-284.736L-7.139999999999986,-286.167L2.98599999999999,-290.361L11.681000000000012,-297.033L18.35300000000001,-305.728L22.546999999999997,-315.854L23.97800000000001,-326.72L23.97800000000001,-396.77L46.97800000000001,-396.77L-0.03700000000000614,0.45699999999999363L-5.056999999999988,0.45699999999999363L14.469999999999999,-174.45600000000002L14.920999999999992,-178.86300000000006L15.289999999999992,-183.27800000000002L15.575999999999993,-187.69799999999998L15.781000000000006,-192.12400000000002L15.903999999999996,-196.55200000000002L15.944999999999993,-200.98199999999997L15.903999999999996,-205.41200000000003L15.781000000000006,-209.84000000000003L15.575999999999993,-214.265L15.289999999999992,-218.68600000000004L14.920999999999992,-223.10000000000002L14.469999999999999,-227.50699999999995L11.269000000000005,-233.654L6.9199999999999875,-239.04899999999998L1.5929999999999893,-243.48199999999997L-4.502999999999986,-246.779L-11.127999999999986,-248.80899999999997L-18.024,-249.495L-24.919999999999987,-248.80899999999997L-31.545999999999992,-246.779L-37.641999999999996,-243.48199999999997L-42.968999999999994,-239.04899999999998L-47.318,-233.654L-50.519000000000005,-227.50699999999995L-50.968999999999994,-223.10000000000002L-51.337999999999994,-218.68600000000004L-51.625,-214.265L-51.83,-209.84000000000003L-51.953,-205.41200000000003L-51.994,-200.98199999999997L-51.953,-196.55200000000002L-51.83,-192.12400000000002L-51.625,-187.69799999999998L-51.337999999999994,-183.27800000000002L-50.968999999999994,-178.86300000000006L-50.519000000000005,-174.45600000000002L-30.99199999999999,0.45699999999999363L-35.99199999999999,0.45699999999999363z"></path><path d="M83.01,-396.77L106.01,-396.77L106.01,-326.72L107.441,-315.854L111.635,-305.728L118.307,-297.033L127.002,-290.361L137.128,-286.167L147.994,-284.736L158.86,-286.167L168.986,-290.361L177.681,-297.033L184.353,-305.728L188.547,-315.854L189.978,-326.72L189.978,-396.77L212.978,-396.77L165.963,0.45699999999999363L160.943,0.45699999999999363L180.47,-174.45600000000002L180.921,-178.86300000000006L181.29,-183.27800000000002L181.576,-187.69799999999998L181.781,-192.12400000000002L181.904,-196.55200000000002L181.945,-200.98199999999997L181.904,-205.41200000000003L181.781,-209.84000000000003L181.576,-214.265L181.29,-218.68600000000004L180.921,-223.10000000000002L180.47,-227.50699999999995L177.269,-233.654L172.92,-239.04899999999998L167.593,-243.48199999999997L161.497,-246.779L154.872,-248.80899999999997L147.976,-249.495L141.08,-248.80899999999997L134.454,-246.779L128.358,-243.48199999999997L123.031,-239.04899999999998L118.682,-233.654L115.481,-227.50699999999995L115.031,-223.10000000000002L114.662,-218.68600000000004L114.375,-214.265L114.17,-209.84000000000003L114.047,-205.41200000000003L114.006,-200.98199999999997L114.047,-196.55200000000002L114.17,-192.12400000000002L114.375,-187.69799999999998L114.662,-183.27800000000002L115.031,-178.86300000000006L115.481,-174.45600000000002L135.008,0.45699999999999363L130.008,0.45699999999999363z"></path><path d="M-82.99,397.23L-59.989999999999995,397.23L-59.989999999999995,467.28L-58.559,478.146L-54.364999999999995,488.272L-47.693,496.967L-38.998000000000005,503.639L-28.872000000000014,507.833L-18.006,509.264L-7.139999999999986,507.833L2.98599999999999,503.639L11.681000000000012,496.967L18.35300000000001,488.272L22.546999999999997,478.146L23.97800000000001,467.28L23.97800000000001,397.23L46.97800000000001,397.23L-0.03700000000000614,794.457L-5.056999999999988,794.457L14.469999999999999,619.544L14.920999999999992,615.137L15.289999999999992,610.722L15.575999999999993,606.302L15.781000000000006,601.876L15.903999999999996,597.448L15.944999999999993,593.018L15.903999999999996,588.588L15.781000000000006,584.16L15.575999999999993,579.735L15.289999999999992,575.314L14.920999999999992,570.9L14.469999999999999,566.493L11.269000000000005,560.346L6.9199999999999875,554.951L1.5929999999999893,550.518L-4.502999999999986,547.221L-11.127999999999986,545.191L-18.024,544.505L-24.919999999999987,545.191L-31.545999999999992,547.221L-37.641999999999996,550.518L-42.968999999999994,554.951L-47.318,560.346L-50.519000000000005,566.493L-50.968999999999994,570.9L-51.337999999999994,575.314L-51.625,579.735L-51.83,584.16L-51.953,588.588L-51.994,593.018L-51.953,597.448L-51.83,601.876L-51.625,606.302L-51.337999999999994,610.722L-50.968999999999994,615.137L-50.519000000000005,619.544L-30.99199999999999,794.457L-35.99199999999999,794.457z"></path><path d="M83.01,397.23L106.01,397.23L106.01,467.28L107.441,478.146L111.635,488.272L118.307,496.967L127.002,503.639L137.128,507.833L147.994,509.264L158.86,507.833L168.986,503.639L177.681,496.967L184.353,488.272L188.547,478.146L189.978,467.28L189.978,397.23L212.978,397.23L165.963,794.457L160.943,794.457L180.47,619.544L180.921,615.137L181.29,610.722L181.576,606.302L181.781,601.876L181.904,597.448L181.945,593.018L181.904,588.588L181.781,584.16L181.576,579.735L181.29,575.314L180.921,570.9L180.47,566.493L177.269,560.346L172.92,554.951L167.593,550.518L161.497,547.221L154.872,545.191L147.976,544.505L141.08,545.191L134.454,547.221L128.358,550.518L123.031,554.951L118.682,560.346L115.481,566.493L115.031,570.9L114.662,575.314L114.375,579.735L114.17,584.16L114.047,588.588L114.006,593.018L114.047,597.448L114.17,601.876L114.375,606.302L114.662,610.722L115.031,615.137L115.481,619.544L135.008,794.457L130.008,794.457z"></path><path d="M-30.97999999999999,0L-4.990000000000009,0L14.537000000000006,174.913L14.988,179.32L15.357,183.735L15.644000000000005,188.156L15.848000000000013,192.581L15.971000000000004,197.009L16.012,201.439L15.971000000000004,205.869L15.848000000000013,210.297L15.644000000000005,214.722L15.357,219.143L14.988,223.558L14.537000000000006,227.965L11.336000000000013,234.111L6.986999999999995,239.507L1.6599999999999966,243.94L-4.435000000000002,247.236L-11.061000000000007,249.267L-17.956999999999994,249.953L-24.85300000000001,249.267L-31.479000000000013,247.236L-37.57499999999999,243.94L-42.900999999999996,239.507L-47.25,234.111L-50.45099999999999,227.965L-50.902,223.558L-51.271,219.143L-51.55800000000001,214.722L-51.763000000000005,210.297L-51.885999999999996,205.869L-51.92700000000001,201.439L-51.885999999999996,197.009L-51.763000000000005,192.581L-51.55800000000001,188.156L-51.271,183.735L-50.902,179.32L-50.45099999999999,174.913z"></path><path d="M135.02,0L161.01,0L180.537,174.913L180.988,179.32L181.357,183.735L181.644,188.156L181.848,192.581L181.971,197.009L182.012,201.439L181.971,205.869L181.848,210.297L181.644,214.722L181.357,219.143L180.988,223.558L180.537,227.965L177.336,234.111L172.987,239.507L167.66,243.94L161.565,247.236L154.939,249.267L148.043,249.953L141.147,249.267L134.521,247.236L128.425,243.94L123.099,239.507L118.75,234.111L115.549,227.965L115.098,223.558L114.729,219.143L114.442,214.722L114.237,210.297L114.114,205.869L114.073,201.439L114.114,197.009L114.237,192.581L114.442,188.156L114.729,183.735L115.098,179.32L115.549,174.913z"></path><path d="M46.99,-396.77L52.01,-396.77L32.483,-221.85699999999997L32.032,-217.45000000000005L31.663,-213.03499999999997L31.376,-208.61400000000003L31.172,-204.18899999999996L31.049,-199.76099999999997L31.008,-195.33100000000002L31.049,-190.90099999999995L31.172,-186.47299999999996L31.376,-182.048L31.663,-177.62699999999995L32.032,-173.212L32.483,-168.80499999999995L35.684,-162.659L40.033,-157.26300000000003L45.36,-152.83000000000004L51.455,-149.534L58.081,-147.50300000000004L64.977,-146.817L71.873,-147.50300000000004L78.499,-149.534L84.595,-152.83000000000004L89.921,-157.26300000000003L94.27,-162.659L97.471,-168.80499999999995L97.922,-173.212L98.291,-177.62699999999995L98.578,-182.048L98.783,-186.47299999999996L98.906,-190.90099999999995L98.947,-195.33100000000002L98.906,-199.76099999999997L98.783,-204.18899999999996L98.578,-208.61400000000003L98.291,-213.03499999999997L97.922,-217.45000000000005L97.471,-221.85699999999997L77.944,-396.77L82.944,-396.77L129.959,0.45699999999999363L106.959,0.45699999999999363L106.959,-69.59299999999996L105.529,-80.45899999999995L101.335,-90.58500000000004L94.663,-99.27999999999997L85.967,-105.952L75.842,-110.14599999999996L64.976,-111.577L54.109,-110.14599999999996L43.984,-105.952L35.288,-99.27999999999997L28.616,-90.58500000000004L24.422,-80.45899999999995L22.992,-69.59299999999996L22.992,0.45699999999999363L-0.008,0.45699999999999363z"></path><path d="M212.99,-396.77L218.01,-396.77L198.483,-221.85699999999997L198.03199999999998,-217.45000000000005L197.663,-213.03499999999997L197.376,-208.61400000000003L197.172,-204.18899999999996L197.049,-199.76099999999997L197.008,-195.33100000000002L197.049,-190.90099999999995L197.172,-186.47299999999996L197.376,-182.048L197.663,-177.62699999999995L198.03199999999998,-173.212L198.483,-168.80499999999995L201.684,-162.659L206.03300000000002,-157.26300000000003L211.36,-152.83000000000004L217.45499999999998,-149.534L224.08100000000002,-147.50300000000004L230.977,-146.817L237.873,-147.50300000000004L244.499,-149.534L250.595,-152.83000000000004L255.921,-157.26300000000003L260.27,-162.659L263.471,-168.80499999999995L263.922,-173.212L264.291,-177.62699999999995L264.578,-182.048L264.783,-186.47299999999996L264.906,-190.90099999999995L264.947,-195.33100000000002L264.906,-199.76099999999997L264.783,-204.18899999999996L264.578,-208.61400000000003L264.291,-213.03499999999997L263.922,-217.45000000000005L263.471,-221.85699999999997L243.94400000000002,-396.77L248.94400000000002,-396.77L295.959,0.45699999999999363L272.959,0.45699999999999363L272.959,-69.59299999999996L271.529,-80.45899999999995L267.335,-90.58500000000004L260.663,-99.27999999999997L251.96699999999998,-105.952L241.84199999999998,-110.14599999999996L230.976,-111.577L220.109,-110.14599999999996L209.984,-105.952L201.288,-99.27999999999997L194.61599999999999,-90.58500000000004L190.422,-80.45899999999995L188.992,-69.59299999999996L188.992,0.45699999999999363L165.992,0.45699999999999363z"></path><path d="M46.99,397.23L52.01,397.23L32.483,572.143L32.032,576.55L31.663,580.965L31.376,585.386L31.172,589.811L31.049,594.239L31.008,598.669L31.049,603.099L31.172,607.527L31.376,611.952L31.663,616.373L32.032,620.788L32.483,625.195L35.684,631.341L40.033,636.737L45.36,641.17L51.455,644.466L58.081,646.497L64.977,647.183L71.873,646.497L78.499,644.466L84.595,641.17L89.921,636.737L94.27,631.341L97.471,625.195L97.922,620.788L98.291,616.373L98.578,611.952L98.783,607.527L98.906,603.099L98.947,598.669L98.906,594.239L98.783,589.811L98.578,585.386L98.291,580.965L97.922,576.55L97.471,572.143L77.944,397.23L82.944,397.23L129.959,794.457L106.959,794.457L106.959,724.407L105.529,713.541L101.335,703.415L94.663,694.72L85.967,688.048L75.842,683.854L64.976,682.423L54.109,683.854L43.984,688.048L35.288,694.72L28.616,703.415L24.422,713.541L22.992,724.407L22.992,794.457L-0.008,794.457z"></path><path d="M212.99,397.23L218.01,397.23L198.483,572.143L198.03199999999998,576.55L197.663,580.965L197.376,585.386L197.172,589.811L197.049,594.239L197.008,598.669L197.049,603.099L197.172,607.527L197.376,611.952L197.663,616.373L198.03199999999998,620.788L198.483,625.195L201.684,631.341L206.03300000000002,636.737L211.36,641.17L217.45499999999998,644.466L224.08100000000002,646.497L230.977,647.183L237.873,646.497L244.499,644.466L250.595,641.17L255.921,636.737L260.27,631.341L263.471,625.195L263.922,620.788L264.291,616.373L264.578,611.952L264.783,607.527L264.906,603.099L264.947,598.669L264.906,594.239L264.783,589.811L264.578,585.386L264.291,580.965L263.922,576.55L263.471,572.143L243.94400000000002,397.23L248.94400000000002,397.23L295.959,794.457L272.959,794.457L272.959,724.407L271.529,713.541L267.335,703.415L260.663,694.72L251.96699999999998,688.048L241.84199999999998,683.854L230.976,682.423L220.109,683.854L209.984,688.048L201.288,694.72L194.61599999999999,703.415L190.422,713.541L188.992,724.407L188.992,794.457L165.992,794.457z"></path><path d="M-36,0L-30.97999999999999,0L-50.507000000000005,174.913L-50.958,179.32L-51.327,183.735L-51.614000000000004,188.156L-51.818,192.581L-51.941,197.009L-51.982,201.439L-51.941,205.869L-51.818,210.297L-51.614000000000004,214.722L-51.327,219.143L-50.958,223.558L-50.507000000000005,227.965L-47.306,234.111L-42.956999999999994,239.507L-37.629999999999995,243.94L-31.534999999999997,247.236L-24.908999999999992,249.267L-18.013000000000005,249.953L-11.11699999999999,249.267L-4.491000000000014,247.236L1.6049999999999898,243.94L6.931000000000012,239.507L11.280000000000001,234.111L14.480999999999995,227.965L14.931999999999988,223.558L15.300999999999988,219.143L15.587999999999994,214.722L15.793000000000006,210.297L15.915999999999997,205.869L15.956999999999994,201.439L15.915999999999997,197.009L15.793000000000006,192.581L15.587999999999994,188.156L15.300999999999988,183.735L14.931999999999988,179.32L14.480999999999995,174.913L-5.045999999999992,0L-0.04599999999999227,0L46.968999999999994,397.227L23.968999999999994,397.227L23.968999999999994,327.177L22.538999999999987,316.311L18.345,306.185L11.673000000000002,297.49L2.977000000000004,290.818L-7.147999999999996,286.624L-18.01400000000001,285.193L-28.881,286.624L-39.006,290.818L-47.702,297.49L-54.373999999999995,306.185L-58.568,316.311L-59.998000000000005,327.177L-59.998000000000005,397.227L-82.998,397.227z"></path><path d="M130,0L135.02,0L115.493,174.913L115.042,179.32L114.673,183.735L114.386,188.156L114.182,192.581L114.059,197.009L114.018,201.439L114.059,205.869L114.182,210.297L114.386,214.722L114.673,219.143L115.042,223.558L115.493,227.965L118.694,234.111L123.043,239.507L128.37,243.94L134.465,247.236L141.091,249.267L147.987,249.953L154.883,249.267L161.509,247.236L167.605,243.94L172.931,239.507L177.28,234.111L180.481,227.965L180.932,223.558L181.301,219.143L181.588,214.722L181.793,210.297L181.916,205.869L181.957,201.439L181.916,197.009L181.793,192.581L181.588,188.156L181.301,183.735L180.932,179.32L180.481,174.913L160.954,0L165.954,0L212.969,397.227L189.969,397.227L189.969,327.177L188.539,316.311L184.345,306.185L177.673,297.49L168.977,290.818L158.852,286.624L147.986,285.193L137.119,286.624L126.994,290.818L118.298,297.49L111.626,306.185L107.432,316.311L106.002,327.177L106.002,397.227L83.002,397.227z"></path><path d="M40.03,157.77L45.357,153.337L51.452,150.041L58.078,148.01L64.974,147.324L71.87,148.01L78.496,150.041L84.592,153.337L89.918,157.77L94.267,163.166L97.468,169.312L97.919,173.719L98.288,178.134L98.575,182.554L98.78,186.98L98.903,191.408L98.944,195.838L98.903,200.267L98.78,204.696L98.575,209.121L98.288,213.542L97.919,217.956L97.468,222.363L77.972,397.28L51.982,397.28L32.455,222.367L32.004,217.96L31.635,213.545L31.349,209.124L31.144,204.699L31.021,200.271L30.98,195.841L31.021,191.411L31.144,186.983L31.349,182.558L31.635,178.137L32.004,173.722L32.455,169.315L35.656,163.169z"></path><path d="M-59.989999999999995,397.23L24.00999999999999,397.23L24.00999999999999,467.28L22.579000000000008,478.146L18.38499999999999,488.272L11.712999999999994,496.967L3.0180000000000007,503.639L-7.108000000000004,507.833L-17.97399999999999,509.264L-28.840000000000003,507.833L-38.965999999999994,503.639L-47.661,496.967L-54.333,488.272L-58.527,478.146L-59.958,467.28z"></path><path d="M106.01,397.23L190.01,397.23L190.01,467.28L188.579,478.146L184.385,488.272L177.713,496.967L169.018,503.639L158.892,507.833L148.026,509.264L137.16,507.833L127.034,503.639L118.339,496.967L111.667,488.272L107.473,478.146L106.042,467.28z"></path><path d="M-47.69,297.48L-38.995000000000005,290.808L-28.869,286.614L-18.002999999999986,285.183L-7.1370000000000005,286.614L2.9890000000000043,290.808L11.683999999999997,297.48L18.355999999999995,306.175L22.55000000000001,316.301L23.980999999999995,327.167L23.980999999999995,397.217L-60.019000000000005,397.217L-60.019000000000005,327.167L-58.587999999999994,316.301L-54.394000000000005,306.175z"></path><path d="M118.31,297.48L127.005,290.808L137.131,286.614L147.997,285.183L158.863,286.614L168.989,290.808L177.684,297.48L184.356,306.175L188.55,316.301L189.981,327.167L189.981,397.217L105.981,397.217L105.981,327.167L107.412,316.301L111.606,306.175z"></path></svg>