<svg width="900" height="900" version="1.2" xmlns="http://www.w3.org/2000/svg" viewBox="0 0 900 900"><style type="text/css">path {stroke-width: 1; vector-effect: non-scaling-stroke; fill:none; stroke: #000; stroke-linecap: round; stroke-linejoin: miter;}</style><path d="M150,150L225,150L225,300L150,300z"></path><path d="M43.93,43.93L74.998,20.091L111.177,5.105L150.002,-0.006L150.002,149.994L0.002,149.994L5.113,111.169L20.099,74.99z"></path><path d="M43.93,943.93L74.998,920.091L111.177,905.105L150.002,899.994L150.002,1049.994L0.002,1049.994L5.113,1011.169L20.099,974.99z"></path><path d="M225,150L300,150L300,300L225,300z"></path><path d="M0,0L150,0L111.175,5.111L74.996,20.097L43.928,43.936L20.089,75.004L5.103,111.183L-0.008,150.008z"></path><path d="M900,0L1050,0L1011.175,5.111L974.996,20.097L943.928,43.936L920.0889999999999,75.004L905.103,111.183L899.992,150.008z"></path><path d="M0,150L150,150L150,300L111.175,294.889L74.996,279.903L43.928,256.064L20.089,224.996L5.103,188.817z"></path><path d="M150,0L188.825,5.111L225.004,20.097L256.072,43.936L279.911,75.004L294.897,111.183L300.008,150.008L225.008,150.008L150.008,150.008z"></path><path d="M150,0L300,0L300,150L294.889,111.175L279.903,74.996L256.064,43.928L224.996,20.089L188.817,5.103z"></path><path d="M0,150L5.111,188.825L20.097,225.004L43.936,256.072L75.004,279.911L111.183,294.897L150.008,300.008L0.008,300.008z"></path><path d="M450,75L600,75L600,150L450,150z"></path><path d="M300,150L450,150L450,300L411.175,294.889L374.996,279.903L343.928,256.064L320.089,224.996L305.103,188.817z"></path><path d="M450,0L600,0L600,75L450,75z"></path><path d="M300,150L305.111,188.825L320.097,225.004L343.936,256.072L375.004,279.911L411.183,294.897L450.008,300.008L300.008,300.008z"></path><path d="M450,150L600,150L594.889,188.825L579.903,225.004L556.064,256.072L524.996,279.911L488.817,294.897L449.992,300.008z"></path><path d="M343.93,43.93L374.998,20.091L411.177,5.105L450.002,-0.006L450.002,74.994L450.002,149.994L300.002,149.994L305.113,111.169L320.099,74.99z"></path><path d="M343.93,943.93L374.998,920.091L411.177,905.105L450.002,899.994L450.002,974.994L450.002,1049.994L300.002,1049.994L305.113,1011.169L320.099,974.99z"></path><path d="M300,0L450,0L411.175,5.111L374.996,20.097L343.928,43.936L320.089,75.004L305.103,111.183L299.992,150.008z"></path><path d="M488.82,294.89L524.999,279.904L556.067,256.065L579.906,224.997L594.892,188.818L600.003,149.993L600.003,299.993L450.003,299.993z"></path><path d="M600,150L750,150L750,225L600,225z"></path><path d="M-150,0L-111.17499999999995,5.111L-74.99599999999998,20.097L-43.928,43.936L-20.089000000000055,75.004L-5.102999999999952,111.183L0.008000000000038199,150.008L-149.99199999999996,150.008z"></path><path d="M750,0L788.825,5.111L825.004,20.097L856.072,43.936L879.911,75.004L894.897,111.183L900.008,150.008L750.008,150.008z"></path><path d="M600,225L750,225L750,300L600,300z"></path><path d="M750,0L900,0L900,150L894.889,111.175L879.903,74.996L856.064,43.928L824.996,20.089L788.817,5.103z"></path><path d="M643.93,43.93L674.998,20.091L711.177,5.105L750.002,-0.006L750.002,149.994L600.002,149.994L605.113,111.169L620.099,74.99z"></path><path d="M643.93,943.93L674.998,920.091L711.177,905.105L750.002,899.994L750.002,1049.994L600.002,1049.994L605.113,1011.169L620.099,974.99z"></path><path d="M750,150L900,150L894.889,188.825L879.903,225.004L856.064,256.072L824.996,279.911L788.817,294.897L749.992,300.008L749.992,225.008z"></path><path d="M-111.17999999999995,294.89L-75.00099999999998,279.904L-43.93299999999999,256.065L-20.09400000000005,224.997L-5.107999999999947,188.818L0.0030000000000427463,149.993L0.0030000000000427463,299.993L-149.99699999999996,299.993z"></path><path d="M788.82,294.89L824.999,279.904L856.067,256.065L879.906,224.997L894.892,188.818L900.003,149.993L900.003,299.993L750.003,299.993z"></path><path d="M600,0L750,0L711.175,5.111L674.996,20.097L643.928,43.936L620.089,75.004L605.103,111.183L599.992,150.008z"></path><path d="M450,450L525,450L525,600L450,600z"></path><path d="M343.93,343.93L374.998,320.091L411.177,305.105L450.002,299.994L450.002,449.994L300.002,449.994L305.113,411.169L320.099,374.99z"></path><path d="M525,450L600,450L600,600L525,600z"></path><path d="M300,300L450,300L411.175,305.111L374.996,320.097L343.928,343.936L320.089,375.004L305.103,411.183L299.992,450.008z"></path><path d="M300,450L450,450L450,600L411.175,594.889L374.996,579.903L343.928,556.064L320.089,524.996L305.103,488.817z"></path><path d="M450,300L488.825,305.111L525.004,320.097L556.072,343.936L579.911,375.004L594.897,411.183L600.008,450.008L525.008,450.008L450.008,450.008z"></path><path d="M450,300L600,300L600,450L594.889,411.175L579.903,374.996L556.064,343.928L524.996,320.089L488.817,305.103z"></path><path d="M300,450L305.111,488.825L320.097,525.004L343.936,556.072L375.004,579.911L411.183,594.897L450.008,600.008L300.008,600.008z"></path><path d="M0,450L150,450L150,525L0,525z"></path><path d="M150,300L188.825,305.111L225.004,320.097L256.072,343.936L279.911,375.004L294.897,411.183L300.008,450.008L150.008,450.008z"></path><path d="M0,525L150,525L150,600L0,600z"></path><path d="M150,300L300,300L300,450L294.889,411.175L279.903,374.996L256.064,343.928L224.996,320.089L188.817,305.103z"></path><path d="M43.93,343.93L74.998,320.091L111.177,305.105L150.002,299.994L150.002,449.994L0.002,449.994L5.113,411.169L20.099,374.99z"></path><path d="M150,450L300,450L294.889,488.825L279.903,525.004L256.064,556.072L224.996,579.911L188.817,594.897L149.992,600.008L149.992,525.008z"></path><path d="M188.82,594.89L224.999,579.904L256.067,556.065L279.906,524.997L294.892,488.818L300.003,449.993L300.003,599.993L150.003,599.993z"></path><path d="M0,300L150,300L111.175,305.111L74.996,320.097L43.928,343.936L20.089,375.004L5.103,411.183L-0.008,450.008z"></path><path d="M900,300L1050,300L1011.175,305.111L974.996,320.097L943.928,343.936L920.0889999999999,375.004L905.103,411.183L899.992,450.008z"></path><path d="M675,600L750,600L750,750L675,750z"></path><path d="M750,-150L900,-150L894.889,-111.17499999999995L879.903,-74.99599999999998L856.064,-43.928L824.996,-20.089000000000055L788.817,-5.102999999999952L749.992,0.008000000000038199z"></path><path d="M750,750L900,750L894.889,788.825L879.903,825.004L856.064,856.072L824.996,879.911L788.817,894.897L749.992,900.008z"></path><path d="M600,600L675,600L675,750L600,750z"></path><path d="M879.9,825L894.886,788.821L899.997,749.996L899.997,899.996L749.997,899.996L788.822,894.884L825.001,879.899L856.069,856.06z"></path><path d="M-150,600L-111.17499999999995,605.111L-74.99599999999998,620.097L-43.928,643.936L-20.089000000000055,675.004L-5.102999999999952,711.183L0.008000000000038199,750.008L-149.99199999999996,750.008z"></path><path d="M750,600L788.825,605.111L825.004,620.097L856.072,643.936L879.911,675.004L894.897,711.183L900.008,750.008L750.008,750.008z"></path><path d="M600,750L675,750L750,750L750,900L711.175,894.889L674.996,879.903L643.928,856.064L620.089,824.996L605.103,788.817z"></path><path d="M600,-150L605.111,-111.17499999999995L620.097,-74.99599999999998L643.936,-43.928L675.004,-20.089000000000055L711.183,-5.102999999999952L750.008,0.008000000000038199L600.008,0.008000000000038199z"></path><path d="M600,750L605.111,788.825L620.097,825.004L643.936,856.072L675.004,879.911L711.183,894.897L750.008,900.008L600.008,900.008z"></path><path d="M750,600L900,600L900,750L894.889,711.175L879.903,674.996L856.064,643.928L824.996,620.089L788.817,605.103z"></path><path d="M300,750L450,750L450,825L300,825z"></path><path d="M450,600L488.825,605.111L525.004,620.097L556.072,643.936L579.911,675.004L594.897,711.183L600.008,750.008L450.008,750.008z"></path><path d="M300,825L450,825L450,900L300,900z"></path><path d="M450,600L600,600L600,750L594.889,711.175L579.903,674.996L556.064,643.928L524.996,620.089L488.817,605.103z"></path><path d="M343.93,643.93L374.998,620.091L411.177,605.105L450.002,599.994L450.002,749.994L300.002,749.994L305.113,711.169L320.099,674.99z"></path><path d="M450,-150L600,-150L594.889,-111.17499999999995L579.903,-74.99599999999998L556.064,-43.928L524.996,-20.089000000000055L488.817,-5.102999999999952L449.992,0.008000000000038199L449.992,-74.99199999999996z"></path><path d="M450,750L600,750L594.889,788.825L579.903,825.004L556.064,856.072L524.996,879.911L488.817,894.897L449.992,900.008L449.992,825.008z"></path><path d="M488.82,894.89L524.999,879.904L556.067,856.065L579.906,824.997L594.892,788.818L600.003,749.993L600.003,899.993L450.003,899.993z"></path><path d="M300,600L450,600L411.175,605.111L374.996,620.097L343.928,643.936L320.089,675.004L305.103,711.183L299.992,750.008z"></path><path d="M750,450L825,450L825,600L750,600z"></path><path d="M643.93,343.93L674.998,320.091L711.177,305.105L750.002,299.994L750.002,449.994L600.002,449.994L605.113,411.169L620.099,374.99z"></path><path d="M825,450L900,450L900,600L825,600z"></path><path d="M600,300L750,300L711.175,305.111L674.996,320.097L643.928,343.936L620.089,375.004L605.103,411.183L599.992,450.008z"></path><path d="M600,450L750,450L750,600L711.175,594.889L674.996,579.903L643.928,556.064L620.089,524.996L605.103,488.817z"></path><path d="M-150,300L-111.17499999999995,305.111L-74.99599999999998,320.097L-43.928,343.936L-20.089000000000055,375.004L-5.102999999999952,411.183L0.008000000000038199,450.008L-74.99199999999996,450.008L-149.99199999999996,450.008z"></path><path d="M750,300L788.825,305.111L825.004,320.097L856.072,343.936L879.911,375.004L894.897,411.183L900.008,450.008L825.008,450.008L750.008,450.008z"></path><path d="M750,300L900,300L900,450L894.889,411.175L879.903,374.996L856.064,343.928L824.996,320.089L788.817,305.103z"></path><path d="M600,450L605.111,488.825L620.097,525.004L643.936,556.072L675.004,579.911L711.183,594.897L750.008,600.008L600.008,600.008z"></path><path d="M150,675L300,675L300,750L150,750z"></path><path d="M0,750L150,750L150,900L111.175,894.889L74.996,879.903L43.928,856.064L20.089,824.996L5.103,788.817z"></path><path d="M150,600L300,600L300,675L150,675z"></path><path d="M0,-150L5.111,-111.17499999999995L20.097,-74.99599999999998L43.936,-43.928L75.004,-20.089000000000055L111.183,-5.102999999999952L150.008,0.008000000000038199L0.008,0.008000000000038199z"></path><path d="M0,750L5.111,788.825L20.097,825.004L43.936,856.072L75.004,879.911L111.183,894.897L150.008,900.008L0.008,900.008z"></path><path d="M150,-150L300,-150L294.889,-111.17499999999995L279.903,-74.99599999999998L256.064,-43.928L224.996,-20.089000000000055L188.817,-5.102999999999952L149.992,0.008000000000038199z"></path><path d="M150,750L300,750L294.889,788.825L279.903,825.004L256.064,856.072L224.996,879.911L188.817,894.897L149.992,900.008z"></path><path d="M43.93,643.93L74.998,620.091L111.177,605.105L150.002,599.994L150.002,674.994L150.002,749.994L0.002,749.994L5.113,711.169L20.099,674.99z"></path><path d="M0,600L150,600L111.175,605.111L74.996,620.097L43.928,643.936L20.089,675.004L5.103,711.183L-0.008,750.008z"></path><path d="M900,600L1050,600L1011.175,605.111L974.996,620.097L943.928,643.936L920.0889999999999,675.004L905.103,711.183L899.992,750.008z"></path><path d="M188.82,894.89L224.999,879.904L256.067,856.065L279.906,824.997L294.892,788.818L300.003,749.993L300.003,899.993L150.003,899.993z"></path></svg>