<svg width="340" height="509" version="1.2" xmlns="http://www.w3.org/2000/svg" viewBox="0 0 340 509"><style type="text/css">path {stroke-width: 1; vector-effect: non-scaling-stroke; fill:none; stroke: #000; stroke-linecap: round; stroke-linejoin: miter;}</style><path d="M-152.61,85.17L-149.996,84.999L-104.99600000000001,84.999L-102.386,84.999L-102.386,84.829L-99.816,84.318L-97.33500000000001,83.475L-94.98500000000001,82.317L-92.80699999999999,80.861L-90.83699999999999,79.133L-89.10900000000001,77.164L-87.654,74.985L-86.495,72.635L-85.65299999999999,70.154L-85.142,67.585L-84.97,64.97L-84.97,19.97L-84.799,17.356L-84.28800000000001,14.786L-83.44600000000003,12.305L-82.28699999999998,9.956L-80.83100000000002,7.777L-79.10399999999998,5.807L-77.13400000000001,4.08L-74.95600000000002,2.624L-72.606,1.465L-70.125,0.623L-67.555,0.112L-64.94099999999997,-0.059L65.05900000000003,-0.059L67.67399999999998,0.112L70.243,0.623L72.72399999999999,1.465L75.07400000000001,2.624L77.25299999999999,4.08L79.22199999999998,5.807L80.94999999999999,7.777L82.40499999999997,9.956L83.56400000000002,12.305L84.406,14.786L84.918,17.356L85.089,19.97L85.089,64.97L85.25999999999999,67.585L85.77100000000002,70.154L86.61399999999998,72.635L87.77199999999999,74.985L89.22800000000001,77.164L90.95499999999998,79.133L92.92500000000001,80.861L95.10399999999998,82.317L97.45299999999997,83.475L99.93400000000003,84.318L102.50400000000002,84.829L105.118,85L150.118,85L152.733,85.171L155.303,85.682L157.78300000000002,86.525L160.13299999999998,87.683L162.312,89.139L164.28199999999998,90.867L166.00900000000001,92.836L167.46499999999997,95.015L168.623,97.365L169.466,99.846L169.97699999999998,102.415L170.14800000000002,105.03L170.14800000000002,235.03L169.97699999999998,237.644L169.466,240.214L168.623,242.695L167.46499999999997,245.044L166.00900000000001,247.223L164.28199999999998,249.193L162.312,250.92L160.13299999999998,252.376L157.78300000000002,253.535L155.303,254.377L152.733,254.888L150.118,255.059L105.118,255.059L102.50799999999998,255.059L102.50799999999998,255.229L99.93900000000002,255.74L97.45800000000003,256.583L95.108,257.741L92.93,259.197L90.95999999999998,260.924L89.23200000000003,262.894L87.77699999999999,265.073L86.618,267.423L85.77600000000001,269.903L85.26499999999999,272.473L85.09300000000002,275.088L85.09300000000002,320.088L84.92200000000003,322.702L84.411,325.272L83.56900000000002,327.753L82.41000000000003,330.102L80.95400000000001,332.281L79.22699999999998,334.251L77.257,335.978L75.07799999999997,337.434L72.72899999999998,338.592L70.24799999999999,339.435L67.678,339.946L65.06400000000002,340.117L-19.93599999999998,340.117L-64.93599999999998,340.117L-67.55099999999999,339.946L-70.12,339.435L-72.601,338.592L-74.95100000000002,337.434L-77.13,335.978L-79.09899999999999,334.251L-80.827,332.281L-82.28300000000002,330.102L-83.44099999999997,327.753L-84.28299999999999,325.272L-84.79499999999999,322.702L-84.96600000000001,320.088L-84.96600000000001,275.088L-85.137,272.473L-85.648,269.903L-86.49100000000001,267.423L-87.649,265.073L-89.10499999999999,262.894L-90.833,260.924L-92.80199999999999,259.197L-94.981,257.741L-97.33099999999999,256.583L-99.81200000000001,255.74L-102.381,255.229L-104.99600000000001,255.058L-149.996,255.058L-152.61,254.887L-155.18,254.375L-157.661,253.533L-160.01,252.374L-162.189,250.919L-164.159,249.191L-165.886,247.222L-167.342,245.043L-168.501,242.693L-169.343,240.212L-169.854,237.643L-170.025,235.028L-170.025,105.028L-169.854,102.414L-169.343,99.844L-168.501,97.363L-167.342,95.013L-165.886,92.835L-164.159,90.865L-162.189,89.138L-160.01,87.682L-157.661,86.523L-155.18,85.681z"></path><path d="M187.39,85.17L190.004,84.999L235.004,84.999L237.614,84.999L237.614,84.829L240.184,84.318L242.665,83.475L245.015,82.317L247.193,80.861L249.163,79.133L250.891,77.164L252.346,74.985L253.505,72.635L254.347,70.154L254.858,67.585L255.03,64.97L255.03,19.97L255.201,17.356L255.712,14.786L256.554,12.305L257.713,9.956L259.169,7.777L260.896,5.807L262.866,4.08L265.044,2.624L267.394,1.465L269.875,0.623L272.445,0.112L275.059,-0.059L405.059,-0.059L407.674,0.112L410.243,0.623L412.724,1.465L415.074,2.624L417.253,4.08L419.222,5.807L420.95,7.777L422.405,9.956L423.564,12.305L424.406,14.786L424.918,17.356L425.089,19.97L425.089,64.97L425.26,67.585L425.771,70.154L426.614,72.635L427.772,74.985L429.228,77.164L430.955,79.133L432.925,80.861L435.104,82.317L437.453,83.475L439.934,84.318L442.504,84.829L445.118,85L490.118,85L492.733,85.171L495.303,85.682L497.783,86.525L500.133,87.683L502.312,89.139L504.282,90.867L506.009,92.836L507.465,95.015L508.623,97.365L509.466,99.846L509.977,102.415L510.148,105.03L510.148,235.03L509.977,237.644L509.466,240.214L508.623,242.695L507.465,245.044L506.009,247.223L504.282,249.193L502.312,250.92L500.133,252.376L497.783,253.535L495.303,254.377L492.733,254.888L490.118,255.059L445.118,255.059L442.508,255.059L442.508,255.229L439.939,255.74L437.458,256.583L435.108,257.741L432.93,259.197L430.96,260.924L429.232,262.894L427.777,265.073L426.618,267.423L425.776,269.903L425.265,272.473L425.093,275.088L425.093,320.088L424.922,322.702L424.411,325.272L423.569,327.753L422.41,330.102L420.954,332.281L419.227,334.251L417.257,335.978L415.078,337.434L412.729,338.592L410.248,339.435L407.678,339.946L405.064,340.117L320.064,340.117L275.064,340.117L272.449,339.946L269.88,339.435L267.399,338.592L265.049,337.434L262.87,335.978L260.901,334.251L259.173,332.281L257.717,330.102L256.559,327.753L255.717,325.272L255.205,322.702L255.034,320.088L255.034,275.088L254.863,272.473L254.352,269.903L253.509,267.423L252.351,265.073L250.895,262.894L249.167,260.924L247.198,259.197L245.019,257.741L242.669,256.583L240.188,255.74L237.619,255.229L235.004,255.058L190.004,255.058L187.39,254.887L184.82,254.375L182.339,253.533L179.99,252.374L177.811,250.919L175.841,249.191L174.114,247.222L172.658,245.043L171.499,242.693L170.657,240.212L170.146,237.643L169.975,235.028L169.975,105.028L170.146,102.414L170.657,99.844L171.499,97.363L172.658,95.013L174.114,92.835L175.841,90.865L177.811,89.138L179.99,87.682L182.339,86.523L184.82,85.681z"></path><path d="M-152.61,594.17L-149.996,593.999L-104.99600000000001,593.999L-102.386,593.999L-102.386,593.829L-99.816,593.318L-97.33500000000001,592.475L-94.98500000000001,591.317L-92.80699999999999,589.861L-90.83699999999999,588.133L-89.10900000000001,586.164L-87.654,583.985L-86.495,581.635L-85.65299999999999,579.154L-85.142,576.585L-84.97,573.97L-84.97,528.97L-84.799,526.356L-84.28800000000001,523.786L-83.44600000000003,521.305L-82.28699999999998,518.956L-80.83100000000002,516.777L-79.10399999999998,514.807L-77.13400000000001,513.08L-74.95600000000002,511.624L-72.606,510.465L-70.125,509.623L-67.555,509.112L-64.94099999999997,508.941L65.05900000000003,508.941L67.67399999999998,509.112L70.243,509.623L72.72399999999999,510.465L75.07400000000001,511.624L77.25299999999999,513.08L79.22199999999998,514.807L80.94999999999999,516.777L82.40499999999997,518.956L83.56400000000002,521.305L84.406,523.786L84.918,526.356L85.089,528.97L85.089,573.97L85.25999999999999,576.585L85.77100000000002,579.154L86.61399999999998,581.635L87.77199999999999,583.985L89.22800000000001,586.164L90.95499999999998,588.133L92.92500000000001,589.861L95.10399999999998,591.317L97.45299999999997,592.475L99.93400000000003,593.318L102.50400000000002,593.829L105.118,594L150.118,594L152.733,594.171L155.303,594.682L157.78300000000002,595.525L160.13299999999998,596.683L162.312,598.139L164.28199999999998,599.867L166.00900000000001,601.836L167.46499999999997,604.015L168.623,606.365L169.466,608.846L169.97699999999998,611.415L170.14800000000002,614.03L170.14800000000002,744.03L169.97699999999998,746.644L169.466,749.2139999999999L168.623,751.6949999999999L167.46499999999997,754.044L166.00900000000001,756.223L164.28199999999998,758.193L162.312,759.92L160.13299999999998,761.376L157.78300000000002,762.535L155.303,763.377L152.733,763.888L150.118,764.059L105.118,764.059L102.50799999999998,764.059L102.50799999999998,764.229L99.93900000000002,764.74L97.45800000000003,765.5830000000001L95.108,766.741L92.93,768.197L90.95999999999998,769.924L89.23200000000003,771.894L87.77699999999999,774.073L86.618,776.423L85.77600000000001,778.903L85.26499999999999,781.473L85.09300000000002,784.088L85.09300000000002,829.088L84.92200000000003,831.702L84.411,834.2719999999999L83.56900000000002,836.7529999999999L82.41000000000003,839.102L80.95400000000001,841.281L79.22699999999998,843.251L77.257,844.9780000000001L75.07799999999997,846.434L72.72899999999998,847.592L70.24799999999999,848.435L67.678,848.946L65.06400000000002,849.117L-19.93599999999998,849.117L-64.93599999999998,849.117L-67.55099999999999,848.946L-70.12,848.435L-72.601,847.592L-74.95100000000002,846.434L-77.13,844.9780000000001L-79.09899999999999,843.251L-80.827,841.281L-82.28300000000002,839.102L-83.44099999999997,836.7529999999999L-84.28299999999999,834.2719999999999L-84.79499999999999,831.702L-84.96600000000001,829.088L-84.96600000000001,784.088L-85.137,781.473L-85.648,778.903L-86.49100000000001,776.423L-87.649,774.073L-89.10499999999999,771.894L-90.833,769.924L-92.80199999999999,768.197L-94.981,766.741L-97.33099999999999,765.5830000000001L-99.81200000000001,764.74L-102.381,764.229L-104.99600000000001,764.058L-149.996,764.058L-152.61,763.887L-155.18,763.375L-157.661,762.533L-160.01,761.374L-162.189,759.919L-164.159,758.191L-165.886,756.222L-167.342,754.043L-168.501,751.693L-169.343,749.212L-169.854,746.643L-170.025,744.028L-170.025,614.028L-169.854,611.414L-169.343,608.844L-168.501,606.363L-167.342,604.013L-165.886,601.835L-164.159,599.865L-162.189,598.138L-160.01,596.682L-157.661,595.523L-155.18,594.681z"></path><path d="M187.39,594.17L190.004,593.999L235.004,593.999L237.614,593.999L237.614,593.829L240.184,593.318L242.665,592.475L245.015,591.317L247.193,589.861L249.163,588.133L250.891,586.164L252.346,583.985L253.505,581.635L254.347,579.154L254.858,576.585L255.03,573.97L255.03,528.97L255.201,526.356L255.712,523.786L256.554,521.305L257.713,518.956L259.169,516.777L260.896,514.807L262.866,513.08L265.044,511.624L267.394,510.465L269.875,509.623L272.445,509.112L275.059,508.941L405.059,508.941L407.674,509.112L410.243,509.623L412.724,510.465L415.074,511.624L417.253,513.08L419.222,514.807L420.95,516.777L422.405,518.956L423.564,521.305L424.406,523.786L424.918,526.356L425.089,528.97L425.089,573.97L425.26,576.585L425.771,579.154L426.614,581.635L427.772,583.985L429.228,586.164L430.955,588.133L432.925,589.861L435.104,591.317L437.453,592.475L439.934,593.318L442.504,593.829L445.118,594L490.118,594L492.733,594.171L495.303,594.682L497.783,595.525L500.133,596.683L502.312,598.139L504.282,599.867L506.009,601.836L507.465,604.015L508.623,606.365L509.466,608.846L509.977,611.415L510.148,614.03L510.148,744.03L509.977,746.644L509.466,749.2139999999999L508.623,751.6949999999999L507.465,754.044L506.009,756.223L504.282,758.193L502.312,759.92L500.133,761.376L497.783,762.535L495.303,763.377L492.733,763.888L490.118,764.059L445.118,764.059L442.508,764.059L442.508,764.229L439.939,764.74L437.458,765.5830000000001L435.108,766.741L432.93,768.197L430.96,769.924L429.232,771.894L427.777,774.073L426.618,776.423L425.776,778.903L425.265,781.473L425.093,784.088L425.093,829.088L424.922,831.702L424.411,834.2719999999999L423.569,836.7529999999999L422.41,839.102L420.954,841.281L419.227,843.251L417.257,844.9780000000001L415.078,846.434L412.729,847.592L410.248,848.435L407.678,848.946L405.064,849.117L320.064,849.117L275.064,849.117L272.449,848.946L269.88,848.435L267.399,847.592L265.049,846.434L262.87,844.9780000000001L260.901,843.251L259.173,841.281L257.717,839.102L256.559,836.7529999999999L255.717,834.2719999999999L255.205,831.702L255.034,829.088L255.034,784.088L254.863,781.473L254.352,778.903L253.509,776.423L252.351,774.073L250.895,771.894L249.167,769.924L247.198,768.197L245.019,766.741L242.669,765.5830000000001L240.188,764.74L237.619,764.229L235.004,764.058L190.004,764.058L187.39,763.887L184.82,763.375L182.339,762.533L179.99,761.374L177.811,759.919L175.841,758.191L174.114,756.222L172.658,754.043L171.499,751.693L170.657,749.212L170.146,746.643L169.975,744.028L169.975,614.028L170.146,611.414L170.657,608.844L171.499,606.363L172.658,604.013L174.114,601.835L175.841,599.865L177.811,598.138L179.99,596.682L182.339,595.523L184.82,594.681z"></path><path d="M235,85L237.614,84.829L237.614,84.999z"></path><path d="M-254.82999999999998,-236.61L-254.31900000000002,-239.18L-253.477,-241.661L-252.31799999999998,-244.01L-250.862,-246.18900000000002L-249.135,-248.159L-247.16500000000002,-249.88600000000002L-244.987,-251.34199999999998L-242.637,-252.50099999999998L-240.156,-253.343L-237.586,-253.854L-234.97199999999998,-254.025L-149.972,-254.025L-104.97200000000001,-254.025L-102.357,-253.854L-99.78800000000001,-253.343L-97.30699999999999,-252.50099999999998L-94.957,-251.34199999999998L-92.77799999999999,-249.88600000000002L-90.809,-248.159L-89.08099999999999,-246.18900000000002L-87.626,-244.01L-86.46700000000001,-241.661L-85.625,-239.18L-85.113,-236.61L-84.94200000000001,-233.99599999999998L-84.94200000000001,-188.99599999999998L-84.77099999999999,-186.38099999999997L-84.25999999999999,-183.812L-83.41699999999997,-181.33100000000002L-82.25900000000001,-178.981L-80.803,-176.80200000000002L-79.07600000000002,-174.83300000000003L-77.106,-173.10500000000002L-74.92700000000002,-171.649L-72.577,-170.49099999999999L-70.09699999999998,-169.64800000000002L-67.52699999999999,-169.137L-64.91199999999998,-168.966L-19.911999999999978,-168.966L-17.298000000000002,-168.79500000000002L-14.728000000000009,-168.28300000000002L-12.247000000000014,-167.44099999999997L-9.898000000000025,-166.28300000000002L-7.718999999999994,-164.827L-5.749000000000024,-163.099L-4.021999999999991,-161.13L-2.565999999999974,-158.95100000000002L-1.4080000000000155,-156.601L-0.5649999999999977,-154.12L-0.053999999999973625,-151.551L0.11700000000001864,-148.93599999999998L0.11700000000001864,-18.93599999999998L-0.053999999999973625,-16.322000000000003L-0.5649999999999977,-13.75200000000001L-1.4080000000000155,-11.271000000000015L-2.565999999999974,-8.922000000000025L-4.021999999999991,-6.742999999999995L-5.749000000000024,-4.773000000000025L-7.718999999999994,-3.0459999999999923L-9.898000000000025,-1.589999999999975L-12.247000000000014,-0.4309999999999832L-14.728000000000009,0.41100000000000136L-17.298000000000002,0.9220000000000255L-19.911999999999978,1.0930000000000177L-64.91199999999998,1.0930000000000177L-67.52199999999999,1.0930000000000177L-67.52199999999999,1.2629999999999768L-70.09199999999998,1.774000000000001L-72.57299999999998,2.6170000000000186L-74.923,3.7749999999999773L-77.101,5.2309999999999945L-79.07100000000003,6.95799999999997L-80.79899999999998,8.927999999999997L-82.25400000000002,11.106999999999971L-83.41300000000001,13.456999999999994L-84.255,15.937000000000012L-84.76599999999999,18.506999999999948L-84.93799999999999,21.121999999999957L-84.93799999999999,66.12199999999996L-85.10900000000001,68.73599999999999L-85.62,71.30600000000004L-86.46199999999999,73.78700000000003L-87.62100000000001,76.13599999999997L-89.077,78.31500000000005L-90.804,80.28499999999997L-92.774,82.01199999999994L-94.953,83.46799999999996L-97.30199999999999,84.62599999999998L-99.78299999999999,85.46900000000005L-102.35300000000001,85.98000000000002L-104.96700000000001,86.15099999999995L-234.96699999999998,86.15099999999995L-237.582,85.98000000000002L-240.151,85.46900000000005L-242.632,84.62599999999998L-244.982,83.46799999999996L-247.161,82.01199999999994L-249.13,80.28499999999997L-250.858,78.31500000000005L-252.314,76.13599999999997L-253.47199999999998,73.78700000000003L-254.314,71.30600000000004L-254.826,68.73599999999999L-254.997,66.12199999999996L-254.997,21.121999999999957L-255.168,18.506999999999948L-255.679,15.937000000000012L-256.522,13.456999999999994L-257.68,11.106999999999971L-259.13599999999997,8.927999999999997L-260.86400000000003,6.95799999999997L-262.83299999999997,5.2309999999999945L-265.012,3.7749999999999773L-267.36199999999997,2.6170000000000186L-269.843,1.774000000000001L-272.41200000000003,1.2629999999999768L-275.027,1.0919999999999845L-320.027,1.0919999999999845L-322.641,0.9209999999999923L-325.211,0.4089999999999918L-327.692,-0.4329999999999927L-330.041,-1.5919999999999845L-332.22,-3.0470000000000255L-334.19,-4.774999999999977L-335.917,-6.744000000000028L-337.373,-8.923000000000002L-338.532,-11.273000000000025L-339.374,-13.754000000000019L-339.885,-16.32299999999998L-340.056,-18.937999999999988L-340.056,-148.938L-339.885,-151.55200000000002L-339.374,-154.122L-338.532,-156.603L-337.373,-158.95299999999997L-335.917,-161.13099999999997L-334.19,-163.101L-332.22,-164.82799999999997L-330.041,-166.284L-327.692,-167.44299999999998L-325.211,-168.28500000000003L-322.641,-168.796L-320.027,-168.96699999999998L-275.027,-168.96699999999998L-272.41700000000003,-168.96699999999998L-272.41700000000003,-169.137L-269.847,-169.64800000000002L-267.366,-170.49099999999999L-265.016,-171.649L-262.83799999999997,-173.10500000000002L-260.868,-174.83300000000003L-259.14,-176.80200000000002L-257.685,-178.981L-256.526,-181.33100000000002L-255.684,-183.812L-255.173,-186.38099999999997L-255.001,-188.99599999999998L-255.001,-233.99599999999998z"></path><path d="M85.17,-236.61L85.681,-239.18L86.523,-241.661L87.682,-244.01L89.138,-246.18900000000002L90.865,-248.159L92.835,-249.88600000000002L95.013,-251.34199999999998L97.363,-252.50099999999998L99.844,-253.343L102.414,-253.854L105.028,-254.025L190.028,-254.025L235.028,-254.025L237.643,-253.854L240.212,-253.343L242.693,-252.50099999999998L245.043,-251.34199999999998L247.222,-249.88600000000002L249.191,-248.159L250.919,-246.18900000000002L252.374,-244.01L253.533,-241.661L254.375,-239.18L254.887,-236.61L255.058,-233.99599999999998L255.058,-188.99599999999998L255.229,-186.38099999999997L255.74,-183.812L256.583,-181.33100000000002L257.741,-178.981L259.197,-176.80200000000002L260.924,-174.83300000000003L262.894,-173.10500000000002L265.073,-171.649L267.423,-170.49099999999999L269.903,-169.64800000000002L272.473,-169.137L275.088,-168.966L320.088,-168.966L322.702,-168.79500000000002L325.272,-168.28300000000002L327.753,-167.44099999999997L330.102,-166.28300000000002L332.281,-164.827L334.251,-163.099L335.978,-161.13L337.434,-158.95100000000002L338.592,-156.601L339.435,-154.12L339.946,-151.551L340.117,-148.93599999999998L340.117,-18.93599999999998L339.946,-16.322000000000003L339.435,-13.75200000000001L338.592,-11.271000000000015L337.434,-8.922000000000025L335.978,-6.742999999999995L334.251,-4.773000000000025L332.281,-3.0459999999999923L330.102,-1.589999999999975L327.753,-0.4309999999999832L325.272,0.41100000000000136L322.702,0.9220000000000255L320.088,1.0930000000000177L275.088,1.0930000000000177L272.478,1.0930000000000177L272.478,1.2629999999999768L269.908,1.774000000000001L267.427,2.6170000000000186L265.077,3.7749999999999773L262.899,5.2309999999999945L260.929,6.95799999999997L259.201,8.927999999999997L257.746,11.106999999999971L256.587,13.456999999999994L255.745,15.937000000000012L255.234,18.506999999999948L255.062,21.121999999999957L255.062,66.12199999999996L254.891,68.73599999999999L254.38,71.30600000000004L253.538,73.78700000000003L252.379,76.13599999999997L250.923,78.31500000000005L249.196,80.28499999999997L247.226,82.01199999999994L245.047,83.46799999999996L242.698,84.62599999999998L240.217,85.46900000000005L237.647,85.98000000000002L235.033,86.15099999999995L105.033,86.15099999999995L102.418,85.98000000000002L99.849,85.46900000000005L97.368,84.62599999999998L95.018,83.46799999999996L92.839,82.01199999999994L90.87,80.28499999999997L89.142,78.31500000000005L87.686,76.13599999999997L86.528,73.78700000000003L85.686,71.30600000000004L85.174,68.73599999999999L85.003,66.12199999999996L85.003,21.121999999999957L84.832,18.506999999999948L84.321,15.937000000000012L83.478,13.456999999999994L82.32,11.106999999999971L80.864,8.927999999999997L79.136,6.95799999999997L77.167,5.2309999999999945L74.988,3.7749999999999773L72.638,2.6170000000000186L70.157,1.774000000000001L67.588,1.2629999999999768L64.973,1.0919999999999845L19.973,1.0919999999999845L17.359,0.9209999999999923L14.789,0.4089999999999918L12.308,-0.4329999999999927L9.959,-1.5919999999999845L7.78,-3.0470000000000255L5.81,-4.774999999999977L4.083,-6.744000000000028L2.627,-8.923000000000002L1.468,-11.273000000000025L0.626,-13.754000000000019L0.115,-16.32299999999998L-0.056,-18.937999999999988L-0.056,-148.938L0.115,-151.55200000000002L0.626,-154.122L1.468,-156.603L2.627,-158.95299999999997L4.083,-161.13099999999997L5.81,-163.101L7.78,-164.82799999999997L9.959,-166.284L12.308,-167.44299999999998L14.789,-168.28500000000003L17.359,-168.796L19.973,-168.96699999999998L64.973,-168.96699999999998L67.583,-168.96699999999998L67.583,-169.137L70.153,-169.64800000000002L72.634,-170.49099999999999L74.984,-171.649L77.162,-173.10500000000002L79.132,-174.83300000000003L80.86,-176.80200000000002L82.315,-178.981L83.474,-181.33100000000002L84.316,-183.812L84.827,-186.38099999999997L84.999,-188.99599999999998L84.999,-233.99599999999998z"></path><path d="M425.17,-236.61L425.681,-239.18L426.523,-241.661L427.682,-244.01L429.13800000000003,-246.18900000000002L430.865,-248.159L432.835,-249.88600000000002L435.01300000000003,-251.34199999999998L437.363,-252.50099999999998L439.844,-253.343L442.414,-253.854L445.028,-254.025L530.028,-254.025L575.028,-254.025L577.643,-253.854L580.212,-253.343L582.693,-252.50099999999998L585.043,-251.34199999999998L587.222,-249.88600000000002L589.191,-248.159L590.919,-246.18900000000002L592.374,-244.01L593.533,-241.661L594.375,-239.18L594.887,-236.61L595.058,-233.99599999999998L595.058,-188.99599999999998L595.229,-186.38099999999997L595.74,-183.812L596.5830000000001,-181.33100000000002L597.741,-178.981L599.197,-176.80200000000002L600.924,-174.83300000000003L602.894,-173.10500000000002L605.073,-171.649L607.423,-170.49099999999999L609.903,-169.64800000000002L612.473,-169.137L615.088,-168.966L660.088,-168.966L662.702,-168.79500000000002L665.2719999999999,-168.28300000000002L667.7529999999999,-167.44099999999997L670.102,-166.28300000000002L672.281,-164.827L674.251,-163.099L675.9780000000001,-161.13L677.434,-158.95100000000002L678.592,-156.601L679.435,-154.12L679.946,-151.551L680.117,-148.93599999999998L680.117,-18.93599999999998L679.946,-16.322000000000003L679.435,-13.75200000000001L678.592,-11.271000000000015L677.434,-8.922000000000025L675.9780000000001,-6.742999999999995L674.251,-4.773000000000025L672.281,-3.0459999999999923L670.102,-1.589999999999975L667.7529999999999,-0.4309999999999832L665.2719999999999,0.41100000000000136L662.702,0.9220000000000255L660.088,1.0930000000000177L615.088,1.0930000000000177L612.4780000000001,1.0930000000000177L612.4780000000001,1.2629999999999768L609.908,1.774000000000001L607.427,2.6170000000000186L605.077,3.7749999999999773L602.899,5.2309999999999945L600.929,6.95799999999997L599.201,8.927999999999997L597.746,11.106999999999971L596.587,13.456999999999994L595.745,15.937000000000012L595.234,18.506999999999948L595.062,21.121999999999957L595.062,66.12199999999996L594.891,68.73599999999999L594.38,71.30600000000004L593.538,73.78700000000003L592.379,76.13599999999997L590.923,78.31500000000005L589.196,80.28499999999997L587.226,82.01199999999994L585.047,83.46799999999996L582.698,84.62599999999998L580.217,85.46900000000005L577.6469999999999,85.98000000000002L575.033,86.15099999999995L445.033,86.15099999999995L442.418,85.98000000000002L439.849,85.46900000000005L437.368,84.62599999999998L435.01800000000003,83.46799999999996L432.839,82.01199999999994L430.87,80.28499999999997L429.142,78.31500000000005L427.68600000000004,76.13599999999997L426.528,73.78700000000003L425.68600000000004,71.30600000000004L425.174,68.73599999999999L425.003,66.12199999999996L425.003,21.121999999999957L424.832,18.506999999999948L424.321,15.937000000000012L423.478,13.456999999999994L422.32,11.106999999999971L420.86400000000003,8.927999999999997L419.13599999999997,6.95799999999997L417.16700000000003,5.2309999999999945L414.988,3.7749999999999773L412.63800000000003,2.6170000000000186L410.157,1.774000000000001L407.58799999999997,1.2629999999999768L404.973,1.0919999999999845L359.973,1.0919999999999845L357.359,0.9209999999999923L354.789,0.4089999999999918L352.308,-0.4329999999999927L349.959,-1.5919999999999845L347.78,-3.0470000000000255L345.81,-4.774999999999977L344.083,-6.744000000000028L342.627,-8.923000000000002L341.468,-11.273000000000025L340.626,-13.754000000000019L340.115,-16.32299999999998L339.944,-18.937999999999988L339.944,-148.938L340.115,-151.55200000000002L340.626,-154.122L341.468,-156.603L342.627,-158.95299999999997L344.083,-161.13099999999997L345.81,-163.101L347.78,-164.82799999999997L349.959,-166.284L352.308,-167.44299999999998L354.789,-168.28500000000003L357.359,-168.796L359.973,-168.96699999999998L404.973,-168.96699999999998L407.58299999999997,-168.96699999999998L407.58299999999997,-169.137L410.153,-169.64800000000002L412.634,-170.49099999999999L414.984,-171.649L417.16200000000003,-173.10500000000002L419.132,-174.83300000000003L420.86,-176.80200000000002L422.315,-178.981L423.474,-181.33100000000002L424.31600000000003,-183.812L424.827,-186.38099999999997L424.999,-188.99599999999998L424.999,-233.99599999999998z"></path><path d="M-254.82999999999998,272.39L-254.31900000000002,269.82L-253.477,267.339L-252.31799999999998,264.99L-250.862,262.811L-249.135,260.841L-247.16500000000002,259.114L-244.987,257.658L-242.637,256.499L-240.156,255.657L-237.586,255.146L-234.97199999999998,254.975L-149.972,254.975L-104.97200000000001,254.975L-102.357,255.146L-99.78800000000001,255.657L-97.30699999999999,256.499L-94.957,257.658L-92.77799999999999,259.114L-90.809,260.841L-89.08099999999999,262.811L-87.626,264.99L-86.46700000000001,267.339L-85.625,269.82L-85.113,272.39L-84.94200000000001,275.004L-84.94200000000001,320.004L-84.77099999999999,322.619L-84.25999999999999,325.188L-83.41699999999997,327.669L-82.25900000000001,330.019L-80.803,332.198L-79.07600000000002,334.167L-77.106,335.895L-74.92700000000002,337.351L-72.577,338.509L-70.09699999999998,339.352L-67.52699999999999,339.863L-64.91199999999998,340.034L-19.911999999999978,340.034L-17.298000000000002,340.205L-14.728000000000009,340.717L-12.247000000000014,341.559L-9.898000000000025,342.717L-7.718999999999994,344.173L-5.749000000000024,345.901L-4.021999999999991,347.87L-2.565999999999974,350.049L-1.4080000000000155,352.399L-0.5649999999999977,354.88L-0.053999999999973625,357.449L0.11700000000001864,360.064L0.11700000000001864,490.064L-0.053999999999973625,492.678L-0.5649999999999977,495.248L-1.4080000000000155,497.729L-2.565999999999974,500.078L-4.021999999999991,502.257L-5.749000000000024,504.227L-7.718999999999994,505.954L-9.898000000000025,507.41L-12.247000000000014,508.569L-14.728000000000009,509.411L-17.298000000000002,509.922L-19.911999999999978,510.093L-64.91199999999998,510.093L-67.52199999999999,510.093L-67.52199999999999,510.263L-70.09199999999998,510.774L-72.57299999999998,511.617L-74.923,512.775L-77.101,514.231L-79.07100000000003,515.958L-80.79899999999998,517.928L-82.25400000000002,520.107L-83.41300000000001,522.457L-84.255,524.937L-84.76599999999999,527.507L-84.93799999999999,530.122L-84.93799999999999,575.122L-85.10900000000001,577.736L-85.62,580.306L-86.46199999999999,582.787L-87.62100000000001,585.136L-89.077,587.315L-90.804,589.285L-92.774,591.012L-94.953,592.468L-97.30199999999999,593.626L-99.78299999999999,594.469L-102.35300000000001,594.98L-104.96700000000001,595.151L-234.96699999999998,595.151L-237.582,594.98L-240.151,594.469L-242.632,593.626L-244.982,592.468L-247.161,591.012L-249.13,589.285L-250.858,587.315L-252.314,585.136L-253.47199999999998,582.787L-254.314,580.306L-254.826,577.736L-254.997,575.122L-254.997,530.122L-255.168,527.507L-255.679,524.937L-256.522,522.457L-257.68,520.107L-259.13599999999997,517.928L-260.86400000000003,515.958L-262.83299999999997,514.231L-265.012,512.775L-267.36199999999997,511.617L-269.843,510.774L-272.41200000000003,510.263L-275.027,510.092L-320.027,510.092L-322.641,509.921L-325.211,509.409L-327.692,508.567L-330.041,507.408L-332.22,505.953L-334.19,504.225L-335.917,502.256L-337.373,500.077L-338.532,497.727L-339.374,495.246L-339.885,492.677L-340.056,490.062L-340.056,360.062L-339.885,357.448L-339.374,354.878L-338.532,352.397L-337.373,350.047L-335.917,347.869L-334.19,345.899L-332.22,344.172L-330.041,342.716L-327.692,341.557L-325.211,340.715L-322.641,340.204L-320.027,340.033L-275.027,340.033L-272.41700000000003,340.033L-272.41700000000003,339.863L-269.847,339.352L-267.366,338.509L-265.016,337.351L-262.83799999999997,335.895L-260.868,334.167L-259.14,332.198L-257.685,330.019L-256.526,327.669L-255.684,325.188L-255.173,322.619L-255.001,320.004L-255.001,275.004z"></path><path d="M85.17,272.39L85.681,269.82L86.523,267.339L87.682,264.99L89.138,262.811L90.865,260.841L92.835,259.114L95.013,257.658L97.363,256.499L99.844,255.657L102.414,255.146L105.028,254.975L190.028,254.975L235.028,254.975L237.643,255.146L240.212,255.657L242.693,256.499L245.043,257.658L247.222,259.114L249.191,260.841L250.919,262.811L252.374,264.99L253.533,267.339L254.375,269.82L254.887,272.39L255.058,275.004L255.058,320.004L255.229,322.619L255.74,325.188L256.583,327.669L257.741,330.019L259.197,332.198L260.924,334.167L262.894,335.895L265.073,337.351L267.423,338.509L269.903,339.352L272.473,339.863L275.088,340.034L320.088,340.034L322.702,340.205L325.272,340.717L327.753,341.559L330.102,342.717L332.281,344.173L334.251,345.901L335.978,347.87L337.434,350.049L338.592,352.399L339.435,354.88L339.946,357.449L340.117,360.064L340.117,490.064L339.946,492.678L339.435,495.248L338.592,497.729L337.434,500.078L335.978,502.257L334.251,504.227L332.281,505.954L330.102,507.41L327.753,508.569L325.272,509.411L322.702,509.922L320.088,510.093L275.088,510.093L272.478,510.093L272.478,510.263L269.908,510.774L267.427,511.617L265.077,512.775L262.899,514.231L260.929,515.958L259.201,517.928L257.746,520.107L256.587,522.457L255.745,524.937L255.234,527.507L255.062,530.122L255.062,575.122L254.891,577.736L254.38,580.306L253.538,582.787L252.379,585.136L250.923,587.315L249.196,589.285L247.226,591.012L245.047,592.468L242.698,593.626L240.217,594.469L237.647,594.98L235.033,595.151L105.033,595.151L102.418,594.98L99.849,594.469L97.368,593.626L95.018,592.468L92.839,591.012L90.87,589.285L89.142,587.315L87.686,585.136L86.528,582.787L85.686,580.306L85.174,577.736L85.003,575.122L85.003,530.122L84.832,527.507L84.321,524.937L83.478,522.457L82.32,520.107L80.864,517.928L79.136,515.958L77.167,514.231L74.988,512.775L72.638,511.617L70.157,510.774L67.588,510.263L64.973,510.092L19.973,510.092L17.359,509.921L14.789,509.409L12.308,508.567L9.959,507.408L7.78,505.953L5.81,504.225L4.083,502.256L2.627,500.077L1.468,497.727L0.626,495.246L0.115,492.677L-0.056,490.062L-0.056,360.062L0.115,357.448L0.626,354.878L1.468,352.397L2.627,350.047L4.083,347.869L5.81,345.899L7.78,344.172L9.959,342.716L12.308,341.557L14.789,340.715L17.359,340.204L19.973,340.033L64.973,340.033L67.583,340.033L67.583,339.863L70.153,339.352L72.634,338.509L74.984,337.351L77.162,335.895L79.132,334.167L80.86,332.198L82.315,330.019L83.474,327.669L84.316,325.188L84.827,322.619L84.999,320.004L84.999,275.004z"></path><path d="M425.17,272.39L425.681,269.82L426.523,267.339L427.682,264.99L429.13800000000003,262.811L430.865,260.841L432.835,259.114L435.01300000000003,257.658L437.363,256.499L439.844,255.657L442.414,255.146L445.028,254.975L530.028,254.975L575.028,254.975L577.643,255.146L580.212,255.657L582.693,256.499L585.043,257.658L587.222,259.114L589.191,260.841L590.919,262.811L592.374,264.99L593.533,267.339L594.375,269.82L594.887,272.39L595.058,275.004L595.058,320.004L595.229,322.619L595.74,325.188L596.5830000000001,327.669L597.741,330.019L599.197,332.198L600.924,334.167L602.894,335.895L605.073,337.351L607.423,338.509L609.903,339.352L612.473,339.863L615.088,340.034L660.088,340.034L662.702,340.205L665.2719999999999,340.717L667.7529999999999,341.559L670.102,342.717L672.281,344.173L674.251,345.901L675.9780000000001,347.87L677.434,350.049L678.592,352.399L679.435,354.88L679.946,357.449L680.117,360.064L680.117,490.064L679.946,492.678L679.435,495.248L678.592,497.729L677.434,500.078L675.9780000000001,502.257L674.251,504.227L672.281,505.954L670.102,507.41L667.7529999999999,508.569L665.2719999999999,509.411L662.702,509.922L660.088,510.093L615.088,510.093L612.4780000000001,510.093L612.4780000000001,510.263L609.908,510.774L607.427,511.617L605.077,512.775L602.899,514.231L600.929,515.958L599.201,517.928L597.746,520.107L596.587,522.457L595.745,524.937L595.234,527.507L595.062,530.122L595.062,575.122L594.891,577.736L594.38,580.306L593.538,582.787L592.379,585.136L590.923,587.315L589.196,589.285L587.226,591.012L585.047,592.468L582.698,593.626L580.217,594.469L577.6469999999999,594.98L575.033,595.151L445.033,595.151L442.418,594.98L439.849,594.469L437.368,593.626L435.01800000000003,592.468L432.839,591.012L430.87,589.285L429.142,587.315L427.68600000000004,585.136L426.528,582.787L425.68600000000004,580.306L425.174,577.736L425.003,575.122L425.003,530.122L424.832,527.507L424.321,524.937L423.478,522.457L422.32,520.107L420.86400000000003,517.928L419.13599999999997,515.958L417.16700000000003,514.231L414.988,512.775L412.63800000000003,511.617L410.157,510.774L407.58799999999997,510.263L404.973,510.092L359.973,510.092L357.359,509.921L354.789,509.409L352.308,508.567L349.959,507.408L347.78,505.953L345.81,504.225L344.083,502.256L342.627,500.077L341.468,497.727L340.626,495.246L340.115,492.677L339.944,490.062L339.944,360.062L340.115,357.448L340.626,354.878L341.468,352.397L342.627,350.047L344.083,347.869L345.81,345.899L347.78,344.172L349.959,342.716L352.308,341.557L354.789,340.715L357.359,340.204L359.973,340.033L404.973,340.033L407.58299999999997,340.033L407.58299999999997,339.863L410.153,339.352L412.634,338.509L414.984,337.351L417.16200000000003,335.895L419.132,334.167L420.86,332.198L422.315,330.019L423.474,327.669L424.31600000000003,325.188L424.827,322.619L424.999,320.004L424.999,275.004z"></path><path d="M102.38999999999999,255L105,255L102.38600000000002,255.171z"></path><path d="M272.39,1L275,1L272.386,1.1709999999999923z"></path><path d="M65,340L67.614,339.829L67.614,339.999z"></path></svg>