<svg width="96" height="96" version="1.2" xmlns="http://www.w3.org/2000/svg" viewBox="0 0 96 96"><style type="text/css">path {stroke-width: 1; vector-effect: non-scaling-stroke; fill:none; stroke: #000; stroke-linecap: round; stroke-linejoin: miter;}</style><path d="M-12,48L12,48L12,84L0,84L-12,84L-12,60z"></path><path d="M84,48L108,48L108,84L96,84L84,84L84,60z"></path><path d="M60,60L84,60L84,84L60,84z"></path><path d="M60,-12L84,-12L96,-12L96,12L84,12L60,12z"></path><path d="M60,84L84,84L96,84L96,108L84,108L60,108z"></path><path d="M-12,12L0,12L12,12L12,48L-12,48z"></path><path d="M84,12L96,12L108,12L108,48L84,48z"></path><path d="M36,0L60,0L60,12L60,36L48,36L36,36L36,12z"></path><path d="M12,12L36,12L36,36L12,36z"></path><path d="M12,36L36,36L48,36L48,60L36,60L12,60z"></path><path d="M36,60L48,60L60,60L60,96L36,96z"></path><path d="M48,36L60,36L84,36L84,60L60,60L48,60z"></path><path d="M60,12L84,12L84,36L60,36z"></path><path d="M0,-12L12,-12L36,-12L36,12L0,12z"></path><path d="M0,84L12,84L36,84L36,108L0,108z"></path><path d="M12,60L36,60L36,84L12,84z"></path></svg>