<svg width="120" height="430" version="1.2" xmlns="http://www.w3.org/2000/svg" viewBox="0 0 120 430"><style type="text/css">path {stroke-width: 1; vector-effect: non-scaling-stroke; fill:none; stroke: #000; stroke-linecap: round; stroke-linejoin: miter;}</style><path d="M0,180L60,180L60,430L0,430z"></path><path d="M60,180L120,180L120,430L60,430z"></path><path d="M0,60L60,60L120,60L120,120L60,120L0,120z"></path><path d="M60,0L120,0L120,60L60,60z"></path><path d="M0,0L60,0L60,60L0,60z"></path><path d="M60,120L120,120L120,180L60,180z"></path><path d="M0,120L60,120L60,180L0,180z"></path></svg>