<svg width="600" height="600" version="1.2" xmlns="http://www.w3.org/2000/svg" viewBox="0 0 600 600"><style type="text/css">path {stroke-width: 1; vector-effect: non-scaling-stroke; fill:none; stroke: #000; stroke-linecap: round; stroke-linejoin: miter;}</style><path d="M0,400L199.998,599.998L-0.002,599.998z"></path><path d="M600,400L799.998,599.998L599.998,599.998z"></path><path d="M0,200L200,200L100.001,299.999z"></path><path d="M200,0L400,0L300.001,99.999z"></path><path d="M200,400L299.999,499.999L200,599.998z"></path><path d="M400,0L600,0L600,200z"></path><path d="M100,300L199.999,200.001L199.999,400.001z"></path><path d="M400,0L400,200L300.001,100.001z"></path><path d="M400,0L599.998,-199.998L599.998,0.0019999999999527063z"></path><path d="M400,600L599.998,400.002L599.998,600.002z"></path><path d="M0,0L200,0L0.002,199.998z"></path><path d="M0,200L99.999,299.999L0,399.998z"></path><path d="M200,600L299.999,500.001L399.998,600z"></path><path d="M500,300L599.999,200.001L599.999,400.001z"></path><path d="M200,200L400,200L400,400L200,400z"></path><path d="M100,300L199.999,399.999L-0.001,399.999z"></path><path d="M700,300L799.999,399.999L599.999,399.999z"></path><path d="M400,400L400,600L300.001,500.001z"></path><path d="M0,400L200,400L200,600z"></path><path d="M200,400L400,400L300.001,499.999z"></path><path d="M400,400L600,400L400.002,599.998z"></path><path d="M400,200L499.999,299.999L400,399.998z"></path><path d="M400,200L600,200L500.001,299.999z"></path><path d="M400,0L599.998,199.998L399.998,199.998z"></path><path d="M200,200L299.999,100.001L399.998,200z"></path><path d="M500,300L599.999,399.999L399.999,399.999z"></path><path d="M200,0L299.999,99.999L200,199.998z"></path><path d="M0,200L199.998,0.002L199.998,200.002z"></path></svg>