<svg width="850" height="680" version="1.2" xmlns="http://www.w3.org/2000/svg" viewBox="0 0 850 680"><style type="text/css">path {stroke-width: 1; vector-effect: non-scaling-stroke; fill:none; stroke: #000; stroke-linecap: round; stroke-linejoin: miter;}</style><path d="M0,170L85,170L170,170L170,255L170,340L0,340z"></path><path d="M0,0L85,0L85,170L0,170z"></path><path d="M340,595L510,595L510,680L340,680z"></path><path d="M170,255L255,255L255,425L170,425L170,340z"></path><path d="M595,255L680,255L680,340L680,425L595,425z"></path><path d="M255,255L340,255L425,255L425,425L340,425L255,425z"></path><path d="M170,170L255,170L340,170L340,255L255,255L170,255z"></path><path d="M595,0L765,0L765,170L680,170L595,170z"></path><path d="M340,85L510,85L510,170L510,255L425,255L340,255L340,170z"></path><path d="M595,510L680,510L765,510L765,680L595,680z"></path><path d="M255,0L340,0L340,85L340,170L255,170z"></path><path d="M340,425L425,425L510,425L510,510L510,595L340,595L340,510z"></path><path d="M340,0L510,0L510,85L340,85z"></path><path d="M510,170L595,170L680,170L680,255L595,255L510,255z"></path><path d="M255,510L340,510L340,595L340,680L255,680z"></path><path d="M0,510L85,510L85,680L0,680z"></path><path d="M680,340L850,340L850,510L765,510L680,510L680,425z"></path><path d="M170,425L255,425L340,425L340,510L255,510L170,510z"></path><path d="M0,340L170,340L170,425L170,510L85,510L0,510z"></path><path d="M680,170L765,170L850,170L850,340L680,340L680,255z"></path><path d="M765,510L850,510L850,680L765,680z"></path><path d="M85,510L170,510L255,510L255,680L85,680z"></path><path d="M510,0L595,0L595,170L510,170L510,85z"></path><path d="M85,0L255,0L255,170L170,170L85,170z"></path><path d="M765,0L850,0L850,170L765,170z"></path><path d="M510,510L595,510L595,680L510,680L510,595z"></path><path d="M510,425L595,425L680,425L680,510L595,510L510,510z"></path><path d="M425,255L510,255L595,255L595,425L510,425L425,425z"></path></svg>