<svg width="706" height="706" version="1.2" xmlns="http://www.w3.org/2000/svg" viewBox="0 0 706 706"><style type="text/css">path {stroke-width: 1; vector-effect: non-scaling-stroke; fill:none; stroke: #000; stroke-linecap: round; stroke-linejoin: miter;}</style><path d="M82.96,-175.03999999999996L177.96,-175.03999999999996L177.96,-270.04L259.454,-352.998L340.949,-270.04L340.949,-175.03999999999996L435.949,-175.03999999999996L518.907,-93.54600000000005L435.949,-12.051000000000045L340.949,-12.051000000000045L340.949,82.94899999999996L259.454,165.90700000000004L177.96,82.94899999999996L177.96,-12.051000000000045L82.96,-12.051000000000045L0.002,-93.54600000000005z"></path><path d="M82.96,530.96L177.96,530.96L177.96,435.96L259.454,353.002L340.949,435.96L340.949,530.96L435.949,530.96L518.907,612.454L435.949,693.949L340.949,693.949L340.949,788.949L259.454,871.907L177.96,788.949L177.96,693.949L82.96,693.949L0.002,612.454z"></path><path d="M82.96,-12.039999999999964L177.96,-12.039999999999964L177.96,82.96000000000004L82.96,82.96000000000004z"></path><path d="M82.96,693.96L177.96,693.96L177.96,788.96L82.96,788.96z"></path><path d="M340.96,-12.039999999999964L435.96,-12.039999999999964L435.96,82.96000000000004L340.96,82.96000000000004z"></path><path d="M340.96,693.96L435.96,693.96L435.96,788.96L340.96,788.96z"></path><path d="M82.96,435.96L177.96,435.96L177.96,530.96L82.96,530.96z"></path><path d="M340.96,435.96L435.96,435.96L435.96,530.96L340.96,530.96z"></path><path d="M-270.04,-270.04L-175.03999999999996,-270.04L-93.54600000000005,-187.082L-12.051000000000045,-270.04L82.94899999999996,-270.04L82.94899999999996,-175.03999999999996L-0.009999999999990905,-93.54600000000005L82.94899999999996,-12.051000000000045L82.94899999999996,82.94899999999996L-12.051000000000045,82.94899999999996L-93.54600000000005,-0.009999999999990905L-175.03999999999996,82.94899999999996L-270.04,82.94899999999996L-270.04,-12.051000000000045L-187.082,-93.54600000000005L-270.04,-175.03999999999996z"></path><path d="M435.96,-270.04L530.96,-270.04L612.454,-187.082L693.949,-270.04L788.949,-270.04L788.949,-175.03999999999996L705.99,-93.54600000000005L788.949,-12.051000000000045L788.949,82.94899999999996L693.949,82.94899999999996L612.454,-0.009999999999990905L530.96,82.94899999999996L435.96,82.94899999999996L435.96,-12.051000000000045L518.918,-93.54600000000005L435.96,-175.03999999999996z"></path><path d="M-270.04,435.96L-175.03999999999996,435.96L-93.54600000000005,518.918L-12.051000000000045,435.96L82.94899999999996,435.96L82.94899999999996,530.96L-0.009999999999990905,612.454L82.94899999999996,693.949L82.94899999999996,788.949L-12.051000000000045,788.949L-93.54600000000005,705.99L-175.03999999999996,788.949L-270.04,788.949L-270.04,693.949L-187.082,612.454L-270.04,530.96z"></path><path d="M435.96,435.96L530.96,435.96L612.454,518.918L693.949,435.96L788.949,435.96L788.949,530.96L705.99,612.454L788.949,693.949L788.949,788.949L693.949,788.949L612.454,705.99L530.96,788.949L435.96,788.949L435.96,693.949L518.918,612.454L435.96,530.96z"></path><path d="M-270.04,177.96L-175.03999999999996,177.96L-175.03999999999996,82.96L-93.54600000000005,0.002L-12.051000000000045,82.96L-12.051000000000045,177.96L82.94899999999996,177.96L165.90700000000004,259.454L82.94899999999996,340.949L-12.051000000000045,340.949L-12.051000000000045,435.949L-93.54600000000005,518.907L-175.03999999999996,435.949L-175.03999999999996,340.949L-270.04,340.949L-352.998,259.454z"></path><path d="M435.96,177.96L530.96,177.96L530.96,82.96L612.454,0.002L693.949,82.96L693.949,177.96L788.949,177.96L871.907,259.454L788.949,340.949L693.949,340.949L693.949,435.949L612.454,518.907L530.96,435.949L530.96,340.949L435.96,340.949L353.002,259.454z"></path><path d="M435.96,340.96L530.96,340.96L530.96,435.96L435.96,435.96z"></path><path d="M-12.039999999999964,340.96L82.96000000000004,340.96L82.96000000000004,435.96L-12.039999999999964,435.96z"></path><path d="M693.96,340.96L788.96,340.96L788.96,435.96L693.96,435.96z"></path><path d="M435.96,82.96L530.96,82.96L530.96,177.96L435.96,177.96z"></path><path d="M-12.039999999999964,82.96L82.96000000000004,82.96L82.96000000000004,177.96L-12.039999999999964,177.96z"></path><path d="M693.96,82.96L788.96,82.96L788.96,177.96L693.96,177.96z"></path><path d="M82.96,82.96L177.96,82.96L259.454,165.918L340.949,82.96L435.949,82.96L435.949,177.96L352.99,259.454L435.949,340.949L435.949,435.949L340.949,435.949L259.454,352.99L177.96,435.949L82.96,435.949L82.96,340.949L165.918,259.454L82.96,177.96z"></path></svg>