<svg width="420" height="811" version="1.2" xmlns="http://www.w3.org/2000/svg" viewBox="0 0 420 811"><style type="text/css">path {stroke-width: 1; vector-effect: non-scaling-stroke; fill:none; stroke: #000; stroke-linecap: round; stroke-linejoin: miter;}</style><path d="M211.21,0L230.5,0L230.5,79.5L230.5,84.92L229.163,83.745L227.683,82.756L226.087,81.968L224.402,81.395L222.656,81.048L220.88,80.931L219.103,81.048L217.358,81.395L215.672,81.968L214.076,82.756L212.597,83.745L211.259,84.92L211.259,79.5z"></path><path d="M103.43,192.69L211.207,84.913L212.545,83.738L214.024,82.749L215.62,81.961L217.306,81.388L219.051,81.04L220.828,80.924L222.604,81.04L224.35,81.388L226.035,81.961L227.631,82.749L229.111,83.738L230.448,84.913L338.225,192.69L339.425,194.058L340.436,195.572L341.241,197.204L341.826,198.927L342.181,200.712L342.3,202.528L342.181,204.345L341.826,206.13L341.241,207.853L340.436,209.485L339.425,210.999L338.225,212.367L230.448,320.144L229.111,321.319L227.631,322.308L226.035,323.096L224.35,323.669L222.604,324.017L220.828,324.133L219.051,324.017L217.306,323.669L215.62,323.096L214.024,322.308L212.545,321.319L211.207,320.144L103.43,212.367L101.125,210.062L100.785,209.655L99.807,208.026L99.091,206.266L98.654,204.417L98.508,202.523L98.654,200.628L99.091,198.779L99.807,197.019L100.785,195.39L101.125,194.984z"></path><path d="M0,119.75L20,119.75L20,279.83L0,279.83z"></path><path d="M102,193.95L103.427,192.696L101.122,195.001z"></path><path d="M101.13,210.09L103.435,212.395L102.008,211.141z"></path><path d="M102,599.99L103.427,598.736L101.122,601.041z"></path><path d="M101.13,616.13L103.435,618.435L102.008,617.181z"></path><path d="M0,531.3L20,531.3L20,691.38L0,691.38z"></path><path d="M20,-691.25L144.999,-810.995L211.209,-810.995L211.209,-731.495L211.209,-726.075L103.432,-618.297L102.005,-617.043L101.127,-615.992L100.787,-615.585L99.809,-613.956L99.093,-612.196L98.657,-610.347L98.51,-608.452L98.657,-606.558L99.093,-604.7090000000001L99.809,-602.9490000000001L100.787,-601.3199999999999L101.127,-600.913L102.005,-599.862L103.432,-598.608L211.209,-490.83L211.209,-320.05L103.432,-212.27300000000002L102.005,-211.019L101.127,-209.96699999999998L100.787,-209.55999999999995L99.809,-207.93200000000002L99.093,-206.17200000000003L98.657,-204.32299999999998L98.51,-202.428L98.657,-200.534L99.093,-198.68499999999995L99.809,-196.92499999999995L100.787,-195.29600000000005L101.127,-194.889L102.005,-193.837L103.432,-192.58299999999997L211.209,-84.80600000000004L211.209,-79.38599999999997L211.209,0.11400000000003274L144.999,0.11400000000003274L20,-119.63099999999997L20,-279.711L125.627,-389.665L128.358,-392.206L130.681,-395.125L132.543,-398.356L133.903,-401.83L134.732,-405.466L133.903,-409.103L132.543,-412.576L130.681,-415.808L128.358,-418.727L125.627,-421.267L20,-531.222z"></path><path d="M20,119.75L144.999,0.005L211.209,0.005L211.209,79.505L211.209,84.925L103.432,192.703L102.005,193.957L101.127,195.008L100.787,195.415L99.809,197.044L99.093,198.804L98.657,200.653L98.51,202.548L98.657,204.442L99.093,206.291L99.809,208.051L100.787,209.68L101.127,210.087L102.005,211.138L103.432,212.392L211.209,320.17L211.209,490.95L103.432,598.727L102.005,599.981L101.127,601.033L100.787,601.44L99.809,603.068L99.093,604.828L98.657,606.677L98.51,608.572L98.657,610.466L99.093,612.315L99.809,614.075L100.787,615.704L101.127,616.111L102.005,617.163L103.432,618.417L211.209,726.194L211.209,731.614L211.209,811.114L144.999,811.114L20,691.369L20,531.289L125.627,421.335L128.358,418.794L130.681,415.875L132.543,412.644L133.903,409.17L134.732,405.534L133.903,401.897L132.543,398.424L130.681,395.192L128.358,392.273L125.627,389.733L20,279.778z"></path><path d="M103.43,598.74L211.207,490.963L212.545,489.788L214.024,488.799L215.62,488.011L217.306,487.438L219.051,487.09L220.828,486.974L222.604,487.09L224.35,487.438L226.035,488.011L227.631,488.799L229.111,489.788L230.448,490.963L338.225,598.74L339.425,600.108L340.436,601.622L341.241,603.254L341.826,604.977L342.181,606.762L342.3,608.578L342.181,610.395L341.826,612.18L341.241,613.903L340.436,615.535L339.425,617.049L338.225,618.417L230.448,726.194L229.111,727.369L227.631,728.358L226.035,729.146L224.35,729.719L222.604,730.067L220.828,730.183L219.051,730.067L217.306,729.719L215.62,729.146L214.024,728.358L212.545,727.369L211.207,726.194L103.43,618.417L101.125,616.112L100.785,615.705L99.807,614.076L99.091,612.316L98.654,610.467L98.508,608.573L98.654,606.678L99.091,604.829L99.807,603.069L100.785,601.44L101.125,601.034z"></path><path d="M211.21,320.18L212.547,321.355L214.027,322.344L215.623,323.132L217.308,323.705L219.054,324.052L220.83,324.169L222.607,324.052L224.352,323.705L226.038,323.132L227.634,322.344L229.113,321.355L230.451,320.18L230.451,490.96L229.113,489.785L227.634,488.796L226.038,488.008L224.352,487.435L222.607,487.088L220.83,486.971L219.054,487.088L217.308,487.435L215.623,488.008L214.027,488.796L212.547,489.785L211.21,490.96z"></path><path d="M211.21,-84.77999999999997L212.547,-83.60500000000002L214.027,-82.61599999999999L215.623,-81.82799999999997L217.308,-81.255L219.054,-80.90800000000002L220.83,-80.79100000000005L222.607,-80.90800000000002L224.352,-81.255L226.038,-81.82799999999997L227.634,-82.61599999999999L229.113,-83.60500000000002L230.451,-84.77999999999997L230.451,-79.36000000000001L230.451,0.13999999999998636L211.161,0.13999999999998636L211.161,-79.36000000000001z"></path><path d="M211.21,726.22L212.547,727.395L214.027,728.384L215.623,729.172L217.308,729.745L219.054,730.092L220.83,730.209L222.607,730.092L224.352,729.745L226.038,729.172L227.634,728.384L229.113,727.395L230.451,726.22L230.451,731.64L230.451,811.14L211.161,811.14L211.161,731.64z"></path><path d="M230.51,-811L295,-811L419.999,-691.255L419.999,-531.175L314.372,-421.221L311.641,-418.68L309.319,-415.762L307.457,-412.53L306.096,-409.057L305.267,-405.42L306.096,-401.783L307.457,-398.31L309.319,-395.078L311.641,-392.159L314.372,-389.619L391.014,-309.837L419.999,-279.664L419.999,-119.58399999999995L295,0.15999999999996817L230.51,0.15999999999996817L230.51,-79.34000000000003L230.51,-84.75999999999999L338.287,-192.53700000000003L339.487,-193.90499999999997L340.498,-195.41899999999998L341.303,-197.05100000000004L341.888,-198.774L342.243,-200.55899999999997L342.362,-202.375L342.243,-204.19100000000003L341.888,-205.97699999999998L341.303,-207.70000000000005L340.498,-209.332L339.487,-210.846L338.287,-212.21400000000006L230.51,-319.991L230.51,-490.771L338.287,-598.548L339.487,-599.917L340.498,-601.4300000000001L341.303,-603.062L341.888,-604.7860000000001L342.243,-606.571L342.362,-608.387L342.243,-610.203L341.888,-611.988L341.303,-613.711L340.498,-615.344L339.487,-616.857L338.287,-618.225L230.51,-726.002L230.51,-731.422z"></path><path d="M230.51,0L295,0L419.999,119.745L419.999,279.825L314.372,389.779L311.641,392.32L309.319,395.238L307.457,398.47L306.096,401.943L305.267,405.58L306.096,409.217L307.457,412.69L309.319,415.922L311.641,418.841L314.372,421.381L391.014,501.163L419.999,531.336L419.999,691.416L295,811.16L230.51,811.16L230.51,731.66L230.51,726.24L338.287,618.463L339.487,617.095L340.498,615.581L341.303,613.949L341.888,612.226L342.243,610.441L342.362,608.625L342.243,606.809L341.888,605.023L341.303,603.3L340.498,601.668L339.487,600.154L338.287,598.786L230.51,491.009L230.51,320.229L338.287,212.452L339.487,211.083L340.498,209.57L341.303,207.938L341.888,206.214L342.243,204.429L342.362,202.613L342.243,200.797L341.888,199.012L341.303,197.289L340.498,195.656L339.487,194.143L338.287,192.775L230.51,84.998L230.51,79.578z"></path><path d="M-105.63,389.78L-0.002999999999985903,279.825L19.997000000000014,279.825L125.62400000000002,389.78L128.35500000000002,392.321L130.678,395.239L132.53999999999996,398.471L133.89999999999998,401.944L134.72900000000004,405.581L133.89999999999998,409.218L132.53999999999996,412.691L130.678,415.923L128.35500000000002,418.841L125.62400000000002,421.382L19.997000000000014,531.337L-0.002999999999985903,531.337L-28.988999999999976,501.163L-105.63,421.382L-108.36099999999999,418.841L-110.68400000000003,415.923L-112.54599999999999,412.691L-113.906,409.218L-114.73500000000001,405.581L-113.906,401.944L-112.54599999999999,398.471L-110.68400000000003,395.239L-108.36099999999999,392.321z"></path><path d="M314.37,389.78L419.997,279.825L439.997,279.825L545.624,389.78L548.355,392.321L550.678,395.239L552.54,398.471L553.9,401.944L554.729,405.581L553.9,409.218L552.54,412.691L550.678,415.923L548.355,418.841L545.624,421.382L439.997,531.337L419.997,531.337L391.011,501.163L314.37,421.382L311.639,418.841L309.316,415.923L307.454,412.691L306.094,409.218L305.265,405.581L306.094,401.944L307.454,398.471L309.316,395.239L311.639,392.321z"></path><path d="M-125,0.12999999999999545L-0.0009999999999763531,-119.61500000000001L19.999000000000024,-119.61500000000001L144.99900000000002,0.12999999999999545L19.999000000000024,119.875L-0.0009999999999763531,119.875z"></path><path d="M295,0.12999999999999545L419.999,-119.61500000000001L439.999,-119.61500000000001L564.999,0.12999999999999545L439.999,119.875L419.999,119.875z"></path><path d="M-125,811.13L-0.0009999999999763531,691.385L19.999000000000024,691.385L144.99900000000002,811.13L19.999000000000024,930.875L-0.0009999999999763531,930.875z"></path><path d="M295,811.13L419.999,691.385L439.999,691.385L564.999,811.13L439.999,930.875L419.999,930.875z"></path></svg>