<svg width="300" height="294" version="1.2" xmlns="http://www.w3.org/2000/svg" viewBox="0 0 300 294"><style type="text/css">path {stroke-width: 1; vector-effect: non-scaling-stroke; fill:none; stroke: #000; stroke-linecap: round; stroke-linejoin: miter;}</style><path d="M240,165.75L300,165.75L300,195.75L240,195.75L240,188.86L240,180.01L240,171.16z"></path><path d="M0,-211.87L240,-211.87L240,-203.01999999999998L240,-196.13L240,-128.26L240,-122.86000000000001L240,-114.00999999999999L240,-105.16L240,-98.27000000000001L240,-30.399999999999977L240,-25L240,-16.149999999999977L240,-7.300000000000011L240,-0.410000000000025L240,28.100000000000023L0,28.100000000000023z"></path><path d="M0,82.13L240,82.13L240,90.98L240,97.87L240,165.74L240,171.14L240,179.99L240,188.84L240,195.73L240,263.6L240,269L240,277.85L240,286.7L240,293.59L240,322.1L0,322.1z"></path><path d="M240,97.87L300,97.87L300,165.74L240,165.74z"></path><path d="M240,67.87L300,67.87L300,97.87L240,97.87L240,90.98L240,82.13L240,73.28z"></path><path d="M240,195.75L300,195.75L300,263.62L240,263.62z"></path><path d="M0,28.51L240,28.51L240,64.43L240,67.88L240,73.28L240,82.13L0,82.13z"></path><path d="M240,0L300,0L300,67.87L240,67.87L240,64.42L240,28.5z"></path><path d="M240,263.62L300,263.62L300,293.62L240,293.62L240,286.73L240,277.88L240,269.03z"></path></svg>