<svg width="340" height="390" version="1.2" xmlns="http://www.w3.org/2000/svg" viewBox="0 0 340 390"><style type="text/css">path {stroke-width: 1; vector-effect: non-scaling-stroke; fill:none; stroke: #000; stroke-linecap: round; stroke-linejoin: miter;}</style><path d="M170,-195L205,-195L240,-195L240,-95L240,5L205,5L170,5L170,-95z"></path><path d="M170,195L205,195L240,195L240,295L240,395L205,395L170,395L170,295z"></path><path d="M35,-95L170,-95L170,5L205,5L205,100L70,100L70,0L35,0z"></path><path d="M35,295L170,295L170,395L205,395L205,490L70,490L70,390L35,390z"></path><path d="M-135,100L0,100L0,200L35,200L35,295L-100,295L-100,195L-135,195z"></path><path d="M205,100L340,100L340,200L375,200L375,295L240,295L240,195L205,195z"></path><path d="M-100,-95L35,-95L35,0L0,0L0,100L-135,100L-135,5L-100,5z"></path><path d="M240,-95L375,-95L375,0L340,0L340,100L205,100L205,5L240,5z"></path><path d="M-100,295L35,295L35,390L0,390L0,490L-135,490L-135,395L-100,395z"></path><path d="M240,295L375,295L375,390L340,390L340,490L205,490L205,395L240,395z"></path><path d="M70,100L205,100L205,195L170,195L170,295L35,295L35,200L70,200L70,102.5z"></path><path d="M0,0L35,0L70,0L70,100L70,102.5L70,200L35,200L0,200z"></path></svg>