<svg width="500" height="250" version="1.2" xmlns="http://www.w3.org/2000/svg" viewBox="0 0 500 250"><style type="text/css">path {stroke-width: 1; vector-effect: non-scaling-stroke; fill:none; stroke: #000; stroke-linecap: round; stroke-linejoin: miter;}</style><path d="M0,145L125,145L125,250L0,250z"></path><path d="M125,0L250,0L250,25L150,25L150,225L250,225L250,250L125,250L125,145L125,105z"></path><path d="M0,0L125,0L125,105L0,105z"></path><path d="M0,105L125,105L125,145L0,145z"></path><path d="M150,25L250,25L250,225L150,225z"></path><path d="M375,0L500,0L500,105L375,105z"></path><path d="M375,145L500,145L500,250L375,250z"></path><path d="M375,105L500,105L500,145L375,145z"></path><path d="M250,0L375,0L375,105L375,145L375,250L250,250L250,225L350,225L350,25L250,25z"></path><path d="M250,25L350,25L350,225L250,225z"></path></svg>