<svg width="350" height="350" version="1.2" xmlns="http://www.w3.org/2000/svg" viewBox="0 0 350 350"><style type="text/css">path {stroke-width: 1; vector-effect: non-scaling-stroke; fill:none; stroke: #000; stroke-linecap: round; stroke-linejoin: miter;}</style><path d="M0,250L125,250L125,300L0,300z"></path><path d="M250,250L300,250L300,300L250,300z"></path><path d="M0,125L125,125L125,250L0,250z"></path><path d="M0,0L125,0L125,125L0,125z"></path><path d="M250,125L300,125L300,250L250,250z"></path><path d="M125,0L250,0L250,125L125,125z"></path><path d="M125,125L250,125L250,250L125,250z"></path><path d="M250,0L300,0L300,125L250,125z"></path><path d="M300,250L350,250L350,300L300,300z"></path><path d="M300,125L350,125L350,250L300,250z"></path><path d="M300,0L350,0L350,125L300,125z"></path><path d="M300,300L350,300L350,350L300,350z"></path><path d="M250,300L300,300L300,350L250,350z"></path><path d="M0,300L125,300L125,350L0,350z"></path><path d="M125,250L250,250L250,300L175,300L125,300z"></path><path d="M125,300L175,300L250,300L250,350L175,350L125,350z"></path></svg>