<svg width="300" height="600" version="1.2" xmlns="http://www.w3.org/2000/svg" viewBox="0 0 300 600"><style type="text/css">path {stroke-width: 1; vector-effect: non-scaling-stroke; fill:none; stroke: #000; stroke-linecap: round; stroke-linejoin: miter;}</style><path d="M100,194.38L200,194.38L220.703,300L79.293,300z"></path><path d="M63,44.26L237,44.26L271.395,299.997L220.685,299.997L199.983,194.377L99.983,194.377L79.28,299.997L28.57,299.997z"></path><path d="M0,0L300,0L300,300L271.41,300L237.015,44.263L63.015,44.263L28.619,300L0.029,300z"></path><path d="M0,300L28.59,300L62.985,555.737L236.985,555.737L271.381,300L299.971,300L299.971,600L-0.029,600z"></path><path d="M300,300L328.59,300L362.985,555.737L536.985,555.737L571.381,300L599.971,300L599.971,600L299.971,600z"></path><path d="M28.59,300L79.3,300L100.003,405.62L200.003,405.62L220.705,300L271.415,300L237.02,555.737L63.02,555.737z"></path><path d="M79.29,300L220.7,300L199.997,405.62L99.997,405.62z"></path></svg>