<svg width="400" height="65" version="1.2" xmlns="http://www.w3.org/2000/svg" viewBox="0 0 400 65"><style type="text/css">path {stroke-width: 1; vector-effect: non-scaling-stroke; fill:none; stroke: #000; stroke-linecap: round; stroke-linejoin: miter;}</style><path d="M100,-20L104.41,-20.031999999999996L108.818,-20.146L113.224,-20.343000000000004L117.625,-20.622999999999998L122.02,-20.985L126.408,-21.43L130.786,-21.957L135.154,-22.566000000000003L139.509,-23.256999999999998L143.851,-24.029000000000003L148.178,-24.883000000000003L152.488,-25.817999999999998L156.395,-26.674999999999997L160.313,-27.478L164.242,-28.226999999999997L168.182,-28.921L172.13,-29.561L176.087,-30.145000000000003L180.052,-30.674999999999997L184.024,-31.149L188.002,-31.569000000000003L191.985,-31.932000000000002L195.973,-32.241L199.965,-32.495L203.957,-32.241L207.945,-31.932000000000002L211.929,-31.569000000000003L215.907,-31.149L219.879,-30.674999999999997L223.843,-30.145000000000003L227.8,-29.561L231.749,-28.921L235.688,-28.226999999999997L239.618,-27.478L243.536,-26.674999999999997L247.443,-25.817999999999998L251.753,-24.883000000000003L256.079,-24.029000000000003L260.421,-23.256999999999998L264.777,-22.566000000000003L269.145,-21.957L273.523,-21.43L277.911,-20.985L282.306,-20.622999999999998L286.707,-20.343000000000004L291.112,-20.146L295.521,-20.031999999999996L299.931,-20L299.931,0L295.939,0.2530000000000001L291.951,0.5619999999999976L287.967,0.9260000000000019L283.989,1.3460000000000036L280.018,1.8199999999999932L276.053,2.3499999999999943L272.096,2.9339999999999975L268.147,3.573999999999998L264.208,4.266999999999996L260.279,5.016000000000005L256.36,5.819000000000003L252.453,6.677000000000007L248.143,7.611999999999995L243.817,8.465000000000003L239.475,9.238L235.119,9.929000000000002L230.751,10.537999999999997L226.373,11.063999999999993L221.986,11.509L217.59,11.870999999999995L213.189,12.150999999999996L208.784,12.347999999999999L204.375,12.462999999999994L199.965,12.495000000000005L195.555,12.462999999999994L191.147,12.347999999999999L186.741,12.150999999999996L182.34,11.870999999999995L177.945,11.509L173.558,11.063999999999993L169.179,10.537999999999997L164.812,9.929000000000002L160.456,9.238L156.114,8.465000000000003L151.788,7.611999999999995L147.478,6.677000000000007L143.571,5.819000000000003L139.652,5.016000000000005L135.723,4.266999999999996L131.784,3.573999999999998L127.835,2.9339999999999975L123.878,2.3499999999999943L119.913,1.8199999999999932L115.941,1.3460000000000036L111.963,0.9260000000000019L107.98,0.5619999999999976L103.992,0.2530000000000001L100,0z"></path><path d="M100,45L104.41,44.968L108.818,44.854L113.224,44.657L117.625,44.377L122.02,44.015L126.408,43.57L130.786,43.043L135.154,42.434L139.509,41.743L143.851,40.971L148.178,40.117L152.488,39.182L156.395,38.325L160.313,37.522L164.242,36.773L168.182,36.079L172.13,35.439L176.087,34.855L180.052,34.325L184.024,33.851L188.002,33.431L191.985,33.068L195.973,32.759L199.965,32.505L203.957,32.759L207.945,33.068L211.929,33.431L215.907,33.851L219.879,34.325L223.843,34.855L227.8,35.439L231.749,36.079L235.688,36.773L239.618,37.522L243.536,38.325L247.443,39.182L251.753,40.117L256.079,40.971L260.421,41.743L264.777,42.434L269.145,43.043L273.523,43.57L277.911,44.015L282.306,44.377L286.707,44.657L291.112,44.854L295.521,44.968L299.931,45L299.931,65L295.939,65.253L291.951,65.562L287.967,65.926L283.989,66.346L280.018,66.82L276.053,67.35L272.096,67.934L268.147,68.574L264.208,69.267L260.279,70.016L256.36,70.819L252.453,71.677L248.143,72.612L243.817,73.465L239.475,74.238L235.119,74.929L230.751,75.538L226.373,76.064L221.986,76.509L217.59,76.871L213.189,77.151L208.784,77.348L204.375,77.463L199.965,77.495L195.555,77.463L191.147,77.348L186.741,77.151L182.34,76.871L177.945,76.509L173.558,76.064L169.179,75.538L164.812,74.929L160.456,74.238L156.114,73.465L151.788,72.612L147.478,71.677L143.571,70.819L139.652,70.016L135.723,69.267L131.784,68.574L127.835,67.934L123.878,67.35L119.913,66.82L115.941,66.346L111.963,65.926L107.98,65.562L103.992,65.253L100,65z"></path><path d="M-100,-20L-95.58999999999997,-20.031999999999996L-91.18200000000002,-20.146L-86.77600000000001,-20.343000000000004L-82.375,-20.622999999999998L-77.98000000000002,-20.985L-73.59199999999998,-21.43L-69.214,-21.957L-64.846,-22.566000000000003L-60.490999999999985,-23.256999999999998L-56.149,-24.029000000000003L-51.822,-24.883000000000003L-47.512,-25.817999999999998L-43.60500000000002,-26.674999999999997L-39.68700000000001,-27.478L-35.75799999999998,-28.226999999999997L-31.817999999999984,-28.921L-27.870000000000005,-29.561L-23.91300000000001,-30.145000000000003L-19.94799999999998,-30.674999999999997L-15.975999999999999,-31.149L-11.99799999999999,-31.569000000000003L-8.014999999999986,-31.932000000000002L-4.026999999999987,-32.241L-0.03500000000002501,-32.495L3.9569999999999936,-32.241L7.944999999999993,-31.932000000000002L11.928999999999974,-31.569000000000003L15.906999999999982,-31.149L19.87900000000002,-30.674999999999997L23.843000000000018,-30.145000000000003L27.80000000000001,-29.561L31.749000000000024,-28.921L35.68799999999999,-28.226999999999997L39.617999999999995,-27.478L43.536,-26.674999999999997L47.442999999999984,-25.817999999999998L51.752999999999986,-24.883000000000003L56.07900000000001,-24.029000000000003L60.42099999999999,-23.256999999999998L64.77699999999999,-22.566000000000003L69.14499999999998,-21.957L73.52300000000002,-21.43L77.911,-20.985L82.30599999999998,-20.622999999999998L86.707,-20.343000000000004L91.11200000000002,-20.146L95.52100000000002,-20.031999999999996L99.93099999999998,-20L99.93099999999998,0L95.93900000000002,0.2530000000000001L91.95100000000002,0.5619999999999976L87.96699999999998,0.9260000000000019L83.98899999999998,1.3460000000000036L80.01799999999997,1.8199999999999932L76.053,2.3499999999999943L72.096,2.9339999999999975L68.14699999999999,3.573999999999998L64.20800000000003,4.266999999999996L60.278999999999996,5.016000000000005L56.360000000000014,5.819000000000003L52.452999999999975,6.677000000000007L48.14299999999997,7.611999999999995L43.81700000000001,8.465000000000003L39.47500000000002,9.238L35.11900000000003,9.929000000000002L30.750999999999976,10.537999999999997L26.37299999999999,11.063999999999993L21.98599999999999,11.509L17.589999999999975,11.870999999999995L13.189000000000021,12.150999999999996L8.783999999999992,12.347999999999999L4.375,12.462999999999994L-0.03500000000002501,12.495000000000005L-4.444999999999993,12.462999999999994L-8.853000000000009,12.347999999999999L-13.259000000000015,12.150999999999996L-17.660000000000025,11.870999999999995L-22.055000000000007,11.509L-26.442000000000007,11.063999999999993L-30.821000000000026,10.537999999999997L-35.18799999999999,9.929000000000002L-39.54399999999998,9.238L-43.886000000000024,8.465000000000003L-48.21199999999999,7.611999999999995L-52.52199999999999,6.677000000000007L-56.428999999999974,5.819000000000003L-60.34800000000001,5.016000000000005L-64.27699999999999,4.266999999999996L-68.21600000000001,3.573999999999998L-72.16500000000002,2.9339999999999975L-76.12200000000001,2.3499999999999943L-80.08699999999999,1.8199999999999932L-84.05900000000003,1.3460000000000036L-88.03699999999998,0.9260000000000019L-92.01999999999998,0.5619999999999976L-96.00799999999998,0.2530000000000001L-100,0z"></path><path d="M300,-20L304.41,-20.031999999999996L308.818,-20.146L313.224,-20.343000000000004L317.625,-20.622999999999998L322.02,-20.985L326.408,-21.43L330.786,-21.957L335.154,-22.566000000000003L339.509,-23.256999999999998L343.851,-24.029000000000003L348.178,-24.883000000000003L352.488,-25.817999999999998L356.395,-26.674999999999997L360.313,-27.478L364.242,-28.226999999999997L368.182,-28.921L372.13,-29.561L376.087,-30.145000000000003L380.052,-30.674999999999997L384.024,-31.149L388.002,-31.569000000000003L391.985,-31.932000000000002L395.973,-32.241L399.965,-32.495L403.957,-32.241L407.945,-31.932000000000002L411.929,-31.569000000000003L415.907,-31.149L419.879,-30.674999999999997L423.843,-30.145000000000003L427.8,-29.561L431.749,-28.921L435.688,-28.226999999999997L439.618,-27.478L443.536,-26.674999999999997L447.443,-25.817999999999998L451.753,-24.883000000000003L456.079,-24.029000000000003L460.421,-23.256999999999998L464.777,-22.566000000000003L469.145,-21.957L473.523,-21.43L477.911,-20.985L482.306,-20.622999999999998L486.707,-20.343000000000004L491.112,-20.146L495.521,-20.031999999999996L499.931,-20L499.931,0L495.939,0.2530000000000001L491.951,0.5619999999999976L487.967,0.9260000000000019L483.989,1.3460000000000036L480.018,1.8199999999999932L476.053,2.3499999999999943L472.096,2.9339999999999975L468.147,3.573999999999998L464.208,4.266999999999996L460.279,5.016000000000005L456.36,5.819000000000003L452.453,6.677000000000007L448.143,7.611999999999995L443.817,8.465000000000003L439.475,9.238L435.119,9.929000000000002L430.751,10.537999999999997L426.373,11.063999999999993L421.986,11.509L417.59,11.870999999999995L413.189,12.150999999999996L408.784,12.347999999999999L404.375,12.462999999999994L399.965,12.495000000000005L395.555,12.462999999999994L391.147,12.347999999999999L386.741,12.150999999999996L382.34,11.870999999999995L377.945,11.509L373.558,11.063999999999993L369.179,10.537999999999997L364.812,9.929000000000002L360.456,9.238L356.114,8.465000000000003L351.788,7.611999999999995L347.478,6.677000000000007L343.571,5.819000000000003L339.652,5.016000000000005L335.723,4.266999999999996L331.784,3.573999999999998L327.835,2.9339999999999975L323.878,2.3499999999999943L319.913,1.8199999999999932L315.941,1.3460000000000036L311.963,0.9260000000000019L307.98,0.5619999999999976L303.992,0.2530000000000001L300,0z"></path><path d="M-100,45L-95.58999999999997,44.968L-91.18200000000002,44.854L-86.77600000000001,44.657L-82.375,44.377L-77.98000000000002,44.015L-73.59199999999998,43.57L-69.214,43.043L-64.846,42.434L-60.490999999999985,41.743L-56.149,40.971L-51.822,40.117L-47.512,39.182L-43.60500000000002,38.325L-39.68700000000001,37.522L-35.75799999999998,36.773L-31.817999999999984,36.079L-27.870000000000005,35.439L-23.91300000000001,34.855L-19.94799999999998,34.325L-15.975999999999999,33.851L-11.99799999999999,33.431L-8.014999999999986,33.068L-4.026999999999987,32.759L-0.03500000000002501,32.505L3.9569999999999936,32.759L7.944999999999993,33.068L11.928999999999974,33.431L15.906999999999982,33.851L19.87900000000002,34.325L23.843000000000018,34.855L27.80000000000001,35.439L31.749000000000024,36.079L35.68799999999999,36.773L39.617999999999995,37.522L43.536,38.325L47.442999999999984,39.182L51.752999999999986,40.117L56.07900000000001,40.971L60.42099999999999,41.743L64.77699999999999,42.434L69.14499999999998,43.043L73.52300000000002,43.57L77.911,44.015L82.30599999999998,44.377L86.707,44.657L91.11200000000002,44.854L95.52100000000002,44.968L99.93099999999998,45L99.93099999999998,65L95.93900000000002,65.253L91.95100000000002,65.562L87.96699999999998,65.926L83.98899999999998,66.346L80.01799999999997,66.82L76.053,67.35L72.096,67.934L68.14699999999999,68.574L64.20800000000003,69.267L60.278999999999996,70.016L56.360000000000014,70.819L52.452999999999975,71.677L48.14299999999997,72.612L43.81700000000001,73.465L39.47500000000002,74.238L35.11900000000003,74.929L30.750999999999976,75.538L26.37299999999999,76.064L21.98599999999999,76.509L17.589999999999975,76.871L13.189000000000021,77.151L8.783999999999992,77.348L4.375,77.463L-0.03500000000002501,77.495L-4.444999999999993,77.463L-8.853000000000009,77.348L-13.259000000000015,77.151L-17.660000000000025,76.871L-22.055000000000007,76.509L-26.442000000000007,76.064L-30.821000000000026,75.538L-35.18799999999999,74.929L-39.54399999999998,74.238L-43.886000000000024,73.465L-48.21199999999999,72.612L-52.52199999999999,71.677L-56.428999999999974,70.819L-60.34800000000001,70.016L-64.27699999999999,69.267L-68.21600000000001,68.574L-72.16500000000002,67.934L-76.12200000000001,67.35L-80.08699999999999,66.82L-84.05900000000003,66.346L-88.03699999999998,65.926L-92.01999999999998,65.562L-96.00799999999998,65.253L-100,65z"></path><path d="M300,45L304.41,44.968L308.818,44.854L313.224,44.657L317.625,44.377L322.02,44.015L326.408,43.57L330.786,43.043L335.154,42.434L339.509,41.743L343.851,40.971L348.178,40.117L352.488,39.182L356.395,38.325L360.313,37.522L364.242,36.773L368.182,36.079L372.13,35.439L376.087,34.855L380.052,34.325L384.024,33.851L388.002,33.431L391.985,33.068L395.973,32.759L399.965,32.505L403.957,32.759L407.945,33.068L411.929,33.431L415.907,33.851L419.879,34.325L423.843,34.855L427.8,35.439L431.749,36.079L435.688,36.773L439.618,37.522L443.536,38.325L447.443,39.182L451.753,40.117L456.079,40.971L460.421,41.743L464.777,42.434L469.145,43.043L473.523,43.57L477.911,44.015L482.306,44.377L486.707,44.657L491.112,44.854L495.521,44.968L499.931,45L499.931,65L495.939,65.253L491.951,65.562L487.967,65.926L483.989,66.346L480.018,66.82L476.053,67.35L472.096,67.934L468.147,68.574L464.208,69.267L460.279,70.016L456.36,70.819L452.453,71.677L448.143,72.612L443.817,73.465L439.475,74.238L435.119,74.929L430.751,75.538L426.373,76.064L421.986,76.509L417.59,76.871L413.189,77.151L408.784,77.348L404.375,77.463L399.965,77.495L395.555,77.463L391.147,77.348L386.741,77.151L382.34,76.871L377.945,76.509L373.558,76.064L369.179,75.538L364.812,74.929L360.456,74.238L356.114,73.465L351.788,72.612L347.478,71.677L343.571,70.819L339.652,70.016L335.723,69.267L331.784,68.574L327.835,67.934L323.878,67.35L319.913,66.82L315.941,66.346L311.963,65.926L307.98,65.562L303.992,65.253L300,65z"></path><path d="M0,12.5L4.41,12.468L8.818,12.354L13.224,12.157L17.625,11.877L22.02,11.515L26.408,11.07L30.786,10.543L35.154,9.934L39.509,9.243L43.851,8.471L48.178,7.617L52.488,6.682L56.395,5.825L60.313,5.022L64.242,4.273L68.182,3.579L72.13,2.939L76.087,2.355L80.052,1.825L84.024,1.351L88.002,0.931L91.985,0.568L95.973,0.259L99.965,0.005L103.957,0.259L107.945,0.568L111.929,0.931L115.907,1.351L119.879,1.825L123.843,2.355L127.8,2.939L131.749,3.579L135.688,4.273L139.618,5.022L143.536,5.825L147.443,6.682L151.753,7.617L156.079,8.471L160.421,9.243L164.777,9.934L169.145,10.543L173.523,11.07L177.911,11.515L182.306,11.877L186.707,12.157L191.112,12.354L195.521,12.468L199.931,12.5L199.931,32.5L195.939,32.753L191.951,33.062L187.967,33.426L183.989,33.846L180.018,34.32L176.053,34.85L172.096,35.434L168.147,36.074L164.208,36.767L160.279,37.516L156.36,38.319L152.453,39.177L148.143,40.112L143.817,40.965L139.475,41.738L135.119,42.429L130.751,43.038L126.373,43.564L121.986,44.009L117.59,44.371L113.189,44.651L108.784,44.848L104.375,44.963L99.965,44.995L95.555,44.963L91.147,44.848L86.741,44.651L82.34,44.371L77.945,44.009L73.558,43.564L69.179,43.038L64.812,42.429L60.456,41.738L56.114,40.965L51.788,40.112L47.478,39.177L43.571,38.319L39.652,37.516L35.723,36.767L31.784,36.074L27.835,35.434L23.878,34.85L19.913,34.32L15.941,33.846L11.963,33.426L7.98,33.062L3.992,32.753L0,32.5z"></path><path d="M200,12.5L204.41,12.468L208.818,12.354L213.224,12.157L217.625,11.877L222.02,11.515L226.408,11.07L230.786,10.543L235.154,9.934L239.509,9.243L243.851,8.471L248.178,7.617L252.488,6.682L256.395,5.825L260.313,5.022L264.242,4.273L268.182,3.579L272.13,2.939L276.087,2.355L280.052,1.825L284.024,1.351L288.002,0.931L291.985,0.568L295.973,0.259L299.965,0.005L303.957,0.259L307.945,0.568L311.929,0.931L315.907,1.351L319.879,1.825L323.843,2.355L327.8,2.939L331.749,3.579L335.688,4.273L339.618,5.022L343.536,5.825L347.443,6.682L351.753,7.617L356.079,8.471L360.421,9.243L364.777,9.934L369.145,10.543L373.523,11.07L377.911,11.515L382.306,11.877L386.707,12.157L391.112,12.354L395.521,12.468L399.931,12.5L399.931,32.5L395.939,32.753L391.951,33.062L387.967,33.426L383.989,33.846L380.018,34.32L376.053,34.85L372.096,35.434L368.147,36.074L364.208,36.767L360.279,37.516L356.36,38.319L352.453,39.177L348.143,40.112L343.817,40.965L339.475,41.738L335.119,42.429L330.751,43.038L326.373,43.564L321.986,44.009L317.59,44.371L313.189,44.651L308.784,44.848L304.375,44.963L299.965,44.995L295.555,44.963L291.147,44.848L286.741,44.651L282.34,44.371L277.945,44.009L273.558,43.564L269.179,43.038L264.812,42.429L260.456,41.738L256.114,40.965L251.788,40.112L247.478,39.177L243.571,38.319L239.652,37.516L235.723,36.767L231.784,36.074L227.835,35.434L223.878,34.85L219.913,34.32L215.941,33.846L211.963,33.426L207.98,33.062L203.992,32.753L200,32.5z"></path></svg>