<svg width="200" height="200" version="1.2" xmlns="http://www.w3.org/2000/svg" viewBox="0 0 200 200"><style type="text/css">path {stroke-width: 1; vector-effect: non-scaling-stroke; fill:none; stroke: #000; stroke-linecap: round; stroke-linejoin: miter;}</style><path d="M175,0L200,0L200,100L175,100z"></path><path d="M150,0L175,0L175,100L150,100z"></path><path d="M100,0L150,0L150,100L100,100L100,75L100,50z"></path><path d="M0,75L100,75L100,100L75,100L50,100L0,100z"></path><path d="M100,100L150,100L175,100L200,100L200,150L100,150z"></path><path d="M0,0L100,0L100,50L0,50z"></path><path d="M100,150L200,150L200,175L100,175z"></path><path d="M0,50L100,50L100,75L0,75z"></path><path d="M75,100L100,100L100,150L100,175L100,200L75,200z"></path><path d="M50,100L75,100L75,200L50,200z"></path><path d="M0,100L50,100L50,200L0,200z"></path><path d="M100,175L200,175L200,200L100,200z"></path></svg>