<svg width="222" height="423" version="1.2" xmlns="http://www.w3.org/2000/svg" viewBox="0 0 222 423"><style type="text/css">path {stroke-width: 1; vector-effect: non-scaling-stroke; fill:none; stroke: #000; stroke-linecap: round; stroke-linejoin: miter;}</style><path d="M47.6,211.37L205.6,211.37L130.773,271.447L108.544,365.999z"></path><path d="M70.13,268.12L131.06900000000002,422.745L-26.93100000000001,422.745L47.89699999999999,362.668z"></path><path d="M292.13,268.12L353.069,422.745L195.069,422.745L269.897,362.668z"></path><path d="M-91.22999999999999,271.45L-16.40299999999999,211.373L47.757000000000005,211.373L70.12,268.116L47.89100000000002,362.668z"></path><path d="M130.77,271.45L205.597,211.373L269.757,211.373L292.12,268.116L269.891,362.668z"></path><path d="M-91.22999999999999,271.45L47.89499999999998,362.664L-26.932999999999993,422.741L-91.09299999999999,422.741L-113.455,365.998z"></path><path d="M130.77,271.45L269.895,362.664L195.067,422.741L130.907,422.741L108.545,365.998z"></path><path d="M0,0L158,0L83.173,60.077L60.944,154.629z"></path><path d="M22.53,56.74L83.469,211.365L-74.531,211.365L0.29699999999999704,151.288z"></path><path d="M244.53,56.74L305.469,211.365L147.469,211.365L222.297,151.288z"></path><path d="M-138.82999999999998,60.08L-64.00299999999999,0.003L0.1570000000000107,0.003L22.52000000000001,56.746L0.2909999999999968,151.298z"></path><path d="M83.17,60.08L157.997,0.003L222.157,0.003L244.52,56.746L222.291,151.298z"></path><path d="M-138.82999999999998,60.08L0.2949999999999875,151.294L-74.53299999999999,211.371L-138.69299999999998,211.371L-161.055,154.628z"></path><path d="M83.17,60.08L222.295,151.294L147.467,211.371L83.307,211.371L60.945,154.628z"></path></svg>