<svg width="547.78" height="706.99" version="1.2" xmlns="http://www.w3.org/2000/svg" viewBox="0 0 547.78 706.99"><style type="text/css">path {stroke-width: 1; vector-effect: non-scaling-stroke; fill:none; stroke: #000; stroke-linecap: round; stroke-linejoin: miter;}</style><path d="M0,-353.5L4.666,-318.056L18.347,-285.027L40.11,-256.665L68.473,-234.902L101.502,-221.221L136.946,-216.55400000000003L136.946,-150.67399999999998L136.946,-120.17399999999998L151.813,-115.22299999999996L166.282,-109.20600000000002L180.277,-102.15800000000002L193.726,-94.11500000000001L206.556,-85.11800000000005L218.701,-75.21699999999998L230.097,-64.46199999999999L240.684,-52.90899999999999L250.407,-40.620000000000005L259.214,-27.659999999999968L267.059,-14.094000000000051L273.901,0.0030000000000427463L0.011,0.0030000000000427463z"></path><path d="M0,353.49L4.666,388.934L18.347,421.963L40.11,450.325L68.473,472.088L101.502,485.769L136.946,490.436L136.946,556.316L136.946,586.816L151.813,591.767L166.282,597.784L180.277,604.832L193.726,612.875L206.556,621.872L218.701,631.773L230.097,642.528L240.684,654.081L250.407,666.37L259.214,679.33L267.059,692.896L273.901,706.993L0.011,706.993z"></path><path d="M-136.94,-216.55L-101.49599999999998,-221.216L-68.46699999999998,-234.897L-40.10499999999996,-256.66L-18.341999999999985,-285.023L-4.6609999999999445,-318.052L0.005999999999971806,-353.496L0.005999999999971806,0.004000000000019099L-273.88399999999996,0.004000000000019099L-267.042,-14.092999999999961L-259.198,-27.658000000000015L-250.39,-40.61800000000005L-240.66699999999997,-52.90700000000004L-230.08099999999996,-64.46100000000001L-218.68399999999997,-75.21500000000003L-206.539,-85.11699999999996L-193.70899999999995,-94.11400000000003L-180.26,-102.15600000000006L-166.265,-109.20500000000004L-151.796,-115.221L-136.92899999999997,-120.173L-136.92899999999997,-150.673z"></path><path d="M410.84,-216.55L446.284,-221.216L479.313,-234.897L507.675,-256.66L529.438,-285.023L543.119,-318.052L547.786,-353.496L547.786,0.004000000000019099L273.896,0.004000000000019099L280.738,-14.092999999999961L288.582,-27.658000000000015L297.39,-40.61800000000005L307.113,-52.90700000000004L317.699,-64.46100000000001L329.096,-75.21500000000003L341.241,-85.11699999999996L354.071,-94.11400000000003L367.52,-102.15600000000006L381.515,-109.20500000000004L395.984,-115.221L410.851,-120.173L410.851,-150.673z"></path><path d="M-136.94,490.44L-101.49599999999998,485.774L-68.46699999999998,472.093L-40.10499999999996,450.33L-18.341999999999985,421.967L-4.6609999999999445,388.938L0.005999999999971806,353.494L0.005999999999971806,706.994L-273.88399999999996,706.994L-267.042,692.897L-259.198,679.332L-250.39,666.372L-240.66699999999997,654.083L-230.08099999999996,642.529L-218.68399999999997,631.775L-206.539,621.873L-193.70899999999995,612.876L-180.26,604.834L-166.265,597.785L-151.796,591.769L-136.92899999999997,586.817L-136.92899999999997,556.317z"></path><path d="M410.84,490.44L446.284,485.774L479.313,472.093L507.675,450.33L529.438,421.967L543.119,388.938L547.786,353.494L547.786,706.994L273.896,706.994L280.738,692.897L288.582,679.332L297.39,666.372L307.113,654.083L317.699,642.529L329.096,631.775L341.241,621.873L354.071,612.876L367.52,604.834L381.515,597.785L395.984,591.769L410.851,586.817L410.851,556.317z"></path><path d="M0,0L273.89,0L267.048,14.097L259.203,27.662L250.395,40.623L240.673,52.912L230.086,64.465L218.69,75.22L206.545,85.121L193.715,94.118L180.266,102.161L166.271,109.209L151.802,115.226L136.935,120.177L136.935,150.677L136.935,216.557L101.49,221.224L68.462,234.904L40.099,256.668L18.336,285.03L4.655,318.059L-0.011,353.503z"></path><path d="M547.78,0L821.67,0L814.828,14.097L806.983,27.662L798.175,40.623L788.453,52.912L777.866,64.465L766.47,75.22L754.3249999999999,85.121L741.495,94.118L728.0459999999999,102.161L714.0509999999999,109.209L699.582,115.226L684.7149999999999,120.177L684.7149999999999,150.677L684.7149999999999,216.557L649.27,221.224L616.242,234.904L587.879,256.668L566.116,285.03L552.435,318.059L547.769,353.503z"></path><path d="M136.94,120.17L151.807,115.219L166.276,109.202L180.271,102.154L193.72,94.111L206.55,85.114L218.695,75.212L230.092,64.458L240.678,52.905L250.401,40.616L259.209,27.655L267.053,14.09L273.895,-0.007L273.895,706.983L267.053,692.886L259.209,679.32L250.401,666.36L240.678,654.071L230.092,642.518L218.695,631.763L206.55,621.861L193.72,612.865L180.271,604.822L166.276,597.774L151.807,591.757L136.94,586.806L136.94,556.306L136.94,490.426L101.496,485.759L68.467,472.078L40.105,450.315L18.342,421.953L4.661,388.924L-0.006,353.48L4.661,318.036L18.342,285.007L40.105,256.645L68.467,234.881L101.496,221.201L136.94,216.534L136.94,150.654z"></path><path d="M684.72,120.17L699.587,115.219L714.056,109.202L728.0509999999999,102.154L741.5,94.111L754.3299999999999,85.114L766.4749999999999,75.212L777.872,64.458L788.458,52.905L798.181,40.616L806.989,27.655L814.833,14.09L821.675,-0.007L821.675,706.983L814.833,692.886L806.989,679.32L798.181,666.36L788.458,654.071L777.872,642.518L766.4749999999999,631.763L754.3299999999999,621.861L741.5,612.865L728.0509999999999,604.822L714.056,597.774L699.587,591.757L684.72,586.806L684.72,556.306L684.72,490.426L649.276,485.759L616.247,472.078L587.885,450.315L566.122,421.953L552.4409999999999,388.924L547.774,353.48L552.4409999999999,318.036L566.122,285.007L587.885,256.645L616.247,234.881L649.276,221.201L684.72,216.534L684.72,150.654z"></path><path d="M136.94,827.16L151.807,822.2090000000001L166.276,816.192L180.271,809.144L193.72,801.101L206.55,792.104L218.695,782.202L230.092,771.448L240.678,759.895L250.401,747.606L259.209,734.645L267.053,721.08L273.895,706.9830000000001L273.895,1413.973L267.053,1399.876L259.209,1386.31L250.401,1373.35L240.678,1361.0610000000001L230.092,1349.508L218.695,1338.7530000000002L206.55,1328.851L193.72,1319.855L180.271,1311.812L166.276,1304.7640000000001L151.807,1298.7469999999998L136.94,1293.796L136.94,1263.296L136.94,1197.416L101.496,1192.749L68.467,1179.068L40.105,1157.305L18.342,1128.943L4.661,1095.914L-0.006,1060.47L4.661,1025.026L18.342,991.9970000000001L40.105,963.635L68.467,941.871L101.496,928.191L136.94,923.524L136.94,857.644z"></path><path d="M684.72,827.16L699.587,822.2090000000001L714.056,816.192L728.0509999999999,809.144L741.5,801.101L754.3299999999999,792.104L766.4749999999999,782.202L777.872,771.448L788.458,759.895L798.181,747.606L806.989,734.645L814.833,721.08L821.675,706.9830000000001L821.675,1413.973L814.833,1399.876L806.989,1386.31L798.181,1373.35L788.458,1361.0610000000001L777.872,1349.508L766.4749999999999,1338.7530000000002L754.3299999999999,1328.851L741.5,1319.855L728.0509999999999,1311.812L714.056,1304.7640000000001L699.587,1298.7469999999998L684.72,1293.796L684.72,1263.296L684.72,1197.416L649.276,1192.749L616.247,1179.068L587.885,1157.305L566.122,1128.943L552.4409999999999,1095.914L547.774,1060.47L552.4409999999999,1025.026L566.122,991.9970000000001L587.885,963.635L616.247,941.871L649.276,928.191L684.72,923.524L684.72,857.644z"></path><path d="M-273.89,-706.99L-267.04799999999994,-692.893L-259.203,-679.328L-250.39499999999998,-666.367L-240.67299999999994,-654.078L-230.08599999999996,-642.525L-218.69,-631.77L-206.54399999999998,-621.869L-193.71499999999997,-612.8720000000001L-180.26599999999996,-604.829L-166.27099999999996,-597.781L-151.80199999999996,-591.764L-136.93499999999995,-586.813L-136.93499999999995,-556.313L-136.93499999999995,-490.433L-101.48999999999995,-485.766L-68.46199999999999,-472.086L-40.09899999999999,-450.322L-18.336000000000013,-421.96000000000004L-4.654999999999973,-388.931L0.011000000000080945,-353.487L-4.654999999999973,-318.043L-18.336000000000013,-285.014L-40.09899999999999,-256.652L-68.46199999999999,-234.889L-101.48999999999995,-221.20800000000003L-136.93499999999995,-216.541L-136.93499999999995,-150.66100000000006L-136.93499999999995,-120.16100000000006L-151.80199999999996,-115.21000000000004L-166.27099999999996,-109.19299999999998L-180.26599999999996,-102.14499999999998L-193.71499999999997,-94.10199999999998L-206.54399999999998,-85.106L-218.69,-75.20400000000006L-230.08599999999996,-64.44899999999996L-240.67299999999994,-52.89599999999996L-250.39499999999998,-40.60699999999997L-259.203,-27.647000000000048L-267.04799999999994,-14.081000000000017L-273.89,0.01599999999996271z"></path><path d="M273.89,-706.99L280.732,-692.893L288.577,-679.328L297.385,-666.367L307.107,-654.078L317.694,-642.525L329.09,-631.77L341.236,-621.869L354.065,-612.8720000000001L367.514,-604.829L381.509,-597.781L395.978,-591.764L410.845,-586.813L410.845,-556.313L410.845,-490.433L446.29,-485.766L479.318,-472.086L507.681,-450.322L529.444,-421.96000000000004L543.125,-388.931L547.791,-353.487L543.125,-318.043L529.444,-285.014L507.681,-256.652L479.318,-234.889L446.29,-221.20800000000003L410.845,-216.541L410.845,-150.66100000000006L410.845,-120.16100000000006L395.978,-115.21000000000004L381.509,-109.19299999999998L367.514,-102.14499999999998L354.065,-94.10199999999998L341.236,-85.106L329.09,-75.20400000000006L317.694,-64.44899999999996L307.107,-52.89599999999996L297.385,-40.60699999999997L288.577,-27.647000000000048L280.732,-14.081000000000017L273.89,0.01599999999996271z"></path><path d="M-273.89,0L-267.04799999999994,14.097L-259.203,27.662L-250.39499999999998,40.623L-240.67299999999994,52.912L-230.08599999999996,64.465L-218.69,75.22L-206.54399999999998,85.121L-193.71499999999997,94.118L-180.26599999999996,102.161L-166.27099999999996,109.209L-151.80199999999996,115.226L-136.93499999999995,120.177L-136.93499999999995,150.677L-136.93499999999995,216.557L-101.48999999999995,221.224L-68.46199999999999,234.904L-40.09899999999999,256.668L-18.336000000000013,285.03L-4.654999999999973,318.059L0.011000000000080945,353.503L-4.654999999999973,388.947L-18.336000000000013,421.976L-40.09899999999999,450.338L-68.46199999999999,472.101L-101.48999999999995,485.782L-136.93499999999995,490.449L-136.93499999999995,556.329L-136.93499999999995,586.829L-151.80199999999996,591.78L-166.27099999999996,597.797L-180.26599999999996,604.845L-193.71499999999997,612.888L-206.54399999999998,621.884L-218.69,631.786L-230.08599999999996,642.541L-240.67299999999994,654.094L-250.39499999999998,666.383L-259.203,679.343L-267.04799999999994,692.909L-273.89,707.006z"></path><path d="M273.89,0L280.732,14.097L288.577,27.662L297.385,40.623L307.107,52.912L317.694,64.465L329.09,75.22L341.236,85.121L354.065,94.118L367.514,102.161L381.509,109.209L395.978,115.226L410.845,120.177L410.845,150.677L410.845,216.557L446.29,221.224L479.318,234.904L507.681,256.668L529.444,285.03L543.125,318.059L547.791,353.503L543.125,388.947L529.444,421.976L507.681,450.338L479.318,472.101L446.29,485.782L410.845,490.449L410.845,556.329L410.845,586.829L395.978,591.78L381.509,597.797L367.514,604.845L354.065,612.888L341.236,621.884L329.09,631.786L317.694,642.541L307.107,654.094L297.385,666.383L288.577,679.343L280.732,692.909L273.89,707.006z"></path><path d="M273.89,0L547.78,0L547.78,353.49L543.114,318.046L529.433,285.017L507.67,256.655L479.307,234.892L446.278,221.211L410.834,216.544L410.834,150.664L410.834,120.164L395.967,115.213L381.498,109.196L367.503,102.148L354.054,94.105L341.224,85.108L329.079,75.207L317.683,64.452L307.096,52.899L297.373,40.61L288.566,27.65L280.721,14.084z"></path></svg>