<svg width="340" height="490" version="1.2" xmlns="http://www.w3.org/2000/svg" viewBox="0 0 340 490"><style type="text/css">path {stroke-width: 1; vector-effect: non-scaling-stroke; fill:none; stroke: #000; stroke-linecap: round; stroke-linejoin: miter;}</style><path d="M0,305L50,305L50,342.5L110,342.5L110,245L280,245L280,342.5L220,342.5L220,305L170,305L170,430L220,430L220,392.5L280,392.5L280,490L110,490L110,392.5L50,392.5L50,430L0,430z"></path><path d="M-170,305L-120,305L-120,342.5L-60,342.5L-60,245L110,245L110,342.5L50,342.5L50,305L0,305L0,430L50,430L50,392.5L110,392.5L110,490L-60,490L-60,392.5L-120,392.5L-120,430L-170,430z"></path><path d="M170,305L220,305L220,342.5L280,342.5L280,245L450,245L450,342.5L390,342.5L390,305L340,305L340,430L390,430L390,392.5L450,392.5L450,490L280,490L280,392.5L220,392.5L220,430L170,430z"></path><path d="M-60,0L110,0L110,97.5L170,97.5L170,60L220,60L220,185L170,185L170,147.5L110,147.5L110,245L-60,245L-60,147.5L0,147.5L0,185L50,185L50,60L0,60L0,97.5L-60,97.5z"></path><path d="M280,0L450,0L450,97.5L510,97.5L510,60L560,60L560,185L510,185L510,147.5L450,147.5L450,245L280,245L280,147.5L340,147.5L340,185L390,185L390,60L340,60L340,97.5L280,97.5z"></path><path d="M-230,0L-60,0L-60,97.5L0,97.5L0,60L50,60L50,185L0,185L0,147.5L-60,147.5L-60,245L-230,245L-230,147.5L-170,147.5L-170,185L-120,185L-120,60L-170,60L-170,97.5L-230,97.5z"></path><path d="M110,0L280,0L280,97.5L340,97.5L340,60L390,60L390,185L340,185L340,147.5L280,147.5L280,245L110,245L110,147.5L170,147.5L170,185L220,185L220,60L170,60L170,97.5L110,97.5z"></path></svg>