<svg width="360" height="360" version="1.2" xmlns="http://www.w3.org/2000/svg" viewBox="0 0 360 360"><style type="text/css">path {stroke-width: 1; vector-effect: non-scaling-stroke; fill:none; stroke: #000; stroke-linecap: round; stroke-linejoin: miter;}</style><path d="M150,150L210,150L210,210L150,210z"></path><path d="M210,150L270,150L270,270L210,270L210,210z"></path><path d="M90,210L150,210L210,210L210,270L90,270z"></path><path d="M150,90L270,90L270,150L210,150L150,150z"></path><path d="M90,90L150,90L150,150L150,210L90,210z"></path><path d="M270,90L360,90L360,360L270,360L270,270L270,150z"></path><path d="M90,0L180,0L300,0L360,0L360,90L270,90L150,90L90,90z"></path><path d="M0,0L90,0L90,90L90,210L90,270L0,270z"></path><path d="M0,270L90,270L210,270L270,270L270,360L180,360L60,360L0,360z"></path></svg>