<svg width="250" height="250" version="1.2" xmlns="http://www.w3.org/2000/svg" viewBox="0 0 250 250"><style type="text/css">path {stroke-width: 1; vector-effect: non-scaling-stroke; fill:none; stroke: #000; stroke-linecap: round; stroke-linejoin: miter;}</style><path d="M19,-57.75L86.5,-57.75L86.5,-125.25L86.755,-126.351L87.119,-127.42L87.591,-128.447L88.163,-129.422L88.832,-130.332L89.59,-131.171L90.428,-131.928L91.339,-132.59699999999998L92.313,-133.17000000000002L93.34,-133.64100000000002L94.41,-134.006L95.511,-134.261L105.761,-134.261L105.761,-144.261L143.761,-144.261L143.761,-134.261L154.011,-134.261L155.112,-134.006L156.181,-133.64100000000002L157.208,-133.17000000000002L158.182,-132.59699999999998L159.093,-131.928L159.932,-131.171L160.689,-130.332L161.358,-129.422L161.931,-128.447L162.402,-127.42L162.767,-126.351L163.021,-125.25L163.021,-57.75L230.521,-57.75L231.622,-57.495000000000005L232.692,-57.131L233.719,-56.65899999999999L234.693,-56.08699999999999L235.604,-55.418000000000006L236.442,-54.66L237.2,-53.822L237.868,-52.911L238.441,-51.93700000000001L238.912,-50.91L239.277,-49.84L239.532,-48.739000000000004L239.532,-38.489000000000004L249.532,-38.489000000000004L249.532,-0.4890000000000043L239.532,-0.4890000000000043L239.532,9.761000000000024L239.277,10.862000000000023L238.912,11.930999999999983L238.441,12.958000000000027L237.868,13.932000000000016L237.2,14.843000000000018L236.442,15.682000000000016L235.604,16.43900000000002L234.693,17.108000000000004L233.719,17.680999999999983L232.692,18.151999999999987L231.622,18.516999999999996L230.521,18.771000000000015L163.021,18.771000000000015L163.021,86.27100000000002L162.767,87.37200000000001L162.402,88.44200000000001L161.931,89.469L161.358,90.44299999999998L160.689,91.35399999999998L159.932,92.19200000000001L159.093,92.94999999999999L158.182,93.618L157.208,94.19099999999997L156.181,94.66199999999998L155.112,95.02699999999999L154.011,95.28199999999998L143.761,95.28199999999998L143.761,105.28199999999998L105.761,105.28199999999998L105.761,95.28199999999998L95.511,95.28199999999998L94.41,95.02699999999999L93.34,94.66199999999998L92.313,94.19099999999997L91.339,93.618L90.428,92.94999999999999L89.59,92.19200000000001L88.832,91.35399999999998L88.163,90.44299999999998L87.591,89.469L87.119,88.44200000000001L86.755,87.37200000000001L86.5,86.27100000000002L86.5,18.771000000000015L19,18.771000000000015L17.899,18.516999999999996L16.83,18.151999999999987L15.803,17.680999999999983L14.828,17.108000000000004L13.918,16.43900000000002L13.079,15.682000000000016L12.322,14.843000000000018L11.653,13.932000000000016L11.08,12.958000000000027L10.609,11.930999999999983L10.244,10.862000000000023L9.989,9.761000000000024L9.989,-0.4890000000000043L-0.011,-0.4890000000000043L-0.011,-38.489000000000004L9.989,-38.489000000000004L9.989,-48.739000000000004L10.244,-49.84L10.609,-50.91L11.08,-51.93700000000001L11.653,-52.911L12.322,-53.822L13.079,-54.66L13.918,-55.418000000000006L14.828,-56.08699999999999L15.803,-56.65899999999999L16.83,-57.131L17.899,-57.495000000000005z"></path><path d="M269,-57.75L336.5,-57.75L336.5,-125.25L336.755,-126.351L337.119,-127.42L337.591,-128.447L338.163,-129.422L338.832,-130.332L339.59000000000003,-131.171L340.428,-131.928L341.339,-132.59699999999998L342.313,-133.17000000000002L343.34000000000003,-133.64100000000002L344.40999999999997,-134.006L345.51099999999997,-134.261L355.76099999999997,-134.261L355.76099999999997,-144.261L393.76099999999997,-144.261L393.76099999999997,-134.261L404.01099999999997,-134.261L405.11199999999997,-134.006L406.18100000000004,-133.64100000000002L407.20799999999997,-133.17000000000002L408.182,-132.59699999999998L409.09299999999996,-131.928L409.932,-131.171L410.68899999999996,-130.332L411.358,-129.422L411.93100000000004,-128.447L412.402,-127.42L412.767,-126.351L413.02099999999996,-125.25L413.02099999999996,-57.75L480.52099999999996,-57.75L481.622,-57.495000000000005L482.692,-57.131L483.719,-56.65899999999999L484.693,-56.08699999999999L485.60400000000004,-55.418000000000006L486.442,-54.66L487.2,-53.822L487.868,-52.911L488.44100000000003,-51.93700000000001L488.91200000000003,-50.91L489.277,-49.84L489.53200000000004,-48.739000000000004L489.53200000000004,-38.489000000000004L499.53200000000004,-38.489000000000004L499.53200000000004,-0.4890000000000043L489.53200000000004,-0.4890000000000043L489.53200000000004,9.761000000000024L489.277,10.862000000000023L488.91200000000003,11.930999999999983L488.44100000000003,12.958000000000027L487.868,13.932000000000016L487.2,14.843000000000018L486.442,15.682000000000016L485.60400000000004,16.43900000000002L484.693,17.108000000000004L483.719,17.680999999999983L482.692,18.151999999999987L481.622,18.516999999999996L480.52099999999996,18.771000000000015L413.02099999999996,18.771000000000015L413.02099999999996,86.27100000000002L412.767,87.37200000000001L412.402,88.44200000000001L411.93100000000004,89.469L411.358,90.44299999999998L410.68899999999996,91.35399999999998L409.932,92.19200000000001L409.09299999999996,92.94999999999999L408.182,93.618L407.20799999999997,94.19099999999997L406.18100000000004,94.66199999999998L405.11199999999997,95.02699999999999L404.01099999999997,95.28199999999998L393.76099999999997,95.28199999999998L393.76099999999997,105.28199999999998L355.76099999999997,105.28199999999998L355.76099999999997,95.28199999999998L345.51099999999997,95.28199999999998L344.40999999999997,95.02699999999999L343.34000000000003,94.66199999999998L342.313,94.19099999999997L341.339,93.618L340.428,92.94999999999999L339.59000000000003,92.19200000000001L338.832,91.35399999999998L338.163,90.44299999999998L337.591,89.469L337.119,88.44200000000001L336.755,87.37200000000001L336.5,86.27100000000002L336.5,18.771000000000015L269,18.771000000000015L267.899,18.516999999999996L266.83,18.151999999999987L265.803,17.680999999999983L264.828,17.108000000000004L263.918,16.43900000000002L263.079,15.682000000000016L262.322,14.843000000000018L261.653,13.932000000000016L261.08,12.958000000000027L260.609,11.930999999999983L260.244,10.862000000000023L259.989,9.761000000000024L259.989,-0.4890000000000043L249.989,-0.4890000000000043L249.989,-38.489000000000004L259.989,-38.489000000000004L259.989,-48.739000000000004L260.244,-49.84L260.609,-50.91L261.08,-51.93700000000001L261.653,-52.911L262.322,-53.822L263.079,-54.66L263.918,-55.418000000000006L264.828,-56.08699999999999L265.803,-56.65899999999999L266.83,-57.131L267.899,-57.495000000000005z"></path><path d="M19,192.25L86.5,192.25L86.5,124.75L86.755,123.649L87.119,122.58L87.591,121.553L88.163,120.578L88.832,119.668L89.59,118.829L90.428,118.072L91.339,117.403L92.313,116.83L93.34,116.359L94.41,115.994L95.511,115.739L105.761,115.739L105.761,105.739L143.761,105.739L143.761,115.739L154.011,115.739L155.112,115.994L156.181,116.359L157.208,116.83L158.182,117.403L159.093,118.072L159.932,118.829L160.689,119.668L161.358,120.578L161.931,121.553L162.402,122.58L162.767,123.649L163.021,124.75L163.021,192.25L230.521,192.25L231.622,192.505L232.692,192.869L233.719,193.341L234.693,193.913L235.604,194.582L236.442,195.34L237.2,196.178L237.868,197.089L238.441,198.063L238.912,199.09L239.277,200.16L239.532,201.261L239.532,211.511L249.532,211.511L249.532,249.511L239.532,249.511L239.532,259.761L239.277,260.862L238.912,261.931L238.441,262.958L237.868,263.932L237.2,264.843L236.442,265.682L235.604,266.439L234.693,267.108L233.719,267.681L232.692,268.152L231.622,268.517L230.521,268.771L163.021,268.771L163.021,336.271L162.767,337.372L162.402,338.442L161.931,339.469L161.358,340.443L160.689,341.354L159.932,342.192L159.093,342.95L158.182,343.618L157.208,344.191L156.181,344.662L155.112,345.027L154.011,345.282L143.761,345.282L143.761,355.282L105.761,355.282L105.761,345.282L95.511,345.282L94.41,345.027L93.34,344.662L92.313,344.191L91.339,343.618L90.428,342.95L89.59,342.192L88.832,341.354L88.163,340.443L87.591,339.469L87.119,338.442L86.755,337.372L86.5,336.271L86.5,268.771L19,268.771L17.899,268.517L16.83,268.152L15.803,267.681L14.828,267.108L13.918,266.439L13.079,265.682L12.322,264.843L11.653,263.932L11.08,262.958L10.609,261.931L10.244,260.862L9.989,259.761L9.989,249.511L-0.011,249.511L-0.011,211.511L9.989,211.511L9.989,201.261L10.244,200.16L10.609,199.09L11.08,198.063L11.653,197.089L12.322,196.178L13.079,195.34L13.918,194.582L14.828,193.913L15.803,193.341L16.83,192.869L17.899,192.505z"></path><path d="M269,192.25L336.5,192.25L336.5,124.75L336.755,123.649L337.119,122.58L337.591,121.553L338.163,120.578L338.832,119.668L339.59000000000003,118.829L340.428,118.072L341.339,117.403L342.313,116.83L343.34000000000003,116.359L344.40999999999997,115.994L345.51099999999997,115.739L355.76099999999997,115.739L355.76099999999997,105.739L393.76099999999997,105.739L393.76099999999997,115.739L404.01099999999997,115.739L405.11199999999997,115.994L406.18100000000004,116.359L407.20799999999997,116.83L408.182,117.403L409.09299999999996,118.072L409.932,118.829L410.68899999999996,119.668L411.358,120.578L411.93100000000004,121.553L412.402,122.58L412.767,123.649L413.02099999999996,124.75L413.02099999999996,192.25L480.52099999999996,192.25L481.622,192.505L482.692,192.869L483.719,193.341L484.693,193.913L485.60400000000004,194.582L486.442,195.34L487.2,196.178L487.868,197.089L488.44100000000003,198.063L488.91200000000003,199.09L489.277,200.16L489.53200000000004,201.261L489.53200000000004,211.511L499.53200000000004,211.511L499.53200000000004,249.511L489.53200000000004,249.511L489.53200000000004,259.761L489.277,260.862L488.91200000000003,261.931L488.44100000000003,262.958L487.868,263.932L487.2,264.843L486.442,265.682L485.60400000000004,266.439L484.693,267.108L483.719,267.681L482.692,268.152L481.622,268.517L480.52099999999996,268.771L413.02099999999996,268.771L413.02099999999996,336.271L412.767,337.372L412.402,338.442L411.93100000000004,339.469L411.358,340.443L410.68899999999996,341.354L409.932,342.192L409.09299999999996,342.95L408.182,343.618L407.20799999999997,344.191L406.18100000000004,344.662L405.11199999999997,345.027L404.01099999999997,345.282L393.76099999999997,345.282L393.76099999999997,355.282L355.76099999999997,355.282L355.76099999999997,345.282L345.51099999999997,345.282L344.40999999999997,345.027L343.34000000000003,344.662L342.313,344.191L341.339,343.618L340.428,342.95L339.59000000000003,342.192L338.832,341.354L338.163,340.443L337.591,339.469L337.119,338.442L336.755,337.372L336.5,336.271L336.5,268.771L269,268.771L267.899,268.517L266.83,268.152L265.803,267.681L264.828,267.108L263.918,266.439L263.079,265.682L262.322,264.843L261.653,263.932L261.08,262.958L260.609,261.931L260.244,260.862L259.989,259.761L259.989,249.511L249.989,249.511L249.989,211.511L259.989,211.511L259.989,201.261L260.244,200.16L260.609,199.09L261.08,198.063L261.653,197.089L262.322,196.178L263.079,195.34L263.918,194.582L264.828,193.913L265.803,193.341L266.83,192.869L267.899,192.505z"></path><path d="M-87,19.25L-19.5,19.25L-18.399,18.995L-17.330000000000013,18.631L-16.302999999999997,18.159L-15.328000000000003,17.587L-14.418000000000006,16.918L-13.579000000000008,16.16L-12.822000000000003,15.322L-12.152999999999992,14.411L-11.580000000000013,13.437L-11.109000000000009,12.41L-10.744,11.34L-10.489000000000004,10.239L-10.489000000000004,-0.011L9.511000000000024,-0.011L9.511000000000024,10.239L9.764999999999986,11.34L10.129999999999995,12.41L10.600999999999999,13.437L11.173999999999978,14.411L11.843000000000018,15.322L12.600000000000023,16.16L13.439000000000021,16.918L14.350000000000023,17.587L15.324000000000012,18.159L16.351,18.631L17.420000000000016,18.995L18.521000000000015,19.25L86.02100000000002,19.25L86.02100000000002,86.75L86.27600000000001,87.851L86.63999999999999,88.92L87.11200000000002,89.947L87.685,90.922L88.35300000000001,91.832L89.11099999999999,92.671L89.94900000000001,93.428L90.86000000000001,94.097L91.834,94.67L92.86099999999999,95.141L93.93099999999998,95.506L95.03199999999998,95.761L105.28199999999998,95.761L105.28199999999998,115.761L95.03199999999998,115.761L93.93099999999998,116.015L92.86099999999999,116.38L91.834,116.851L90.86000000000001,117.424L89.94900000000001,118.093L89.11099999999999,118.85L88.35300000000001,119.689L87.685,120.6L87.11200000000002,121.574L86.63999999999999,122.601L86.27600000000001,123.67L86.02100000000002,124.771L86.02100000000002,192.271L18.521000000000015,192.271L17.420000000000016,192.526L16.351,192.89L15.324000000000012,193.362L14.350000000000023,193.935L13.439000000000021,194.603L12.600000000000023,195.361L11.843000000000018,196.199L11.173999999999978,197.11L10.600999999999999,198.084L10.129999999999995,199.111L9.764999999999986,200.181L9.511000000000024,201.282L9.511000000000024,211.532L-0.4890000000000043,211.532L-10.489000000000004,211.532L-10.489000000000004,201.282L-10.744,200.181L-11.109000000000009,199.111L-11.580000000000013,198.084L-12.152999999999992,197.11L-12.822000000000003,196.199L-13.579000000000008,195.361L-14.418000000000006,194.603L-15.328000000000003,193.935L-16.302999999999997,193.362L-17.330000000000013,192.89L-18.399,192.526L-19.5,192.271L-87,192.271L-87,124.771L-87.255,123.67L-87.619,122.601L-88.09100000000001,121.574L-88.66300000000001,120.6L-89.332,119.689L-90.09,118.85L-90.928,118.093L-91.839,117.424L-92.81299999999999,116.851L-93.84,116.38L-94.91,116.015L-96.011,115.761L-106.261,115.761L-106.261,105.761L-106.261,95.761L-96.011,95.761L-94.91,95.506L-93.84,95.141L-92.81299999999999,94.67L-91.839,94.097L-90.928,93.428L-90.09,92.671L-89.332,91.832L-88.66300000000001,90.922L-88.09100000000001,89.947L-87.619,88.92L-87.255,87.851L-87,86.75z"></path><path d="M163,19.25L230.5,19.25L231.601,18.995L232.67,18.631L233.697,18.159L234.672,17.587L235.582,16.918L236.421,16.16L237.178,15.322L237.847,14.411L238.42,13.437L238.891,12.41L239.256,11.34L239.511,10.239L239.511,-0.011L259.511,-0.011L259.511,10.239L259.765,11.34L260.13,12.41L260.601,13.437L261.174,14.411L261.843,15.322L262.6,16.16L263.439,16.918L264.35,17.587L265.324,18.159L266.351,18.631L267.42,18.995L268.521,19.25L336.021,19.25L336.021,86.75L336.276,87.851L336.64,88.92L337.112,89.947L337.685,90.922L338.353,91.832L339.111,92.671L339.949,93.428L340.86,94.097L341.834,94.67L342.861,95.141L343.931,95.506L345.032,95.761L355.282,95.761L355.282,115.761L345.032,115.761L343.931,116.015L342.861,116.38L341.834,116.851L340.86,117.424L339.949,118.093L339.111,118.85L338.353,119.689L337.685,120.6L337.112,121.574L336.64,122.601L336.276,123.67L336.021,124.771L336.021,192.271L268.521,192.271L267.42,192.526L266.351,192.89L265.324,193.362L264.35,193.935L263.439,194.603L262.6,195.361L261.843,196.199L261.174,197.11L260.601,198.084L260.13,199.111L259.765,200.181L259.511,201.282L259.511,211.532L249.511,211.532L239.511,211.532L239.511,201.282L239.256,200.181L238.891,199.111L238.42,198.084L237.847,197.11L237.178,196.199L236.421,195.361L235.582,194.603L234.672,193.935L233.697,193.362L232.67,192.89L231.601,192.526L230.5,192.271L163,192.271L163,124.771L162.745,123.67L162.381,122.601L161.909,121.574L161.337,120.6L160.668,119.689L159.91,118.85L159.072,118.093L158.161,117.424L157.187,116.851L156.16,116.38L155.09,116.015L153.989,115.761L143.739,115.761L143.739,105.761L143.739,95.761L153.989,95.761L155.09,95.506L156.16,95.141L157.187,94.67L158.161,94.097L159.072,93.428L159.91,92.671L160.668,91.832L161.337,90.922L161.909,89.947L162.381,88.92L162.745,87.851L163,86.75z"></path><path d="M-87,269.25L-19.5,269.25L-18.399,268.995L-17.330000000000013,268.631L-16.302999999999997,268.159L-15.328000000000003,267.587L-14.418000000000006,266.918L-13.579000000000008,266.16L-12.822000000000003,265.322L-12.152999999999992,264.411L-11.580000000000013,263.437L-11.109000000000009,262.41L-10.744,261.34L-10.489000000000004,260.239L-10.489000000000004,249.989L9.511000000000024,249.989L9.511000000000024,260.239L9.764999999999986,261.34L10.129999999999995,262.41L10.600999999999999,263.437L11.173999999999978,264.411L11.843000000000018,265.322L12.600000000000023,266.16L13.439000000000021,266.918L14.350000000000023,267.587L15.324000000000012,268.159L16.351,268.631L17.420000000000016,268.995L18.521000000000015,269.25L86.02100000000002,269.25L86.02100000000002,336.75L86.27600000000001,337.851L86.63999999999999,338.92L87.11200000000002,339.947L87.685,340.922L88.35300000000001,341.832L89.11099999999999,342.671L89.94900000000001,343.428L90.86000000000001,344.097L91.834,344.67L92.86099999999999,345.141L93.93099999999998,345.506L95.03199999999998,345.76099999999997L105.28199999999998,345.76099999999997L105.28199999999998,365.76099999999997L95.03199999999998,365.76099999999997L93.93099999999998,366.015L92.86099999999999,366.38L91.834,366.851L90.86000000000001,367.424L89.94900000000001,368.093L89.11099999999999,368.85L88.35300000000001,369.68899999999996L87.685,370.6L87.11200000000002,371.574L86.63999999999999,372.601L86.27600000000001,373.67L86.02100000000002,374.771L86.02100000000002,442.27099999999996L18.521000000000015,442.27099999999996L17.420000000000016,442.526L16.351,442.89L15.324000000000012,443.36199999999997L14.350000000000023,443.935L13.439000000000021,444.603L12.600000000000023,445.361L11.843000000000018,446.199L11.173999999999978,447.11L10.600999999999999,448.084L10.129999999999995,449.111L9.764999999999986,450.18100000000004L9.511000000000024,451.28200000000004L9.511000000000024,461.53200000000004L-0.4890000000000043,461.53200000000004L-10.489000000000004,461.53200000000004L-10.489000000000004,451.28200000000004L-10.744,450.18100000000004L-11.109000000000009,449.111L-11.580000000000013,448.084L-12.152999999999992,447.11L-12.822000000000003,446.199L-13.579000000000008,445.361L-14.418000000000006,444.603L-15.328000000000003,443.935L-16.302999999999997,443.36199999999997L-17.330000000000013,442.89L-18.399,442.526L-19.5,442.27099999999996L-87,442.27099999999996L-87,374.771L-87.255,373.67L-87.619,372.601L-88.09100000000001,371.574L-88.66300000000001,370.6L-89.332,369.68899999999996L-90.09,368.85L-90.928,368.093L-91.839,367.424L-92.81299999999999,366.851L-93.84,366.38L-94.91,366.015L-96.011,365.76099999999997L-106.261,365.76099999999997L-106.261,355.76099999999997L-106.261,345.76099999999997L-96.011,345.76099999999997L-94.91,345.506L-93.84,345.141L-92.81299999999999,344.67L-91.839,344.097L-90.928,343.428L-90.09,342.671L-89.332,341.832L-88.66300000000001,340.922L-88.09100000000001,339.947L-87.619,338.92L-87.255,337.851L-87,336.75z"></path><path d="M163,269.25L230.5,269.25L231.601,268.995L232.67,268.631L233.697,268.159L234.672,267.587L235.582,266.918L236.421,266.16L237.178,265.322L237.847,264.411L238.42,263.437L238.891,262.41L239.256,261.34L239.511,260.239L239.511,249.989L259.511,249.989L259.511,260.239L259.765,261.34L260.13,262.41L260.601,263.437L261.174,264.411L261.843,265.322L262.6,266.16L263.439,266.918L264.35,267.587L265.324,268.159L266.351,268.631L267.42,268.995L268.521,269.25L336.021,269.25L336.021,336.75L336.276,337.851L336.64,338.92L337.112,339.947L337.685,340.922L338.353,341.832L339.111,342.671L339.949,343.428L340.86,344.097L341.834,344.67L342.861,345.141L343.931,345.506L345.032,345.76099999999997L355.282,345.76099999999997L355.282,365.76099999999997L345.032,365.76099999999997L343.931,366.015L342.861,366.38L341.834,366.851L340.86,367.424L339.949,368.093L339.111,368.85L338.353,369.68899999999996L337.685,370.6L337.112,371.574L336.64,372.601L336.276,373.67L336.021,374.771L336.021,442.27099999999996L268.521,442.27099999999996L267.42,442.526L266.351,442.89L265.324,443.36199999999997L264.35,443.935L263.439,444.603L262.6,445.361L261.843,446.199L261.174,447.11L260.601,448.084L260.13,449.111L259.765,450.18100000000004L259.511,451.28200000000004L259.511,461.53200000000004L249.511,461.53200000000004L239.511,461.53200000000004L239.511,451.28200000000004L239.256,450.18100000000004L238.891,449.111L238.42,448.084L237.847,447.11L237.178,446.199L236.421,445.361L235.582,444.603L234.672,443.935L233.697,443.36199999999997L232.67,442.89L231.601,442.526L230.5,442.27099999999996L163,442.27099999999996L163,374.771L162.745,373.67L162.381,372.601L161.909,371.574L161.337,370.6L160.668,369.68899999999996L159.91,368.85L159.072,368.093L158.161,367.424L157.187,366.851L156.16,366.38L155.09,366.015L153.989,365.76099999999997L143.739,365.76099999999997L143.739,355.76099999999997L143.739,345.76099999999997L153.989,345.76099999999997L155.09,345.506L156.16,345.141L157.187,344.67L158.161,344.097L159.072,343.428L159.91,342.671L160.668,341.832L161.337,340.922L161.909,339.947L162.381,338.92L162.745,337.851L163,336.75z"></path></svg>