<svg width="262" height="292" version="1.2" xmlns="http://www.w3.org/2000/svg" viewBox="0 0 262 292"><style type="text/css">path {stroke-width: 1; vector-effect: non-scaling-stroke; fill:none; stroke: #000; stroke-linecap: round; stroke-linejoin: miter;}</style><path d="M0,231.75L55.5,231.75L75,231.75L75,291.75L55.5,291.75L0,291.75z"></path><path d="M138.75,63L198.75,63L198.75,97.5L198.75,134.25L198.75,168L138.75,168L138.75,134.25z"></path><path d="M-63.25,134.25L20,134.25L20,231.75L0.5,231.75L0.5,168L-63.25,168z"></path><path d="M198.75,134.25L282,134.25L282,231.75L262.5,231.75L262.5,168L198.75,168z"></path><path d="M55.5,-0.25L75,-0.25L75,63.5L138.75,63.5L138.75,97.25L55.5,97.25z"></path><path d="M55.5,291.75L75,291.75L75,355.5L138.75,355.5L138.75,389.25L55.5,389.25z"></path><path d="M-63.25,63.5L0.5,63.5L0.5,-0.25L20,-0.25L20,97.25L-63.25,97.25z"></path><path d="M198.75,63.5L262.5,63.5L262.5,-0.25L282,-0.25L282,97.25L198.75,97.25z"></path><path d="M-63.25,355.5L0.5,355.5L0.5,291.75L20,291.75L20,389.25L-63.25,389.25z"></path><path d="M198.75,355.5L262.5,355.5L262.5,291.75L282,291.75L282,389.25L198.75,389.25z"></path><path d="M55.5,134.25L138.75,134.25L138.75,168L75,168L75,231.75L55.5,231.75z"></path><path d="M-187,-124L-123.25,-124L-63.25,-124L0.5,-124L0.5,-60.25L0.5,-0.25L0.5,63.5L-63.25,63.5L-123.25,63.5L-187,63.5L-187,-0.25L-187,-60.25z"></path><path d="M75,-124L138.75,-124L198.75,-124L262.5,-124L262.5,-60.25L262.5,-0.25L262.5,63.5L198.75,63.5L138.75,63.5L75,63.5L75,-0.25L75,-60.25z"></path><path d="M-187,168L-123.25,168L-63.25,168L0.5,168L0.5,231.75L0.5,291.75L0.5,355.5L-63.25,355.5L-123.25,355.5L-187,355.5L-187,291.75L-187,231.75z"></path><path d="M75,168L138.75,168L198.75,168L262.5,168L262.5,231.75L262.5,291.75L262.5,355.5L198.75,355.5L138.75,355.5L75,355.5L75,291.75L75,231.75z"></path><path d="M20,0L56,0L56,97.5L139.25,97.5L139.25,134.25L56,134.25L56,231.75L20,231.75L20,134.25L-63.25,134.25L-63.25,97.5L20,97.5z"></path><path d="M282,0L318,0L318,97.5L401.25,97.5L401.25,134.25L318,134.25L318,231.75L282,231.75L282,134.25L198.75,134.25L198.75,97.5L282,97.5z"></path></svg>