<svg width="300" height="300" version="1.2" xmlns="http://www.w3.org/2000/svg" viewBox="0 0 300 300"><style type="text/css">path {stroke-width: 1; vector-effect: non-scaling-stroke; fill:none; stroke: #000; stroke-linecap: round; stroke-linejoin: miter;}</style><path d="M-225,-225L0.005999999999971806,-299.98L-74.975,-74.975L-299.98,0.005999999999971806z"></path><path d="M75,-225L300.006,-299.98L225.025,-74.975L0.02,0.005999999999971806z"></path><path d="M-225,75L0.005999999999971806,0.02L-74.975,225.025L-299.98,300.006z"></path><path d="M75,75L300.006,0.02L225.025,225.025L0.02,300.006z"></path><path d="M0,-300L75.003,-224.997L0.023,0.009000000000014552z"></path><path d="M0,0L75.003,75.003L0.023,300.009z"></path><path d="M300,0L300,300L224.997,224.997z"></path><path d="M0,0L300,0L74.994,74.98z"></path><path d="M-300,0L-74.994,-74.97999999999999L0.009000000000014552,0.023000000000024556z"></path><path d="M0,0L225.006,-74.97999999999999L300.009,0.023000000000024556z"></path><path d="M-300,300L-74.994,225.02L0.009000000000014552,300.023z"></path><path d="M0,300L225.006,225.02L300.009,300.023z"></path></svg>