<svg width="221" height="221" version="1.2" xmlns="http://www.w3.org/2000/svg" viewBox="0 0 221 221"><style type="text/css">path {stroke-width: 1; vector-effect: non-scaling-stroke; fill:none; stroke: #000; stroke-linecap: round; stroke-linejoin: miter;}</style><path d="M185.36,106.07L220.715,70.715L220.715,141.425z"></path><path d="M60.36,10.069999999999993L110.36,-39.93000000000001L110.36,10.069999999999993z"></path><path d="M60.36,231.07L110.36,181.07L110.36,231.07z"></path><path d="M60.36,-39.93000000000001L110.36,-39.93000000000001L60.36,10.069999999999993z"></path><path d="M60.36,181.07L110.36,181.07L60.36,231.07z"></path><path d="M110.36,-39.93000000000001L160.36,10.069999999999993L110.36,10.069999999999993z"></path><path d="M110.36,181.07L160.36,231.07L110.36,231.07z"></path><path d="M110.36,131.07L160.36,131.07L110.36,181.07z"></path><path d="M60.36,10.069999999999993L110.36,10.069999999999993L110.36,70.43L70.72,70.43L35.365,35.07499999999999z"></path><path d="M110.36,10.069999999999993L160.36,10.069999999999993L185.363,35.07299999999998L150.008,70.42899999999997L110.368,70.42899999999997z"></path><path d="M185.36,106.07L220.715,141.425L220.715,181.065L160.355,181.065L160.355,131.065z"></path><path d="M0,-39.93000000000001L60.36,-39.93000000000001L60.36,10.069999999999993L35.357,35.07299999999998L0.001,-0.2820000000000107z"></path><path d="M0,181.07L60.36,181.07L60.36,231.07L35.357,256.073L0.001,220.718z"></path><path d="M160.36,131.07L160.36,181.07L110.36,181.07z"></path><path d="M60.36,131.07L110.36,181.07L60.36,181.07z"></path><path d="M35.36,106.07L60.363,131.073L60.363,181.073L0.003,181.073L0.003,141.433z"></path><path d="M60.36,131.07L110.36,131.07L110.36,181.07z"></path><path d="M110.36,-39.93000000000001L160.36,-39.93000000000001L160.36,10.069999999999993z"></path><path d="M110.36,181.07L160.36,181.07L160.36,231.07z"></path><path d="M70.71,70.71L110.35,70.71L110.35,131.07L60.35,131.07L35.347,106.067z"></path><path d="M160.36,-39.93000000000001L220.72,-39.93000000000001L220.72,-0.28999999999999204L185.365,35.065L160.361,10.062000000000012z"></path><path d="M160.36,181.07L220.72,181.07L220.72,220.71L185.365,256.065L160.361,231.062z"></path><path d="M185.36,35.36L220.715,0.005L220.715,70.715z"></path><path d="M150,70.71L185.355,35.355L220.711,70.71z"></path><path d="M110.36,70.71L150,70.71L185.355,106.065L160.352,131.069L110.352,131.069z"></path><path d="M-0.28999999999999204,70.71L35.065,106.065L-0.28999999999999204,141.421z"></path><path d="M220.71,70.71L256.065,106.065L220.71,141.421z"></path><path d="M150,70.71L220.71,70.71L185.355,106.065z"></path><path d="M-0.28999999999999204,0L35.065,35.355L-0.28999999999999204,70.711z"></path><path d="M220.71,0L256.065,35.355L220.71,70.711z"></path><path d="M-0.28999999999999204,70.71L35.065,35.355L70.42099999999999,70.71z"></path><path d="M220.71,70.71L256.065,35.355L291.421,70.71z"></path><path d="M-0.28999999999999204,70.71L70.42000000000002,70.71L35.065,106.065z"></path><path d="M220.71,70.71L291.42,70.71L256.065,106.065z"></path></svg>