<svg width="200" height="700" version="1.2" xmlns="http://www.w3.org/2000/svg" viewBox="0 0 200 700"><style type="text/css">path {stroke-width: 1; vector-effect: non-scaling-stroke; fill:none; stroke: #000; stroke-linecap: round; stroke-linejoin: miter;}</style><path d="M114.64,-335.36L124.993,-343.304L137.05,-348.298L149.988,-350.002L162.927,-348.298L174.983,-343.304L185.336,-335.36L193.281,-325.007L198.275,-312.95L199.978,-300.012L199.978,49.988000000000056L198.275,37.049999999999955L193.281,24.993000000000052L185.336,14.639999999999986L174.983,6.696000000000026L162.927,1.7019999999999982L149.988,-0.0019999999999527063L137.05,1.7019999999999982L124.993,6.696000000000026L114.64,14.639999999999986L106.696,24.993000000000052L101.702,37.049999999999955L99.998,49.988000000000056L99.998,-0.011999999999943611L99.998,-300.012L101.702,-312.95L106.696,-325.007z"></path><path d="M114.64,364.64L124.993,356.696L137.05,351.702L149.988,349.998L162.927,351.702L174.983,356.696L185.336,364.64L193.281,374.993L198.275,387.05L199.978,399.988L199.978,749.988L198.275,737.05L193.281,724.993L185.336,714.64L174.983,706.696L162.927,701.702L149.988,699.998L137.05,701.702L124.993,706.696L114.64,714.64L106.696,724.993L101.702,737.05L99.998,749.988L99.998,699.988L99.998,399.988L101.702,387.05L106.696,374.993z"></path><path d="M114.64,14.64L124.993,6.696L137.05,1.702L149.988,-0.002L162.927,1.702L174.983,6.696L185.336,14.64L193.281,24.993L198.275,37.05L199.978,49.988L199.978,399.988L198.275,387.05L193.281,374.993L185.336,364.64L174.983,356.696L162.927,351.702L149.988,349.998L137.05,351.702L124.993,356.696L114.64,364.64L106.696,374.993L101.702,387.05L99.998,399.988L99.998,349.988L99.998,49.988L101.702,37.05L106.696,24.993z"></path><path d="M114.64,714.64L124.993,706.696L137.05,701.702L149.988,699.998L162.927,701.702L174.983,706.696L185.336,714.64L193.281,724.993L198.275,737.05L199.978,749.988L199.978,1099.988L198.275,1087.05L193.281,1074.993L185.336,1064.6399999999999L174.983,1056.696L162.927,1051.702L149.988,1049.998L137.05,1051.702L124.993,1056.696L114.64,1064.6399999999999L106.696,1074.993L101.702,1087.05L99.998,1099.988L99.998,1049.988L99.998,749.988L101.702,737.05L106.696,724.993z"></path><path d="M0,0L1.703,12.938L6.697,24.995L14.642,35.348L24.995,43.293L37.052,48.287L49.99,49.99L62.928,48.287L74.985,43.293L85.338,35.348L93.283,24.995L98.277,12.938L99.98,0L99.98,50L99.98,350L98.277,362.938L93.283,374.995L85.338,385.348L74.985,393.293L62.928,398.287L49.99,399.99L37.052,398.287L24.995,393.293L14.642,385.348L6.697,374.995L1.703,362.938L0,350z"></path><path d="M0,-350L1.703,-337.062L6.697,-325.005L14.642,-314.652L24.995,-306.707L37.052,-301.713L49.99,-300.01L62.928,-301.713L74.985,-306.707L85.338,-314.652L93.283,-325.005L98.277,-337.062L99.98,-350L99.98,-300L99.98,0L98.277,12.937999999999988L93.283,24.995000000000005L85.338,35.347999999999956L74.985,43.293000000000006L62.928,48.287000000000035L49.99,49.99000000000001L37.052,48.287000000000035L24.995,43.293000000000006L14.642,35.347999999999956L6.697,24.995000000000005L1.703,12.937999999999988L0,0z"></path><path d="M0,350L1.703,362.938L6.697,374.995L14.642,385.348L24.995,393.293L37.052,398.287L49.99,399.99L62.928,398.287L74.985,393.293L85.338,385.348L93.283,374.995L98.277,362.938L99.98,350L99.98,400L99.98,700L98.277,712.938L93.283,724.995L85.338,735.348L74.985,743.293L62.928,748.287L49.99,749.99L37.052,748.287L24.995,743.293L14.642,735.348L6.697,724.995L1.703,712.938L0,700z"></path></svg>