<svg width="400" height="400" version="1.2" xmlns="http://www.w3.org/2000/svg" viewBox="0 0 400 400"><style type="text/css">path {stroke-width: 1; vector-effect: non-scaling-stroke; fill:none; stroke: #000; stroke-linecap: round; stroke-linejoin: miter;}</style><path d="M0,200L10,200L190,200L200,200L200,210L176.711,213.066L155.009,222.055L136.373,236.355L122.073,254.991L113.084,276.693L110.018,299.982L113.084,323.271L122.073,344.973L136.373,363.609L155.009,377.909L176.711,386.898L200,389.964L200,399.964L0,399.964L0,389.964L23.289,386.898L44.991,377.909L63.627,363.609L77.927,344.973L86.916,323.271L89.982,299.982L86.916,276.693L77.927,254.991L63.627,236.355L44.991,222.055L23.289,213.066L0,210z"></path><path d="M136.36,236.36L154.996,222.06L176.698,213.071L199.987,210.005L199.987,390.005L176.698,386.939L154.996,377.95L136.36,363.65L122.06,345.014L113.071,323.312L110.005,300.023L113.071,276.734L122.06,255.032z"></path><path d="M0,210L23.289,213.066L44.991,222.055L63.627,236.355L77.927,254.991L86.916,276.693L89.982,299.982L86.916,323.271L77.927,344.973L63.627,363.609L44.991,377.909L23.289,386.898L0,389.964z"></path><path d="M210,200L390,200L386.934,223.289L377.945,244.991L363.645,263.627L345.009,277.927L323.307,286.916L300.018,289.982L276.729,286.916L255.027,277.927L236.391,263.627L222.091,244.991L213.102,223.289z"></path><path d="M236.36,336.36L254.996,322.06L276.698,313.071L299.987,310.005L323.276,313.071L344.978,322.06L363.614,336.36L377.913,354.996L386.903,376.698L389.969,399.987L209.969,399.987L213.035,376.698L222.024,354.996z"></path><path d="M200,200L210,200L213.066,223.289L222.055,244.991L236.355,263.627L254.991,277.927L276.693,286.916L299.982,289.982L323.271,286.916L344.973,277.927L363.609,263.627L377.909,244.991L386.898,223.289L389.964,200L399.964,200L399.964,400L389.964,400L386.898,376.711L377.909,355.009L363.609,336.373L344.973,322.073L323.271,313.084L299.982,310.018L276.693,313.084L254.991,322.073L236.355,336.373L222.055,355.009L213.066,376.711L210,400L200,400L200,390L200,210z"></path><path d="M36.36,136.36L54.996,122.06L76.698,113.071L99.987,110.005L123.276,113.071L144.978,122.06L163.614,136.36L177.913,154.996L186.903,176.698L189.969,199.987L9.969,199.987L13.035,176.698L22.024,154.996z"></path><path d="M10,0L190,0L186.934,23.289L177.945,44.991L163.645,63.627L145.009,77.927L123.307,86.916L100.018,89.982L76.729,86.916L55.027,77.927L36.391,63.627L22.091,44.991L13.102,23.289z"></path><path d="M0,0L10,0L13.066,23.289L22.055,44.991L36.355,63.627L54.991,77.927L76.693,86.916L99.982,89.982L123.271,86.916L144.973,77.927L163.609,63.627L177.909,44.991L186.898,23.289L189.964,0L199.964,0L199.964,10L199.964,190L199.964,200L189.964,200L186.898,176.711L177.909,155.009L163.609,136.373L144.973,122.073L123.271,113.084L99.982,110.018L76.693,113.084L54.991,122.073L36.355,136.373L22.055,155.009L13.066,176.711L10,200L0,200z"></path><path d="M200,10L223.289,13.066L244.991,22.055L263.627,36.355L277.927,54.991L286.916,76.693L289.982,99.982L286.916,123.271L277.927,144.973L263.627,163.609L244.991,177.909L223.289,186.898L200,189.964z"></path><path d="M336.36,36.36L354.996,22.06L376.698,13.071L399.987,10.005L399.987,190.005L376.698,186.939L354.996,177.95L336.36,163.65L322.06,145.014L313.071,123.312L310.005,100.023L313.071,76.734L322.06,55.032z"></path><path d="M200,0L210,0L390,0L400,0L400,10L376.711,13.066L355.009,22.055L336.373,36.355L322.073,54.991L313.084,76.693L310.018,99.982L313.084,123.271L322.073,144.973L336.373,163.609L355.009,177.909L376.711,186.898L400,189.964L400,199.964L390,199.964L210,199.964L200,199.964L200,189.964L223.289,186.898L244.991,177.909L263.627,163.609L277.927,144.973L286.916,123.271L289.982,99.982L286.916,76.693L277.927,54.991L263.627,36.355L244.991,22.055L223.289,13.066L200,10z"></path></svg>