<svg width="707" height="552" version="1.2" xmlns="http://www.w3.org/2000/svg" viewBox="0 0 707 552"><style type="text/css">path {stroke-width: 1; vector-effect: non-scaling-stroke; fill:none; stroke: #000; stroke-linecap: round; stroke-linejoin: miter;}</style><path d="M0,176.78L176.777,0.003L353.553,176.78L176.777,353.557L49.497,226.277z"></path><path d="M49.5,226.27L176.779,353.549L226.277,403.047L176.779,452.544L0.003,275.767z"></path><path d="M176.78,353.55L353.557,176.773L403.054,226.271L226.277,403.047z"></path><path d="M-353.45,176.78L-176.673,0.003L0.1029999999999518,176.78L-176.673,353.557L-303.953,226.277z"></path><path d="M353.55,176.78L530.327,0.003L707.103,176.78L530.327,353.557L403.047,226.277z"></path><path d="M530.33,452.55L353.553,275.773L403.051,226.276L530.33,353.555L579.827,403.053z"></path><path d="M-176.66999999999996,353.55L0.1069999999999709,176.773L49.60400000000004,226.271L-127.173,403.047z"></path><path d="M530.33,353.55L707.107,176.773L756.604,226.271L579.827,403.047z"></path><path d="M-176.66999999999996,-99.44999999999999L0.1069999999999709,-276.227L176.88300000000004,-99.44999999999999L0.1069999999999709,77.327L-127.173,-49.952999999999975z"></path><path d="M530.33,-99.44999999999999L707.107,-276.227L883.883,-99.44999999999999L707.107,77.327L579.827,-49.952999999999975z"></path><path d="M-176.66999999999996,452.55L0.1069999999999709,275.773L176.88300000000004,452.55L0.1069999999999709,629.327L-127.173,502.047z"></path><path d="M530.33,452.55L707.107,275.773L883.883,452.55L707.107,629.327L579.827,502.047z"></path><path d="M0.11000000000001364,176.32000000000005L-176.66700000000003,-0.45699999999999363L-127.16899999999998,-49.95400000000001L0.11000000000001364,77.32500000000005L49.60699999999997,126.82299999999998z"></path><path d="M707.11,176.32000000000005L530.333,-0.45699999999999363L579.831,-49.95400000000001L707.11,77.32500000000005L756.607,126.82299999999998z"></path><path d="M0.11000000000001364,728.32L-176.66700000000003,551.543L-127.16899999999998,502.046L0.11000000000001364,629.325L49.60699999999997,678.823z"></path><path d="M707.11,728.32L530.333,551.543L579.831,502.046L707.11,629.325L756.607,678.823z"></path><path d="M0.11000000000001364,77.33000000000004L176.88699999999994,-99.447L226.38400000000001,-49.94900000000001L49.60699999999997,126.827z"></path><path d="M0.11000000000001364,629.33L176.88699999999994,452.553L226.38400000000001,502.051L49.60699999999997,678.827z"></path><path d="M176.78,-99.44999999999999L353.557,-276.227L530.333,-99.44999999999999L353.557,77.327L226.277,-49.952999999999975z"></path><path d="M176.78,452.55L353.557,275.773L530.333,452.55L353.557,629.327L226.277,502.047z"></path><path d="M176.78,-0.4600000000000364L226.277,-49.956999999999994L353.557,77.322L403.054,126.81899999999996L353.557,176.317z"></path><path d="M176.78,551.54L226.277,502.043L353.557,629.322L403.054,678.819L353.557,728.317z"></path><path d="M353.55,77.33000000000004L530.327,-99.447L579.824,-49.94900000000001L403.047,126.827z"></path><path d="M353.55,629.33L530.327,452.553L579.824,502.051L403.047,678.827z"></path></svg>