<?xml version="1.0" encoding="UTF-8"?>
<!DOCTYPE svg PUBLIC "-//W3C//DTD SVG 1.1//EN" "http://www.w3.org/Graphics/SVG/1.1/DTD/svg11.dtd">
<!-- Creator: CorelDRAW 2021 (64-Bit) -->
<svg xmlns="http://www.w3.org/2000/svg" xml:space="preserve" width="2in" height="2in" version="1.1" shape-rendering="geometricPrecision" text-rendering="geometricPrecision" image-rendering="optimizeQuality" fill-rule="evenodd" clip-rule="evenodd"
viewBox="0 0 2000 2000"
 xmlns:xlink="http://www.w3.org/1999/xlink"
 xmlns:xodm="http://www.corel.com/coreldraw/odm/2003">
 <g id="Layer_x0020_1">
  <metadata id="CorelCorpID_0Corel-Layer"/>
  <g id="_2137213685376">
   <path fill="none" stroke="black" stroke-width="3" stroke-linecap="round" stroke-linejoin="round" stroke-miterlimit="2.61313" d="M991.06 1000.23c-0.59,-47.22 -5.75,-94.43 -18.06,-133.74 -36.16,-115.48 -30.67,-145.08 -53.4,-245.62 0,0 -24.01,63.69 -27.43,78.39 -3.43,14.7 -11.76,34.3 3.92,74.96 15.68,40.67 37.71,149.91 38.7,167.55 0.99,17.65 -7.43,32.39 -29.39,32.83 -21.95,0.44 -74.9,-6.04 -75.15,25.4m160.81 -0.23c-0.59,47.22 -5.75,94.43 -18.06,133.74 -36.16,115.48 -30.67,145.08 -53.4,245.62 0,0 -24.01,-63.69 -27.43,-78.39 -3.43,-14.7 -11.76,-34.3 3.92,-74.96 15.68,-40.67 37.71,-149.91 38.7,-167.55 0.99,-17.65 -7.43,-32.39 -29.39,-32.83 -21.95,-0.44 -74.9,6.04 -75.15,-25.4"/>
   <path fill="none" stroke="black" stroke-width="3" stroke-linecap="round" stroke-linejoin="round" stroke-miterlimit="2.61313" d="M1080.41 522.67c-0.59,-47.22 -5.75,-94.43 -18.06,-133.74 -36.16,-115.48 -30.67,-145.08 -53.4,-245.62 0,0 -24.01,63.69 -27.43,78.39 -3.43,14.7 -11.76,34.3 3.92,74.96 15.68,40.67 37.71,149.91 38.7,167.55 0.99,17.65 -7.43,32.39 -29.39,32.83 -21.95,0.44 -74.9,-6.04 -75.15,25.4m160.81 -0.23c-0.59,47.22 -5.75,94.43 -18.06,133.74 -36.16,115.48 -30.67,145.08 -53.4,245.62 0,0 -24.01,-63.69 -27.43,-78.39 -3.43,-14.7 -11.76,-34.3 3.92,-74.96 15.68,-40.67 37.71,-149.91 38.7,-167.55 0.99,-17.65 -7.43,-32.39 -29.39,-32.83 -21.95,-0.44 -74.9,6.04 -75.15,-25.4"/>
   <path fill="none" stroke="black" stroke-width="3" stroke-linecap="round" stroke-linejoin="round" stroke-miterlimit="2.61313" d="M1080.41 1477.79c-0.59,-47.22 -5.75,-94.43 -18.06,-133.74 -36.16,-115.48 -30.67,-145.08 -53.4,-245.62 0,0 -24.01,63.69 -27.43,78.39 -3.43,14.7 -11.76,34.3 3.92,74.96 15.68,40.67 37.71,149.91 38.7,167.55 0.99,17.65 -7.43,32.39 -29.39,32.83 -21.95,0.44 -74.9,-6.04 -75.15,25.4m160.81 -0.23c-0.59,47.22 -5.75,94.43 -18.06,133.74 -36.16,115.48 -30.67,145.08 -53.4,245.62 0,0 -24.01,-63.69 -27.43,-78.39 -3.43,-14.7 -11.76,-34.3 3.92,-74.96 15.68,-40.67 37.71,-149.91 38.7,-167.55 0.99,-17.65 -7.43,-32.39 -29.39,-32.83 -21.95,-0.44 -74.9,6.04 -75.15,-25.4"/>
   <path fill="none" stroke="black" stroke-width="3" stroke-linecap="round" stroke-linejoin="round" stroke-miterlimit="2.61313" d="M1169.76 1000.23c-0.59,-47.22 -5.75,-94.43 -18.06,-133.74 -36.16,-115.48 -30.67,-145.08 -53.4,-245.62 0,0 -24.01,63.69 -27.43,78.39 -3.43,14.7 -11.76,34.3 3.92,74.96 15.68,40.67 37.71,149.91 38.7,167.55 0.99,17.65 -7.43,32.39 -29.39,32.83 -21.95,0.44 -74.9,-6.04 -75.15,25.4m160.81 -0.23c-0.59,47.22 -5.75,94.43 -18.06,133.74 -36.16,115.48 -30.67,145.08 -53.4,245.62 0,0 -24.01,-63.69 -27.43,-78.39 -3.43,-14.7 -11.76,-34.3 3.92,-74.96 15.68,-40.67 37.71,-149.91 38.7,-167.55 0.99,-17.65 -7.43,-32.39 -29.39,-32.83 -21.95,-0.44 -74.9,6.04 -75.15,-25.4"/>
  </g>
 </g>
</svg>
