<svg width="412" height="412" version="1.2" xmlns="http://www.w3.org/2000/svg" viewBox="0 0 412 412"><style type="text/css">path {stroke-width: 1; vector-effect: non-scaling-stroke; fill:none; stroke: #000; stroke-linecap: round; stroke-linejoin: miter;}</style><path d="M260.98,151.74L279.303,156.987L325.84,184.927L363.56,223.96L389.892,271.425L392.816,283.135L379.087,283.893L355.888,287.763L333.254,294.159L311.46,303.004L290.773,314.195L271.441,327.591L263.688,308.873L251.354,292.8L235.281,280.466L216.563,272.713L229.959,253.381L241.15,232.694L249.995,210.9L256.391,188.266L260.26,165.067z"></path><path d="M-121.25,-97.80000000000001L-100.56299999999999,-108.99000000000001L-78.769,-117.83499999999998L-56.136000000000024,-124.231L-32.93599999999998,-128.101L-19.206999999999994,-128.85899999999998L-9.451999999999998,-129.39800000000002L0.8229999999999791,-128.82999999999998L14.031999999999982,-128.101L37.23200000000003,-124.231L59.86500000000001,-117.83499999999998L81.65899999999999,-108.99000000000001L102.346,-97.80000000000001L116.14700000000005,-88.23700000000002L121.67899999999997,-84.404L121.78499999999997,-84.32999999999998L119.15099999999995,-64.322L121.78499999999997,-44.315L121.67899999999997,-44.240999999999985L102.346,-30.845000000000027L81.65899999999999,-19.653999999999996L59.86500000000001,-10.809000000000026L37.23200000000003,-4.413000000000011L14.031999999999982,-0.5439999999999827L0.4130000000000109,0.20800000000002683L0.29300000000000637,0.214999999999975L-19.62700000000001,0.19400000000001683L-32.95600000000002,-0.5419999999999732L-56.156000000000006,-4.411999999999978L-78.78899999999999,-10.807999999999993L-100.58300000000003,-19.65300000000002L-121.26999999999998,-30.843000000000018L-140.60199999999998,-44.238999999999976L-137.95800000000003,-64.32600000000002L-140.60199999999998,-84.41300000000001z"></path><path d="M290.75,-97.80000000000001L311.437,-108.99000000000001L333.231,-117.83499999999998L355.864,-124.231L379.064,-128.101L392.793,-128.85899999999998L402.548,-129.39800000000002L412.823,-128.82999999999998L426.032,-128.101L449.232,-124.231L471.865,-117.83499999999998L493.659,-108.99000000000001L514.346,-97.80000000000001L528.147,-88.23700000000002L533.679,-84.404L533.785,-84.32999999999998L531.151,-64.322L533.785,-44.315L533.679,-44.240999999999985L514.346,-30.845000000000027L493.659,-19.653999999999996L471.865,-10.809000000000026L449.232,-4.413000000000011L426.032,-0.5439999999999827L412.413,0.20800000000002683L412.293,0.214999999999975L392.373,0.19400000000001683L379.044,-0.5419999999999732L355.844,-4.411999999999978L333.211,-10.807999999999993L311.417,-19.65300000000002L290.73,-30.843000000000018L271.398,-44.238999999999976L274.042,-64.32600000000002L271.398,-84.41300000000001z"></path><path d="M-121.25,314.2L-100.56299999999999,303.01L-78.769,294.165L-56.136000000000024,287.769L-32.93599999999998,283.899L-19.206999999999994,283.141L-9.451999999999998,282.602L0.8229999999999791,283.17L14.031999999999982,283.899L37.23200000000003,287.769L59.86500000000001,294.165L81.65899999999999,303.01L102.346,314.2L116.14700000000005,323.763L121.67899999999997,327.596L121.78499999999997,327.67L119.15099999999995,347.678L121.78499999999997,367.685L121.67899999999997,367.759L102.346,381.155L81.65899999999999,392.346L59.86500000000001,401.191L37.23200000000003,407.587L14.031999999999982,411.456L0.4130000000000109,412.208L0.29300000000000637,412.215L-19.62700000000001,412.194L-32.95600000000002,411.458L-56.156000000000006,407.588L-78.78899999999999,401.192L-100.58300000000003,392.347L-121.26999999999998,381.157L-140.60199999999998,367.761L-137.95800000000003,347.674L-140.60199999999998,327.587z"></path><path d="M290.75,314.2L311.437,303.01L333.231,294.165L355.864,287.769L379.064,283.899L392.793,283.141L402.548,282.602L412.823,283.17L426.032,283.899L449.232,287.769L471.865,294.165L493.659,303.01L514.346,314.2L528.147,323.763L533.679,327.596L533.785,327.67L531.151,347.678L533.785,367.685L533.679,367.759L514.346,381.155L493.659,392.346L471.865,401.191L449.232,407.587L426.032,411.456L412.413,412.208L412.293,412.215L392.373,412.194L379.044,411.458L355.844,407.588L333.211,401.192L311.417,392.347L290.73,381.157L271.398,367.761L274.042,347.674L271.398,327.587z"></path><path d="M141.59,-119.19L157.663,-131.524L176.381,-139.277L196.468,-141.921L197.796,-141.74599999999998L216.554,-139.277L235.272,-131.524L251.346,-119.19L263.679,-103.11700000000002L271.432,-84.399L274.077,-64.31200000000001L271.432,-44.226L263.679,-25.50799999999998L251.346,-9.434000000000026L235.272,2.899000000000001L216.554,10.651999999999987L196.468,13.297000000000025L176.381,10.651999999999987L157.663,2.899000000000001L141.59,-9.434000000000026L129.256,-25.50799999999998L121.503,-44.226L121.493,-44.30500000000001L118.859,-64.31200000000001L121.493,-84.32L121.503,-84.399L129.256,-103.11700000000002z"></path><path d="M141.59,292.81L157.663,280.476L176.381,272.723L196.468,270.079L197.796,270.254L216.554,272.723L235.272,280.476L251.346,292.81L263.679,308.883L271.432,327.601L274.077,347.688L271.432,367.774L263.679,386.492L251.346,402.566L235.272,414.899L216.554,422.652L196.468,425.297L176.381,422.652L157.663,414.899L141.59,402.566L129.256,386.492L121.503,367.774L121.493,367.695L118.859,347.688L121.493,327.68L121.503,327.601L129.256,308.883z"></path><path d="M33.71,218.3L72.743,180.58L120.208,154.248L131.918,151.324L132.676,165.053L136.546,188.253L142.942,210.886L151.787,232.68L162.977,253.367L176.374,272.699L157.656,280.453L141.582,292.786L129.249,308.859L121.496,327.577L121.485,327.657L121.378,327.582L115.847,323.749L102.046,314.186L81.359,302.996L59.565,294.151L36.932,287.755L13.732,283.885L0.522,283.156L5.772,264.823z"></path><path d="M251.33,-9.45999999999998L263.664,-25.533000000000015L271.417,-44.250999999999976L290.749,-30.855000000000018L311.436,-19.66500000000002L333.23,-10.819999999999993L355.863,-4.423999999999978L379.063,-0.5539999999999736L392.392,0.18200000000001637L387.145,18.505999999999972L359.205,65.04199999999997L320.173,102.76199999999994L272.707,129.09400000000005L260.997,132.01800000000003L260.239,118.28899999999999L256.369,95.08999999999997L249.973,72.45600000000002L241.128,50.66300000000001L229.938,29.975000000000023L216.542,10.642999999999972L235.259,2.8899999999999864z"></path><path d="M251.33,402.54L263.664,386.467L271.417,367.749L290.749,381.145L311.436,392.335L333.23,401.18L355.863,407.576L379.063,411.446L392.392,412.182L387.145,430.506L359.205,477.042L320.173,514.762L272.707,541.094L260.997,544.018L260.239,530.289L256.369,507.09L249.973,484.456L241.128,462.663L229.938,441.975L216.542,422.643L235.259,414.89z"></path><path d="M0.12,0.22000000000002728L13.739,-0.5319999999999823L36.939,-4.401999999999987L59.572,-10.798000000000002L81.366,-19.642999999999972L102.053,-30.833000000000027L121.385,-44.228999999999985L121.492,-44.303L121.503,-44.22399999999999L129.256,-25.505999999999972L141.589,-9.432999999999993L157.663,2.9010000000000105L176.38,10.653999999999996L162.984,29.98599999999999L151.794,50.673L142.949,72.46699999999998L136.553,95.10000000000002L132.683,118.29999999999995L131.947,131.63L113.624,126.38199999999995L67.087,98.44200000000001L29.367,59.410000000000025L3.035,11.944999999999993z"></path><path d="M0.12,412.22L13.739,411.468L36.939,407.598L59.572,401.202L81.366,392.357L102.053,381.167L121.385,367.771L121.492,367.697L121.503,367.776L129.256,386.494L141.589,402.567L157.663,414.901L176.38,422.654L162.984,441.986L151.794,462.673L142.949,484.467L136.553,507.1L132.683,530.3L131.947,543.63L113.624,538.382L67.087,510.442L29.367,471.41L3.035,423.945z"></path><path d="M0.4300000000000068,0.02L0.8500000000000227,0.026L0.8500000000000227,1.706z"></path><path d="M-52.25,64.86L-24.310000000000002,18.323L-19.062999999999988,0L0.4370000000000118,0.017L0.8589999999999804,1.705L3.36099999999999,11.727L29.692999999999984,59.192L67.41300000000001,98.225L113.95000000000005,126.165L132.27300000000002,131.412L131.712,141.577L132.25099999999998,151.332L120.53999999999996,154.256L73.07499999999999,180.588L34.043000000000006,218.308L6.103000000000009,264.844L0.8530000000000086,283.178L-9.422000000000025,282.61L-19.17700000000002,283.149L-22.101,271.438L-48.43299999999999,223.973L-86.15300000000002,184.941L-132.69,157.001L-151.01299999999998,151.753L-150.452,141.589L-150.452,131.829L-138.74099999999999,128.905L-91.27600000000001,102.573z"></path><path d="M359.75,64.86L387.69,18.323L392.937,0L412.437,0.017L412.859,1.705L415.361,11.727L441.693,59.192L479.413,98.225L525.95,126.165L544.273,131.412L543.712,141.577L544.251,151.332L532.54,154.256L485.075,180.588L446.043,218.308L418.103,264.844L412.853,283.178L402.578,282.61L392.823,283.149L389.899,271.438L363.567,223.973L325.847,184.941L279.31,157.001L260.987,151.753L261.548,141.589L261.548,131.829L273.259,128.905L320.724,102.573z"></path><path d="M163.52,29.76L176.871,10.494L176.916,10.428L196.725,13.036L196.993,13.071L216.584,10.492L217.08,10.427L230.476,29.759L241.666,50.446L250.511,72.24L256.907,94.873L260.777,118.073L261.535,131.802L261.535,141.562L260.974,151.726L260.238,165.056L256.368,188.255L249.972,210.889L241.127,232.683L229.937,253.37L216.541,272.702L197.782,270.233L196.454,270.058L176.367,272.702L162.971,253.37L151.781,232.683L142.936,210.889L136.54,188.255L132.67,165.056L131.912,151.327L131.373,141.572L131.943,131.257L132.471,131.409L133.207,118.079L137.077,94.88L143.473,72.246L152.318,50.453z"></path></svg>