<svg width="283" height="283" version="1.2" xmlns="http://www.w3.org/2000/svg" viewBox="0 0 283 283"><style type="text/css">path {stroke-width: 1; vector-effect: non-scaling-stroke; fill:none; stroke: #000; stroke-linecap: round; stroke-linejoin: miter;}</style><path d="M38.420000000000016,38.58L53.418000000000006,53.578L53.418000000000006,126.418L53.418000000000006,156.418L53.418000000000006,229.258L38.420000000000016,244.255L38.420000000000016,156.415L38.420000000000016,126.415z"></path><path d="M186.42,96.42L186.42,126.42L186.42,156.42L186.42,186.42L171.422,171.422L171.422,156.422L171.422,126.422L171.422,111.422z"></path><path d="M113.42000000000002,113.58L128.418,128.578L128.418,154.268L113.42000000000002,169.265L113.42000000000002,156.425L113.42000000000002,126.425z"></path><path d="M53.420000000000016,53.58L68.418,68.578L68.418,126.418L68.418,156.418L68.418,214.258L53.420000000000016,229.255L53.420000000000016,156.415L53.420000000000016,126.415z"></path><path d="M171.42,111.42L171.42,126.42L171.42,156.42L171.42,171.42L156.422,156.422L156.422,126.422z"></path><path d="M8.420000000000016,8.58L23.418000000000006,23.578L23.418000000000006,126.418L23.418000000000006,156.418L23.418000000000006,259.258L8.420000000000016,274.255L8.420000000000016,156.415L8.420000000000016,126.415z"></path><path d="M-0.160000000000025,0L8.416999999999973,8.577L8.416999999999973,126.417L8.416999999999973,156.417L8.416999999999973,274.257L-0.160000000000025,282.834L-6.581000000000017,276.414L-6.581000000000017,156.414L-6.581000000000017,126.414L-6.581000000000017,6.414z"></path><path d="M282.84,0L291.417,8.577L291.417,126.417L291.417,156.417L291.417,274.257L282.84,282.834L276.419,276.414L276.419,156.414L276.419,126.414L276.419,6.414z"></path><path d="M98.42000000000002,98.58L113.418,113.578L113.418,126.418L113.418,156.418L113.418,169.258L98.42000000000002,184.255L98.42000000000002,156.415L98.42000000000002,126.415z"></path><path d="M83.42000000000002,83.58L98.418,98.578L98.418,126.418L98.418,156.418L98.418,184.258L83.42000000000002,199.255L83.42000000000002,156.415L83.42000000000002,126.415z"></path><path d="M231.42,51.42L231.42,126.42L231.42,156.42L231.42,231.42L216.422,216.422L216.422,156.422L216.422,126.422L216.422,66.422z"></path><path d="M276.42,6.42L276.42,126.42L276.42,156.42L276.42,276.42L261.422,261.422L261.422,156.422L261.422,126.422L261.422,21.422z"></path><path d="M216.42,66.42L216.42,126.42L216.42,156.42L216.42,216.42L201.422,201.422L201.422,156.422L201.422,126.422L201.422,81.422z"></path><path d="M261.42,21.42L261.42,126.42L261.42,156.42L261.42,261.42L246.422,246.422L246.422,156.422L246.422,126.422L246.422,36.422z"></path><path d="M246.42,36.42L246.42,126.42L246.42,156.42L246.42,246.42L231.422,231.422L231.422,156.422L231.422,126.422L231.422,51.422z"></path><path d="M23.420000000000016,23.58L38.418000000000006,38.578L38.418000000000006,126.418L38.418000000000006,156.418L38.418000000000006,244.258L23.420000000000016,259.255L23.420000000000016,156.415L23.420000000000016,126.415z"></path><path d="M68.42000000000002,68.58L83.418,83.578L83.418,126.418L83.418,156.418L83.418,199.258L68.42000000000002,214.255L68.42000000000002,156.415L68.42000000000002,126.415z"></path><path d="M201.42,81.42L201.42,126.42L201.42,156.42L201.42,201.42L186.422,186.422L186.422,156.422L186.422,126.422L186.422,96.422z"></path><path d="M156.42,126.42L156.42,156.42L141.422,141.422z"></path><path d="M0,-0.160000000000025L141.421,-141.581L156.419,-126.584L171.417,-111.58600000000001L186.415,-96.588L201.412,-81.59L216.41,-66.59299999999999L231.408,-51.595L246.405,-36.59700000000001L261.403,-21.59899999999999L276.401,-6.601999999999975L282.821,-0.18099999999998317L141.4,141.24z"></path><path d="M0,282.84L141.421,141.419L156.419,156.416L171.417,171.414L186.415,186.412L201.412,201.41L216.41,216.407L231.408,231.405L246.405,246.403L261.403,261.401L276.401,276.398L282.821,282.819L141.4,424.24z"></path><path d="M128.42000000000002,128.58L141.26100000000002,141.421L128.42000000000002,154.262z"></path></svg>