<svg width="792" height="792" version="1.2" xmlns="http://www.w3.org/2000/svg" viewBox="0 0 792 792"><style type="text/css">path {stroke-width: 1; vector-effect: non-scaling-stroke; fill:none; stroke: #000; stroke-linecap: round; stroke-linejoin: miter;}</style><path d="M-396.02,-198.02999999999997L-297.025,-297.025L-198.02999999999997,-198.02999999999997L-99.03499999999997,-297.025L-0.03999999999996362,-198.02999999999997L98.95500000000004,-297.025L197.95000000000005,-198.02999999999997L98.95500000000004,-99.03499999999997L197.95000000000005,-0.03999999999996362L98.95500000000004,98.95500000000004L-0.03999999999996362,-0.03999999999996362L-99.03499999999997,98.95500000000004L-198.02999999999997,-0.03999999999996362L-297.025,98.95500000000004L-396.02,-0.03999999999996362L-297.025,-99.03499999999997z"></path><path d="M395.98,-198.02999999999997L494.975,-297.025L593.97,-198.02999999999997L692.965,-297.025L791.96,-198.02999999999997L890.955,-297.025L989.95,-198.02999999999997L890.955,-99.03499999999997L989.95,-0.03999999999996362L890.955,98.95500000000004L791.96,-0.03999999999996362L692.965,98.95500000000004L593.97,-0.03999999999996362L494.975,98.95500000000004L395.98,-0.03999999999996362L494.975,-99.03499999999997z"></path><path d="M-396.02,593.97L-297.025,494.975L-198.02999999999997,593.97L-99.03499999999997,494.975L-0.03999999999996362,593.97L98.95500000000004,494.975L197.95000000000005,593.97L98.95500000000004,692.965L197.95000000000005,791.96L98.95500000000004,890.955L-0.03999999999996362,791.96L-99.03499999999997,890.955L-198.02999999999997,791.96L-297.025,890.955L-396.02,791.96L-297.025,692.965z"></path><path d="M395.98,593.97L494.975,494.975L593.97,593.97L692.965,494.975L791.96,593.97L890.955,494.975L989.95,593.97L890.955,692.965L989.95,791.96L890.955,890.955L791.96,791.96L692.965,890.955L593.97,791.96L494.975,890.955L395.98,791.96L494.975,692.965z"></path><path d="M98.99,-297.03L197.985,-396.025L296.98,-297.03L395.975,-396.025L494.97,-297.03L395.975,-198.03499999999997L494.97,-99.03999999999996L395.975,-0.04499999999995907L494.97,98.95000000000005L395.975,197.94500000000005L296.98,98.95000000000005L197.985,197.94500000000005L98.99,98.95000000000005L197.985,-0.04499999999995907L98.99,-99.03999999999996L197.985,-198.03499999999997z"></path><path d="M98.99,494.97L197.985,395.975L296.98,494.97L395.975,395.975L494.97,494.97L395.975,593.965L494.97,692.96L395.975,791.955L494.97,890.95L395.975,989.945L296.98,890.95L197.985,989.945L98.99,890.95L197.985,791.955L98.99,692.96L197.985,593.965z"></path><path d="M-297.03,98.99L-198.03499999999997,-0.005L-99.03999999999996,98.99L-0.04499999999995907,-0.005L98.95000000000005,98.99L-0.04499999999995907,197.985L98.95000000000005,296.98L-0.04499999999995907,395.975L98.95000000000005,494.97L-0.04499999999995907,593.965L-99.03999999999996,494.97L-198.03499999999997,593.965L-297.03,494.97L-198.03499999999997,395.975L-297.03,296.98L-198.03499999999997,197.985z"></path><path d="M494.97,98.99L593.965,-0.005L692.96,98.99L791.955,-0.005L890.95,98.99L791.955,197.985L890.95,296.98L791.955,395.975L890.95,494.97L791.955,593.965L692.96,494.97L593.965,593.965L494.97,494.97L593.965,395.975L494.97,296.98L593.965,197.985z"></path><path d="M-297.03,890.99L-198.03499999999997,791.995L-99.03999999999996,890.99L-0.04499999999995907,791.995L98.95000000000005,890.99L-0.04499999999995907,989.985L98.95000000000005,1088.98L-0.04499999999995907,1187.975L98.95000000000005,1286.97L-0.04499999999995907,1385.9650000000001L-99.03999999999996,1286.97L-198.03499999999997,1385.9650000000001L-297.03,1286.97L-198.03499999999997,1187.975L-297.03,1088.98L-198.03499999999997,989.985z"></path><path d="M494.97,890.99L593.965,791.995L692.96,890.99L791.955,791.995L890.95,890.99L791.955,989.985L890.95,1088.98L791.955,1187.975L890.95,1286.97L791.955,1385.9650000000001L692.96,1286.97L593.965,1385.9650000000001L494.97,1286.97L593.965,1187.975L494.97,1088.98L593.965,989.985z"></path><path d="M-297.03,98.95000000000005L-198.03499999999997,-0.04499999999995907L-99.03999999999996,98.95000000000005L-0.04499999999995907,-0.04499999999995907L98.95000000000005,98.95000000000005L-0.04499999999995907,197.94500000000005L98.95000000000005,296.94000000000005L-0.04499999999995907,395.93499999999995L98.95000000000005,494.93000000000006L-0.04499999999995907,593.925L-99.03999999999996,494.93000000000006L-198.03499999999997,593.925L-297.03,494.93000000000006L-198.03499999999997,395.93499999999995L-297.03,296.94000000000005L-198.03499999999997,197.94500000000005z"></path><path d="M494.97,98.95000000000005L593.965,-0.04499999999995907L692.96,98.95000000000005L791.955,-0.04499999999995907L890.95,98.95000000000005L791.955,197.94500000000005L890.95,296.94000000000005L791.955,395.93499999999995L890.95,494.93000000000006L791.955,593.925L692.96,494.93000000000006L593.965,593.925L494.97,494.93000000000006L593.965,395.93499999999995L494.97,296.94000000000005L593.965,197.94500000000005z"></path><path d="M-297.03,890.95L-198.03499999999997,791.955L-99.03999999999996,890.95L-0.04499999999995907,791.955L98.95000000000005,890.95L-0.04499999999995907,989.945L98.95000000000005,1088.94L-0.04499999999995907,1187.935L98.95000000000005,1286.93L-0.04499999999995907,1385.925L-99.03999999999996,1286.93L-198.03499999999997,1385.925L-297.03,1286.93L-198.03499999999997,1187.935L-297.03,1088.94L-198.03499999999997,989.945z"></path><path d="M494.97,890.95L593.965,791.955L692.96,890.95L791.955,791.955L890.95,890.95L791.955,989.945L890.95,1088.94L791.955,1187.935L890.95,1286.93L791.955,1385.925L692.96,1286.93L593.965,1385.925L494.97,1286.93L593.965,1187.935L494.97,1088.94L593.965,989.945z"></path><path d="M0,197.99L98.995,98.995L197.99,197.99L296.985,98.995L395.98,197.99L494.975,98.995L593.97,197.99L494.975,296.985L593.97,395.98L494.975,494.975L395.98,395.98L296.985,494.975L197.99,395.98L98.995,494.975L0,395.98L98.995,296.985z"></path><path d="M0,197.95000000000005L98.995,98.95500000000004L197.99,197.95000000000005L296.985,98.95500000000004L395.98,197.95000000000005L494.975,98.95500000000004L593.97,197.95000000000005L494.975,296.94499999999994L593.97,395.94000000000005L494.975,494.93499999999995L395.98,395.94000000000005L296.985,494.93499999999995L197.99,395.94000000000005L98.995,494.93499999999995L0,395.94000000000005L98.995,296.94499999999994z"></path></svg>