<svg width="330" height="330" version="1.2" xmlns="http://www.w3.org/2000/svg" viewBox="0 0 330 330"><style type="text/css">path {stroke-width: 1; vector-effect: non-scaling-stroke; fill:none; stroke: #000; stroke-linecap: round; stroke-linejoin: miter;}</style><path d="M100,0L200,0L200,100L100,100z"></path><path d="M100,100L200,100L200,200L100,200z"></path><path d="M200,100L300,100L300,120L300,150L300,180L300,200L200,200z"></path><path d="M0,200L100,200L100,300L90,300L60,300L30,300L0,300z"></path><path d="M0,0L100,0L100,100L0,100z"></path><path d="M300,210L330,210L330,240L300,240z"></path><path d="M300,270L330,270L330,300L300,300z"></path><path d="M150,300L180,300L180,330L150,330z"></path><path d="M270,300L300,300L300,330L270,330z"></path><path d="M210,300L230,300L240,300L240,330L210,330z"></path><path d="M300,300L330,300L330,330L300,330z"></path><path d="M240,300L270,300L270,330L240,330z"></path><path d="M30,300L60,300L60,330L30,330z"></path><path d="M180,300L200,300L210,300L210,330L180,330z"></path><path d="M300,240L330,240L330,270L300,270z"></path><path d="M90,300L100,300L120,300L120,330L90,330z"></path><path d="M300,180L330,180L330,210L300,210L300,200z"></path><path d="M0,300L30,300L30,330L0,330z"></path><path d="M300,120L330,120L330,150L300,150z"></path><path d="M60,300L90,300L90,330L60,330z"></path><path d="M300,60L330,60L330,90L300,90z"></path><path d="M120,300L130,300L150,300L150,330L120,330z"></path><path d="M300,150L330,150L330,180L300,180z"></path><path d="M300,0L330,0L330,30L300,30z"></path><path d="M300,90L330,90L330,120L300,120L300,100z"></path><path d="M300,30L330,30L330,60L300,60z"></path><path d="M100,200L200,200L200,300L180,300L150,300L130,300L120,300L100,300z"></path><path d="M200,0L300,0L300,30L300,60L300,90L300,100L200,100z"></path><path d="M0,100L100,100L100,200L0,200z"></path><path d="M200,200L300,200L300,210L300,240L300,270L300,300L270,300L240,300L230,300L210,300L200,300z"></path></svg>