<svg width="790" height="250" version="1.2" xmlns="http://www.w3.org/2000/svg" viewBox="0 0 790 250"><style type="text/css">path {stroke-width: 1; vector-effect: non-scaling-stroke; fill:none; stroke: #000; stroke-linecap: round; stroke-linejoin: miter;}</style><path d="M136.47,-250L524.27,-250L524.27,-125L395.006,0.003999999999990678L265.741,-125z"></path><path d="M136.47,0L524.27,0L524.27,125L395.006,250.004L265.741,125z"></path><path d="M395,250L524.264,124.996L660.734,124.996L531.47,250z"></path><path d="M660.73,125L789.994,-0.004L789.994,249.996L531.464,249.996z"></path><path d="M660.73,375L789.994,249.996L789.994,499.996L531.464,499.996z"></path><path d="M660.73,0L790,0L660.736,125.004z"></path><path d="M524.27,0L660.74,0L660.74,125L524.27,125z"></path><path d="M0,0L136.47,0L265.734,125.004L129.264,125.004z"></path><path d="M129.27,125L265.74,125L265.74,250L129.27,250z"></path><path d="M265.73,-125L394.994,0.003999999999990678L265.724,0.003999999999990678z"></path><path d="M265.73,125L394.994,250.004L265.724,250.004z"></path><path d="M0,-250L129.264,-124.996L129.264,0.003999999999990678L-0.006,0.003999999999990678z"></path><path d="M790,-250L919.264,-124.996L919.264,0.003999999999990678L789.994,0.003999999999990678z"></path><path d="M0,0L129.264,125.004L129.264,250.004L-0.006,250.004z"></path><path d="M790,0L919.264,125.004L919.264,250.004L789.994,250.004z"></path></svg>