<svg width="720" height="720" version="1.2" xmlns="http://www.w3.org/2000/svg" viewBox="0 0 720 720"><style type="text/css">path {stroke-width: 1; vector-effect: non-scaling-stroke; fill:none; stroke: #000; stroke-linecap: round; stroke-linejoin: miter;}</style><path d="M90,630L180,630L180,720L90,720z"></path><path d="M0,630L90,630L90,720L0,720z"></path><path d="M270,630L315,585L360.001,630z"></path><path d="M360,540L360,630L315,585z"></path><path d="M270,540L315,585L270,630.001z"></path><path d="M90,270L135,315L90,360.001z"></path><path d="M45,225L90,270L0,270z"></path><path d="M270,270L360,270L360,360L270,360z"></path><path d="M270,180L360,180L360,270L270,270z"></path><path d="M180,270L270,270L270,360L180,360z"></path><path d="M0,270L90,270L45,315z"></path><path d="M180,90L225,135L180,180.001z"></path><path d="M270,90L315,135L270,180.001z"></path><path d="M180,180L270,180L270,270L180,270z"></path><path d="M270,90L360,90L315,135z"></path><path d="M270,0L360,0L360,90L270,90z"></path><path d="M0,360L45,315L90.001,360z"></path><path d="M180,90L270,90L225,135z"></path><path d="M90,360L135,315L180.001,360z"></path><path d="M270,180L315,135L360.001,180z"></path><path d="M225,135L270,180L180,180z"></path><path d="M225,135L270,90L270,180z"></path><path d="M180,0L270,0L270,90L180,90z"></path><path d="M360,90L360,180L315,135z"></path><path d="M0,270L45,315L0,360.001z"></path><path d="M225,585L270,540L270,630z"></path><path d="M225,675L270,630L270,720z"></path><path d="M180,540L270,540L225,585z"></path><path d="M270,450L360,450L360,540L270,540z"></path><path d="M180,450L270,450L270,540L180,540z"></path><path d="M540,720L585,675L630.001,720z"></path><path d="M-90,720L-45,675L0.0009999999999763531,720z"></path><path d="M630,720L675,675L720.001,720z"></path><path d="M270,630L360,630L315,675z"></path><path d="M360,630L360,720L315,675z"></path><path d="M540,-90L585,-45L540,0.0009999999999763531z"></path><path d="M540,630L585,675L540,720.001z"></path><path d="M585,585L630,630L540,630z"></path><path d="M540,540L585,585L540,630.001z"></path><path d="M630,-90L675,-45L630,0.0009999999999763531z"></path><path d="M630,630L675,675L630,720.001z"></path><path d="M225,405L270,450L180,450z"></path><path d="M360,360L360,450L315,405z"></path><path d="M720,630L720,720L675,675z"></path><path d="M585,405L630,450L540,450z"></path><path d="M585,405L630,360L630,450z"></path><path d="M720,540L720,630L675,585z"></path><path d="M630,450L720,450L720,540L630,540z"></path><path d="M540,450L630,450L630,540L540,540z"></path><path d="M-90,630L-45,585L0.0009999999999763531,630z"></path><path d="M630,630L675,585L720.001,630z"></path><path d="M630,630L720,630L675,675z"></path><path d="M630,540L675,585L630,630.001z"></path><path d="M585,675L630,630L630,720z"></path><path d="M585,585L630,540L630,630z"></path><path d="M540,540L630,540L585,585z"></path><path d="M270,540L360,540L315,585z"></path><path d="M180,540L225,585L180,630.001z"></path><path d="M180,630L270,630L225,675z"></path><path d="M270,-90L315,-45L270,0.0009999999999763531z"></path><path d="M270,630L315,675L270,720.001z"></path><path d="M0,360L90,360L90,450L0,450z"></path><path d="M90,360L180,360L180,450L90,450z"></path><path d="M360,0L405,45L360,90.001z"></path><path d="M0,180L90,180L45,225z"></path><path d="M360,180L405,225L360,270.001z"></path><path d="M360,270L405,315L360,360.001z"></path><path d="M45,45L90,0L90,90z"></path><path d="M90,270L180,270L135,315z"></path><path d="M90,540L180,540L180,630L90,630z"></path><path d="M0,0L90,0L45,45z"></path><path d="M180,270L180,360L135,315z"></path><path d="M90,0L180,0L135,45z"></path><path d="M90,90L180,90L180,180L90,180z"></path><path d="M360,360L405,315L450.001,360z"></path><path d="M450,180L540,180L495,225z"></path><path d="M540,0L540,90L495,45z"></path><path d="M360,270L450,270L405,315z"></path><path d="M90,0L135,45L90,90.001z"></path><path d="M45,45L90,90L0,90z"></path><path d="M450,270L495,315L450,360.001z"></path><path d="M0,0L45,45L0,90.001z"></path><path d="M450,360L495,315L540.001,360z"></path><path d="M90,90L135,45L180.001,90z"></path><path d="M405,225L450,270L360,270z"></path><path d="M0,90L90,90L90,180L0,180z"></path><path d="M360,0L450,0L405,45z"></path><path d="M450,0L540,0L495,45z"></path><path d="M450,0L495,45L450,90.001z"></path><path d="M45,225L90,180L90,270z"></path><path d="M90,270L135,225L180.001,270z"></path><path d="M180,180L180,270L135,225z"></path><path d="M90,180L135,225L90,270.001z"></path><path d="M45,315L90,270L90,360z"></path><path d="M0,540L90,540L90,630L0,630z"></path><path d="M360,90L450,90L450,180L360,180z"></path><path d="M0,180L45,225L0,270.001z"></path><path d="M450,180L495,225L450,270.001z"></path><path d="M405,315L450,270L450,360z"></path><path d="M450,90L540,90L540,180L450,180z"></path><path d="M405,225L450,180L450,270z"></path><path d="M90,180L180,180L135,225z"></path><path d="M270,450L315,405L360.001,450z"></path><path d="M540,180L540,270L495,225z"></path><path d="M450,270L540,270L495,315z"></path><path d="M360,180L450,180L405,225z"></path><path d="M450,270L495,225L540.001,270z"></path><path d="M405,45L450,90L360,90z"></path><path d="M450,90L495,45L540.001,90z"></path><path d="M405,45L450,0L450,90z"></path><path d="M225,585L270,630L180,630z"></path><path d="M180,0L180,90L135,45z"></path><path d="M540,270L540,360L495,315z"></path><path d="M630,360L720,360L675,405z"></path><path d="M180,360L225,405L180,450.001z"></path><path d="M270,360L315,405L270,450.001z"></path><path d="M630,540L720,540L675,585z"></path><path d="M540,630L630,630L585,675z"></path><path d="M540,360L630,360L585,405z"></path><path d="M270,360L360,360L315,405z"></path><path d="M540,360L585,405L540,450.001z"></path><path d="M225,405L270,360L270,450z"></path><path d="M450,540L540,540L540,630L450,630z"></path><path d="M-90,450L-45,405L0.0009999999999763531,450z"></path><path d="M630,450L675,405L720.001,450z"></path><path d="M180,360L270,360L225,405z"></path><path d="M630,360L675,405L630,450.001z"></path><path d="M720,360L720,450L675,405z"></path><path d="M450,630L540,630L540,720L450,720z"></path><path d="M360,630L450,630L450,720L360,720z"></path><path d="M405,495L450,450L450,540z"></path><path d="M270,720L315,675L360.001,720z"></path><path d="M450,540L495,495L540.001,540z"></path><path d="M540,450L540,540L495,495z"></path><path d="M360,540L450,540L450,630L360,630z"></path><path d="M450,450L495,495L450,540.001z"></path><path d="M450,450L540,450L495,495z"></path><path d="M360,360L450,360L450,450L360,450z"></path><path d="M360,450L450,450L405,495z"></path><path d="M450,360L540,360L540,450L450,450z"></path><path d="M360,450L405,495L360,540.001z"></path><path d="M405,495L450,540L360,540z"></path><path d="M180,720L225,675L270.001,720z"></path><path d="M585,135L630,180L540,180z"></path><path d="M630,270L720,270L720,360L630,360z"></path><path d="M540,180L630,180L630,270L540,270z"></path><path d="M-90,180L-45,135L0.0009999999999763531,180z"></path><path d="M630,180L675,135L720.001,180z"></path><path d="M630,90L720,90L675,135z"></path><path d="M540,90L630,90L585,135z"></path><path d="M630,0L720,0L720,90L630,90z"></path><path d="M540,90L585,135L540,180.001z"></path><path d="M630,90L675,135L630,180.001z"></path><path d="M540,0L630,0L630,90L540,90z"></path><path d="M720,90L720,180L675,135z"></path><path d="M630,180L720,180L720,270L630,270z"></path><path d="M180,-90L225,-45L180,0.0009999999999763531z"></path><path d="M180,630L225,675L180,720.001z"></path><path d="M585,135L630,90L630,180z"></path><path d="M540,270L630,270L630,360L540,360z"></path><path d="M45,495L90,450L90,540z"></path><path d="M180,450L180,540L135,495z"></path><path d="M0,450L90,450L45,495z"></path><path d="M90,450L180,450L135,495z"></path><path d="M90,540L135,495L180.001,540z"></path><path d="M0,450L45,495L0,540.001z"></path><path d="M90,450L135,495L90,540.001z"></path><path d="M45,495L90,540L0,540z"></path></svg>