<?xml version="1.0" encoding="UTF-8"?>
<!DOCTYPE svg PUBLIC "-//W3C//DTD SVG 1.1//EN" "http://www.w3.org/Graphics/SVG/1.1/DTD/svg11.dtd">
<!-- Creator: CorelDRAW 2021 (64-Bit) -->
<svg xmlns="http://www.w3.org/2000/svg" xml:space="preserve" width="24in" height="24in" version="1.1" shape-rendering="geometricPrecision" text-rendering="geometricPrecision" image-rendering="optimizeQuality" fill-rule="evenodd" clip-rule="evenodd"
viewBox="0 0 24000 24000"
 xmlns:xlink="http://www.w3.org/1999/xlink"
 xmlns:xodm="http://www.corel.com/coreldraw/odm/2003">
 <g id="Layer_x0020_1">
  <metadata id="CorelCorpID_0Corel-Layer"/>
  <g id="_2095824184880">
   <path fill="none" stroke="black" stroke-width="420" stroke-linecap="round" stroke-linejoin="round" stroke-miterlimit="2.61313" d="M12011.93 5996.51c833.6,0 1509.37,642.57 1509.37,1435.21 0,59.31 -3.86,117.76 -11.21,175.17 824.62,9.93 1489.91,648.52 1489.91,1434.97 0,772.33 -641.63,1402.09 -1445.67,1433.85 1.75,28.33 2.74,56.85 2.74,85.59 0,792.64 -675.77,1435.2 -1509.37,1435.2 -833.6,0 -1509.37,-642.57 -1509.37,-1435.2 0,-43.83 2.19,-87.18 6.23,-130.02 -11.7,0.25 -23.42,0.43 -35.19,0.43 -833.6,0 -1509.37,-642.57 -1509.37,-1435.21 0,-792.44 675.43,-1434.87 1508.74,-1435.2 -4.02,-42.7 -6.19,-85.89 -6.19,-129.59 0,-792.64 675.77,-1435.21 1509.37,-1435.21z"/>
   <path fill="none" stroke="black" stroke-width="420" stroke-linecap="round" stroke-linejoin="round" stroke-miterlimit="2.61313" d="M12000 13201.89l0 0c0,1320.44 1080.36,2400.8 2400.8,2400.8l0 0c-1320.44,0 -2400.8,1080.36 -2400.8,2400.8l0 0c0,-1320.44 -1080.36,-2400.8 -2400.8,-2400.8l0 0c1320.44,0 2400.8,-1080.36 2400.8,-2400.8z"/>
  </g>
 </g>
</svg>
