<?xml version="1.0" encoding="UTF-8"?>
<!DOCTYPE svg PUBLIC "-//W3C//DTD SVG 1.1//EN" "http://www.w3.org/Graphics/SVG/1.1/DTD/svg11.dtd">
<!-- Creator: CorelDRAW X7 -->
<svg xmlns="http://www.w3.org/2000/svg" xml:space="preserve" width="609.6mm" height="609.6mm" version="1.1" style="shape-rendering:geometricPrecision; text-rendering:geometricPrecision; image-rendering:optimizeQuality; fill-rule:evenodd; clip-rule:evenodd"
viewBox="0 0 60960 60960"
 xmlns:xlink="http://www.w3.org/1999/xlink">
 <defs>
  <style type="text/css">
   <![CDATA[
    .str0 {stroke:#2B2A29;stroke-width:20;stroke-linejoin:bevel}
    .fil0 {fill:none}
   ]]>
  </style>
 </defs>
 <g id="Layer_x0020_1">
  <metadata id="CorelCorpID_0Corel-Layer"/>
  <path class="fil0 str0" d="M1143 0l0 60960m1524 0l0 -60960"/>
  <path class="fil0 str0" d="M13906 0l0 60960m1524 0l0 -60960"/>
  <path class="fil0 str0" d="M26670 0l0 60960m1524 0l0 -60960"/>
  <path class="fil0 str0" d="M39433 0l0 60960m1524 0l0 -60960"/>
  <path class="fil0 str0" d="M52197 0l0 60960m1524 0l0 -60960"/>
  <path class="fil0 str0" d="M3429 0l0 60960m2667 0l0 -60960"/>
  <path class="fil0 str0" d="M16192 0l0 60960m2667 0l0 -60960"/>
  <path class="fil0 str0" d="M28956 0l0 60960m2667 0l0 -60960"/>
  <path class="fil0 str0" d="M41719 0l0 60960m2667 0l0 -60960"/>
  <path class="fil0 str0" d="M54483 0l0 60960m2667 0l0 -60960"/>
  <path class="fil0 str0" d="M6858 0l0 60960m1143 0l0 -60960"/>
  <path class="fil0 str0" d="M19621 0l0 60960m1143 0l0 -60960"/>
  <path class="fil0 str0" d="M32385 0l0 60960m1143 0l0 -60960"/>
  <path class="fil0 str0" d="M45148 0l0 60960m1143 0l0 -60960"/>
  <path class="fil0 str0" d="M57912 0l0 60960m1143 0l0 -60960"/>
  <path class="fil0 str0" d="M10287 0l0 60960m1905 0l0 -60960"/>
  <path class="fil0 str0" d="M23050 0l0 60960m1905 0l0 -60960"/>
  <path class="fil0 str0" d="M35814 0l0 60960m1905 0l0 -60960"/>
  <path class="fil0 str0" d="M48577 0l0 60960m1905 0l0 -60960"/>
 </g>
</svg>
