<?xml version="1.0" encoding="UTF-8"?>
<!DOCTYPE svg PUBLIC "-//W3C//DTD SVG 1.1//EN" "http://www.w3.org/Graphics/SVG/1.1/DTD/svg11.dtd">
<!-- Creator: CorelDRAW X7 -->
<svg xmlns="http://www.w3.org/2000/svg" xml:space="preserve" width="609.6mm" height="609.6mm" version="1.1" style="shape-rendering:geometricPrecision; text-rendering:geometricPrecision; image-rendering:optimizeQuality; fill-rule:evenodd; clip-rule:evenodd"
viewBox="0 0 60960 60960"
 xmlns:xlink="http://www.w3.org/1999/xlink">
 <defs>
  <style type="text/css">
   <![CDATA[
    .str0 {stroke:#333333;stroke-width:20;stroke-linejoin:bevel}
    .fil0 {fill:none}
   ]]>
  </style>
 </defs>
 <g id="Layer_x0020_1">
  <metadata id="CorelCorpID_0Corel-Layer"/>
  <g id="_1458564350304">
   <path class="fil0 str0" d="M2286 0c0,0 0,60960 0,60960"/>
   <path class="fil0 str0" d="M4572 0c0,0 0,60960 0,60960"/>
   <path class="fil0 str0" d="M6858 0c0,0 0,60960 0,60960"/>
   <path class="fil0 str0" d="M9144 0c0,0 0,60960 0,60960"/>
   <path class="fil0 str0" d="M11430 0c0,0 0,60960 0,60960"/>
   <path class="fil0 str0" d="M13716 0c0,0 0,60960 0,60960"/>
   <path class="fil0 str0" d="M16003 0c0,0 0,60960 0,60960"/>
   <path class="fil0 str0" d="M18289 0c0,0 0,60960 0,60960"/>
   <path class="fil0 str0" d="M20575 0c0,0 0,60960 0,60960"/>
   <path class="fil0 str0" d="M22861 0c0,0 0,60960 0,60960"/>
   <path class="fil0 str0" d="M25147 0c0,0 0,60960 0,60960"/>
   <path class="fil0 str0" d="M27433 0c0,0 0,60960 0,60960"/>
   <path class="fil0 str0" d="M29719 0c0,0 0,60960 0,60960"/>
   <path class="fil0 str0" d="M32005 0c0,0 0,60960 0,60960"/>
   <path class="fil0 str0" d="M34291 0c0,0 0,60960 0,60960"/>
   <path class="fil0 str0" d="M36577 0c0,0 0,60960 0,60960"/>
   <path class="fil0 str0" d="M38863 0c0,0 0,60960 0,60960"/>
   <path class="fil0 str0" d="M41149 0c0,0 0,60960 0,60960"/>
   <path class="fil0 str0" d="M43435 0c0,0 0,60960 0,60960"/>
   <path class="fil0 str0" d="M45722 0c0,0 0,60960 0,60960"/>
   <path class="fil0 str0" d="M48008 0c0,0 0,60960 0,60960"/>
   <path class="fil0 str0" d="M50294 0c0,0 0,60960 0,60960"/>
   <path class="fil0 str0" d="M52580 0c0,0 0,60960 0,60960"/>
   <path class="fil0 str0" d="M54866 0c0,0 0,60960 0,60960"/>
   <path class="fil0 str0" d="M57152 0c0,0 0,60960 0,60960"/>
   <path class="fil0 str0" d="M59438 0c0,0 0,60960 0,60960"/>
  </g>
 </g>
</svg>
