<?xml version="1.0" encoding="UTF-8"?>
<!DOCTYPE svg PUBLIC "-//W3C//DTD SVG 1.1//EN" "http://www.w3.org/Graphics/SVG/1.1/DTD/svg11.dtd">
<!-- Creator: CorelDRAW X7 -->
<svg xmlns="http://www.w3.org/2000/svg" xml:space="preserve" width="609.6mm" height="609.6mm" version="1.1" style="shape-rendering:geometricPrecision; text-rendering:geometricPrecision; image-rendering:optimizeQuality; fill-rule:evenodd; clip-rule:evenodd"
viewBox="0 0 60960 60960"
 xmlns:xlink="http://www.w3.org/1999/xlink">
 <defs>
  <style type="text/css">
   <![CDATA[
    .str0 {stroke:#2B2A29;stroke-width:20;stroke-linejoin:bevel}
    .fil0 {fill:none}
   ]]>
  </style>
 </defs>
 <g id="Layer_x0020_1">
  <metadata id="CorelCorpID_0Corel-Layer"/>
  <path class="fil0 str0" d="M1524 0c0,0 0,60960 0,60960"/>
  <path class="fil0 str0" d="M16003 0c0,0 0,60960 0,60960"/>
  <path class="fil0 str0" d="M30481 0c0,0 0,60960 0,60960"/>
  <path class="fil0 str0" d="M44959 0c0,0 0,60960 0,60960"/>
  <path class="fil0 str0" d="M59438 0c0,0 0,60960 0,60960"/>
  <path class="fil0 str0" d="M8763 0c0,0 0,60960 0,60960"/>
  <path class="fil0 str0" d="M23242 0c0,0 0,60960 0,60960"/>
  <path class="fil0 str0" d="M37720 0c0,0 0,60960 0,60960"/>
  <path class="fil0 str0" d="M52199 0c0,0 0,60960 0,60960"/>
  <path class="fil0 str0" d="M4191 0c0,0 0,60960 0,60960"/>
  <path class="fil0 str0" d="M18670 0c0,0 0,60960 0,60960"/>
  <path class="fil0 str0" d="M33148 0c0,0 0,60960 0,60960"/>
  <path class="fil0 str0" d="M47627 0c0,0 0,60960 0,60960"/>
  <path class="fil0 str0" d="M11430 0c0,0 0,60960 0,60960"/>
  <path class="fil0 str0" d="M25909 0c0,0 0,60960 0,60960"/>
  <path class="fil0 str0" d="M40387 0c0,0 0,60960 0,60960"/>
  <path class="fil0 str0" d="M54866 0c0,0 0,60960 0,60960"/>
  <path class="fil0 str0" d="M6287 0c0,0 0,60960 0,60960"/>
  <path class="fil0 str0" d="M20765 0c0,0 0,60960 0,60960"/>
  <path class="fil0 str0" d="M35244 0c0,0 0,60960 0,60960"/>
  <path class="fil0 str0" d="M49722 0c0,0 0,60960 0,60960"/>
  <path class="fil0 str0" d="M13526 0c0,0 0,60960 0,60960"/>
  <path class="fil0 str0" d="M28004 0c0,0 0,60960 0,60960"/>
  <path class="fil0 str0" d="M42483 0c0,0 0,60960 0,60960"/>
  <path class="fil0 str0" d="M56961 0c0,0 0,60960 0,60960"/>
 </g>
</svg>
