<?xml version="1.0" encoding="UTF-8"?>
<!DOCTYPE svg PUBLIC "-//W3C//DTD SVG 1.1//EN" "http://www.w3.org/Graphics/SVG/1.1/DTD/svg11.dtd">
<!-- Creator: CorelDRAW X7 -->
<svg xmlns="http://www.w3.org/2000/svg" xml:space="preserve" width="609.6mm" height="609.6mm" version="1.1" style="shape-rendering:geometricPrecision; text-rendering:geometricPrecision; image-rendering:optimizeQuality; fill-rule:evenodd; clip-rule:evenodd"
viewBox="0 0 60960 60960"
 xmlns:xlink="http://www.w3.org/1999/xlink">
 <defs>
  <style type="text/css">
   <![CDATA[
    .str0 {stroke:#2B2A29;stroke-width:20;stroke-linejoin:bevel}
    .fil0 {fill:none}
   ]]>
  </style>
 </defs>
 <g id="Layer_x0020_1">
  <metadata id="CorelCorpID_0Corel-Layer"/>
  <path class="fil0 str0" d="M1429 0c0,0 0,60960 0,60960"/>
  <path class="fil0 str0" d="M9620 0c0,0 0,60960 0,60960"/>
  <path class="fil0 str0" d="M17812 0c0,0 0,60960 0,60960"/>
  <path class="fil0 str0" d="M26003 0c0,0 0,60960 0,60960"/>
  <path class="fil0 str0" d="M34195 0c0,0 0,60960 0,60960"/>
  <path class="fil0 str0" d="M42387 0c0,0 0,60960 0,60960"/>
  <path class="fil0 str0" d="M50578 0c0,0 0,60960 0,60960"/>
  <path class="fil0 str0" d="M58770 0c0,0 0,60960 0,60960"/>
  <path class="fil0 str0" d="M4667 0c0,0 0,60960 0,60960"/>
  <path class="fil0 str0" d="M12859 0c0,0 0,60960 0,60960"/>
  <path class="fil0 str0" d="M21050 0c0,0 0,60960 0,60960"/>
  <path class="fil0 str0" d="M29242 0c0,0 0,60960 0,60960"/>
  <path class="fil0 str0" d="M37434 0c0,0 0,60960 0,60960"/>
  <path class="fil0 str0" d="M45625 0c0,0 0,60960 0,60960"/>
  <path class="fil0 str0" d="M53817 0c0,0 0,60960 0,60960"/>
  <path class="fil0 str0" d="M7144 0c0,0 0,60960 0,60960"/>
  <path class="fil0 str0" d="M15335 0c0,0 0,60960 0,60960"/>
  <path class="fil0 str0" d="M23527 0c0,0 0,60960 0,60960"/>
  <path class="fil0 str0" d="M31718 0c0,0 0,60960 0,60960"/>
  <path class="fil0 str0" d="M39910 0c0,0 0,60960 0,60960"/>
  <path class="fil0 str0" d="M48102 0c0,0 0,60960 0,60960"/>
  <path class="fil0 str0" d="M56293 0c0,0 0,60960 0,60960"/>
 </g>
</svg>
