<?xml version="1.0" encoding="UTF-8"?>
<!DOCTYPE svg PUBLIC "-//W3C//DTD SVG 1.1//EN" "http://www.w3.org/Graphics/SVG/1.1/DTD/svg11.dtd">
<!-- Creator: CorelDRAW X7 -->
<svg xmlns="http://www.w3.org/2000/svg" xml:space="preserve" width="609.6mm" height="609.6mm" version="1.1" style="shape-rendering:geometricPrecision; text-rendering:geometricPrecision; image-rendering:optimizeQuality; fill-rule:evenodd; clip-rule:evenodd"
viewBox="0 0 60960 60960"
 xmlns:xlink="http://www.w3.org/1999/xlink">
 <defs>
  <style type="text/css">
   <![CDATA[
    .str0 {stroke:#2B2A29;stroke-width:20;stroke-linejoin:bevel}
    .fil0 {fill:none}
   ]]>
  </style>
 </defs>
 <g id="Layer_x0020_1">
  <metadata id="CorelCorpID_0Corel-Layer"/>
  <path class="fil0 str0" d="M1650 0c0,0 0,60960 0,60960"/>
  <path class="fil0 str0" d="M3585 0c0,0 0,60960 0,60960"/>
  <path class="fil0 str0" d="M7457 0c0,0 0,60960 0,60960"/>
  <path class="fil0 str0" d="M11328 0c0,0 0,60960 0,60960"/>
  <path class="fil0 str0" d="M15199 0c0,0 0,60960 0,60960"/>
  <path class="fil0 str0" d="M19070 0c0,0 0,60960 0,60960"/>
  <path class="fil0 str0" d="M22941 0c0,0 0,60960 0,60960"/>
  <path class="fil0 str0" d="M26813 0c0,0 0,60960 0,60960"/>
  <path class="fil0 str0" d="M30684 0c0,0 0,60960 0,60960"/>
  <path class="fil0 str0" d="M34555 0c0,0 0,60960 0,60960"/>
  <path class="fil0 str0" d="M38426 0c0,0 0,60960 0,60960"/>
  <path class="fil0 str0" d="M42297 0c0,0 0,60960 0,60960"/>
  <path class="fil0 str0" d="M46169 0c0,0 0,60960 0,60960"/>
  <path class="fil0 str0" d="M50040 0c0,0 0,60960 0,60960"/>
  <path class="fil0 str0" d="M53911 0c0,0 0,60960 0,60960"/>
  <path class="fil0 str0" d="M57782 0c0,0 0,60960 0,60960"/>
  <path class="fil0 str0" d="M5521 0c0,0 0,60960 0,60960"/>
  <path class="fil0 str0" d="M9392 0c0,0 0,60960 0,60960"/>
  <path class="fil0 str0" d="M13263 0c0,0 0,60960 0,60960"/>
  <path class="fil0 str0" d="M17135 0c0,0 0,60960 0,60960"/>
  <path class="fil0 str0" d="M21006 0c0,0 0,60960 0,60960"/>
  <path class="fil0 str0" d="M24877 0c0,0 0,60960 0,60960"/>
  <path class="fil0 str0" d="M28748 0c0,0 0,60960 0,60960"/>
  <path class="fil0 str0" d="M32619 0c0,0 0,60960 0,60960"/>
  <path class="fil0 str0" d="M36491 0c0,0 0,60960 0,60960"/>
  <path class="fil0 str0" d="M40362 0c0,0 0,60960 0,60960"/>
  <path class="fil0 str0" d="M44233 0c0,0 0,60960 0,60960"/>
  <path class="fil0 str0" d="M48104 0c0,0 0,60960 0,60960"/>
  <path class="fil0 str0" d="M51975 0c0,0 0,60960 0,60960"/>
  <path class="fil0 str0" d="M55847 0c0,0 0,60960 0,60960"/>
  <path class="fil0 str0" d="M59718 0c0,0 0,60960 0,60960"/>
 </g>
</svg>
