<?xml version="1.0" encoding="UTF-8"?>
<!DOCTYPE svg PUBLIC "-//W3C//DTD SVG 1.1//EN" "http://www.w3.org/Graphics/SVG/1.1/DTD/svg11.dtd">
<!-- Creator: CorelDRAW X7 -->
<svg xmlns="http://www.w3.org/2000/svg" xml:space="preserve" width="609.6mm" height="609.6mm" version="1.1" style="shape-rendering:geometricPrecision; text-rendering:geometricPrecision; image-rendering:optimizeQuality; fill-rule:evenodd; clip-rule:evenodd"
viewBox="0 0 60960 60960"
 xmlns:xlink="http://www.w3.org/1999/xlink">
 <defs>
  <style type="text/css">
   <![CDATA[
    .str0 {stroke:#333333;stroke-width:20;stroke-linejoin:bevel}
    .fil0 {fill:none}
   ]]>
  </style>
 </defs>
 <g id="Layer_x0020_1">
  <metadata id="CorelCorpID_0Corel-Layer"/>
  <g id="_1458764749408">
   <path class="fil0 str0" d="M1334 0c0,0 0,60960 0,60960"/>
   <path class="fil0 str0" d="M2667 0c0,0 0,60960 0,60960"/>
   <path class="fil0 str0" d="M4001 0c0,0 0,60960 0,60960"/>
   <path class="fil0 str0" d="M5334 0c0,0 0,60960 0,60960"/>
   <path class="fil0 str0" d="M6668 0c0,0 0,60960 0,60960"/>
   <path class="fil0 str0" d="M8001 0c0,0 0,60960 0,60960"/>
   <path class="fil0 str0" d="M9335 0c0,0 0,60960 0,60960"/>
   <path class="fil0 str0" d="M10669 0c0,0 0,60960 0,60960"/>
   <path class="fil0 str0" d="M12002 0c0,0 0,60960 0,60960"/>
   <path class="fil0 str0" d="M13336 0c0,0 0,60960 0,60960"/>
   <path class="fil0 str0" d="M14669 0c0,0 0,60960 0,60960"/>
   <path class="fil0 str0" d="M16003 0c0,0 0,60960 0,60960"/>
   <path class="fil0 str0" d="M17336 0c0,0 0,60960 0,60960"/>
   <path class="fil0 str0" d="M18670 0c0,0 0,60960 0,60960"/>
   <path class="fil0 str0" d="M20004 0c0,0 0,60960 0,60960"/>
   <path class="fil0 str0" d="M21337 0c0,0 0,60960 0,60960"/>
   <path class="fil0 str0" d="M22671 0c0,0 0,60960 0,60960"/>
   <path class="fil0 str0" d="M24004 0c0,0 0,60960 0,60960"/>
   <path class="fil0 str0" d="M25338 0c0,0 0,60960 0,60960"/>
   <path class="fil0 str0" d="M26672 0c0,0 0,60960 0,60960"/>
   <path class="fil0 str0" d="M28005 0c0,0 0,60960 0,60960"/>
   <path class="fil0 str0" d="M29339 0c0,0 0,60960 0,60960"/>
   <path class="fil0 str0" d="M30672 0c0,0 0,60960 0,60960"/>
   <path class="fil0 str0" d="M32006 0c0,0 0,60960 0,60960"/>
   <path class="fil0 str0" d="M33339 0c0,0 0,60960 0,60960"/>
   <path class="fil0 str0" d="M34673 0c0,0 0,60960 0,60960"/>
   <path class="fil0 str0" d="M36007 0c0,0 0,60960 0,60960"/>
   <path class="fil0 str0" d="M37340 0c0,0 0,60960 0,60960"/>
   <path class="fil0 str0" d="M38674 0c0,0 0,60960 0,60960"/>
   <path class="fil0 str0" d="M40007 0c0,0 0,60960 0,60960"/>
   <path class="fil0 str0" d="M41341 0c0,0 0,60960 0,60960"/>
   <path class="fil0 str0" d="M42674 0c0,0 0,60960 0,60960"/>
   <path class="fil0 str0" d="M44008 0c0,0 0,60960 0,60960"/>
   <path class="fil0 str0" d="M45342 0c0,0 0,60960 0,60960"/>
   <path class="fil0 str0" d="M46675 0c0,0 0,60960 0,60960"/>
   <path class="fil0 str0" d="M48009 0c0,0 0,60960 0,60960"/>
   <path class="fil0 str0" d="M49342 0c0,0 0,60960 0,60960"/>
   <path class="fil0 str0" d="M50676 0c0,0 0,60960 0,60960"/>
   <path class="fil0 str0" d="M52009 0c0,0 0,60960 0,60960"/>
   <path class="fil0 str0" d="M53343 0c0,0 0,60960 0,60960"/>
   <path class="fil0 str0" d="M54677 0c0,0 0,60960 0,60960"/>
   <path class="fil0 str0" d="M56010 0c0,0 0,60960 0,60960"/>
   <path class="fil0 str0" d="M57344 0c0,0 0,60960 0,60960"/>
   <path class="fil0 str0" d="M58677 0c0,0 0,60960 0,60960"/>
   <path class="fil0 str0" d="M60011 0c0,0 0,60960 0,60960"/>
  </g>
 </g>
</svg>
