<?xml version="1.0" encoding="UTF-8"?>
<!DOCTYPE svg PUBLIC "-//W3C//DTD SVG 1.1//EN" "http://www.w3.org/Graphics/SVG/1.1/DTD/svg11.dtd">
<!-- Creator: CorelDRAW X7 -->
<svg xmlns="http://www.w3.org/2000/svg" xml:space="preserve" width="609.6mm" height="609.6mm" version="1.1" style="shape-rendering:geometricPrecision; text-rendering:geometricPrecision; image-rendering:optimizeQuality; fill-rule:evenodd; clip-rule:evenodd"
viewBox="0 0 60960 60960"
 xmlns:xlink="http://www.w3.org/1999/xlink">
 <defs>
  <style type="text/css">
   <![CDATA[
    .str0 {stroke:#333333;stroke-width:400;stroke-linejoin:bevel}
    .fil0 {fill:none}
   ]]>
  </style>
 </defs>
 <g id="Layer_x0020_1">
  <metadata id="CorelCorpID_0Corel-Layer"/>
  <g id="_1458764349280">
   <path class="fil0 str0" d="M0 54445c0,0 60960,0 60960,0"/>
   <path class="fil0 str0" d="M0 44920c0,0 60960,0 60960,0"/>
   <path class="fil0 str0" d="M0 35395c0,0 60960,0 60960,0"/>
   <path class="fil0 str0" d="M0 25870c0,0 60960,0 60960,0"/>
   <path class="fil0 str0" d="M0 16345c0,0 60960,0 60960,0"/>
   <path class="fil0 str0" d="M0 6819c0,0 60960,0 60960,0"/>
   <path class="fil0 str0" d="M4763 0c0,0 0,60960 0,60960"/>
   <path class="fil0 str0" d="M9525 0c0,0 0,60960 0,60960"/>
   <path class="fil0 str0" d="M14288 0c0,0 0,60960 0,60960"/>
   <path class="fil0 str0" d="M19050 0c0,0 0,60960 0,60960"/>
   <path class="fil0 str0" d="M23813 0c0,0 0,60960 0,60960"/>
   <path class="fil0 str0" d="M28575 0c0,0 0,60960 0,60960"/>
   <path class="fil0 str0" d="M33338 0c0,0 0,60960 0,60960"/>
   <path class="fil0 str0" d="M38101 0c0,0 0,60960 0,60960"/>
   <path class="fil0 str0" d="M42863 0c0,0 0,60960 0,60960"/>
   <path class="fil0 str0" d="M47626 0c0,0 0,60960 0,60960"/>
   <path class="fil0 str0" d="M52388 0c0,0 0,60960 0,60960"/>
   <path class="fil0 str0" d="M57151 0c0,0 0,60960 0,60960"/>
  </g>
 </g>
</svg>
