<?xml version="1.0" encoding="UTF-8"?>
<!DOCTYPE svg PUBLIC "-//W3C//DTD SVG 1.1//EN" "http://www.w3.org/Graphics/SVG/1.1/DTD/svg11.dtd">
<!-- Creator: CorelDRAW X7 -->
<svg xmlns="http://www.w3.org/2000/svg" xml:space="preserve" width="609.6mm" height="609.6mm" version="1.1" style="shape-rendering:geometricPrecision; text-rendering:geometricPrecision; image-rendering:optimizeQuality; fill-rule:evenodd; clip-rule:evenodd"
viewBox="0 0 60960 60960"
 xmlns:xlink="http://www.w3.org/1999/xlink">
 <defs>
  <style type="text/css">
   <![CDATA[
    .str0 {stroke:#333333;stroke-width:400;stroke-linejoin:bevel}
    .fil0 {fill:none}
   ]]>
  </style>
 </defs>
 <g id="Layer_x0020_1">
  <metadata id="CorelCorpID_0Corel-Layer"/>
  <g id="_1458768952864">
   <path class="fil0 str0" d="M4001 0c0,0 0,60960 0,60960"/>
   <path class="fil0 str0" d="M8001 0c0,0 0,60960 0,60960"/>
   <path class="fil0 str0" d="M12002 0c0,0 0,60960 0,60960"/>
   <path class="fil0 str0" d="M16002 0c0,0 0,60960 0,60960"/>
   <path class="fil0 str0" d="M20003 0c0,0 0,60960 0,60960"/>
   <path class="fil0 str0" d="M24003 0c0,0 0,60960 0,60960"/>
   <path class="fil0 str0" d="M28004 0c0,0 0,60960 0,60960"/>
   <path class="fil0 str0" d="M32005 0c0,0 0,60960 0,60960"/>
   <path class="fil0 str0" d="M36005 0c0,0 0,60960 0,60960"/>
   <path class="fil0 str0" d="M40006 0c0,0 0,60960 0,60960"/>
   <path class="fil0 str0" d="M44006 0c0,0 0,60960 0,60960"/>
   <path class="fil0 str0" d="M48007 0c0,0 0,60960 0,60960"/>
   <path class="fil0 str0" d="M52007 0c0,0 0,60960 0,60960"/>
   <path class="fil0 str0" d="M56008 0c0,0 0,60960 0,60960"/>
  </g>
 </g>
</svg>
