<?xml version="1.0" encoding="UTF-8"?>
<!DOCTYPE svg PUBLIC "-//W3C//DTD SVG 1.1//EN" "http://www.w3.org/Graphics/SVG/1.1/DTD/svg11.dtd">
<!-- Creator: CorelDRAW X7 -->
<svg xmlns="http://www.w3.org/2000/svg" xml:space="preserve" width="609.6mm" height="609.6mm" version="1.1" style="shape-rendering:geometricPrecision; text-rendering:geometricPrecision; image-rendering:optimizeQuality; fill-rule:evenodd; clip-rule:evenodd"
viewBox="0 0 60960 60960"
 xmlns:xlink="http://www.w3.org/1999/xlink">
 <defs>
  <style type="text/css">
   <![CDATA[
    .str0 {stroke:#333333;stroke-width:20;stroke-linejoin:bevel}
    .fil0 {fill:none}
   ]]>
  </style>
 </defs>
 <g id="Layer_x0020_1">
  <metadata id="CorelCorpID_0Corel-Layer"/>
  <g id="_1458954912352">
   <path class="fil0 str0" d="M2667 0c0,0 0,60960 0,60960"/>
   <path class="fil0 str0" d="M5334 0c0,0 0,60960 0,60960"/>
   <path class="fil0 str0" d="M8001 0c0,0 0,60960 0,60960"/>
   <path class="fil0 str0" d="M10668 0c0,0 0,60960 0,60960"/>
   <path class="fil0 str0" d="M13335 0c0,0 0,60960 0,60960"/>
   <path class="fil0 str0" d="M16002 0c0,0 0,60960 0,60960"/>
   <path class="fil0 str0" d="M18670 0c0,0 0,60960 0,60960"/>
   <path class="fil0 str0" d="M21337 0c0,0 0,60960 0,60960"/>
   <path class="fil0 str0" d="M24004 0c0,0 0,60960 0,60960"/>
   <path class="fil0 str0" d="M26671 0c0,0 0,60960 0,60960"/>
   <path class="fil0 str0" d="M29338 0c0,0 0,60960 0,60960"/>
   <path class="fil0 str0" d="M32005 0c0,0 0,60960 0,60960"/>
   <path class="fil0 str0" d="M34672 0c0,0 0,60960 0,60960"/>
   <path class="fil0 str0" d="M37339 0c0,0 0,60960 0,60960"/>
   <path class="fil0 str0" d="M40006 0c0,0 0,60960 0,60960"/>
   <path class="fil0 str0" d="M42673 0c0,0 0,60960 0,60960"/>
   <path class="fil0 str0" d="M45340 0c0,0 0,60960 0,60960"/>
   <path class="fil0 str0" d="M48007 0c0,0 0,60960 0,60960"/>
   <path class="fil0 str0" d="M50674 0c0,0 0,60960 0,60960"/>
   <path class="fil0 str0" d="M53342 0c0,0 0,60960 0,60960"/>
   <path class="fil0 str0" d="M56009 0c0,0 0,60960 0,60960"/>
   <path class="fil0 str0" d="M58676 0c0,0 0,60960 0,60960"/>
  </g>
 </g>
</svg>
