<?xml version="1.0" encoding="UTF-8"?>
<!DOCTYPE svg PUBLIC "-//W3C//DTD SVG 1.1//EN" "http://www.w3.org/Graphics/SVG/1.1/DTD/svg11.dtd">
<!-- Creator: CorelDRAW X7 -->
<svg xmlns="http://www.w3.org/2000/svg" xml:space="preserve" width="609.6mm" height="609.6mm" version="1.1" style="shape-rendering:geometricPrecision; text-rendering:geometricPrecision; image-rendering:optimizeQuality; fill-rule:evenodd; clip-rule:evenodd"
viewBox="0 0 60960 60960"
 xmlns:xlink="http://www.w3.org/1999/xlink">
 <defs>
  <style type="text/css">
   <![CDATA[
    .str0 {stroke:#333333;stroke-width:400;stroke-linejoin:bevel}
    .fil0 {fill:none}
   ]]>
  </style>
 </defs>
 <g id="Layer_x0020_1">
  <metadata id="CorelCorpID_0Corel-Layer"/>
  <g id="_1458568238080">
   <path class="fil0 str0" d="M2839 0c0,0 0,60960 0,60960"/>
   <path class="fil0 str0" d="M7411 0c0,0 0,60960 0,60960"/>
   <path class="fil0 str0" d="M11983 0c0,0 0,60960 0,60960"/>
   <path class="fil0 str0" d="M16555 0c0,0 0,60960 0,60960"/>
   <path class="fil0 str0" d="M21127 0c0,0 0,60960 0,60960"/>
   <path class="fil0 str0" d="M25699 0c0,0 0,60960 0,60960"/>
   <path class="fil0 str0" d="M30271 0c0,0 0,60960 0,60960"/>
   <path class="fil0 str0" d="M34843 0c0,0 0,60960 0,60960"/>
   <path class="fil0 str0" d="M39415 0c0,0 0,60960 0,60960"/>
   <path class="fil0 str0" d="M43987 0c0,0 0,60960 0,60960"/>
   <path class="fil0 str0" d="M48559 0c0,0 0,60960 0,60960"/>
   <path class="fil0 str0" d="M53131 0c0,0 0,60960 0,60960"/>
   <path class="fil0 str0" d="M57703 0c0,0 0,60960 0,60960"/>
  </g>
 </g>
</svg>
