<?xml version="1.0" encoding="UTF-8"?>
<!DOCTYPE svg PUBLIC "-//W3C//DTD SVG 1.1//EN" "http://www.w3.org/Graphics/SVG/1.1/DTD/svg11.dtd">
<!-- Creator: CorelDRAW X7 -->
<svg xmlns="http://www.w3.org/2000/svg" xml:space="preserve" width="609.6mm" height="609.6mm" version="1.1" style="shape-rendering:geometricPrecision; text-rendering:geometricPrecision; image-rendering:optimizeQuality; fill-rule:evenodd; clip-rule:evenodd"
viewBox="0 0 60960 60960"
 xmlns:xlink="http://www.w3.org/1999/xlink">
 <defs>
  <style type="text/css">
   <![CDATA[
    .str0 {stroke:#333333;stroke-width:20;stroke-linejoin:bevel}
    .fil0 {fill:none}
   ]]>
  </style>
 </defs>
 <g id="Layer_x0020_1">
  <metadata id="CorelCorpID_0Corel-Layer"/>
  <g id="_1458568249472">
   <polygon class="fil0 str0" points="952,60007 10630,60007 10630,50330 952,50330 952,60007 "/>
   <polygon class="fil0 str0" points="952,47663 10630,47663 10630,37986 952,37986 952,47663 "/>
   <polygon class="fil0 str0" points="952,35319 10630,35319 10630,25641 952,25641 952,35319 "/>
   <polygon class="fil0 str0" points="952,22974 10630,22974 10630,13297 952,13297 952,22974 "/>
   <polygon class="fil0 str0" points="952,10630 10630,10630 10630,953 952,953 952,10630 "/>
   <polygon class="fil0 str0" points="13297,60007 22974,60007 22974,50330 13297,50330 13297,60007 "/>
   <polygon class="fil0 str0" points="13297,47663 22974,47663 22974,37986 13297,37986 13297,47663 "/>
   <polygon class="fil0 str0" points="13297,35319 22974,35319 22974,25641 13297,25641 13297,35319 "/>
   <polygon class="fil0 str0" points="13297,22974 22974,22974 22974,13297 13297,13297 13297,22974 "/>
   <polygon class="fil0 str0" points="13297,10630 22974,10630 22974,953 13297,953 13297,10630 "/>
   <polygon class="fil0 str0" points="25641,60007 35319,60007 35319,50330 25641,50330 25641,60007 "/>
   <polygon class="fil0 str0" points="25641,47663 35319,47663 35319,37986 25641,37986 25641,47663 "/>
   <polygon class="fil0 str0" points="25641,35319 35319,35319 35319,25641 25641,25641 25641,35319 "/>
   <polygon class="fil0 str0" points="25641,22974 35319,22974 35319,13297 25641,13297 25641,22974 "/>
   <polygon class="fil0 str0" points="25641,10630 35319,10630 35319,953 25641,953 25641,10630 "/>
   <polygon class="fil0 str0" points="37986,60007 47663,60007 47663,50330 37986,50330 37986,60007 "/>
   <polygon class="fil0 str0" points="37986,47663 47663,47663 47663,37986 37986,37986 37986,47663 "/>
   <polygon class="fil0 str0" points="37986,35319 47663,35319 47663,25641 37986,25641 37986,35319 "/>
   <polygon class="fil0 str0" points="37986,22974 47663,22974 47663,13297 37986,13297 37986,22974 "/>
   <polygon class="fil0 str0" points="37986,10630 47663,10630 47663,953 37986,953 37986,10630 "/>
   <polygon class="fil0 str0" points="50330,60007 60007,60007 60007,50330 50330,50330 50330,60007 "/>
   <polygon class="fil0 str0" points="50330,47663 60007,47663 60007,37986 50330,37986 50330,47663 "/>
   <polygon class="fil0 str0" points="50330,35319 60007,35319 60007,25641 50330,25641 50330,35319 "/>
   <polygon class="fil0 str0" points="50330,22974 60007,22974 60007,13297 50330,13297 50330,22974 "/>
   <polygon class="fil0 str0" points="50330,10630 60007,10630 60007,953 50330,953 50330,10630 "/>
  </g>
 </g>
</svg>
