<?xml version="1.0" encoding="UTF-8"?>
<!DOCTYPE svg PUBLIC "-//W3C//DTD SVG 1.1//EN" "http://www.w3.org/Graphics/SVG/1.1/DTD/svg11.dtd">
<!-- Creator: CorelDRAW X7 -->
<svg xmlns="http://www.w3.org/2000/svg" xml:space="preserve" width="609.6mm" height="609.6mm" version="1.1" style="shape-rendering:geometricPrecision; text-rendering:geometricPrecision; image-rendering:optimizeQuality; fill-rule:evenodd; clip-rule:evenodd"
viewBox="0 0 60960 60960"
 xmlns:xlink="http://www.w3.org/1999/xlink">
 <defs>
  <style type="text/css">
   <![CDATA[
    .str0 {stroke:#333333;stroke-width:20;stroke-linejoin:bevel}
    .fil0 {fill:none}
   ]]>
  </style>
 </defs>
 <g id="Layer_x0020_1">
  <metadata id="CorelCorpID_0Corel-Layer"/>
  <g id="_1458568240032">
   <path class="fil0 str0" d="M1905 0c0,0 0,60960 0,60960"/>
   <path class="fil0 str0" d="M3810 0c0,0 0,60960 0,60960"/>
   <path class="fil0 str0" d="M5715 0c0,0 0,60960 0,60960"/>
   <path class="fil0 str0" d="M7620 0c0,0 0,60960 0,60960"/>
   <path class="fil0 str0" d="M9525 0c0,0 0,60960 0,60960"/>
   <path class="fil0 str0" d="M11430 0c0,0 0,60960 0,60960"/>
   <path class="fil0 str0" d="M13336 0c0,0 0,60960 0,60960"/>
   <path class="fil0 str0" d="M15241 0c0,0 0,60960 0,60960"/>
   <path class="fil0 str0" d="M17146 0c0,0 0,60960 0,60960"/>
   <path class="fil0 str0" d="M19051 0c0,0 0,60960 0,60960"/>
   <path class="fil0 str0" d="M20956 0c0,0 0,60960 0,60960"/>
   <path class="fil0 str0" d="M22861 0c0,0 0,60960 0,60960"/>
   <path class="fil0 str0" d="M24766 0c0,0 0,60960 0,60960"/>
   <path class="fil0 str0" d="M26671 0c0,0 0,60960 0,60960"/>
   <path class="fil0 str0" d="M28576 0c0,0 0,60960 0,60960"/>
   <path class="fil0 str0" d="M30481 0c0,0 0,60960 0,60960"/>
   <path class="fil0 str0" d="M32386 0c0,0 0,60960 0,60960"/>
   <path class="fil0 str0" d="M34291 0c0,0 0,60960 0,60960"/>
   <path class="fil0 str0" d="M36196 0c0,0 0,60960 0,60960"/>
   <path class="fil0 str0" d="M38102 0c0,0 0,60960 0,60960"/>
   <path class="fil0 str0" d="M40007 0c0,0 0,60960 0,60960"/>
   <path class="fil0 str0" d="M41912 0c0,0 0,60960 0,60960"/>
   <path class="fil0 str0" d="M43817 0c0,0 0,60960 0,60960"/>
   <path class="fil0 str0" d="M45722 0c0,0 0,60960 0,60960"/>
   <path class="fil0 str0" d="M47627 0c0,0 0,60960 0,60960"/>
   <path class="fil0 str0" d="M49532 0c0,0 0,60960 0,60960"/>
   <path class="fil0 str0" d="M51437 0c0,0 0,60960 0,60960"/>
   <path class="fil0 str0" d="M53342 0c0,0 0,60960 0,60960"/>
   <path class="fil0 str0" d="M55247 0c0,0 0,60960 0,60960"/>
   <path class="fil0 str0" d="M57152 0c0,0 0,60960 0,60960"/>
   <path class="fil0 str0" d="M59057 0c0,0 0,60960 0,60960"/>
  </g>
 </g>
</svg>
