<?xml version="1.0" encoding="UTF-8"?>
<!DOCTYPE svg PUBLIC "-//W3C//DTD SVG 1.1//EN" "http://www.w3.org/Graphics/SVG/1.1/DTD/svg11.dtd">
<!-- Creator: CorelDRAW X7 -->
<svg xmlns="http://www.w3.org/2000/svg" xml:space="preserve" width="609.6mm" height="609.6mm" version="1.1" style="shape-rendering:geometricPrecision; text-rendering:geometricPrecision; image-rendering:optimizeQuality; fill-rule:evenodd; clip-rule:evenodd"
viewBox="0 0 60960 60960"
 xmlns:xlink="http://www.w3.org/1999/xlink">
 <defs>
  <style type="text/css">
   <![CDATA[
    .str0 {stroke:#333333;stroke-width:20;stroke-linejoin:bevel}
    .fil0 {fill:none}
   ]]>
  </style>
 </defs>
 <g id="Layer_x0020_1">
  <metadata id="CorelCorpID_0Corel-Layer"/>
  <g id="_1458768095776">
   <path class="fil0 str0" d="M1905 0c0,0 0,60960 0,60960"/>
   <path class="fil0 str0" d="M4191 0c0,0 0,60960 0,60960"/>
   <path class="fil0 str0" d="M6477 0c0,0 0,60960 0,60960"/>
   <path class="fil0 str0" d="M8763 0c0,0 0,60960 0,60960"/>
   <path class="fil0 str0" d="M11049 0c0,0 0,60960 0,60960"/>
   <path class="fil0 str0" d="M13335 0c0,0 0,60960 0,60960"/>
   <path class="fil0 str0" d="M15622 0c0,0 0,60960 0,60960"/>
   <path class="fil0 str0" d="M17908 0c0,0 0,60960 0,60960"/>
   <path class="fil0 str0" d="M20194 0c0,0 0,60960 0,60960"/>
   <path class="fil0 str0" d="M22480 0c0,0 0,60960 0,60960"/>
   <path class="fil0 str0" d="M24766 0c0,0 0,60960 0,60960"/>
   <path class="fil0 str0" d="M27052 0c0,0 0,60960 0,60960"/>
   <path class="fil0 str0" d="M29338 0c0,0 0,60960 0,60960"/>
   <path class="fil0 str0" d="M31624 0c0,0 0,60960 0,60960"/>
   <path class="fil0 str0" d="M33910 0c0,0 0,60960 0,60960"/>
   <path class="fil0 str0" d="M36196 0c0,0 0,60960 0,60960"/>
   <path class="fil0 str0" d="M38482 0c0,0 0,60960 0,60960"/>
   <path class="fil0 str0" d="M40768 0c0,0 0,60960 0,60960"/>
   <path class="fil0 str0" d="M43054 0c0,0 0,60960 0,60960"/>
   <path class="fil0 str0" d="M45341 0c0,0 0,60960 0,60960"/>
   <path class="fil0 str0" d="M47627 0c0,0 0,60960 0,60960"/>
   <path class="fil0 str0" d="M49913 0c0,0 0,60960 0,60960"/>
   <path class="fil0 str0" d="M52199 0c0,0 0,60960 0,60960"/>
   <path class="fil0 str0" d="M54485 0c0,0 0,60960 0,60960"/>
   <path class="fil0 str0" d="M56771 0c0,0 0,60960 0,60960"/>
   <path class="fil0 str0" d="M59057 0c0,0 0,60960 0,60960"/>
  </g>
 </g>
</svg>
