<?xml version="1.0" encoding="UTF-8"?>
<!DOCTYPE svg PUBLIC "-//W3C//DTD SVG 1.1//EN" "http://www.w3.org/Graphics/SVG/1.1/DTD/svg11.dtd">
<!-- Creator: CorelDRAW X7 -->
<svg xmlns="http://www.w3.org/2000/svg" xml:space="preserve" width="609.6mm" height="609.6mm" version="1.1" style="shape-rendering:geometricPrecision; text-rendering:geometricPrecision; image-rendering:optimizeQuality; fill-rule:evenodd; clip-rule:evenodd"
viewBox="0 0 60960 60960"
 xmlns:xlink="http://www.w3.org/1999/xlink">
 <defs>
  <style type="text/css">
   <![CDATA[
    .str0 {stroke:#333333;stroke-width:20;stroke-linejoin:bevel}
    .fil0 {fill:none}
   ]]>
  </style>
 </defs>
 <g id="Layer_x0020_1">
  <metadata id="CorelCorpID_0Corel-Layer"/>
  <g id="_1458958918816">
   <path class="fil0 str0" d="M1524 0c0,0 0,60960 0,60960"/>
   <path class="fil0 str0" d="M4572 0c0,0 0,60960 0,60960"/>
   <path class="fil0 str0" d="M7620 0c0,0 0,60960 0,60960"/>
   <path class="fil0 str0" d="M10668 0c0,0 0,60960 0,60960"/>
   <path class="fil0 str0" d="M13716 0c0,0 0,60960 0,60960"/>
   <path class="fil0 str0" d="M16764 0c0,0 0,60960 0,60960"/>
   <path class="fil0 str0" d="M19813 0c0,0 0,60960 0,60960"/>
   <path class="fil0 str0" d="M22861 0c0,0 0,60960 0,60960"/>
   <path class="fil0 str0" d="M25909 0c0,0 0,60960 0,60960"/>
   <path class="fil0 str0" d="M28957 0c0,0 0,60960 0,60960"/>
   <path class="fil0 str0" d="M32005 0c0,0 0,60960 0,60960"/>
   <path class="fil0 str0" d="M35053 0c0,0 0,60960 0,60960"/>
   <path class="fil0 str0" d="M38101 0c0,0 0,60960 0,60960"/>
   <path class="fil0 str0" d="M41149 0c0,0 0,60960 0,60960"/>
   <path class="fil0 str0" d="M44197 0c0,0 0,60960 0,60960"/>
   <path class="fil0 str0" d="M47245 0c0,0 0,60960 0,60960"/>
   <path class="fil0 str0" d="M50293 0c0,0 0,60960 0,60960"/>
   <path class="fil0 str0" d="M53341 0c0,0 0,60960 0,60960"/>
   <path class="fil0 str0" d="M56389 0c0,0 0,60960 0,60960"/>
   <path class="fil0 str0" d="M59438 0c0,0 0,60960 0,60960"/>
  </g>
 </g>
</svg>
