<?xml version="1.0" encoding="UTF-8"?>
<!DOCTYPE svg PUBLIC "-//W3C//DTD SVG 1.1//EN" "http://www.w3.org/Graphics/SVG/1.1/DTD/svg11.dtd">
<!-- Creator: CorelDRAW 2021 (64-Bit) -->
<svg xmlns="http://www.w3.org/2000/svg" xml:space="preserve" width="2in" height="2in" version="1.1" shape-rendering="geometricPrecision" text-rendering="geometricPrecision" image-rendering="optimizeQuality" fill-rule="evenodd" clip-rule="evenodd"
viewBox="0 0 2000 2000"
 xmlns:xlink="http://www.w3.org/1999/xlink"
 xmlns:xodm="http://www.corel.com/coreldraw/odm/2003">
 <g id="Layer_x0020_1">
  <metadata id="CorelCorpID_0Corel-Layer"/>
  <g id="_2089926445200">
   <g>
    <rect fill="none" stroke="black" stroke-width="6.94" stroke-linecap="round" stroke-linejoin="round" stroke-miterlimit="2.61313" x="173.23" y="173.23" width="354.33" height="787.4"/>
    <rect fill="none" stroke="black" stroke-width="6.94" stroke-linecap="round" stroke-linejoin="round" stroke-miterlimit="2.61313" x="606.3" y="173.23" width="354.33" height="354.33"/>
    <rect fill="none" stroke="black" stroke-width="6.94" stroke-linecap="round" stroke-linejoin="round" stroke-miterlimit="2.61313" x="606.3" y="606.3" width="354.33" height="354.33"/>
   </g>
   <g>
    <rect fill="none" stroke="black" stroke-width="6.94" stroke-linecap="round" stroke-linejoin="round" stroke-miterlimit="2.61313" transform="matrix(2.90911E-14 1.09842 -1.1792 3.12307E-14 1826.77 173.228)" width="322.58" height="667.74"/>
    <rect fill="none" stroke="black" stroke-width="6.94" stroke-linecap="round" stroke-linejoin="round" stroke-miterlimit="2.61313" transform="matrix(2.90911E-14 1.09842 -0.530642 1.40538E-14 1826.77 606.299)" width="322.58" height="667.74"/>
    <rect fill="none" stroke="black" stroke-width="6.94" stroke-linecap="round" stroke-linejoin="round" stroke-miterlimit="2.61313" transform="matrix(2.90911E-14 1.09842 -0.530642 1.40538E-14 1393.7 606.299)" width="322.58" height="667.74"/>
   </g>
   <g>
    <rect fill="none" stroke="black" stroke-width="6.94" stroke-linecap="round" stroke-linejoin="round" stroke-miterlimit="2.61313" transform="matrix(2.90911E-14 -1.09842 -1.1792 -3.12307E-14 1826.77 1826.77)" width="322.58" height="667.74"/>
    <rect fill="none" stroke="black" stroke-width="6.94" stroke-linecap="round" stroke-linejoin="round" stroke-miterlimit="2.61313" transform="matrix(2.90911E-14 -1.09842 -0.530642 -1.40538E-14 1826.77 1393.7)" width="322.58" height="667.74"/>
    <rect fill="none" stroke="black" stroke-width="6.94" stroke-linecap="round" stroke-linejoin="round" stroke-miterlimit="2.61313" transform="matrix(2.90911E-14 -1.09842 -0.530642 -1.40538E-14 1393.7 1393.7)" width="322.58" height="667.74"/>
   </g>
   <g>
    <rect fill="none" stroke="black" stroke-width="6.94" stroke-linecap="round" stroke-linejoin="round" stroke-miterlimit="2.61313" x="606.3" y="1039.37" width="354.33" height="787.4"/>
    <rect fill="none" stroke="black" stroke-width="6.94" stroke-linecap="round" stroke-linejoin="round" stroke-miterlimit="2.61313" x="173.23" y="1039.37" width="354.33" height="354.33"/>
    <rect fill="none" stroke="black" stroke-width="6.94" stroke-linecap="round" stroke-linejoin="round" stroke-miterlimit="2.61313" x="173.23" y="1472.44" width="354.33" height="354.33"/>
   </g>
  </g>
 </g>
</svg>
