<?xml version="1.0" encoding="UTF-8"?>
<!DOCTYPE svg PUBLIC "-//W3C//DTD SVG 1.1//EN" "http://www.w3.org/Graphics/SVG/1.1/DTD/svg11.dtd">
<!-- Creator: CorelDRAW 2021 (64-Bit) -->
<svg xmlns="http://www.w3.org/2000/svg" xml:space="preserve" width="2in" height="2.08661in" version="1.1" shape-rendering="geometricPrecision" text-rendering="geometricPrecision" image-rendering="optimizeQuality" fill-rule="evenodd" clip-rule="evenodd"
viewBox="0 0 2000 2086.61"
 xmlns:xlink="http://www.w3.org/1999/xlink"
 xmlns:xodm="http://www.corel.com/coreldraw/odm/2003">
 <g id="Layer_x0020_1">
  <metadata id="CorelCorpID_0Corel-Layer"/>
  <g id="_2290631621360">
   <path fill="none" fill-rule="nonzero" stroke="black" stroke-width="6.94" stroke-linecap="round" stroke-linejoin="round" stroke-miterlimit="2.61313" d="M980.31 2051.12c0,17.44 21.24,26.28 33.52,14 3.78,-3.96 5.85,-8.48 5.85,-14l0 -244.33c0,-17.44 -21.24,-26.28 -33.52,-14 -3.78,3.96 -5.85,8.48 -5.85,14l0 244.33zm0 -303.39c0,17.44 21.24,26.28 33.52,14 3.78,-3.96 5.85,-8.48 5.85,-14l0 -236.22c0,-17.44 -21.24,-26.28 -33.52,-14 -3.78,3.96 -5.85,8.48 -5.85,14l0 236.22zm0 -295.28c0,17.44 21.24,26.28 33.52,14 3.78,-3.96 5.85,-8.48 5.85,-14l0 -236.22c0,-17.44 -21.24,-26.28 -33.52,-14 -3.78,3.96 -5.85,8.48 -5.85,14l0 236.22zm0 -295.27c0,17.44 21.24,26.28 33.52,14 3.78,-3.96 5.85,-8.48 5.85,-14l0 -236.22c0,-17.44 -21.24,-26.28 -33.52,-14 -3.78,3.96 -5.85,8.48 -5.85,14l0 236.22zm0 -295.28c0,17.44 21.24,26.28 33.52,14 3.78,-3.96 5.85,-8.48 5.85,-14l0 -236.22c0,-17.44 -21.24,-26.28 -33.52,-14 -3.78,3.96 -5.85,8.48 -5.85,14l0 236.22zm0 -295.28c0,17.44 21.24,26.28 33.52,14 3.78,-3.96 5.85,-8.48 5.85,-14l0 -236.22c0,-17.44 -21.24,-26.28 -33.52,-14 -3.78,3.96 -5.85,8.48 -5.85,14l0 236.22zm0 -295.28c0,17.44 21.24,26.28 33.52,14 3.78,-3.96 5.85,-8.48 5.85,-14l0 -236.22c0,-17.44 -21.24,-26.28 -33.52,-14 -3.78,3.96 -5.85,8.48 -5.85,14l0 236.22z"/>
   <path fill="none" fill-rule="nonzero" stroke="black" stroke-width="6.94" stroke-linecap="round" stroke-linejoin="round" stroke-miterlimit="2.61313" d="M940.94 35.61c0,-17.44 -21.24,-26.28 -33.52,-14 -3.78,3.96 -5.85,8.48 -5.85,14l0 141.08c0,17.44 21.24,26.28 33.52,14 3.78,-3.96 5.85,-8.48 5.85,-14l0 -141.08zm0 193.16c0,-17.44 -21.24,-26.28 -33.52,-14 -3.78,3.96 -5.85,8.48 -5.85,14l0 156.24c0,17.44 21.24,26.28 33.52,14 3.78,-3.96 5.85,-8.48 5.85,-14l0 -156.24zm0 208.31c0,-17.44 -21.24,-26.28 -33.52,-14 -3.78,3.96 -5.85,8.48 -5.85,14l0 156.24c0,17.44 21.24,26.28 33.52,14 3.78,-3.96 5.85,-8.48 5.85,-14l0 -156.24zm0 208.31c0,-17.44 -21.24,-26.28 -33.52,-14 -3.78,3.96 -5.85,8.48 -5.85,14l0 156.24c0,17.44 21.24,26.28 33.52,14 3.78,-3.96 5.85,-8.48 5.85,-14l0 -156.24zm0 208.31c0,-17.44 -21.24,-26.28 -33.52,-14 -3.78,3.96 -5.85,8.48 -5.85,14l0 156.24c0,17.44 21.24,26.28 33.52,14 3.78,-3.96 5.85,-8.48 5.85,-14l0 -156.24zm0 208.31c0,-17.44 -21.24,-26.28 -33.52,-14 -3.78,3.96 -5.85,8.48 -5.85,14l0 156.24c0,17.44 21.24,26.28 33.52,14 3.78,-3.96 5.85,-8.48 5.85,-14l0 -156.24zm0 208.31c0,-17.44 -21.24,-26.28 -33.52,-14 -3.78,3.96 -5.85,8.48 -5.85,14l0 156.24c0,17.44 21.24,26.28 33.52,14 3.78,-3.96 5.85,-8.48 5.85,-14l0 -156.24zm0 208.31c0,-17.44 -21.24,-26.28 -33.52,-14 -3.78,3.96 -5.85,8.48 -5.85,14l0 156.24c0,17.44 21.24,26.28 33.52,14 3.78,-3.96 5.85,-8.48 5.85,-14l0 -156.24zm0 208.31c0,-17.44 -21.24,-26.28 -33.52,-14 -3.78,3.96 -5.85,8.48 -5.85,14l0 156.24c0,17.44 21.24,26.28 33.52,14 3.78,-3.96 5.85,-8.48 5.85,-14l0 -156.24zm0 208.31c0,-17.44 -21.24,-26.28 -33.52,-14 -3.78,3.96 -5.85,8.48 -5.85,14l0 156.24c0,17.44 21.24,26.28 33.52,14 3.78,-3.96 5.85,-8.48 5.85,-14l0 -156.24z"/>
   <path fill="none" fill-rule="nonzero" stroke="black" stroke-width="6.94" stroke-linecap="round" stroke-linejoin="round" stroke-miterlimit="2.61313" d="M1059.06 2051.48c0,17.44 21.24,26.28 33.52,14 3.78,-3.96 5.85,-8.48 5.85,-14l0 -361.11c0,-17.44 -21.24,-26.28 -33.52,-14 -3.78,3.96 -5.85,8.48 -5.85,14l0 361.11zm0 -420.17c0,17.44 21.24,26.28 33.52,14 3.78,-3.96 5.85,-8.48 5.85,-14l0 -354.33c0,-17.44 -21.24,-26.28 -33.52,-14 -3.78,3.96 -5.85,8.48 -5.85,14l0 354.33zm0 -413.39c0,17.44 21.24,26.28 33.52,14 3.78,-3.96 5.85,-8.48 5.85,-14l0 -354.33c0,-17.44 -21.24,-26.28 -33.52,-14 -3.78,3.96 -5.85,8.48 -5.85,14l0 354.33zm0 -413.38c0,17.44 21.24,26.28 33.52,14 3.78,-3.96 5.85,-8.48 5.85,-14l0 -354.33c0,-17.44 -21.24,-26.28 -33.52,-14 -3.78,3.96 -5.85,8.48 -5.85,14l0 354.33zm0 -413.39c0,17.44 21.24,26.28 33.52,14 3.78,-3.96 5.85,-8.48 5.85,-14l0 -354.33c0,-17.44 -21.24,-26.28 -33.52,-14 -3.78,3.96 -5.85,8.48 -5.85,14l0 354.33z"/>
  </g>
 </g>
</svg>
