<?xml version="1.0" encoding="UTF-8"?>
<!DOCTYPE svg PUBLIC "-//W3C//DTD SVG 1.1//EN" "http://www.w3.org/Graphics/SVG/1.1/DTD/svg11.dtd">
<!-- Creator: CorelDRAW 2021 (64-Bit) -->
<svg xmlns="http://www.w3.org/2000/svg" xml:space="preserve" width="2in" height="2in" version="1.1" shape-rendering="geometricPrecision" text-rendering="geometricPrecision" image-rendering="optimizeQuality" fill-rule="evenodd" clip-rule="evenodd"
viewBox="0 0 2000 2000"
 xmlns:xlink="http://www.w3.org/1999/xlink"
 xmlns:xodm="http://www.corel.com/coreldraw/odm/2003">
 <g id="Layer_x0020_1">
  <metadata id="CorelCorpID_0Corel-Layer"/>
  <path fill="none" fill-rule="nonzero" stroke="black" stroke-width="3" stroke-linecap="round" stroke-linejoin="round" stroke-miterlimit="2.61313" d="M1946.89 1616.76c4.52,20.63 34.18,20.86 38.61,-0.56 0.44,-2.63 0.45,-5.09 -0.12,-7.7l-3.89 -17.87 -3.7 -16.43 -3.8 -16.33 -3.89 -16.21 -3.98 -16.11 -4.07 -16 -4.17 -15.89 -4.25 -15.78 -4.34 -15.67 -4.43 -15.56 -4.52 -15.45 -4.46 -14.88c-6.58,-20.39 -35.59,-17.57 -38.38,3.31 -0.3,2.97 -0.13,5.27 0.71,8.14l4.38 14.6 4.44 15.19 4.35 15.3 4.27 15.4 4.18 15.51 4.09 15.62 4 15.73 3.92 15.84 3.83 15.95 3.74 16.06 3.65 16.17 3.83 17.6zm-85.65 -299.96c2.11,5.75 6.7,10.11 12.52,11.98 15.66,4.86 30.07,-10.2 24.44,-25.54l-7.63 -20.7 -5.42 -14.3 -5.5 -14.19 -5.57 -14.08 -5.64 -13.98 -5.72 -13.88 -5.8 -13.77 -5.86 -13.68 -5.94 -13.57 -6.01 -13.47 -6.08 -13.37 -6.14 -13.27 -5.2 -11.02c-9.41,-19.49 -38.85,-11.79 -37.41,9.94 0.24,2.49 0.76,4.7 1.86,6.98l5.07 10.76 6.03 13.02 5.96 13.11 5.89 13.21 5.83 13.31 5.75 13.42 5.69 13.52 5.61 13.61 5.54 13.72 5.47 13.83 5.39 13.92 5.31 14.03 7.53 20.44zm-128.27 -283.93c10.85,19 40.18,9.3 36.52,-13.39 -0.39,-1.98 -1.13,-4.03 -2.13,-5.78l-5.51 -9.98 -6.85 -12.18 -6.91 -12.09 -6.96 -11.99 -7.02 -11.9 -7.07 -11.8 -7.13 -11.71 -7.19 -11.61 -7.24 -11.52 -7.29 -11.43 -7.34 -11.33 -7.39 -11.24 -7.44 -11.15 -7.49 -11.06 -5.55 -8.07c-10.11,-15.17 -34.58,-8.74 -35.81,9.81 -0.31,4.68 0.87,8.74 3.45,12.62l12.73 18.67 7.29 10.93 7.24 11.01 7.19 11.1 7.14 11.2 7.09 11.29 7.04 11.38 6.99 11.48 6.93 11.57 6.88 11.66 6.82 11.76 6.76 11.85 6.71 11.94 5.51 9.98zm-171.67 -259.92c13.71,17.14 41.41,2.67 33.86,-19.2 -0.79,-1.91 -1.63,-3.52 -2.93,-5.15l-9.08 -11.48 -8.01 -9.98 -8.05 -9.89 -8.08 -9.8 -16.28 -19.33 -8.19 -9.54 -8.22 -9.45 -8.26 -9.37c-8.26,-9.26 -16.57,-18.44 -24.95,-27.59l-16.78 -17.97 -14.77 -15.44c-15.06,-15.06 -39.77,0.44 -32.53,20.72 1.01,2.58 2.34,4.68 4.27,6.69 10.41,10.8 20.66,21.69 30.87,32.69 8.21,8.96 16.35,17.96 24.44,27.03 8.12,9.22 16.16,18.46 24.16,27.78l15.94 18.94 15.8 19.28c5.61,6.99 11.26,13.98 16.77,21.05zm-211.75 -228.3c5.7,5.23 13.97,6.59 21.07,3.54 13.13,-5.63 15.96,-23.01 5.48,-32.62 -48.62,-44.65 -100.14,-87.33 -153.03,-126.84 -16.64,-12.16 -38.32,5.96 -29.43,24.44 1.5,2.89 3.3,5.23 5.96,7.18 51.89,38.92 102.17,80.43 149.95,124.31zm-245.54 -191.74c3.69,2.46 8.28,3.59 12.7,3.15 18.5,-1.91 24.38,-25.74 8.94,-36.04 -55.44,-36.66 -111.86,-70.41 -170.33,-101.99 -19.83,-10.26 -38.62,14.45 -23.7,30.79 1.52,1.59 3.14,2.86 5.07,3.9 57.45,31.05 112.85,64.17 167.33,100.19zm-271.83 -152.85c17.52,8.46 35.78,-11.85 24.73,-28.74 -1.93,-3.02 -4.84,-5.37 -8.03,-6.91 -59.95,-28.19 -121.01,-53.67 -183.22,-76.44 -19.78,-7.25 -35.84,17.93 -20.16,32.91 2,1.83 4.13,3.15 6.67,4.08 61.15,22.43 121.06,47.39 180,75.11zm-290.93 -112.2c7.21,2.09 14.75,0.15 19.96,-5.31 10.02,-10.5 5.37,-28.33 -8.63,-32.39 -54.73,-16.5 -110.44,-31.2 -166.63,-41.87 -9.19,-1.71 -19.89,-3.95 -29.2,-4.63 -20.3,-1.27 -29.31,26.12 -10.46,37 2.61,1.35 5.09,2.09 8.02,2.3 6.03,0.6 11.71,1.71 17.69,2.8 56.98,10.34 113.85,25.39 169.25,42.1z"/>
  <path fill="none" fill-rule="nonzero" stroke="black" stroke-width="3" stroke-linecap="round" stroke-linejoin="round" stroke-miterlimit="2.61313" d="M1933.76 1967.47c1.9,20.29 30.51,24.74 38.13,4.64 1,-2.79 1.31,-5.63 1.04,-8.57l-2.09 -20.13 -2.22 -20 -2.35 -19.86 -1.37 -10.9c-2.59,-20.68 -32.02,-23.63 -38.39,-3.1 -0.77,2.8 -1.02,5.24 -0.65,8.14l1.33 10.63 2.31 19.58 2.19 19.72 2.06 19.86zm-25.06 -185.77c3.96,21.12 33.55,21.89 38.6,0.97 0.56,-2.78 0.63,-4.87 0.19,-7.7l-4.46 -25.45 -3.45 -18.66 -3.56 -18.52 -3.68 -18.39 -3.79 -18.26 -3.91 -18.13 -4.02 -18 -4.14 -17.87 -4.24 -17.74 -5.75 -23.1c-1.04,-4.04 -3.45,-7.84 -6.74,-10.42 -14.87,-11.78 -36.07,2.07 -31.37,20.3l5.61 22.52 4.17 17.46 4.07 17.58 3.96 17.71 3.85 17.84 3.74 17.98 3.62 18.11 3.51 18.23 3.39 18.37 4.41 25.17zm-71.95 -303.66c6.63,20.56 37,17.17 38.44,-5.09 0.08,-2.34 -0.19,-4.59 -0.91,-6.81l-5.05 -16.14 -5.3 -16.47 -5.39 -16.35 -5.49 -16.23 -5.59 -16.11 -5.69 -15.98 -5.78 -15.86 -5.88 -15.74 -5.97 -15.61 -6.06 -15.5 -6.15 -15.38 -4.68 -11.43c-3.15,-7.87 -11.56,-12.92 -19.97,-12.08 -13.32,1.29 -21.36,14.75 -16.41,27.14l4.56 11.15 6.04 15.09 5.95 15.21 5.86 15.33 5.77 15.45 5.68 15.57 5.59 15.7 5.49 15.81 5.4 15.94 5.3 16.06 5.2 16.19 5.05 16.14zm-113.46 -290.39c3.74,7.74 12.35,12.2 20.8,10.79 13.09,-2.11 20.29,-16.21 14.56,-28.09l-6.1 -12.6 -7.01 -14.19 -7.09 -14.08 -7.17 -13.96 -7.25 -13.85 -7.33 -13.73 -7.4 -13.62 -7.48 -13.51 -7.55 -13.39 -7.63 -13.28 -7.7 -13.17 -7.77 -13.06 -7.32 -12.09c-10.84,-17.85 -39.18,-8.63 -36.24,13.41 0.43,2.55 1.3,4.9 2.64,7.11l7.16 11.83 7.61 12.8 7.55 12.9 7.47 13.02 7.4 13.12 7.33 13.24 7.26 13.35 7.19 13.46 7.11 13.57 7.03 13.69 6.95 13.8 6.88 13.92 6.1 12.6zm-156.93 -269.17c13.01,17.8 40.16,5.01 35.27,-15.95 -0.72,-2.63 -1.47,-4.31 -2.98,-6.58l-8.81 -12.53 -8.48 -11.85 -8.54 -11.75 -8.59 -11.64 -8.65 -11.54 -8.7 -11.43 -8.76 -11.32 -8.81 -11.23 -8.86 -11.12 -8.91 -11.02 -8.96 -10.91 -9.02 -10.81 -9.06 -10.71 -7.82 -9.11c-14.86,-16.98 -42.44,0.27 -32.53,21.62 0.77,1.54 1.64,2.81 2.75,4.13l7.63 8.9 8.88 10.49 8.83 10.59 8.78 10.69 8.73 10.79 8.68 10.89 8.63 11 8.58 11.1 8.52 11.2 8.47 11.3 8.42 11.41 8.36 11.51 8.3 11.62 8.64 12.28zm-198.47 -239.87c16.07,16.07 42.49,-3.13 30.98,-23.85 -0.83,-1.35 -1.76,-2.61 -2.88,-3.73l-13.98 -14.2 -9.56 -9.53 -9.59 -9.43 -9.61 -9.33 -9.65 -9.24 -9.68 -9.15 -9.71 -9.06 -9.74 -8.96 -9.76 -8.87 -9.8 -8.78 -9.82 -8.69 -19.71 -17.09 -15.11 -12.79c-15.12,-12.7 -38,2.52 -30.94,22.29 1.4,3.27 2.97,5.63 5.73,7.94l14.73 12.46 19.33 16.76 9.63 8.51 19.18 17.3 9.55 8.78 9.52 8.87 9.49 8.96 9.46 9.06 9.43 9.15 9.4 9.24 9.36 9.33 13.8 14.02zm-234.63 -205.02c7.13,5.21 16.56,5.21 23.63,-0.09 10.35,-7.87 10.44,-23.77 -0.13,-31.5 -52.75,-39.48 -108.39,-76.89 -164.69,-111.11 -18.04,-10.96 -38.78,10.81 -25.97,28.61 1.56,2.08 3.41,3.75 5.61,5.09 55.22,33.56 109.81,70.28 161.55,109zm-263.09 -167.31c20.43,10.57 39.37,-15.87 22.65,-31.83 -1.23,-1.13 -2.58,-2.09 -4.04,-2.87 -58.3,-31.43 -117.74,-60.28 -178.46,-86.74 -19.72,-8.54 -37.17,16.56 -21.57,32.17 1.78,1.69 3.66,2.98 5.91,3.95 59.74,26.06 118.14,54.41 175.52,85.33zm-284.02 -129.46c21.06,7.72 36.7,-19.97 18.94,-34.03 -1.65,-1.19 -3.14,-2.11 -5.07,-2.81 -61.9,-23.43 -124.58,-44.35 -188.14,-62.81 -18.69,-5.43 -33.31,16.87 -20.02,32.16 2.63,2.76 5.4,4.59 9.09,5.66 62.6,18.25 124.2,38.76 185.19,61.84zm-298.44 -91.72c21.06,4.76 33.39,-22.63 15.85,-35.26 -2.27,-1.54 -4.15,-2.37 -6.81,-3.06 -64.3,-15.3 -129.7,-28.09 -195.26,-36.8 -9.27,-1.16 -18.26,4.17 -21.25,13.12 -4,11.61 3.73,24.36 16,25.89 64.52,8.8 128.1,21.03 191.46,36.1z"/>
  <path fill="none" fill-rule="nonzero" stroke="black" stroke-width="3" stroke-linecap="round" stroke-linejoin="round" stroke-miterlimit="2.61313" d="M1836.03 1970.85c2.19,23.29 35.37,24.51 39.13,1.21 0.19,-1.46 0.22,-2.75 0.13,-4.23l-0.8 -9.9c-2.02,-21.51 -32.02,-24.8 -38.51,-3.87 -0.65,2.41 -0.95,4.67 -0.72,7.19l0.78 9.59zm-13.09 -126.09c2.46,19.68 30.21,23.98 38.08,3.95 1.06,-3.06 1.35,-5.96 0.94,-9.17l-3.25 -23.89 -2.7 -18.44 -2.83 -18.32 -2.97 -18.19 -3.1 -18.07 -3.23 -17.94 -3.37 -17.82 -3.49 -17.7 -3.62 -17.57 -3.75 -17.45 -2.27 -10.15c-1.36,-6.23 -5.98,-11.58 -11.87,-13.9 -14.86,-5.83 -29.91,7.13 -26.51,22.65l2.2 9.82 3.68 17.13 3.56 17.25 3.43 17.37 3.3 17.5 3.18 17.62 3.04 17.75 2.92 17.88 2.78 18 2.65 18.13 3.2 23.56zm-62.8 -305.31c5.85,20.16 35.65,18.46 38.48,-3.47 0.26,-2.57 0.03,-5.07 -0.69,-7.55l-2.72 -9.47 -4.84 -16.35 -4.96 -16.23 -5.07 -16.11 -5.19 -16 -5.3 -15.88 -5.41 -15.76 -5.52 -15.64 -5.62 -15.52 -5.73 -15.41 -5.84 -15.29 -8.06 -20.44c-3.3,-8.23 -11.97,-13.28 -20.74,-12.11 -12.87,1.66 -20.53,14.96 -15.74,26.94l7.81 19.81 5.72 14.98 5.61 15.09 5.51 15.21 5.41 15.33 5.3 15.44 5.19 15.56 5.08 15.67 4.97 15.8 4.86 15.91 4.74 16.03 2.72 9.47zm-109.74 -291.44c9.6,19.89 40.19,11.47 37.22,-11.55 -0.31,-1.88 -0.85,-3.69 -1.69,-5.42l-8.12 -16.87 -6.93 -14.04 -7.02 -13.93 -7.11 -13.81 -7.2 -13.7 -7.28 -13.59 -7.37 -13.48 -7.46 -13.37 -7.54 -13.26 -7.62 -13.15 -7.71 -13.05 -7.79 -12.94 -5.85 -9.54c-12.31,-19.54 -42.87,-5.8 -35.23,17.13 0.49,1.3 1.03,2.41 1.75,3.58l5.69 9.28 7.62 12.66 7.54 12.76 7.46 12.87 7.38 12.98 7.3 13.08 7.22 13.19 7.13 13.3 7.05 13.41 6.95 13.52 6.87 13.63 6.78 13.74 7.97 16.57zm-157.41 -268.41c11.98,16.4 37.63,6.65 35.59,-13.7 -0.44,-3.31 -1.54,-6.42 -3.52,-9.14l-10.33 -14.43 -8.6 -11.77 -8.66 -11.67 -8.73 -11.57 -8.79 -11.46 -8.85 -11.37 -8.92 -11.26 -8.98 -11.17 -9.04 -11.06 -9.09 -10.96 -9.15 -10.86 -9.21 -10.76 -9.26 -10.67 -5.98 -6.78c-14.9,-16.26 -41.08,-0.2 -32.85,20.74 0.87,2.02 1.96,3.74 3.42,5.41l5.79 6.56 9.07 10.44 9.02 10.54 8.96 10.63 8.91 10.73 8.85 10.83 8.79 10.93 8.73 11.02 8.67 11.13 8.61 11.22 8.54 11.33 8.48 11.43 8.42 11.52 10.15 14.17zm-201 -237.58c5.98,5.98 15.01,7.3 22.56,3.66 12.15,-6.07 14.72,-22.07 5.13,-31.65l-7.59 -7.56 -9.79 -9.61 -9.82 -9.51 -9.86 -9.42 -9.9 -9.32 -9.94 -9.23 -9.97 -9.14 -10 -9.05 -10.04 -8.96 -10.07 -8.87 -10.09 -8.78 -10.13 -8.69 -10.16 -8.6 -19.92 -16.53c-17.09,-13.67 -40.48,6.08 -29.31,25.44 1.22,1.98 2.58,3.52 4.35,5.01l9.54 7.87 9.99 8.35 9.96 8.43 9.93 8.52 9.91 8.61 9.87 8.69 9.84 8.78 9.81 8.87 9.77 8.96 9.74 9.05 9.7 9.14 9.67 9.23 9.63 9.32 9.58 9.41 7.59 7.56zm-236.98 -202.34c4.94,3.61 11.47,4.67 17.3,2.86 15.55,-4.83 18.87,-25.19 5.75,-34.78 -16.92,-12.29 -33.91,-24.32 -51.09,-36.22 -37.53,-25.64 -75.31,-50.02 -114.17,-73.59 -17.77,-10.79 -38.46,10.26 -26.23,28.24 1.63,2.26 3.52,4.03 5.9,5.48 55.93,33.92 109.62,69.56 162.54,108.01zm-264.28 -166.05c19.67,10.17 38.29,-14.03 24.11,-30.33 -1.65,-1.81 -3.32,-3.19 -5.48,-4.35 -58,-31.37 -117.89,-60.48 -178.22,-87.09 -11.83,-5.13 -25.22,2.12 -27.35,14.86 -1.42,8.81 3.29,17.62 11.52,21.19 59.37,26.18 118.34,54.85 175.41,85.72zm-283.69 -130.71c18.33,7.33 35.08,-14.77 22.52,-30.63 -2.35,-2.84 -4.85,-4.7 -8.26,-6.07 -61.51,-23.96 -124.14,-45.84 -187.25,-65.19 -20.71,-6.01 -34.78,20.26 -18.08,34.18 2.08,1.65 4.06,2.67 6.6,3.48 62.08,18.89 124.02,40.68 184.47,64.23z"/>
  <path fill="none" fill-rule="nonzero" stroke="black" stroke-width="3" stroke-linecap="round" stroke-linejoin="round" stroke-miterlimit="2.61313" d="M1748.23 1977.49c1.93,20.57 30.26,25 38.12,4.99 0.96,-2.78 1.38,-5.5 1.1,-8.45l-1.72 -18.72 -1.86 -18.59 -1.99 -18.46 -2.12 -18.35 -2.26 -18.22 -2.38 -18.09 -2.51 -17.98 -2.64 -17.85 -2.76 -17.72 -2.89 -17.61 -1.61 -9.3c-3.81,-20.35 -32.09,-22.07 -38.28,-2.12 -0.81,2.95 -1.06,5.93 -0.49,8.97l1.55 8.98 2.84 17.29 2.72 17.42 2.59 17.54 2.46 17.66 2.34 17.79 2.22 17.91 2.09 18.04 1.96 18.16 1.83 18.29 1.69 18.41zm-47.36 -302.17c5.79,22.44 38.09,18.93 38.85,-4.35 0,-1.64 -0.17,-3.1 -0.53,-4.69l-2.39 -10.32 -3.97 -16.52 -4.09 -16.41 -4.2 -16.29 -4.31 -16.17 -4.42 -16.06 -4.53 -15.94 -4.64 -15.82 -4.75 -15.7 -4.86 -15.59 -4.96 -15.48 -6.96 -20.93c-7.44,-20.97 -38.3,-15.66 -38.3,6.62 0.07,2.31 0.36,3.98 1.07,6.19l6.75 20.31 4.87 15.16 4.76 15.28 4.66 15.39 4.55 15.5 4.44 15.62 4.33 15.74 4.23 15.85 4.11 15.98 4.01 16.09 3.9 16.21 2.39 10.32zm-93.87 -297.03c7.33,18.32 35,15.48 37.78,-5.37 0.34,-3.38 -0.1,-6.43 -1.37,-9.58l-6.56 -15.83 -6.05 -14.23 -6.14 -14.12 -6.24 -14.01 -6.33 -13.9 -6.41 -13.79 -6.51 -13.69 -6.59 -13.57 -6.67 -13.47 -6.76 -13.36 -6.85 -13.25 -6.93 -13.15 -7.24 -13.46c-9.67,-16.93 -34.91,-11.46 -36.83,7.69 -0.27,4.04 0.35,7.82 2.38,11.37l6.94 12.89 6.78 12.86 6.7 12.96 6.61 13.06 6.53 13.18 6.45 13.28 6.37 13.39 6.28 13.49 6.19 13.6 6.1 13.71 6.02 13.82 5.93 13.93 6.44 15.52zm-142.44 -276.46c11.78,17.67 38.76,7.54 36.05,-13.5 -0.49,-2.92 -1.32,-5.24 -2.91,-7.76l-5.88 -9.25 -7.76 -12 -7.83 -11.89 -7.89 -11.79 -7.96 -11.69 -8.03 -11.58 -8.09 -11.49 -8.16 -11.39 -8.22 -11.28 -8.28 -11.19 -8.34 -11.09 -8.4 -10.98 -8.45 -10.89 -12.21 -15.41c-3.95,-4.94 -10.23,-7.7 -16.54,-7.28 -15.97,1.06 -24.09,19.52 -14.09,32.01l11.83 14.94 8.27 10.65 8.22 10.75 8.15 10.85 8.1 10.94 8.04 11.04 7.98 11.13 7.91 11.24 7.85 11.33 7.79 11.43 7.72 11.53 7.66 11.63 7.59 11.73 5.88 9.25zm-188.9 -247.19c4.47,4.87 11.18,7.15 17.69,6.06 15.47,-2.67 21.82,-21.22 11.24,-32.77l-6.69 -7.3 -9.06 -9.74 -9.1 -9.65 -9.15 -9.56 -9.19 -9.47 -9.23 -9.37 -9.26 -9.28 -9.3 -9.2 -9.34 -9.1 -9.37 -9.01 -9.41 -8.93 -9.44 -8.83 -9.47 -8.74 -9.5 -8.66 -14.11 -12.62c-16.51,-14.44 -40.99,4.96 -30.08,24.59 1.07,1.85 2.44,3.54 4.05,4.95l13.72 12.28 9.31 8.48 9.28 8.57 9.25 8.65 9.21 8.74 9.19 8.83 9.15 8.91 9.11 9 9.07 9.09 9.03 9.18 9 9.27 8.95 9.36 8.91 9.44 8.87 9.54 6.69 7.3zm-228.54 -211.61c14.86,11.89 36.7,-2.8 30.93,-21.42 -1.38,-3.99 -3.29,-6.89 -6.62,-9.55 -51.93,-40.92 -106.34,-79.37 -161.96,-115.11 -18.89,-11.89 -40.15,11.88 -25.48,29.49 1.34,1.47 2.63,2.65 4.3,3.71 54.48,34.9 108,72.85 158.82,112.89zm-258.97 -173.53c18.28,10.44 38.33,-11.77 25.33,-29.12 -1.7,-2.15 -3.52,-3.77 -5.9,-5.13 -57.56,-32.81 -116.35,-62.88 -176.42,-90.82 -19.44,-8.71 -36.99,14.83 -22.91,31.02 2.06,2.15 3.7,3.41 6.39,4.71 59.07,27.47 116.92,57.06 173.52,89.33zm-280.97 -135.99c6.17,2.47 13,1.74 18.48,-1.99 12.95,-8.81 10.81,-28.7 -3.71,-34.51 -61.39,-24.92 -123.43,-47.21 -186.54,-67.36 -19.42,-6.26 -34.97,18.27 -19.09,33.43 2.21,1.92 4.4,3.2 7.2,4.1 62.09,19.76 123.28,41.81 183.66,66.32zm-296.13 -99.08c21.55,5.56 35.07,-23.65 14.66,-36.21 -1.43,-0.79 -3,-1.44 -4.6,-1.85 -61.83,-16.31 -125.45,-31 -188.72,-40.68 -2.03,-0.3 -4.12,-0.65 -6.15,-0.88 -21.5,-2.69 -31.09,26.2 -11.91,36.85 2.16,1.12 4.34,1.88 6.76,2.18 1.88,0 6.24,0.9 8.22,1.2 60.95,9.52 122.14,23.67 181.74,39.39z"/>
  <path fill="none" fill-rule="nonzero" stroke="black" stroke-width="3" stroke-linecap="round" stroke-linejoin="round" stroke-miterlimit="2.61313" d="M1651.67 1977.18c2.12,22.6 34.58,24.61 39.03,1.62 0.26,-1.59 0.35,-3.33 0.2,-4.95l-1.52 -17.17 -1.96 -19.87c-2.86,-22.87 -35.38,-23.43 -39.05,-0.68 -0.22,1.75 -0.25,3.19 -0.08,4.96l1.89 19.24 1.5 16.86zm-18.65 -152.06c2.98,19.09 29.74,22.63 37.52,4.46 1.48,-3.78 1.93,-6.95 1.3,-10.98l-1.89 -11.57 -2.77 -16.09 -2.89 -15.98 -3 -15.87 -3.12 -15.77 -3.24 -15.66 -3.35 -15.56 -3.46 -15.45 -3.57 -15.35 -3.69 -15.24 -3.8 -15.13 -3.91 -15.04 -3.12 -11.59c-6.22,-21.43 -37.16,-18.15 -38.66,4.26 -0.07,2.22 0.13,3.99 0.68,6.12l3.03 11.26 3.82 14.71 3.72 14.82 3.61 14.92 3.5 15.02 3.39 15.13 3.28 15.24 3.17 15.34 3.06 15.44 2.94 15.55 2.83 15.66 2.71 15.77 1.89 11.57zm-75.24 -302.03c7.39,20.82 38.28,15.7 38.28,-6.75 -0.07,-2.16 -0.37,-4.13 -1.09,-6.18l-6.63 -18.95 -5.04 -13.91 -5.13 -13.81 -5.23 -13.71 -5.32 -13.61 -5.42 -13.51 -5.51 -13.41 -5.59 -13.31 -5.69 -13.22 -5.78 -13.12 -5.86 -13.01 -5.95 -12.93 -8.37 -17.67c-3.99,-8.27 -13.19,-12.6 -22.09,-10.59 -12.38,2.89 -18.83,16.37 -13.31,27.8l8.09 17.08 5.81 12.62 5.73 12.72 5.65 12.81 5.56 12.91 5.47 13.01 5.38 13.11 5.29 13.2 5.2 13.3 5.11 13.4 5.02 13.5 4.92 13.6 6.52 18.63zm-127.93 -283.35c10.59,18.52 39.51,9.31 36.56,-12.8 -0.4,-2.4 -1.14,-4.59 -2.35,-6.71l-7.12 -12.39 -6.91 -11.78 -6.98 -11.69 -7.06 -11.59 -7.12 -11.5 -7.19 -11.41 -7.26 -11.31 -7.33 -11.22 -7.39 -11.13 -7.46 -11.04 -7.52 -10.95 -7.59 -10.86 -7.65 -10.77 -7.72 -10.69 -6.26 -8.54c-12.19,-16.69 -39.3,-5.28 -35.07,15.87 0.67,2.86 1.69,5.17 3.42,7.55l6.09 8.3 7.53 10.43 7.47 10.52 7.42 10.61 7.35 10.69 7.29 10.79 7.23 10.88 7.16 10.96 7.09 11.06 7.03 11.14 6.96 11.23 6.89 11.32 6.81 11.42 6.75 11.5 6.96 12.11zm-178.42 -254.38c14.31,16.36 40.53,1.02 33.5,-19.34 -0.87,-2.44 -2.02,-4.38 -3.68,-6.36l-8.05 -9.41 -8.36 -9.63 -8.41 -9.55 -8.45 -9.46 -8.5 -9.38 -8.54 -9.29 -8.58 -9.21 -8.63 -9.13 -8.67 -9.04 -8.7 -8.96 -8.74 -8.88 -8.78 -8.8 -8.82 -8.72 -8.85 -8.63 -16.8 -16.07c-4.03,-3.69 -9.17,-5.7 -14.67,-5.33 -17.25,1.15 -24.83,22.03 -12.35,33.96l16.43 15.71 17.29 16.98 8.59 8.61 8.56 8.69 8.52 8.77 8.48 8.85 8.44 8.93 8.4 9.01 8.35 9.09 8.31 9.17 8.27 9.26 8.22 9.33 8.17 9.42 8.05 9.41zm-221.47 -218.77c5.57,4.67 13.55,5.86 20.23,3 13.61,-5.83 16.26,-23.77 4.93,-33.28 -50.85,-42.5 -103.96,-82.19 -158.67,-119.57 -17.64,-11.76 -38.94,8.54 -27.65,26.89 1.47,2.24 3.3,4.19 5.54,5.69 53.64,36.6 105.8,75.63 155.63,117.28zm-254.09 -180.48c5.56,3.38 12.71,3.73 18.57,0.91 14.19,-6.83 15.15,-26.5 1.7,-34.67 -56.74,-34.21 -114.7,-65.93 -174.09,-95.29 -19.32,-9.33 -37.51,14.52 -23.45,30.69 1.79,1.97 3.73,3.52 6.12,4.67 58.39,28.84 115.39,60.06 171.15,93.69zm-277.42 -143.06c19.44,8.42 37.01,-16 21.81,-31.92 -1.94,-1.85 -3.7,-3.14 -6.17,-4.2 -60.74,-26.45 -122.2,-50.33 -184.77,-72.09 -21.9,-7.06 -36.29,21.87 -17.24,35.06 1.47,0.94 2.8,1.59 4.45,2.18 61.46,21.15 122.32,45.04 181.91,70.98zm-293.52 -106.68c7.59,2.2 15.64,-0.28 20.7,-6.36 8.97,-10.86 3.89,-27.49 -9.67,-31.43 -49.03,-14.36 -98.43,-27.23 -148.37,-38.04 -15.06,-3.23 -30.06,-6.19 -45.22,-8.87 -8.68,-1.35 -17.26,3.07 -20.98,11.08 -5.46,11.77 1.74,25.72 14.63,27.77 13.3,2.66 26.7,5.04 40.1,7.81 50.11,10.76 99.62,23.62 148.8,38.02z"/>
  <path fill="none" fill-rule="nonzero" stroke="black" stroke-width="3" stroke-linecap="round" stroke-linejoin="round" stroke-miterlimit="2.61313" d="M1547.41 1976.72c1.97,21.06 31.94,24.75 38.52,3.57 0.67,-2.5 0.92,-4.71 0.67,-7.31l-1.61 -16.21 -1.73 -16.11 -1.85 -16 -1.96 -15.9 -2.08 -15.8 -2.19 -15.69 -2.31 -15.59 -2.42 -15.48 -2.53 -15.38 -2.64 -15.28 -2.75 -15.18 -3.16 -16.62c-4.63,-21.16 -34.42,-20.87 -38.66,0.35 -0.44,2.66 -0.43,4.81 0.07,7.46l3.04 15.98 2.69 14.86 2.59 14.97 2.48 15.07 2.37 15.18 2.26 15.27 2.15 15.38 2.04 15.48 1.93 15.58 1.81 15.69 1.7 15.8 1.58 15.9zm-52.64 -299.04c6.27,21.6 37.24,17.96 38.66,-4.08 0.07,-2.28 -0.1,-4.04 -0.67,-6.24l-3.54 -13.26 -3.89 -14.08 -3.98 -13.98 -4.08 -13.89 -4.18 -13.78 -4.27 -13.69 -4.37 -13.59 -4.46 -13.5 -4.55 -13.4 -4.64 -13.3 -4.73 -13.2 -4.82 -13.11 -4.91 -13.01 -5.2 -13.46c-7.84,-19.61 -37.26,-14.62 -37.96,6.85 0,2.82 0.36,5.17 1.41,7.81l4.97 12.84 4.79 12.71 4.71 12.81 4.62 12.9 4.53 12.99 4.45 13.09 4.35 13.19 4.27 13.28 4.17 13.37 4.08 13.48 3.99 13.57 3.9 13.67 3.8 13.76 3.54 13.26zm-106.66 -292.05c3.37,6.98 10.56,11.43 18.33,11.17 14.19,-0.46 23.36,-15.37 17.17,-28.2l-6.77 -14.01 -5.88 -11.89 -5.96 -11.81 -6.04 -11.71 -6.11 -11.62 -6.19 -11.54 -6.25 -11.44 -6.32 -11.35 -6.39 -11.27 -6.46 -11.17 -6.52 -11.09 -6.59 -11 -6.66 -10.91 -6.72 -10.82 -7.93 -12.51c-12.91,-19.36 -42.65,-4.68 -35.03,17.41 0.53,1.4 1.17,2.76 2,4l7.6 12 6.56 10.56 6.5 10.65 6.43 10.72 6.37 10.82 6.3 10.91 6.23 10.98 6.17 11.08 6.1 11.17 6.03 11.25 5.96 11.35 5.89 11.43 5.81 11.52 5.75 11.61 6.63 13.72zm-160.78 -265.72c13.71,17.83 41.6,2.77 34.28,-18.44 -0.8,-2.04 -1.52,-3.44 -2.81,-5.21l-9.37 -12.42 -7.46 -9.71 -7.52 -9.62 -7.56 -9.54 -7.61 -9.46 -7.67 -9.38 -7.71 -9.29 -7.75 -9.22 -7.8 -9.13 -7.84 -9.05 -15.81 -17.86 -7.97 -8.81 -8.01 -8.73c-6.15,-6.62 -12.31,-13.23 -18.55,-19.76 -6.28,-6.56 -16.38,-7.93 -24.18,-3.31 -10.97,6.5 -12.98,21.42 -4.19,30.61 6.06,6.33 12.03,12.76 18,19.17l7.82 8.53 7.78 8.61 15.44 17.45 15.27 17.75 7.57 9 7.53 9.08 7.48 9.15 7.43 9.24 7.39 9.32 7.34 9.39 7.28 9.48 9.2 12.19zm-208.96 -230.08c15.06,13.8 39.07,-2.01 31.56,-21.82 -1.26,-2.93 -2.67,-5.11 -5.05,-7.29 -6.73,-6.16 -13.52,-12.25 -20.32,-18.33 -43.09,-37.97 -87.17,-73.77 -133.44,-107.8 -5.01,-3.66 -11.48,-4.76 -17.4,-2.92 -15.47,4.8 -18.88,25.17 -5.83,34.71 52.24,38.41 102.67,79.64 150.48,123.44zm-246.73 -189.85c3.31,2.08 6.48,3.01 10.36,3.14 19.83,0 27.48,-25.22 10.96,-36.23 -55.53,-35.97 -113.03,-69.3 -171.7,-99.87 -19.13,-9.89 -38.14,14.03 -23.81,30.51 1.7,1.87 3.47,3.29 5.7,4.44 57.6,30.07 113.95,62.68 168.49,98.02zm-273.66 -149.37c21.53,9.33 38.61,-19.47 19.66,-33.88 -1.07,-0.78 -2.24,-1.45 -3.45,-2 -59.87,-27.18 -121.83,-52.86 -183.91,-74.58 -20.54,-7.29 -36.53,19.94 -18.34,34.33 1.72,1.24 3.23,2.05 5.22,2.78 61.84,23.19 120.54,45.97 180.81,73.34zm-292.07 -109.87c11.95,3.47 24.01,-4.61 25.22,-17.05 0.89,-9.24 -5.03,-18.08 -13.99,-20.69 -59.83,-17.86 -121.1,-33.94 -182.52,-45.42l-11.09 -1.95c-6.56,-1.02 -13.17,1.25 -17.65,6.18 -10.49,11.54 -4,30.19 11.33,32.68 29.18,4.56 58.82,11.68 87.54,18.65 33.99,8.33 67.63,17.57 101.17,27.59z"/>
  <path fill="none" fill-rule="nonzero" stroke="black" stroke-width="3" stroke-linecap="round" stroke-linejoin="round" stroke-miterlimit="2.61313" d="M1447.72 1973.65c0.7,7.49 5.42,13.86 12.44,16.61 13.5,5.3 28.14,-5.58 26.78,-20.06l-1.38 -15.04 -0.99 -9.9c-1.84,-19.65 -29.25,-24.67 -37.72,-5.62 -1.33,3.09 -1.76,6.35 -1.44,9.69l0.96 9.59 1.35 14.72zm-17.88 -140.06c4.13,22.02 35.33,21.58 38.89,-0.46 0.29,-2.17 0.26,-3.99 -0.08,-6.16l-2.92 -16.87 -2.57 -13.98 -2.67 -13.89 -2.77 -13.8 -2.87 -13.7 -2.96 -13.61 -3.07 -13.52 -3.17 -13.43 -3.26 -13.33 -3.36 -13.24 -3.46 -13.15 -3.54 -13.06 -3.64 -12.97 -4.54 -15.57c-6.58,-20.39 -35.59,-17.57 -38.38,3.31 -0.3,2.97 -0.13,5.27 0.71,8.14l4.35 14.93 3.55 12.65 3.46 12.74 3.37 12.82 3.28 12.92 3.19 13.01 3.09 13.1 2.99 13.19 2.9 13.29 2.8 13.38 2.7 13.47 2.61 13.57 2.51 13.66 2.87 16.54zm-81.07 -299.69c8.18,20.44 38.73,14.47 38,-8.27 -0.14,-2.04 -0.54,-4.09 -1.31,-6.02l-3.02 -7.86 -4.69 -11.89 -4.77 -11.8 -4.85 -11.72 -4.93 -11.63 -5.01 -11.55 -5.09 -11.46 -5.16 -11.37 -5.24 -11.28 -5.31 -11.2 -5.39 -11.11 -5.45 -11.02 -5.53 -10.95 -5.6 -10.86 -5.67 -10.77 -7.83 -14.52c-11.22,-19.64 -40.9,-8.44 -36.49,13.61 0.44,1.91 1.06,3.73 2.03,5.43l7.53 13.95 5.52 10.49 5.45 10.57 5.38 10.65 5.31 10.73 5.24 10.82 5.17 10.9 5.1 10.98 5.02 11.07 4.95 11.15 4.87 11.24 4.8 11.33 4.72 11.41 4.64 11.5 4.57 11.58 3.02 7.86zm-141.23 -276.11c11.82,17.73 39.99,6.68 35.61,-15.24 -0.58,-2.39 -1.44,-4.49 -2.8,-6.53l-10.24 -15.39 -6.55 -9.62 -6.61 -9.55 -6.67 -9.46 -6.71 -9.38 -6.77 -9.31 -6.82 -9.23 -6.87 -9.15 -6.92 -9.07 -6.97 -8.99 -7.02 -8.92 -7.07 -8.83 -7.11 -8.76 -7.15 -8.68 -7.2 -8.61 -13.59 -15.89c-5.72,-6.54 -15.31,-8.73 -23.21,-4.93 -11.8,5.48 -15.08,20.95 -6.52,30.74l13.21 15.45 7.02 8.38 13.91 17 13.72 17.29 6.78 8.76 6.74 8.83 6.69 8.91 6.64 8.98 6.59 9.06 6.54 9.14 6.48 9.21 6.43 9.29 6.37 9.37 10.07 15.14zm-196.87 -239.89c14.41,14.41 39.34,-0.4 32.28,-20.87 -1.11,-2.82 -2.47,-4.99 -4.63,-7.15 -47,-46.71 -97.44,-90.54 -149.72,-131.24 -6.48,-4.98 -15.36,-5.5 -22.32,-1.22 -11.71,7.2 -12.67,23.97 -1.76,32.36 51.02,39.69 100.3,82.55 146.16,128.13zm-240.68 -196.67c17.89,11.93 39.44,-9.49 27.1,-27.64 -1.45,-2.02 -3.1,-3.68 -5.17,-5.06 -55.01,-37.14 -111.76,-71.26 -170.24,-102.64 -19.63,-10.16 -38.62,14.4 -23.56,30.9 1.46,1.54 3.22,2.91 5.09,3.87 57.2,30.54 113.04,64.28 166.77,100.56zm-271.43 -152.87c19.81,8.88 37.55,-15.69 22.16,-31.81 -1.83,-1.75 -3.37,-2.83 -5.64,-3.92 -60.03,-27.91 -121.38,-53.06 -183.69,-75.42 -3.79,-1.39 -8.34,-1.53 -12.18,-0.34 -18.3,5.68 -18.9,30.88 -1.04,37.43 61.15,21.89 121.5,46.69 180.39,74.06zm-474.2 -195.18c-20.94,-3.27 -31.69,24.92 -13.13,36.34 2.21,1.31 4.52,2.15 7.06,2.56 65.65,13.13 123.88,26.42 188.7,45.67 21.11,6.13 35.2,-21.81 16.75,-35.1 -1.7,-1.16 -3.57,-2.07 -5.56,-2.65 -51.78,-15.4 -104.16,-29.09 -157.09,-39.97 -12.2,-2.47 -24.44,-4.89 -36.73,-6.85"/>
  <path fill="none" fill-rule="nonzero" stroke="black" stroke-width="3" stroke-linecap="round" stroke-linejoin="round" stroke-miterlimit="2.61313" d="M1336.2 1970.31c0.59,6.34 4.2,12.02 9.74,15.21 13.8,7.96 30.94,-2.97 29.45,-18.87l-1.34 -13.86 -1.45 -13.77 -1.55 -13.68 -1.65 -13.59 -1.75 -13.5 -1.85 -13.42 -1.95 -13.32 -2.04 -13.24 -2.15 -13.15 -2.24 -13.06 -2.34 -12.98 -2.5 -13.24c-3.5,-18.64 -29.74,-21.73 -37.43,-3.79 -1.6,3.73 -1.91,7.6 -1.17,11.56l2.38 12.61 2.28 12.65 2.19 12.74 2.09 12.83 2 12.92 1.91 13.01 1.8 13.09 1.71 13.19 1.61 13.27 1.52 13.37 1.41 13.46 1.32 13.55zm-48.72 -270.23c2.29,7.89 8.93,13.48 17.08,14.27 13.67,1.37 24.64,-11.76 20.82,-24.93l-5.44 -19.27 -3.5 -11.85 -3.58 -11.77 -3.66 -11.69 -3.74 -11.61 -3.82 -11.52 -3.91 -11.44 -3.98 -11.35 -4.06 -11.27 -4.14 -11.19 -4.22 -11.11 -4.29 -11.03 -4.37 -10.94 -4.44 -10.87 -4.52 -10.79 -4.44 -10.34c-3.18,-7.34 -10.61,-12.11 -18.61,-11.85 -13.92,0.46 -23.06,14.7 -17.51,27.51l4.3 10.04 4.38 10.48 4.32 10.56 4.24 10.64 4.17 10.72 4.1 10.8 4.02 10.88 3.95 10.96 3.87 11.05 3.8 11.12 3.72 11.21 3.64 11.29 3.56 11.37 3.48 11.46 3.4 11.54 3.32 11.62 2.03 7.33zm-115.15 -287.64c10.75,18.81 38.98,9.79 36.82,-11.78 -0.35,-2.61 -1.03,-4.77 -2.28,-7.11l-8.12 -14.81 -5.45 -9.68 -5.52 -9.61 -5.57 -9.52 -5.63 -9.45 -5.69 -9.37 -5.74 -9.3 -5.8 -9.22 -5.86 -9.15 -5.91 -9.07 -5.96 -8.99 -6.02 -8.93 -6.06 -8.85 -12.29 -17.48 -6.22 -8.62 -11.78 -15.96c-2.4,-3.29 -6.28,-5.99 -10.2,-7.07 -18.37,-5.07 -32.47,15.4 -21.29,30.7l11.42 15.47 12.03 16.83 11.83 17.11 5.84 8.67 11.53 17.55 5.69 8.88 5.63 8.95 5.57 9.02 5.52 9.1 5.47 9.18 5.41 9.25 5.35 9.32 5.29 9.4 7.96 14.52zm-178.2 -253.28c11.84,12.92 33.12,5.46 34.28,-12.01 0.18,-5.35 -1.35,-10.33 -5.02,-14.32 -44.32,-49.64 -91.96,-96.11 -142.56,-139.34 -16.59,-13.94 -40.7,5.2 -29.69,25.03 1.17,1.91 2.49,3.54 4.2,4.98 49.28,42.17 95.57,87.28 138.77,135.66zm-230.24 -208.07c17.54,12.81 40.09,-8.33 28.01,-26.8 -1.32,-1.95 -2.85,-3.57 -4.75,-4.96 -54.78,-40 -108.84,-73.79 -167.22,-108.06 -17.72,-10.12 -37.8,10.78 -25.72,28.54 1.77,2.45 3.8,4.29 6.42,5.78 56.58,32.33 110.63,67.07 163.27,105.5zm-266.65 -159.99c19.32,9.33 37.75,-14.96 22.95,-31.17 -1.72,-1.8 -3.59,-3.2 -5.82,-4.28 -59.82,-29.05 -120.42,-54.83 -182.77,-77.94 -20.22,-7.41 -36.43,18.8 -19.34,33.65 1.82,1.44 3.56,2.49 5.76,3.3 61.09,22.58 120.63,47.99 179.22,76.44zm-290.06 -113.69c21.64,6.28 35.71,-22.73 15.9,-35.68 -1.52,-0.85 -2.83,-1.52 -4.53,-2.01 -52.71,-15.92 -106.13,-29.96 -160.13,-40.81 -11.13,-2.22 -22.6,-4.52 -33.83,-6.16 -20.04,-3.13 -31.35,23.25 -14.17,35.62 2.59,1.76 5.16,2.8 8.24,3.3 5.59,0.83 11.15,1.87 16.79,2.9 57.91,10.83 115.36,25.81 171.72,42.84z"/>
  <path fill="none" fill-rule="nonzero" stroke="black" stroke-width="3" stroke-linecap="round" stroke-linejoin="round" stroke-miterlimit="2.61313" d="M1206.71 1876.4c4.02,21.43 35.1,21.79 38.88,-0.88 0.26,-2.03 0.23,-4.15 -0.15,-6.16l-2.11 -11.83 -2.26 -12.17 -2.35 -12.09 -2.43 -12 -2.52 -11.92 -2.59 -11.84 -2.67 -11.75 -2.75 -11.68 -2.83 -11.59 -2.91 -11.51 -2.99 -11.42 -3.06 -11.34 -3.14 -11.26 -3.21 -11.18 -3.29 -11.1 -3.37 -11.02 -2.49 -7.91c-6.61,-20.5 -36.99,-17.18 -38.43,5.14 -0.08,2.34 0.2,4.59 0.92,6.81l5.67 18.33 3.2 10.78 3.13 10.87 3.06 10.96 2.98 11.04 2.91 11.11 2.83 11.2 2.76 11.28 2.68 11.36 2.6 11.45 2.53 11.53 2.44 11.61 2.37 11.7 2.29 11.78 2.2 11.87 2.11 11.83zm-85.59 -297.96c9.09,20.98 40.59,12.52 37.62,-10.51 -0.29,-1.76 -0.67,-3.1 -1.34,-4.77l-6.54 -15.47 -4.31 -9.91 -4.38 -9.83 -4.44 -9.76 -4.5 -9.68 -4.56 -9.6 -4.62 -9.53 -4.68 -9.45 -4.74 -9.38 -4.8 -9.3 -4.85 -9.23 -4.91 -9.15 -4.96 -9.08 -5.02 -9.01 -10.2 -17.79c-4.3,-7.29 -8.61,-14.56 -13.02,-21.78 -4.8,-7.63 -13.83,-11.11 -22.46,-8.52 -12.44,3.73 -17.73,18.19 -11.06,29.17l7.53 12.46 5.02 8.51 4.96 8.58 4.92 8.66 4.86 8.72 4.81 8.8 4.76 8.87 4.7 8.94 4.65 9.02 4.59 9.09 9.03 18.41 4.42 9.31 4.37 9.4 4.31 9.46 4.25 9.54 4.19 9.61 6.41 15.18zm-152.97 -268.82c13.62,17.7 41.67,3.02 34.18,-18.7 -0.71,-1.87 -1.56,-3.37 -2.73,-4.98l-8.24 -10.91c-38.34,-49.67 -78.65,-95.2 -123.39,-139.19 -13.67,-13.67 -37.41,-0.66 -32.93,18.54 0.75,3.63 2.82,7.03 5.42,9.63 46.25,45.51 88.83,93.63 127.69,145.61zm-214.3 -223.2c17.35,13.88 41.35,-6.99 28.54,-26.58 -1.07,-1.49 -2.28,-2.83 -3.71,-3.98 -51.8,-42.36 -105.5,-80.31 -162.39,-115.5 -7.39,-4.49 -16.46,-3.74 -23.08,1.78 -10.18,8.85 -8.94,24.58 2.46,31.76 55.43,34.25 107.73,71.26 158.18,112.52zm-259.67 -169.8c5.57,2.88 12.04,2.84 17.65,0.14 14.53,-7.26 14.67,-27.74 0.28,-35.19 -59.19,-30.42 -119.61,-57.28 -181.89,-80.73 -16.39,-6.01 -31.8,10.28 -24.85,26.49 2.33,4.85 5.93,8.5 11.07,10.38 60.87,22.93 119.91,49.18 177.75,78.91zm-288.35 -116.32c21.62,6.28 35.52,-22.84 16,-35.6 -1.53,-0.91 -3.02,-1.63 -4.74,-2.13 -61.3,-18.37 -125.07,-34.32 -188.4,-44.12l-6.35 -0.9c-20.9,-2.61 -30.89,25.17 -12.6,36.43 2.37,1.37 4.76,2.25 7.48,2.61 4.98,0.6 10.01,1.43 15.02,2.28 58.46,9.77 116.86,24.42 173.59,41.43z"/>
  <path fill="none" fill-rule="nonzero" stroke="black" stroke-width="3" stroke-linecap="round" stroke-linejoin="round" stroke-miterlimit="2.61313" d="M1092.3 1978.2c1.89,20.11 28.68,24.96 37.48,6.67 1.38,-3.21 2.08,-6.34 1.75,-9.87l-0.97 -11.35 -1.06 -11.27 -1.14 -11.2 -1.22 -11.13 -1.31 -11.06 -1.39 -10.99 -1.48 -10.92 -1.56 -10.84 -1.64 -10.78 -2.04 -12.54c-4.12,-21.96 -35.33,-21.48 -38.87,0.46 -0.3,2.25 -0.27,4.04 0.08,6.28l1.93 11.9 1.59 10.45 1.51 10.52 1.43 10.59 1.35 10.67 1.27 10.74 1.19 10.81 1.11 10.89 1.03 10.95 0.94 11.02zm-1059.04 -1144.61l-6.91 -1.25c-22.56,-3.52 -32.27,27.64 -11.19,37.43 1.51,0.65 3.09,1.15 4.71,1.41 24.03,4.81 47.63,9.81 71.39,15.92 38.95,10.01 77.35,21.63 115.43,34.57 19.81,6.39 34.56,-17.57 20.52,-32.28 -2.26,-2.26 -4.82,-4.02 -7.88,-5 -60.41,-20.52 -123.34,-38.72 -186.08,-50.79zm1021.17 922.44c6.27,21.59 37.19,18.01 38.66,-4.06 0.07,-2.29 -0.09,-4.04 -0.66,-6.24l-3.78 -13.84 -2.78 -9.74 -2.84 -9.67 -2.92 -9.62 -2.98 -9.54 -3.05 -9.47 -3.12 -9.41 -3.19 -9.34 -3.25 -9.28 -3.32 -9.21 -3.38 -9.15 -3.44 -9.08 -3.51 -9.01 -7.2 -17.83 -7.44 -17.57c-3.87,-8.83 -7.76,-17.69 -11.87,-26.41 -4.27,-8.85 -14.01,-13.15 -23.42,-10.43 -11.48,3.44 -17.38,16.47 -12.15,27.3 3.89,8.34 7.61,16.78 11.31,25.2l7.19 16.96c3.52,8.62 6.96,17.24 10.34,25.92l3.33 8.76 3.26 8.83 3.2 8.89 6.22 17.99 3.01 9.09 5.84 18.39 2.81 9.28 5.43 18.78 3.69 13.52zm-120.06 -283.99c4.46,7.34 13.46,10.98 21.73,8.77 12.84,-3.43 18.71,-18.01 11.83,-29.34 -34.78,-57.29 -73.89,-111.05 -118.09,-161.46 -16.01,-17.46 -43.24,2.28 -31.81,22.87 0.7,1.19 1.42,2.19 2.33,3.24 42.48,48.02 80.74,101.15 114,155.93zm-194.76 -239.45c16.43,15.06 41.57,-4.26 30.41,-24.36 -1.02,-1.67 -2.11,-3.1 -3.56,-4.43 -48.87,-45.93 -100.69,-86.74 -155.72,-124.98 -17.76,-11.83 -38.84,8.72 -27.81,26.65 1.5,2.34 3.33,4.35 5.65,5.89 50.65,32.77 107,79.85 151.02,121.22zm-249.63 -183.29c18.43,10.53 38.9,-11.99 24.79,-29.81 -1.57,-1.81 -3.22,-3.21 -5.29,-4.39 -57.8,-33.15 -117.15,-62.33 -178.51,-88.26 -21.3,-8.52 -37.68,19.45 -19.48,33.85 1.36,1.03 2.74,1.79 4.3,2.47 59.94,25.41 117.69,53.73 174.19,86.13z"/>
  <path fill="none" fill-rule="nonzero" stroke="black" stroke-width="3" stroke-linecap="round" stroke-linejoin="round" stroke-miterlimit="2.61313" d="M972.98 1928.48c1.05,6.69 4.78,11.79 10.77,14.9 14.36,6.91 30.19,-4.59 28.21,-20.4l-2.52 -17.8 -1.44 -9.29 -3.09 -18.41 -1.65 -9.12 -3.52 -18.08 -1.87 -8.96 -3.94 -17.75 -2.07 -8.8c-4.97,-20.28 -10.35,-40.08 -16.35,-60.09 -2.79,-8.98 -5.61,-17.95 -8.62,-26.86 -7.74,-21.81 -40.48,-15.16 -38.15,8.89 0.23,1.42 0.46,2.49 0.91,3.88 11.2,32.85 20.19,66.51 27.85,100.35 3.78,17.42 7.13,34.67 10.16,52.23 1.92,11.77 3.69,23.48 5.3,35.3zm-86.62 -295.19c9.33,19.33 38.83,11.82 37.37,-10.09 -0.25,-2.51 -0.78,-4.67 -1.89,-6.98 -28.81,-60.5 -63.46,-117.83 -103.42,-171.61 -11.16,-15.27 -36.06,-6.7 -35.43,12.2 0,4.1 1.53,8.13 3.93,11.41 38.43,51.65 71.76,106.95 99.44,165.07zm-173.5 -254.22c2.95,3.22 6.98,5.27 11.26,5.98 18.8,2.59 30.12,-19.11 17.48,-32.89 -45.8,-49.24 -94.39,-93.41 -147.24,-134.96 -17.7,-13.61 -40.94,8.12 -28.24,26.8 1.24,1.73 2.41,2.96 4.08,4.29 51.07,39.89 98.54,83.33 142.67,130.78zm-237.37 -198.56c16.46,10.97 37.76,-7.17 27.97,-26.05 -1.69,-2.93 -3.63,-5.04 -6.44,-6.91 -55.47,-36.33 -113.68,-69.18 -173.27,-98.25 -19,-9.17 -37.85,14.07 -22.96,31.19 1.67,1.75 3.56,3.17 5.73,4.21 58.24,28.56 114.71,60.27 168.98,95.82zm-275.58 -143.38c20.02,8.01 36.7,-17.48 20.77,-32.69 -1.78,-1.63 -3.77,-2.91 -6,-3.81 -57.47,-23.36 -117.46,-44.22 -177.52,-60.02 -4.03,-1.03 -8.07,-2.07 -12.12,-3.01 -21.43,-4.69 -33.5,23.68 -14.89,35.85 1.9,1.17 3.94,2.06 6.13,2.54l6.4 1.56c59.91,15.27 119.46,36.36 176.75,59.38l0.48 0.2z"/>
  <path fill="none" fill-rule="nonzero" stroke="black" stroke-width="3" stroke-linecap="round" stroke-linejoin="round" stroke-miterlimit="2.61313" d="M868.98 1983.92c2.37,18.92 28.09,23.69 37.08,6.35 1.8,-3.74 2.48,-7.31 1.96,-11.46 -3.03,-22.43 -6.58,-44.39 -10.86,-66.62 -1.2,-6.39 -5.86,-12.06 -11.89,-14.43 -14.69,-5.77 -29.64,6.58 -26.74,22.04 4.13,21.37 7.55,42.54 10.45,64.11zm-39.45 -176.05c2.78,8.61 11.46,14.38 20.46,13.48 12.68,-1.23 20.86,-13.64 16.95,-25.74 -20.52,-63.52 -48.28,-125.53 -81.78,-183.26 -1.85,-3.23 -4.91,-6.08 -8.25,-7.69 -17.61,-8.48 -35.42,10.61 -25.71,27.6 32.09,55.23 58.69,114.83 78.33,175.61zm-142.44 -271.8c2.69,3.5 6.55,6.08 10.84,7.12 18.21,4.4 31.67,-16.43 20.4,-31.07 -40.56,-53.3 -86.18,-102.27 -136.06,-146.95 -15.09,-13.2 -38.01,1.48 -31.65,21.28 1.27,3.35 2.82,5.7 5.47,8.13 48.01,42.96 91.98,90.23 131,141.5zm-221.32 -214.44c16.85,12.31 39.36,-7.13 28.41,-26.13 -1.42,-2.3 -3.11,-4.15 -5.3,-5.75 -53.81,-39.21 -110.84,-74.04 -169.88,-104.79 -7.79,-4.03 -16.98,-2.45 -23.14,3.72 -9.15,9.58 -6.78,25.13 5.02,31.24 57.37,29.94 112.57,63.59 164.89,101.71zm-270.33 -151.13c20.83,8.33 37.28,-18.44 20.22,-33.27 -1.59,-1.32 -3.18,-2.25 -5.06,-3.07 -57.33,-24 -112.06,-44.36 -172.42,-59.59 -3.83,-0.96 -7.77,-1.98 -11.63,-2.78 -20.61,-4.51 -30.32,22.69 -12.76,35.34 2.25,1.53 1.69,2.53 4.35,3.12 6.44,1.21 13.65,3.28 20.07,4.99 55.37,14.77 104.41,33.15 157.22,55.26z"/>
  <path fill="none" fill-rule="nonzero" stroke="black" stroke-width="3" stroke-linecap="round" stroke-linejoin="round" stroke-miterlimit="2.61313" d="M742.47 1979.04c2.14,11.42 13.17,18.52 24.41,15.62 9.8,-2.53 16.23,-12.51 14.37,-22.45 -10.31,-57.26 -24.84,-112.75 -45.3,-167.25 -6.54,-16.34 -28.65,-17.08 -36.31,-1.19 -2.17,5.07 -2.41,9.95 -0.5,15.17 19.61,52.13 33.44,105.33 43.33,160.1zm-91.07 -265.13c8.75,15.31 30.75,13.07 36.14,-3.7 1.45,-5.27 1.07,-10.22 -1.55,-15.1 -31.77,-58.98 -71,-114.43 -115.46,-164.52 -15.5,-16.91 -42.48,1.52 -32.13,22.22 0.74,1.43 1.73,2.89 2.82,4.07 42.24,47.25 80.13,101.25 110.18,157.04zm-192.39 -238.27c6.83,5.97 17.03,6.43 24.37,1.13 10.35,-7.45 11,-22.49 1.43,-30.87 -50.33,-43.87 -105.59,-82.56 -163.4,-115.92 -5.89,-3.37 -13.28,-3.53 -19.22,-0.22 -13.5,7.27 -13.67,26.78 -0.4,34.36 55.77,32.33 108.59,69.13 157.21,111.52z"/>
  <path fill="none" fill-rule="nonzero" stroke="black" stroke-width="3" stroke-linecap="round" stroke-linejoin="round" stroke-miterlimit="2.61313" d="M620.73 1882.42c7.97,19.93 36.71,15.2 38.08,-5.97 0.09,-2.89 -0.26,-5.24 -1.25,-7.95 -23.25,-62.33 -54.82,-123.84 -92.69,-178.57 -12.2,-16.69 -37.75,-6.8 -35.72,13.54 0.46,3.46 1.46,6.04 3.39,8.94 36.05,52.11 66.06,110.69 88.19,170.02zm-160.43 -259.62c14.02,14.65 38.17,1.35 33.46,-18.17 -0.94,-3.53 -2.32,-6.11 -4.79,-8.81 -44.52,-48.39 -99.65,-92.75 -154.84,-128.44 -18.17,-11.44 -38.88,10.05 -26.82,27.78 1.64,2.28 3.21,3.79 5.54,5.34 52.43,33.81 105.2,76.37 147.44,122.29zm-248.42 -178c16.04,7.19 32.66,-8.1 26.8,-24.52 -2.04,-5.2 -5.16,-8.74 -10.24,-11.19 -56.5,-26.27 -117.81,-48.31 -178.96,-61.04 -3.95,-0.79 -9.4,-1.84 -12.65,-2.36 -20.42,-3.19 -31.7,23.75 -13.67,36.01 2.4,1.48 4.67,2.4 7.44,2.86l0.41 0.06c6.9,1.15 13.83,2.63 20.66,4.18 55.05,12.64 109.07,32.21 160.23,56zm-181.02 -60.2l0.13 0.02 -0.13 -0.02z"/>
  <path fill="none" fill-rule="nonzero" stroke="black" stroke-width="3" stroke-linecap="round" stroke-linejoin="round" stroke-miterlimit="2.61313" d="M539.38 1979.19c6.2,19.22 34.69,17.59 38.17,-3.26 0.43,-3.2 0.21,-5.99 -0.78,-9.07 -13.97,-42 -25.75,-68.63 -45.73,-108.14 -9.8,-18.95 -38.61,-11.15 -37.17,10.57 0.25,2.56 0.88,4.98 2.08,7.29 19.08,37.78 30.06,62.46 43.43,102.61zm-103.31 -200.57c12.46,17.05 39.98,5.01 34.96,-16.52 -0.7,-2.54 -1.64,-4.63 -3.19,-6.74 -39.75,-54.61 -87.43,-103.51 -141.33,-144.24 -14.18,-10.36 -33.62,1.11 -31.31,18.43 0.91,5.3 3.26,9.84 7.7,13.08 51.06,38.85 95.41,84.11 133.18,136zm-230.28 -196.68c20.61,9.95 38.61,-16.41 22.32,-31.96 -1.45,-1.32 -2.83,-2.28 -4.56,-3.18 -56.12,-28.41 -119.43,-50.96 -181.78,-60.91 -3.8,-0.57 -7.68,-1.16 -11.49,-1.53l0.24 0.03 -0.38 -0.04c-21.29,-2 -30.31,27.02 -10.57,37.26 2.11,1.02 4.24,1.65 6.55,1.9l0.5 0.06c7.2,0.8 14.42,2.05 21.55,3.38 54.19,10.3 108.54,30.15 157.63,55zm-179.28 -58.39l0.11 0.01 -0.11 -0.01z"/>
  <path fill="none" fill-rule="nonzero" stroke="black" stroke-width="3" stroke-linecap="round" stroke-linejoin="round" stroke-miterlimit="2.61313" d="M401.65 1931.46c9.85,18.39 38.38,10.54 36.95,-10.87 -0.28,-2.87 -0.93,-5.26 -2.31,-7.83 -32.74,-61.13 -75.28,-112.68 -127.9,-157.68 -6.69,-5.62 -16.2,-6.17 -23.49,-1.4 -10.99,7.19 -11.9,23.08 -1.87,31.51 48.73,41.56 88.35,89.76 118.63,146.28z"/>
  <path fill="none" fill-rule="nonzero" stroke="black" stroke-width="3" stroke-linecap="round" stroke-linejoin="round" stroke-miterlimit="2.61313" d="M308.98 1989.34c8.56,19.1 37.63,13.21 37.63,-8.34 -0.1,-2.94 -0.57,-5.14 -1.75,-7.86 -8.38,-18.43 -17.85,-35.35 -29.09,-52.17 -2.39,-3.59 -6.12,-6.33 -10.2,-7.64 -17.98,-5.58 -32.75,14.2 -22.33,29.81 9.91,14.54 18.46,30.19 25.75,46.19z"/>
  <path fill="none" fill-rule="nonzero" stroke="black" stroke-width="3" stroke-linecap="round" stroke-linejoin="round" stroke-miterlimit="2.61313" d="M1968.59 45.99c17.44,0 26.28,-21.24 14,-33.52 -3.96,-3.78 -8.48,-5.85 -14,-5.85l-88.5 0c-17.44,0 -26.28,21.24 -14,33.52 3.96,3.78 8.48,5.85 14,5.85l88.5 0zm-206.61 0c17.44,0 26.28,-21.24 14,-33.52 -3.96,-3.78 -8.48,-5.85 -14,-5.85l-196.85 0c-17.44,0 -26.28,21.24 -14,33.52 3.96,3.78 8.48,5.85 14,5.85l196.85 0zm-314.96 0c17.44,0 26.28,-21.24 14,-33.52 -3.96,-3.78 -8.48,-5.85 -14,-5.85l-196.85 0c-17.44,0 -26.28,21.24 -14,33.52 3.96,3.78 8.48,5.85 14,5.85l196.85 0zm-314.96 0c17.44,0 26.28,-21.24 14,-33.52 -3.96,-3.78 -8.48,-5.85 -14,-5.85l-196.85 0c-17.44,0 -26.28,21.24 -14,33.52 3.96,3.78 8.48,5.85 14,5.85l196.85 0zm-314.96 0c17.44,0 26.28,-21.24 14,-33.52 -3.96,-3.78 -8.48,-5.85 -14,-5.85l-196.85 0c-17.44,0 -26.28,21.24 -14,33.52 3.96,3.78 8.48,5.85 14,5.85l196.85 0z"/>
  <path fill="none" fill-rule="nonzero" stroke="black" stroke-width="3" stroke-linecap="round" stroke-linejoin="round" stroke-miterlimit="2.61313" d="M1970.34 140.12c17.44,0 26.28,-21.24 14,-33.52 -3.96,-3.78 -8.48,-5.85 -14,-5.85l-152.4 0c-17.44,0 -26.28,21.24 -14,33.52 3.96,3.78 8.48,5.85 14,5.85l152.4 0zm-270.51 0c17.44,0 26.28,-21.24 14,-33.52 -3.96,-3.78 -8.48,-5.85 -14,-5.85l-196.85 0c-17.44,0 -26.28,21.24 -14,33.52 3.96,3.78 8.48,5.85 14,5.85l196.85 0zm-314.96 0c17.44,0 26.28,-21.24 14,-33.52 -3.96,-3.78 -8.48,-5.85 -14,-5.85l-196.85 0c-17.44,0 -26.28,21.24 -14,33.52 3.96,3.78 8.48,5.85 14,5.85l196.85 0zm-314.96 0c17.44,0 26.28,-21.24 14,-33.52 -3.96,-3.78 -8.48,-5.85 -14,-5.85l-196.85 0c-17.44,0 -26.28,21.24 -14,33.52 3.96,3.78 8.48,5.85 14,5.85l196.85 0z"/>
  <path fill="none" fill-rule="nonzero" stroke="black" stroke-width="3" stroke-linecap="round" stroke-linejoin="round" stroke-miterlimit="2.61313" d="M1861.08 228.3c17.44,0 26.28,-21.24 14,-33.52 -3.96,-3.78 -8.48,-5.85 -14,-5.85l-196.85 0c-17.44,0 -26.28,21.24 -14,33.52 3.96,3.78 8.48,5.85 14,5.85l196.85 0zm-314.96 0c17.44,0 26.28,-21.24 14,-33.52 -3.96,-3.78 -8.48,-5.85 -14,-5.85l-196.85 0c-17.44,0 -26.28,21.24 -14,33.52 3.96,3.78 8.48,5.85 14,5.85l196.85 0zm-314.96 0c17.44,0 26.28,-21.24 14,-33.52 -3.96,-3.78 -8.48,-5.85 -14,-5.85l-196.85 0c-17.44,0 -26.28,21.24 -14,33.52 3.96,3.78 8.48,5.85 14,5.85l196.85 0z"/>
  <path fill="none" fill-rule="nonzero" stroke="black" stroke-width="3" stroke-linecap="round" stroke-linejoin="round" stroke-miterlimit="2.61313" d="M1980.43 322.11c17.44,0 26.28,-21.24 14,-33.52 -3.96,-3.78 -8.48,-5.85 -14,-5.85l-165.95 0c-17.44,0 -26.28,21.24 -14,33.52 3.96,3.78 8.48,5.85 14,5.85l165.95 0zm-284.06 0c17.44,0 26.28,-21.24 14,-33.52 -3.96,-3.78 -8.48,-5.85 -14,-5.85l-196.85 0c-17.44,0 -26.28,21.24 -14,33.52 3.96,3.78 8.48,5.85 14,5.85l196.85 0zm-314.96 0c17.44,0 26.28,-21.24 14,-33.52 -3.96,-3.78 -8.48,-5.85 -14,-5.85l-196.85 0c-17.44,0 -26.28,21.24 -14,33.52 3.96,3.78 8.48,5.85 14,5.85l196.85 0z"/>
  <path fill="none" fill-rule="nonzero" stroke="black" stroke-width="3" stroke-linecap="round" stroke-linejoin="round" stroke-miterlimit="2.61313" d="M1973.36 415.6c17.44,0 26.28,-21.24 14,-33.52 -3.96,-3.78 -8.48,-5.85 -14,-5.85l-43.99 0c-17.44,0 -26.28,21.24 -14,33.52 3.96,3.78 8.48,5.85 14,5.85l43.99 0zm-162.1 0c17.44,0 26.28,-21.24 14,-33.52 -3.96,-3.78 -8.48,-5.85 -14,-5.85l-196.85 0c-17.44,0 -26.28,21.24 -14,33.52 3.96,3.78 8.48,5.85 14,5.85l196.85 0zm-314.96 0c17.44,0 26.28,-21.24 14,-33.52 -3.96,-3.78 -8.48,-5.85 -14,-5.85l-196.85 0c-17.44,0 -26.28,21.24 -14,33.52 3.96,3.78 8.48,5.85 14,5.85l196.85 0z"/>
  <path fill="none" fill-rule="nonzero" stroke="black" stroke-width="3" stroke-linecap="round" stroke-linejoin="round" stroke-miterlimit="2.61313" d="M1922.54 513.99c21.18,0 27.48,-29.33 7.54,-37.87 -2.52,-0.99 -4.83,-1.5 -7.55,-1.5l-196.85 0.08c-21.18,0 -27.48,29.33 -7.54,37.87 2.52,0.99 4.83,1.5 7.55,1.5l196.85 -0.08zm-314.96 0.13c21.18,0 27.48,-29.33 7.54,-37.87 -2.52,-0.99 -4.83,-1.5 -7.55,-1.5l-196.85 0.08c-21.18,0 -27.48,29.33 -7.54,37.87 2.52,0.99 4.83,1.5 7.55,1.5l196.85 -0.08z"/>
  <path fill="none" fill-rule="nonzero" stroke="black" stroke-width="3" stroke-linecap="round" stroke-linejoin="round" stroke-miterlimit="2.61313" d="M1981.16 607.43c21.18,0 27.48,-29.33 7.54,-37.87 -2.52,-0.99 -4.83,-1.5 -7.55,-1.5l-171.19 0.07c-21.18,0 -27.48,29.33 -7.54,37.87 2.52,0.99 4.83,1.5 7.55,1.5l171.19 -0.07zm-289.3 0.11c21.18,0 27.48,-29.33 7.54,-37.87 -2.52,-0.99 -4.83,-1.5 -7.55,-1.5l-196.85 0.07c-21.18,0 -27.48,29.33 -7.54,37.87 2.52,0.99 4.83,1.5 7.55,1.5l196.85 -0.07z"/>
  <path fill="none" fill-rule="nonzero" stroke="black" stroke-width="3" stroke-linecap="round" stroke-linejoin="round" stroke-miterlimit="2.61313" d="M1980.31 705.46c21.18,0 27.48,-29.33 7.54,-37.87 -2.52,-0.99 -4.83,-1.5 -7.55,-1.5l-80.99 0.04c-21.18,0 -27.48,29.33 -7.54,37.87 2.52,0.99 4.83,1.5 7.55,1.5l80.99 -0.04zm-199.1 0.08c21.18,0 27.48,-29.33 7.54,-37.87 -2.52,-0.99 -4.83,-1.5 -7.55,-1.5l-196.85 0.07c-21.18,0 -27.48,29.33 -7.54,37.87 2.52,0.99 4.83,1.5 7.55,1.5l196.85 -0.07z"/>
  <path fill="none" fill-rule="nonzero" stroke="black" stroke-width="3" stroke-linecap="round" stroke-linejoin="round" stroke-miterlimit="2.61313" d="M1901.76 802.72c21.17,0 27.49,-29.32 7.53,-37.87 -2.52,-0.99 -4.83,-1.5 -7.55,-1.5l-196.85 0.1c-7.06,0 -13.53,3.76 -17.07,9.9 -7.54,13.07 2.04,29.47 17.09,29.47l196.85 -0.1z"/>
  <path fill="none" fill-rule="nonzero" stroke="black" stroke-width="3" stroke-linecap="round" stroke-linejoin="round" stroke-miterlimit="2.61313" d="M1787.27 872.66c-21.56,0 -27.7,30.24 -6.56,38.26 2.14,0.74 4.28,1.11 6.54,1.11l196.85 0.1c21.56,0 27.7,-30.24 6.56,-38.26 -2.14,-0.74 -4.28,-1.11 -6.54,-1.11l-196.85 -0.1z"/>
  <path fill="none" fill-rule="nonzero" stroke="black" stroke-width="3" stroke-linecap="round" stroke-linejoin="round" stroke-miterlimit="2.61313" d="M1978.13 1032.47c21.64,0 27.69,-30.26 6.63,-38.24 -2.14,-0.74 -4.28,-1.13 -6.54,-1.13l-157.63 -0.34c-21.64,0 -27.69,30.26 -6.63,38.24 2.14,0.74 4.28,1.13 6.54,1.13l157.63 0.34z"/>
  <path fill="none" fill-rule="nonzero" stroke="black" stroke-width="3" stroke-linecap="round" stroke-linejoin="round" stroke-miterlimit="2.61313" d="M1979.21 1145.63c21.42,0 27.89,-29.89 6.63,-38.24 -2.14,-0.74 -4.28,-1.13 -6.54,-1.13l-118.93 -0.29c-21.42,0 -27.89,29.89 -6.63,38.24 2.14,0.74 4.28,1.13 6.54,1.13l118.93 0.29z"/>
  <path fill="none" fill-rule="nonzero" stroke="black" stroke-width="3" stroke-linecap="round" stroke-linejoin="round" stroke-miterlimit="2.61313" d="M1983.32 1249.26c21.42,0 27.89,-29.89 6.63,-38.24 -2.14,-0.74 -4.28,-1.13 -6.54,-1.13l-71.94 -0.17c-21.42,0 -27.89,29.89 -6.63,38.24 2.14,0.74 4.28,1.13 6.54,1.13l71.94 0.17z"/>
  <path fill="none" fill-rule="nonzero" stroke="black" stroke-width="3" stroke-linecap="round" stroke-linejoin="round" stroke-miterlimit="2.61313" d="M1984.37 1349.4c21.7,0 27.68,-30.27 6.68,-38.24 -2.15,-0.74 -4.27,-1.13 -6.54,-1.13l-35.88 -0.13c-21.7,0 -27.68,30.27 -6.68,38.24 2.15,0.74 4.27,1.13 6.54,1.13l35.88 0.13z"/>
  <path fill="none" fill-rule="nonzero" stroke="black" stroke-width="3" stroke-linecap="round" stroke-linejoin="round" stroke-miterlimit="2.61313" d="M212.09 1732.24c17.61,11.2 38.61,-9.63 26.87,-27.6 -1.65,-2.37 -3.39,-4.13 -5.85,-5.69 -58.52,-37.22 -120.87,-61.28 -188.8,-74.69 -8.59,-1.61 -17.14,2.57 -21.16,10.3 -6.06,11.65 0.95,25.95 13.82,28.37 62.85,12.33 121.02,34.89 175.12,69.31z"/>
  <path fill="none" fill-rule="nonzero" stroke="black" stroke-width="3" stroke-linecap="round" stroke-linejoin="round" stroke-miterlimit="2.61313" d="M198 1861.16c15.99,13.41 39.54,-4.49 30.25,-23.84 -1.33,-2.56 -2.82,-4.54 -5.06,-6.41 -53.13,-44.56 -111.8,-76.58 -177.38,-98.78 -8.3,-2.72 -17.33,0.3 -22.33,7.44 -7.53,10.76 -2.46,25.85 9.98,29.94 60.69,20.45 115.4,50.44 164.53,91.65z"/>
  <path fill="none" fill-rule="nonzero" stroke="black" stroke-width="3" stroke-linecap="round" stroke-linejoin="round" stroke-miterlimit="2.61313" d="M207.98 1313.85c8.24,3.8 18.15,1.35 23.7,-5.8 7.82,-10.07 4.19,-24.68 -7.35,-30.01 -60.67,-27.86 -124.62,-49.37 -189.49,-65.03 -6.6,-1.56 -13.73,0.37 -18.5,5.22 -10.9,10.79 -5.54,29.54 9.33,33.07 62.63,15.25 123.7,35.64 182.31,62.56z"/>
  <path fill="none" fill-rule="nonzero" stroke="black" stroke-width="3" stroke-linecap="round" stroke-linejoin="round" stroke-miterlimit="2.61313" d="M163.94 1983.41c12.57,14.12 36.05,1.17 30.25,-17.4 -0.85,-2.48 -1.94,-4.44 -3.69,-6.42 -41.8,-46.93 -90.19,-83.35 -146.08,-111.86 -7.08,-3.54 -15.57,-2.01 -20.99,3.74 -8.17,8.66 -5.6,22.85 5.02,28.16 51.74,26.31 96.85,60.38 135.5,103.78z"/>
  <path fill="none" fill-rule="nonzero" stroke="black" stroke-width="3" stroke-linecap="round" stroke-linejoin="round" stroke-miterlimit="2.61313" d="M222.59 149.6c19.05,5.15 33.13,-18.74 18.81,-33.04 -2.66,-2.55 -5.36,-4.11 -8.91,-5.07 -63.87,-16.67 -128.62,-31.13 -193.55,-43.03 -21.27,-3.57 -32.19,24.16 -13.99,36.05 2.26,1.39 4.35,2.17 6.96,2.69 63.85,11.57 127.9,26.02 190.68,42.4z"/>
 </g>
</svg>
