<?xml version="1.0" encoding="UTF-8"?>
<!DOCTYPE svg PUBLIC "-//W3C//DTD SVG 1.1//EN" "http://www.w3.org/Graphics/SVG/1.1/DTD/svg11.dtd">
<!-- Creator: CorelDRAW 2021 (64-Bit) -->
<svg xmlns="http://www.w3.org/2000/svg" xml:space="preserve" width="2in" height="2in" version="1.1" shape-rendering="geometricPrecision" text-rendering="geometricPrecision" image-rendering="optimizeQuality" fill-rule="evenodd" clip-rule="evenodd"
viewBox="0 0 2000 2000"
 xmlns:xlink="http://www.w3.org/1999/xlink"
 xmlns:xodm="http://www.corel.com/coreldraw/odm/2003">
 <g id="Layer_x0020_1">
  <metadata id="CorelCorpID_0Corel-Layer"/>
  <g id="_2116738248928">
   <path fill="none" stroke="black" stroke-width="6.94" stroke-linecap="round" stroke-linejoin="round" stroke-miterlimit="2.61313" d="M325.94 960.63l148.83 -257.78 148.83 -257.78 148.83 257.78 148.83 257.78 -297.66 0 -297.66 -0z"/>
   <path fill="none" stroke="black" stroke-width="6.94" stroke-linecap="round" stroke-linejoin="round" stroke-miterlimit="2.61313" d="M1078.74 960.63l148.83 -257.78 148.83 -257.78 148.83 257.78 148.83 257.78 -297.66 0 -297.66 -0z"/>
   <path fill="none" stroke="black" stroke-width="6.94" stroke-linecap="round" stroke-linejoin="round" stroke-miterlimit="2.61313" d="M1297.66 445.07l-148.83 257.78 -148.83 257.78 -148.83 -257.78 -148.83 -257.78 297.66 0 297.66 0z"/>
   <path fill="none" stroke="black" stroke-width="6.94" stroke-linecap="round" stroke-linejoin="round" stroke-miterlimit="2.61313" d="M247.2 445.07l297.66 0 -148.83 257.78 -148.83 257.78"/>
   <path fill="none" stroke="black" stroke-width="6.94" stroke-linecap="round" stroke-linejoin="round" stroke-miterlimit="2.61313" d="M1752.8 445.06l-297.66 0 148.83 257.78 148.83 257.78"/>
   <path fill="none" stroke="black" stroke-width="6.94" stroke-linecap="round" stroke-linejoin="round" stroke-miterlimit="2.61313" d="M1674.06 1039.37l-148.83 257.78 -148.83 257.78 -148.83 -257.78 -148.83 -257.78 297.66 0 297.66 0z"/>
   <path fill="none" stroke="black" stroke-width="6.94" stroke-linecap="round" stroke-linejoin="round" stroke-miterlimit="2.61313" d="M921.26 1039.37l-148.83 257.78 -148.83 257.78 -148.83 -257.78 -148.83 -257.78 297.66 0 297.66 0z"/>
   <path fill="none" stroke="black" stroke-width="6.94" stroke-linecap="round" stroke-linejoin="round" stroke-miterlimit="2.61313" d="M702.34 1554.93l148.83 -257.78 148.83 -257.78 148.83 257.78 148.83 257.78 -297.66 0 -297.66 -0z"/>
   <path fill="none" stroke="black" stroke-width="6.94" stroke-linecap="round" stroke-linejoin="round" stroke-miterlimit="2.61313" d="M1752.8 1554.93l-297.66 -0 148.83 -257.78 148.83 -257.78"/>
   <path fill="none" stroke="black" stroke-width="6.94" stroke-linecap="round" stroke-linejoin="round" stroke-miterlimit="2.61313" d="M247.2 1554.94l297.66 -0 -148.83 -257.78 -148.83 -257.78"/>
  </g>
 </g>
</svg>
