<?xml version="1.0" encoding="UTF-8"?>
<!DOCTYPE svg PUBLIC "-//W3C//DTD SVG 1.1//EN" "http://www.w3.org/Graphics/SVG/1.1/DTD/svg11.dtd">
<!-- Creator: CorelDRAW 2021 (64-Bit) -->
<svg xmlns="http://www.w3.org/2000/svg" xml:space="preserve" width="2in" height="2in" version="1.1" shape-rendering="geometricPrecision" text-rendering="geometricPrecision" image-rendering="optimizeQuality" fill-rule="evenodd" clip-rule="evenodd"
viewBox="0 0 2000 2000"
 xmlns:xlink="http://www.w3.org/1999/xlink"
 xmlns:xodm="http://www.corel.com/coreldraw/odm/2003">
 <g id="Layer_x0020_1">
  <metadata id="CorelCorpID_0Corel-Layer"/>
  <path fill="none" fill-rule="nonzero" stroke="black" stroke-width="6.94" stroke-linecap="round" stroke-linejoin="round" stroke-miterlimit="2.61313" d="M537.25 841.52c24.41,-71.29 64.83,-135.15 116.97,-187.29 52.07,-52.07 115.83,-92.45 187,-116.87m317.54 -0c71.17,24.42 134.94,64.8 187.01,116.87 52.14,52.14 92.56,116 116.97,187.29m-0.2 317.54c-24.43,71.06 -64.77,134.72 -116.77,186.72 -52.07,52.07 -115.83,92.45 -187.01,116.87m-317.54 -0c-71.17,-24.42 -134.93,-64.8 -187,-116.87 -52,-52 -92.34,-115.66 -116.77,-186.72m651.45 -347.96c-48.33,-48.33 -115.13,-78.23 -188.9,-78.23 -73.78,0 -140.57,29.9 -188.9,78.23 -48.33,48.33 -78.23,115.13 -78.23,188.9 0,73.78 29.9,140.57 78.23,188.9 48.33,48.33 115.13,78.23 188.9,78.23 73.78,0 140.57,-29.9 188.9,-78.23 48.33,-48.33 78.23,-115.13 78.23,-188.9 0,-73.78 -29.9,-140.57 -78.23,-188.9z"/>
 </g>
</svg>
