<?xml version="1.0" encoding="UTF-8"?>
<!DOCTYPE svg PUBLIC "-//W3C//DTD SVG 1.1//EN" "http://www.w3.org/Graphics/SVG/1.1/DTD/svg11.dtd">
<!-- Creator: CorelDRAW 2021 (64-Bit) -->
<svg xmlns="http://www.w3.org/2000/svg" xml:space="preserve" width="2in" height="2in" version="1.1" shape-rendering="geometricPrecision" text-rendering="geometricPrecision" image-rendering="optimizeQuality" fill-rule="evenodd" clip-rule="evenodd"
viewBox="0 0 2000 2000"
 xmlns:xlink="http://www.w3.org/1999/xlink"
 xmlns:xodm="http://www.corel.com/coreldraw/odm/2003">
 <g id="Layer_x0020_1">
  <metadata id="CorelCorpID_0Corel-Layer"/>
  <g id="_2127830490464">
   <g>
    <path fill="none" stroke="black" stroke-width="6.94" stroke-linecap="round" stroke-linejoin="round" stroke-miterlimit="2.61313" d="M226.46 311.29l246.6 246.6 -246.6 246.6"/>
    <path fill="none" stroke="black" stroke-width="6.94" stroke-linecap="round" stroke-linejoin="round" stroke-miterlimit="2.61313" d="M817 213.95l-246.6 246.6 -246.6 -246.6"/>
    <path fill="none" stroke="black" stroke-width="6.94" stroke-linecap="round" stroke-linejoin="round" stroke-miterlimit="2.61313" d="M323.55 901.57l246.6 -246.6 246.6 246.6"/>
    <path fill="none" stroke="black" stroke-width="6.94" stroke-linecap="round" stroke-linejoin="round" stroke-miterlimit="2.61313" d="M914.08 804.24l-246.6 -246.6 246.6 -246.6"/>
   </g>
   <g>
    <path fill="none" stroke="black" stroke-width="6.94" stroke-linecap="round" stroke-linejoin="round" stroke-miterlimit="2.61313" d="M1086.17 311.29l246.6 246.6 -246.6 246.6"/>
    <path fill="none" stroke="black" stroke-width="6.94" stroke-linecap="round" stroke-linejoin="round" stroke-miterlimit="2.61313" d="M1676.7 213.95l-246.6 246.6 -246.6 -246.6"/>
    <path fill="none" stroke="black" stroke-width="6.94" stroke-linecap="round" stroke-linejoin="round" stroke-miterlimit="2.61313" d="M1183.26 901.57l246.6 -246.6 246.6 246.6"/>
    <path fill="none" stroke="black" stroke-width="6.94" stroke-linecap="round" stroke-linejoin="round" stroke-miterlimit="2.61313" d="M1773.79 804.24l-246.6 -246.6 246.6 -246.6"/>
   </g>
   <g>
    <path fill="none" stroke="black" stroke-width="6.94" stroke-linecap="round" stroke-linejoin="round" stroke-miterlimit="2.61313" d="M226.21 1195.76l246.6 246.6 -246.6 246.6"/>
    <path fill="none" stroke="black" stroke-width="6.94" stroke-linecap="round" stroke-linejoin="round" stroke-miterlimit="2.61313" d="M816.75 1098.43l-246.6 246.6 -246.6 -246.6"/>
    <path fill="none" stroke="black" stroke-width="6.94" stroke-linecap="round" stroke-linejoin="round" stroke-miterlimit="2.61313" d="M323.3 1786.05l246.6 -246.6 246.6 246.6"/>
    <path fill="none" stroke="black" stroke-width="6.94" stroke-linecap="round" stroke-linejoin="round" stroke-miterlimit="2.61313" d="M913.83 1688.71l-246.6 -246.6 246.6 -246.6"/>
   </g>
   <g>
    <path fill="none" stroke="black" stroke-width="6.94" stroke-linecap="round" stroke-linejoin="round" stroke-miterlimit="2.61313" d="M1085.92 1195.76l246.6 246.6 -246.6 246.6"/>
    <path fill="none" stroke="black" stroke-width="6.94" stroke-linecap="round" stroke-linejoin="round" stroke-miterlimit="2.61313" d="M1676.46 1098.43l-246.6 246.6 -246.6 -246.6"/>
    <path fill="none" stroke="black" stroke-width="6.94" stroke-linecap="round" stroke-linejoin="round" stroke-miterlimit="2.61313" d="M1183.01 1786.05l246.6 -246.6 246.6 246.6"/>
    <path fill="none" stroke="black" stroke-width="6.94" stroke-linecap="round" stroke-linejoin="round" stroke-miterlimit="2.61313" d="M1773.54 1688.71l-246.6 -246.6 246.6 -246.6"/>
   </g>
  </g>
 </g>
</svg>
