<?xml version="1.0" encoding="UTF-8"?>
<!DOCTYPE svg PUBLIC "-//W3C//DTD SVG 1.1//EN" "http://www.w3.org/Graphics/SVG/1.1/DTD/svg11.dtd">
<!-- Creator: CorelDRAW 2021 (64-Bit) -->
<svg xmlns="http://www.w3.org/2000/svg" xml:space="preserve" width="2in" height="2in" version="1.1" shape-rendering="geometricPrecision" text-rendering="geometricPrecision" image-rendering="optimizeQuality" fill-rule="evenodd" clip-rule="evenodd"
viewBox="0 0 2000 2000"
 xmlns:xlink="http://www.w3.org/1999/xlink"
 xmlns:xodm="http://www.corel.com/coreldraw/odm/2003">
 <g id="Layer_x0020_1">
  <metadata id="CorelCorpID_0Corel-Layer"/>
  <g id="_2288129608048">
   <path fill="none" stroke="black" stroke-width="6.94" stroke-linecap="round" stroke-linejoin="round" stroke-miterlimit="2.61313" d="M199.72 402.9l314.96 0 0 577.41 -314.96 0"/>
   <path fill="none" stroke="black" stroke-width="6.94" stroke-linecap="round" stroke-linejoin="round" stroke-miterlimit="2.61313" d="M534.37 402.9l26.96 0 0 577.41 -26.96 0 0 -577.41z"/>
   <path fill="none" stroke="black" stroke-width="6.94" stroke-linecap="round" stroke-linejoin="round" stroke-miterlimit="2.61313" d="M582.22 402.9l26.96 0 0 577.41 -26.96 0 0 -577.41z"/>
   <path fill="none" stroke="black" stroke-width="6.94" stroke-linecap="round" stroke-linejoin="round" stroke-miterlimit="2.61313" d="M630.97 402.9l26.96 0 0 577.41 -26.96 0 0 -577.41z"/>
   <path fill="none" stroke="black" stroke-width="6.94" stroke-linecap="round" stroke-linejoin="round" stroke-miterlimit="2.61313" d="M677.61 402.9l26.96 0 0 577.41 -26.96 0 0 -577.41z"/>
   <path fill="none" stroke="black" stroke-width="6.94" stroke-linecap="round" stroke-linejoin="round" stroke-miterlimit="2.61313" d="M724.26 402.9l26.96 0 0 577.41 -26.96 0 0 -577.41z"/>
   <path fill="none" stroke="black" stroke-width="6.94" stroke-linecap="round" stroke-linejoin="round" stroke-miterlimit="2.61313" d="M770.9 402.9l26.96 0 0 577.41 -26.96 0 0 -577.41z"/>
   <path fill="none" stroke="black" stroke-width="6.94" stroke-linecap="round" stroke-linejoin="round" stroke-miterlimit="2.61313" d="M818.75 402.9l26.96 0 0 577.41 -26.96 0 0 -577.41z"/>
   <path fill="none" stroke="black" stroke-width="6.94" stroke-linecap="round" stroke-linejoin="round" stroke-miterlimit="2.61313" d="M867.5 402.9l26.96 0 0 577.41 -26.96 0 0 -577.41z"/>
   <path fill="none" stroke="black" stroke-width="6.94" stroke-linecap="round" stroke-linejoin="round" stroke-miterlimit="2.61313" d="M914.14 402.9l26.96 0 0 577.41 -26.96 0 0 -577.41z"/>
   <path fill="none" stroke="black" stroke-width="6.94" stroke-linecap="round" stroke-linejoin="round" stroke-miterlimit="2.61313" d="M960.78 402.9l314.96 0 0 577.41 -314.96 0 0 -577.41z"/>
   <path fill="none" stroke="black" stroke-width="6.94" stroke-linecap="round" stroke-linejoin="round" stroke-miterlimit="2.61313" d="M1295.43 402.9l26.96 0 0 577.41 -26.96 0 0 -577.41z"/>
   <path fill="none" stroke="black" stroke-width="6.94" stroke-linecap="round" stroke-linejoin="round" stroke-miterlimit="2.61313" d="M1343.28 402.9l26.96 0 0 577.41 -26.96 0 0 -577.41z"/>
   <path fill="none" stroke="black" stroke-width="6.94" stroke-linecap="round" stroke-linejoin="round" stroke-miterlimit="2.61313" d="M1392.03 402.9l26.96 0 0 577.41 -26.96 0 0 -577.41z"/>
   <path fill="none" stroke="black" stroke-width="6.94" stroke-linecap="round" stroke-linejoin="round" stroke-miterlimit="2.61313" d="M1438.67 402.9l26.96 0 0 577.41 -26.96 0 0 -577.41z"/>
   <path fill="none" stroke="black" stroke-width="6.94" stroke-linecap="round" stroke-linejoin="round" stroke-miterlimit="2.61313" d="M1800.28 980.31l-314.96 0 0 -577.41 314.96 0"/>
   <path fill="none" stroke="black" stroke-width="6.94" stroke-linecap="round" stroke-linejoin="round" stroke-miterlimit="2.61313" d="M1800.28 1019.69l-314.96 0 0 577.41 314.96 0"/>
   <path fill="none" stroke="black" stroke-width="6.94" stroke-linecap="round" stroke-linejoin="round" stroke-miterlimit="2.61313" d="M1465.63 1019.69l-26.96 0 0 577.41 26.96 0 0 -577.41z"/>
   <path fill="none" stroke="black" stroke-width="6.94" stroke-linecap="round" stroke-linejoin="round" stroke-miterlimit="2.61313" d="M1417.78 1019.69l-26.96 0 0 577.41 26.96 0 0 -577.41z"/>
   <path fill="none" stroke="black" stroke-width="6.94" stroke-linecap="round" stroke-linejoin="round" stroke-miterlimit="2.61313" d="M1369.03 1019.69l-26.96 0 0 577.41 26.96 0 0 -577.41z"/>
   <path fill="none" stroke="black" stroke-width="6.94" stroke-linecap="round" stroke-linejoin="round" stroke-miterlimit="2.61313" d="M1322.39 1019.69l-26.96 0 0 577.41 26.96 0 0 -577.41z"/>
   <path fill="none" stroke="black" stroke-width="6.94" stroke-linecap="round" stroke-linejoin="round" stroke-miterlimit="2.61313" d="M1275.74 1019.69l-26.96 0 0 577.41 26.96 0 0 -577.41z"/>
   <path fill="none" stroke="black" stroke-width="6.94" stroke-linecap="round" stroke-linejoin="round" stroke-miterlimit="2.61313" d="M1229.1 1019.69l-26.96 0 0 577.41 26.96 0 0 -577.41z"/>
   <path fill="none" stroke="black" stroke-width="6.94" stroke-linecap="round" stroke-linejoin="round" stroke-miterlimit="2.61313" d="M1181.25 1019.69l-26.96 0 0 577.41 26.96 0 0 -577.41z"/>
   <path fill="none" stroke="black" stroke-width="6.94" stroke-linecap="round" stroke-linejoin="round" stroke-miterlimit="2.61313" d="M1132.5 1019.69l-26.96 0 0 577.41 26.96 0 0 -577.41z"/>
   <path fill="none" stroke="black" stroke-width="6.94" stroke-linecap="round" stroke-linejoin="round" stroke-miterlimit="2.61313" d="M1085.86 1019.69l-26.96 0 0 577.41 26.96 0 0 -577.41z"/>
   <path fill="none" stroke="black" stroke-width="6.94" stroke-linecap="round" stroke-linejoin="round" stroke-miterlimit="2.61313" d="M1039.22 1019.69l-314.96 0 0 577.41 314.96 0 0 -577.41z"/>
   <path fill="none" stroke="black" stroke-width="6.94" stroke-linecap="round" stroke-linejoin="round" stroke-miterlimit="2.61313" d="M704.57 1019.69l-26.96 0 0 577.41 26.96 0 0 -577.41z"/>
   <path fill="none" stroke="black" stroke-width="6.94" stroke-linecap="round" stroke-linejoin="round" stroke-miterlimit="2.61313" d="M656.72 1019.69l-26.96 0 0 577.41 26.96 0 0 -577.41z"/>
   <path fill="none" stroke="black" stroke-width="6.94" stroke-linecap="round" stroke-linejoin="round" stroke-miterlimit="2.61313" d="M607.97 1019.69l-26.96 0 0 577.41 26.96 0 0 -577.41z"/>
   <path fill="none" stroke="black" stroke-width="6.94" stroke-linecap="round" stroke-linejoin="round" stroke-miterlimit="2.61313" d="M561.33 1019.69l-26.96 0 0 577.41 26.96 0 0 -577.41z"/>
   <path fill="none" stroke="black" stroke-width="6.94" stroke-linecap="round" stroke-linejoin="round" stroke-miterlimit="2.61313" d="M199.72 1597.1l314.96 0 0 -577.41 -314.96 0"/>
  </g>
 </g>
</svg>
