<?xml version="1.0" encoding="UTF-8"?>
<!DOCTYPE svg PUBLIC "-//W3C//DTD SVG 1.1//EN" "http://www.w3.org/Graphics/SVG/1.1/DTD/svg11.dtd">
<!-- Creator: CorelDRAW 2021 (64-Bit) -->
<svg xmlns="http://www.w3.org/2000/svg" xml:space="preserve" width="2in" height="2in" version="1.1" shape-rendering="geometricPrecision" text-rendering="geometricPrecision" image-rendering="optimizeQuality" fill-rule="evenodd" clip-rule="evenodd"
viewBox="0 0 2000 2000"
 xmlns:xlink="http://www.w3.org/1999/xlink"
 xmlns:xodm="http://www.corel.com/coreldraw/odm/2003">
 <g id="Layer_x0020_1">
  <metadata id="CorelCorpID_0Corel-Layer"/>
  <path fill="none" stroke="black" stroke-width="6.94" stroke-linejoin="round" stroke-miterlimit="2.61313" d="M807.04 311.72l0 131.41c-19.38,6.62 -33.42,25.04 -33.42,46.59l0 1021.95c0,21.55 14.04,39.98 33.42,46.59l0 131.41m-141.69 0l0 -1377.95m314.96 0l0 1377.95m-141.78 0l0 -131.37c19.43,-6.59 33.51,-25.04 33.51,-46.63l0 -1021.95c0,-21.59 -14.08,-40.04 -33.51,-46.63l0 -131.37"/>
  <path fill="none" stroke="black" stroke-width="6.94" stroke-linejoin="round" stroke-miterlimit="2.61313" d="M1019.69 1688.28l0 -1377.95m141.69 0l0 131.41c-19.38,6.62 -33.42,25.04 -33.42,46.59l0 1021.95c0,21.55 14.04,39.98 33.42,46.59l0 131.41m31.5 0l0 -131.37c19.43,-6.59 33.51,-25.04 33.51,-46.63l0 -1021.95c0,-21.59 -14.08,-40.04 -33.51,-46.63l0 -131.37m141.78 0l0 1377.95"/>
 </g>
</svg>
