<?xml version="1.0" encoding="UTF-8"?>
<!DOCTYPE svg PUBLIC "-//W3C//DTD SVG 1.1//EN" "http://www.w3.org/Graphics/SVG/1.1/DTD/svg11.dtd">
<!-- Creator: CorelDRAW 2021 (64-Bit) -->
<svg xmlns="http://www.w3.org/2000/svg" xml:space="preserve" width="2in" height="2in" version="1.1" shape-rendering="geometricPrecision" text-rendering="geometricPrecision" image-rendering="optimizeQuality" fill-rule="evenodd" clip-rule="evenodd"
viewBox="0 0 2000 2000"
 xmlns:xlink="http://www.w3.org/1999/xlink"
 xmlns:xodm="http://www.corel.com/coreldraw/odm/2003">
 <g id="Layer_x0020_1">
  <metadata id="CorelCorpID_0Corel-Layer"/>
  <g id="_2287854158464">
   <path fill="none" stroke="black" stroke-width="6.94" stroke-linecap="round" stroke-linejoin="round" stroke-miterlimit="2.61313" d="M191.16 190.12l787.4 0 0 787.4 -787.4 0 0 -787.4zm98.43 98.43l590.55 0 0 590.55 -590.55 0 0 -590.55z"/>
   <path fill="none" stroke="black" stroke-width="6.94" stroke-linecap="round" stroke-linejoin="round" stroke-miterlimit="2.61313" d="M1021.43 190.12l787.4 0 0 787.4 -787.4 0 0 -787.4zm98.43 98.43l590.55 0 0 590.55 -590.55 0 0 -590.55z"/>
   <path fill="none" stroke="black" stroke-width="6.94" stroke-linecap="round" stroke-linejoin="round" stroke-miterlimit="2.61313" d="M191.16 1022.48l787.4 0 0 787.4 -787.4 0 0 -787.4zm98.43 98.43l590.55 0 0 590.55 -590.55 0 0 -590.55z"/>
   <path fill="none" stroke="black" stroke-width="6.94" stroke-linecap="round" stroke-linejoin="round" stroke-miterlimit="2.61313" d="M1021.43 1022.48l787.4 0 0 787.4 -787.4 0 0 -787.4zm98.43 98.43l590.55 0 0 590.55 -590.55 0 0 -590.55z"/>
  </g>
 </g>
</svg>
